<svg id="Layer_1" data-name="Layer 1" xmlns="http://www.w3.org/2000/svg" viewBox="0 0 85 84.97"><defs><style>.cls-1{fill:#333;}</style></defs><path class="cls-1" d="M0,42.5A42.5,42.5,0,1,1,42.57,85,42.51,42.51,0,0,1,0,42.5ZM14.53,59.29c.33,0,.61.07.89.07,5.91,0,11.82,0,17.73,0a14.49,14.49,0,0,0,2.17-.21c4.44-.7,7.46-3.35,8.37-7.38a13.16,13.16,0,0,0-.28-7,6,6,0,0,0-4.64-4.43c-.26-.06-.51-.09-.91-.15.25-.15.35-.22.46-.27,3-1.15,4.33-2.92,4.41-6.17.09-3.55-1-6.5-4.28-8.34a11,11,0,0,0-5.59-1.34H15.51c-.31,0-.62,0-1,.05Zm50.59-8.42c-1.16,3.24-4.3,4.57-8.06,3.48a5.32,5.32,0,0,1-3.91-6.05H71.52c-.16-1.93-.15-3.72-.47-5.44-.86-4.68-3.3-8.07-8.13-9.3a16,16,0,0,0-6.43-.28,11.64,11.64,0,0,0-9,6.11,15.71,15.71,0,0,0-1.62,10.89c1,4.63,3.61,7.88,8.26,9.18a18.8,18.8,0,0,0,9.71.12,10.36,10.36,0,0,0,4.63-2.32,8.09,8.09,0,0,0,2.64-6.39Zm.78-24.61H51.56v4.06H65.9Z"/><path class="cls-1" d="M22.5,43.68c3.64,0,7.17,0,10.69,0a3.57,3.57,0,0,1,3.18,3,8.84,8.84,0,0,1,.22,2.17c-.06,2.7-1.38,4.19-4.06,4.3-3.17.13-6.35.05-9.53.05a3.07,3.07,0,0,1-.5-.11Z"/><path class="cls-1" d="M22.51,30.29h9.75c1.67,0,2.75.75,2.94,2.36A12.84,12.84,0,0,1,35,36.41a2.18,2.18,0,0,1-2.27,1.82c-3.3,0-6.6,0-9.91,0a2.1,2.1,0,0,1-.32-.1Z"/><path class="cls-1" d="M64.58,43.69H53c0-3,2.92-5.56,6.28-5.52A5.12,5.12,0,0,1,64.58,43.69Z"/></svg>