<svg id="Layer_1" data-name="Layer 1" xmlns="http://www.w3.org/2000/svg" viewBox="0 0 85 85"><defs><style>.cls-1{fill:#333;}</style></defs><circle class="cls-1" cx="42.5" cy="42.5" r="8"/><path class="cls-1" d="M61.21,28.35a8,8,0,0,0-4.56-4.56A13.22,13.22,0,0,0,52.2,23c-2.53-.11-3.29-.14-9.7-.14s-7.17,0-9.7.14a13.22,13.22,0,0,0-4.45.83,8,8,0,0,0-4.56,4.56A13.22,13.22,0,0,0,23,32.8c-.11,2.53-.14,3.29-.14,9.7s0,7.17.14,9.7a13.22,13.22,0,0,0,.83,4.45,8,8,0,0,0,4.56,4.56A13.22,13.22,0,0,0,32.8,62c2.53.11,3.29.14,9.7.14s7.17,0,9.7-.14a13.22,13.22,0,0,0,4.45-.83,8,8,0,0,0,4.56-4.56A13.22,13.22,0,0,0,62,52.2c.11-2.53.14-3.29.14-9.7s0-7.17-.14-9.7A13.22,13.22,0,0,0,61.21,28.35ZM42.5,54.82A12.32,12.32,0,1,1,54.82,42.5,12.31,12.31,0,0,1,42.5,54.82ZM55.31,32.57a2.88,2.88,0,1,1,2.88-2.88A2.88,2.88,0,0,1,55.31,32.57Z"/><path class="cls-1" d="M42.5,0A42.5,42.5,0,1,0,85,42.5,42.5,42.5,0,0,0,42.5,0ZM66.36,52.4a17.78,17.78,0,0,1-1.12,5.82,12.3,12.3,0,0,1-7,7,17.78,17.78,0,0,1-5.82,1.12c-2.56.11-3.38.14-9.9.14s-7.33,0-9.9-.14a17.78,17.78,0,0,1-5.82-1.12,12.3,12.3,0,0,1-7-7,17.78,17.78,0,0,1-1.12-5.82c-.11-2.57-.14-3.38-.14-9.9s0-7.34.14-9.9a17.78,17.78,0,0,1,1.12-5.82,12.3,12.3,0,0,1,7-7,17.78,17.78,0,0,1,5.82-1.12c2.57-.11,3.38-.14,9.9-.14s7.34,0,9.9.14a17.78,17.78,0,0,1,5.82,1.12,12.3,12.3,0,0,1,7,7,17.78,17.78,0,0,1,1.12,5.82c.11,2.56.14,3.38.14,9.9S66.47,49.83,66.36,52.4Z"/></svg>