<svg id="Layer_1" data-name="Layer 1" xmlns="http://www.w3.org/2000/svg" viewBox="0 0 500 500"><defs><style>.cls-1{fill:#0079a9;}.cls-2{fill:none;}.cls-3{fill:#c0272d;}.cls-4{fill:#f37121;}.cls-5{fill:#ffcf01;}.cls-6{fill:#d73828;}.cls-7{fill:#6b408e;}.cls-8{fill:#00a04f;}</style></defs><path class="cls-1" d="M40.41,384H0V294.06q0-24.75,13-40.31a53,53,0,0,1,19-14.26,55.88,55.88,0,0,1,23.61-5.3q24.1,0,40.63,16.21t16.53,39.77q0,22.9-16.42,39.55t-38.9,16.64c-2.45,0-6.06-.25-10.81-.76V301.07q5,4,9.94,4a14.42,14.42,0,0,0,10.75-4.65,15.33,15.33,0,0,0,4.48-11,14.52,14.52,0,0,0-4.63-10.83A15.46,15.46,0,0,0,56,274.09q-15.55,0-15.56,21.5Z"/><path class="cls-1" d="M189.54,235.28V278.5a16,16,0,0,0-7.67-2.38q-11,0-11,16.88v51.11H130.43V285.2q0-23.34,12.75-37.23t34-13.88A82.1,82.1,0,0,1,189.54,235.28Z"/><path class="cls-1" d="M499.57,296.77H438.32a28.26,28.26,0,0,1,.54-19.13h20.51q-2.16-12-13.5-12a14.67,14.67,0,0,0-12.32,6.43q-4.76,6.44-4.76,16.5,0,10.49,4.59,17T445.43,312q6,0,11.67-6l23,27.66a56.54,56.54,0,0,1-35.75,12.62q-24,0-40.3-16.1t-16.32-39.87q0-23.67,16.48-40T444.7,234q23.44,0,39.38,15.94T500,289.19Q500,291.57,499.57,296.77Z"/><path class="cls-2" d="M260.25,298.15a52.84,52.84,0,0,0,16,31.88,51.85,51.85,0,0,0,3.94,3.46A56.17,56.17,0,0,1,260.25,298.15Z"/><path class="cls-2" d="M329.63,235.54v0Z"/><path class="cls-2" d="M330.42,311.55h0a20.74,20.74,0,0,0,4.13-3.75A20.74,20.74,0,0,1,330.42,311.55Z"/><path class="cls-2" d="M298.43,343.5c-1-.32-2-.63-3-1,1,.38,1.95.77,2.95,1.1h0Z"/><path class="cls-2" d="M259.67,290.12v.08c0-1.76.09-3.48.24-5.19C259.76,286.69,259.67,288.39,259.67,290.12Z"/><path class="cls-2" d="M290.69,329.71c-.94-.62-1.87-1.25-2.75-1.92l-.63-.49c-.81-.62-1.6-1.28-2.37-2l-.8-.72c-.72-.67-1.42-1.34-2.1-2.05-.28-.29-.55-.62-.81-.9-.63-.7-1.25-1.41-1.88-2.15-.23-.28-.44-.59-.66-.88a46.11,46.11,0,0,1-2.76-4c-.35-.58-.73-1.15-1.06-1.74s-.63-1.18-.9-1.78-.69-1.37-1-2.08-.48-1.18-.72-1.77c-.3-.76-.58-1.52-.84-2.29-.19-.59-.37-1.17-.55-1.77-.24-.83-.46-1.67-.62-2.5-.14-.56-.27-1.12-.38-1.7-.18-.95-.32-1.92-.44-2.9-.07-.49-.15-1-.2-1.46-.13-1.46-.22-2.92-.22-4.41v.08c0,13.24,4.5,24.09,13.75,33.13a46,46,0,0,0,17.8,11,47.76,47.76,0,0,1-9.71-4.62Z"/><path class="cls-3" d="M316.54,266.23h-.24a34.07,34.07,0,0,1,9.51,1.53"/><path class="cls-3" d="M323.12,305.07a13.48,13.48,0,0,1-3.12,1A13.48,13.48,0,0,0,323.12,305.07Z"/><path class="cls-3" d="M328.62,300.14a18.17,18.17,0,0,0,2-4.56A18.54,18.54,0,0,1,328.62,300.14Z"/><path class="cls-3" d="M325,304a11.63,11.63,0,0,1-1.91,1.09h0A11.63,11.63,0,0,0,325,304Z"/><path class="cls-3" d="M355.39,279.48h0v0Z"/><path class="cls-3" d="M354.14,275.69c.47,1.25.9,2.5,1.25,3.79h0C355,278.19,354.61,276.93,354.14,275.69Z"/><path class="cls-3" d="M292.57,341.25a54.06,54.06,0,0,1-5.84-3.06A51.48,51.48,0,0,0,292.57,341.25Z"/><path class="cls-3" d="M259.67,290.28c0,.54.06,1.05.07,1.58,0-.55-.07-1.1-.07-1.66Z"/><path class="cls-3" d="M328.88,312.52c.51-.3,1-.63,1.54-1h0C329.91,311.9,329.37,312.22,328.88,312.52Z"/><path class="cls-3" d="M315,321.46l-.07.12h0Z"/><path class="cls-3" d="M314.94,321.58c-.88,1.5-1.78,3-2.73,4.44.94-1.45,1.87-2.94,2.74-4.44Z"/><path class="cls-3" d="M309.28,330.29h0c1-1.4,2-2.81,2.89-4.25C311.25,327.49,310.28,328.89,309.28,330.29Z"/><path class="cls-3" d="M317.71,202.07c-1.64-3.09-3.39-6.11-5.28-9C314.32,196,316.07,199,317.71,202.07Z"/><path class="cls-3" d="M321.25,209.33c-1.11-2.5-2.31-4.89-3.57-7.26C319,204.44,320.17,206.86,321.25,209.33Z"/><path class="cls-3" d="M356.59,266.63c.07.12.15.22.21.34v-7.61C356.8,261.8,356.72,264.19,356.59,266.63Z"/><path class="cls-4" d="M356.8,259.36c0-2.73-.11-5.44-.26-8.12a148.51,148.51,0,0,0-1.73-15.88,145.75,145.75,0,0,0-8.12-29.5q-1.85-4.71-4-9.26A147.52,147.52,0,0,0,209.47,112c-70.42,0-129.42,49.67-143.9,115.81a62,62,0,0,1,9,2c13.52-62,68.86-108.58,134.87-108.58a138.16,138.16,0,0,1,122.92,75.3,135.07,135.07,0,0,1,14.14,46.31q.74,6.14.91,12.44c0,1.33.1,2.67.1,4v30.76A31.64,31.64,0,0,1,316,321.64c-.37,0-.72-.05-1.08-.06-.89,1.5-1.8,3-2.74,4.44,1-1.45,1.87-2.94,2.73-4.44a31.5,31.5,0,0,1,1.09-63,2.91,2.91,0,0,1,.51,0h0a32.22,32.22,0,0,1,4,.34l1,.15c.55.1,1.1.22,1.63.34l1,.26c.53.14,1.06.28,1.58.45v-9.63a40.75,40.75,0,0,0-9.27-1.19H316a40.75,40.75,0,0,0-6.75,81c1-1.4,2-2.8,2.91-4.24-.93,1.44-1.88,2.85-2.89,4.24a40.81,40.81,0,0,0,47.5-40.17V267l-.21-.34C356.72,264.19,356.8,261.8,356.8,259.36Z"/><path class="cls-5" d="M349.07,323.42a47.07,47.07,0,0,1-11.39,8.33l-.18.32a45.67,45.67,0,0,0,10.93-7.3Z"/><path class="cls-3" d="M321.87,336.69c.72-.08,1.42-.19,2.14-.3h0C323.29,336.51,322.58,336.62,321.87,336.69Z"/><path class="cls-3" d="M324,336.42l1-.19c-.33.07-.68.1-1,.16Z"/><path class="cls-5" d="M325.62,336.11a49.11,49.11,0,0,0,11-3.56c.31-.15.62-.33.91-.48l.18-.32A46.12,46.12,0,0,1,325.62,336.11Z"/><path class="cls-3" d="M301.87,334.9h0l1.29.36h0C302.72,335.14,302.28,335,301.87,334.9Z"/><path class="cls-3" d="M303.12,335.27c.66.18,1.31.39,2,.55-.66-.15-1.3-.37-1.95-.55Z"/><path class="cls-3" d="M300.53,334.45h0l1.37.47h0Z"/><path class="cls-3" d="M298.43,343.5h0q3.49-3.69,6.7-7.68C303,338.49,300.77,341,298.43,343.5Z"/><path class="cls-5" d="M361.73,279.67a.27.27,0,0,1,0,.12l0-.13Z"/><path class="cls-5" d="M303.12,335.27c-.43-.13-.86-.23-1.28-.37s-.92-.3-1.37-.46a45.9,45.9,0,0,1-17.81-11c-9.25-9.08-13.75-19.92-13.75-33.13v-.09c0-12.74,4.52-23.49,13.75-32.85S302.5,243.45,315,243.45h.74a65.29,65.29,0,0,1,10.07.87v-9.5q-7.24-.63-10.81-.63-22.5,0-38.9,16.64a56.47,56.47,0,0,0-12.77,19.37c-.42,1.12-.84,2.25-1.19,3.4-.13.42-.25.85-.36,1.25-.37,1.29-.7,2.6-1,3.94-.09.41-.15.83-.23,1.25-.25,1.46-.49,2.93-.62,4.44a2.07,2.07,0,0,1,0,.49c-.15,1.7-.24,3.43-.24,5.19,0,.56.05,1.11.07,1.66,0,1,.06,2,.14,3s.23,2.18.37,3.26a56.11,56.11,0,0,0,19.9,35.35c.79.63,1.58,1.25,2.4,1.88l.55.4c1.06.76,2.15,1.5,3.26,2.19l.37.22a56.82,56.82,0,0,0,5.84,3.06c.59.27,1.16.58,1.77.82.34.14.71.26,1.06.39,1,.38,2,.72,3,1q3.49-3.69,6.69-7.67h0C304.45,335.66,303.81,335.44,303.12,335.27Z"/><path class="cls-5" d="M372.19,251.8a164.92,164.92,0,0,0-1.57-16.45,162.93,162.93,0,0,0-320.93-7.84q3.33-.34,6.67-.36c1,0,1.92,0,2.87.08C74,157.85,135.77,105.71,209.47,105.71a153.82,153.82,0,0,1,140.19,90.88q2.05,4.56,3.8,9.26a152.74,152.74,0,0,1,9.47,46v38.71c0,1.1-.11,2.18-.19,3.26-.08.85-.15,1.71-.26,2.5-.05.41-.13.81-.19,1.22q-.23,1.46-.51,2.85a47,47,0,0,1-12.71,23c-.21.45-.43.89-.63,1.34a45.55,45.55,0,0,1-10.94,7.33c-.31.15-.63.33-.92.48a49,49,0,0,1-10.95,3.56l-.62.12-1,.19c-.71.11-1.41.22-2.13.3a46.7,46.7,0,0,1-5.91.41h-.21c-1.25,0-2.45-.09-3.66-.18l-1.65-.16c-.94-.12-1.88-.26-2.79-.43s-1.68-.33-2.5-.52h0q-3.18,4-6.69,7.67a57.79,57.79,0,0,0,10.41,2.23,68.33,68.33,0,0,0,7.83.52h.17a53.65,53.65,0,0,0,8.67-.7c1.33-.23,2.63-.52,3.92-.84a56.32,56.32,0,0,0,41.15-41.15c.39-1.6.73-3.2,1-4.84s.41-3.5.52-5.28c.18-2.28.3-4.61.3-7V259.36C372.38,256.82,372.3,254.31,372.19,251.8Z"/><path class="cls-6" d="M341.19,258.07c0-2.6-.13-5.17-.31-7.73h0c-.26-3.79-.62-7.55-1.22-11.25a130.51,130.51,0,0,0-7.7-28.24,132,132,0,0,0-122.5-83.25C146.19,127.6,93.21,172.45,80.58,232a61.84,61.84,0,0,1,8.56,4.42,122.5,122.5,0,0,1,120.32-99.58c2,0,4,0,6,.15.62,0,1.29.08,1.94.13,1.32.08,2.64.17,3.94.3.76.07,1.52.16,2.27.25,1.19.14,2.38.28,3.55.45l2.35.37c1.15.18,2.28.39,3.4.62.79.16,1.57.31,2.35.48,1.12.24,2.24.5,3.35.77l2.27.56c1.15.31,2.29.63,3.43,1,.69.21,1.38.39,2.07.62,1.34.43,2.67.89,4,1.36l1.37.47c1.75.62,3.46,1.32,5.16,2,.63.26,1.25.55,1.88.83,1.08.48,2.16.95,3.22,1.46.75.35,1.48.73,2.22,1.09.92.47,1.87.94,2.77,1.42l2.29,1.25c.76.42,1.71,1,2.55,1.47l2.31,1.4c.76.48,1.6,1,2.39,1.54l2.29,1.52c.75.52,1.51,1.07,2.27,1.62s1.51,1.08,2.25,1.64,1.41,1.1,2.11,1.66,1.51,1.18,2.25,1.79c.41.34.8.7,1.2,1q2.61,2.23,5.09,4.6c.53.5,1.06,1,1.58,1.5.77.77,1.52,1.55,2.27,2.34.52.53,1,1.06,1.53,1.6.75.81,1.47,1.63,2.19,2.45.48.54,1,1.09,1.43,1.65.72.83,1.42,1.69,2.11,2.56l1.31,1.65c.69.9,1.38,1.82,2.05,2.74.38.51.75,1,1.13,1.58.69,1,1.38,2,2,3,.28.43.54.86.82,1.25,1.87,2.93,3.64,5.95,5.27,9,1.25,2.38,2.47,4.8,3.57,7.27.19.41.38.82.57,1.25.51,1.18,1,2.38,1.48,3.59.2.51.4,1,.62,1.53.45,1.19.88,2.39,1.3,3.59.19.54.37,1.09.55,1.64.4,1.2.79,2.42,1.15,3.65.16.53.31,1.07.46,1.6.35,1.25.7,2.53,1,3.82.11.45.21.91.32,1.36.32,1.39.62,2.77.92,4.17h0a.28.28,0,0,0,0,.13c.64,3.28,1.14,6.59,1.52,9.94v.09h0a129.07,129.07,0,0,1,.76,13.18v26c0,1.2-.05,2.34-.12,3.44,0,.27,0,.53-.06.79-.09,1.08-.21,2.13-.37,3.13h0a26.63,26.63,0,0,1-.63,2.75l-.17.58a18.24,18.24,0,0,1-2,4.57c-.08.13-.16.26-.25.39a12.51,12.51,0,0,1-3,3.21,2.62,2.62,0,0,1-.32.23,12.46,12.46,0,0,1-1.91,1.1,14.31,14.31,0,0,1-3.12,1h-.07a15.8,15.8,0,0,1-1.66.24c-.63,0-1.25.08-1.88.08a15.5,15.5,0,0,1-11.13-4.48,14.47,14.47,0,0,1-4.58-10.75,15.26,15.26,0,0,1,4.49-11.07,14.49,14.49,0,0,1,10.75-4.6q5,0,9.95,3.9V267.75a34.44,34.44,0,0,0-9.51-1.53h-.44a23.78,23.78,0,0,0-17.37,7.38,24.64,24.64,0,0,0-7.12,17.55,23.76,23.76,0,0,0,7.5,17.42,24.87,24.87,0,0,0,17.56,7.08,17.8,17.8,0,0,0,1.88-.07c.83-.06,1.74-.16,2.69-.31h.09a26.49,26.49,0,0,0,2.93-.68h.1a24.35,24.35,0,0,0,3.12-1.17h.05c.52-.24,1-.51,1.56-.8h0c.52-.3,1-.63,1.54-1a20.74,20.74,0,0,0,4.13-3.75h0a13.81,13.81,0,0,0,.89-1.13c.06-.08.11-.17.18-.25.23-.32.46-.66.68-1l.24-.4c.2-.32.38-.62.57-1l.26-.5c.17-.32.33-.63.49-1s.18-.39.27-.59.29-.67.42-1,.17-.45.26-.67.25-.7.37-1.06l.24-.74c.11-.36.21-.74.31-1.11l.21-.81c.1-.39.18-.79.26-1.19s.13-.57.18-.87.15-.85.22-1.28.09-.6.14-.9c.06-.47.11-.94.16-1.42,0-.31.07-.63.09-.92.05-.53.08-1.09.11-1.64,0-.28,0-.55.06-.83,0-.83.05-1.71.05-2.63V258.09Z"/><polygon class="cls-2" points="226.32 236.36 226.32 245.62 226.4 245.62 226.4 236.36 225.63 236.36 225.63 236.36 226.32 236.36"/><path class="cls-2" d="M229.64,200.72a11.1,11.1,0,0,0-15.57,0,9.86,9.86,0,0,0-.37,14.13c1.29,1.25,3.52,2.85,8.12,2.85,4.17,0,6.39-1.31,7.73-2.5.59-.68,1.17-1.36,1.77-2a9.65,9.65,0,0,0,1.46-5.49A9.08,9.08,0,0,0,229.64,200.72Z"/><path class="cls-2" d="M226.32,248.13l.08-.17v-2.34h-.08Z"/><path class="cls-2" d="M226.4,235.14c-.26.41-.53.81-.77,1.21h.77Z"/><path class="cls-2" d="M226.32,331.69v3.13h1.52C227.32,333.8,226.81,332.77,226.32,331.69Z"/><path class="cls-1" d="M241.84,289.92c0,1.34,0,2.68.11,4"/><path class="cls-3" d="M230,214.85a9.66,9.66,0,0,0,1.35-1.64c-.63.66-1.19,1.34-1.78,2Z"/><path class="cls-7" d="M406.63,340.12a104.31,104.31,0,0,1-180.62,4h0a99.53,99.53,0,0,1-5-9.26q-2.17-4.53-3.92-9.29a104.07,104.07,0,0,1-6.25-35.63V236.35h-9.3v53.57a113.28,113.28,0,0,0,9.25,44.9h0c1.37,3.15,2.82,6.25,4.45,9.25a113.64,113.64,0,0,0,199.24,1A61,61,0,0,1,406.63,340.12Z"/><path class="cls-1" d="M241.55,203.4a18.71,18.71,0,0,0-5.49-9.38,20.37,20.37,0,0,0-28.42,0,19.11,19.11,0,0,0-.32,27.5,19.82,19.82,0,0,0,13.29,5.36c.41,0,.81,0,1.25,0q8.85,0,14.53-5.4c.08-.08.15-.17.23-.24a19.64,19.64,0,0,0,1.65-1.88,18.47,18.47,0,0,0,3.79-11.71A18.71,18.71,0,0,0,241.55,203.4Z"/><path class="cls-1" d="M394.94,328.79c-14.38,30-44.76,50.76-79.89,50.76a88.44,88.44,0,0,1-73.12-39,90.21,90.21,0,0,1-15.58-50.67l-.06-41.79V236.36h-9.23V254.3l.05,35.63a98.93,98.93,0,0,0,9.21,41.76c.49,1.06,1,2.1,1.52,3.13a96.48,96.48,0,0,0,5.34,9.25,97.71,97.71,0,0,0,81.87,44.72c37.5,0,70.17-21.43,86.61-52.8A62.68,62.68,0,0,1,394.94,328.79Z"/><path class="cls-8" d="M385,311a73.12,73.12,0,0,1-143-17c-.07-1.32-.11-2.66-.11-4s.11-38.12.11-38.12V236.35h-9.26v57.88a82.38,82.38,0,0,0,157.89,28.36A61.86,61.86,0,0,1,385,311Z"/></svg>