<svg xmlns="http://www.w3.org/2000/svg" xmlns:xlink="http://www.w3.org/1999/xlink" viewBox="0 0 550 91.17"><defs><style>.cls-1{fill:none;}.cls-2{clip-path:url(#clip-path);}.cls-3{fill:#c2d500;}.cls-4{fill:#00ac98;}.cls-5{fill:#333132;}.cls-6{fill:#727372;}</style><clipPath id="clip-path" transform="translate(0 0)"><rect class="cls-1" width="550" height="91.17"/></clipPath></defs><g id="Layer_2" data-name="Layer 2"><g id="Layer_1-2" data-name="Layer 1"><g id="Brokerage_-_Color" data-name="Brokerage - Color"><g class="cls-2"><polygon class="cls-3" points="287.34 0 275.88 14.13 287.43 28.37 275.89 42.6 287.34 56.73 310.35 28.37 287.34 0"/><polygon class="cls-4" points="264.42 0 241.41 28.37 264.42 56.73 275.88 42.6 264.33 28.37 275.88 14.13 264.42 0"/><g class="cls-2"><path class="cls-5" d="M33.12,17.19c0,5.79-3.53,8.75-7,10.26C31.35,29,35.57,32,35.57,38.15c0,7.62-6.36,12.09-16,12.09H0V6.17H18.76c8.69,0,14.36,4.28,14.36,11m-5,.69c0-4.41-3.46-7.24-9.76-7.24H4.91V25.81h13c6,0,10.14-2.71,10.14-7.93m2.46,20c0-4.85-4-7.62-11.71-7.62H4.91V45.77h14.8c6.67,0,10.83-3,10.83-7.93" transform="translate(0 0)"/><path class="cls-5" d="M83,31.42c0,12.84-7.36,19.51-18.38,19.51S46.34,44.26,46.34,31.79V6.17h5V31.48c0,9.51,5,14.86,13.48,14.86,8.12,0,13.28-4.91,13.28-14.55V6.17h5Z" transform="translate(0 0)"/><path class="cls-5" d="M126.74,50.24,114,33.12h-12.6V50.24h-5V6.17h19c9.7,0,15.93,5.22,15.93,13.16,0,7.36-5,11.64-12,12.9l13.54,18ZM115,10.76h-13.6V28.64H114.9c6.61,0,11.33-3.4,11.33-9.12,0-5.48-4.15-8.76-11.27-8.76" transform="translate(0 0)"/><polygon class="cls-5" points="175.91 6.17 180.76 6.17 180.76 50.24 176.79 50.24 148.33 14.1 148.33 50.24 143.49 50.24 143.49 6.17 148.15 6.17 175.91 41.49 175.91 6.17"/><path class="cls-5" d="M210.6,25.81C220.42,28,225,31.54,225,38.34c0,7.62-6.3,12.53-15.05,12.53a25.8,25.8,0,0,1-18-7L195,40.17c4.59,4.15,9,6.23,15.11,6.23,5.92,0,9.82-3.08,9.82-7.56,0-4.15-2.2-6.48-11.46-8.43-10.14-2.21-14.79-5.48-14.79-12.78,0-7,6.1-12.09,14.48-12.09A23,23,0,0,1,223.63,11l-2.89,3.84A19.39,19.39,0,0,0,208,10c-5.73,0-9.38,3.15-9.38,7.18,0,4.21,2.27,6.54,12,8.62" transform="translate(0 0)"/><path class="cls-5" d="M343.55,25.81c9.83,2.14,14.36,5.73,14.36,12.53,0,7.62-6.3,12.53-15.05,12.53a25.8,25.8,0,0,1-18-7l3.09-3.65c4.59,4.15,9,6.23,15.11,6.23,5.92,0,9.82-3.08,9.82-7.56,0-4.15-2.2-6.48-11.46-8.43-10.13-2.21-14.79-5.48-14.79-12.78,0-7,6.1-12.09,14.48-12.09A23,23,0,0,1,356.59,11l-2.9,3.84A19.37,19.37,0,0,0,341,10c-5.73,0-9.38,3.15-9.38,7.18,0,4.21,2.27,6.54,12,8.62" transform="translate(0 0)"/><path class="cls-5" d="M389.77,51c-12.72,0-22.1-10-22.1-22.73S377,5.41,390,5.41c8,0,12.78,2.83,17.18,7l-3.4,3.65c-3.71-3.52-7.87-6-13.85-6-9.76,0-17.06,7.87-17.06,18.13S380.2,46.4,389.89,46.4c6.05,0,10-2.33,14.23-6.36l3.28,3.21c-4.6,4.66-9.64,7.75-17.63,7.75" transform="translate(0 0)"/><path class="cls-5" d="M458.71,50.24h-5.35L448.2,38.59h-24L419,50.24h-5.1L434,5.85h4.65ZM436.23,11.65,426.16,34.12h20.08Z" transform="translate(0 0)"/><polygon class="cls-5" points="468.97 6.17 473.94 6.17 473.94 45.64 498.75 45.64 498.75 50.24 468.97 50.24 468.97 6.17"/><path class="cls-5" d="M527.46,51c-13.41,0-22.41-10.52-22.41-22.73s9.13-22.86,22.54-22.86S550,15.93,550,28.14,540.87,51,527.46,51m0-41c-10.07,0-17.25,8.06-17.25,18.13s7.3,18.26,17.38,18.26,17.25-8.06,17.25-18.13S537.53,10,527.46,10" transform="translate(0 0)"/><path class="cls-6" d="M12.79,90.85,7.4,83.64H2.1v7.21H0V72.28H8c4.08,0,6.71,2.2,6.71,5.55,0,3.1-2.12,4.9-5,5.44l5.7,7.58Zm-5-16.63H2.1v7.53H7.8c2.79,0,4.78-1.43,4.78-3.84s-1.75-3.69-4.75-3.69" transform="translate(0 0)"/><polygon class="cls-6" points="41.9 74.19 30.57 74.19 30.57 80.53 40.71 80.53 40.71 82.44 30.57 82.44 30.57 88.94 42.03 88.94 42.03 90.85 28.48 90.85 28.48 72.28 41.9 72.28 41.9 74.19"/><path class="cls-6" d="M72.84,90.85H70.59l-2.17-4.91H58.31L56.1,90.85H54l8.46-18.7h2ZM63.37,74.59l-4.24,9.47h8.46Z" transform="translate(0 0)"/><polygon class="cls-6" points="85.8 72.28 87.9 72.28 87.9 88.91 98.35 88.91 98.35 90.85 85.8 90.85 85.8 72.28"/><polygon class="cls-6" points="142.19 74.19 130.87 74.19 130.87 80.53 141 80.53 141 82.44 130.87 82.44 130.87 88.94 142.33 88.94 142.33 90.85 128.77 90.85 128.77 72.28 142.19 72.28 142.19 74.19"/><path class="cls-6" d="M162.5,80.56c4.14.9,6.05,2.41,6.05,5.28,0,3.21-2.66,5.28-6.34,5.28a10.86,10.86,0,0,1-7.59-3l1.3-1.54a8.85,8.85,0,0,0,6.37,2.63c2.49,0,4.14-1.31,4.14-3.19s-.93-2.73-4.83-3.55c-4.27-.93-6.24-2.31-6.24-5.39S157.94,72,161.47,72A9.69,9.69,0,0,1,168,74.3l-1.22,1.62a8.14,8.14,0,0,0-5.36-2c-2.41,0-3.95,1.33-3.95,3s1,2.76,5,3.64" transform="translate(0 0)"/><polygon class="cls-6" points="188.75 90.85 186.62 90.85 186.62 74.22 180.39 74.22 180.39 72.28 194.98 72.28 194.98 74.22 188.75 74.22 188.75 90.85"/><path class="cls-6" d="M223.11,90.85h-2.25l-2.18-4.91H208.57l-2.2,4.91h-2.15l8.46-18.7h2Zm-9.47-16.26-4.24,9.47h8.46Z" transform="translate(0 0)"/><polygon class="cls-6" points="240.71 90.85 238.59 90.85 238.59 74.22 232.35 74.22 232.35 72.28 246.94 72.28 246.94 74.22 240.71 74.22 240.71 90.85"/><polygon class="cls-6" points="273.59 74.19 262.26 74.19 262.26 80.53 272.4 80.53 272.4 82.44 262.26 82.44 262.26 88.94 273.72 88.94 273.72 90.85 260.17 90.85 260.17 72.28 273.59 72.28 273.59 74.19"/><path class="cls-6" d="M318.44,76.93a4.5,4.5,0,0,1-2.94,4.32c2.2.66,4,1.94,4,4.51,0,3.21-2.68,5.09-6.74,5.09h-8.25V72.28h7.9c3.66,0,6.05,1.81,6.05,4.65m-2.12.29c0-1.86-1.46-3-4.11-3h-5.65v6.39h5.49c2.52,0,4.27-1.14,4.27-3.34m1,8.41c0-2-1.69-3.21-4.93-3.21h-5.86V89h6.23c2.81,0,4.56-1.25,4.56-3.34" transform="translate(0 0)"/><path class="cls-6" d="M345.72,90.85l-5.38-7.21H335v7.21h-2.09V72.28h8c4.09,0,6.71,2.2,6.71,5.55,0,3.1-2.12,4.9-5,5.44l5.71,7.58Zm-5-16.63H335v7.53h5.71c2.78,0,4.77-1.43,4.77-3.84s-1.75-3.69-4.75-3.69" transform="translate(0 0)"/><path class="cls-6" d="M370,91.17a9.61,9.61,0,1,1,9.49-9.63A9.33,9.33,0,0,1,370,91.17m0-17.27a7.3,7.3,0,0,0-7.27,7.64,7.39,7.39,0,0,0,7.32,7.7c4.24,0,7.27-3.4,7.27-7.65A7.39,7.39,0,0,0,370,73.9" transform="translate(0 0)"/><polygon class="cls-6" points="409.07 90.85 406.45 90.85 399.31 81.86 395.36 85.87 395.36 90.85 393.26 90.85 393.26 72.28 395.36 72.28 395.36 83.37 406.02 72.28 408.73 72.28 400.77 80.4 409.07 90.85"/><polygon class="cls-6" points="435.06 74.19 423.73 74.19 423.73 80.53 433.86 80.53 433.86 82.44 423.73 82.44 423.73 88.94 435.19 88.94 435.19 90.85 421.63 90.85 421.63 72.28 435.06 72.28 435.06 74.19"/><path class="cls-6" d="M461.49,90.85l-5.39-7.21h-5.3v7.21h-2.1V72.28h8c4.08,0,6.71,2.2,6.71,5.55,0,3.1-2.12,4.9-5,5.44l5.7,7.58Zm-5-16.63H450.8v7.53h5.7c2.79,0,4.78-1.43,4.78-3.84s-1.75-3.69-4.75-3.69" transform="translate(0 0)"/><path class="cls-6" d="M494.48,90.85h-2.26L490,85.94h-10.1l-2.2,4.91h-2.15l8.46-18.7h2ZM485,74.59l-4.25,9.47h8.46Z" transform="translate(0 0)"/><path class="cls-6" d="M515,91.17c-5.84,0-9.45-4.24-9.45-9.58A9.33,9.33,0,0,1,514.84,72a9.8,9.8,0,0,1,6.92,2.47L520.41,76a8,8,0,0,0-5.65-2.12c-4.12,0-7.06,3.48-7.06,7.64,0,4.46,2.84,7.75,7.35,7.75a8.74,8.74,0,0,0,5.36-1.86V82.81h-5.65V80.93h7.66v7.4A11.23,11.23,0,0,1,515,91.17" transform="translate(0 0)"/><polygon class="cls-6" points="549.86 74.19 538.54 74.19 538.54 80.53 548.67 80.53 548.67 82.44 538.54 82.44 538.54 88.94 550 88.94 550 90.85 536.44 90.85 536.44 72.28 549.86 72.28 549.86 74.19"/></g></g></g></g></g></svg>