<svg id="Layer_1" data-name="Layer 1" xmlns="http://www.w3.org/2000/svg" xmlns:xlink="http://www.w3.org/1999/xlink" viewBox="0 0 1200 900"><defs><style>.cls-1{fill:none;}.cls-2{fill:#f2f2f2;}.cls-3{clip-path:url(#clip-path);}.cls-4{fill:#c2d500;}.cls-5{fill:#00ac98;}.cls-6{clip-path:url(#clip-path-2);}.cls-7{fill:#333132;}.cls-8{fill:#727372;}.cls-9{clip-path:url(#clip-path-3);}.cls-10{clip-path:url(#clip-path-4);}.cls-11{clip-path:url(#clip-path-5);}</style><clipPath id="clip-path"><rect class="cls-1" x="325" y="205.5" width="550" height="91.17"/></clipPath><clipPath id="clip-path-2"><rect class="cls-1" x="325" y="205.5" width="550" height="91.17"/></clipPath><clipPath id="clip-path-3"><rect class="cls-1" x="325" y="404.41" width="550" height="91.17"/></clipPath><clipPath id="clip-path-4"><rect class="cls-1" x="325" y="404.41" width="550" height="91.17"/></clipPath><clipPath id="clip-path-5"><rect class="cls-1" x="325" y="603.33" width="550" height="91.17"/></clipPath></defs><rect class="cls-2" width="1200" height="900"/><g id="Development_-_Color" data-name="Development - Color"><g class="cls-3"><polygon class="cls-4" points="612.34 205.5 600.88 219.63 612.43 233.87 600.89 248.1 612.34 262.23 635.35 233.87 612.34 205.5"/><polygon class="cls-5" points="589.42 205.5 566.41 233.87 589.42 262.23 600.88 248.1 589.33 233.87 600.88 219.63 589.42 205.5"/><g class="cls-6"><path class="cls-7" d="M358.12,222.69c0,5.79-3.53,8.75-7,10.26,5.22,1.57,9.44,4.6,9.44,10.7,0,7.62-6.36,12.09-16,12.09H325V211.67h18.76c8.69,0,14.36,4.28,14.36,11m-5,.69c0-4.41-3.46-7.24-9.76-7.24H329.91v15.17h13c6,0,10.14-2.7,10.14-7.93m2.46,20c0-4.85-4-7.62-11.71-7.62H329.91v15.55h14.8c6.67,0,10.83-3,10.83-7.93"/><path class="cls-7" d="M408,236.92c0,12.84-7.36,19.51-18.38,19.51s-18.32-6.67-18.32-19.13V211.67h5V237c0,9.51,5,14.86,13.48,14.86,8.12,0,13.28-4.91,13.28-14.54V211.67h5Z"/><path class="cls-7" d="M451.74,255.74,439,238.62h-12.6v17.12h-5V211.67h18.95c9.7,0,15.93,5.23,15.93,13.16,0,7.37-5,11.65-12,12.91l13.54,18ZM440,216.27h-13.6v17.88H439.9c6.61,0,11.33-3.4,11.33-9.13,0-5.48-4.15-8.75-11.27-8.75"/><polygon class="cls-7" points="500.91 211.67 505.76 211.67 505.76 255.74 501.79 255.74 473.33 219.6 473.33 255.74 468.49 255.74 468.49 211.67 473.15 211.67 500.91 246.99 500.91 211.67"/><path class="cls-7" d="M535.6,231.31C545.42,233.45,550,237,550,243.84c0,7.62-6.3,12.53-15.05,12.53a25.8,25.8,0,0,1-18-7.05l3.09-3.65c4.59,4.15,9,6.23,15.11,6.23,5.92,0,9.82-3.08,9.82-7.55,0-4.16-2.2-6.49-11.46-8.44-10.14-2.2-14.79-5.48-14.79-12.78,0-7,6.1-12.09,14.48-12.09a23,23,0,0,1,15.48,5.41l-2.89,3.84A19.39,19.39,0,0,0,533,215.51c-5.73,0-9.38,3.15-9.38,7.18,0,4.22,2.27,6.55,12,8.62"/><path class="cls-7" d="M668.55,231.31c9.83,2.14,14.36,5.73,14.36,12.53,0,7.62-6.3,12.53-15,12.53a25.8,25.8,0,0,1-18-7.05l3.09-3.65c4.59,4.15,9,6.23,15.11,6.23,5.92,0,9.82-3.08,9.82-7.55,0-4.16-2.2-6.49-11.46-8.44-10.13-2.2-14.79-5.48-14.79-12.78,0-7,6.1-12.09,14.48-12.09a23,23,0,0,1,15.49,5.41l-2.9,3.84A19.37,19.37,0,0,0,666,215.51c-5.73,0-9.38,3.15-9.38,7.18,0,4.22,2.27,6.55,12,8.62"/><path class="cls-7" d="M714.77,256.5c-12.72,0-22.1-10-22.1-22.73S702,210.92,715,210.92c8,0,12.78,2.83,17.18,7l-3.4,3.66c-3.71-3.53-7.87-6.05-13.85-6.05-9.76,0-17.06,7.87-17.06,18.13s7.37,18.26,17.06,18.26c6.05,0,10-2.33,14.23-6.36l3.28,3.21c-4.6,4.66-9.64,7.75-17.63,7.75"/><path class="cls-7" d="M783.71,255.74h-5.35L773.2,244.1h-24L744,255.74h-5.1L759,211.35h4.65Zm-22.48-38.59-10.07,22.47h20.08Z"/><polygon class="cls-7" points="793.97 211.67 798.95 211.67 798.95 251.15 823.75 251.15 823.75 255.74 793.97 255.74 793.97 211.67"/><path class="cls-7" d="M852.46,256.5c-13.41,0-22.41-10.52-22.41-22.73s9.13-22.86,22.54-22.86S875,221.43,875,233.64s-9.13,22.86-22.54,22.86m0-41c-10.07,0-17.25,8.06-17.25,18.13s7.3,18.26,17.38,18.26,17.25-8.06,17.25-18.13-7.31-18.26-17.38-18.26"/><path class="cls-8" d="M336.64,296.38l-4.9-6.56h-4.83v6.56H325v-16.9h7.27c3.72,0,6.11,2,6.11,5,0,2.82-1.93,4.46-4.59,5l5.19,6.9Zm-4.52-15.14h-5.21v6.86h5.19c2.53,0,4.35-1.3,4.35-3.5s-1.6-3.36-4.33-3.36"/><polygon class="cls-8" points="363.14 281.22 352.83 281.22 352.83 286.99 362.05 286.99 362.05 288.73 352.83 288.73 352.83 294.64 363.26 294.64 363.26 296.38 350.92 296.38 350.92 279.48 363.14 279.48 363.14 281.22"/><path class="cls-8" d="M391.3,296.38h-2.05l-2-4.46h-9.2l-2,4.46h-1.95l7.7-17h1.79Zm-8.62-14.8-3.87,8.62h7.71Z"/><polygon class="cls-8" points="403.09 279.48 405 279.48 405 294.62 414.51 294.62 414.51 296.38 403.09 296.38 403.09 279.48"/><polygon class="cls-8" points="454.42 281.22 444.11 281.22 444.11 286.99 453.33 286.99 453.33 288.73 444.11 288.73 444.11 294.64 454.54 294.64 454.54 296.38 442.2 296.38 442.2 279.48 454.42 279.48 454.42 281.22"/><path class="cls-8" d="M472.9,287c3.76.83,5.5,2.2,5.5,4.81,0,2.92-2.41,4.8-5.77,4.8a9.9,9.9,0,0,1-6.91-2.7l1.19-1.4a8.05,8.05,0,0,0,5.79,2.39c2.27,0,3.77-1.18,3.77-2.9s-.85-2.48-4.39-3.23c-3.89-.85-5.68-2.1-5.68-4.91s2.34-4.63,5.56-4.63a8.77,8.77,0,0,1,5.93,2.08l-1.11,1.47a7.41,7.41,0,0,0-4.87-1.84c-2.2,0-3.6,1.21-3.6,2.76s.87,2.51,4.59,3.3"/><polygon class="cls-8" points="496.78 296.38 494.85 296.38 494.85 281.25 489.18 281.25 489.18 279.48 502.46 279.48 502.46 281.25 496.78 281.25 496.78 296.38"/><path class="cls-8" d="M528.06,296.38h-2l-2-4.46h-9.2l-2,4.46h-2l7.7-17h1.79Zm-8.62-14.8-3.86,8.62h7.7Z"/><polygon class="cls-8" points="544.08 296.38 542.15 296.38 542.15 281.25 536.48 281.25 536.48 279.48 549.75 279.48 549.75 281.25 544.08 281.25 544.08 296.38"/><polygon class="cls-8" points="574 281.22 563.69 281.22 563.69 286.99 572.92 286.99 572.92 288.73 563.69 288.73 563.69 294.64 574.12 294.64 574.12 296.38 561.79 296.38 561.79 279.48 574 279.48 574 281.22"/><path class="cls-8" d="M608,296.38h-5.86v-16.9H608c5.32,0,9,3.65,9,8.43s-3.67,8.47-9,8.47m0-15.14h-4v13.38h4c4.28,0,7-2.9,7-6.66s-2.72-6.72-7-6.72"/><polygon class="cls-8" points="641.69 281.22 631.38 281.22 631.38 286.99 640.6 286.99 640.6 288.73 631.38 288.73 631.38 294.64 641.81 294.64 641.81 296.38 629.47 296.38 629.47 279.48 641.69 279.48 641.69 281.22"/><polygon class="cls-8" points="666.83 279.48 668.88 279.48 661.62 296.5 659.92 296.5 652.66 279.48 654.78 279.48 660.79 294.04 666.83 279.48"/><polygon class="cls-8" points="692.89 281.22 682.58 281.22 682.58 286.99 691.81 286.99 691.81 288.73 682.58 288.73 682.58 294.64 693.01 294.64 693.01 296.38 680.68 296.38 680.68 279.48 692.89 279.48 692.89 281.22"/><polygon class="cls-8" points="705.31 279.48 707.22 279.48 707.22 294.62 716.74 294.62 716.74 296.38 705.31 296.38 705.31 279.48"/><path class="cls-8" d="M735.6,296.67A8.49,8.49,0,0,1,727,288a8.63,8.63,0,1,1,8.6,8.71m0-15.72a6.66,6.66,0,0,0-6.62,7,6.73,6.73,0,0,0,6.67,7,6.64,6.64,0,0,0,6.61-7,6.72,6.72,0,0,0-6.66-7"/><path class="cls-8" d="M762.75,290.42h-4.1v6h-1.91v-16.9h6.33c3.81,0,6.32,2,6.32,5.39,0,3.67-3,5.55-6.64,5.55m.17-9.18h-4.27v7.44h4.18c2.79,0,4.63-1.5,4.63-3.74,0-2.44-1.81-3.7-4.54-3.7"/><polygon class="cls-8" points="789.44 291.75 789.35 291.75 783.19 282.72 783.19 296.38 781.33 296.38 781.33 279.48 783.26 279.48 789.42 288.7 795.58 279.48 797.51 279.48 797.51 296.38 795.6 296.38 795.6 282.69 789.44 291.75"/><polygon class="cls-8" points="822.97 281.22 812.66 281.22 812.66 286.99 821.88 286.99 821.88 288.73 812.66 288.73 812.66 294.64 823.09 294.64 823.09 296.38 810.75 296.38 810.75 279.48 822.97 279.48 822.97 281.22"/><polygon class="cls-8" points="847.82 279.48 849.68 279.48 849.68 296.38 848.16 296.38 837.25 282.52 837.25 296.38 835.39 296.38 835.39 279.48 837.17 279.48 847.82 293.03 847.82 279.48"/><polygon class="cls-8" points="869.32 296.38 867.39 296.38 867.39 281.25 861.72 281.25 861.72 279.48 875 279.48 875 281.25 869.32 281.25 869.32 296.38"/></g></g></g><g id="Brokerage_-_Color" data-name="Brokerage - Color"><g class="cls-9"><polygon class="cls-4" points="612.34 404.42 600.88 418.55 612.43 432.78 600.89 447.02 612.34 461.14 635.35 432.78 612.34 404.42"/><polygon class="cls-5" points="589.42 404.42 566.41 432.78 589.42 461.14 600.88 447.01 589.33 432.78 600.88 418.55 589.42 404.42"/><g class="cls-10"><path class="cls-7" d="M358.12,421.6c0,5.79-3.53,8.75-7,10.26,5.22,1.58,9.44,4.6,9.44,10.71,0,7.61-6.36,12.09-16,12.09H325V410.58h18.76c8.69,0,14.36,4.28,14.36,11m-5,.69c0-4.4-3.46-7.24-9.76-7.24H329.91v15.18h13c6,0,10.14-2.71,10.14-7.94m2.46,20c0-4.85-4-7.62-11.71-7.62H329.91v15.55h14.8c6.67,0,10.83-3,10.83-7.93"/><path class="cls-7" d="M408,435.83c0,12.84-7.36,19.52-18.38,19.52s-18.32-6.68-18.32-19.14V410.58h5v25.31c0,9.51,5,14.86,13.48,14.86,8.12,0,13.28-4.91,13.28-14.54V410.58h5Z"/><path class="cls-7" d="M451.74,454.65,439,437.53h-12.6v17.12h-5V410.58h18.95c9.7,0,15.93,5.23,15.93,13.16,0,7.37-5,11.65-12,12.91l13.54,18ZM440,415.18h-13.6v17.88H439.9c6.61,0,11.33-3.4,11.33-9.13,0-5.48-4.15-8.75-11.27-8.75"/><polygon class="cls-7" points="500.91 410.58 505.76 410.58 505.76 454.65 501.79 454.65 473.33 418.52 473.33 454.65 468.49 454.65 468.49 410.58 473.15 410.58 500.91 445.9 500.91 410.58"/><path class="cls-7" d="M535.6,430.23C545.42,432.37,550,436,550,442.76c0,7.61-6.3,12.52-15.05,12.52a25.8,25.8,0,0,1-18-7l3.09-3.65c4.59,4.16,9,6.23,15.11,6.23,5.92,0,9.82-3.08,9.82-7.55,0-4.16-2.2-6.49-11.46-8.44-10.14-2.2-14.79-5.48-14.79-12.78,0-7.05,6.1-12.09,14.48-12.09a23,23,0,0,1,15.48,5.42l-2.89,3.84A19.35,19.35,0,0,0,533,414.42c-5.73,0-9.38,3.15-9.38,7.18,0,4.22,2.27,6.55,12,8.63"/><path class="cls-7" d="M668.55,430.23c9.83,2.14,14.36,5.73,14.36,12.53,0,7.61-6.3,12.52-15,12.52a25.8,25.8,0,0,1-18-7l3.09-3.65c4.59,4.16,9,6.23,15.11,6.23,5.92,0,9.82-3.08,9.82-7.55,0-4.16-2.2-6.49-11.46-8.44-10.13-2.2-14.79-5.48-14.79-12.78,0-7.05,6.1-12.09,14.48-12.09a23,23,0,0,1,15.49,5.42l-2.9,3.84A19.34,19.34,0,0,0,666,414.42c-5.73,0-9.38,3.15-9.38,7.18,0,4.22,2.27,6.55,12,8.63"/><path class="cls-7" d="M714.77,455.41c-12.72,0-22.1-10-22.1-22.73S702,409.83,715,409.83c8,0,12.78,2.83,17.18,7l-3.4,3.65c-3.71-3.53-7.87-6.05-13.85-6.05-9.76,0-17.06,7.87-17.06,18.13s7.37,18.26,17.06,18.26c6.05,0,10-2.33,14.23-6.36l3.28,3.22c-4.6,4.65-9.64,7.74-17.63,7.74"/><path class="cls-7" d="M783.71,454.66h-5.35L773.2,443h-24L744,454.66h-5.1L759,410.27h4.65Zm-22.48-38.6-10.07,22.48h20.08Z"/><polygon class="cls-7" points="793.97 410.58 798.95 410.58 798.95 450.06 823.75 450.06 823.75 454.65 793.97 454.65 793.97 410.58"/><path class="cls-7" d="M852.46,455.41c-13.41,0-22.41-10.51-22.41-22.73s9.13-22.85,22.54-22.85S875,420.34,875,432.55s-9.13,22.86-22.54,22.86m0-41c-10.07,0-17.25,8.06-17.25,18.13s7.3,18.26,17.38,18.26,17.25-8.05,17.25-18.13-7.31-18.26-17.38-18.26"/><path class="cls-8" d="M337.79,495.27l-5.39-7.22h-5.3v7.22H325V476.7h8c4.08,0,6.71,2.2,6.71,5.54,0,3.1-2.12,4.91-5,5.44l5.7,7.59Zm-5-16.64H327.1v7.54h5.7c2.79,0,4.78-1.44,4.78-3.85s-1.75-3.69-4.75-3.69"/><polygon class="cls-8" points="366.9 478.61 355.57 478.61 355.57 484.95 365.71 484.95 365.71 486.86 355.57 486.86 355.57 493.36 367.04 493.36 367.04 495.27 353.48 495.27 353.48 476.7 366.9 476.7 366.9 478.61"/><path class="cls-8" d="M397.84,495.27h-2.25l-2.17-4.91H383.31l-2.21,4.91H379l8.46-18.71h2ZM388.37,479l-4.24,9.47h8.46Z"/><polygon class="cls-8" points="410.8 476.7 412.9 476.7 412.9 493.33 423.35 493.33 423.35 495.27 410.8 495.27 410.8 476.7"/><polygon class="cls-8" points="467.19 478.61 455.87 478.61 455.87 484.95 466 484.95 466 486.86 455.87 486.86 455.87 493.36 467.33 493.36 467.33 495.27 453.77 495.27 453.77 476.7 467.19 476.7 467.19 478.61"/><path class="cls-8" d="M487.5,485c4.14.91,6.05,2.42,6.05,5.28,0,3.21-2.66,5.28-6.34,5.28a10.86,10.86,0,0,1-7.59-3l1.3-1.54a8.85,8.85,0,0,0,6.37,2.63c2.49,0,4.14-1.3,4.14-3.18s-.93-2.74-4.83-3.56c-4.27-.93-6.24-2.31-6.24-5.38s2.58-5.1,6.11-5.1a9.69,9.69,0,0,1,6.52,2.28l-1.22,1.62a8.14,8.14,0,0,0-5.36-2c-2.41,0-4,1.33-4,3s1,2.76,5,3.63"/><polygon class="cls-8" points="513.75 495.27 511.62 495.27 511.62 478.63 505.39 478.63 505.39 476.7 519.98 476.7 519.98 478.63 513.75 478.63 513.75 495.27"/><path class="cls-8" d="M548.11,495.27h-2.25l-2.18-4.91H533.57l-2.2,4.91h-2.15l8.46-18.71h2ZM538.64,479l-4.24,9.47h8.46Z"/><polygon class="cls-8" points="565.71 495.27 563.59 495.27 563.59 478.63 557.35 478.63 557.35 476.7 571.95 476.7 571.95 478.63 565.71 478.63 565.71 495.27"/><polygon class="cls-8" points="598.59 478.61 587.26 478.61 587.26 484.95 597.4 484.95 597.4 486.86 587.26 486.86 587.26 493.36 598.72 493.36 598.72 495.27 585.17 495.27 585.17 476.7 598.59 476.7 598.59 478.61"/><path class="cls-8" d="M643.44,481.34a4.5,4.5,0,0,1-2.94,4.33c2.2.66,4,1.93,4,4.5,0,3.21-2.68,5.1-6.74,5.1h-8.25V476.7h7.9c3.66,0,6.05,1.8,6.05,4.64m-2.12.29c0-1.86-1.46-3.05-4.11-3.05h-5.65V485h5.49c2.52,0,4.27-1.14,4.27-3.34m1,8.41c0-2-1.69-3.21-4.93-3.21h-5.86v6.55h6.23c2.81,0,4.56-1.24,4.56-3.34"/><path class="cls-8" d="M670.72,495.27l-5.38-7.22H660v7.22h-2.09V476.7h8c4.09,0,6.71,2.2,6.71,5.54,0,3.1-2.12,4.91-5,5.44l5.71,7.59Zm-5-16.64H660v7.54h5.71c2.78,0,4.77-1.44,4.77-3.85s-1.75-3.69-4.75-3.69"/><path class="cls-8" d="M695,495.59a9.61,9.61,0,1,1,9.49-9.63,9.33,9.33,0,0,1-9.49,9.63m0-17.28c-4.25,0-7.27,3.4-7.27,7.65a7.39,7.39,0,0,0,7.32,7.69,7.31,7.31,0,0,0,7.27-7.64,7.39,7.39,0,0,0-7.32-7.7"/><polygon class="cls-8" points="734.07 495.27 731.45 495.27 724.31 486.27 720.36 490.28 720.36 495.27 718.26 495.27 718.26 476.7 720.36 476.7 720.36 487.79 731.02 476.7 733.73 476.7 725.77 484.82 734.07 495.27"/><polygon class="cls-8" points="760.05 478.61 748.73 478.61 748.73 484.95 758.86 484.95 758.86 486.86 748.73 486.86 748.73 493.36 760.19 493.36 760.19 495.27 746.63 495.27 746.63 476.7 760.05 476.7 760.05 478.61"/><path class="cls-8" d="M786.49,495.27l-5.39-7.22h-5.3v7.22h-2.1V476.7h8c4.08,0,6.71,2.2,6.71,5.54,0,3.1-2.12,4.91-5,5.44l5.7,7.59Zm-5-16.64H775.8v7.54h5.7c2.79,0,4.78-1.44,4.78-3.85s-1.75-3.69-4.75-3.69"/><path class="cls-8" d="M819.48,495.27h-2.26L815,490.36h-10.1l-2.2,4.91h-2.15l8.46-18.71h2ZM810,479l-4.25,9.47h8.46Z"/><path class="cls-8" d="M840,495.59c-5.84,0-9.45-4.25-9.45-9.58a9.33,9.33,0,0,1,9.32-9.63,9.76,9.76,0,0,1,6.92,2.47l-1.35,1.59a7.91,7.91,0,0,0-5.65-2.13c-4.12,0-7.06,3.48-7.06,7.64,0,4.46,2.84,7.75,7.35,7.75a8.74,8.74,0,0,0,5.36-1.86v-4.61h-5.65v-1.89h7.66v7.41a11.23,11.23,0,0,1-7.45,2.84"/><polygon class="cls-8" points="874.86 478.61 863.54 478.61 863.54 484.95 873.67 484.95 873.67 486.86 863.54 486.86 863.54 493.36 875 493.36 875 495.27 861.44 495.27 861.44 476.7 874.86 476.7 874.86 478.61"/></g></g></g><g id="Management_-_Color" data-name="Management - Color"><g class="cls-11"><polygon class="cls-4" points="612.34 603.33 600.88 617.46 612.43 631.7 600.89 645.93 612.34 660.05 635.35 631.7 612.34 603.33"/><polygon class="cls-5" points="589.42 603.33 566.41 631.7 589.42 660.05 600.88 645.93 589.33 631.7 600.88 617.46 589.42 603.33"/><g class="cls-11"><path class="cls-7" d="M358.12,620.51c0,5.8-3.53,8.76-7,10.27,5.22,1.57,9.44,4.59,9.44,10.7,0,7.62-6.36,12.09-16,12.09H325V609.5h18.76c8.69,0,14.36,4.28,14.36,11m-5,.7c0-4.41-3.46-7.24-9.76-7.24H329.91v15.17h13c6,0,10.14-2.71,10.14-7.93m2.46,20c0-4.85-4-7.62-11.71-7.62H329.91V649.1h14.8c6.67,0,10.83-3,10.83-7.93"/><path class="cls-7" d="M408,634.74c0,12.85-7.36,19.52-18.38,19.52s-18.32-6.67-18.32-19.14V609.5h5v25.31c0,9.5,5,14.86,13.48,14.86,8.12,0,13.28-4.92,13.28-14.55V609.5h5Z"/><path class="cls-7" d="M451.74,653.57,439,636.44h-12.6v17.13h-5V609.5h18.95c9.7,0,15.93,5.22,15.93,13.15,0,7.37-5,11.65-12,12.91l13.54,18ZM440,614.09h-13.6V632H439.9c6.61,0,11.33-3.4,11.33-9.13,0-5.47-4.15-8.75-11.27-8.75"/><polygon class="cls-7" points="500.91 609.5 505.76 609.5 505.76 653.57 501.79 653.57 473.33 617.43 473.33 653.57 468.49 653.57 468.49 609.5 473.15 609.5 500.91 644.82 500.91 609.5"/><path class="cls-7" d="M535.6,629.14c9.82,2.14,14.36,5.73,14.36,12.53,0,7.62-6.3,12.53-15.05,12.53a25.8,25.8,0,0,1-18-7.05l3.09-3.66c4.59,4.16,9,6.24,15.11,6.24,5.92,0,9.82-3.09,9.82-7.56,0-4.15-2.2-6.48-11.46-8.43-10.14-2.21-14.79-5.48-14.79-12.79,0-7.05,6.1-12.08,14.48-12.08a23,23,0,0,1,15.48,5.41l-2.89,3.84A19.34,19.34,0,0,0,533,613.34c-5.73,0-9.38,3.15-9.38,7.17,0,4.22,2.27,6.55,12,8.63"/><path class="cls-7" d="M668.55,629.14c9.83,2.14,14.36,5.73,14.36,12.53,0,7.62-6.3,12.53-15,12.53a25.8,25.8,0,0,1-18-7.05l3.09-3.66c4.59,4.16,9,6.24,15.11,6.24,5.92,0,9.82-3.09,9.82-7.56,0-4.15-2.2-6.48-11.46-8.43-10.13-2.21-14.79-5.48-14.79-12.79,0-7.05,6.1-12.08,14.48-12.08a23,23,0,0,1,15.49,5.41l-2.9,3.84A19.32,19.32,0,0,0,666,613.34c-5.73,0-9.38,3.15-9.38,7.17,0,4.22,2.27,6.55,12,8.63"/><path class="cls-7" d="M714.77,654.32c-12.72,0-22.1-10-22.1-22.73S702,608.74,715,608.74c8,0,12.78,2.83,17.18,7l-3.4,3.65c-3.71-3.53-7.87-6-13.85-6-9.76,0-17.06,7.87-17.06,18.13s7.37,18.26,17.06,18.26c6.05,0,10-2.33,14.23-6.36l3.28,3.21c-4.6,4.66-9.64,7.74-17.63,7.74"/><path class="cls-7" d="M783.71,653.57h-5.35l-5.16-11.65h-24L744,653.57h-5.1L759,609.18h4.65ZM761.23,615l-10.07,22.48h20.08Z"/><polygon class="cls-7" points="793.97 609.5 798.95 609.5 798.95 648.97 823.75 648.97 823.75 653.57 793.97 653.57 793.97 609.5"/><path class="cls-7" d="M852.46,654.32c-13.41,0-22.41-10.51-22.41-22.72s9.13-22.86,22.54-22.86S875,619.26,875,631.47s-9.13,22.85-22.54,22.85m0-41c-10.07,0-17.25,8.06-17.25,18.13s7.3,18.26,17.38,18.26,17.25-8.06,17.25-18.13-7.31-18.26-17.38-18.26"/><path class="cls-8" d="M337,694.2l-5.05-6.77h-5v6.77h-2V676.79h7.49c3.83,0,6.3,2.06,6.3,5.2,0,2.91-2,4.6-4.73,5.09l5.35,7.12Zm-4.65-15.6H327v7.07h5.35c2.61,0,4.48-1.35,4.48-3.61s-1.65-3.46-4.46-3.46"/><polygon class="cls-8" points="364.29 678.58 353.67 678.58 353.67 684.52 363.17 684.52 363.17 686.32 353.67 686.32 353.67 692.41 364.42 692.41 364.42 694.2 351.7 694.2 351.7 676.79 364.29 676.79 364.29 678.58"/><path class="cls-8" d="M393.31,694.2h-2.12l-2-4.6h-9.48l-2.06,4.6h-2l7.94-17.54h1.84ZM384.43,679l-4,8.88h7.94Z"/><polygon class="cls-8" points="405.45 676.79 407.42 676.79 407.42 692.38 417.22 692.38 417.22 694.2 405.45 694.2 405.45 676.79"/><polygon class="cls-8" points="458.33 678.58 447.71 678.58 447.71 684.52 457.21 684.52 457.21 686.32 447.71 686.32 447.71 692.41 458.45 692.41 458.45 694.2 445.74 694.2 445.74 676.79 458.33 676.79 458.33 678.58"/><path class="cls-8" d="M477.37,684.55c3.88.84,5.67,2.26,5.67,5,0,3-2.49,5-5.94,5a10.17,10.17,0,0,1-7.12-2.79l1.22-1.44a8.29,8.29,0,0,0,6,2.46c2.34,0,3.88-1.22,3.88-3s-.87-2.56-4.53-3.34c-4-.87-5.84-2.16-5.84-5.05s2.41-4.77,5.72-4.77a9.08,9.08,0,0,1,6.12,2.14l-1.14,1.51a7.71,7.71,0,0,0-5-1.89c-2.27,0-3.71,1.25-3.71,2.84s.9,2.59,4.73,3.41"/><polygon class="cls-8" points="501.98 694.2 499.99 694.2 499.99 678.6 494.14 678.6 494.14 676.78 507.83 676.78 507.83 678.6 501.98 678.6 501.98 694.2"/><path class="cls-8" d="M534.2,694.2h-2.11l-2-4.6h-9.48l-2.07,4.6h-2l7.94-17.54h1.84ZM525.32,679l-4,8.88h7.94Z"/><polygon class="cls-8" points="550.7 694.2 548.72 694.2 548.72 678.6 542.87 678.6 542.87 676.78 556.55 676.78 556.55 678.6 550.7 678.6 550.7 694.2"/><polygon class="cls-8" points="581.53 678.58 570.91 678.58 570.91 684.52 580.42 684.52 580.42 686.32 570.91 686.32 570.91 692.41 581.66 692.41 581.66 694.2 568.95 694.2 568.95 676.79 581.53 676.79 581.53 678.58"/><polygon class="cls-8" points="618.86 689.42 618.76 689.42 612.42 680.12 612.42 694.2 610.5 694.2 610.5 676.79 612.49 676.79 618.84 686.29 625.18 676.79 627.17 676.79 627.17 694.2 625.21 694.2 625.21 680.1 618.86 689.42"/><path class="cls-8" d="M657,694.2h-2.11l-2-4.6H643.4l-2.07,4.6h-2l7.94-17.54h1.84ZM648.15,679l-4,8.88h7.94Z"/><polygon class="cls-8" points="682 676.79 683.91 676.79 683.91 694.2 682.34 694.2 671.1 679.92 671.1 694.2 669.18 694.2 669.18 676.79 671.02 676.79 682 690.74 682 676.79"/><path class="cls-8" d="M713.77,694.2h-2.12l-2-4.6h-9.47l-2.07,4.6h-2L704,676.66h1.84ZM704.89,679l-4,8.88h7.93Z"/><path class="cls-8" d="M733,694.5c-5.48,0-8.86-4-8.86-9a8.75,8.75,0,0,1,8.73-9,9.16,9.16,0,0,1,6.49,2.31l-1.27,1.49a7.39,7.39,0,0,0-5.3-2c-3.85,0-6.61,3.26-6.61,7.17,0,4.18,2.66,7.26,6.89,7.26a8.18,8.18,0,0,0,5-1.74v-4.33h-5.3V684.9H740v6.94a10.58,10.58,0,0,1-7,2.66"/><polygon class="cls-8" points="765.71 678.58 755.08 678.58 755.08 684.52 764.59 684.52 764.59 686.32 755.08 686.32 755.08 692.41 765.83 692.41 765.83 694.2 753.12 694.2 753.12 676.79 765.71 676.79 765.71 678.58"/><polygon class="cls-8" points="786.86 689.42 786.76 689.42 780.41 680.12 780.41 694.2 778.5 694.2 778.5 676.79 780.49 676.79 786.83 686.29 793.18 676.79 795.17 676.79 795.17 694.2 793.2 694.2 793.2 680.1 786.86 689.42"/><polygon class="cls-8" points="821.4 678.58 810.78 678.58 810.78 684.52 820.28 684.52 820.28 686.32 810.78 686.32 810.78 692.41 821.52 692.41 821.52 694.2 808.81 694.2 808.81 676.79 821.4 676.79 821.4 678.58"/><polygon class="cls-8" points="847 676.79 848.92 676.79 848.92 694.2 847.35 694.2 836.11 679.92 836.11 694.2 834.19 694.2 834.19 676.79 836.03 676.79 847 690.74 847 676.79"/><polygon class="cls-8" points="869.15 694.2 867.16 694.2 867.16 678.6 861.32 678.6 861.32 676.78 875 676.78 875 678.6 869.15 678.6 869.15 694.2"/></g></g></g></svg>