<svg id="Layer_1" data-name="Layer 1" xmlns="http://www.w3.org/2000/svg" xmlns:xlink="http://www.w3.org/1999/xlink" viewBox="0 0 1200 900"><defs><style>.cls-1{fill:none;}.cls-2{fill:#f2f2f2;}.cls-3{clip-path:url(#clip-path);}.cls-4{fill:#c2d500;}.cls-5{fill:#00ac98;}.cls-6{fill:#333132;}.cls-7{fill:#727372;}.cls-8{clip-path:url(#clip-path-3);}</style><clipPath id="clip-path"><rect class="cls-1" x="200" y="205.5" width="800" height="139.77"/></clipPath><clipPath id="clip-path-3"><rect class="cls-1" x="200" y="554.72" width="800" height="139.77"/></clipPath></defs><rect class="cls-2" width="1200" height="900"/><g id="Main_Logo_-_Color" data-name="Main Logo - Color"><g class="cls-3"><polygon class="cls-4" points="617.95 205.5 601.28 226.06 618.08 246.76 601.29 267.47 617.95 288.01 651.42 246.76 617.95 205.5"/><polygon class="cls-5" points="584.62 205.5 551.15 246.76 584.62 288.01 601.28 267.46 584.49 246.76 601.28 226.06 584.62 205.5"/><g class="cls-3"><path class="cls-6" d="M248.17,230.5c0,8.42-5.13,12.73-10.16,14.93,7.6,2.29,13.73,6.68,13.73,15.56,0,11.08-9.25,17.59-23.26,17.59H200V214.47h27.29c12.64,0,20.88,6.23,20.88,16m-7.32,1c0-6.42-5-10.54-14.2-10.54H207.14V243h19c8.7,0,14.75-3.93,14.75-11.53m3.57,29c0-7.06-5.87-11.08-17-11.08H207.14v22.61h21.52c9.71,0,15.76-4.3,15.76-11.53"/><path class="cls-6" d="M320.79,251.2c0,18.68-10.71,28.38-26.74,28.38-15.84,0-26.65-9.7-26.65-27.84V214.47h7.23v36.82c0,13.83,7.33,21.61,19.61,21.61,11.81,0,19.32-7.14,19.32-21.16V214.47h7.23Z"/><path class="cls-6" d="M384.35,278.58l-18.59-24.91H347.44v24.91h-7.23V214.47h27.56c14.1,0,23.17,7.6,23.17,19.14,0,10.72-7.32,16.94-17.4,18.78l19.69,26.19Zm-17.13-57.42H347.44v26h19.69c9.61,0,16.49-4.94,16.49-13.27,0-8-6.05-12.73-16.4-12.73"/><polygon class="cls-6" points="455.87 214.47 462.92 214.47 462.92 278.58 457.15 278.58 415.76 226.01 415.76 278.58 408.71 278.58 408.71 214.47 415.48 214.47 455.87 265.85 455.87 214.47"/><path class="cls-6" d="M506.33,243c14.29,3.12,20.88,8.34,20.88,18.23,0,11.08-9.16,18.22-21.89,18.22-10.16,0-18.5-3.39-26.19-10.26l4.49-5.31c6.68,6.05,13.09,9.07,22,9.07,8.61,0,14.28-4.49,14.28-11,0-6-3.2-9.43-16.66-12.27-14.75-3.21-21.53-8-21.53-18.59,0-10.26,8.89-17.58,21.07-17.58a33.44,33.44,0,0,1,22.53,7.87L521.07,227c-6-4.86-11.9-7-18.5-7-8.33,0-13.64,4.58-13.64,10.44,0,6.13,3.3,9.52,17.4,12.54"/><path class="cls-6" d="M699.71,243c14.29,3.12,20.88,8.34,20.88,18.23,0,11.08-9.15,18.22-21.88,18.22-10.17,0-18.5-3.39-26.2-10.26l4.49-5.31c6.68,6.05,13.1,9.07,22,9.07,8.61,0,14.29-4.49,14.29-11,0-6-3.21-9.43-16.67-12.27-14.75-3.21-21.52-8-21.52-18.59,0-10.26,8.88-17.58,21.06-17.58a33.44,33.44,0,0,1,22.53,7.87L714.45,227c-6-4.86-11.9-7-18.49-7-8.34,0-13.65,4.58-13.65,10.44,0,6.13,3.3,9.52,17.4,12.54"/><path class="cls-6" d="M766.93,279.68c-18.5,0-32.14-14.56-32.14-33.06,0-18.32,13.55-33.24,32.42-33.24,11.63,0,18.58,4.11,25,10.16l-5,5.31c-5.4-5.13-11.45-8.79-20.14-8.79-14.2,0-24.82,11.45-24.82,26.37S753,273,767.12,273c8.79,0,14.56-3.39,20.69-9.25l4.76,4.67c-6.68,6.78-14,11.27-25.64,11.27"/><path class="cls-6" d="M867.21,278.58h-7.78l-7.51-16.94H817l-7.61,16.94H802L831.22,214H838Zm-32.69-56.14-14.65,32.69h29.21Z"/><polygon class="cls-6" points="882.14 214.47 889.37 214.47 889.37 271.89 925.46 271.89 925.46 278.58 882.14 278.58 882.14 214.47"/><path class="cls-6" d="M967.21,279.68c-19.5,0-32.6-15.3-32.6-33.06s13.28-33.25,32.79-33.25,32.6,15.3,32.6,33.06-13.28,33.25-32.79,33.25m0-59.62c-14.65,0-25.09,11.72-25.09,26.37S952.74,273,967.4,273s25.09-11.72,25.09-26.37-10.62-26.56-25.28-26.56"/><path class="cls-7" d="M383.46,344.81l-9.4-12.6h-9.27v12.6h-3.66V312.38h13.95c7.13,0,11.72,3.85,11.72,9.68,0,5.42-3.71,8.57-8.81,9.5l10,13.25Zm-8.66-29.05h-10v13.16h10c4.87,0,8.34-2.5,8.34-6.72,0-4-3.06-6.44-8.29-6.44"/><polygon class="cls-7" points="434.27 315.72 414.49 315.72 414.49 326.79 432.19 326.79 432.19 330.13 414.49 330.13 414.49 341.48 434.5 341.48 434.5 344.81 410.83 344.81 410.83 312.38 434.27 312.38 434.27 315.72"/><path class="cls-7" d="M488.29,344.81h-3.94l-3.8-8.57H462.89l-3.84,8.57H455.3l14.78-32.66h3.42Zm-16.54-28.4L464.33,333h14.78Z"/><polygon class="cls-7" points="510.88 312.38 514.54 312.38 514.54 341.43 532.8 341.43 532.8 344.81 510.88 344.81 510.88 312.38"/><polygon class="cls-7" points="609.31 315.72 589.53 315.72 589.53 326.79 607.23 326.79 607.23 330.13 589.53 330.13 589.53 341.48 609.54 341.48 609.54 344.81 585.87 344.81 585.87 312.38 609.31 312.38 609.31 315.72"/><path class="cls-7" d="M644.75,326.84c7.22,1.57,10.56,4.21,10.56,9.22,0,5.6-4.63,9.21-11.07,9.21A19,19,0,0,1,631,340.08l2.27-2.68c3.39,3.06,6.63,4.59,11.12,4.59s7.23-2.27,7.23-5.56c0-3.06-1.62-4.78-8.43-6.21-7.46-1.62-10.89-4-10.89-9.41,0-5.19,4.49-8.9,10.66-8.9a16.9,16.9,0,0,1,11.39,4l-2.13,2.83a14.21,14.21,0,0,0-9.36-3.52c-4.21,0-6.9,2.31-6.9,5.28s1.67,4.82,8.81,6.35"/><polygon class="cls-7" points="690.56 344.81 686.85 344.81 686.85 315.76 675.96 315.76 675.96 312.38 701.44 312.38 701.44 315.76 690.56 315.76 690.56 344.81"/><path class="cls-7" d="M750.54,344.81h-3.93l-3.81-8.57H725.15l-3.84,8.57h-3.76l14.78-32.66h3.43ZM734,316.41,726.59,333h14.78Z"/><polygon class="cls-7" points="781.25 344.81 777.54 344.81 777.54 315.76 766.65 315.76 766.65 312.38 792.13 312.38 792.13 315.76 781.25 315.76 781.25 344.81"/><polygon class="cls-7" points="838.64 315.72 818.85 315.72 818.85 326.79 836.55 326.79 836.55 330.13 818.85 330.13 818.85 341.48 838.87 341.48 838.87 344.81 815.2 344.81 815.2 312.38 838.64 312.38 838.64 315.72"/></g></g></g><g id="Logo_-_Black" data-name="Logo - Black"><g class="cls-8"><polygon class="cls-6" points="617.95 554.72 601.28 575.28 618.08 595.99 601.29 616.69 617.95 637.24 651.42 595.99 617.95 554.72"/><polygon class="cls-6" points="584.62 554.72 551.15 595.99 584.62 637.24 601.28 616.69 584.48 595.99 601.28 575.28 584.62 554.72"/><g class="cls-8"><path class="cls-6" d="M248.17,579.72c0,8.42-5.13,12.73-10.17,14.93,7.6,2.29,13.74,6.68,13.74,15.57,0,11.08-9.25,17.58-23.26,17.58H200V563.69h27.29c12.64,0,20.88,6.23,20.88,16m-7.32,1c0-6.41-5-10.53-14.2-10.53H207.14v22.07h19c8.7,0,14.75-3.94,14.75-11.54m3.57,29c0-7-5.87-11.08-17-11.08H207.14V621.3h21.52c9.71,0,15.76-4.31,15.76-11.54"/><path class="cls-6" d="M320.79,600.42c0,18.68-10.71,28.39-26.74,28.39-15.84,0-26.65-9.71-26.65-27.84V563.69h7.23v36.82c0,13.83,7.33,21.61,19.61,21.61,11.81,0,19.32-7.14,19.32-21.15V563.69h7.23Z"/><path class="cls-6" d="M384.35,627.8l-18.59-24.91H347.44V627.8h-7.23V563.69h27.56c14.1,0,23.17,7.6,23.17,19.14,0,10.72-7.33,16.95-17.4,18.78l19.69,26.19Zm-17.13-57.42H347.44v26h19.69c9.61,0,16.48-4.95,16.48-13.28,0-8-6-12.73-16.39-12.73"/><polygon class="cls-6" points="455.87 563.69 462.92 563.69 462.92 627.8 457.15 627.8 415.76 575.23 415.76 627.8 408.71 627.8 408.71 563.69 415.48 563.69 455.87 615.07 455.87 563.69"/><path class="cls-6" d="M506.33,592.27c14.29,3.11,20.88,8.33,20.88,18.22,0,11.08-9.16,18.22-21.89,18.22-10.16,0-18.5-3.38-26.19-10.25l4.49-5.31c6.68,6,13.09,9.06,22,9.06,8.61,0,14.28-4.48,14.28-11,0-6-3.2-9.43-16.66-12.27-14.75-3.2-21.53-8-21.53-18.59,0-10.26,8.89-17.58,21.07-17.58a33.46,33.46,0,0,1,22.53,7.87l-4.22,5.59c-6-4.85-11.9-7-18.5-7-8.33,0-13.64,4.58-13.64,10.44,0,6.13,3.3,9.52,17.4,12.55"/><path class="cls-6" d="M699.71,592.27c14.29,3.11,20.88,8.33,20.88,18.22,0,11.08-9.15,18.22-21.88,18.22-10.17,0-18.5-3.38-26.2-10.25l4.49-5.31c6.68,6,13.1,9.06,22,9.06,8.61,0,14.29-4.48,14.29-11,0-6-3.21-9.43-16.67-12.27-14.75-3.2-21.52-8-21.52-18.59,0-10.26,8.88-17.58,21.06-17.58a33.44,33.44,0,0,1,22.53,7.87l-4.22,5.59c-5.94-4.85-11.9-7-18.49-7-8.34,0-13.65,4.58-13.65,10.44,0,6.13,3.3,9.52,17.4,12.55"/><path class="cls-6" d="M766.93,628.9c-18.5,0-32.14-14.56-32.14-33.06,0-18.32,13.55-33.24,32.42-33.24,11.63,0,18.59,4.11,25,10.16l-5,5.31c-5.4-5.13-11.45-8.79-20.14-8.79-14.2,0-24.82,11.45-24.82,26.37s10.71,26.56,24.82,26.56c8.79,0,14.56-3.39,20.69-9.25l4.76,4.67c-6.68,6.78-14,11.27-25.64,11.27"/><path class="cls-6" d="M867.21,627.8h-7.78l-7.51-16.94H817l-7.61,16.94H802l29.21-64.56H838Zm-32.69-56.14-14.65,32.69h29.21Z"/><polygon class="cls-6" points="882.14 563.69 889.37 563.69 889.37 621.11 925.46 621.11 925.46 627.8 882.14 627.8 882.14 563.69"/><path class="cls-6" d="M967.22,628.9c-19.51,0-32.61-15.3-32.61-33.06s13.28-33.25,32.79-33.25,32.6,15.3,32.6,33.06-13.28,33.25-32.78,33.25m0-59.62c-14.66,0-25.1,11.72-25.1,26.37s10.62,26.56,25.28,26.56,25.09-11.72,25.09-26.37-10.62-26.56-25.27-26.56"/><path class="cls-6" d="M408.77,694.1l-8-10.69h-7.86V694.1h-3.1V666.59h11.83c6,0,9.94,3.26,9.94,8.22,0,4.59-3.14,7.27-7.47,8.05l8.46,11.24Zm-7.35-24.64h-8.49v11.16h8.45c4.13,0,7.08-2.12,7.08-5.7,0-3.42-2.6-5.46-7-5.46"/><polygon class="cls-6" points="451.88 669.42 435.1 669.42 435.1 678.82 450.11 678.82 450.11 681.64 435.1 681.64 435.1 691.27 452.08 691.27 452.08 694.11 431.99 694.11 431.99 666.59 451.88 666.59 451.88 669.42"/><path class="cls-6" d="M497.7,694.1h-3.34l-3.22-7.27h-15l-3.26,7.27h-3.19l12.54-27.71h2.91Zm-14-24.09-6.29,14h12.54Z"/><polygon class="cls-6" points="516.87 666.59 519.97 666.59 519.97 691.24 535.46 691.24 535.46 694.11 516.87 694.11 516.87 666.59"/><polygon class="cls-6" points="600.37 669.42 583.59 669.42 583.59 678.82 598.61 678.82 598.61 681.64 583.59 681.64 583.59 691.27 600.57 691.27 600.57 694.11 580.49 694.11 580.49 666.59 600.37 666.59 600.37 669.42"/><path class="cls-6" d="M630.43,678.85c6.13,1.34,9,3.58,9,7.83,0,4.75-3.93,7.82-9.39,7.82a16.1,16.1,0,0,1-11.24-4.41l1.92-2.28c2.88,2.6,5.62,3.9,9.44,3.9s6.13-1.93,6.13-4.72c0-2.59-1.37-4-7.16-5.27-6.32-1.37-9.23-3.42-9.23-8,0-4.4,3.81-7.54,9-7.54a14.36,14.36,0,0,1,9.67,3.38L636.76,672a12.08,12.08,0,0,0-7.94-3c-3.58,0-5.86,2-5.86,4.48s1.42,4.09,7.47,5.38"/><polygon class="cls-6" points="669.3 694.11 666.15 694.11 666.15 669.46 656.91 669.46 656.91 666.59 678.53 666.59 678.53 669.46 669.3 669.46 669.3 694.11"/><path class="cls-6" d="M720.19,694.1h-3.34l-3.23-7.27h-15l-3.26,7.27H692.2l12.54-27.71h2.91Zm-14-24.09-6.28,14h12.54Z"/><polygon class="cls-6" points="746.23 694.11 743.09 694.11 743.09 669.46 733.85 669.46 733.85 666.59 755.47 666.59 755.47 669.46 746.23 669.46 746.23 694.11"/><polygon class="cls-6" points="794.92 669.42 778.14 669.42 778.14 678.82 793.15 678.82 793.15 681.64 778.14 681.64 778.14 691.27 795.12 691.27 795.12 694.11 775.04 694.11 775.04 666.59 794.92 666.59 794.92 669.42"/></g></g></g></svg>