<svg xmlns="http://www.w3.org/2000/svg" xmlns:xlink="http://www.w3.org/1999/xlink" viewBox="0 0 550 91.17"><defs><style>.cls-1{fill:none;}.cls-2{clip-path:url(#clip-path);}.cls-3{fill:#c2d500;}.cls-4{fill:#00ac98;}.cls-5{fill:#333132;}.cls-6{fill:#727372;}</style><clipPath id="clip-path" transform="translate(0 0)"><rect class="cls-1" width="550" height="91.17"/></clipPath></defs><g id="Layer_2" data-name="Layer 2"><g id="Layer_1-2" data-name="Layer 1"><g id="Development_-_Color" data-name="Development - Color"><g class="cls-2"><polygon class="cls-3" points="287.34 0 275.88 14.13 287.43 28.37 275.89 42.6 287.34 56.73 310.35 28.37 287.34 0"/><polygon class="cls-4" points="264.42 0 241.41 28.37 264.42 56.73 275.88 42.6 264.33 28.37 275.88 14.13 264.42 0"/><g class="cls-2"><path class="cls-5" d="M33.12,17.19c0,5.79-3.53,8.75-7,10.26,5.22,1.57,9.44,4.6,9.44,10.7,0,7.62-6.36,12.09-16,12.09H0V6.17H18.76c8.69,0,14.36,4.28,14.36,11m-5,.69c0-4.41-3.46-7.24-9.76-7.24H4.91V25.81h13c6,0,10.14-2.71,10.14-7.93m2.46,20c0-4.85-4-7.62-11.71-7.62H4.91V45.77h14.8c6.67,0,10.83-3,10.83-7.93" transform="translate(0 0)"/><path class="cls-5" d="M83,31.42c0,12.84-7.36,19.51-18.38,19.51S46.34,44.26,46.34,31.79V6.17h5V31.48c0,9.51,5,14.86,13.48,14.86,8.12,0,13.28-4.91,13.28-14.55V6.17h5Z" transform="translate(0 0)"/><path class="cls-5" d="M126.74,50.24,114,33.12h-12.6V50.24h-5V6.17h19c9.7,0,15.93,5.22,15.93,13.16,0,7.36-5,11.65-12,12.9l13.54,18ZM115,10.76h-13.6V28.65H114.9c6.61,0,11.33-3.4,11.33-9.13,0-5.48-4.15-8.76-11.27-8.76" transform="translate(0 0)"/><polygon class="cls-5" points="175.91 6.17 180.76 6.17 180.76 50.24 176.79 50.24 148.33 14.1 148.33 50.24 143.49 50.24 143.49 6.17 148.15 6.17 175.91 41.49 175.91 6.17"/><path class="cls-5" d="M210.6,25.81C220.42,28,225,31.54,225,38.34c0,7.62-6.3,12.53-15.05,12.53a25.8,25.8,0,0,1-18-7L195,40.17c4.59,4.15,9,6.23,15.11,6.23,5.92,0,9.82-3.08,9.82-7.55,0-4.16-2.2-6.49-11.46-8.44-10.14-2.21-14.79-5.48-14.79-12.78,0-7,6.1-12.09,14.48-12.09A23,23,0,0,1,223.63,11l-2.89,3.84A19.39,19.39,0,0,0,208,10c-5.73,0-9.38,3.15-9.38,7.18,0,4.21,2.27,6.55,12,8.62" transform="translate(0 0)"/><path class="cls-5" d="M343.55,25.81c9.83,2.14,14.36,5.73,14.36,12.53,0,7.62-6.3,12.53-15.05,12.53a25.8,25.8,0,0,1-18-7l3.09-3.65c4.59,4.15,9,6.23,15.11,6.23,5.92,0,9.82-3.08,9.82-7.55,0-4.16-2.2-6.49-11.46-8.44-10.13-2.21-14.79-5.48-14.79-12.78,0-7,6.1-12.09,14.48-12.09A23,23,0,0,1,356.59,11l-2.9,3.84A19.37,19.37,0,0,0,341,10c-5.73,0-9.38,3.15-9.38,7.18,0,4.21,2.27,6.55,12,8.62" transform="translate(0 0)"/><path class="cls-5" d="M389.77,51c-12.72,0-22.1-10-22.1-22.73S377,5.41,390,5.41c8,0,12.78,2.84,17.18,7l-3.4,3.65c-3.71-3.52-7.87-6-13.85-6-9.76,0-17.06,7.87-17.06,18.13S380.2,46.4,389.89,46.4c6.05,0,10-2.33,14.23-6.36l3.28,3.21c-4.6,4.66-9.64,7.75-17.63,7.75" transform="translate(0 0)"/><path class="cls-5" d="M458.71,50.24h-5.35L448.2,38.59h-24L419,50.24h-5.1L434,5.85h4.65ZM436.23,11.65,426.16,34.12h20.08Z" transform="translate(0 0)"/><polygon class="cls-5" points="468.97 6.17 473.94 6.17 473.94 45.65 498.75 45.65 498.75 50.24 468.97 50.24 468.97 6.17"/><path class="cls-5" d="M527.46,51c-13.41,0-22.41-10.52-22.41-22.73s9.13-22.86,22.54-22.86S550,15.93,550,28.14,540.87,51,527.46,51m0-41c-10.07,0-17.25,8.06-17.25,18.13s7.3,18.26,17.38,18.26,17.25-8.06,17.25-18.13S537.53,10,527.46,10" transform="translate(0 0)"/><path class="cls-6" d="M11.64,90.88l-4.9-6.57H1.91v6.57H0V74H7.27c3.72,0,6.11,2,6.11,5,0,2.82-1.93,4.46-4.59,5L14,90.88ZM7.12,75.74H1.91V82.6H7.1c2.53,0,4.35-1.3,4.35-3.5s-1.6-3.36-4.33-3.36" transform="translate(0 0)"/><polygon class="cls-6" points="38.14 75.72 27.82 75.72 27.82 81.49 37.05 81.49 37.05 83.23 27.82 83.23 27.82 89.14 38.26 89.14 38.26 90.88 25.92 90.88 25.92 73.98 38.14 73.98 38.14 75.72"/><path class="cls-6" d="M66.3,90.88h-2l-2-4.47h-9.2l-2,4.47h-2l7.7-17H58.6Zm-8.62-14.8L53.81,84.7h7.71Z" transform="translate(0 0)"/><polygon class="cls-6" points="78.09 73.98 80 73.98 80 89.12 89.51 89.12 89.51 90.88 78.09 90.88 78.09 73.98"/><polygon class="cls-6" points="129.41 75.72 119.11 75.72 119.11 81.49 128.33 81.49 128.33 83.23 119.11 83.23 119.11 89.14 129.53 89.14 129.53 90.88 117.2 90.88 117.2 73.98 129.41 73.98 129.41 75.72"/><path class="cls-6" d="M147.9,81.51c3.76.82,5.5,2.2,5.5,4.81,0,2.92-2.41,4.8-5.77,4.8a9.9,9.9,0,0,1-6.91-2.7l1.19-1.4a8.05,8.05,0,0,0,5.79,2.39c2.27,0,3.77-1.18,3.77-2.9s-.85-2.49-4.39-3.23c-3.89-.85-5.68-2.1-5.68-4.91s2.34-4.63,5.56-4.63a8.77,8.77,0,0,1,5.93,2.08l-1.11,1.47a7.41,7.41,0,0,0-4.87-1.84c-2.2,0-3.6,1.21-3.6,2.75s.87,2.52,4.59,3.31" transform="translate(0 0)"/><polygon class="cls-6" points="171.78 90.88 169.85 90.88 169.85 75.74 164.18 75.74 164.18 73.98 177.46 73.98 177.46 75.74 171.78 75.74 171.78 90.88"/><path class="cls-6" d="M203.06,90.88H201l-2-4.47h-9.2l-2,4.47h-2l7.7-17h1.79Zm-8.62-14.8-3.86,8.62h7.7Z" transform="translate(0 0)"/><polygon class="cls-6" points="219.08 90.88 217.15 90.88 217.15 75.74 211.47 75.74 211.47 73.98 224.75 73.98 224.75 75.74 219.08 75.74 219.08 90.88"/><polygon class="cls-6" points="249 75.72 238.69 75.72 238.69 81.49 247.92 81.49 247.92 83.23 238.69 83.23 238.69 89.14 249.12 89.14 249.12 90.88 236.79 90.88 236.79 73.98 249 73.98 249 75.72"/><path class="cls-6" d="M283,90.88h-5.86V74H283c5.32,0,9,3.65,9,8.43s-3.67,8.47-9,8.47m0-15.14h-4V89.12h4c4.28,0,7-2.9,7-6.66s-2.72-6.72-7-6.72" transform="translate(0 0)"/><polygon class="cls-6" points="316.69 75.72 306.38 75.72 306.38 81.49 315.6 81.49 315.6 83.23 306.38 83.23 306.38 89.14 316.81 89.14 316.81 90.88 304.47 90.88 304.47 73.98 316.69 73.98 316.69 75.72"/><polygon class="cls-6" points="341.83 73.98 343.88 73.98 336.62 91 334.93 91 327.66 73.98 329.78 73.98 335.79 88.54 341.83 73.98"/><polygon class="cls-6" points="367.89 75.72 357.58 75.72 357.58 81.49 366.81 81.49 366.81 83.23 357.58 83.23 357.58 89.14 368.01 89.14 368.01 90.88 355.68 90.88 355.68 73.98 367.89 73.98 367.89 75.72"/><polygon class="cls-6" points="380.31 73.98 382.22 73.98 382.22 89.12 391.74 89.12 391.74 90.88 380.31 90.88 380.31 73.98"/><path class="cls-6" d="M410.6,91.17a8.49,8.49,0,0,1-8.6-8.71,8.63,8.63,0,1,1,8.6,8.71m0-15.72a6.65,6.65,0,0,0-6.62,7,6.73,6.73,0,0,0,6.67,7,6.64,6.64,0,0,0,6.61-7,6.72,6.72,0,0,0-6.66-7" transform="translate(0 0)"/><path class="cls-6" d="M437.75,84.92h-4.1v6h-1.91V74h6.33c3.81,0,6.32,2,6.32,5.38,0,3.68-3,5.56-6.64,5.56m.17-9.18h-4.27v7.44h4.18c2.79,0,4.63-1.5,4.63-3.74,0-2.44-1.81-3.7-4.54-3.7" transform="translate(0 0)"/><polygon class="cls-6" points="464.44 86.25 464.35 86.25 458.19 77.21 458.19 90.88 456.33 90.88 456.33 73.98 458.26 73.98 464.42 83.2 470.57 73.98 472.51 73.98 472.51 90.88 470.6 90.88 470.6 77.19 464.44 86.25"/><polygon class="cls-6" points="497.97 75.72 487.66 75.72 487.66 81.49 496.88 81.49 496.88 83.23 487.66 83.23 487.66 89.14 498.09 89.14 498.09 90.88 485.75 90.88 485.75 73.98 497.97 73.98 497.97 75.72"/><polygon class="cls-6" points="522.82 73.98 524.68 73.98 524.68 90.88 523.16 90.88 512.25 77.02 512.25 90.88 510.39 90.88 510.39 73.98 512.17 73.98 522.82 87.53 522.82 73.98"/><polygon class="cls-6" points="544.32 90.88 542.39 90.88 542.39 75.74 536.72 75.74 536.72 73.98 550 73.98 550 75.74 544.32 75.74 544.32 90.88"/></g></g></g></g></g></svg>