<svg id="Layer_1" data-name="Layer 1" xmlns="http://www.w3.org/2000/svg" viewBox="0 0 800 139.52"><defs><style>.cls-1{fill:#c2d500;}.cls-2{fill:#00a998;}.cls-3{fill:#333132;}</style></defs><polygon class="cls-1" points="452.54 41.19 419.13 82.37 402.5 61.87 419.26 41.19 402.5 20.51 419.13 0 452.54 41.19 452.54 41.19"/><polygon class="cls-2" points="402.5 20.51 385.72 41.19 402.5 61.86 385.85 82.37 352.43 41.19 385.85 0 402.5 20.51 402.5 20.51"/><path class="cls-3" d="M37.59,10.09a20.75,20.75,0,0,1,6.57,3.23,13.91,13.91,0,0,1,4.2,5A14.58,14.58,0,0,1,49.82,25,16.11,16.11,0,0,1,49,30.56a15.09,15.09,0,0,1-2.35,4.2,15.43,15.43,0,0,1-3.21,3,20.92,20.92,0,0,1-3.7,2.06A28.36,28.36,0,0,1,45,42a17.76,17.76,0,0,1,4.34,3.16,13.7,13.7,0,0,1,2.92,4.4,14.77,14.77,0,0,1,1.1,5.88,16.53,16.53,0,0,1-1.64,7.41,15.4,15.4,0,0,1-4.7,5.53,22.61,22.61,0,0,1-7.36,3.43A35.73,35.73,0,0,1,30.2,73H1.82V9H29A30,30,0,0,1,37.59,10.09Zm.9,24.46a10,10,0,0,0,4.11-8.64A9.25,9.25,0,0,0,39,18.2q-3.66-2.84-10.49-2.85H9V37.48H27.86a17.78,17.78,0,0,0,10.63-2.93Zm3.53,29A9.92,9.92,0,0,0,46.22,55a9.31,9.31,0,0,0-4.28-8.23Q37.6,43.9,29.2,43.9H9V66.56H30.45c4.88,0,8.72-1,11.51-3Z"/><path class="cls-3" d="M122.43,45.61A36.08,36.08,0,0,1,120.5,58a24.08,24.08,0,0,1-5.43,8.86,22.62,22.62,0,0,1-8.41,5.36,34.35,34.35,0,0,1-21.77,0,22.91,22.91,0,0,1-8.41-5.31A23.69,23.69,0,0,1,71,58.14a34.57,34.57,0,0,1-1.93-12V9h7.21V45.71q0,10.42,5.17,16t14.39,5.58q8.88,0,14.12-5.3t5.21-15.82V9h7.23Z"/><path class="cls-3" d="M185.89,73,167.33,48.08H149V73h-7.22V9h27.52a30.88,30.88,0,0,1,9.55,1.38,21.46,21.46,0,0,1,7.27,3.88,17.39,17.39,0,0,1,4.7,6,18.14,18.14,0,0,1,1.65,7.84,18.69,18.69,0,0,1-1.28,7.17,16.12,16.12,0,0,1-3.61,5.5,20.37,20.37,0,0,1-5.53,3.88,25.71,25.71,0,0,1-7,2.2L194.81,73Zm-4.95-54q-4.31-3.3-12.11-3.3H149V41.73h19.7a22.34,22.34,0,0,0,6.6-.91,16.07,16.07,0,0,0,5.23-2.62A12.08,12.08,0,0,0,184,34a12.45,12.45,0,0,0,1.17-5.6A11.23,11.23,0,0,0,180.94,19Z"/><path class="cls-3" d="M257.3,9h7.06V73h-5.72L217.31,20.47V73h-7.06V9H217l40.33,51.3Z"/><path class="cls-3" d="M291,29a8.34,8.34,0,0,0,2.66,3.36A19.68,19.68,0,0,0,299,35.09a64.65,64.65,0,0,0,8.68,2.35Q318.38,39.8,323.45,44a14.26,14.26,0,0,1,5.08,11.63,16.89,16.89,0,0,1-6.1,13.28,20,20,0,0,1-6.88,3.66,28.68,28.68,0,0,1-8.78,1.28,38.45,38.45,0,0,1-14-2.47,39.78,39.78,0,0,1-12.12-7.68l4.48-5.29a38.21,38.21,0,0,0,10.15,6.81A29.14,29.14,0,0,0,307,67.48q6.5,0,10.37-3a9.63,9.63,0,0,0,3.9-8,10.58,10.58,0,0,0-.75-4.08A8.11,8.11,0,0,0,318,49.17a18.13,18.13,0,0,0-5.08-2.66,66.32,66.32,0,0,0-8.31-2.28A66.6,66.6,0,0,1,295,41.47a24,24,0,0,1-6.74-3.75,13.86,13.86,0,0,1-3.94-5.13,17.08,17.08,0,0,1-1.28-7,16,16,0,0,1,1.55-7.06A16.42,16.42,0,0,1,289,13a21.27,21.27,0,0,1,6.68-3.67A25.83,25.83,0,0,1,304.08,8,35.72,35.72,0,0,1,316.38,10a37.37,37.37,0,0,1,10.2,5.89l-4.21,5.57a31.36,31.36,0,0,0-9-5.3A27.46,27.46,0,0,0,304,14.48a18.6,18.6,0,0,0-5.64.82A14.78,14.78,0,0,0,294,17.5a9.55,9.55,0,0,0-2.74,3.31,9,9,0,0,0-1,4.11A11.08,11.08,0,0,0,291,29Z"/><path class="cls-3" d="M484.13,29a8.23,8.23,0,0,0,2.65,3.36,19.62,19.62,0,0,0,5.3,2.74,65.19,65.19,0,0,0,8.69,2.35Q511.47,39.8,516.54,44a14.25,14.25,0,0,1,5.07,11.63,16.84,16.84,0,0,1-6.1,13.28,20,20,0,0,1-6.87,3.66,28.78,28.78,0,0,1-8.79,1.28,38.4,38.4,0,0,1-14-2.47,39.59,39.59,0,0,1-12.12-7.68l4.49-5.29a37.89,37.89,0,0,0,10.15,6.81,29.09,29.09,0,0,0,11.76,2.23q6.5,0,10.39-3a9.62,9.62,0,0,0,3.88-8,11,11,0,0,0-.73-4.08,8.23,8.23,0,0,0-2.57-3.24A18.05,18.05,0,0,0,506,46.51a64.36,64.36,0,0,0-8.29-2.28,66.36,66.36,0,0,1-9.58-2.76,23.73,23.73,0,0,1-6.74-3.75,13.78,13.78,0,0,1-3.94-5.13,17.24,17.24,0,0,1-1.28-7,16,16,0,0,1,1.55-7.06A16.33,16.33,0,0,1,482.09,13a21.38,21.38,0,0,1,6.68-3.67A25.57,25.57,0,0,1,497.18,8,35.66,35.66,0,0,1,509.47,10a37.22,37.22,0,0,1,10.2,5.89l-4.2,5.57a31.59,31.59,0,0,0-9-5.3,27.42,27.42,0,0,0-9.41-1.65,18.47,18.47,0,0,0-5.62.82,14.78,14.78,0,0,0-4.29,2.2,9.33,9.33,0,0,0-2.74,3.31,8.91,8.91,0,0,0-1,4.11A11.07,11.07,0,0,0,484.13,29Z"/><path class="cls-3" d="M588.32,67.42a32.09,32.09,0,0,1-5.8,3.53,33.54,33.54,0,0,1-6.68,2.28,34.86,34.86,0,0,1-8,.83,31.54,31.54,0,0,1-22.95-9.55A32.1,32.1,0,0,1,538.21,54a35.74,35.74,0,0,1,0-25.87,33.09,33.09,0,0,1,6.73-10.59,31.22,31.22,0,0,1,10.23-7.14,32,32,0,0,1,12.94-2.6,39,39,0,0,1,7.92.73,33.56,33.56,0,0,1,6.54,2.06,29.35,29.35,0,0,1,5.57,3.2A47.89,47.89,0,0,1,593.08,18l-4.94,5.3A40.67,40.67,0,0,0,579.32,17a24.7,24.7,0,0,0-29,5.15,25.88,25.88,0,0,0-5.21,8.38,28.28,28.28,0,0,0-1.87,10.37,28.51,28.51,0,0,0,1.87,10.42,25.37,25.37,0,0,0,5.21,8.41,24.46,24.46,0,0,0,7.87,5.64,23.59,23.59,0,0,0,9.83,2A24.69,24.69,0,0,0,579.39,65a39.44,39.44,0,0,0,9.32-6.81l4.7,4.71A45,45,0,0,1,588.32,67.42Z"/><path class="cls-3" d="M668,73h-7.76L652.71,56H617.9L610.34,73h-7.41L632.1,8.49h6.76ZM635.33,17,620.7,49.64h29.17Z"/><path class="cls-3" d="M682.91,9h7.24v57.3h36v6.68H682.91Z"/><path class="cls-3" d="M798.22,53.53a33.49,33.49,0,0,1-6.67,10.59,32,32,0,0,1-10.34,7.27,34.59,34.59,0,0,1-26.65,0,31.53,31.53,0,0,1-16.92-17.65,35.28,35.28,0,0,1,0-25.32,33.31,33.31,0,0,1,6.67-10.59,31.89,31.89,0,0,1,10.34-7.27,34.59,34.59,0,0,1,26.65,0,31.53,31.53,0,0,1,16.92,17.65,34.71,34.71,0,0,1,2.35,12.66A34.05,34.05,0,0,1,798.22,53.53Zm-7.06-22.82A25.07,25.07,0,0,0,777.9,16.6a24.06,24.06,0,0,0-10.1-2.11,24.35,24.35,0,0,0-10.1,2.06,23.67,23.67,0,0,0-7.91,5.62,26.33,26.33,0,0,0-5.16,8.37,29.15,29.15,0,0,0,0,20.61,25.07,25.07,0,0,0,13.25,14.12A24.11,24.11,0,0,0,768,67.36a24.69,24.69,0,0,0,10.1-2A23.86,23.86,0,0,0,786,59.68a26.17,26.17,0,0,0,5.16-8.36A27.82,27.82,0,0,0,793,41a28,28,0,0,0-1.82-10.33Z"/><path class="cls-3" d="M210.26,139.17l-8-10.67h-7.85v10.67h-3.1V111.7h11.76a13.55,13.55,0,0,1,4.1.58,9.59,9.59,0,0,1,3.12,1.67,7.56,7.56,0,0,1,2,2.59,8.54,8.54,0,0,1,.15,6.45,7,7,0,0,1-1.54,2.35,8.66,8.66,0,0,1-2.35,1.67,11.19,11.19,0,0,1-3,.94l8.45,11.21ZM208.13,116a8.24,8.24,0,0,0-5.19-1.43h-8.49v11.17h8.46a9.67,9.67,0,0,0,2.83-.39,6.49,6.49,0,0,0,2.24-1.17,5.09,5.09,0,0,0,2-4.14,4.8,4.8,0,0,0-1.86-4Z"/><path class="cls-3" d="M253.3,114.47H236.55v9.41h15v2.82h-15v9.61H253.5v2.86H233.44V111.7H253.3Z"/><path class="cls-3" d="M299.06,139.17h-3.34l-3.22-7.25H277.55l-3.25,7.25h-3.18l12.52-27.66h2.89Zm-14-24-6.28,14h12.51Z"/><path class="cls-3" d="M318.19,111.7h3.11v24.6h15.45v2.87H318.19Z"/><path class="cls-3" d="M401.57,114.47H384.82v9.41h15v2.82h-15v9.61h16.95v2.86h-20V111.7h19.84Z"/><path class="cls-3" d="M424.49,120.35a3.43,3.43,0,0,0,1.18,1.43,8.28,8.28,0,0,0,2.27,1.17,28.12,28.12,0,0,0,3.61.93,16.4,16.4,0,0,1,6.77,2.82,6.16,6.16,0,0,1,2.18,5,7.32,7.32,0,0,1-2.62,5.7,8.53,8.53,0,0,1-3,1.57,12,12,0,0,1-3.76.54,16.46,16.46,0,0,1-6-1,16.78,16.78,0,0,1-5.2-3.3l1.92-2.27a16,16,0,0,0,4.36,2.92,12.35,12.35,0,0,0,5.06,1,7,7,0,0,0,4.44-1.29,4.11,4.11,0,0,0,1.71-3.36,4.8,4.8,0,0,0-.31-1.76A3.71,3.71,0,0,0,436,129a7.61,7.61,0,0,0-2.19-1.18,26.77,26.77,0,0,0-3.53-1,25.81,25.81,0,0,1-4.12-1.18,10.14,10.14,0,0,1-2.89-1.61,5.86,5.86,0,0,1-1.68-2.2,7.24,7.24,0,0,1-.55-3,6.64,6.64,0,0,1,.67-3,6.91,6.91,0,0,1,1.88-2.35,9.42,9.42,0,0,1,2.86-1.58,11.3,11.3,0,0,1,3.61-.56,15.08,15.08,0,0,1,5.28.83,15.94,15.94,0,0,1,4.37,2.5L437.92,117a13.51,13.51,0,0,0-3.85-2.28A12.07,12.07,0,0,0,430,114a7.63,7.63,0,0,0-2.42.36,6.07,6.07,0,0,0-1.84.95,3.93,3.93,0,0,0-1.59,3.17A4.72,4.72,0,0,0,424.49,120.35Z"/><path class="cls-3" d="M470.36,139.17h-3.1v-24.6H458V111.7h21.55v2.87h-9.23Z"/><path class="cls-3" d="M521.2,139.17h-3.34l-3.21-7.25H499.7l-3.26,7.25h-3.17l12.51-27.66h2.91Zm-14-24-6.24,14h12.51Z"/><path class="cls-3" d="M547.17,139.17h-3.09v-24.6h-9.22V111.7h21.53v2.87h-9.22Z"/><path class="cls-3" d="M595.82,114.47H579.07v9.41h15v2.82h-15v9.61H596v2.86H576V111.7h19.85Z"/></svg>