<svg xmlns="http://www.w3.org/2000/svg" xmlns:xlink="http://www.w3.org/1999/xlink" viewBox="0 0 550 96.09"><defs><style>.cls-1{fill:none;}.cls-2{clip-path:url(#clip-path);}.cls-3{fill:#c2d500;}.cls-4{fill:#00ac98;}.cls-5{fill:#333132;}.cls-6{fill:#727372;}</style><clipPath id="clip-path" transform="translate(0 0)"><rect class="cls-1" width="550" height="96.09"/></clipPath></defs><g id="Layer_2" data-name="Layer 2"><g id="Layer_1-2" data-name="Layer 1"><g id="Main_Logo_-_Color" data-name="Main Logo - Color"><g class="cls-2"><polygon class="cls-3" points="287.34 0 275.88 14.13 287.43 28.37 275.89 42.6 287.34 56.73 310.35 28.37 287.34 0"/><polygon class="cls-4" points="264.43 0 241.42 28.37 264.43 56.73 275.88 42.6 264.33 28.37 275.88 14.13 264.43 0"/><g class="cls-2"><path class="cls-5" d="M33.12,17.19c0,5.79-3.53,8.75-7,10.26C31.35,29,35.57,32,35.57,38.15c0,7.62-6.36,12.09-16,12.09H0V6.17H18.76c8.69,0,14.36,4.28,14.36,11m-5,.69c0-4.41-3.46-7.24-9.76-7.24H4.91V25.81h13c6,0,10.14-2.71,10.14-7.93m2.46,20c0-4.85-4-7.62-11.71-7.62H4.91V45.77h14.8c6.67,0,10.83-3,10.83-7.93" transform="translate(0 0)"/><path class="cls-5" d="M83.05,31.41c0,12.85-7.37,19.52-18.39,19.52S46.34,44.26,46.34,31.79V6.17h5V31.48c0,9.51,5,14.86,13.48,14.86,8.12,0,13.28-4.92,13.28-14.55V6.17h5Z" transform="translate(0 0)"/><path class="cls-5" d="M126.74,50.24,114,33.11H101.37V50.24h-5V6.17h19c9.7,0,15.93,5.22,15.93,13.16,0,7.36-5,11.64-12,12.9l13.54,18ZM115,10.76h-13.6V28.64H114.9c6.61,0,11.34-3.4,11.34-9.13,0-5.47-4.16-8.75-11.27-8.75" transform="translate(0 0)"/><polygon class="cls-5" points="175.91 6.17 180.76 6.17 180.76 50.24 176.79 50.24 148.33 14.1 148.33 50.24 143.49 50.24 143.49 6.17 148.15 6.17 175.91 41.49 175.91 6.17"/><path class="cls-5" d="M210.6,25.81C220.43,28,225,31.54,225,38.34c0,7.62-6.3,12.53-15.05,12.53a25.8,25.8,0,0,1-18-7L195,40.17c4.59,4.15,9,6.23,15.11,6.23,5.92,0,9.82-3.09,9.82-7.56,0-4.15-2.2-6.48-11.46-8.43-10.14-2.21-14.79-5.48-14.79-12.78,0-7,6.1-12.09,14.48-12.09A23,23,0,0,1,223.64,11l-2.9,3.84A19.37,19.37,0,0,0,208,10c-5.73,0-9.38,3.15-9.38,7.18,0,4.21,2.27,6.54,12,8.62" transform="translate(0 0)"/><path class="cls-5" d="M343.55,25.81c9.83,2.14,14.36,5.73,14.36,12.53,0,7.62-6.3,12.53-15.05,12.53a25.8,25.8,0,0,1-18-7l3.09-3.65c4.59,4.15,9,6.23,15.11,6.23,5.92,0,9.82-3.09,9.82-7.56,0-4.15-2.2-6.48-11.46-8.43-10.14-2.21-14.79-5.48-14.79-12.78,0-7,6.1-12.09,14.48-12.09A23,23,0,0,1,356.59,11l-2.9,3.84A19.37,19.37,0,0,0,341,10c-5.73,0-9.38,3.15-9.38,7.18,0,4.21,2.27,6.54,12,8.62" transform="translate(0 0)"/><path class="cls-5" d="M389.77,51c-12.72,0-22.1-10-22.1-22.73S377,5.41,390,5.41c8,0,12.78,2.83,17.19,7l-3.4,3.65c-3.71-3.52-7.87-6-13.85-6-9.76,0-17.06,7.87-17.06,18.13S380.2,46.4,389.89,46.4c6.05,0,10-2.33,14.23-6.36l3.27,3.21C402.8,47.91,397.76,51,389.77,51" transform="translate(0 0)"/><path class="cls-5" d="M458.71,50.24h-5.36l-5.16-11.65h-24L419,50.24h-5.1L434,5.85h4.66Zm-22.48-38.6L426.16,34.12h20.08Z" transform="translate(0 0)"/><polygon class="cls-5" points="468.97 6.17 473.94 6.17 473.94 45.64 498.75 45.64 498.75 50.24 468.97 50.24 468.97 6.17"/><path class="cls-5" d="M527.46,51c-13.41,0-22.41-10.52-22.41-22.73s9.13-22.86,22.54-22.86S550,15.93,550,28.14,540.87,51,527.46,51m0-41c-10.07,0-17.25,8.06-17.25,18.13s7.3,18.26,17.38,18.26,17.25-8.06,17.25-18.13S537.53,10,527.46,10" transform="translate(0 0)"/><path class="cls-6" d="M126.13,95.78l-6.46-8.67h-6.38v8.67h-2.51V73.48h9.59c4.9,0,8,2.64,8,6.65,0,3.73-2.55,5.9-6,6.54l6.85,9.11Zm-6-20h-6.88v9h6.85c3.35,0,5.73-1.72,5.73-4.62s-2.1-4.43-5.7-4.43" transform="translate(0 0)"/><polygon class="cls-6" points="161.06 75.77 147.46 75.77 147.46 83.39 159.63 83.39 159.63 85.68 147.46 85.68 147.46 93.48 161.22 93.48 161.22 95.78 144.95 95.78 144.95 73.48 161.06 73.48 161.06 75.77"/><path class="cls-6" d="M198.2,95.78h-2.71l-2.61-5.9H180.74l-2.64,5.9h-2.58l10.16-22.46H188ZM186.83,76.25l-5.1,11.37h10.16Z" transform="translate(0 0)"/><polygon class="cls-6" points="213.73 73.48 216.25 73.48 216.25 93.45 228.8 93.45 228.8 95.77 213.73 95.77 213.73 73.48"/><polygon class="cls-6" points="281.4 75.77 267.8 75.77 267.8 83.39 279.97 83.39 279.97 85.68 267.8 85.68 267.8 93.48 281.56 93.48 281.56 95.78 265.28 95.78 265.28 73.48 281.4 73.48 281.4 75.77"/><path class="cls-6" d="M305.76,83.42c5,1.08,7.26,2.9,7.26,6.34,0,3.85-3.18,6.33-7.61,6.33a13.05,13.05,0,0,1-9.11-3.56l1.56-1.85a10.64,10.64,0,0,0,7.65,3.15c3,0,5-1.56,5-3.82,0-2.1-1.12-3.28-5.8-4.27-5.13-1.11-7.49-2.77-7.49-6.46s3.09-6.12,7.33-6.12a11.59,11.59,0,0,1,7.83,2.74l-1.46,1.94a9.78,9.78,0,0,0-6.43-2.42c-2.9,0-4.75,1.59-4.75,3.63s1.15,3.32,6.05,4.37" transform="translate(0 0)"/><polygon class="cls-6" points="337.26 95.78 334.71 95.78 334.71 75.8 327.22 75.8 327.22 73.48 344.74 73.48 344.74 75.8 337.26 75.8 337.26 95.78"/><path class="cls-6" d="M378.5,95.78h-2.71l-2.61-5.9H361l-2.64,5.9h-2.58L366,73.32h2.36ZM367.13,76.25,362,87.62h10.16Z" transform="translate(0 0)"/><polygon class="cls-6" points="399.61 95.78 397.06 95.78 397.06 75.8 389.57 75.8 389.57 73.48 407.09 73.48 407.09 75.8 399.61 75.8 399.61 95.78"/><polygon class="cls-6" points="439.06 75.77 425.46 75.77 425.46 83.39 437.63 83.39 437.63 85.68 425.46 85.68 425.46 93.48 439.22 93.48 439.22 95.78 422.95 95.78 422.95 73.48 439.06 73.48 439.06 75.77"/></g></g></g></g></g></svg>