<svg xmlns="http://www.w3.org/2000/svg" xmlns:xlink="http://www.w3.org/1999/xlink" viewBox="0 0 550 91.17"><defs><style>.cls-1{fill:none;}.cls-2{clip-path:url(#clip-path);}.cls-3{fill:#c2d500;}.cls-4{fill:#00ac98;}.cls-5{fill:#333132;}.cls-6{fill:#727372;}</style><clipPath id="clip-path" transform="translate(0 0)"><rect class="cls-1" width="550" height="91.17"/></clipPath></defs><g id="Layer_2" data-name="Layer 2"><g id="Layer_1-2" data-name="Layer 1"><g id="Management_-_Color" data-name="Management - Color"><g class="cls-2"><polygon class="cls-3" points="287.34 0 275.88 14.13 287.43 28.37 275.89 42.6 287.34 56.73 310.35 28.37 287.34 0"/><polygon class="cls-4" points="264.42 0 241.41 28.37 264.42 56.73 275.88 42.6 264.33 28.37 275.88 14.13 264.42 0"/><g class="cls-2"><path class="cls-5" d="M33.12,17.19c0,5.79-3.53,8.75-7,10.26C31.35,29,35.57,32,35.57,38.15c0,7.62-6.36,12.09-16,12.09H0V6.17H18.76c8.69,0,14.36,4.28,14.36,11m-5,.69c0-4.41-3.46-7.24-9.76-7.24H4.91V25.81h13c6,0,10.14-2.71,10.14-7.93m2.46,20c0-4.85-4-7.62-11.71-7.62H4.91V45.77h14.8c6.67,0,10.83-3,10.83-7.93" transform="translate(0 0)"/><path class="cls-5" d="M83,31.42c0,12.84-7.36,19.51-18.38,19.51S46.34,44.26,46.34,31.79V6.17h5V31.48c0,9.51,5,14.86,13.48,14.86,8.12,0,13.28-4.91,13.28-14.55V6.17h5Z" transform="translate(0 0)"/><path class="cls-5" d="M126.74,50.24,114,33.12h-12.6V50.24h-5V6.17h19c9.7,0,15.93,5.22,15.93,13.16,0,7.36-5,11.65-12,12.9l13.54,18ZM115,10.76h-13.6V28.64H114.9c6.61,0,11.33-3.39,11.33-9.12,0-5.48-4.15-8.76-11.27-8.76" transform="translate(0 0)"/><polygon class="cls-5" points="175.91 6.17 180.76 6.17 180.76 50.24 176.79 50.24 148.33 14.1 148.33 50.24 143.49 50.24 143.49 6.17 148.15 6.17 175.91 41.49 175.91 6.17"/><path class="cls-5" d="M210.6,25.81C220.42,28,225,31.54,225,38.34c0,7.62-6.3,12.53-15.05,12.53a25.8,25.8,0,0,1-18-7L195,40.17c4.59,4.15,9,6.23,15.11,6.23,5.92,0,9.82-3.08,9.82-7.56,0-4.15-2.2-6.48-11.46-8.43-10.14-2.21-14.79-5.48-14.79-12.78,0-7,6.1-12.09,14.48-12.09A23,23,0,0,1,223.63,11l-2.89,3.84A19.39,19.39,0,0,0,208,10c-5.73,0-9.38,3.15-9.38,7.18,0,4.21,2.27,6.54,12,8.62" transform="translate(0 0)"/><path class="cls-5" d="M343.55,25.81c9.83,2.14,14.36,5.73,14.36,12.53,0,7.62-6.3,12.53-15.05,12.53a25.8,25.8,0,0,1-18-7l3.09-3.65c4.59,4.15,9,6.23,15.11,6.23,5.92,0,9.82-3.08,9.82-7.56,0-4.15-2.2-6.48-11.46-8.43-10.13-2.21-14.79-5.48-14.79-12.78,0-7,6.1-12.09,14.48-12.09A23,23,0,0,1,356.59,11l-2.9,3.84A19.37,19.37,0,0,0,341,10c-5.73,0-9.38,3.15-9.38,7.18,0,4.21,2.27,6.54,12,8.62" transform="translate(0 0)"/><path class="cls-5" d="M389.77,51c-12.72,0-22.1-10-22.1-22.73S377,5.41,390,5.41c8,0,12.78,2.84,17.18,7l-3.4,3.65c-3.71-3.52-7.87-6-13.85-6-9.76,0-17.06,7.87-17.06,18.13S380.2,46.4,389.89,46.4c6.05,0,10-2.33,14.23-6.36l3.28,3.21c-4.6,4.66-9.64,7.75-17.63,7.75" transform="translate(0 0)"/><path class="cls-5" d="M458.71,50.24h-5.35L448.2,38.59h-24L419,50.24h-5.1L434,5.85h4.65ZM436.23,11.65,426.16,34.12h20.08Z" transform="translate(0 0)"/><polygon class="cls-5" points="468.97 6.17 473.94 6.17 473.94 45.64 498.75 45.64 498.75 50.24 468.97 50.24 468.97 6.17"/><path class="cls-5" d="M527.46,51c-13.41,0-22.41-10.52-22.41-22.73s9.13-22.86,22.54-22.86S550,15.93,550,28.14,540.87,51,527.46,51m0-41c-10.07,0-17.25,8.06-17.25,18.13s7.3,18.26,17.38,18.26,17.25-8.06,17.25-18.13S537.53,10,527.46,10" transform="translate(0 0)"/><path class="cls-6" d="M12,90.87l-5-6.77H2v6.77H0V73.46H7.49c3.83,0,6.3,2.06,6.3,5.2,0,2.91-2,4.6-4.73,5.1l5.35,7.11ZM7.34,75.27H2v7.07H7.32c2.61,0,4.48-1.34,4.48-3.61s-1.65-3.46-4.46-3.46" transform="translate(0 0)"/><polygon class="cls-6" points="39.29 75.25 28.67 75.25 28.67 81.19 38.17 81.19 38.17 82.99 28.67 82.99 28.67 89.08 39.42 89.08 39.42 90.87 26.7 90.87 26.7 73.46 39.29 73.46 39.29 75.25"/><path class="cls-6" d="M68.31,90.87H66.19l-2-4.6H54.67l-2.06,4.6h-2l7.94-17.54h1.84ZM59.43,75.62l-4,8.88h7.94Z" transform="translate(0 0)"/><polygon class="cls-6" points="80.45 73.46 82.42 73.46 82.42 89.06 92.22 89.06 92.22 90.87 80.45 90.87 80.45 73.46"/><polygon class="cls-6" points="133.33 75.25 122.71 75.25 122.71 81.19 132.21 81.19 132.21 82.99 122.71 82.99 122.71 89.08 133.46 89.08 133.46 90.87 120.74 90.87 120.74 73.46 133.33 73.46 133.33 75.25"/><path class="cls-6" d="M152.37,81.22c3.88.85,5.67,2.26,5.67,5,0,3-2.49,5-5.94,5A10.17,10.17,0,0,1,145,88.33l1.22-1.44a8.3,8.3,0,0,0,6,2.47c2.34,0,3.88-1.22,3.88-3s-.87-2.56-4.53-3.33c-4-.87-5.84-2.17-5.84-5.05s2.41-4.78,5.72-4.78a9.08,9.08,0,0,1,6.12,2.14l-1.14,1.52a7.66,7.66,0,0,0-5-1.89c-2.27,0-3.71,1.24-3.71,2.83s.9,2.59,4.73,3.41" transform="translate(0 0)"/><polygon class="cls-6" points="176.98 90.87 174.99 90.87 174.99 75.27 169.14 75.27 169.14 73.46 182.83 73.46 182.83 75.27 176.98 75.27 176.98 90.87"/><path class="cls-6" d="M209.2,90.87h-2.11l-2-4.6h-9.48l-2.07,4.6h-2l7.94-17.54h1.84Zm-8.88-15.25-4,8.88h7.94Z" transform="translate(0 0)"/><polygon class="cls-6" points="225.7 90.87 223.72 90.87 223.72 75.27 217.87 75.27 217.87 73.46 231.55 73.46 231.55 75.27 225.7 75.27 225.7 90.87"/><polygon class="cls-6" points="256.54 75.25 245.91 75.25 245.91 81.19 255.42 81.19 255.42 82.99 245.91 82.99 245.91 89.08 256.66 89.08 256.66 90.87 243.95 90.87 243.95 73.46 256.54 73.46 256.54 75.25"/><polygon class="cls-6" points="293.86 86.1 293.76 86.1 287.42 76.79 287.42 90.87 285.5 90.87 285.5 73.46 287.49 73.46 293.84 82.96 300.18 73.46 302.17 73.46 302.17 90.87 300.21 90.87 300.21 76.77 293.86 86.1"/><path class="cls-6" d="M332,90.87h-2.11l-2-4.6H318.4l-2.07,4.6h-2l7.94-17.54h1.84Zm-8.88-15.25-4,8.88h7.94Z" transform="translate(0 0)"/><polygon class="cls-6" points="357 73.46 358.91 73.46 358.91 90.87 357.34 90.87 346.1 76.59 346.1 90.87 344.18 90.87 344.18 73.46 346.02 73.46 357 87.41 357 73.46"/><path class="cls-6" d="M388.77,90.87h-2.12l-2-4.6h-9.47l-2.07,4.6h-2L379,73.33h1.84Zm-8.88-15.25-4,8.88h7.93Z" transform="translate(0 0)"/><path class="cls-6" d="M408,91.17c-5.48,0-8.86-4-8.86-9a8.75,8.75,0,0,1,8.73-9,9.21,9.21,0,0,1,6.49,2.31L413.08,77a7.39,7.39,0,0,0-5.3-2c-3.85,0-6.61,3.25-6.61,7.16,0,4.18,2.66,7.26,6.89,7.26a8.18,8.18,0,0,0,5-1.74V83.33h-5.3V81.57H415v6.94a10.58,10.58,0,0,1-7,2.66" transform="translate(0 0)"/><polygon class="cls-6" points="440.7 75.25 430.08 75.25 430.08 81.19 439.59 81.19 439.59 82.99 430.08 82.99 430.08 89.08 440.83 89.08 440.83 90.87 428.12 90.87 428.12 73.46 440.7 73.46 440.7 75.25"/><polygon class="cls-6" points="461.86 86.1 461.76 86.1 455.41 76.79 455.41 90.87 453.5 90.87 453.5 73.46 455.49 73.46 461.83 82.96 468.18 73.46 470.17 73.46 470.17 90.87 468.2 90.87 468.2 76.77 461.86 86.1"/><polygon class="cls-6" points="496.4 75.25 485.78 75.25 485.78 81.19 495.28 81.19 495.28 82.99 485.78 82.99 485.78 89.08 496.52 89.08 496.52 90.87 483.81 90.87 483.81 73.46 496.4 73.46 496.4 75.25"/><polygon class="cls-6" points="522 73.46 523.92 73.46 523.92 90.87 522.35 90.87 511.11 76.59 511.11 90.87 509.19 90.87 509.19 73.46 511.03 73.46 522 87.41 522 73.46"/><polygon class="cls-6" points="544.15 90.87 542.16 90.87 542.16 75.27 536.32 75.27 536.32 73.46 550 73.46 550 75.27 544.15 75.27 544.15 90.87"/></g></g></g></g></g></svg>