<svg id="Layer_1" data-name="Layer 1" xmlns="http://www.w3.org/2000/svg" viewBox="0 0 49.83 72"><defs><style>.cls-1{fill:none;}.cls-1,.cls-2{stroke:#9d4823;stroke-miterlimit:10;}.cls-2{fill:#fff;}</style></defs><rect class="cls-1" x="5.85" y="21.55" width="32.3" height="48.45" rx="3.23"/><path class="cls-1" d="M38.15,29.63h6.28a4.49,4.49,0,0,1,4.49,4.49V45.78a8.07,8.07,0,0,1-8.07,8.07H38.15a0,0,0,0,1,0,0V29.63A0,0,0,0,1,38.15,29.63Z"/><path class="cls-1" d="M38.15,33.66h4a2.77,2.77,0,0,1,2.77,2.77V47a2.77,2.77,0,0,1-2.77,2.77h-4a0,0,0,0,1,0,0V33.66a0,0,0,0,1,0,0Z"/><rect class="cls-1" x="11.68" y="30.97" width="3.6" height="31.4" rx="1.8"/><rect class="cls-1" x="20.2" y="30.97" width="3.6" height="31.4" rx="1.8"/><rect class="cls-1" x="28.72" y="30.97" width="3.6" height="31.4" rx="1.8"/><path class="cls-2" d="M35.19,14.73A4.74,4.74,0,0,0,32,16a4.75,4.75,0,0,0-9.13.71,5.12,5.12,0,0,0-.56,0,4.94,4.94,0,0,0-1.45.21c0-.07,0-.14,0-.21a4.76,4.76,0,0,0-9.43-.9,5.25,5.25,0,0,0-.57-.05,4.27,4.27,0,0,0-4,2.92,5.66,5.66,0,0,0-.72-.07,4.26,4.26,0,0,0-3.3,7A3.35,3.35,0,1,0,7.17,27a4.28,4.28,0,0,0,3-2.79,4.17,4.17,0,0,0,.71.07,4.26,4.26,0,0,0,4.07-3,5,5,0,0,0,1.17.16,4.46,4.46,0,0,0,1-.11,5.63,5.63,0,0,0,0,.58,5.24,5.24,0,0,0,10.45.48h0a4.69,4.69,0,0,0,3.16-1.23,4.75,4.75,0,1,0,4.46-6.39Z"/></svg>