<svg id="Layer_1" data-name="Layer 1" xmlns="http://www.w3.org/2000/svg" viewBox="0 0 45.57 72"><defs><style>.cls-1{fill:none;}.cls-1,.cls-2{stroke:#9d4823;stroke-miterlimit:10;}.cls-2{fill:#fff;}</style></defs><path class="cls-1" d="M7.32,65.31H26a0,0,0,0,1,0,0v2.31A2.38,2.38,0,0,1,23.62,70H9.69a2.38,2.38,0,0,1-2.38-2.38V65.31A0,0,0,0,1,7.32,65.31Z"/><path class="cls-2" d="M36.53,39.67H32.42V38.45a3.16,3.16,0,0,0-3.15-3.16H4A3.16,3.16,0,0,0,.89,38.45V55.67A11.15,11.15,0,0,0,12.05,66.83h9.21A11.15,11.15,0,0,0,32.42,55.67v-.23H36.8A7.88,7.88,0,0,0,44.67,47,8.07,8.07,0,0,0,36.53,39.67Zm.27,12.27H32.42V43.18H36.8a4.38,4.38,0,0,1,0,8.76Z"/><path class="cls-1" d="M23.53,8.14c-1.06,2.14-5.64,3.36-3.88,7.81a7.57,7.57,0,0,0,1.83,2.64,7.32,7.32,0,0,1,2.62,5.66c.15,4-5.54,6.79-6.52,7.54,0-.23,1.23-5,.55-6.92a17.82,17.82,0,0,0-2.39-4.47,6.47,6.47,0,0,1-1.11-5,7.57,7.57,0,0,1,1.07-2.72c.23-.36.46-.64.69-.94s.48-.53.73-.75A11,11,0,0,1,23.53,8.14Z"/><path class="cls-1" d="M9.59,19c.57,1.17,3.05,1.83,2.1,4.24a4,4,0,0,1-1,1.43A4,4,0,0,0,9.28,27.7c-.09,2.19,3,4.09,3.53,4.09-.54-1.75-.66-2.7-.3-3.75a9.81,9.81,0,0,1,1.3-2.43,4.1,4.1,0,0,0,.38-.67,3.62,3.62,0,0,0,.22-2,4,4,0,0,0-.58-1.47,5.63,5.63,0,0,0-.37-.51c-.14-.14-.27-.29-.4-.41A5.94,5.94,0,0,0,9.59,19Z"/><path class="cls-1" d="M4,35.29H29.27a3.15,3.15,0,0,1,3.15,3.15v4.73a0,0,0,0,1,0,0H.89a0,0,0,0,1,0,0V38.45A3.15,3.15,0,0,1,4,35.29Z"/></svg>