<svg id="Layer_1" data-name="Layer 1" xmlns="http://www.w3.org/2000/svg" viewBox="0 0 43.39 72"><defs><style>.cls-1{fill:none;stroke:#9d4823;stroke-miterlimit:10;}</style></defs><polyline class="cls-1" points="18.09 29 1.7 43.5 3.69 43.5 3.69 70 39.7 70 39.7 43.5 41.7 43.5 25.3 29"/><polygon class="cls-1" points="26.2 26 23.2 2 20.2 2 17.2 26 21.7 21.5 26.2 26"/><polyline class="cls-1" points="25.3 29 21.7 25.5 18.09 29"/><rect class="cls-1" x="18.44" y="57" width="6.5" height="13"/><path class="cls-1" d="M33.28,47.5h0a3.25,3.25,0,0,1,3.25,3.25V60.5a0,0,0,0,1,0,0H30a0,0,0,0,1,0,0V50.75A3.25,3.25,0,0,1,33.28,47.5Z"/><path class="cls-1" d="M10.65,47.5h0a3.25,3.25,0,0,1,3.25,3.25V60.5a0,0,0,0,1,0,0H7.4a0,0,0,0,1,0,0V50.75A3.25,3.25,0,0,1,10.65,47.5Z"/><path class="cls-1" d="M21.69,47.5h0a3.25,3.25,0,0,1,3.25,3.25V57a0,0,0,0,1,0,0h-6.5a0,0,0,0,1,0,0V50.75a3.25,3.25,0,0,1,3.25-3.25Z"/></svg>