<svg id="Layer_1" data-name="Layer 1" xmlns="http://www.w3.org/2000/svg" viewBox="0 0 65.37 72"><defs><style>.cls-1{fill:none;stroke:#9d4823;stroke-miterlimit:10;}</style></defs><polygon class="cls-1" points="13.01 25.03 16.93 25.03 10.74 14.58 4.56 25.03 8.48 25.03 2.92 33.25 6.83 33.25 1.27 43.47 20.22 43.47 14.66 33.25 18.57 33.25 13.01 25.03"/><rect class="cls-1" x="8.97" y="43.47" width="3.55" height="9.03"/><polygon class="cls-1" points="57.88 42.65 61.26 42.65 55.92 33.62 50.58 42.65 53.96 42.65 49.16 49.74 52.54 49.74 47.74 58.56 64.1 58.56 59.3 49.74 62.68 49.74 57.88 42.65"/><rect class="cls-1" x="54.38" y="58.57" width="3.07" height="7.8"/><polygon class="cls-1" points="43.52 16.99 45.49 16.99 42.37 11.71 39.25 16.99 41.23 16.99 38.42 21.14 40.39 21.14 37.59 26.3 47.15 26.3 44.34 21.14 46.32 21.14 43.52 16.99"/><rect class="cls-1" x="41.47" y="26.3" width="1.79" height="4.56"/><path class="cls-1" d="M44.91,64a26.15,26.15,0,0,0-5.85-5.21c-3.91-2.6-7.8-4.07-11.11-5.63-.45-.21,1.59-2.32,3.19-3.15a41,41,0,0,0,5.56-3.25,12.36,12.36,0,0,0,1.51-1.31,7.71,7.71,0,0,0,1.51-2.17,6.33,6.33,0,0,0,.49-3.63A6.17,6.17,0,0,0,39,36.87a10.57,10.57,0,0,0-2.91-2.46c-.93-.57-1.85-1-2.75-1.48a53.2,53.2,0,0,1-5.12-2.66,6.06,6.06,0,0,1-1.82-1.66,1.28,1.28,0,0,1-.22-.8c0-.14.07-.31.09-.48a3.48,3.48,0,0,1,.28-.54,7.94,7.94,0,0,1,2-2A21.26,21.26,0,0,1,31,23.21a50.49,50.49,0,0,1,5.33-2.48,45.39,45.39,0,0,0-5.63,1.49,20,20,0,0,0-2.78,1.16,8.84,8.84,0,0,0-2.67,2,6.21,6.21,0,0,0-.59.84,4.31,4.31,0,0,0-.4,1.13,4.24,4.24,0,0,0,.22,2.55,8.78,8.78,0,0,0,2.3,3.05,58.05,58.05,0,0,0,5,3.8c.81.58,1.59,1.17,2.29,1.78s1.26,2,1.11,2.08a7.25,7.25,0,0,1-.92.54A35.22,35.22,0,0,1,29.17,43a46.14,46.14,0,0,0-5.84,2.08,11.74,11.74,0,0,0-3.48,2.34,8.83,8.83,0,0,0-1,1.22,8.09,8.09,0,0,0-.92,1.91,8.7,8.7,0,0,0-.05,5,9.38,9.38,0,0,0,1.72,3.19,13.8,13.8,0,0,0,1.64,1.72,31.17,31.17,0,0,0,2.85,2.22l5,3.43a38.08,38.08,0,0,1,4.28,3.4c.17.16.33.33.49.49H48.37A22.89,22.89,0,0,0,44.91,64Z"/></svg>