<svg id="Layer_1" data-name="Layer 1" xmlns="http://www.w3.org/2000/svg" viewBox="0 0 65.37 72"><defs><style>.cls-1,.cls-3{fill:#fff;}.cls-2{fill:#9d4823;}.cls-3{stroke:#9d4823;stroke-miterlimit:10;}</style></defs><path class="cls-1" d="M32.68,33.92a15.15,15.15,0,0,1-5.05-5.35,11,11,0,0,1-1.41-5.45,11.17,11.17,0,0,1,1.44-5.46,15.17,15.17,0,0,1,5-5.34,15.21,15.21,0,0,1,5,5.35,11.15,11.15,0,0,1,0,10.91A15,15,0,0,1,32.68,33.92Z"/><path class="cls-2" d="M32.68,12.92a14.61,14.61,0,0,1,4.59,5,10.63,10.63,0,0,1,0,10.42,14.5,14.5,0,0,1-4.62,5,14.55,14.55,0,0,1-4.6-5,10.51,10.51,0,0,1-1.36-5.21,10.78,10.78,0,0,1,1.36-5.22,14.9,14.9,0,0,1,4.6-5m0-1.21a16.1,16.1,0,0,0-5.46,5.71,11.8,11.8,0,0,0-1.5,5.7,11.55,11.55,0,0,0,1.48,5.7,15.91,15.91,0,0,0,5.48,5.7,16,16,0,0,0,5.49-5.7,11.66,11.66,0,0,0,1.48-5.7,11.8,11.8,0,0,0-1.5-5.7,16.14,16.14,0,0,0-5.47-5.71Z"/><path class="cls-1" d="M32.68,69.4a15.15,15.15,0,0,1-5.05-5.35,11.15,11.15,0,0,1,0-10.91,15.18,15.18,0,0,1,5-5.35,15.37,15.37,0,0,1,5,5.35,11.17,11.17,0,0,1,0,10.92A15.11,15.11,0,0,1,32.68,69.4Z"/><path class="cls-2" d="M32.68,48.4a14.52,14.52,0,0,1,4.59,5,10.63,10.63,0,0,1,0,10.42,14.49,14.49,0,0,1-4.62,5,14.54,14.54,0,0,1-4.6-5,10.52,10.52,0,0,1-1.36-5.22,10.77,10.77,0,0,1,1.36-5.21,14.81,14.81,0,0,1,4.6-5m0-1.21a16,16,0,0,0-5.46,5.7,11.87,11.87,0,0,0-1.5,5.71,11.55,11.55,0,0,0,1.48,5.7A15.91,15.91,0,0,0,32.68,70a16,16,0,0,0,5.49-5.7,11.66,11.66,0,0,0,1.48-5.7,11.87,11.87,0,0,0-1.5-5.71,16,16,0,0,0-5.47-5.7Z"/><path class="cls-1" d="M15,47.33a11.4,11.4,0,0,1-5.47-1.44,15.4,15.4,0,0,1-5.34-5,15.37,15.37,0,0,1,5.35-5A11.21,11.21,0,0,1,15,34.39a11.1,11.1,0,0,1,5.46,1.42,15.21,15.21,0,0,1,5.34,5,15.23,15.23,0,0,1-5.35,5A11.13,11.13,0,0,1,15,47.33Z"/><path class="cls-2" d="M15,33.89v1a10.55,10.55,0,0,1,5.19,1.35,14.49,14.49,0,0,1,5,4.62,14.59,14.59,0,0,1-5,4.61A10.7,10.7,0,0,1,15,46.83a10.89,10.89,0,0,1-5.21-1.37,14.7,14.7,0,0,1-5-4.6,14.59,14.59,0,0,1,5-4.59A10.71,10.71,0,0,1,15,34.89v-1m0,0h0a11.81,11.81,0,0,0-5.71,1.5,16,16,0,0,0-5.7,5.47,16,16,0,0,0,5.7,5.46A11.82,11.82,0,0,0,15,47.83h0a11.67,11.67,0,0,0,5.69-1.49,15.82,15.82,0,0,0,5.7-5.48,16,16,0,0,0-5.7-5.49A11.76,11.76,0,0,0,15,33.89Z"/><path class="cls-1" d="M50.42,47.33A11.39,11.39,0,0,1,45,45.89a15.31,15.31,0,0,1-5.34-5,15.29,15.29,0,0,1,5.35-5,11.17,11.17,0,0,1,10.92,0,15.21,15.21,0,0,1,5.34,5,15.23,15.23,0,0,1-5.35,5,11.16,11.16,0,0,1-5.44,1.42Z"/><path class="cls-2" d="M50.44,33.89v1a10.55,10.55,0,0,1,5.19,1.35,14.49,14.49,0,0,1,5,4.62,14.59,14.59,0,0,1-5,4.61,10.7,10.7,0,0,1-5.22,1.36,10.89,10.89,0,0,1-5.21-1.37,14.7,14.7,0,0,1-5-4.6,14.59,14.59,0,0,1,5-4.59,10.71,10.71,0,0,1,5.23-1.38v-1m0,0h0a11.8,11.8,0,0,0-5.7,1.5A16,16,0,0,0,39,40.86a16,16,0,0,0,5.7,5.46,11.81,11.81,0,0,0,5.7,1.51h0a11.6,11.6,0,0,0,5.68-1.49,15.76,15.76,0,0,0,5.71-5.48,15.89,15.89,0,0,0-5.71-5.49,11.7,11.7,0,0,0-5.68-1.48Z"/><path class="cls-1" d="M41,36.3A17.69,17.69,0,0,1,37.59,36a15,15,0,0,1,.21-7.35,11.11,11.11,0,0,1,2.85-4.86,11.23,11.23,0,0,1,4.88-2.84,14.91,14.91,0,0,1,4-.56,17.26,17.26,0,0,1,3.33.34A15.2,15.2,0,0,1,52.64,28a11.15,11.15,0,0,1-7.71,7.73A15,15,0,0,1,41,36.3Z"/><path class="cls-2" d="M49.54,20.84a16.57,16.57,0,0,1,2.9.27,14.67,14.67,0,0,1-.28,6.76,10.78,10.78,0,0,1-2.71,4.66,10.59,10.59,0,0,1-4.64,2.73A14.13,14.13,0,0,1,41,35.8,16.12,16.12,0,0,1,38,35.52a14.46,14.46,0,0,1,.26-6.77A10.53,10.53,0,0,1,41,24.1a10.81,10.81,0,0,1,4.66-2.72,14.34,14.34,0,0,1,3.88-.54m0-1a15.34,15.34,0,0,0-4.15.58,11.63,11.63,0,0,0-8.07,8,15.88,15.88,0,0,0-.16,7.91,18.34,18.34,0,0,0,3.8.42,15.53,15.53,0,0,0,4.12-.57,11.68,11.68,0,0,0,8-8.08,16,16,0,0,0,.17-7.9,18.38,18.38,0,0,0-3.75-.41Z"/><path class="cls-1" d="M15.87,61.39A17.71,17.71,0,0,1,12.5,61a15.32,15.32,0,0,1,.21-7.36,11.09,11.09,0,0,1,2.86-4.85A11.23,11.23,0,0,1,20.45,46a15.22,15.22,0,0,1,4-.55,18,18,0,0,1,3.33.33,15.33,15.33,0,0,1-.22,7.34A11.35,11.35,0,0,1,24.71,58a11.09,11.09,0,0,1-4.86,2.85A14.64,14.64,0,0,1,15.87,61.39Z"/><path class="cls-2" d="M24.46,45.93a16.5,16.5,0,0,1,2.89.26A14.67,14.67,0,0,1,27.08,53a10.67,10.67,0,0,1-7.35,7.4,14.63,14.63,0,0,1-3.86.53,16.08,16.08,0,0,1-2.94-.27,14.51,14.51,0,0,1,.26-6.78,10.57,10.57,0,0,1,2.73-4.64,10.72,10.72,0,0,1,4.65-2.72,14.41,14.41,0,0,1,3.89-.54m0-1a15.7,15.7,0,0,0-4.15.57,12,12,0,0,0-5.1,3,11.81,11.81,0,0,0-3,5.08,15.79,15.79,0,0,0-.15,7.91,18.18,18.18,0,0,0,3.79.42A15.13,15.13,0,0,0,20,61.31a11.69,11.69,0,0,0,5.08-3,11.91,11.91,0,0,0,3-5.1,16,16,0,0,0,.16-7.89,18.36,18.36,0,0,0-3.74-.41Z"/><path class="cls-1" d="M24.41,36.3a14.82,14.82,0,0,1-4-.56,11.07,11.07,0,0,1-4.85-2.85A11.35,11.35,0,0,1,12.72,28a15.3,15.3,0,0,1-.22-7.33,17.26,17.26,0,0,1,3.33-.34,15,15,0,0,1,4,.56,11.1,11.1,0,0,1,7.73,7.71A15,15,0,0,1,27.78,36,17.71,17.71,0,0,1,24.41,36.3Z"/><path class="cls-2" d="M15.83,20.84h0a14.15,14.15,0,0,1,3.86.54,10.67,10.67,0,0,1,7.4,7.35,14.57,14.57,0,0,1,.26,6.79,16.12,16.12,0,0,1-2.94.28,14.38,14.38,0,0,1-3.84-.53,10.67,10.67,0,0,1-4.64-2.73,10.84,10.84,0,0,1-2.72-4.65,14.78,14.78,0,0,1-.28-6.78,16.57,16.57,0,0,1,2.9-.27m0-1a18.38,18.38,0,0,0-3.75.41,16.09,16.09,0,0,0,.16,7.9,11.87,11.87,0,0,0,3,5.09,11.73,11.73,0,0,0,5.08,3,15.53,15.53,0,0,0,4.12.57,18.18,18.18,0,0,0,3.79-.42,15.78,15.78,0,0,0-.15-7.91,11.62,11.62,0,0,0-8.08-8,15.21,15.21,0,0,0-4.14-.58Z"/><path class="cls-1" d="M49.5,61.39a14.77,14.77,0,0,1-4-.56A11.13,11.13,0,0,1,40.65,58a11.31,11.31,0,0,1-2.84-4.88,15.29,15.29,0,0,1-.22-7.33,17.94,17.94,0,0,1,3.32-.33,15,15,0,0,1,4,.56,11.2,11.2,0,0,1,4.87,2.84,11.07,11.07,0,0,1,2.86,4.86A15.27,15.27,0,0,1,52.87,61,17.79,17.79,0,0,1,49.5,61.39Z"/><path class="cls-2" d="M40.91,45.93h0a14.54,14.54,0,0,1,3.87.53,10.93,10.93,0,0,1,4.67,2.72,10.57,10.57,0,0,1,2.72,4.64,14.41,14.41,0,0,1,.27,6.79,16.16,16.16,0,0,1-2.94.27,14.33,14.33,0,0,1-3.84-.53A10.58,10.58,0,0,1,38.3,53,14.48,14.48,0,0,1,38,46.19a16.5,16.5,0,0,1,2.89-.26m0-1a18.52,18.52,0,0,0-3.75.41,16,16,0,0,0,.17,7.89,11.91,11.91,0,0,0,3,5.1,11.69,11.69,0,0,0,5.08,3,15.13,15.13,0,0,0,4.12.57,18.25,18.25,0,0,0,3.79-.42,16,16,0,0,0-.15-7.91,11.73,11.73,0,0,0-3-5.08,11.87,11.87,0,0,0-5.09-3,15.7,15.7,0,0,0-4.15-.57Z"/><circle class="cls-3" cx="32.68" cy="40.86" r="11.4"/><circle class="cls-2" cx="27.95" cy="35.48" r="0.52"/><circle class="cls-2" cx="34.93" cy="34.01" r="0.52"/><circle class="cls-2" cx="33.38" cy="39.52" r="0.52"/><circle class="cls-2" cx="28.47" cy="44.17" r="0.52"/><circle class="cls-2" cx="33.9" cy="47.83" r="0.52"/><circle class="cls-2" cx="37.81" cy="43.95" r="0.52"/><circle class="cls-2" cx="24.76" cy="40.34" r="0.52"/><circle class="cls-2" cx="41.12" cy="39.52" r="0.52"/><polygon class="cls-2" points="32.18 29.45 32.68 18.82 33.18 29.45 32.18 29.45"/><polygon class="cls-2" points="33.18 52.26 32.68 62.89 32.18 52.26 33.18 52.26"/><line class="cls-1" x1="40.75" y1="32.79" x2="48.27" y2="25.28"/><polygon class="cls-2" points="40.39 32.44 48.27 25.27 41.1 33.15 40.39 32.44"/><line class="cls-1" x1="24.62" y1="48.92" x2="17.1" y2="56.44"/><polygon class="cls-2" points="24.97 49.27 17.1 56.44 24.27 48.57 24.97 49.27"/><polygon class="cls-2" points="44.09 40.36 54.72 40.86 44.09 41.36 44.09 40.36"/><line class="cls-1" x1="21.28" y1="40.86" x2="10.65" y2="40.86"/><polygon class="cls-2" points="21.28 41.36 10.65 40.86 21.28 40.36 21.28 41.36"/><line class="cls-1" x1="24.62" y1="32.79" x2="17.1" y2="25.28"/><polygon class="cls-2" points="24.27 33.15 17.1 25.27 24.97 32.44 24.27 33.15"/><line class="cls-1" x1="40.75" y1="48.92" x2="48.27" y2="56.44"/><polygon class="cls-2" points="41.1 48.57 48.27 56.44 40.39 49.27 41.1 48.57"/></svg>