<svg id="Layer_1" data-name="Layer 1" xmlns="http://www.w3.org/2000/svg" viewBox="0 0 114.5 11.64"><defs><style>.cls-1{fill:#6d7f90;}.cls-2{fill:#9eb677;}</style></defs><path class="cls-1" d="M5.81.24a.73.73,0,0,1,.31.61.85.85,0,0,1-.23.57.76.76,0,0,1-.57.26A.53.53,0,0,1,5,1.57a.32.32,0,0,1-.12-.3A.75.75,0,0,1,5,.77a1.05,1.05,0,0,1,.5-.3c0-.07,0-.14-.16-.2A.8.8,0,0,0,5,.18a1,1,0,0,0-.7.31,1.67,1.67,0,0,0-.42.73q-.16.5-.42,1.47L3.3,3.2v0H4.72l-.08.24H3.23l-2.15,8A3.94,3.94,0,0,0,0,11.64L2.18,3.46H1.1l.08-.24H2.26v0A9.86,9.86,0,0,1,2.8,1.6a3.44,3.44,0,0,1,.68-1A2,2,0,0,1,4.16.16,2.14,2.14,0,0,1,5,0,1.3,1.3,0,0,1,5.81.24Z"/><path class="cls-1" d="M4.82,5.63A5,5,0,0,1,6,3.8a2.57,2.57,0,0,1,1.83-.75,1.59,1.59,0,0,1,1.21.47,2,2,0,0,1,.44,1.41A5.72,5.72,0,0,1,9.1,7,5,5,0,0,1,7.88,8.8a2.57,2.57,0,0,1-1.83.75,1.59,1.59,0,0,1-1.21-.47A2,2,0,0,1,4.4,7.67,5.72,5.72,0,0,1,4.82,5.63ZM6.64,4.07A6.52,6.52,0,0,0,5.77,6a8.28,8.28,0,0,0-.33,2.25,1.48,1.48,0,0,0,.16.79.59.59,0,0,0,.52.25,1.5,1.5,0,0,0,1.16-.78,6.52,6.52,0,0,0,.87-1.95,8.28,8.28,0,0,0,.33-2.25,1.48,1.48,0,0,0-.16-.79.59.59,0,0,0-.52-.25A1.5,1.5,0,0,0,6.64,4.07Z"/><path class="cls-1" d="M15.26,3.24a.66.66,0,0,1,.2.49.82.82,0,0,1-.26.61.78.78,0,0,1-.58.26.5.5,0,0,1-.35-.12.38.38,0,0,1-.13-.32.7.7,0,0,1,.14-.46.94.94,0,0,1,.4-.3.17.17,0,0,0-.14,0c-.43,0-.9.46-1.41,1.4A19.66,19.66,0,0,0,11.7,8.44l-.24.94h-1l1.44-5.14a1.84,1.84,0,0,0,.08-.47c0-.19-.08-.28-.25-.28a.65.65,0,0,0-.49.28,3.37,3.37,0,0,0-.45.95l-.15.44h-.23l.3-.88c.29-.82.77-1.23,1.45-1.23a.6.6,0,0,1,.68.69,4.27,4.27,0,0,1-.16,1l-.39,1.51a9.8,9.8,0,0,1,1.22-2.47,1.63,1.63,0,0,1,1.28-.72A.67.67,0,0,1,15.26,3.24Z"/><path class="cls-2" d="M18.78,5.54a9.8,9.8,0,0,1-2.5,1.19,6,6,0,0,0-.13,1.17c0,.76.28,1.15.83,1.15a2.29,2.29,0,0,0,1.85-1.2l.19.09a3.75,3.75,0,0,1-1,1.14,2.32,2.32,0,0,1-1.37.47,1.55,1.55,0,0,1-1.17-.43A1.74,1.74,0,0,1,15,7.86a4.94,4.94,0,0,1,.54-2.06A6,6,0,0,1,17,3.85a3,3,0,0,1,2-.8,1,1,0,0,1,.64.2.71.71,0,0,1,.25.59A2,2,0,0,1,18.78,5.54Zm-.92-1.81A5.12,5.12,0,0,0,17,4.92a7.24,7.24,0,0,0-.63,1.58A6.54,6.54,0,0,0,18,5.74a2.69,2.69,0,0,0,.69-.85,2.43,2.43,0,0,0,.24-1.07,1.13,1.13,0,0,0-.05-.44.15.15,0,0,0-.14-.1A1.34,1.34,0,0,0,17.86,3.73Z"/><path class="cls-2" d="M25.09,4.34a1.07,1.07,0,0,1-.25-.72A.55.55,0,0,1,25,3.18.52.52,0,0,1,25.37,3a.53.53,0,0,1,.5.32,2,2,0,0,1,.17.89c0,.21,0,.37,0,.48a8.44,8.44,0,0,1-.63,2.34,5,5,0,0,1-1.3,1.79,2.79,2.79,0,0,1-1.87.69,1.27,1.27,0,0,1-1.08-.43,1.56,1.56,0,0,1-.28-1.06,4.89,4.89,0,0,1,.82-2.19,12,12,0,0,1,2-2.37,4.15,4.15,0,0,0-.68.36,5.41,5.41,0,0,1-.52.3.86.86,0,0,1-.38.1.48.48,0,0,1-.26-.07l-.15-.09A.76.76,0,0,0,21.3,4a.39.39,0,0,0-.32.16,2.46,2.46,0,0,0-.27.58l-.13.45h-.23l.27-.88c.22-.81.6-1.22,1.12-1.22A.68.68,0,0,1,22,3.1l.27.18a2.1,2.1,0,0,0,.28.18.61.61,0,0,0,.28.06,1.41,1.41,0,0,0,1-.38L24,2.92l.26.12A11.15,11.15,0,0,0,22.7,5.42a7.41,7.41,0,0,0-.64,2.44,2.07,2.07,0,0,0,0,.29c0,.67.18,1,.53,1a2.18,2.18,0,0,0,1.59-.74,5.24,5.24,0,0,0,1.11-1.75,6.07,6.07,0,0,0,.45-1.83A1.82,1.82,0,0,1,25.09,4.34Z"/><path class="cls-2" d="M30.32,5.54a9.73,9.73,0,0,1-2.49,1.19A5.31,5.31,0,0,0,27.7,7.9c0,.76.27,1.15.82,1.15a2.27,2.27,0,0,0,1.85-1.2l.19.09a3.72,3.72,0,0,1-1,1.14,2.37,2.37,0,0,1-1.38.47A1.54,1.54,0,0,1,27,9.12a1.74,1.74,0,0,1-.42-1.26A5.06,5.06,0,0,1,27.1,5.8a6,6,0,0,1,1.45-1.95,3,3,0,0,1,2-.8,1,1,0,0,1,.63.2.72.72,0,0,1,.26.59A2.06,2.06,0,0,1,30.32,5.54Zm-.91-1.81a4.62,4.62,0,0,0-.89,1.19,6.36,6.36,0,0,0-.63,1.58,6.44,6.44,0,0,0,1.63-.76,2.45,2.45,0,0,0,.94-1.92,1.37,1.37,0,0,0-.05-.44.15.15,0,0,0-.15-.1A1.32,1.32,0,0,0,29.41,3.73Z"/><path class="cls-2" d="M36.83,3.24a.66.66,0,0,1,.19.49.81.81,0,0,1-.25.61.82.82,0,0,1-.59.26.51.51,0,0,1-.35-.12.38.38,0,0,1-.13-.32.76.76,0,0,1,.14-.46.94.94,0,0,1,.4-.3.15.15,0,0,0-.13,0c-.43,0-.9.46-1.41,1.4a18.94,18.94,0,0,0-1.44,3.69L33,9.38H32l1.44-5.14a1.49,1.49,0,0,0,.08-.47c0-.19-.08-.28-.25-.28a.63.63,0,0,0-.48.28,3.37,3.37,0,0,0-.45.95l-.16.44h-.23l.3-.88c.29-.82.77-1.23,1.45-1.23a.61.61,0,0,1,.69.69,4.41,4.41,0,0,1-.17,1l-.38,1.51A9.85,9.85,0,0,1,35,3.77a1.63,1.63,0,0,1,1.28-.72A.69.69,0,0,1,36.83,3.24Z"/><path class="cls-2" d="M42.8.92a4.46,4.46,0,0,1,1,.58.49.49,0,0,0,.24.11c.08,0,.14-.06.19-.18a2.07,2.07,0,0,0,.11-.54h.28c0,.54,0,1.51,0,2.9h-.28A6,6,0,0,0,44,2.47a2,2,0,0,0-.62-.85,2,2,0,0,0-.71-.43A2.34,2.34,0,0,0,41.82,1a1.88,1.88,0,0,0-1.4.57,3.38,3.38,0,0,0-.82,1.51,7.37,7.37,0,0,0-.27,2.05q0,4.15,2.31,4.15a1.4,1.4,0,0,0,.85-.24.52.52,0,0,0,.22-.25.82.82,0,0,0,.07-.37V7.27a2.37,2.37,0,0,0-.1-.82.56.56,0,0,0-.34-.35A2.24,2.24,0,0,0,41.57,6V5.74c.49,0,1.18,0,2,0,.71,0,1.25,0,1.61,0V6a.71.71,0,0,0-.35.09.44.44,0,0,0-.15.28,3.43,3.43,0,0,0,0,.66V9.38h-.24a1.4,1.4,0,0,0-.1-.46c-.06-.15-.15-.22-.25-.22a1.54,1.54,0,0,0-.65.25,4,4,0,0,1-2,.6A4.27,4.27,0,0,1,38.3,8.42a4.41,4.41,0,0,1-1.1-3.19,4.87,4.87,0,0,1,.56-2.36A4,4,0,0,1,39.3,1.28,4.49,4.49,0,0,1,41.54.72,3.54,3.54,0,0,1,42.8.92Z"/><path class="cls-2" d="M54.05,8.86a2.13,2.13,0,0,1-.7.53,2.23,2.23,0,0,1-.9.16,1.89,1.89,0,0,1-1.1-.29,1.49,1.49,0,0,1-.52-1l-.22-1.2a4.63,4.63,0,0,0-.37-1.29.78.78,0,0,0-.74-.42h-.78V8.11a2.07,2.07,0,0,0,.07.66.4.4,0,0,0,.24.28,1.86,1.86,0,0,0,.59.09v.24c-.43,0-1,0-1.81,0s-1.49,0-1.9,0V9.14a1.84,1.84,0,0,0,.58-.09.43.43,0,0,0,.26-.28,2.52,2.52,0,0,0,.06-.66V2.16a2.62,2.62,0,0,0-.06-.66.43.43,0,0,0-.26-.28,2.19,2.19,0,0,0-.58-.09V.89c.41,0,1,0,1.82,0h1.89a4.65,4.65,0,0,1,2.49.54A1.73,1.73,0,0,1,52.94,3a2.11,2.11,0,0,1-.62,1.5,3.37,3.37,0,0,1-2.07.81,3.35,3.35,0,0,1,1.61.47,1.78,1.78,0,0,1,.69,1.12l.27,1.23A2.43,2.43,0,0,0,53,8.8.44.44,0,0,0,53.4,9a.61.61,0,0,0,.25-.07,1.32,1.32,0,0,0,.23-.21ZM49,1.21a.49.49,0,0,0-.21.3,2.64,2.64,0,0,0-.06.65v3h.51a1.53,1.53,0,0,0,1.35-.52A2.5,2.5,0,0,0,51,3.12a2.64,2.64,0,0,0-.35-1.49,1.29,1.29,0,0,0-1.14-.5A1.1,1.1,0,0,0,49,1.21Z"/><path class="cls-2" d="M60.88,9.38c-.55,0-1.46,0-2.75,0-1.75,0-3.05,0-3.91,0V9.14a1.9,1.9,0,0,0,.58-.09.44.44,0,0,0,.25-.28,2.41,2.41,0,0,0,.07-.66V2.16a2.52,2.52,0,0,0-.07-.66.44.44,0,0,0-.25-.28,2.27,2.27,0,0,0-.58-.09V.89c.86,0,2.16,0,3.91,0,1.17,0,2,0,2.51,0q-.09,1-.09,1.77a5.74,5.74,0,0,0,0,.82h-.28a3.33,3.33,0,0,0-.65-1.8,1.7,1.7,0,0,0-1.32-.52h-.49a1.73,1.73,0,0,0-.54.06.37.37,0,0,0-.23.24A1.84,1.84,0,0,0,57,2V5h.39a1.08,1.08,0,0,0,1-.47,2.78,2.78,0,0,0,.46-1.11h.28c0,.33,0,.71,0,1.13v.57c0,.41,0,1,.07,1.71h-.28c-.17-1.06-.66-1.59-1.46-1.59H57v3a1.81,1.81,0,0,0,.06.55.37.37,0,0,0,.23.24,1.73,1.73,0,0,0,.54.06h.59a1.76,1.76,0,0,0,1.37-.58,3.85,3.85,0,0,0,.74-2h.28a9.49,9.49,0,0,0,0,1A15.05,15.05,0,0,0,60.88,9.38Z"/><path class="cls-2" d="M68.48,9.38c-.54,0-1.46,0-2.75,0-1.74,0-3,0-3.91,0V9.14a1.79,1.79,0,0,0,.58-.09.43.43,0,0,0,.26-.28,2.52,2.52,0,0,0,.06-.66V2.16a2.62,2.62,0,0,0-.06-.66.43.43,0,0,0-.26-.28,2.12,2.12,0,0,0-.58-.09V.89c.87,0,2.17,0,3.91,0,1.18,0,2,0,2.51,0,0,.66-.08,1.25-.08,1.77,0,.36,0,.63,0,.82h-.27a3.41,3.41,0,0,0-.65-1.8A1.7,1.7,0,0,0,66,1.16h-.49a1.73,1.73,0,0,0-.54.06.37.37,0,0,0-.23.24,1.84,1.84,0,0,0-.06.56V5H65a1.09,1.09,0,0,0,1-.47,2.93,2.93,0,0,0,.46-1.11h.28c0,.33,0,.71,0,1.13v.57c0,.41,0,1,.07,1.71h-.27Q66.22,5.23,65,5.23h-.38v3a1.81,1.81,0,0,0,.06.55.37.37,0,0,0,.23.24,1.73,1.73,0,0,0,.54.06h.59a1.79,1.79,0,0,0,1.37-.58,3.94,3.94,0,0,0,.74-2h.27c0,.27,0,.6,0,1A17.84,17.84,0,0,0,68.48,9.38Z"/><path class="cls-2" d="M77.34,1.13a1.29,1.29,0,0,0-.58.2.77.77,0,0,0-.26.46,5.23,5.23,0,0,0-.06.92v6.7h-.61l-5.21-6.6V7.42a5.16,5.16,0,0,0,.07,1,.72.72,0,0,0,.31.48,2,2,0,0,0,.78.21v.24q-.47,0-1.29,0-.66,0-1,0V9.14a1.18,1.18,0,0,0,.58-.2.77.77,0,0,0,.26-.46,5.15,5.15,0,0,0,.06-.92V2.16a2.62,2.62,0,0,0-.06-.66A.43.43,0,0,0,70,1.22a2.12,2.12,0,0,0-.58-.09V.89q.39,0,1,0c.4,0,.74,0,1,0l4.64,5.72V2.86a5.21,5.21,0,0,0-.07-1,.72.72,0,0,0-.31-.48A2,2,0,0,0,75,1.13V.89q.47,0,1.29,0,.67,0,1,0Z"/><path class="cls-1" d="M87.83,1.22a.41.41,0,0,0-.25.28,2.52,2.52,0,0,0-.07.66V8.11a2.41,2.41,0,0,0,.07.66.41.41,0,0,0,.25.28,1.9,1.9,0,0,0,.58.09v.24c-.44,0-1.06,0-1.88,0s-1.49,0-1.9,0V9.14a2.11,2.11,0,0,0,.63-.09.4.4,0,0,0,.27-.28,2,2,0,0,0,.08-.66V1.84L82.71,9.4h-.19L79.28,1.67V7.42a6.06,6.06,0,0,0,.07,1,.73.73,0,0,0,.32.48,2,2,0,0,0,.78.21v.24c-.32,0-.75,0-1.3,0s-.79,0-1,0V9.14a1.27,1.27,0,0,0,.58-.2.76.76,0,0,0,.25-.46A5,5,0,0,0,79,7.56V2.16a2.52,2.52,0,0,0-.07-.66.41.41,0,0,0-.25-.28,2.27,2.27,0,0,0-.58-.09V.89c.25,0,.6,0,1,0,.74,0,1.37,0,1.9,0l2.42,5.84L85.68.92h.85c.82,0,1.44,0,1.88,0v.24A2.12,2.12,0,0,0,87.83,1.22Z"/><path class="cls-1" d="M95.7,1.24a3.63,3.63,0,0,1,1.49,1.49,4.86,4.86,0,0,1,.52,2.33,4.93,4.93,0,0,1-.54,2.34A4,4,0,0,1,95.67,9a4.36,4.36,0,0,1-2.2.56A4.67,4.67,0,0,1,91.24,9a3.63,3.63,0,0,1-1.48-1.5,4.86,4.86,0,0,1-.53-2.33,4.93,4.93,0,0,1,.54-2.34,3.92,3.92,0,0,1,1.51-1.59,4.31,4.31,0,0,1,2.2-.56A4.5,4.5,0,0,1,95.7,1.24Zm-3.43.23A3.5,3.5,0,0,0,91.49,3a8.18,8.18,0,0,0-.27,2.2,7,7,0,0,0,.31,2.2,3.47,3.47,0,0,0,.83,1.46,1.61,1.61,0,0,0,1.15.52,1.57,1.57,0,0,0,1.17-.54,3.55,3.55,0,0,0,.77-1.49,8.13,8.13,0,0,0,.27-2.2,7.25,7.25,0,0,0-.3-2.19,3.62,3.62,0,0,0-.83-1.47A1.64,1.64,0,0,0,93.43.94,1.52,1.52,0,0,0,92.27,1.47Z"/><path class="cls-1" d="M106.45,1.13a1.34,1.34,0,0,0-.58.2.72.72,0,0,0-.25.46,4.27,4.27,0,0,0-.07.92v6.7h-.61l-5.21-6.6V7.42a5.16,5.16,0,0,0,.07,1,.72.72,0,0,0,.31.48,2,2,0,0,0,.78.21v.24q-.47,0-1.29,0-.66,0-1,0V9.14a1.27,1.27,0,0,0,.59-.2.82.82,0,0,0,.25-.46,5.15,5.15,0,0,0,.06-.92V2.16a2.62,2.62,0,0,0-.06-.66.44.44,0,0,0-.25-.28,2.28,2.28,0,0,0-.59-.09V.89q.39,0,1,0c.4,0,.74,0,1,0l4.64,5.72V2.86a5.21,5.21,0,0,0-.07-1,.72.72,0,0,0-.31-.48,2,2,0,0,0-.78-.21V.89c.31,0,.74,0,1.3,0s.79,0,1,0Z"/><path class="cls-1" d="M114.42,2.93c0,.37,0,.68,0,.91h-.27a4.83,4.83,0,0,0-.79-2.08,1.66,1.66,0,0,0-1.36-.6h-.28V8a1.86,1.86,0,0,0,.11.73.5.5,0,0,0,.36.3,2.67,2.67,0,0,0,.82.09v.24l-2.28,0-2.2,0V9.14a2.67,2.67,0,0,0,.82-.09.5.5,0,0,0,.36-.3,1.86,1.86,0,0,0,.11-.73V1.16h-.27a1.81,1.81,0,0,0-1,.26,2,2,0,0,0-.69.83,7,7,0,0,0-.49,1.59h-.27c0-.23,0-.54,0-.91,0-.6,0-1.28-.08-2,.73,0,2,0,3.71,0s3,0,3.69,0C114.45,1.65,114.42,2.33,114.42,2.93Z"/></svg>