<svg id="Layer_1" data-name="Layer 1" xmlns="http://www.w3.org/2000/svg" viewBox="0 0 200 232.77"><defs><style>.cls-1{fill:#fff;}</style></defs><path class="cls-1" d="M135.2,185.89h-56a6.39,6.39,0,0,0-6.39,6.39V215h68.73V192.28A6.38,6.38,0,0,0,135.2,185.89Z"/><path class="cls-1" d="M140.64,81V80.9a246.69,246.69,0,0,0-67.47,0V81a61.61,61.61,0,0,1,3.48,7c5.59,13.32,3.61,22.11,5.71,29.79a11.89,11.89,0,0,0,2.43,3.92,29,29,0,0,0,44.24,0,11.63,11.63,0,0,0,2.43-3.92c2.11-7.68.12-16.47,5.72-29.79A61.47,61.47,0,0,1,140.64,81ZM94.28,123.55l-.6-.17A23.91,23.91,0,0,1,87.1,118a9.79,9.79,0,0,1-2-3.22c-1.73-6.31-.1-13.54-4.7-24.48a51,51,0,0,0-2.86-5.73v-.09c3.92-.54,8.13-1,12.62-1.35C90.21,83.09,96.6,97.91,94.28,123.55Z"/><path class="cls-1" d="M107.1,135.19c-5.62.12-9.74-2.2-13.29-3.37,6.78,13.7,19.35,13.7,26.12,0C116.74,132.88,112,135.09,107.1,135.19Z"/><path class="cls-1" d="M140.67,78.46a41.62,41.62,0,0,0-28.52-12.68,5.72,5.72,0,0,1-10.78,0A41.62,41.62,0,0,0,72.85,78.46,228.74,228.74,0,0,1,140.67,78.46Z"/><path class="cls-1" d="M74.51,110.76c-2.83-4.81-6-7.08-8.64-8.21-3.86-1.62-8.25-1.5-12.46-5.62a17.61,17.61,0,0,1-3.94-5.74A28.6,28.6,0,0,1,48,83.53a58.62,58.62,0,0,1,0-8.17c0-1.37.23-2.75.34-4.13a18,18,0,0,1,.24-2s6.63-.88,6.73,0a28.82,28.82,0,0,0,.66,3.2,10.4,10.4,0,0,0,3.6,5.36,14.37,14.37,0,0,0,9.57,3.52A20.18,20.18,0,0,1,60.36,64.2H44.1l-.27,2.17c-.18,1.44-.39,2.88-.54,4.32s-.31,2.9-.36,4.37a62.38,62.38,0,0,0,0,8.86,34.07,34.07,0,0,0,1.79,9,19.05,19.05,0,0,0,2.18,4.35A14.68,14.68,0,0,0,50.36,101a17,17,0,0,0,4.4,2.33c1.48.55,2.89.93,4.22,1.33a25.58,25.58,0,0,1,7.12,3.07c1.07.68,5.19,3.87,6.21,4.75h0a1.42,1.42,0,0,0,2.2-1.73Z"/><path class="cls-1" d="M171,74.74c-.05-1.47-.23-2.91-.36-4.36s-.36-2.88-.54-4.33l-.27-2.17H153.54a20.17,20.17,0,0,1-1.68,8.56A20.54,20.54,0,0,1,144.8,81a14.39,14.39,0,0,0,9.6-3.49,10.36,10.36,0,0,0,3.6-5.36,28.82,28.82,0,0,0,.66-3.2c.1-.88,6.73,0,6.73,0s.09.59.24,2,.29,2.75.34,4.13a58.48,58.48,0,0,1,0,8.16,28.6,28.6,0,0,1-1.51,7.66,18,18,0,0,1-3.93,5.74c-4.22,4.13-8.61,4-12.47,5.62-2.69,1.13-5.81,3.4-8.64,8.22a1.41,1.41,0,0,0,2.16,1.77h0c1-.89,5.14-4.07,6.21-4.75a25.76,25.76,0,0,1,7.11-3.11c1.33-.4,2.74-.78,4.22-1.32a17.2,17.2,0,0,0,4.4-2.33A14.64,14.64,0,0,0,167.1,97a19.33,19.33,0,0,0,2.18-4.36,34.07,34.07,0,0,0,1.79-9A61.62,61.62,0,0,0,171,74.74Z"/><path class="cls-1" d="M107.1,145.65a17.66,17.66,0,0,1-7.71-1.9,11.73,11.73,0,1,0,16.58.58c-.19-.2-.38-.39-.58-.58A17.91,17.91,0,0,1,107.1,145.65Z"/><path class="cls-1" d="M80.15,182.41h54.5a40.45,40.45,0,0,1-5.32-11.72,34.28,34.28,0,0,1-1-11.41h-6.65c-2,5-7.63,8.56-14.23,8.56s-12.19-3.58-14.22-8.56H86.52a34.9,34.9,0,0,1-.78,10.14A40.63,40.63,0,0,1,80.15,182.41Z"/><path class="cls-1" d="M101.66,57.66a5.56,5.56,0,0,1,.64,2.74,4.29,4.29,0,1,0,8.53.93,4.82,4.82,0,0,0,0-.93,6.22,6.22,0,0,1,1-2.92,5.59,5.59,0,0,1,2.31-2H99.35A5,5,0,0,1,101.66,57.66Z"/><path class="cls-1" d="M110.85,46.39a6.31,6.31,0,0,1-3-3.82l-1-3.74h-.09l-1.16,4a6.54,6.54,0,0,1-2.78,3.76A8,8,0,0,0,99,53.38h16A8,8,0,0,0,110.85,46.39Z"/></svg>