<svg id="Layer_1" data-name="Layer 1" xmlns="http://www.w3.org/2000/svg" viewBox="0 0 200 232.77"><defs><style>.cls-1{fill:#fff;}</style></defs><path class="cls-1" d="M145.44,88.18h-.12a9.88,9.88,0,0,1-9-9V79a.82.82,0,0,0-.79-.71h-71a.82.82,0,0,0-.79.74h0v.09a9.88,9.88,0,0,1-9,9h-.12a.81.81,0,0,0-.7.78h0v97.21a.43.43,0,0,0,0,.16.81.81,0,0,0,.73.74h0a9.9,9.9,0,0,1,9.12,9.12h0a.81.81,0,0,0,.72.74h71.16a.81.81,0,0,0,.71-.71v-.09a9.9,9.9,0,0,1,9.12-9.06h0a.82.82,0,0,0,.74-.82V89A.83.83,0,0,0,145.44,88.18ZM100,90.43a13.76,13.76,0,1,1-13.76,13.76A13.76,13.76,0,0,1,100,90.43ZM72.57,126.91H127.4V133H72.57Zm62.88,45.37H64.52v-2h70.93Zm0-5.68H64.52v-2h70.93Zm0-5.67H64.52v-2h70.93Zm0-5.68H64.52v-2h70.93Zm0-5.67H64.52v-2h70.93Zm0-5.68H64.52v-2h70.93Z"/><path class="cls-1" d="M160.12,74.3v-.1a1.08,1.08,0,0,0-.92-1h-.15a12.89,12.89,0,0,1-11.78-11.79v-.12a1.08,1.08,0,0,0-1-.93H53.72a1.08,1.08,0,0,0-1,1h0v.11a12.87,12.87,0,0,1-11.81,11.7h-.16a1.07,1.07,0,0,0-.91,1v0h0v127a1.07,1.07,0,0,0,1,1h0A12.89,12.89,0,0,1,52.69,214h0a1.07,1.07,0,0,0,.94,1h92.72a1.06,1.06,0,0,0,.93-.92V214a12.9,12.9,0,0,1,11.88-11.8h0a1.09,1.09,0,0,0,1-1.07Zm-9.71,10.22V190.85a.9.9,0,0,1-.81.9h0a10.79,10.79,0,0,0-10,9.9v.1a.89.89,0,0,1-.78.78H61.12a.9.9,0,0,1-.78-.82h0a10.81,10.81,0,0,0-10-10h0a.89.89,0,0,1-.8-.8V84.43a.91.91,0,0,1,.77-.84h.13a10.81,10.81,0,0,0,9.87-9.87v-.09h0a.92.92,0,0,1,.87-.82h77.6a.9.9,0,0,1,.86.79v.1a10.82,10.82,0,0,0,9.87,9.89h.13a.89.89,0,0,1,.77.84h0Z"/></svg>