<svg id="Layer_1" data-name="Layer 1" xmlns="http://www.w3.org/2000/svg" viewBox="0 0 200 232.77"><defs><style>.cls-1{fill:#fff;}</style></defs><path class="cls-1" d="M116.21,148.55a35,35,0,0,0-13.08-3.82c-1-.1-2.08-.15-3.14-.15a35.85,35.85,0,0,0-3.73.2,35.22,35.22,0,1,0,19.95,3.74ZM100,205.22a25.43,25.43,0,1,1,25.43-25.43A25.43,25.43,0,0,1,100,205.22Z"/><path class="cls-1" d="M99.78,158.68a21.12,21.12,0,1,0,21.11,21.13v0A21.12,21.12,0,0,0,99.78,158.68Zm-5.23,26.89c-.85,0-2.28-.07-3.75-.07s-3,0-3.85.07c-.24-.07-.27-.69,0-.83l1-.08c1.16-.09,1.3-.33,1.3-2.23v-7.67c0-1.57-.09-1.93-1.14-2.07L87,172.55a.63.63,0,0,1,0-.83,26,26,0,0,0,3-.67c1-.31,2-.76,2.12-.76a.35.35,0,0,1,.33.26c0,.55-.07,1.64-.07,2.83v9c0,1.9.14,2.14,1.3,2.23l1,.08C94.8,184.88,94.78,185.5,94.55,185.57Zm6.18.26a4.66,4.66,0,0,1-3-.74,6,6,0,0,1-.38-2.68.57.57,0,0,1,.8,0h0c.3,1,1.2,2.38,2.41,2.38a1.14,1.14,0,0,0,1.24-1.05.6.6,0,0,0,0-.19c0-.88-.76-1.38-1.57-1.78-1.43-.72-2.44-1.57-2.44-3,0-2.06,1.73-3.06,3.77-3.06a5.8,5.8,0,0,1,2.54.5,6.61,6.61,0,0,1,.37,2.37c-.1.27-.7.27-.84.1-.48-1.38-1.07-1.88-1.86-1.88a1.06,1.06,0,0,0-1.17.94.13.13,0,0,1,0,.06c0,.54.45,1,1.52,1.52,1.61.78,2.61,1.78,2.61,3.32,0,2.17-1.78,3.24-4,3.24Zm12.51-1.38a4.84,4.84,0,0,1-3.42,1.38,2.39,2.39,0,0,1-2.69-2,2.5,2.5,0,0,1,0-.67v-5.3c0-.5,0-.55-.45-.55H106a.49.49,0,0,1-.19-.66.25.25,0,0,0,0-.07,8.74,8.74,0,0,0,2-1.07,7.16,7.16,0,0,0,1.75-1.85.69.69,0,0,1,.72.11v1.79c0,.45,0,.47.45.47h2.11a.51.51,0,0,1,.19.45c0,.26-.07.69-.31.83h-2.12c-.31,0-.34,0-.34.55v3.56c0,1.34,0,2.81,1.67,2.81a1.84,1.84,0,0,0,1-.36.54.54,0,0,1,.32.62Z"/><path class="cls-1" d="M99.78,143.25,68.87,64.45h-7.3l31,79.39A64.48,64.48,0,0,1,99.78,143.25Z"/><path class="cls-1" d="M50.87,64.45l32.48,82.82a25,25,0,0,1,6.5-2.29L58.43,64.45Z"/><path class="cls-1" d="M110.52,145.11a23.24,23.24,0,0,1,6.18,2.2l32.49-82.86H142Z"/><path class="cls-1" d="M138.85,64.45h-7.62l-30.92,78.81a59.31,59.31,0,0,1,7.54.66Z"/><path class="cls-1" d="M135.41,46.1H64.58A12.86,12.86,0,0,0,53.13,53h93.81A12.84,12.84,0,0,0,135.41,46.1Z"/><path class="cls-1" d="M149.05,55.9H51a35.58,35.58,0,0,0-.41,4.24v2.69h98.92V60.14A35.58,35.58,0,0,0,149.05,55.9Z"/></svg>