<svg id="Layer_1" data-name="Layer 1" xmlns="http://www.w3.org/2000/svg" viewBox="0 0 200 232.77"><defs><style>.cls-1{fill:#fff;}</style></defs><path class="cls-1" d="M48,196.77H152a10.83,10.83,0,0,1,10.83,10.83h0V215H37.13V207.6A10.83,10.83,0,0,1,48,196.77Z"/><path class="cls-1" d="M136,60.33H62.13A10.88,10.88,0,0,0,51.25,71.19h0V194.81h95.6V71.19A10.87,10.87,0,0,0,136,60.33Zm-36.93,20a24.2,24.2,0,1,1-24.2,24.2,24.2,24.2,0,0,1,24.2-24.2ZM134.2,182.11H63.9V148.83h70.3Z"/><path class="cls-1" d="M99.05,82.34a22.24,22.24,0,1,0,22.25,22.24A22.24,22.24,0,0,0,99.05,82.34Zm0,42.39a20.15,20.15,0,1,1,20.15-20.15,20.15,20.15,0,0,1-20.15,20.15Z"/></svg>