<svg id="Layer_1" data-name="Layer 1" xmlns="http://www.w3.org/2000/svg" viewBox="0 0 200 232.77"><defs><style>.cls-1{fill:#fff;}</style></defs><path class="cls-1" d="M41.36,81.84v117h117v-117ZM100.13,97.7A18.73,18.73,0,1,1,81.4,116.43,18.73,18.73,0,0,1,100.13,97.7Zm45.3,80.45H54.84v-2.51h90.57Zm0-10.75H54.84v-2.51h90.57Zm0-10.75H54.84v-2.51h90.57Zm0-10.74H54.84V143.4h90.57Z"/><path class="cls-1" d="M25.06,65.13V215H174.94V65.13ZM32.87,210a2.79,2.79,0,1,1,2.79-2.79h0A2.78,2.78,0,0,1,32.87,210Zm0-134.21A2.79,2.79,0,1,1,35.66,73a2.79,2.79,0,0,1-2.79,2.79ZM162.05,202.58H38V78.07h124.1Zm5.08,7.37a2.79,2.79,0,1,1,2.78-2.79h0a2.78,2.78,0,0,1-2.78,2.79Zm0-134.21A2.79,2.79,0,1,1,169.91,73h0a2.78,2.78,0,0,1-2.78,2.79Z"/></svg>