<svg id="Layer_1" data-name="Layer 1" xmlns="http://www.w3.org/2000/svg" viewBox="0 0 200 232.77"><defs><style>.cls-1{fill:#fff;}</style></defs><path class="cls-1" d="M133.93,89.81a12.62,12.62,0,0,1,1.94-7,12.43,12.43,0,0,1,4.16-4H60a12.41,12.41,0,0,1,4.12,4,13.14,13.14,0,0,1,1.51,3.38,14.2,14.2,0,0,1-5.95,15.55,15.67,15.67,0,0,1-4.31,2V215h88.2V103.48a14.88,14.88,0,0,1-3.25-1.72A14.61,14.61,0,0,1,133.93,89.81ZM79.7,202.55a2.82,2.82,0,0,1-5.64,0V91.31a2.82,2.82,0,1,1,5.64,0Zm22.61,0a2.82,2.82,0,0,1-5.64,0V91.31a2.82,2.82,0,1,1,5.64,0Zm22.61,0a2.82,2.82,0,0,1-5.64,0V91.31a2.82,2.82,0,0,1,5.64,0Z"/><path class="cls-1" d="M166.39,82.81a22,22,0,0,0-1.88-5.74,21.38,21.38,0,0,0-3.54-5,20.31,20.31,0,0,0-10.83-5.73A21.63,21.63,0,0,0,147,66l-2.12-.09-4.08-.13-8.17-.23c-5.44-.15-10.89-.2-16.34-.3L100,65.13l-16.34.1c-5.45.1-10.89.15-16.34.3l-8.18.23-4,.12L53,66a21.45,21.45,0,0,0-3.11.35,20.35,20.35,0,0,0-10.87,5.75,20.65,20.65,0,0,0-3.55,5,21.25,21.25,0,0,0-1.88,5.76,19.63,19.63,0,0,0,0,6.12,16.36,16.36,0,0,0,2.18,6,16.09,16.09,0,0,0,9.73,7.39,16.77,16.77,0,0,0,3,.49,16.17,16.17,0,0,0,3.11-.08,12.63,12.63,0,0,0,2.62-.68,13.69,13.69,0,0,0,3.36-1.67,13.12,13.12,0,0,0,5.69-10.57,12.42,12.42,0,0,0-.4-3.15,11.65,11.65,0,0,0-1.3-2.93,10.71,10.71,0,0,0-4.66-4A10.58,10.58,0,0,0,54.26,79H54a9.43,9.43,0,0,0-3,.12,8.07,8.07,0,0,0-5,3.3A7.85,7.85,0,0,0,44.67,88a6.22,6.22,0,0,0,3.16,4.63,5.44,5.44,0,0,0,5.21.06,4.3,4.3,0,0,0,2.1-4.22h-.9a3.1,3.1,0,0,1-1.85,2.79A3.66,3.66,0,0,1,49,90.81a3.9,3.9,0,0,1-1.7-3,4.93,4.93,0,0,1,4.28-5.12,6,6,0,0,1,2.76.32,6.71,6.71,0,0,1,.83.36,6.3,6.3,0,0,1,3.34,6.14,8,8,0,0,1-3.75,6.2c-.14.09-.28.15-.42.23a8.72,8.72,0,0,1-6.86.48,10,10,0,0,1-7-8.35,12.57,12.57,0,0,1,.17-3.82A14.07,14.07,0,0,1,42,80.65a12.88,12.88,0,0,1,2.35-3,12.54,12.54,0,0,1,6.78-3.42,12.21,12.21,0,0,1,1.91-.16H67.34l32.68.08,32.67-.08H147a13.54,13.54,0,0,1,1.91.16,12.74,12.74,0,0,1,6.79,3.37,13.43,13.43,0,0,1,2.35,3,14.43,14.43,0,0,1,1.33,3.6,13.22,13.22,0,0,1,.18,3.87,10,10,0,0,1-6.9,8.34,8.68,8.68,0,0,1-7.29-.71,5.47,5.47,0,0,1-.63-.44,7.92,7.92,0,0,1-3.11-5.76,6.25,6.25,0,0,1,3.11-6l.22-.13a6.2,6.2,0,0,1,3.59-.68,4.94,4.94,0,0,1,3.13,1.72,5,5,0,0,1,1.16,3.4,3.94,3.94,0,0,1-1.71,3,3.66,3.66,0,0,1-3.42.42,3.09,3.09,0,0,1-1.85-2.79h-.9a4.2,4.2,0,0,0,2.13,4.19,5.5,5.5,0,0,0,5.21-.06,6.24,6.24,0,0,0,3.15-4.63,7.87,7.87,0,0,0-1.36-5.55,8.13,8.13,0,0,0-5-3.3,10.07,10.07,0,0,0-3-.12c-.43.06-.86.14-1.28.24a9.19,9.19,0,0,0-1.63.55,10.63,10.63,0,0,0-4.65,4,10.91,10.91,0,0,0-1.37,2.91,12,12,0,0,0-.39,3.15,13,13,0,0,0,5.68,10.55,14.15,14.15,0,0,0,2.29,1.26,13,13,0,0,0,3.67,1,17,17,0,0,0,3.11.08,16.08,16.08,0,0,0,12.72-7.87,16.92,16.92,0,0,0,2.18-6A20.31,20.31,0,0,0,166.39,82.81Z"/><circle class="cls-1" cx="51.82" cy="88.49" r="3.27"/><circle class="cls-1" cx="148.21" cy="88.48" r="3.27"/></svg>