<svg id="Layer_1" data-name="Layer 1" xmlns="http://www.w3.org/2000/svg" viewBox="0 0 500 500"><defs><style>.cls-1{fill:#8d7f55;}.cls-2{fill:#fff;}</style></defs><path class="cls-1" d="M278.54,278.4c-15,30.38-42.93,30.38-58,0,7.87,2.58,17,7.74,29.48,7.48C260.79,285.65,271.39,280.75,278.54,278.4Z"/><path d="M249.24,127.62l.35.17.35-.17Z"/><polygon class="cls-2" points="249.59 128.23 247.58 127.22 251.6 127.22 249.59 128.23"/><path class="cls-1" d="M248.54,154.34a506.74,506.74,0,0,1,76,5.63,92.36,92.36,0,0,0-63.3-28.13,12.69,12.69,0,0,1-23.92,0A92.31,92.31,0,0,0,174,160a506.74,506.74,0,0,1,76-5.63"/><path class="cls-1" d="M165.73,166.3c-2.7,0-13-.22-21.3-7.74-2.63-2.38-6.69-6.06-8-11.89a61,61,0,0,1-1.47-7.1c-.21-1.95-14.93,0-14.93,0s-.2,1.3-.52,4.36-.65,6.12-.77,9.16a127.53,127.53,0,0,0,0,18.13,63.7,63.7,0,0,0,3.33,17A39.77,39.77,0,0,0,130.83,201c9.35,9.15,19.1,8.87,27.67,12.47,6,2.51,12.89,7.54,19.17,18.23a3.14,3.14,0,0,1-4.79,3.93l-.11-.09c-2.28-2-11.41-9-13.78-10.54a56.51,56.51,0,0,0-15.79-6.89c-2.94-.89-6.08-1.73-9.37-2.94a38.49,38.49,0,0,1-9.76-5.17,32.89,32.89,0,0,1-7.72-8.22,43.42,43.42,0,0,1-4.83-9.66,74.73,74.73,0,0,1-4-20,138.88,138.88,0,0,1,0-19.67c.12-3.26.53-6.46.81-9.69s.8-6.39,1.2-9.59l.6-4.82h36.21a45,45,0,0,0,3.73,19A45.43,45.43,0,0,0,165.73,166.3Z"/><path class="cls-1" d="M333.67,165.6c2.7,0,13-.22,21.3-7.74,2.62-2.38,6.69-6.06,8-11.89a61,61,0,0,0,1.47-7.1c.21-2,14.93,0,14.93,0s.2,1.3.52,4.36.65,6.12.77,9.16a129,129,0,0,1,0,18.13,64,64,0,0,1-3.33,17,39.55,39.55,0,0,1-8.74,12.74c-9.35,9.16-19.1,8.87-27.67,12.48-6,2.5-12.9,7.54-19.17,18.22a3.14,3.14,0,0,0,4.78,3.94l.11-.1c2.28-2,11.41-9,13.79-10.54a56.78,56.78,0,0,1,15.79-6.88c2.94-.89,6.08-1.74,9.37-3a37.86,37.86,0,0,0,9.76-5.17A32.8,32.8,0,0,0,383,201a42.78,42.78,0,0,0,4.83-9.66,74.75,74.75,0,0,0,4-20,139,139,0,0,0,0-19.68c-.13-3.26-.53-6.45-.81-9.68s-.8-6.4-1.2-9.59l-.6-4.82H353.07a44.81,44.81,0,0,1-19.4,38Z"/><path class="cls-1" d="M268.25,304.88a26,26,0,1,1-35.42,0,39.27,39.27,0,0,0,35.42,0Z"/><path class="cls-1" d="M299.34,364.66A75.53,75.53,0,0,1,297,339.34H282.24c-4.51,11-16.93,19-31.57,19s-27.06-7.95-31.57-19H204.32a76.69,76.69,0,0,1-1.74,22.51,90.24,90.24,0,0,1-12.38,28.82H311.14A89.53,89.53,0,0,1,299.34,364.66Z"/><path class="cls-1" d="M249.24,160.21h0Z"/><path class="cls-1" d="M324.43,165.36a547.85,547.85,0,0,0-149.74,0v.24a135.08,135.08,0,0,1,7.71,15.47c12.42,29.56,8,49.07,12.69,66.12.65,2.38,2.59,5.37,5.39,8.7,25.46,30.39,72.72,30.39,98.18,0,2.8-3.33,4.74-6.32,5.39-8.7,4.67-17.05.27-36.56,12.69-66.12a135.08,135.08,0,0,1,7.71-15.47ZM220.55,254.83A46.35,46.35,0,0,1,208,244.34c-2.12-2.53-3.4-4.57-3.81-6.08-1.25-4.57-1.61-9.32-2-14.82-.73-9.69-1.56-20.68-7.54-34.92a103.79,103.79,0,0,0-5.08-10.38c7.62-1,15.35-1.84,23-2.43C214.55,180.74,224.46,208.77,220.55,254.83Z"/><path class="cls-1" d="M232,109A11.37,11.37,0,0,1,239,119.88a10.21,10.21,0,1,0,20.4,0,13.13,13.13,0,0,1,8-10.88Z"/><path class="cls-1" d="M258.31,88.8a14.23,14.23,0,0,1-6.57-8.49L249.32,72h-.19l-2.57,8.84a14.52,14.52,0,0,1-6.18,8.35,17.7,17.7,0,0,0-8.4,15.07h35.44A17.7,17.7,0,0,0,258.31,88.8Z"/><path d="M175.4,412.57v34.08a213.3,213.3,0,0,0,150.53,0V412.57a14.18,14.18,0,0,0-14.17-14.17H189.58A14.18,14.18,0,0,0,175.4,412.57Z"/><path d="M250,9.33C382.92,9.33,490.67,117.08,490.67,250S382.92,490.67,250,490.67,9.33,382.92,9.33,250,117.08,9.33,250,9.33M250,0a250.06,250.06,0,0,0-97.31,480.35A250.06,250.06,0,0,0,347.31,19.65,248.36,248.36,0,0,0,250,0Z"/><path d="M250,39.76c116.11,0,210.24,94.13,210.24,210.24S366.11,460.24,250,460.24,39.76,366.11,39.76,250,133.89,39.76,250,39.76m0-18.44a228.74,228.74,0,0,0-89,439.39A228.74,228.74,0,0,0,339,39.29a227.29,227.29,0,0,0-89-18Z"/></svg>