<svg id="Layer_1" data-name="Layer 1" xmlns="http://www.w3.org/2000/svg" viewBox="0 0 672.38 782.54"><defs><style>.cls-1{fill:#fff;}</style></defs><path class="cls-1" d="M334.53,188.22l.37.19.37-.19Z"/><polygon class="cls-1" points="334.9 188.87 332.79 187.81 337.02 187.81 334.9 188.87"/><path class="cls-1" d="M333.79,216.34a532,532,0,0,1,79.91,5.92,97.14,97.14,0,0,0-66.59-29.6,13.34,13.34,0,0,1-25.15,0,97.14,97.14,0,0,0-66.59,29.6,532,532,0,0,1,79.9-5.92"/><path class="cls-1" d="M316.38,168.64a12,12,0,0,1,7.43,11.44,10.73,10.73,0,1,0,21.45,0,13.84,13.84,0,0,1,8.39-11.44Z"/><path class="cls-1" d="M344.08,147.39a14.92,14.92,0,0,1-6.91-8.92l-2.54-8.73h-.21l-2.71,9.31a15.26,15.26,0,0,1-6.49,8.77,18.64,18.64,0,0,0-8.84,15.85h37.27A18.61,18.61,0,0,0,344.08,147.39Z"/><path class="cls-1" d="M365.36,346.83c-15.81,32-45.16,32-61,0,8.28,2.71,17.9,8.14,31,7.86C346.69,354.46,357.83,349.29,365.36,346.83Z"/><path class="cls-1" d="M246.7,228.92c-2.84,0-13.68-.23-22.41-8.14-2.76-2.51-7-6.38-8.41-12.51a62.6,62.6,0,0,1-1.55-7.47c-.22-2.06-15.7,0-15.7,0s-.21,1.37-.56,4.58-.68,6.44-.8,9.64a134.83,134.83,0,0,0,0,19.07A66.82,66.82,0,0,0,200.8,252a41.62,41.62,0,0,0,9.19,13.4c9.83,9.62,20.08,9.33,29.1,13.12,6.28,2.64,13.56,7.93,20.16,19.17a3.3,3.3,0,0,1-5,4.14l-.12-.1c-2.39-2.07-12-9.5-14.5-11.09A59.4,59.4,0,0,0,223,283.37c-3.09-.93-6.39-1.82-9.85-3.1a39.58,39.58,0,0,1-10.26-5.44,34.43,34.43,0,0,1-8.12-8.63A45.32,45.32,0,0,1,189.68,256a79.06,79.06,0,0,1-4.2-21,147.46,147.46,0,0,1,0-20.7c.14-3.43.56-6.79.85-10.19s.85-6.72,1.27-10.09l.63-5.07h38.09a47.12,47.12,0,0,0,20.41,40Z"/><path class="cls-1" d="M423.34,228.18c2.84,0,13.68-.23,22.4-8.14,2.77-2.51,7-6.38,8.42-12.51a64.7,64.7,0,0,0,1.55-7.47c.22-2.06,15.7,0,15.7,0s.21,1.37.55,4.58.69,6.44.81,9.64a134.83,134.83,0,0,1,0,19.07,67.21,67.21,0,0,1-3.51,17.88,41.62,41.62,0,0,1-9.19,13.4C450.21,274.25,440,274,431,277.75c-6.28,2.64-13.57,7.93-20.17,19.17a3.3,3.3,0,0,0,5,4.14l.11-.1c2.4-2.07,12-9.5,14.5-11.09A59.53,59.53,0,0,1,447,282.63c3.1-.93,6.4-1.82,9.85-3.1a39.63,39.63,0,0,0,10.27-5.44,34.43,34.43,0,0,0,8.12-8.63,45.32,45.32,0,0,0,5.08-10.16,78.65,78.65,0,0,0,4.19-21,146,146,0,0,0,0-20.7c-.13-3.43-.56-6.79-.85-10.19s-.84-6.72-1.26-10.09l-.63-5.07H443.75a47.19,47.19,0,0,1-20.41,40Z"/><path class="cls-1" d="M354.53,374.68a27.37,27.37,0,1,1-37.26,0,41.31,41.31,0,0,0,37.26,0Z"/><path class="cls-1" d="M387.23,437.56a79.48,79.48,0,0,1-2.45-26.63H369.24c-4.74,11.61-17.8,20-33.2,20s-28.47-8.36-33.21-20H287.29a80.72,80.72,0,0,1-1.83,23.67,94.76,94.76,0,0,1-13,30.32H399.64A94.37,94.37,0,0,1,387.23,437.56Z"/><path class="cls-1" d="M334.53,222.51h0Z"/><path class="cls-1" d="M413.63,227.92a575.94,575.94,0,0,0-157.51,0v.26a142.36,142.36,0,0,1,8.11,16.27c13.07,31.09,8.43,51.62,13.34,69.55.69,2.5,2.74,5.64,5.67,9.15,26.78,32,76.5,32,103.28,0,2.94-3.51,5-6.65,5.67-9.15,4.91-17.93.28-38.46,13.34-69.55a140.43,140.43,0,0,1,8.12-16.27ZM304.36,322a48.81,48.81,0,0,1-13.18-11c-2.23-2.66-3.57-4.81-4-6.4-1.31-4.8-1.69-9.8-2.13-15.58-.76-10.2-1.63-21.75-7.93-36.73a107,107,0,0,0-5.34-10.92c8-1.08,16.15-1.94,24.21-2.56C298.05,244.1,308.47,273.58,304.36,322Z"/><path class="cls-1" d="M256.87,488V523.8a224.22,224.22,0,0,0,158.33,0V488a14.9,14.9,0,0,0-14.91-14.91H271.78A14.91,14.91,0,0,0,256.87,488Z"/><path class="cls-1" d="M335.34,10.84C489.77,10.84,615,136,615,290.47S489.77,570.11,335.34,570.11,55.7,444.91,55.7,290.47,180.9,10.84,335.34,10.84m0-10.84A290.54,290.54,0,0,0,222.27,558.11a290.47,290.47,0,0,0,318.46-473A289.59,289.59,0,0,0,335.34,0Z"/><path class="cls-1" d="M335.34,46.19c134.91,0,244.27,109.37,244.27,244.28S470.25,534.75,335.34,534.75,91.06,425.38,91.06,290.47,200.42,46.19,335.34,46.19m0-21.42A265.77,265.77,0,0,0,231.9,535.29,265.77,265.77,0,0,0,438.77,45.66,263.9,263.9,0,0,0,335.34,24.77Z"/><path class="cls-1" d="M55.57,626a42.13,42.13,0,0,1,10,5.85,3.91,3.91,0,0,0,2.31,1.09c1.63,0,2.68-2.43,3.17-7.31h2.8q-.48,8.29-.48,29.49H70.55a60.77,60.77,0,0,0-2.92-13.77,19.56,19.56,0,0,0-6.22-8.28,20.55,20.55,0,0,0-7.06-4.45,23.47,23.47,0,0,0-8.41-1.53q-12.31,0-18.28,12t-6,29.91q0,17.79,6.21,29.73t18.53,11.95a23.26,23.26,0,0,0,8.22-1.53,18,18,0,0,0,6.89-4.45,17.82,17.82,0,0,0,6.27-8.52q1.77-5.13,2.74-15h2.81q0,22.05.48,30.7H71a21.31,21.31,0,0,0-1-5.54c-.44-1.1-1.07-1.65-1.88-1.65a5.31,5.31,0,0,0-2.56,1,51.6,51.6,0,0,1-10.48,5.91,32.37,32.37,0,0,1-12.07,2q-12.91,0-22.6-5.24a36.56,36.56,0,0,1-15-15.17Q0,683.25,0,669.48a50.05,50.05,0,0,1,5.48-23.76,39.76,39.76,0,0,1,15.3-16.09,43.56,43.56,0,0,1,22.36-5.72A33.23,33.23,0,0,1,55.57,626Z"/><path class="cls-1" d="M168.16,629a4.23,4.23,0,0,0-2.5,2.81,23.75,23.75,0,0,0-.67,6.7V699a23.75,23.75,0,0,0,.67,6.7,4.22,4.22,0,0,0,2.5,2.8,20.5,20.5,0,0,0,6,1v2.43q-6-.36-18.53-.36-12.3,0-19.13.36v-2.43a21,21,0,0,0,5.91-1,4.2,4.2,0,0,0,2.56-2.8,23.75,23.75,0,0,0,.67-6.7V669.72H113.32V699a23.75,23.75,0,0,0,.67,6.7,4.24,4.24,0,0,0,2.5,2.8,20.63,20.63,0,0,0,6,1v2.43q-6.58-.36-18.4-.36-13,0-19.25.36v-2.43a21,21,0,0,0,5.91-1,4.23,4.23,0,0,0,2.56-2.8A24.13,24.13,0,0,0,94,699V638.53a24.13,24.13,0,0,0-.67-6.7A4.24,4.24,0,0,0,90.72,629a21.39,21.39,0,0,0-5.91-1v-2.44q6.21.38,19.25.37,11.82,0,18.4-.37v2.44a21.06,21.06,0,0,0-6,1,4.26,4.26,0,0,0-2.5,2.81,23.75,23.75,0,0,0-.67,6.7v28.76h32.29V638.53a23.75,23.75,0,0,0-.67-6.7,4.22,4.22,0,0,0-2.56-2.81,21.39,21.39,0,0,0-5.91-1v-2.44q6.83.38,19.13.37,12.56,0,18.53-.37v2.44A20.92,20.92,0,0,0,168.16,629Z"/><path class="cls-1" d="M256.25,707.5a6.84,6.84,0,0,0,4,2v2.43q-7.3-.36-18.52-.36-12.42,0-18.52.36v-2.43a19.18,19.18,0,0,0,6.58-1.16,3.27,3.27,0,0,0,1.95-3.23,17,17,0,0,0-1.46-5.85l-7.31-20H196.42l-3.16,8.41q-3.42,8.76-3.42,13.52c0,3,.92,5.1,2.74,6.28s4.53,1.85,8.11,2v2.43q-8.3-.36-15.11-.36-5.61,0-9.26.36v-2.43q6-1.1,10.48-12.8l27.78-71.28c.89.08,2.32.12,4.26.12s3.33,0,4.15-.12l29.61,76.28A15.05,15.05,0,0,0,256.25,707.5Zm-34.12-30.71-12.06-32.9-12.67,32.9Z"/><path class="cls-1" d="M360,629a4.26,4.26,0,0,0-2.5,2.81,24.13,24.13,0,0,0-.67,6.7V699a24.13,24.13,0,0,0,.67,6.7,4.23,4.23,0,0,0,2.56,2.8,21,21,0,0,0,5.91,1v2.43q-6.71-.36-19.13-.36-13,0-19.25.36v-2.43a24.15,24.15,0,0,0,6.4-1,4.39,4.39,0,0,0,2.74-2.8,21.9,21.9,0,0,0,.73-6.7V635.24L308,712h-2l-32.9-78.48V691.9a55.06,55.06,0,0,0,.73,10.54,7.29,7.29,0,0,0,3.17,4.88q2.45,1.51,7.92,2.13v2.43q-4.75-.36-13.16-.36-6.71,0-10.6.36v-2.43a13,13,0,0,0,5.91-2.07,7.62,7.62,0,0,0,2.56-4.63,48.65,48.65,0,0,0,.67-9.39V638.53a23.75,23.75,0,0,0-.67-6.7,4.24,4.24,0,0,0-2.56-2.81,21.39,21.39,0,0,0-5.91-1v-2.44q3.9.38,10.6.37,11.2,0,19.25-.37L315.72,685l22.42-59h8.65q12.43,0,19.13-.37v2.44A21.06,21.06,0,0,0,360,629Z"/><path class="cls-1" d="M402.6,677v21.21q0,4.88,1,7.12a5.37,5.37,0,0,0,3.66,3,36.91,36.91,0,0,0,8.35.85v2.68q-15-.36-22.3-.36c-4.07,0-9.18.08-15.36.24l-3.9.12v-2.43a21,21,0,0,0,5.92-1,4.21,4.21,0,0,0,2.55-2.8,23.75,23.75,0,0,0,.67-6.7V638.53a23.75,23.75,0,0,0-.67-6.7A4.23,4.23,0,0,0,380,629a21.48,21.48,0,0,0-5.92-1v-2.44q6.23.38,18.53.37l13.52-.12c1.63-.08,3.49-.13,5.61-.13q16.44,0,25.1,6.52a20.79,20.79,0,0,1,8.65,17.49,26.16,26.16,0,0,1-3.41,12.85q-3.42,6.17-11.52,10.3T409.06,677Zm2.74-48.13a4.7,4.7,0,0,0-2.13,3.05,26.17,26.17,0,0,0-.61,6.58V674.6h5.24q9.87,0,13.65-6.34t3.77-17.18q0-11.82-3.47-17.43c-2.31-3.73-6.2-5.6-11.64-5.6A10.38,10.38,0,0,0,405.34,628.9Z"/><path class="cls-1" d="M489.24,628.05a21.08,21.08,0,0,0-6,1,4.24,4.24,0,0,0-2.49,2.81,23.75,23.75,0,0,0-.67,6.7V699a23.75,23.75,0,0,0,.67,6.7,4.23,4.23,0,0,0,2.49,2.8,20.64,20.64,0,0,0,6,1v2.43q-6.58-.36-18.41-.36-13,0-19.25.36v-2.43a21,21,0,0,0,5.91-1,4.23,4.23,0,0,0,2.56-2.8,23.75,23.75,0,0,0,.67-6.7V638.53a23.75,23.75,0,0,0-.67-6.7,4.24,4.24,0,0,0-2.56-2.81,21.39,21.39,0,0,0-5.91-1v-2.44q6.23.38,19.25.37,11.82,0,18.41-.37Z"/><path class="cls-1" d="M563.26,629.15a36.62,36.62,0,0,1,15,15.17q5.36,9.93,5.36,23.7a50.11,50.11,0,0,1-5.48,23.76,39.78,39.78,0,0,1-15.29,16.08,43.52,43.52,0,0,1-22.36,5.73q-12.93,0-22.61-5.24a36.62,36.62,0,0,1-15-15.17q-5.36-9.93-5.36-23.7A50.05,50.05,0,0,1,503,645.72a39.76,39.76,0,0,1,15.3-16.09,43.56,43.56,0,0,1,22.36-5.72Q553.58,623.91,563.26,629.15Zm-34.91,2.37q-5.11,5.43-7.86,15.17a82.5,82.5,0,0,0-2.74,22.3,72.41,72.41,0,0,0,3.11,22.3q3.1,9.63,8.4,14.87T541,711.4A15.8,15.8,0,0,0,552.84,706q5.11-5.41,7.86-15.17a82.4,82.4,0,0,0,2.74-22.3,72.66,72.66,0,0,0-3.1-22.29q-3.12-9.63-8.41-14.87t-11.76-5.24A15.82,15.82,0,0,0,528.35,631.52Z"/><path class="cls-1" d="M672.38,628.05a13,13,0,0,0-5.91,2.07,7.62,7.62,0,0,0-2.56,4.63,49.36,49.36,0,0,0-.67,9.38v68l-2.92-.12-3.29.12-52.89-67V691.9a55.06,55.06,0,0,0,.73,10.54,7.29,7.29,0,0,0,3.17,4.88q2.44,1.51,7.92,2.13v2.43q-4.74-.36-13.16-.36-6.7,0-10.6.36v-2.43a13,13,0,0,0,5.91-2.07,7.62,7.62,0,0,0,2.56-4.63,48.65,48.65,0,0,0,.67-9.39V638.53a23.75,23.75,0,0,0-.67-6.7,4.24,4.24,0,0,0-2.56-2.81,21.39,21.39,0,0,0-5.91-1v-2.44q3.9.38,10.6.37c4.06,0,7.56-.12,10.48-.37l47.16,58.13V645.6a54.17,54.17,0,0,0-.73-10.54,7.25,7.25,0,0,0-3.17-4.88q-2.43-1.51-7.92-2.13v-2.44q4.75.38,13.16.37,6.83,0,10.6-.37Z"/><path class="cls-1" d="M41.11,748.08q0,2.92.18,4.74H39.86q-1.5-7.68-4.09-10.8a8.73,8.73,0,0,0-7.09-3.12H27.25v35.65a9.88,9.88,0,0,0,.53,3.81A2.81,2.81,0,0,0,29.65,780a17.37,17.37,0,0,0,4.28.47v1.25q-7.87-.2-11.87-.19t-11.42.19v-1.25a17.51,17.51,0,0,0,4.28-.47,2.85,2.85,0,0,0,1.87-1.59,10.08,10.08,0,0,0,.53-3.81V738.9H15.94a9.32,9.32,0,0,0-5.08,1.31,10.21,10.21,0,0,0-3.59,4.34,34.18,34.18,0,0,0-2.56,8.27H3.27a46.42,46.42,0,0,0,.19-4.74c0-3.13-.15-6.66-.44-10.62q5.69.19,19.29.19t19.23-.19C41.25,741.42,41.11,745,41.11,748.08Z"/><path class="cls-1" d="M87.62,778.92A10.28,10.28,0,0,1,84,781.7a11.72,11.72,0,0,1-4.68.84A9.52,9.52,0,0,1,73.6,781c-1.39-1-2.3-2.76-2.71-5.21l-1.13-6.25a24,24,0,0,0-2-6.71A4,4,0,0,0,64,760.69H59.9v14.36a12.22,12.22,0,0,0,.34,3.43,2.18,2.18,0,0,0,1.28,1.44,11,11,0,0,0,3.06.5v1.25q-3.37-.2-9.42-.19-6.69,0-9.87.19v-1.25a11.16,11.16,0,0,0,3-.5,2.18,2.18,0,0,0,1.31-1.44,12.22,12.22,0,0,0,.34-3.43v-31a12.18,12.18,0,0,0-.34-3.43,2.18,2.18,0,0,0-1.31-1.44,10.78,10.78,0,0,0-3-.5v-1.25c2.12.13,5.29.19,9.49.19l6.93-.06c.83,0,1.79-.07,2.87-.07q8.63,0,13,2.81a9.05,9.05,0,0,1,4.34,8.06,10.94,10.94,0,0,1-3.25,7.8q-3.24,3.38-10.74,4.25,5.63.49,8.37,2.43a9,9,0,0,1,3.56,5.81l1.43,6.43a10.76,10.76,0,0,0,1.16,3.5,2.1,2.1,0,0,0,1.84,1,2.92,2.92,0,0,0,1.28-.38,5.87,5.87,0,0,0,1.22-1.06ZM61.3,739.15a2.42,2.42,0,0,0-1.09,1.56,13.44,13.44,0,0,0-.31,3.37v15.36h2.68q5.13,0,7-2.72t1.9-7.65q0-5.12-1.81-7.74t-5.93-2.62A5.34,5.34,0,0,0,61.3,739.15Z"/><path class="cls-1" d="M122.74,739.27a18.72,18.72,0,0,1,7.71,7.78,25.22,25.22,0,0,1,2.75,12.14,25.62,25.62,0,0,1-2.81,12.17,20.32,20.32,0,0,1-7.84,8.25,22.35,22.35,0,0,1-11.45,2.93,24,24,0,0,1-11.58-2.68,18.8,18.8,0,0,1-7.72-7.78,25.22,25.22,0,0,1-2.74-12.14,25.57,25.57,0,0,1,2.81-12.18,20.39,20.39,0,0,1,7.83-8.24,22.36,22.36,0,0,1,11.46-2.93A24,24,0,0,1,122.74,739.27Zm-17.89,1.22a18.38,18.38,0,0,0-4,7.77,42.16,42.16,0,0,0-1.41,11.43A37.19,37.19,0,0,0,101,771.11a18.62,18.62,0,0,0,4.31,7.62,8.41,8.41,0,0,0,6,2.69,8.09,8.09,0,0,0,6.05-2.78,18.37,18.37,0,0,0,4-7.78,42.05,42.05,0,0,0,1.4-11.42A37.31,37.31,0,0,0,121.24,748a18.42,18.42,0,0,0-4.31-7.61,8.39,8.39,0,0,0-6-2.69A8.12,8.12,0,0,0,104.85,740.49Z"/><path class="cls-1" d="M152.12,763.81v10.86a9.22,9.22,0,0,0,.53,3.66,2.75,2.75,0,0,0,1.87,1.53,19,19,0,0,0,4.28.43v1.38q-7.68-.2-11.43-.19-3.12,0-7.86.12l-2,.07v-1.25a11.16,11.16,0,0,0,3-.5,2.18,2.18,0,0,0,1.31-1.44,12.22,12.22,0,0,0,.34-3.43v-31a12.18,12.18,0,0,0-.34-3.43,2.18,2.18,0,0,0-1.31-1.44,10.78,10.78,0,0,0-3-.5v-1.25q3.18.19,9.49.19l6.93-.06c.83,0,1.79-.07,2.87-.07q8.43,0,12.86,3.34a10.65,10.65,0,0,1,4.44,9,12.86,12.86,0,0,1-7.65,11.87q-4.15,2.12-11,2.12Zm1.4-24.66a2.42,2.42,0,0,0-1.09,1.56,13.44,13.44,0,0,0-.31,3.37v18.48h2.68q5.05,0,7-3.25a17.22,17.22,0,0,0,1.93-8.8c0-4-.59-7-1.78-8.93s-3.17-2.87-6-2.87A5.31,5.31,0,0,0,153.52,739.15Z"/><path class="cls-1" d="M219.92,739.21a2.18,2.18,0,0,0-1.28,1.44,12.57,12.57,0,0,0-.34,3.43v31a12.62,12.62,0,0,0,.34,3.43,2.18,2.18,0,0,0,1.28,1.44,11,11,0,0,0,3.06.5v1.25q-3.06-.2-9.49-.19t-9.8.19v-1.25a11.09,11.09,0,0,0,3-.5,2.18,2.18,0,0,0,1.31-1.44,12.22,12.22,0,0,0,.34-3.43v-15H191.83v15a12.22,12.22,0,0,0,.34,3.43,2.18,2.18,0,0,0,1.28,1.44,10.92,10.92,0,0,0,3.06.5v1.25q-3.37-.2-9.43-.19-6.68,0-9.86.19v-1.25a11.16,11.16,0,0,0,3-.5,2.18,2.18,0,0,0,1.31-1.44,12.22,12.22,0,0,0,.34-3.43v-31a12.18,12.18,0,0,0-.34-3.43,2.18,2.18,0,0,0-1.31-1.44,10.78,10.78,0,0,0-3-.5v-1.25q3.18.19,9.86.19,6.06,0,9.43-.19v1.25a10.56,10.56,0,0,0-3.06.5,2.18,2.18,0,0,0-1.28,1.44,12.18,12.18,0,0,0-.34,3.43v14.74h16.54V744.08a12.18,12.18,0,0,0-.34-3.43,2.18,2.18,0,0,0-1.31-1.44,10.71,10.71,0,0,0-3-.5v-1.25q3.5.19,9.8.19t9.49-.19v1.25A10.62,10.62,0,0,0,219.92,739.21Z"/><path class="cls-1" d="M246.46,738.71a10.49,10.49,0,0,0-3.06.5,2.18,2.18,0,0,0-1.28,1.44,12.18,12.18,0,0,0-.34,3.43v31a12.22,12.22,0,0,0,.34,3.43,2.18,2.18,0,0,0,1.28,1.44,10.85,10.85,0,0,0,3.06.5v1.25q-3.37-.2-9.43-.19-6.67,0-9.86.19v-1.25a11,11,0,0,0,3-.5,2.17,2.17,0,0,0,1.32-1.44,12.62,12.62,0,0,0,.34-3.43v-31a12.57,12.57,0,0,0-.34-3.43,2.17,2.17,0,0,0-1.32-1.44,10.63,10.63,0,0,0-3-.5v-1.25q3.18.19,9.86.19,6.06,0,9.43-.19Z"/><path class="cls-1" d="M285.29,781.67q-4.25-.2-14.29-.19-13.62,0-20.36.19v-1.25a11.09,11.09,0,0,0,3-.5,2.15,2.15,0,0,0,1.31-1.44,12.14,12.14,0,0,0,.35-3.43v-31a12.09,12.09,0,0,0-.35-3.43,2.15,2.15,0,0,0-1.31-1.44,10.71,10.71,0,0,0-3-.5v-1.25q6.75.19,20.36.19c6.12,0,10.46-.06,13.05-.19-.3,3.46-.44,6.54-.44,9.24a35.41,35.41,0,0,0,.19,4.25h-1.44q-.93-6.69-3.37-9.37a8.8,8.8,0,0,0-6.87-2.68h-2.56a9,9,0,0,0-2.81.31,1.88,1.88,0,0,0-1.19,1.22,10,10,0,0,0-.31,2.9v15.49h2a5.78,5.78,0,0,0,5-2.44,15.3,15.3,0,0,0,2.4-5.81h1.44q-.19,2.63-.19,5.87v3q0,3.18.37,8.87h-1.43q-1.32-8.25-7.62-8.25h-2V775.8a10,10,0,0,0,.31,2.9,1.9,1.9,0,0,0,1.19,1.22,9,9,0,0,0,2.81.31h3.06a9.13,9.13,0,0,0,7.15-3q2.72-3,3.84-10.27H285c-.12,1.38-.18,3.12-.18,5.25A85.11,85.11,0,0,0,285.29,781.67Z"/><path class="cls-1" d="M311,737.27a19.58,19.58,0,0,1,3.93,1.81c.46.25.87.46,1.22.63a2.16,2.16,0,0,0,.91.25,1,1,0,0,0,.87-.66,7.46,7.46,0,0,0,.5-2.09h1.43q-.31,4.18-.31,14.24h-1.43a20.64,20.64,0,0,0-1.53-6.43,12.47,12.47,0,0,0-3.63-5,8.39,8.39,0,0,0-5.46-1.9,7.14,7.14,0,0,0-5,1.71,6,6,0,0,0-1.91,4.66,7.58,7.58,0,0,0,.94,3.81,10.49,10.49,0,0,0,2.62,3c1.13.9,2.85,2.11,5.18,3.65l2,1.38a62.22,62.22,0,0,1,5.81,4.24,15.63,15.63,0,0,1,3.47,4.22,11.3,11.3,0,0,1,1.34,5.59,10.81,10.81,0,0,1-2.06,6.71,12.62,12.62,0,0,1-5.59,4.09,21.58,21.58,0,0,1-7.84,1.37,22.9,22.9,0,0,1-5.8-.62,19.13,19.13,0,0,1-4.25-1.69,4.53,4.53,0,0,0-2.12-.87,1,1,0,0,0-.88.65,7.66,7.66,0,0,0-.5,2.09h-1.43q.24-3.93.25-16.85h1.43a24.34,24.34,0,0,0,3.12,11.33,9,9,0,0,0,8.25,4.34,8.44,8.44,0,0,0,5.55-1.81,6.36,6.36,0,0,0,2.19-5.19,8.65,8.65,0,0,0-2.25-6,35.83,35.83,0,0,0-7.12-5.62c-2.49-1.62-4.49-3-6-4.24a15.36,15.36,0,0,1-3.68-4.28,11.11,11.11,0,0,1-1.44-5.71,10.41,10.41,0,0,1,1.9-6.34,11.24,11.24,0,0,1,5.09-3.84,19.09,19.09,0,0,1,7-1.25A17.65,17.65,0,0,1,311,737.27Z"/><path class="cls-1" d="M391,752.6q-3.23,2.6-9.46,3.9l-1.13.38a8.86,8.86,0,0,1,4.31,4,13.05,13.05,0,0,1,1.5,6.36,12.46,12.46,0,0,1-2.69,7.84,17.73,17.73,0,0,1-7.58,5.46,29.7,29.7,0,0,1-11.27,2,35.6,35.6,0,0,1-12.08-1.87,17.78,17.78,0,0,1-8.06-5.4,12.82,12.82,0,0,1-2.84-8.28,11.28,11.28,0,0,1,2.25-7.14,15.71,15.71,0,0,1,5.09-4.41,24,24,0,0,1,5.34-2.12q-7.07-2.8-7.06-7.87a6.63,6.63,0,0,1,3.69-6,16.93,16.93,0,0,1,8.74-2.15,19.09,19.09,0,0,1,3.81.31,9,9,0,0,1,2.68,1,8.32,8.32,0,0,1,2.75,2.06,4.45,4.45,0,0,1,1.06,3,3.67,3.67,0,0,1-1.41,3,5.17,5.17,0,0,1-3.4,1.16,5.23,5.23,0,0,1-3.28-1,3.45,3.45,0,0,1-1.28-2.88,4.22,4.22,0,0,1,1.13-2.84,4.84,4.84,0,0,1,2.87-1.59,4.36,4.36,0,0,0-1.69-.81,9,9,0,0,0-2.43-.31,7.75,7.75,0,0,0-5.62,2.12,8.05,8.05,0,0,0-2.19,6.06,9.36,9.36,0,0,0,2.44,6.37,17.52,17.52,0,0,1,3.5-.5,2.7,2.7,0,0,1,1.71.46,1.49,1.49,0,0,1,.6,1.22,1.11,1.11,0,0,1-.5,1,2.16,2.16,0,0,1-1.25.34,4,4,0,0,1-1.81-.43c-.59-.29-1.32-.69-2.19-1.19a13.17,13.17,0,0,0-4.9,4,10.16,10.16,0,0,0-1.72,6.08,10,10,0,0,0,4.84,9.09q4.85,3,13.39,3a26.9,26.9,0,0,0,8.28-1.28,15.83,15.83,0,0,0,6.43-3.75,8,8,0,0,0,2.46-5.84q0-5.74-4.74-7.93l-4,1.13-3.49,1a32.37,32.37,0,0,0-7.68,2.49,4,4,0,0,0-2.44,3.56,4.26,4.26,0,0,0,2.09,3.66,8.24,8.24,0,0,0,4.66,1.4,6,6,0,0,0,1.46-.19,2.29,2.29,0,0,0,1-.43,4.75,4.75,0,0,1-2.31-1.56,4.12,4.12,0,0,1-.81-2.56,3.62,3.62,0,0,1,1.41-3,5.65,5.65,0,0,1,3.59-1.1,5.06,5.06,0,0,1,3.52,1.16,3.94,3.94,0,0,1,1.28,3.09,4.63,4.63,0,0,1-2.49,4.25,12.75,12.75,0,0,1-6.37,1.43,10.53,10.53,0,0,1-6.65-2.06,7,7,0,0,1-2.65-5.93,8.89,8.89,0,0,1,3.55-7.43q3.57-2.75,10.43-4.06l2.69-.69a65.86,65.86,0,0,0,6.61-1.81,26.41,26.41,0,0,0,7.12-2.59,4.12,4.12,0,0,0,2.31-3.59,4.93,4.93,0,0,0-2.15-4.06,8,8,0,0,0-4.9-1.62,4.32,4.32,0,0,0-1.82.31,5,5,0,0,1,2.25,1.66,3.8,3.8,0,0,1,.82,2.28,3.46,3.46,0,0,1-1.41,2.93,5.78,5.78,0,0,1-3.59,1.06,5.41,5.41,0,0,1-3.53-1.09,3.71,3.71,0,0,1-1.34-3,4.4,4.4,0,0,1,2.12-3.84,10.23,10.23,0,0,1,5.68-1.4,10.68,10.68,0,0,1,7.22,2.34,8.07,8.07,0,0,1,2.71,6.46A8.74,8.74,0,0,1,391,752.6Z"/><path class="cls-1" d="M447.32,779.42a3.5,3.5,0,0,0,2.06,1v1.25c-2.5-.13-5.67-.19-9.49-.19q-6.37,0-9.49.19v-1.25a9.84,9.84,0,0,0,3.37-.6,1.67,1.67,0,0,0,1-1.65,8.59,8.59,0,0,0-.74-3l-3.75-10.24H416.66L415,769.24a20.92,20.92,0,0,0-1.75,6.93,3.53,3.53,0,0,0,1.4,3.22,8.58,8.58,0,0,0,4.15,1v1.25q-4.24-.2-7.74-.19c-1.91,0-3.49.06-4.74.19v-1.25c2-.38,3.83-2.56,5.37-6.56L426,737.34q.69.06,2.19.06c1,0,1.7,0,2.12-.06l15.17,39.08A7.71,7.71,0,0,0,447.32,779.42Zm-17.49-15.73-6.18-16.86-6.49,16.86Z"/><path class="cls-1" d="M505.51,737.46v1.25a7.93,7.93,0,0,0-3,2.4,14.82,14.82,0,0,0-2.47,5l-11,35.65c-.46,0-1.18-.06-2.18-.06s-1.73,0-2.19.06l-9.18-27.85-9.24,27.85c-.46,0-1.18-.06-2.18-.06s-1.73,0-2.19.06l-14-39.08a7.27,7.27,0,0,0-1.81-3,3.54,3.54,0,0,0-2.13-1v-1.25q3.75.19,9.31.19,5.24,0,7.68-.19v1.25a2.25,2.25,0,0,0-2.19,2.44,10.37,10.37,0,0,0,.56,2.8l9.12,26.42,6.31-18.61-3.19-9.68a5.73,5.73,0,0,0-1.47-2.53,3.51,3.51,0,0,0-2-.84v-1.25q3.5.19,8.92.19,6.12,0,9-.19v1.25a8.79,8.79,0,0,0-3.25.53,1.78,1.78,0,0,0-1,1.78,9.37,9.37,0,0,0,.63,2.93l8.55,26.1,5.93-18.85a26.75,26.75,0,0,0,1.44-7.25,5,5,0,0,0-1.35-3.9,6.24,6.24,0,0,0-4-1.34v-1.25q4.25.19,7.74.19C502.66,737.65,504.26,737.59,505.51,737.46Z"/><path class="cls-1" d="M540.72,779.42a3.53,3.53,0,0,0,2.06,1v1.25q-3.75-.2-9.49-.19-6.37,0-9.49.19v-1.25a9.84,9.84,0,0,0,3.37-.6,1.66,1.66,0,0,0,1-1.65,8.64,8.64,0,0,0-.75-3l-3.75-10.24H510.06l-1.62,4.31a20.92,20.92,0,0,0-1.75,6.93,3.54,3.54,0,0,0,1.41,3.22,8.55,8.55,0,0,0,4.15,1v1.25q-4.25-.2-7.74-.19c-1.92,0-3.5.06-4.75.19v-1.25c2-.38,3.83-2.56,5.37-6.56l14.24-36.52c.45,0,1.18.06,2.18.06s1.71,0,2.12-.06l15.18,39.08A7.7,7.7,0,0,0,540.72,779.42Zm-17.48-15.73-6.18-16.86-6.5,16.86Z"/><path class="cls-1" d="M585.55,778.92a10.37,10.37,0,0,1-3.62,2.78,11.72,11.72,0,0,1-4.68.84,9.52,9.52,0,0,1-5.72-1.53c-1.39-1-2.3-2.76-2.71-5.21l-1.13-6.25a24,24,0,0,0-2-6.71,4,4,0,0,0-3.84-2.15h-4.06v14.36a12.22,12.22,0,0,0,.34,3.43,2.18,2.18,0,0,0,1.28,1.44,10.92,10.92,0,0,0,3.06.5v1.25q-3.37-.2-9.43-.19-6.68,0-9.86.19v-1.25a11.16,11.16,0,0,0,3-.5,2.18,2.18,0,0,0,1.31-1.44,12.62,12.62,0,0,0,.34-3.43v-31a12.57,12.57,0,0,0-.34-3.43,2.18,2.18,0,0,0-1.31-1.44,10.78,10.78,0,0,0-3-.5v-1.25q3.18.19,9.49.19l6.93-.06c.83,0,1.79-.07,2.87-.07q8.61,0,13,2.81a9.05,9.05,0,0,1,4.34,8.06,10.94,10.94,0,0,1-3.25,7.8q-3.25,3.38-10.74,4.25c3.75.33,6.53,1.14,8.37,2.43a9.08,9.08,0,0,1,3.56,5.81l1.43,6.43a10.8,10.8,0,0,0,1.15,3.5,2.11,2.11,0,0,0,1.85,1,3,3,0,0,0,1.28-.38,5.61,5.61,0,0,0,1.21-1.06Zm-26.32-39.77a2.42,2.42,0,0,0-1.09,1.56,13.44,13.44,0,0,0-.31,3.37v15.36h2.68c3.41,0,5.76-.91,7-2.72s1.9-4.36,1.9-7.65-.6-6-1.81-7.74-3.18-2.62-5.93-2.62A5.31,5.31,0,0,0,559.23,739.15Z"/><path class="cls-1" d="M624,743q6.06,5.52,6,16.07a23.27,23.27,0,0,1-3,11.9,20.12,20.12,0,0,1-8.56,7.9,29.37,29.37,0,0,1-13.33,2.81l-3.87-.07c-2.41-.08-4.16-.12-5.24-.12-4.29,0-7.49.06-9.62.19v-1.25a11,11,0,0,0,3-.5,2.15,2.15,0,0,0,1.31-1.44,12.14,12.14,0,0,0,.35-3.43v-31a12.09,12.09,0,0,0-.35-3.43,2.15,2.15,0,0,0-1.31-1.44,10.64,10.64,0,0,0-3-.5v-1.25q2.63.19,7.56.19h1.93l2.5-.06q5.12-.14,7.31-.13Q617.89,737.46,624,743Zm-21.2-4a2.45,2.45,0,0,0-1.34,1.56A11.35,11.35,0,0,0,601,744v31.22a11.26,11.26,0,0,0,.38,3.37,2.47,2.47,0,0,0,1.34,1.57,7.66,7.66,0,0,0,3,.43q7.54,0,10.74-5.27t3.18-16q0-10.66-3.28-15.7t-10.71-5A7.43,7.43,0,0,0,602.75,739Z"/><path class="cls-1" d="M655.66,737.27a19.91,19.91,0,0,1,3.94,1.81c.46.25.86.46,1.22.63a2.12,2.12,0,0,0,.9.25,1,1,0,0,0,.87-.66,7.13,7.13,0,0,0,.5-2.09h1.44q-.31,4.18-.31,14.24h-1.44a20.64,20.64,0,0,0-1.53-6.43,12.45,12.45,0,0,0-3.62-5,8.39,8.39,0,0,0-5.46-1.9,7.16,7.16,0,0,0-5,1.71,6,6,0,0,0-1.9,4.66,7.48,7.48,0,0,0,.94,3.81,10.34,10.34,0,0,0,2.62,3c1.12.9,2.85,2.11,5.18,3.65l2,1.38a61.88,61.88,0,0,1,5.8,4.24,15.27,15.27,0,0,1,3.47,4.22,11.3,11.3,0,0,1,1.34,5.59,10.74,10.74,0,0,1-2.06,6.71,12.56,12.56,0,0,1-5.59,4.09,21.52,21.52,0,0,1-7.83,1.37,23,23,0,0,1-5.81-.62,19.25,19.25,0,0,1-4.24-1.69,4.56,4.56,0,0,0-2.13-.87,1,1,0,0,0-.87.65,7.66,7.66,0,0,0-.5,2.09h-1.44q.26-3.93.25-16.85h1.44A24.22,24.22,0,0,0,641,776.58a9,9,0,0,0,8.24,4.34,8.47,8.47,0,0,0,5.56-1.81,6.36,6.36,0,0,0,2.19-5.19,8.65,8.65,0,0,0-2.25-6,35.83,35.83,0,0,0-7.12-5.62c-2.5-1.62-4.5-3-6-4.24a15.56,15.56,0,0,1-3.69-4.28,11.11,11.11,0,0,1-1.43-5.71,10.41,10.41,0,0,1,1.9-6.34,11.24,11.24,0,0,1,5.09-3.84,19,19,0,0,1,7-1.25A17.58,17.58,0,0,1,655.66,737.27Z"/></svg>