<svg id="Layer_1" data-name="Layer 1" xmlns="http://www.w3.org/2000/svg" viewBox="0 0 744.24 671.2"><defs><style>.cls-1{fill:#8d7f55;}.cls-2{fill:#fff;}</style></defs><path class="cls-1" d="M399,256.77c-13.86,28-39.6,28-53.46,0,7.26,2.38,15.69,7.14,27.19,6.9C382.64,263.46,392.41,258.93,399,256.77Z"/><path d="M372,117.7l.32.16.33-.16Z"/><polygon class="cls-2" points="372.3 118.27 370.45 117.34 374.16 117.34 372.3 118.27"/><path class="cls-1" d="M371.33,142.35a466.71,466.71,0,0,1,70.07,5.19A85.25,85.25,0,0,0,383,121.59a11.7,11.7,0,0,1-22.06,0,85.25,85.25,0,0,0-58.39,25.95,466.71,466.71,0,0,1,70.07-5.19"/><path class="cls-1" d="M295,153.38c-2.49,0-12-.2-19.64-7.14-2.43-2.19-6.17-5.59-7.38-11a55,55,0,0,1-1.36-6.54c-.19-1.81-13.77,0-13.77,0s-.18,1.2-.48,4-.6,5.64-.71,8.45a117.93,117.93,0,0,0,0,16.71,58.87,58.87,0,0,0,3.07,15.68,36.59,36.59,0,0,0,8.06,11.75c8.63,8.44,17.62,8.18,25.52,11.51,5.51,2.31,11.89,7,17.68,16.81a2.89,2.89,0,0,1-4.41,3.63l-.1-.09c-2.11-1.82-10.53-8.33-12.72-9.72a52,52,0,0,0-14.56-6.35c-2.71-.82-5.61-1.6-8.64-2.72a34.93,34.93,0,0,1-9-4.77,30.42,30.42,0,0,1-7.12-7.57,39.47,39.47,0,0,1-4.45-8.91,69.06,69.06,0,0,1-3.68-18.44,129.38,129.38,0,0,1,0-18.15c.12-3,.49-5.95.75-8.93s.74-5.9,1.1-8.85l.56-4.44h33.4a41.35,41.35,0,0,0,17.89,35Z"/><path class="cls-1" d="M449.85,152.73c2.49,0,12-.2,19.64-7.14,2.43-2.19,6.17-5.59,7.38-11a57.62,57.62,0,0,0,1.36-6.55c.19-1.8,13.77,0,13.77,0s.18,1.2.48,4,.6,5.64.7,8.45a118.09,118.09,0,0,1,0,16.72,58.88,58.88,0,0,1-3.08,15.67A36.23,36.23,0,0,1,482,184.69c-8.62,8.44-17.61,8.18-25.51,11.51-5.51,2.31-11.9,7-17.68,16.81a2.89,2.89,0,0,0,4.41,3.63l.1-.09c2.1-1.81,10.52-8.33,12.72-9.72a52,52,0,0,1,14.56-6.35c2.71-.82,5.61-1.6,8.64-2.72a34.93,34.93,0,0,0,9-4.77,30.42,30.42,0,0,0,7.12-7.57,39.47,39.47,0,0,0,4.45-8.91,69.06,69.06,0,0,0,3.68-18.44,129.37,129.37,0,0,0,0-18.15c-.12-3-.49-5.95-.75-8.93s-.74-5.9-1.11-8.85l-.55-4.44h-33.4a41.35,41.35,0,0,1-17.89,35Z"/><path class="cls-1" d="M389.51,281.19a24,24,0,1,1-32.67,0,36.25,36.25,0,0,0,32.67,0Z"/><path class="cls-1" d="M418.19,336.32A69.58,69.58,0,0,1,416,313H402.41c-4.16,10.19-15.61,17.52-29.11,17.52s-25-7.33-29.12-17.52H330.56A71.26,71.26,0,0,1,329,333.73a83.27,83.27,0,0,1-11.43,26.59H429.07A82.44,82.44,0,0,1,418.19,336.32Z"/><path class="cls-1" d="M372,147.76h0Z"/><path class="cls-1" d="M441.33,152.51a505.39,505.39,0,0,0-138.11,0v.22A123.92,123.92,0,0,1,310.33,167c11.45,27.26,7.39,45.26,11.7,61,.6,2.19,2.39,5,5,8,23.48,28,67.07,28,90.55,0,2.58-3.08,4.38-5.84,5-8,4.3-15.72.24-33.72,11.7-61a122.56,122.56,0,0,1,7.11-14.27ZM345.52,235A42.58,42.58,0,0,1,334,225.35a17,17,0,0,1-3.51-5.61c-1.15-4.21-1.48-8.59-1.87-13.66-.67-8.94-1.43-19.07-6.95-32.21A95.15,95.15,0,0,0,317,164.3c7-1,14.15-1.7,21.22-2.24C340,166.69,349.12,192.54,345.52,235Z"/><path class="cls-1" d="M356.06,100.53a10.47,10.47,0,0,1,6.51,10,9.42,9.42,0,1,0,18.82,0,12.13,12.13,0,0,1,7.35-10Z"/><path class="cls-1" d="M380.35,81.9a13.1,13.1,0,0,1-6.06-7.83l-2.23-7.65h-.18l-2.38,8.16a13.36,13.36,0,0,1-5.69,7.69,16.33,16.33,0,0,0-7.75,13.9h32.68A16.31,16.31,0,0,0,380.35,81.9Z"/><path d="M303.88,380.51v31.43a196.63,196.63,0,0,0,138.83,0V380.51a13.07,13.07,0,0,0-13.07-13.07H317A13.07,13.07,0,0,0,303.88,380.51Z"/><path d="M372.68,8.6c122.59,0,222,99.38,222,222s-99.38,222-222,222-222-99.38-222-222,99.38-222,222-222m0-8.6a230.63,230.63,0,0,0-89.75,443,230.63,230.63,0,0,0,179.5-424.9A229.19,229.19,0,0,0,372.68,0Z"/><path d="M372.68,36.67c107.09,0,193.91,86.81,193.91,193.9S479.77,424.48,372.68,424.48s-193.9-86.82-193.9-193.91,86.81-193.9,193.9-193.9m0-17a211,211,0,0,0-82.1,405.25A211,211,0,0,0,454.78,36.24a209.62,209.62,0,0,0-82.1-16.58Z"/><path d="M64.76,507a46.1,46.1,0,0,1,10.93,6.4,4.32,4.32,0,0,0,2.53,1.2q2.67,0,3.47-8h3.06q-.52,9.06-.53,32.26H81.16Q80,529,78,523.77a21.58,21.58,0,0,0-6.8-9.06,22.8,22.8,0,0,0-7.73-4.87,25.76,25.76,0,0,0-9.2-1.66q-13.47,0-20,13.13T27.71,554q0,19.46,6.79,32.52t20.26,13.06a25.61,25.61,0,0,0,9-1.66,19.74,19.74,0,0,0,7.53-4.87,19.42,19.42,0,0,0,6.87-9.33q1.92-5.6,3-16.39h3.06q0,24.12.53,33.59H81.69a23.62,23.62,0,0,0-1.14-6.07c-.48-1.2-1.17-1.8-2.06-1.8a5.85,5.85,0,0,0-2.8,1.07,56.27,56.27,0,0,1-11.46,6.46,35.34,35.34,0,0,1-13.2,2.2q-14.13,0-24.72-5.73A40,40,0,0,1,9.85,580.49Q4,569.63,4,554.56q0-14.65,6-26A43.45,43.45,0,0,1,26.71,511a47.55,47.55,0,0,1,24.46-6.27A36.24,36.24,0,0,1,64.76,507Z"/><path d="M187.92,510.31a4.61,4.61,0,0,0-2.73,3.07,26,26,0,0,0-.74,7.33v66.11a26,26,0,0,0,.74,7.33,4.59,4.59,0,0,0,2.73,3.06,22.57,22.57,0,0,0,6.53,1.07V601q-6.54-.41-20.26-.4-13.47,0-20.93.4v-2.67a23,23,0,0,0,6.47-1.07,4.62,4.62,0,0,0,2.8-3.06,26.49,26.49,0,0,0,.73-7.33v-32H127.94v32a26.1,26.1,0,0,0,.73,7.33,4.62,4.62,0,0,0,2.73,3.06,22.64,22.64,0,0,0,6.53,1.07V601q-7.19-.41-20.12-.4-14.27,0-21.06.4v-2.67a22.94,22.94,0,0,0,6.46-1.07,4.6,4.6,0,0,0,2.8-3.06,26.1,26.1,0,0,0,.73-7.33V520.71a26.1,26.1,0,0,0-.73-7.33,4.61,4.61,0,0,0-2.8-3.07,23.32,23.32,0,0,0-6.46-1.07v-2.66q6.8.39,21.06.4,12.93,0,20.12-.4v2.66a23,23,0,0,0-6.53,1.07,4.63,4.63,0,0,0-2.73,3.07,26.1,26.1,0,0,0-.73,7.33v31.45h35.32V520.71a26.49,26.49,0,0,0-.73-7.33,4.63,4.63,0,0,0-2.8-3.07,23.33,23.33,0,0,0-6.47-1.07v-2.66q7.47.39,20.93.4,13.73,0,20.26-.4v2.66A22.93,22.93,0,0,0,187.92,510.31Z"/><path d="M284.29,596.15a7.48,7.48,0,0,0,4.39,2.13V601q-8-.41-20.26-.4-13.59,0-20.26.4v-2.67a21.34,21.34,0,0,0,7.2-1.26,3.59,3.59,0,0,0,2.13-3.54,18.29,18.29,0,0,0-1.6-6.39l-8-21.86H218.84l-3.46,9.19q-3.75,9.6-3.74,14.8c0,3.29,1,5.57,3,6.86s5,2,8.86,2.2V601q-9.06-.41-16.52-.4-6.14,0-10.13.4v-2.67q6.53-1.2,11.46-14l30.39-78c1,.09,2.53.14,4.67.14s3.64-.05,4.53-.14l32.39,83.44A16.35,16.35,0,0,0,284.29,596.15ZM247,562.56l-13.19-36-13.86,36Z"/><path d="M397.71,510.31a4.63,4.63,0,0,0-2.73,3.07,26.1,26.1,0,0,0-.73,7.33v66.11a26.1,26.1,0,0,0,.73,7.33,4.6,4.6,0,0,0,2.8,3.06,22.94,22.94,0,0,0,6.46,1.07V601q-7.32-.41-20.92-.4-14.26,0-21.06.4v-2.67a26.37,26.37,0,0,0,7-1.07,4.81,4.81,0,0,0,3-3.06,24.22,24.22,0,0,0,.79-7.33V517.11l-32.12,84H338.8l-36-85.84v63.85a59.87,59.87,0,0,0,.8,11.53,7.92,7.92,0,0,0,3.47,5.33q2.66,1.66,8.66,2.33V601q-5.19-.41-14.39-.4-7.34,0-11.6.4v-2.67a14.13,14.13,0,0,0,6.46-2.26A8.31,8.31,0,0,0,299,591a53.15,53.15,0,0,0,.74-10.26v-60a26,26,0,0,0-.74-7.33,4.61,4.61,0,0,0-2.8-3.07,23.25,23.25,0,0,0-6.46-1.07v-2.66c2.84.26,6.71.4,11.6.4q12.25,0,21.06-.4l26.92,64.91L373.86,507h9.46q13.59,0,20.92-.4v2.66A23,23,0,0,0,397.71,510.31Z"/><path d="M444.36,562.83V586q0,5.33,1.14,7.8a5.84,5.84,0,0,0,4,3.26,39.53,39.53,0,0,0,9.12.93V601q-16.38-.41-24.39-.4-6.66,0-16.79.26l-4.27.14v-2.67a23,23,0,0,0,6.47-1.07,4.6,4.6,0,0,0,2.8-3.06,26.1,26.1,0,0,0,.73-7.33V520.71a26.1,26.1,0,0,0-.73-7.33,4.61,4.61,0,0,0-2.8-3.07,23.33,23.33,0,0,0-6.47-1.07v-2.66q6.81.39,20.26.4l14.8-.14c1.78-.08,3.82-.13,6.13-.13q18,0,27.46,7.13A22.74,22.74,0,0,1,491.28,533,28.55,28.55,0,0,1,487.55,547q-3.74,6.74-12.6,11.26t-23.52,4.54Zm3-52.65a5.14,5.14,0,0,0-2.33,3.33,28.59,28.59,0,0,0-.67,7.2v39.45h5.74q10.78,0,14.92-6.93t4.14-18.79q0-12.93-3.8-19.06t-12.73-6.14A11.28,11.28,0,0,0,447.36,510.18Z"/><path d="M539.13,509.24a22.93,22.93,0,0,0-6.53,1.07,4.63,4.63,0,0,0-2.73,3.07,26.1,26.1,0,0,0-.73,7.33v66.11a26.1,26.1,0,0,0,.73,7.33,4.62,4.62,0,0,0,2.73,3.06,22.57,22.57,0,0,0,6.53,1.07V601q-7.2-.41-20.12-.4-14.26,0-21.06.4v-2.67a22.94,22.94,0,0,0,6.46-1.07,4.6,4.6,0,0,0,2.8-3.06,26.1,26.1,0,0,0,.73-7.33V520.71a26.1,26.1,0,0,0-.73-7.33,4.61,4.61,0,0,0-2.8-3.07,23.32,23.32,0,0,0-6.46-1.07v-2.66q6.8.39,21.06.4,12.91,0,20.12-.4Z"/><path d="M620.11,510.44A40.15,40.15,0,0,1,636.57,527q5.86,10.86,5.86,25.92,0,14.67-6,26a43.46,43.46,0,0,1-16.72,17.6,47.6,47.6,0,0,1-24.46,6.26q-14.13,0-24.73-5.73a40.06,40.06,0,0,1-16.46-16.59q-5.87-10.86-5.86-25.93a54.84,54.84,0,0,1,6-26A43.52,43.52,0,0,1,570.92,511a47.58,47.58,0,0,1,24.46-6.27Q609.51,504.71,620.11,510.44ZM581.92,513q-5.59,5.94-8.6,16.6a90.26,90.26,0,0,0-3,24.39,79.65,79.65,0,0,0,3.4,24.39q3.4,10.53,9.2,16.26t12.86,5.73q7.34,0,12.93-5.93t8.6-16.59a90.67,90.67,0,0,0,3-24.39,79.78,79.78,0,0,0-3.39-24.4q-3.4-10.51-9.2-16.26t-12.86-5.73Q587.52,507.11,581.92,513Z"/><path d="M739.46,509.24a14.17,14.17,0,0,0-6.46,2.27,8.31,8.31,0,0,0-2.8,5.07,53.31,53.31,0,0,0-.73,10.26v74.37l-3.2-.13-3.6.13-57.85-73.3v51.18a59.87,59.87,0,0,0,.8,11.53,8,8,0,0,0,3.47,5.33c1.78,1.11,4.66,1.89,8.66,2.33V601q-5.19-.41-14.39-.4-7.33,0-11.6.4v-2.67a14.22,14.22,0,0,0,6.47-2.26A8.36,8.36,0,0,0,661,591a54.15,54.15,0,0,0,.73-10.26v-60a26.49,26.49,0,0,0-.73-7.33,4.63,4.63,0,0,0-2.8-3.07,23.4,23.4,0,0,0-6.47-1.07v-2.66c2.84.26,6.71.4,11.6.4,4.44,0,8.26-.14,11.46-.4l51.58,63.58V528.44a59,59,0,0,0-.8-11.53,7.94,7.94,0,0,0-3.46-5.33q-2.67-1.66-8.67-2.34v-2.66q5.21.39,14.4.4c5,0,8.84-.14,11.59-.4Z"/><path d="M42.71,632.55c0,2.2.07,4,.21,5.32H41.31q-1.68-8.61-4.58-12.11a9.8,9.8,0,0,0-7.95-3.5H27.17v40a11.34,11.34,0,0,0,.59,4.27,3.21,3.21,0,0,0,2.1,1.79,19.53,19.53,0,0,0,4.8.52v1.4q-8.82-.21-13.3-.21t-12.82.21v-1.4a19.53,19.53,0,0,0,4.8-.52,3.21,3.21,0,0,0,2.1-1.79,11.1,11.1,0,0,0,.6-4.27v-40H14.49a10.51,10.51,0,0,0-5.7,1.47,11.53,11.53,0,0,0-4,4.87,38.58,38.58,0,0,0-2.87,9.27H.28c.14-1.35.21-3.12.21-5.32q0-5.25-.49-11.9,6.38.21,21.64.21t21.56-.21Q42.72,627.3,42.71,632.55Z"/><path d="M94.88,667.14a11.61,11.61,0,0,1-4.06,3.12,13.16,13.16,0,0,1-5.26.94,10.66,10.66,0,0,1-6.4-1.71c-1.57-1.15-2.58-3.09-3-5.85l-1.26-7a27,27,0,0,0-2.2-7.53,4.51,4.51,0,0,0-4.31-2.41H63.79v16.1a14,14,0,0,0,.38,3.85,2.43,2.43,0,0,0,1.44,1.61,11.83,11.83,0,0,0,3.43.56v1.4c-2.52-.14-6.05-.21-10.57-.21-5,0-8.68.07-11.07.21v-1.4a12,12,0,0,0,3.4-.56,2.42,2.42,0,0,0,1.47-1.61,13.6,13.6,0,0,0,.38-3.85V628.07a13.65,13.65,0,0,0-.38-3.85,2.44,2.44,0,0,0-1.47-1.61,12,12,0,0,0-3.4-.56v-1.4c2.39.14,5.93.21,10.65.21l7.77-.07c.93,0,2-.07,3.22-.07q9.66,0,14.53,3.15a10.14,10.14,0,0,1,4.87,9,12.22,12.22,0,0,1-3.65,8.75q-3.63,3.78-12,4.77,6.3.55,9.38,2.73a10,10,0,0,1,4,6.51l1.62,7.21A11.81,11.81,0,0,0,89,666.79a2.33,2.33,0,0,0,2.07,1.12,3.16,3.16,0,0,0,1.43-.42,6.37,6.37,0,0,0,1.37-1.19Zm-29.52-44.6a2.72,2.72,0,0,0-1.22,1.75,14.85,14.85,0,0,0-.35,3.78v17.22h3c3.83,0,6.45-1,7.88-3s2.13-4.89,2.13-8.58-.68-6.72-2-8.68-3.57-2.94-6.65-2.94A5.91,5.91,0,0,0,65.36,622.54Z"/><path d="M134.26,622.68a21,21,0,0,1,8.65,8.72A28.3,28.3,0,0,1,146,645a28.75,28.75,0,0,1-3.15,13.65,22.77,22.77,0,0,1-8.79,9.24,24.92,24.92,0,0,1-12.84,3.29,26.86,26.86,0,0,1-13-3,21,21,0,0,1-8.65-8.72,28.18,28.18,0,0,1-3.08-13.61,28.77,28.77,0,0,1,3.15-13.66,22.77,22.77,0,0,1,8.79-9.24,24.93,24.93,0,0,1,12.85-3.29A26.84,26.84,0,0,1,134.26,622.68ZM114.2,624a20.68,20.68,0,0,0-4.51,8.72,47.5,47.5,0,0,0-1.58,12.82,41.76,41.76,0,0,0,1.79,12.81,20.76,20.76,0,0,0,4.83,8.54,9.4,9.4,0,0,0,6.76,3,9.11,9.11,0,0,0,6.79-3.11,20.68,20.68,0,0,0,4.51-8.72,47.44,47.44,0,0,0,1.58-12.82,41.76,41.76,0,0,0-1.79-12.81,20.76,20.76,0,0,0-4.83-8.54,9.4,9.4,0,0,0-6.75-3A9.12,9.12,0,0,0,114.2,624Z"/><path d="M167.21,650.2v12.18a10.62,10.62,0,0,0,.59,4.1,3.1,3.1,0,0,0,2.1,1.71,21,21,0,0,0,4.8.49v1.54q-8.61-.21-12.81-.21-3.51,0-8.83.14l-2.24.07v-1.4a12,12,0,0,0,3.4-.56,2.42,2.42,0,0,0,1.47-1.61,13.52,13.52,0,0,0,.39-3.85V628.07a13.56,13.56,0,0,0-.39-3.85,2.44,2.44,0,0,0-1.47-1.61,12,12,0,0,0-3.4-.56v-1.4c2.39.14,5.93.21,10.65.21l7.77-.07c.93,0,2-.07,3.22-.07q9.45,0,14.42,3.74a11.94,11.94,0,0,1,5,10,14.41,14.41,0,0,1-8.58,13.31q-4.67,2.37-12.36,2.38Zm1.58-27.66a2.69,2.69,0,0,0-1.23,1.75,15.33,15.33,0,0,0-.35,3.78V648.8h3c3.78,0,6.4-1.22,7.84-3.64s2.17-5.72,2.17-9.88q0-6.79-2-10t-6.69-3.22A5.83,5.83,0,0,0,168.79,622.54Z"/><path d="M243.25,622.61a2.41,2.41,0,0,0-1.43,1.61,13.56,13.56,0,0,0-.39,3.85V662.8a13.52,13.52,0,0,0,.39,3.85,2.39,2.39,0,0,0,1.43,1.61,11.89,11.89,0,0,0,3.43.56v1.4c-2.29-.14-5.83-.21-10.64-.21s-8.38.07-11,.21v-1.4a12,12,0,0,0,3.39-.56,2.38,2.38,0,0,0,1.47-1.61,13.52,13.52,0,0,0,.39-3.85V646H211.74v16.8a13.52,13.52,0,0,0,.39,3.85,2.39,2.39,0,0,0,1.43,1.61,11.89,11.89,0,0,0,3.43.56v1.4q-3.78-.21-10.57-.21-7.48,0-11.06.21v-1.4a12,12,0,0,0,3.39-.56,2.38,2.38,0,0,0,1.47-1.61,13.52,13.52,0,0,0,.39-3.85V628.07a13.56,13.56,0,0,0-.39-3.85,2.4,2.4,0,0,0-1.47-1.61,12,12,0,0,0-3.39-.56v-1.4q3.57.21,11.06.21,6.79,0,10.57-.21v1.4a11.89,11.89,0,0,0-3.43.56,2.41,2.41,0,0,0-1.43,1.61,13.56,13.56,0,0,0-.39,3.85v16.52H230.3V628.07a13.56,13.56,0,0,0-.39-3.85,2.4,2.4,0,0,0-1.47-1.61,12,12,0,0,0-3.39-.56v-1.4q3.91.21,11,.21c4.81,0,8.35-.07,10.64-.21v1.4A11.89,11.89,0,0,0,243.25,622.61Z"/><path d="M273,622.05a11.83,11.83,0,0,0-3.43.56,2.45,2.45,0,0,0-1.44,1.61,14,14,0,0,0-.38,3.85V662.8a14,14,0,0,0,.38,3.85,2.43,2.43,0,0,0,1.44,1.61,11.83,11.83,0,0,0,3.43.56v1.4c-2.52-.14-6.05-.21-10.57-.21q-7.5,0-11.07.21v-1.4a12.12,12.12,0,0,0,3.4-.56,2.42,2.42,0,0,0,1.47-1.61,13.6,13.6,0,0,0,.38-3.85V628.07a13.65,13.65,0,0,0-.38-3.85,2.44,2.44,0,0,0-1.47-1.61,12.12,12.12,0,0,0-3.4-.56v-1.4q3.57.21,11.07.21c4.52,0,8.05-.07,10.57-.21Z"/><path d="M316.56,670.22q-4.76-.21-16-.21-15.27,0-22.83.21v-1.4a12.12,12.12,0,0,0,3.4-.56,2.42,2.42,0,0,0,1.47-1.61,14,14,0,0,0,.38-3.85V628.07a14,14,0,0,0-.38-3.85,2.44,2.44,0,0,0-1.47-1.61,12.12,12.12,0,0,0-3.4-.56v-1.4q7.56.21,22.83.21,10.29,0,14.63-.21c-.33,3.87-.49,7.33-.49,10.36a40.88,40.88,0,0,0,.21,4.76h-1.61q-1-7.49-3.78-10.5t-7.7-3h-2.87a10.28,10.28,0,0,0-3.15.35,2.08,2.08,0,0,0-1.33,1.36,10.74,10.74,0,0,0-.35,3.26v17.36h2.24a6.45,6.45,0,0,0,5.63-2.73,17.06,17.06,0,0,0,2.7-6.51h1.61c-.14,2-.21,4.16-.21,6.58v3.36c0,2.39.14,5.7.42,10h-1.61Q303.4,646,296.33,646h-2.24v17.64a10.74,10.74,0,0,0,.35,3.26,2.08,2.08,0,0,0,1.33,1.36,10,10,0,0,0,3.15.35h3.43a10.29,10.29,0,0,0,8-3.39q3-3.4,4.3-11.52h1.61q-.21,2.31-.21,5.88A93.9,93.9,0,0,0,316.56,670.22Z"/><path d="M345.41,620.44a21.58,21.58,0,0,1,4.41,2c.51.28,1,.51,1.37.7a2.38,2.38,0,0,0,1,.28,1.08,1.08,0,0,0,1-.74,8.12,8.12,0,0,0,.56-2.34h1.61q-.35,4.7-.35,16h-1.61a23,23,0,0,0-1.71-7.21,14,14,0,0,0-4.06-5.57,9.45,9.45,0,0,0-6.13-2.13,8,8,0,0,0-5.57,1.92,6.7,6.7,0,0,0-2.13,5.22,8.37,8.37,0,0,0,1,4.27,11.86,11.86,0,0,0,2.94,3.33c1.26,1,3.19,2.37,5.81,4.09l2.24,1.54a70,70,0,0,1,6.51,4.77,17.28,17.28,0,0,1,3.89,4.72,12.7,12.7,0,0,1,1.5,6.27,12.1,12.1,0,0,1-2.31,7.53,14,14,0,0,1-6.26,4.58,24,24,0,0,1-8.79,1.54,25.23,25.23,0,0,1-6.51-.7,20.74,20.74,0,0,1-4.76-1.89,5.1,5.1,0,0,0-2.39-1,1.09,1.09,0,0,0-1,.74,8.47,8.47,0,0,0-.56,2.34h-1.61q.29-4.41.28-18.9h1.62q.48,7.85,3.5,12.71t9.24,4.86a9.41,9.41,0,0,0,6.23-2,7.12,7.12,0,0,0,2.45-5.81,9.71,9.71,0,0,0-2.52-6.72,39.81,39.81,0,0,0-8-6.3,82,82,0,0,1-6.72-4.77,17.23,17.23,0,0,1-4.14-4.79,12.53,12.53,0,0,1-1.61-6.41,11.65,11.65,0,0,1,2.14-7.11,12.63,12.63,0,0,1,5.71-4.3,21.35,21.35,0,0,1,7.84-1.4A19.39,19.39,0,0,1,345.41,620.44Z"/><path d="M435.07,637.63q-3.6,2.91-10.61,4.37l-1.26.42a10,10,0,0,1,4.83,4.49,14.66,14.66,0,0,1,1.68,7.14,14,14,0,0,1-3,8.79,19.93,19.93,0,0,1-8.5,6.12,33.19,33.19,0,0,1-12.64,2.24A40,40,0,0,1,392,669.1a20,20,0,0,1-9-6.05,14.37,14.37,0,0,1-3.18-9.28,12.7,12.7,0,0,1,2.52-8,17.64,17.64,0,0,1,5.71-4.94,27.2,27.2,0,0,1,6-2.38q-7.9-3.15-7.91-8.82a7.44,7.44,0,0,1,4.13-6.69,19.1,19.1,0,0,1,9.81-2.41,21.82,21.82,0,0,1,4.27.35,9.83,9.83,0,0,1,3,1.12,9.38,9.38,0,0,1,3.08,2.31,5,5,0,0,1,1.19,3.36A4.14,4.14,0,0,1,410,631a6.43,6.43,0,0,1-7.49.17,3.82,3.82,0,0,1-1.43-3.22,4.73,4.73,0,0,1,1.26-3.19,5.42,5.42,0,0,1,3.22-1.78,4.75,4.75,0,0,0-1.89-.91,10.3,10.3,0,0,0-2.73-.35,8.68,8.68,0,0,0-6.31,2.38,9.05,9.05,0,0,0-2.45,6.79,10.43,10.43,0,0,0,2.73,7.14,20.66,20.66,0,0,1,3.93-.56,3,3,0,0,1,1.92.53,1.66,1.66,0,0,1,.67,1.36,1.26,1.26,0,0,1-.56,1.09,2.41,2.41,0,0,1-1.41.38,4.49,4.49,0,0,1-2-.49c-.65-.32-1.47-.77-2.45-1.33a14.88,14.88,0,0,0-5.49,4.52,11.42,11.42,0,0,0-1.93,6.83A11.21,11.21,0,0,0,393,660.52q5.43,3.4,15,3.4a30.26,30.26,0,0,0,9.28-1.43,17.71,17.71,0,0,0,7.21-4.21,8.94,8.94,0,0,0,2.76-6.54q0-6.45-5.32-8.9l-4.48,1.26-3.92,1.13a35.87,35.87,0,0,0-8.61,2.8,4.45,4.45,0,0,0-2.73,4,4.75,4.75,0,0,0,2.34,4.09,9.17,9.17,0,0,0,5.22,1.58,7,7,0,0,0,1.64-.21,2.55,2.55,0,0,0,1.16-.49,5.2,5.2,0,0,1-2.59-1.75,4.56,4.56,0,0,1-.91-2.87,4.07,4.07,0,0,1,1.57-3.4,6.42,6.42,0,0,1,4-1.22,5.72,5.72,0,0,1,4,1.29,4.47,4.47,0,0,1,1.43,3.47,5.16,5.16,0,0,1-2.8,4.76,14.24,14.24,0,0,1-7.14,1.61,11.79,11.79,0,0,1-7.46-2.31,7.93,7.93,0,0,1-3-6.65,10,10,0,0,1,4-8.34q4-3.08,11.69-4.55l3-.77a75.94,75.94,0,0,0,7.42-2,29.66,29.66,0,0,0,8-2.9,4.66,4.66,0,0,0,2.59-4,5.5,5.5,0,0,0-2.42-4.55,8.91,8.91,0,0,0-5.5-1.82,4.6,4.6,0,0,0-2,.35,5.55,5.55,0,0,1,2.52,1.85,4.22,4.22,0,0,1,.91,2.56,3.89,3.89,0,0,1-1.57,3.29,6.52,6.52,0,0,1-4,1.19A6.09,6.09,0,0,1,420.3,629a4.13,4.13,0,0,1-1.51-3.4,4.91,4.91,0,0,1,2.38-4.31,11.4,11.4,0,0,1,6.37-1.57,12,12,0,0,1,8.09,2.62,9.07,9.07,0,0,1,3.05,7.25A9.82,9.82,0,0,1,435.07,637.63Z"/><path d="M498.26,667.7a3.94,3.94,0,0,0,2.31,1.12v1.4q-4.2-.21-10.64-.21-7.14,0-10.64.21v-1.4a11.06,11.06,0,0,0,3.78-.66,1.89,1.89,0,0,0,1.12-1.86,9.68,9.68,0,0,0-.84-3.36l-4.2-11.48H463.88l-1.82,4.83a23.7,23.7,0,0,0-2,7.77,4,4,0,0,0,1.58,3.61,9.52,9.52,0,0,0,4.65,1.15v1.4q-4.75-.21-8.68-.21c-2.15,0-3.92.07-5.32.21v-1.4q3.44-.63,6-7.35l16-41c.51,0,1.33.07,2.45.07s1.91,0,2.38-.07l17,43.83A8.75,8.75,0,0,0,498.26,667.7Zm-19.6-17.64-6.93-18.91-7.29,18.91Z"/><path d="M563.52,620.65v1.4a8.78,8.78,0,0,0-3.39,2.69,16.46,16.46,0,0,0-2.77,5.64l-12.32,40c-.52,0-1.33-.07-2.45-.07s-1.94,0-2.45.07l-10.3-31.23-10.36,31.23c-.52,0-1.33-.07-2.45-.07s-1.94,0-2.45.07l-15.69-43.83a8,8,0,0,0-2-3.36,4,4,0,0,0-2.38-1.12v-1.4q4.2.21,10.44.21,5.88,0,8.61-.21v1.4a2.51,2.51,0,0,0-2.45,2.73,11.46,11.46,0,0,0,.63,3.15l10.22,29.62L529,636.68l-3.57-10.85a6.57,6.57,0,0,0-1.64-2.84,4,4,0,0,0-2.21-.94v-1.4q3.92.21,10,.21,6.87,0,10.09-.21v1.4a9.91,9.91,0,0,0-3.64.59,2,2,0,0,0-1.12,2,10.55,10.55,0,0,0,.7,3.29l9.59,29.27,6.65-21.15a30.21,30.21,0,0,0,1.61-8.12,5.63,5.63,0,0,0-1.51-4.38,7,7,0,0,0-4.51-1.5v-1.4c3.17.14,6.07.21,8.68.21C560.32,620.86,562.12,620.79,563.52,620.65Z"/><path d="M603,667.7a3.94,3.94,0,0,0,2.31,1.12v1.4q-4.2-.21-10.64-.21-7.14,0-10.64.21v-1.4a11.06,11.06,0,0,0,3.78-.66,1.89,1.89,0,0,0,1.12-1.86,9.68,9.68,0,0,0-.84-3.36l-4.2-11.48H568.63l-1.82,4.83a23.7,23.7,0,0,0-2,7.77,4,4,0,0,0,1.58,3.61,9.52,9.52,0,0,0,4.65,1.15v1.4q-4.76-.21-8.68-.21c-2.15,0-3.92.07-5.32.21v-1.4q3.43-.63,6-7.35l16-41c.51,0,1.33.07,2.45.07s1.91,0,2.38-.07l17,43.83A8.75,8.75,0,0,0,603,667.7Zm-19.6-17.64-6.93-18.91-7.29,18.91Z"/><path d="M653.29,667.14a11.61,11.61,0,0,1-4.06,3.12,13.14,13.14,0,0,1-5.25.94,10.67,10.67,0,0,1-6.41-1.71c-1.57-1.15-2.58-3.09-3.05-5.85l-1.26-7a26.66,26.66,0,0,0-2.2-7.53,4.51,4.51,0,0,0-4.31-2.41H622.2v16.1a14,14,0,0,0,.38,3.85,2.43,2.43,0,0,0,1.44,1.61,11.83,11.83,0,0,0,3.43.56v1.4q-3.78-.21-10.57-.21c-5,0-8.68.07-11.07.21v-1.4a12,12,0,0,0,3.4-.56,2.42,2.42,0,0,0,1.47-1.61,13.52,13.52,0,0,0,.39-3.85V628.07a13.56,13.56,0,0,0-.39-3.85,2.44,2.44,0,0,0-1.47-1.61,12,12,0,0,0-3.4-.56v-1.4c2.39.14,5.93.21,10.65.21l7.77-.07c.93,0,2-.07,3.22-.07q9.66,0,14.53,3.15a10.14,10.14,0,0,1,4.87,9,12.25,12.25,0,0,1-3.64,8.75q-3.65,3.78-12.05,4.77,6.3.55,9.38,2.73a10.09,10.09,0,0,1,4,6.51l1.61,7.21a11.81,11.81,0,0,0,1.29,3.92,2.33,2.33,0,0,0,2.07,1.12,3.12,3.12,0,0,0,1.43-.42,6.37,6.37,0,0,0,1.37-1.19Zm-29.51-44.6a2.69,2.69,0,0,0-1.23,1.75,15.33,15.33,0,0,0-.35,3.78v17.22h3c3.83,0,6.45-1,7.88-3s2.13-4.89,2.13-8.58-.67-6.72-2-8.68-3.57-2.94-6.65-2.94A5.83,5.83,0,0,0,623.78,622.54Z"/><path d="M696.35,626.84q6.79,6.21,6.79,18a26.06,26.06,0,0,1-3.32,13.33,22.48,22.48,0,0,1-9.6,8.86,33,33,0,0,1-15,3.15l-4.34-.07q-4.06-.14-5.88-.14-7.21,0-10.78.21v-1.4a12,12,0,0,0,3.39-.56,2.38,2.38,0,0,0,1.47-1.61,13.52,13.52,0,0,0,.39-3.85V628.07a13.56,13.56,0,0,0-.39-3.85,2.4,2.4,0,0,0-1.47-1.61,12,12,0,0,0-3.39-.56v-1.4q2.94.21,8.47.21h2.17l2.8-.07q5.74-.13,8.19-.14Q689.57,620.65,696.35,626.84Zm-23.77-4.44a2.77,2.77,0,0,0-1.51,1.75,12.74,12.74,0,0,0-.42,3.78v35a12.74,12.74,0,0,0,.42,3.78,2.74,2.74,0,0,0,1.51,1.75,8.42,8.42,0,0,0,3.32.49q8.48,0,12.05-5.91t3.57-17.89q0-12-3.68-17.62t-12-5.63A8.2,8.2,0,0,0,672.58,622.4Z"/><path d="M731.92,620.44a21.58,21.58,0,0,1,4.41,2c.52.28,1,.51,1.37.7a2.38,2.38,0,0,0,1,.28,1.08,1.08,0,0,0,1-.74,8.12,8.12,0,0,0,.56-2.34h1.61q-.35,4.7-.35,16H739.9a23,23,0,0,0-1.71-7.21,14,14,0,0,0-4.06-5.57,9.45,9.45,0,0,0-6.13-2.13,8,8,0,0,0-5.57,1.92,6.7,6.7,0,0,0-2.13,5.22,8.37,8.37,0,0,0,1.05,4.27,11.86,11.86,0,0,0,2.94,3.33c1.26,1,3.2,2.37,5.81,4.09l2.24,1.54a68.66,68.66,0,0,1,6.51,4.77,17.28,17.28,0,0,1,3.89,4.72,12.7,12.7,0,0,1,1.5,6.27,12.1,12.1,0,0,1-2.31,7.53,14,14,0,0,1-6.26,4.58,24,24,0,0,1-8.79,1.54,25.23,25.23,0,0,1-6.51-.7,20.74,20.74,0,0,1-4.76-1.89,5.1,5.1,0,0,0-2.39-1,1.09,1.09,0,0,0-1,.74,8.18,8.18,0,0,0-.55,2.34h-1.62q.28-4.41.28-18.9H712q.49,7.85,3.51,12.71t9.24,4.86a9.4,9.4,0,0,0,6.23-2,7.12,7.12,0,0,0,2.45-5.81,9.71,9.71,0,0,0-2.52-6.72,39.81,39.81,0,0,0-8-6.3,82,82,0,0,1-6.72-4.77A17.2,17.2,0,0,1,712,639a12.44,12.44,0,0,1-1.62-6.41,11.65,11.65,0,0,1,2.14-7.11,12.63,12.63,0,0,1,5.71-4.3,21.35,21.35,0,0,1,7.84-1.4A19.39,19.39,0,0,1,731.92,620.44Z"/></svg>