<svg id="Layer_1" data-name="Layer 1" xmlns="http://www.w3.org/2000/svg" viewBox="0 0 1164.62 1200"><defs><style>.cls-1{fill:#f4817e;}</style></defs><path class="cls-1" d="M390.16,265.55a45,45,0,0,0-36.55-9.21,41.16,41.16,0,0,0-16.39,7.4A43.26,43.26,0,0,0,325.84,277a47,47,0,0,0-6,32.54A44.06,44.06,0,0,0,335.39,336a56.26,56.26,0,0,0,28.28,12.12,48.38,48.38,0,0,0,14.87-.28,61.6,61.6,0,0,0,7.11-1.59,58,58,0,0,0,6.64-2.7,46.53,46.53,0,0,0,11.62-7.65c3.55-2.87,6.19-6.63,9.22-10.7a63,63,0,0,0,10.28-26.6c.19-1.16.35-2.31.59-3.45l.32-3.48c.42-2.29.31-4.63.53-6.94a21.4,21.4,0,0,0,0-3.49v-3.5c-.26-2.31-.39-4.66-.77-7A59.25,59.25,0,0,0,412.7,245.4l-1-1.44-1.21-1.29L408.11,240c-1.57-1.77-3.75-3.41-5.55-5.16s-4-3.13-6-4.71a45.58,45.58,0,0,0-6.41-4.15,85.09,85.09,0,0,0-28.54-10.42,86.17,86.17,0,0,0-30.51.25A84.83,84.83,0,0,0,302.79,227c-8.75,5.33-16,12.31-23.33,20.76a125.86,125.86,0,0,0-16.64,27.86,113.55,113.55,0,0,0-6.83,64,119.67,119.67,0,0,0,10.38,30.75c1.09,2.5,2.72,4.69,4,7.07l2.05,3.52c.72,1.15,1.6,2.19,2.39,3.29l4.84,6.56,5.49,6.05a53.41,53.41,0,0,0,6,5.86l6.34,5.76c2.12,1.9,4.56,3.4,6.81,5.14s4.53,3.48,6.92,5c9.72,5.9,19.75,11.41,30.57,15l8.06,2.84,8.31,2c5.47,1.65,11.19,2.07,16.82,3a62.06,62.06,0,0,0,8.52.66l8.54.43,8.55-.44a57.8,57.8,0,0,0,8.52-.68,151.64,151.64,0,0,0,63.73-22.89c2.38-1.56,4.6-3.37,6.91-5s4.71-3.22,6.81-5.16l6.34-5.76a52.85,52.85,0,0,0,6.21-6.06c3.89-4.46,8.06-8.69,11.79-13.27L521.46,369a192.72,192.72,0,0,0,5.63-201.9l-4.49-7.64-1.11-1.91-1.32-1.78-2.64-3.56L512.28,145c-.89-1.17-1.68-2.43-2.66-3.54l-3-3.28-6-6.58a78.29,78.29,0,0,0-6.17-6.5l-6.62-6.3-6.91-6A247.35,247.35,0,0,0,207.48,83.11a270.8,270.8,0,0,0-30.91,19.26A267.19,267.19,0,0,0,148.8,126a314.13,314.13,0,0,0-46.4,58.13,305.06,305.06,0,0,0-31.5,67.34A311.62,311.62,0,0,0,56.08,324.4a317.67,317.67,0,0,0,2.57,74.39c1.08,6.12,1.94,12.28,3.41,18.32l2,9.11,2.58,8.95c3.56,11.92,8.28,23.37,11.83,35.31a324.88,324.88,0,0,0,31.1,68.64c3.28,5.45,6.87,10.71,10.36,16.09,3.84,5.14,7.32,10.38,11.49,15.53,8.46,10,16.53,21.24,24.62,32.17l48.57,65.66c16,22,32.1,43.89,47.85,66-20-18.41-39.6-37.1-59.37-55.61l-58.65-56c-9.82-9.3-19.3-18.67-29.78-27.92-5.13-4.65-10.09-10-15.17-15-4.78-5.3-9.69-10.56-14.31-16.07a373.54,373.54,0,0,1-47.61-72.69,195.32,195.32,0,0,1-8.3-20.29c-2.14-7-4.29-14-6-21.1l-2.69-10.61L8.27,428.65c-1.7-7.1-2.75-14.33-4-21.52a372.65,372.65,0,0,1-3-87.27,366.54,366.54,0,0,1,17.41-85.6,359.64,359.64,0,0,1,37-79.16A369.21,369.21,0,0,1,110.2,86.82,323.13,323.13,0,0,1,144.1,58a328.79,328.79,0,0,1,37.84-23.57A302.39,302.39,0,0,1,516.39,70.79a259.31,259.31,0,0,1,58.3,68.69,247.84,247.84,0,0,1-7.32,259.82l-13.51,18.38c-4.78,5.89-10.06,11.37-15.11,17a87.89,87.89,0,0,1-8.26,8.09l-8.7,7.83c-2.91,2.6-6.2,4.74-9.3,7.11s-6.26,4.7-9.52,6.84a206.84,206.84,0,0,1-87.48,31.47c-62,7.49-127.25-15.47-170.25-61.38l-8.09-9c-2.49-3.17-4.85-6.47-7.25-9.72-1.16-1.64-2.42-3.23-3.5-4.93l-3.11-5.21c-2-3.52-4.27-6.89-6-10.56a174.84,174.84,0,0,1-15.46-45.79,168.64,168.64,0,0,1,10.17-95A180.06,180.06,0,0,1,236.85,213l8.09-9c1.4-1.48,2.63-3,4.18-4.43l4.65-4.23,4.69-4.2c1.62-1.34,3.35-2.54,5-3.81a99.44,99.44,0,0,1,10.4-7.11,139.71,139.71,0,0,1,144-1.62,90,90,0,0,1,10.59,6.86c3.35,2.53,6.9,4.84,9.92,7.76s6.27,5.44,9.25,8.66l4.43,4.89,2.19,2.47,2,2.65a123,123,0,0,1,22.11,47.69c4,17.17,4,35.54-1.1,52.52a112.58,112.58,0,0,1-26.17,45l-4.59,4.54a51.16,51.16,0,0,1-4.88,4.39l-5.26,4.21-5.62,3.7a89.72,89.72,0,0,1-24.33,10.75,100.44,100.44,0,0,1-12.87,2.69,103.4,103.4,0,0,1-13,.68,89.25,89.25,0,0,1-66.8-30.92,71,71,0,0,1-17-46,66.59,66.59,0,0,1,16.13-43.67A57,57,0,0,1,331,253.32a51.28,51.28,0,0,1,21.8-5.14,49.81,49.81,0,0,1,21.05,4.63A47,47,0,0,1,390.16,265.55Z"/><path class="cls-1" d="M774.46,265.55a47.07,47.07,0,0,1,16.27-12.74,49.81,49.81,0,0,1,21-4.63,51.28,51.28,0,0,1,21.8,5.14,57,57,0,0,1,18.12,14.13,66.48,66.48,0,0,1,16.13,43.67,70.87,70.87,0,0,1-17,46A89.25,89.25,0,0,1,784.05,388a103.46,103.46,0,0,1-13-.68,100.44,100.44,0,0,1-12.87-2.69,89.79,89.79,0,0,1-24.32-10.75l-5.63-3.7L723,366a52.4,52.4,0,0,1-4.88-4.39l-4.59-4.54a112.45,112.45,0,0,1-26.16-45c-5.16-17-5.14-35.35-1.11-52.52a123,123,0,0,1,22.12-47.69l2-2.65,2.19-2.47,4.43-4.89c3-3.22,6.15-5.78,9.26-8.66s6.56-5.23,9.91-7.76a90,90,0,0,1,10.59-6.86,139.15,139.15,0,0,1,144,1.62,100.64,100.64,0,0,1,10.41,7.11c1.68,1.27,3.41,2.47,5,3.81l4.69,4.2,4.65,4.23c1.56,1.42,2.78,2.95,4.18,4.43l8.09,9a180.06,180.06,0,0,1,24.81,41.5,168.64,168.64,0,0,1,10.17,95,174.11,174.11,0,0,1-15.46,45.79c-1.68,3.67-4,7-5.95,10.56L938.23,411c-1.08,1.7-2.34,3.29-3.51,4.93-2.4,3.25-4.75,6.55-7.24,9.72l-8.1,9c-43,45.91-108.22,68.87-170.24,61.38a206.74,206.74,0,0,1-87.48-31.47c-3.27-2.14-6.35-4.55-9.52-6.84s-6.4-4.51-9.31-7.11l-8.69-7.83a86.82,86.82,0,0,1-8.27-8.09c-5-5.67-10.33-11.15-15.11-17l-13.5-18.38a247.69,247.69,0,0,1-7.32-259.82,259.09,259.09,0,0,1,58.29-68.69A302.39,302.39,0,0,1,982.68,34.38,328.79,328.79,0,0,1,1020.52,58a322.11,322.11,0,0,1,33.9,28.87,369.21,369.21,0,0,1,54.52,68.28,359.68,359.68,0,0,1,37,79.16,367,367,0,0,1,17.4,85.6,372.11,372.11,0,0,1-3,87.27c-1.24,7.19-2.3,14.42-4,21.52L1154,439.34,1151.3,450c-1.67,7.12-3.83,14.1-6,21.1a197.48,197.48,0,0,1-8.29,20.29A373.59,373.59,0,0,1,1089.42,564c-4.62,5.51-9.53,10.77-14.31,16.07-5.07,5-10,10.35-15.17,15-10.47,9.25-20,18.62-29.77,27.92l-58.65,56c-19.78,18.51-39.39,37.2-59.38,55.61,15.75-22.15,31.89-44,47.85-66l48.57-65.66c8.1-10.93,16.16-22.13,24.63-32.17,4.17-5.15,7.65-10.39,11.49-15.53,3.48-5.38,7.07-10.64,10.35-16.09a323.88,323.88,0,0,0,31.1-68.64c3.55-11.94,8.27-23.39,11.83-35.31l2.59-8.95,2-9.11c1.47-6,2.34-12.2,3.41-18.32a316.59,316.59,0,0,0,2.57-74.39,311.62,311.62,0,0,0-14.82-72.91,305.48,305.48,0,0,0-31.49-67.34A314.19,314.19,0,0,0,1015.82,126a268.13,268.13,0,0,0-27.76-23.65,272.56,272.56,0,0,0-30.91-19.26,247.34,247.34,0,0,0-273.49,29.77l-6.92,6-6.62,6.3a78.29,78.29,0,0,0-6.17,6.5l-6,6.58-3,3.28c-1,1.11-1.77,2.37-2.66,3.54l-5.24,7.15-2.64,3.56-1.33,1.78L642,159.44l-4.49,7.64A192.72,192.72,0,0,0,643.16,369l10.51,14.27c3.73,4.58,7.91,8.81,11.79,13.27a53.64,53.64,0,0,0,6.21,6.06l6.34,5.76c2.1,1.94,4.56,3.41,6.81,5.16s4.53,3.46,6.91,5a151.69,151.69,0,0,0,63.73,22.89,57.91,57.91,0,0,0,8.52.68l8.55.44,8.54-.43a62.33,62.33,0,0,0,8.53-.66c5.62-.92,11.34-1.34,16.82-3l8.31-2,8-2.84c10.82-3.6,20.85-9.11,30.57-15,2.4-1.53,4.6-3.36,6.92-5s4.69-3.24,6.82-5.14l6.34-5.76a54.15,54.15,0,0,0,6-5.86l5.5-6.05,4.83-6.56c.79-1.1,1.68-2.14,2.39-3.29l2.05-3.52c1.3-2.38,2.94-4.57,4-7.07a119.29,119.29,0,0,0,10.38-30.75,113.55,113.55,0,0,0-6.83-64,125.48,125.48,0,0,0-16.64-27.86c-7.31-8.45-14.58-15.43-23.32-20.76a84.8,84.8,0,0,0-28.29-11.14,86.11,86.11,0,0,0-30.5-.25A85.06,85.06,0,0,0,774.5,226a45.48,45.48,0,0,0-6.4,4.15c-2,1.58-4.24,2.85-6,4.71s-4,3.39-5.55,5.16l-2.37,2.63L753,244l-1,1.44a59.15,59.15,0,0,0-11.43,25.33c-.38,2.3-.5,4.65-.77,7v3.5a20.33,20.33,0,0,0,0,3.49c.22,2.31.1,4.65.52,6.94l.32,3.48c.24,1.14.41,2.29.59,3.45a62.87,62.87,0,0,0,10.29,26.6c3,4.07,5.67,7.83,9.22,10.7a46.29,46.29,0,0,0,11.61,7.65,58.73,58.73,0,0,0,6.64,2.7,62.07,62.07,0,0,0,7.11,1.59,48.39,48.39,0,0,0,14.87.28A56.23,56.23,0,0,0,829.23,336a44.06,44.06,0,0,0,15.51-26.45,47,47,0,0,0-6-32.54,43.12,43.12,0,0,0-11.38-13.22,41.16,41.16,0,0,0-16.39-7.4A45,45,0,0,0,774.46,265.55Z"/><path class="cls-1" d="M622.6,660.09a49.68,49.68,0,0,0-33.22,17.47,44.92,44.92,0,0,0-10.31,33.15,64.2,64.2,0,0,0,4.23,16.81,55.47,55.47,0,0,0,9,14.22A49.4,49.4,0,0,0,604.8,752.2a47.57,47.57,0,0,0,14.66,5.88,49.83,49.83,0,0,0,15.27,1c2.59-.33,5.31-.7,7.88-1.23a66.42,66.42,0,0,0,7.57-2.19l3.66-1.31,3.5-1.7c2.38-1,4.45-2.58,6.67-3.79a61.53,61.53,0,0,0,11.36-9.94,57.91,57.91,0,0,0,13.39-25.52c2.39-9.21,1.66-18.38-.48-28.32-2.19-9.65-6.58-18.36-11.68-26.33s-11-15.65-18.69-21.49a69.57,69.57,0,0,0-25.84-12.06,68.8,68.8,0,0,0-14.25-1.88,52.5,52.5,0,0,0-7.58.15,47.34,47.34,0,0,0-7.72.69,90,90,0,0,0-29.47,8.92,96.1,96.1,0,0,0-25.26,17.73c-14.64,14.58-24.94,33.65-27.84,54.12-1.05,5.08-1,10.27-1.29,15.48l.44,8.2.18,4.1c.13,1.36.41,2.7.6,4l1.22,8.09c.49,2.69,1.34,5.29,2,7.94,1.07,5.37,3.33,10.36,5.09,15.52,4.37,10,9.39,19.75,16.21,28.33,3,4.55,7,8.4,10.58,12.49,1.77,2.1,4,3.72,6,5.62s3.91,3.84,6.21,5.35l6.56,4.91c2.13,1.72,4.63,2.88,6.91,4.37,4.54,3.08,9.59,5.19,14.47,7.62,2.4,1.31,5.09,1.93,7.61,3,2.59.84,5,2.12,7.73,2.64,5.3,1.27,10.51,3,16,3.5,2.71.35,5.38,1,8.11,1.15l8.2.39c1.37.07,2.72.19,4.11.21l4.27-.24,8.55-.43c1.42-.08,2.85-.09,4.27-.22l4.22-.67,8.44-1.28c1.4-.24,2.83-.34,4.21-.68l4.12-1.09,8.27-2.12a165,165,0,0,0,59.92-31.76,168.22,168.22,0,0,0,42.19-53.17,166,166,0,0,0,17.5-65.46l.45-8.55c.1-2.87-.11-5.87-.14-8.8s-.28-5.88-.5-8.82-.39-5.87-.84-8.78a201.92,201.92,0,0,0-7-34.54c-12.84-45.25-41.49-85.78-79.42-113.66A214.22,214.22,0,0,0,593,465.89a250.3,250.3,0,0,0-70.42,11.39A235.38,235.38,0,0,0,459.12,509a246,246,0,0,0-51.54,49.13,255.6,255.6,0,0,0-35.28,62.2A244.51,244.51,0,0,0,360,761a244.29,244.29,0,0,0,24.6,66.93c2.73,5.31,6,10.07,8.92,15.16,1.31,2.41,3.53,5.29,5.34,8l5.7,8.14,22.79,32.58c30.46,43.39,60.65,87,91.31,130.21,7.81,10.71,16,21.18,22.83,32.55L562,1088.71l40.88,68.45-30.66-1c13.12-14.24,26.24-28.47,39.54-42.57l39.75-42.41Q671.27,1050,691.4,1029l40.21-42-32,48.57q-16,24.27-32.29,48.35L634.81,1132c-10.78,16.1-21.74,32.07-32.7,48L588.43,1200l-17-20.88-50.4-62-25.16-31c-8.34-10.38-15.4-21.65-22.81-32.68-30.19-43.72-60.85-87.13-91.25-130.71L359,890l-5.71-8.16c-1.91-2.82-3.79-5.18-5.74-8.56-3.76-6.36-7.93-12.64-11.29-19.11a299.37,299.37,0,0,1-15.12-254,310.32,310.32,0,0,1,43-75.8,300.8,300.8,0,0,1,63.27-60.32,290.48,290.48,0,0,1,78.38-39.2,305.2,305.2,0,0,1,86.21-14,269.24,269.24,0,0,1,165.91,52.35C805.5,498.18,841.4,549,857.6,606a257,257,0,0,1,8.75,43.4c.53,3.66.78,7.34,1,11s.6,7.36.63,11,.28,7.34.18,11.09l-.55,11.33A221,221,0,0,1,708.49,893.93l-11,2.84L692,898.16c-1.84.44-3.73.63-5.59,1l-11.24,1.71-5.61.84c-1.89.17-3.78.23-5.66.34l-11.34.58-5.66.26c-1.93,0-3.89-.16-5.83-.24L629.35,902c-3.88-.29-7.73-1-11.59-1.59-7.78-.9-15.3-3.11-22.87-5-3.83-.85-7.4-2.51-11.1-3.75-3.64-1.43-7.43-2.5-10.91-4.29-7-3.38-14.19-6.58-20.73-10.87-3.29-2.1-6.78-3.9-9.87-6.29l-9.38-7c-3.21-2.23-5.95-5-8.88-7.61s-5.9-5.12-8.48-8c-5.26-5.77-10.68-11.39-15.15-17.82-9.62-12.31-17-26.24-23.15-40.57-2.66-7.35-5.68-14.59-7.35-22.25-.93-3.79-2.05-7.55-2.77-11.38l-1.78-11.58c-.27-1.94-.62-3.86-.81-5.8l-.32-5.84-.56-11.68c.29-8,.44-16.16,2-24.14,4.69-32.17,20.73-62.28,43.72-85a150.93,150.93,0,0,1,39.57-27.83,144.76,144.76,0,0,1,46.35-14,90.68,90.68,0,0,1,12.08-1.09,96.34,96.34,0,0,1,12.3-.2,123.34,123.34,0,0,1,25.12,3.33,128.36,128.36,0,0,1,45.85,21.17c13.69,9.87,26,22.2,34.44,37s13.06,31.6,14.43,48.24c1.26,16.26-.34,34.38-7.11,50.22a100.69,100.69,0,0,1-50.75,53.41c-3.83,1.51-7.5,3.32-11.47,4.35l-5.85,1.73-6,1.18c-3.94.92-8,1-12,1.39-4,.14-8,0-12-.19a79.94,79.94,0,0,1-23.8-5.68A74.19,74.19,0,0,1,590.12,772a72.57,72.57,0,0,1-15.24-17.79A75.31,75.31,0,0,1,566,733a74.39,74.39,0,0,1-1.69-22.39,56.14,56.14,0,0,1,19.74-38.4A52,52,0,0,1,622.6,660.09Z"/></svg>