<svg id="Layer_1" data-name="Layer 1" xmlns="http://www.w3.org/2000/svg" viewBox="0 0 1200 1004.12"><defs><style>.cls-1{fill:#71bed3;}.cls-2{fill:#87725e;}.cls-3{fill:#7fae65;}.cls-4{fill:#3e3b39;}</style></defs><path class="cls-1" d="M720,15q3.6,1.09,7.17,2.27Q723.55,16.14,720,15Z"/><path class="cls-1" d="M976.24,361.47a362.75,362.75,0,0,0-10.82-88.21,364.84,364.84,0,0,1,10.82,88.41Z"/><path class="cls-1" d="M711.2,12.49q3.85,1.06,7.68,2.22Q715.06,13.56,711.2,12.49Z"/><path class="cls-1" d="M976.07,372.64c-.05,1.54-.11,3.07-.17,4.6C976,375.71,976,374.18,976.07,372.64Z"/><path class="cls-1" d="M960.85,256.7c.77,2.53,1.5,5.08,2.21,7.64C962.35,261.78,961.62,259.23,960.85,256.7Z"/><path class="cls-1" d="M942,207.47c1,2.16,2,4.32,3,6.5Q943.47,210.7,942,207.47Z"/><path class="cls-1" d="M976.24,362.12c0,2.49,0,5-.09,7.47C976.2,367.11,976.24,364.62,976.24,362.12Z"/><path class="cls-1" d="M963.24,265q1.13,4.1,2.16,8.22C964.71,270.42,964,267.69,963.24,265Z"/><path class="cls-1" d="M952.43,232.06q1.22,3.16,2.37,6.36Q953.65,235.23,952.43,232.06Z"/><path class="cls-1" d="M745.45,23.88q3.13,1.22,6.27,2.51C749.64,25.53,747.54,24.7,745.45,23.88Z"/><path class="cls-1" d="M737.11,20.75c2.14.77,4.28,1.57,6.41,2.38Q740.33,21.92,737.11,20.75Z"/><path class="cls-1" d="M955.46,240.25c.78,2.22,1.55,4.44,2.29,6.68C957,244.69,956.24,242.47,955.46,240.25Z"/><path class="cls-1" d="M958.26,248.46q1.15,3.56,2.25,7.12C959.78,253.2,959,250.82,958.26,248.46Z"/><path class="cls-1" d="M945.7,215.67q1.37,3.12,2.67,6.25Q947.07,218.79,945.7,215.67Z"/><path class="cls-1" d="M728.6,17.8q3.38,1.13,6.73,2.31C733.1,19.32,730.85,18.55,728.6,17.8Z"/><path class="cls-1" d="M769.31,34.18q3.54,1.68,7,3.43Q772.85,35.85,769.31,34.18Z"/><path class="cls-1" d="M975.49,385c0-.27,0-.54,0-.81C975.52,384.44,975.51,384.71,975.49,385Z"/><path class="cls-1" d="M937.66,198.64A363.77,363.77,0,0,0,776.88,37.88,366.15,366.15,0,0,1,937.66,198.64Z"/><path class="cls-1" d="M614.09-.69h-.21a364.45,364.45,0,0,1,88.43,10.82A362.84,362.84,0,0,0,614.09-.69Z"/><path class="cls-1" d="M949.18,223.87q1.27,3.09,2.49,6.21Q950.46,227,949.18,223.87Z"/><path class="cls-1" d="M702.36,10.16c2.76.69,5.52,1.41,8.26,2.17Q706.51,11.19,702.36,10.16Z"/><path class="cls-1" d="M381.05,88.61a109.22,109.22,0,0,1,16.63-7.21h0q2.58-.87,5.19-1.6l1.57-.43c1.28-.34,2.57-.67,3.86-1,.54-.12,1.08-.25,1.62-.36,1.62-.35,3.24-.67,4.86-1l.48-.08c1.78-.3,3.57-.54,5.36-.74l1.56-.16c1.32-.14,2.65-.25,4-.33l1.68-.11c1.54-.08,3.08-.12,4.63-.14h1c1.26,0,2.51.06,3.76.1.66,0,1.32,0,2,.05,1,0,1.93.15,2.9.23s2,.13,3,.23a107.93,107.93,0,0,1,28.85,7.32A111.11,111.11,0,0,1,484.7,88.5q2.63,1.41,5.15,3l5,3.14,4.72,3.6c.6.47,1.21.92,1.81,1.38.45.33.87.7,1.3,1s1,.81,1.52,1.26l2.15,2,2.16,2a49.22,49.22,0,0,1,4.2,4.22c1.34,1.49,2.64,3,4,4.56a28.65,28.65,0,0,1,1.83,2.4c.59.82,1.15,1.66,1.75,2.47a46.57,46.57,0,0,1,3.3,5l1.48,2.63,1.49,2.63c.91,1.8,1.66,3.66,2.49,5.49l1.21,2.76,1,2.86c.61,1.91,1.28,3.8,1.83,5.72a99.32,99.32,0,0,1,2.27,11.77,88.18,88.18,0,0,1,.76,11.93,90.13,90.13,0,0,1-3.47,23.5,84.31,84.31,0,0,1-4,11.15A80.34,80.34,0,0,1,523,215.5q-.74,1.29-1.56,2.52c-1.65,2.45-3.53,4.73-5.31,7.09-1.23,1.52-2.65,2.89-4,4.34a42.56,42.56,0,0,1-4.22,4.16c-1.54,1.29-3,2.71-4.61,3.86l-4.92,3.47-5.23,3c-1.75,1-3.64,1.68-5.45,2.51s-3.4,1.29-5.12,1.85l-.81.26q-2.47.76-5,1.34l-1,.22c-1.7.36-3.41.68-5.13.92l-.72.09c-1.73.22-3.46.39-5.2.49l-.32,0c-1.18.06-2.37.1-3.56.1-.44,0-.87,0-1.31,0-.71,0-1.41,0-2.12-.08-1.17-.06-2.33-.15-3.5-.26-.69-.07-1.37-.14-2.06-.23-1.24-.16-2.48-.38-3.71-.61-.58-.11-1.17-.2-1.75-.33-1.79-.39-3.58-.83-5.34-1.37a69.73,69.73,0,0,1-21-10.54,57.65,57.65,0,0,1-4.57-3.66l-4.26-4c-1.31-1.51-2.65-3-3.9-4.53s-2.36-3.22-3.38-4.93a54.9,54.9,0,0,1-1.32-55.69c.6-1.06,1.23-2.11,1.89-3.13a54.47,54.47,0,0,1,5.34-6.92,46.23,46.23,0,0,1,4.15-4.13,42.93,42.93,0,0,1,15.29-8.78h0c1-.35,2.07-.64,3.12-.91.34-.09.68-.15,1-.23.72-.16,1.44-.31,2.17-.44l1.2-.18c.68-.1,1.37-.18,2.06-.24l1.22-.11c.71,0,1.42-.07,2.13-.08.27,0,.53,0,.8,0h.26c1.37,0,2.75.09,4.12.22l.86.09c1.41.16,2.81.37,4.19.65a46.49,46.49,0,0,1,10.91,4,44.36,44.36,0,0,1,4.94,3,39.45,39.45,0,0,1,4.46,3.68,32.81,32.81,0,0,1,5.7,6.62A35.79,35.79,0,0,1,483.86,172a35.27,35.27,0,0,1-3.78,22.41,35.78,35.78,0,0,1-7.13,8.92A27.34,27.34,0,0,1,463,209a24.21,24.21,0,0,1-2.5.66l-.73.15c-.65.12-1.29.21-1.94.29l-.69.08c-.82.07-1.64.12-2.46.12h-.08c-.35,0-.69-.06-1-.07v-4.1c-.2,0-.41,0-.61,0h.61c.17,0,.35,0,.52,0l.85,0c.48,0,1-.07,1.44-.13l.83-.11c.5-.08,1-.18,1.51-.3l.7-.15c.72-.19,1.44-.41,2.14-.67a23,23,0,0,0,8.06-5.05,31.66,31.66,0,0,0,3.16-3.67c.47-.65.93-1.33,1.35-2s.82-1.4,1.18-2.11a29.31,29.31,0,0,0,1.75-4.5c.22-.77.42-1.55.59-2.33a29.37,29.37,0,0,0,.42-9.53c-.1-.79-.23-1.58-.39-2.35a28.22,28.22,0,0,0-9.64-15.9,33.13,33.13,0,0,0-5.88-4.13,36,36,0,0,0-4.32-2,39.28,39.28,0,0,0-6.85-2h0c-.91-.14-1.82-.24-2.74-.33l-.85-.05c-.65,0-1.31-.07-2-.08h-.89c-.84,0-1.67.05-2.51.11l-.38,0c-.95.08-1.89.21-2.83.37l-.76.15c-.71.14-1.42.3-2.12.49l-.8.21c-.91.27-1.82.57-2.71.92a32,32,0,0,0-6.26,3.1,34.66,34.66,0,0,0-3.74,2.76c-.59.5-1.17,1-1.73,1.57a37.69,37.69,0,0,0-3.2,3.47,44.84,44.84,0,0,0-5.25,7.88,42.86,42.86,0,0,0-4.85,21.86,42.29,42.29,0,0,0,.4,4.36,44,44,0,0,0,1.18,5.7,42.42,42.42,0,0,0,5.77,12.56c.42.64.88,1.25,1.36,1.85s.95,1.21,1.41,1.82c1,1.16,2.11,2.24,3.14,3.36l3.58,3.1a21.23,21.23,0,0,0,2.52,1.89c.43.29.87.58,1.29.89a55.46,55.46,0,0,0,17,7.65c1.35.36,2.72.63,4.09.87l1.16.19c1.09.16,2.18.3,3.27.39l1,.09c1.38.1,2.76.14,4.13.13l.73,0c1.21,0,2.41-.09,3.61-.19l.78-.06c1.34-.14,2.67-.33,4-.56l.86-.16c1.21-.24,2.42-.5,3.61-.82l.5-.12c1.3-.36,2.58-.77,3.85-1.21l.88-.33c1.28-.47,2.54-1,3.77-1.54h0c.68-.35,1.37-.68,2.06-1a19.58,19.58,0,0,0,2-1.08l3.88-2.42,3.62-2.8c1.21-.91,2.23-2.07,3.36-3.08a31.26,31.26,0,0,0,3.16-3.41c1-1.21,2.1-2.33,3-3.59.44-.65.89-1.29,1.34-1.93a44,44,0,0,0,3.75-5.91c.79-1.35,1.51-2.73,2.19-4.13s1.29-2.82,1.86-4.26A68.56,68.56,0,0,0,516,177.54q.24-3.47.15-6.92a68.26,68.26,0,0,0-1-9.15,79.2,79.2,0,0,0-2.11-8.92c-.49-1.45-1.08-2.86-1.6-4.29l-.8-2.13-1-2c-.69-1.36-1.3-2.75-2-4.07l-2.42-3.85a18.67,18.67,0,0,0-1.72-2.49l-.93-1.2c-.32-.39-.62-.79-.92-1.2a25,25,0,0,0-1.91-2.34,68.54,68.54,0,0,0-6.55-6.41l-3.54-3.06a18.05,18.05,0,0,0-1.85-1.41c-.64-.44-1.3-.86-1.92-1.32L482,114.06,478,111.79a84.38,84.38,0,0,0-35.16-10.41c-1.62-.09-3.25-.14-4.87-.14q-2.15,0-4.26.09l-.55,0c-1.25.07-2.49.16-3.74.28l-1.44.17c-.95.11-1.89.22-2.83.36l-1.63.27c-.87.14-1.75.3-2.62.48-.55.11-1.1.22-1.65.35-.88.19-1.74.4-2.6.62-.53.13-1.06.26-1.58.41-.93.25-1.85.53-2.78.82l-1.31.41c-1.35.45-2.69.92-4,1.43a82.56,82.56,0,0,0-12.22,5.94c-1.3.76-2.57,1.57-3.82,2.4a82,82,0,0,0-10.31,8.16q-.61.57-1.2,1.17l-.76.73h0l-.28.28c-.21.21-.42.41-.62.62-3.07,3.07-6.05,6.21-9,9.37a332.71,332.71,0,0,0-88,240.39l115.46-87.67,84.55,63.41,133-165,133,165,84.54-63.41L946.77,376c3.82-90.08-28.57-181.42-97.19-250A334.27,334.27,0,0,0,459.26,66.24a117.48,117.48,0,0,0-12.87-2.14,123,123,0,0,0-43.57,3.2,364.87,364.87,0,0,0-41.25,34.58,111.75,111.75,0,0,1,14.21-10.27Q378.38,90,381.05,88.61Z"/><path class="cls-1" d="M753.6,27.17c2.11.88,4.22,1.78,6.31,2.7C757.82,29,755.71,28.05,753.6,27.17Z"/><path class="cls-1" d="M938,199.25q1.74,3.47,3.4,7Q939.7,202.7,938,199.25Z"/><path class="cls-1" d="M761.56,30.61q3.29,1.47,6.56,3C765.94,32.59,763.76,31.59,761.56,30.61Z"/><path class="cls-2" d="M741.76,391.77,613.78,233l-128,158.8-89.44-67.08L284,410q1.13,7.74,2.6,15.42c84.65-11.31,160.19-2.11,224.51,27.4,37.8,17.34,63.45,37.51,85.95,55.51a405,405,0,0,1,342.74-76.86Q942,420.82,943.61,410L831.2,324.69Z"/><path class="cls-3" d="M620.59,526.81c18.12,13.54,37,25.27,63.13,34.22,59.26,20.31,129,15.57,207.4-14.06a330.73,330.73,0,0,0,41.39-87.4,375.72,375.72,0,0,0-311.92,67.24Z"/><path class="cls-3" d="M674.32,588.46c-41.27-14.14-66.62-34.43-93.46-55.92-22.72-18.19-46.22-37-81.87-53.36-58.53-26.84-127.72-35.34-205.66-25.36A331.4,331.4,0,0,0,378,597.58c130,130,341.58,130,471.6,0q4.62-4.64,9-9.4Q807.4,602.4,761,602.41,715.09,602.41,674.32,588.46Z"/><path class="cls-4" d="M759.91,29.87l1.65.74Z"/><path class="cls-4" d="M751.72,26.39c.63.25,1.25.52,1.88.78C753,26.91,752.35,26.64,751.72,26.39Z"/><path class="cls-4" d="M768.12,33.61l1.19.57Z"/><path class="cls-4" d="M402.09,67.48l.73-.18A360.35,360.35,0,0,1,602.92-.51,359.4,359.4,0,0,0,402.09,67.48Z"/><path class="cls-4" d="M702.31,10.14l.05,0Z"/><path class="cls-4" d="M743.52,23.13l1.93.75Z"/><path class="cls-4" d="M735.33,20.11l1.78.64Z"/><path class="cls-4" d="M710.62,12.33l.58.16Z"/><path class="cls-4" d="M727.12,17.31l1.48.49Z"/><path class="cls-4" d="M718.88,14.71,720,15Z"/><path class="cls-4" d="M976.24,361.78v0Z"/><path class="cls-4" d="M963.06,264.34l.18.62Z"/><path class="cls-4" d="M965.4,273.18l0,.08Z"/><path class="cls-4" d="M957.75,246.93l.51,1.53Z"/><path class="cls-4" d="M960.51,255.58c.11.37.23.74.34,1.12C960.74,256.32,960.62,256,960.51,255.58Z"/><path class="cls-4" d="M976.15,369.59c0,1,0,2-.08,3.05C976.1,371.63,976.13,370.61,976.15,369.59Z"/><path class="cls-4" d="M975.9,377.24q-.15,3.48-.36,6.93C975.68,381.86,975.8,379.56,975.9,377.24Z"/><path class="cls-4" d="M944.94,214c.25.56.5,1.13.76,1.7C945.44,215.1,945.19,214.53,944.94,214Z"/><path class="cls-4" d="M941.36,206.21l.6,1.26Z"/><path class="cls-4" d="M954.8,238.42l.66,1.83Z"/><path class="cls-4" d="M937.66,198.64l.3.61Z"/><path class="cls-4" d="M776.34,37.61l.54.27Z"/><path class="cls-4" d="M951.67,230.08l.76,2Z"/><path class="cls-4" d="M948.37,221.92q.42,1,.81,2Q948.79,222.9,948.37,221.92Z"/><path class="cls-4" d="M965.42,273.26l0-.08q-1-4.12-2.16-8.22l-.18-.62c-.71-2.56-1.44-5.11-2.21-7.64-.11-.38-.23-.75-.34-1.12q-1.1-3.57-2.25-7.12l-.51-1.53c-.74-2.24-1.51-4.46-2.29-6.68l-.66-1.83q-1.15-3.19-2.37-6.36l-.76-2q-1.21-3.12-2.49-6.21-.39-1-.81-2-1.3-3.13-2.67-6.25c-.26-.57-.51-1.14-.76-1.7-1-2.18-2-4.34-3-6.5l-.6-1.26q-1.67-3.5-3.4-7l-.3-.61A366.15,366.15,0,0,0,776.88,37.88l-.54-.27q-3.5-1.76-7-3.43l-1.19-.57q-3.27-1.53-6.56-3l-1.65-.74c-2.09-.92-4.2-1.82-6.31-2.7-.63-.26-1.25-.53-1.88-.78q-3.13-1.29-6.27-2.51l-1.93-.75c-2.13-.81-4.27-1.61-6.41-2.38l-1.78-.64Q732,18.93,728.6,17.8l-1.48-.49Q723.55,16.14,720,15l-1.07-.33q-3.82-1.16-7.68-2.22l-.58-.16c-2.74-.76-5.5-1.48-8.26-2.17l-.05,0A364.45,364.45,0,0,0,613.88-.68h-.69c-1.72,0-3.43,0-5.15.05l-2.83.05-2.29.07A360.35,360.35,0,0,0,402.82,67.3a123,123,0,0,1,43.57-3.2,117.48,117.48,0,0,1,12.87,2.14A334.27,334.27,0,0,1,849.58,126c68.62,68.63,101,160,97.19,250L831.31,288.36l-84.54,63.41-133-165-133,165-84.55-63.41L280.78,376a332.71,332.71,0,0,1,88-240.39c2.92-3.16,5.9-6.3,9-9.37.2-.21.41-.41.62-.62l.28-.28h0l.76-.73q.58-.6,1.2-1.17a82,82,0,0,1,10.31-8.16c1.25-.83,2.52-1.64,3.82-2.4A82.56,82.56,0,0,1,406.92,107c1.32-.51,2.66-1,4-1.43l1.31-.41c.93-.29,1.85-.57,2.78-.82.52-.15,1.05-.28,1.58-.41.86-.22,1.72-.43,2.6-.62.55-.13,1.1-.24,1.65-.35.87-.18,1.75-.34,2.62-.48l1.63-.27c.94-.14,1.88-.25,2.83-.36l1.44-.17c1.25-.12,2.49-.21,3.74-.28l.55,0q2.11-.1,4.26-.09c1.62,0,3.25.05,4.87.14A84.38,84.38,0,0,1,478,111.79l4.06,2.27,3.81,2.68c.62.46,1.28.88,1.92,1.32a18.05,18.05,0,0,1,1.85,1.41l3.54,3.06a68.54,68.54,0,0,1,6.55,6.41,25,25,0,0,1,1.91,2.34c.3.41.6.81.92,1.2l.93,1.2a18.67,18.67,0,0,1,1.72,2.49l2.42,3.85c.74,1.32,1.35,2.71,2,4.07l1,2,.8,2.13c.52,1.43,1.11,2.84,1.6,4.29a79.2,79.2,0,0,1,2.11,8.92,68.26,68.26,0,0,1,1,9.15q.09,3.45-.15,6.92a68.56,68.56,0,0,1-4.54,20.29q-.85,2.16-1.86,4.26c-.68,1.4-1.4,2.78-2.19,4.13a44,44,0,0,1-3.75,5.91c-.45.64-.9,1.28-1.34,1.93-.92,1.26-2,2.38-3,3.59a31.26,31.26,0,0,1-3.16,3.41c-1.13,1-2.15,2.17-3.36,3.08l-3.62,2.8-3.88,2.42a19.58,19.58,0,0,1-2,1.08c-.69.33-1.38.66-2.06,1h0c-1.23.56-2.49,1.07-3.77,1.54l-.88.33c-1.27.44-2.55.85-3.85,1.21l-.5.12c-1.19.32-2.4.58-3.61.82l-.86.16c-1.32.23-2.65.42-4,.56l-.78.06c-1.2.1-2.4.17-3.61.19l-.73,0c-1.37,0-2.75,0-4.13-.13l-1-.09c-1.09-.09-2.18-.23-3.27-.39l-1.16-.19c-1.37-.24-2.74-.51-4.09-.87a55.46,55.46,0,0,1-17-7.65c-.42-.31-.86-.6-1.29-.89a21.23,21.23,0,0,1-2.52-1.89l-3.58-3.1c-1-1.12-2.13-2.2-3.14-3.36-.46-.61-.94-1.21-1.41-1.82s-.94-1.21-1.36-1.85a42.42,42.42,0,0,1-5.77-12.56,44,44,0,0,1-1.18-5.7,42.29,42.29,0,0,1-.4-4.36,42.86,42.86,0,0,1,4.85-21.86,44.84,44.84,0,0,1,5.25-7.88,37.69,37.69,0,0,1,3.2-3.47c.56-.54,1.14-1.07,1.73-1.57a34.66,34.66,0,0,1,3.74-2.76,32,32,0,0,1,6.26-3.1c.89-.35,1.8-.65,2.71-.92l.8-.21c.7-.19,1.41-.35,2.12-.49l.76-.15c.94-.16,1.88-.29,2.83-.37l.38,0c.84-.06,1.67-.1,2.51-.11h.89c.66,0,1.32,0,2,.08l.85.05c.92.09,1.83.19,2.74.33h0a39.28,39.28,0,0,1,6.85,2,36,36,0,0,1,4.32,2,33.13,33.13,0,0,1,5.88,4.13,28.22,28.22,0,0,1,9.64,15.9c.16.77.29,1.56.39,2.35a29.37,29.37,0,0,1-.42,9.53c-.17.78-.37,1.56-.59,2.33a29.31,29.31,0,0,1-1.75,4.5c-.36.71-.76,1.42-1.18,2.11s-.88,1.36-1.35,2a31.66,31.66,0,0,1-3.16,3.67,23,23,0,0,1-8.06,5.05c-.7.26-1.42.48-2.14.67l-.7.15c-.5.12-1,.22-1.51.3l-.83.11c-.48.06-1,.1-1.44.13l-.85,0c-.17,0-.35,0-.52,0h-.61c.2,0,.41,0,.61,0v4.1c.35,0,.69.07,1,.07h.08c.82,0,1.64-.05,2.46-.12l.69-.08c.65-.08,1.29-.17,1.94-.29l.73-.15A24.21,24.21,0,0,0,463,209a27.77,27.77,0,0,0,10-5.68,35.78,35.78,0,0,0,7.13-8.92A35.27,35.27,0,0,0,483.86,172a35.79,35.79,0,0,0-5.33-13.51,32.81,32.81,0,0,0-5.7-6.62,39.45,39.45,0,0,0-4.46-3.68,44.36,44.36,0,0,0-4.94-3,46.49,46.49,0,0,0-10.91-4c-1.38-.28-2.78-.49-4.19-.65l-.86-.09c-1.37-.13-2.75-.21-4.12-.22h-.26c-.27,0-.53,0-.8,0-.71,0-1.42,0-2.13.08l-1.22.11c-.69.06-1.38.14-2.06.24l-1.2.18c-.73.13-1.45.28-2.17.44-.34.08-.68.14-1,.23-1.05.27-2.09.56-3.12.91h0a42.93,42.93,0,0,0-15.29,8.78,46.23,46.23,0,0,0-4.15,4.13,54.47,54.47,0,0,0-5.34,6.92c-.66,1-1.29,2.07-1.89,3.13A55.51,55.51,0,0,0,404,221.08c1,1.71,2.25,3.29,3.38,4.93s2.59,3,3.9,4.53l4.26,4a57.65,57.65,0,0,0,4.57,3.66,69.73,69.73,0,0,0,21,10.54c1.76.54,3.55,1,5.34,1.37.58.13,1.17.22,1.75.33,1.23.23,2.47.45,3.71.61.69.09,1.37.16,2.06.23,1.17.11,2.33.2,3.5.26.71,0,1.41.06,2.12.08.44,0,.87,0,1.31,0,1.19,0,2.38,0,3.56-.1l.32,0c1.74-.1,3.47-.27,5.2-.49l.72-.09c1.72-.24,3.43-.56,5.13-.92l1-.22q2.52-.57,5-1.34l.81-.26c1.72-.56,3.44-1.16,5.12-1.85s3.7-1.55,5.45-2.51l5.23-3,4.92-3.47c1.64-1.15,3.07-2.57,4.61-3.86a42.56,42.56,0,0,0,4.22-4.16c1.32-1.45,2.74-2.82,4-4.34,1.78-2.36,3.66-4.64,5.31-7.09q.83-1.23,1.56-2.52a80.34,80.34,0,0,0,5.59-10.43,84.31,84.31,0,0,0,4-11.15,90.13,90.13,0,0,0,3.47-23.5,88.18,88.18,0,0,0-.76-11.93,99.32,99.32,0,0,0-2.27-11.77c-.55-1.92-1.22-3.81-1.83-5.72l-1-2.86-1.21-2.76c-.83-1.83-1.58-3.69-2.49-5.49l-1.49-2.63-1.48-2.63a46.57,46.57,0,0,0-3.3-5c-.6-.81-1.16-1.65-1.75-2.47a28.65,28.65,0,0,0-1.83-2.4c-1.33-1.51-2.63-3.07-4-4.56a49.22,49.22,0,0,0-4.2-4.22l-2.16-2-2.15-2c-.48-.45-1-.85-1.52-1.26s-.85-.72-1.3-1c-.6-.46-1.21-.91-1.81-1.38l-4.72-3.6-5-3.14q-2.52-1.54-5.15-3a111.11,111.11,0,0,0-10.76-5.07,107.93,107.93,0,0,0-28.85-7.32c-1-.1-2-.15-3-.23s-1.93-.18-2.9-.23c-.66,0-1.32,0-2-.05-1.25,0-2.5-.1-3.76-.1h-1c-1.55,0-3.09.06-4.63.14l-1.68.11c-1.32.08-2.65.19-4,.33l-1.56.16c-1.79.2-3.58.44-5.36.74l-.48.08c-1.62.28-3.24.6-4.86,1-.54.11-1.08.24-1.62.36-1.29.3-2.58.63-3.86,1l-1.57.43q-2.61.73-5.19,1.6h0a109.22,109.22,0,0,0-16.63,7.21q-2.67,1.42-5.27,3a111.75,111.75,0,0,0-14.21,10.27l-.51.42c-1.47,1.26-2.89,2.57-4.29,3.9l-.21.19h0c-2.85,2.87-5.63,5.78-8.37,8.72A362.46,362.46,0,1,0,975.49,385c0-.27,0-.54,0-.81q.21-3.45.36-6.93c.06-1.53.12-3.06.17-4.6,0-1,.06-2,.08-3.05.05-2.49.09-5,.09-7.47v-.45A364.84,364.84,0,0,0,965.42,273.26ZM396.35,324.69l89.44,67.08,128-158.8,128,158.8,89.44-67.08L943.61,410q-1.56,10.77-3.84,21.45A405,405,0,0,0,597,508.34c-22.5-18-48.15-38.17-85.95-55.51-64.32-29.51-139.86-38.71-224.51-27.4q-1.49-7.68-2.6-15.42ZM891.12,547C812.74,576.6,743,581.34,683.72,561c-26.13-8.95-45-20.68-63.13-34.22a375.72,375.72,0,0,1,311.92-67.24A330.73,330.73,0,0,1,891.12,547Zm-41.54,50.61c-130,130-341.58,130-471.6,0a331.4,331.4,0,0,1-84.65-143.76c77.94-10,147.13-1.48,205.66,25.36,35.65,16.36,59.15,35.17,81.87,53.36,26.84,21.49,52.19,41.78,93.46,55.92Q715,602.41,761,602.41q46.35,0,97.62-14.23Q854.19,592.94,849.58,597.58Z"/><path class="cls-4" d="M72,850.92a19.58,19.58,0,0,0,5.54-14,23.14,23.14,0,0,0-3.81-13.09Q69.94,818.1,62,814.69t-19.6-3.39H3.73v89.35H28.25V867.26h5.26q4.85,0,7.41,1.94a9.56,9.56,0,0,1,3.47,5.06A59.33,59.33,0,0,1,46,883.05a91.29,91.29,0,0,0,1.66,9.77A26,26,0,0,0,51,900.65H77.42a26.88,26.88,0,0,1-4-7.55,78.81,78.81,0,0,1-2.36-9.77,73.18,73.18,0,0,0-2.35-9.49,20.2,20.2,0,0,0-4.23-7,23.4,23.4,0,0,0-8.66-5.68v-1.25Q66.47,856.74,72,850.92Zm-23.13-3.26c-2,1.53-5,2.29-9,2.29H28.25v-18.7H38.92a21.2,21.2,0,0,1,7.47,1.11,8.44,8.44,0,0,1,4.23,3.11,8.77,8.77,0,0,1,1.32,4.92C51.94,843.71,50.92,846.14,48.89,847.66Z"/><path class="cls-4" d="M194,880.35q5.32-10.46,5.33-24.17,0-14-4.78-24.45a36,36,0,0,0-14.4-16.27q-9.63-5.82-23.62-5.82-13.58,0-23.55,5.82a38.38,38.38,0,0,0-15.24,16.27,52.79,52.79,0,0,0-5.26,24q0,14.13,4.78,24.58a35.72,35.72,0,0,0,14.34,16.21q9.56,5.75,23.54,5.75,13.58,0,23.55-5.75A38.41,38.41,0,0,0,194,880.35ZM172.1,868.86a18.22,18.22,0,0,1-5.88,8.65,16.2,16.2,0,0,1-10.39,3.19q-6.79,0-10.81-3.19a16.56,16.56,0,0,1-5.61-8.65,47.3,47.3,0,0,1-1.59-13.09,40,40,0,0,1,1.8-12.61,17.88,17.88,0,0,1,5.82-8.59,16.24,16.24,0,0,1,10.39-3.18q6.91,0,10.94,3.18a16.63,16.63,0,0,1,5.61,8.66A46.69,46.69,0,0,1,174,856.18,39.13,39.13,0,0,1,172.1,868.86Z"/><polygon class="cls-4" points="262.07 811.3 237.69 811.3 237.69 900.65 253.49 900.65 262.07 900.65 291.16 900.65 291.16 878.76 262.07 878.76 262.07 811.3"/><polygon class="cls-4" points="352.39 811.3 328.01 811.3 328.01 900.65 343.8 900.65 352.39 900.65 381.48 900.65 381.48 878.76 352.39 878.76 352.39 811.3"/><rect class="cls-4" x="418.33" y="811.3" width="24.38" height="89.35"/><polygon class="cls-4" points="559.2 811.3 536.62 811.3 536.62 866.57 535.24 866.57 530.39 854.52 511.13 811.3 483.71 811.3 483.71 900.65 506.29 900.65 506.29 847.45 507.67 847.45 512.52 859.64 530.66 900.65 559.2 900.65 559.2 811.3"/><path class="cls-4" d="M677.91,851.06H641.2v17.59h13.58a11,11,0,0,1-4.5,8,14.9,14.9,0,0,1-9.08,2.91,17.56,17.56,0,0,1-9.9-2.7,16.76,16.76,0,0,1-6.23-8,34.45,34.45,0,0,1-2.15-13A37.64,37.64,0,0,1,625,842.54a16.8,16.8,0,0,1,6.16-8.25,17.52,17.52,0,0,1,10-2.77,14.94,14.94,0,0,1,9.63,3.05,18.44,18.44,0,0,1,5.75,8.87l22.44-4.3a39.66,39.66,0,0,0-6.93-15.93,31.77,31.77,0,0,0-12.81-10.11,48.4,48.4,0,0,0-40.72,2.22,39.34,39.34,0,0,0-15.45,16.13q-5.54,10.47-5.54,24.45,0,14.28,4.57,24.73A35.65,35.65,0,0,0,615.3,896.7q8.6,5.61,20.64,5.61A24.11,24.11,0,0,0,648.55,899q5.54-3.33,10-10.53h1.11l5,12.19h13.29Z"/><polygon class="cls-4" points="820.04 862.97 820.04 900.65 844.41 900.65 844.41 811.3 820.04 811.3 820.04 843.71 794.13 843.71 794.13 811.3 769.75 811.3 769.75 900.65 794.13 900.65 794.13 862.97 820.04 862.97"/><rect class="cls-4" x="885.42" y="811.3" width="24.38" height="89.35"/><polygon class="cls-4" points="975.18 900.65 1004.27 900.65 1004.27 878.76 975.18 878.76 975.18 811.3 950.8 811.3 950.8 900.65 966.59 900.65 975.18 900.65"/><polygon class="cls-4" points="1065.5 900.65 1094.59 900.65 1094.59 878.76 1065.5 878.76 1065.5 811.3 1041.12 811.3 1041.12 900.65 1056.91 900.65 1065.5 900.65"/><path class="cls-4" d="M1170.84,880.49a21.48,21.48,0,0,1-6.3.76,15.86,15.86,0,0,1-9.7-2.77q-3.73-2.76-5.13-8.72l-22.85,5a30.39,30.39,0,0,0,10.73,20q9.08,7.62,27,7.62a47.55,47.55,0,0,0,18.77-3.4,26.37,26.37,0,0,0,12.32-10.25q4.36-6.85,4.37-16.83,0-10.51-4.5-16a22,22,0,0,0-10.67-7.34,93.73,93.73,0,0,0-15.44-3,69.57,69.57,0,0,1-8.8-1.31,13.19,13.19,0,0,1-5.26-2.35,5.44,5.44,0,0,1-2-4.51,7,7,0,0,1,1.31-4.36,7.7,7.7,0,0,1,3.74-2.56,18.12,18.12,0,0,1,5.89-.84,17.79,17.79,0,0,1,7.13,1.25,10.62,10.62,0,0,1,4.51,3.6,15.21,15.21,0,0,1,2.35,5.82l21.33-3.6a31.39,31.39,0,0,0-4.36-13.78,25.54,25.54,0,0,0-11.22-9.63q-7.56-3.6-19.46-3.6-11.64,0-19.54,4.15a27.58,27.58,0,0,0-15.51,24.94q0,11.35,4.57,17.24a21.79,21.79,0,0,0,10.81,7.83,88.86,88.86,0,0,0,15.65,3.05c3.69.46,6.51.88,8.45,1.24a11.18,11.18,0,0,1,4.85,2.08,5.17,5.17,0,0,1,1.94,4.3,5.66,5.66,0,0,1-1.25,3.81A7.79,7.79,0,0,1,1170.84,880.49Z"/><path class="cls-4" d="M52.6,995.72a4.31,4.31,0,0,1-1.68.34,3.84,3.84,0,0,1-2.1-.56,6,6,0,0,1-1.8-2,39.11,39.11,0,0,1-2.1-4.25,23.55,23.55,0,0,0-3.81-7,15.68,15.68,0,0,0-5.49-4.24,15.13,15.13,0,0,0-3.09-1,30.16,30.16,0,0,0,9.78-1.52,14,14,0,0,0,6.81-4.8,13.27,13.27,0,0,0,2.32-8.06,13.08,13.08,0,0,0-2.36-7.93,14,14,0,0,0-7.12-4.8,37.59,37.59,0,0,0-11.78-1.58H0v5.48a45.5,45.5,0,0,1,5.06.52,2.65,2.65,0,0,1,1.63.73A3.48,3.48,0,0,1,7,956.8V995a3.48,3.48,0,0,1-.34,1.84,2.65,2.65,0,0,1-1.63.73A49.08,49.08,0,0,1,0,998v5.49H26.58V998a49.59,49.59,0,0,1-5.23-.51,3.19,3.19,0,0,1-1.72-.73A2.87,2.87,0,0,1,19.2,995V977.89h4a7.59,7.59,0,0,1,4.63,1.28,7,7,0,0,1,2.44,3.35q.73,2.06,1.68,5.91c.17.75.33,1.47.47,2.19s.33,1.47.55,2.27a40.81,40.81,0,0,0,2.88,7.2,8.56,8.56,0,0,0,3.51,3.65,11.4,11.4,0,0,0,5.19,1.07,9.92,9.92,0,0,0,5.36-1.33,8.74,8.74,0,0,0,3.21-3.6A14.16,14.16,0,0,0,54.52,995l-.43-.34A4.59,4.59,0,0,1,52.6,995.72ZM19.2,954.91h9.86a13.73,13.73,0,0,1,5.28.86,6.13,6.13,0,0,1,3,2.7,9.76,9.76,0,0,1,1,4.76,8.75,8.75,0,0,1-1.16,4.84,7.15,7.15,0,0,1-3.34,2.66,14.67,14.67,0,0,1-5.53.9H19.2Z"/><path class="cls-4" d="M125.51,950.5a27.08,27.08,0,0,0-14.06-3.56,27.64,27.64,0,0,0-14.06,3.56,25,25,0,0,0-9.69,10.11,31.78,31.78,0,0,0-3.51,15.22,33.47,33.47,0,0,0,3.3,15.22,23.88,23.88,0,0,0,9.34,10.11,27.13,27.13,0,0,0,14,3.56,28.1,28.1,0,0,0,14.19-3.56,24.15,24.15,0,0,0,9.6-10.11A32.85,32.85,0,0,0,138,975.83a33.74,33.74,0,0,0-3.26-15.26A23.84,23.84,0,0,0,125.51,950.5Zm-2.1,37.25a13.71,13.71,0,0,1-4.55,7,12.26,12.26,0,0,1-7.67,2.32,12.43,12.43,0,0,1-7.76-2.32,13.7,13.7,0,0,1-4.54-7,40,40,0,0,1-1.5-11.92A38.42,38.42,0,0,1,98.93,964a13.94,13.94,0,0,1,4.59-7,14,14,0,0,1,15.39,0,13.85,13.85,0,0,1,4.5,6.94,39.48,39.48,0,0,1,1.5,11.92A40,40,0,0,1,123.41,987.75Z"/><path class="cls-4" d="M207.38,981.75q-1.55,7.11-2.49,10.15c-.63,2-1.29,3.34-2,3.9a4.71,4.71,0,0,1-3.09.86H189.29V956.8a2.5,2.5,0,0,1,.51-1.84,4.06,4.06,0,0,1,2-.73q1.47-.27,5.92-.52v-5.48h-27.6v5.48a44.93,44.93,0,0,1,5,.52,2.65,2.65,0,0,1,1.63.73,3.36,3.36,0,0,1,.35,1.84V995a3.36,3.36,0,0,1-.35,1.84,2.65,2.65,0,0,1-1.63.73,48.45,48.45,0,0,1-5,.51v5.49h44L214,981.75Z"/><path class="cls-4" d="M283.33,981.75q-1.54,7.11-2.48,10.15c-.63,2-1.29,3.34-2,3.9a4.71,4.71,0,0,1-3.09.86H265.24V956.8a2.45,2.45,0,0,1,.52-1.84,4,4,0,0,1,2-.73,59.34,59.34,0,0,1,5.92-.52v-5.48H246v5.48a45.5,45.5,0,0,1,5.06.52,2.65,2.65,0,0,1,1.63.73,3.48,3.48,0,0,1,.34,1.84V995a3.48,3.48,0,0,1-.34,1.84,2.65,2.65,0,0,1-1.63.73A49.08,49.08,0,0,1,246,998v5.49h44l-.09-21.77Z"/><path class="cls-4" d="M363.49,983a88,88,0,0,1-2.49,9.34,7.7,7.7,0,0,1-2,3.39,4.54,4.54,0,0,1-2.91.82H341.2V978.11l14.57.46v-8l-14.57.4V954.83h14.06a4.41,4.41,0,0,1,2.79.77,7.48,7.48,0,0,1,1.88,3.26c.6,1.65,1.45,4.68,2.53,9.08h6.43l.09-19.8H341.2v0h-9.86l-9.34,0v5.49a49.08,49.08,0,0,1,5.06.51,2.77,2.77,0,0,1,1.63.73,3.48,3.48,0,0,1,.34,1.84v38.15a3.52,3.52,0,0,1-.34,1.85,2.78,2.78,0,0,1-1.63.72A48.17,48.17,0,0,1,322,998v5.49h48.09L369.83,983Z"/><path class="cls-4" d="M443,951.44a39.37,39.37,0,0,0-16.63-3.21H403.44v5.48a45.5,45.5,0,0,1,5.06.52,2.65,2.65,0,0,1,1.63.73,3.48,3.48,0,0,1,.34,1.84V995a3.48,3.48,0,0,1-.34,1.84,2.65,2.65,0,0,1-1.63.73,49.08,49.08,0,0,1-5.06.51v5.49H425.9a39.09,39.09,0,0,0,16.55-3.26,23.7,23.7,0,0,0,10.76-9.6,29.49,29.49,0,0,0,3.72-15.17,29.16,29.16,0,0,0-3.51-14.66A22.53,22.53,0,0,0,443,951.44Zm-1,36.14a13.49,13.49,0,0,1-5.61,6.9,18.43,18.43,0,0,1-9.39,2.18h-4.29V954.91h3.77a19.56,19.56,0,0,1,9.82,2.19,13.45,13.45,0,0,1,5.7,6.6,29.89,29.89,0,0,1,1.89,11.62A33.48,33.48,0,0,1,441.93,987.58Z"/><path class="cls-4" d="M542.92,948.23h-9.35v5.48a45.2,45.2,0,0,1,5.06.52,2.65,2.65,0,0,1,1.63.73,3.38,3.38,0,0,1,.34,1.84V995a3.38,3.38,0,0,1-.34,1.84,2.65,2.65,0,0,1-1.63.73,48.75,48.75,0,0,1-5.06.51v5.49h26.32V998a45.33,45.33,0,0,1-5.06-.51,3,3,0,0,1-1.62-.73,2.81,2.81,0,0,1-.43-1.84V956.8a2.81,2.81,0,0,1,.43-1.84,3,3,0,0,1,1.62-.73,42.18,42.18,0,0,1,5.06-.52v-5.48h-17Z"/><path class="cls-4" d="M633.92,991.22a18.1,18.1,0,0,1-5.66,3.26,20.23,20.23,0,0,1-6.9,1.15,17,17,0,0,1-8.83-2.14,13.74,13.74,0,0,1-5.53-6.56,28,28,0,0,1-1.93-11.18A36.14,36.14,0,0,1,606.7,964a14.6,14.6,0,0,1,4.63-7,11.19,11.19,0,0,1,7-2.31,9.85,9.85,0,0,1,5.79,1.71,15.34,15.34,0,0,1,4.28,4.84,48.67,48.67,0,0,1,3.64,8.1h6.61v-22.2h-6.61l-3,6a10.71,10.71,0,0,0-2.29-2.78,13.82,13.82,0,0,0-4.58-2.53,18.09,18.09,0,0,0-5.83-.9,22.12,22.12,0,0,0-12.26,3.6,25.54,25.54,0,0,0-8.92,10.2,32.73,32.73,0,0,0-3.34,15,33.73,33.73,0,0,0,3.34,15.64,23.37,23.37,0,0,0,9.43,9.9,28.47,28.47,0,0,0,14.23,3.43,24.86,24.86,0,0,0,10.12-2,16.22,16.22,0,0,0,7.12-6,18.85,18.85,0,0,0,2.74-10.16l-.69-.43A20.65,20.65,0,0,1,633.92,991.22Z"/><path class="cls-4" d="M713.43,983a88,88,0,0,1-2.49,9.34,7.7,7.7,0,0,1-2,3.39,4.54,4.54,0,0,1-2.91.82H691.14V978.11l14.57.46v-8l-14.57.4V954.83H705.2a4.41,4.41,0,0,1,2.79.77,7.48,7.48,0,0,1,1.88,3.26c.6,1.65,1.45,4.68,2.53,9.08h6.43l.09-19.8H691.14v0h-9.86l-9.34,0v5.49a49.08,49.08,0,0,1,5.06.51,2.74,2.74,0,0,1,1.63.73,3.48,3.48,0,0,1,.34,1.84v38.15a3.52,3.52,0,0,1-.34,1.85,2.74,2.74,0,0,1-1.63.72,48.17,48.17,0,0,1-5.06.52v5.49H720L719.77,983Z"/><path class="cls-4" d="M841.12,991.22a18,18,0,0,1-5.66,3.26,20.23,20.23,0,0,1-6.9,1.15,17,17,0,0,1-8.83-2.14,13.74,13.74,0,0,1-5.53-6.56,28.15,28.15,0,0,1-1.93-11.18A36.41,36.41,0,0,1,813.9,964a14.6,14.6,0,0,1,4.63-7,11.19,11.19,0,0,1,7-2.31,9.85,9.85,0,0,1,5.79,1.71,15.22,15.22,0,0,1,4.28,4.84,49.45,49.45,0,0,1,3.65,8.1h6.6v-22.2h-6.6l-3,6a10.47,10.47,0,0,0-2.28-2.78,14,14,0,0,0-4.59-2.53,18.09,18.09,0,0,0-5.83-.9,22.12,22.12,0,0,0-12.26,3.6,25.61,25.61,0,0,0-8.92,10.2,32.73,32.73,0,0,0-3.34,15,33.73,33.73,0,0,0,3.34,15.64,23.43,23.43,0,0,0,9.43,9.9,28.48,28.48,0,0,0,14.24,3.43,24.81,24.81,0,0,0,10.11-2,16.17,16.17,0,0,0,7.12-6,18.77,18.77,0,0,0,2.74-10.16l-.68-.43A20.91,20.91,0,0,1,841.12,991.22Z"/><path class="cls-4" d="M931.74,995.72a4.28,4.28,0,0,1-1.68.34,3.84,3.84,0,0,1-2.1-.56,6,6,0,0,1-1.8-2,39.11,39.11,0,0,1-2.1-4.25,23.55,23.55,0,0,0-3.81-7,15.59,15.59,0,0,0-5.49-4.24,15.13,15.13,0,0,0-3.09-1,30.16,30.16,0,0,0,9.78-1.52,14,14,0,0,0,6.81-4.8,13.27,13.27,0,0,0,2.32-8.06,13.08,13.08,0,0,0-2.36-7.93,14,14,0,0,0-7.11-4.8,37.7,37.7,0,0,0-11.79-1.58H879.14v5.48a45.5,45.5,0,0,1,5.06.52,2.65,2.65,0,0,1,1.63.73,3.38,3.38,0,0,1,.34,1.84V995a3.38,3.38,0,0,1-.34,1.84,2.65,2.65,0,0,1-1.63.73,49.08,49.08,0,0,1-5.06.51v5.49h26.58V998a50.23,50.23,0,0,1-5.23-.51,3.19,3.19,0,0,1-1.72-.73,2.87,2.87,0,0,1-.43-1.84V977.89h4a7.57,7.57,0,0,1,4.63,1.28,7,7,0,0,1,2.45,3.35q.72,2.06,1.67,5.91c.17.75.33,1.47.47,2.19s.33,1.47.56,2.27a40.9,40.9,0,0,0,2.87,7.2,8.56,8.56,0,0,0,3.51,3.65,11.4,11.4,0,0,0,5.19,1.07,9.92,9.92,0,0,0,5.36-1.33,8.74,8.74,0,0,0,3.21-3.6,14.4,14.4,0,0,0,1.38-4.85l-.43-.34A4.74,4.74,0,0,1,931.74,995.72Zm-33.4-40.81h9.86a13.73,13.73,0,0,1,5.28.86,6.13,6.13,0,0,1,3,2.7,9.65,9.65,0,0,1,1,4.76,8.75,8.75,0,0,1-1.16,4.84,7.15,7.15,0,0,1-3.34,2.66,14.64,14.64,0,0,1-5.53.9h-9.18Z"/><path class="cls-4" d="M1004.13,983a88.67,88.67,0,0,1-2.48,9.34,7.89,7.89,0,0,1-2,3.39,4.57,4.57,0,0,1-2.92.82H981.84V978.11l14.58.46v-8l-14.58.4V954.83H995.9a4.41,4.41,0,0,1,2.79.77,7.38,7.38,0,0,1,1.89,3.26q.9,2.48,2.52,9.08h6.44l.08-19.8H981.84v0H972l-9.35,0v5.49a49.08,49.08,0,0,1,5.06.51,2.71,2.71,0,0,1,1.63.73,3.38,3.38,0,0,1,.34,1.84v38.15a3.42,3.42,0,0,1-.34,1.85,2.71,2.71,0,0,1-1.63.72,48.17,48.17,0,0,1-5.06.52v5.49h48.09l-.25-20.41Z"/><path class="cls-4" d="M1099,998a10.89,10.89,0,0,1-2.92-.73,4,4,0,0,1-1.76-1.72,26.55,26.55,0,0,1-1.75-4.07L1075.29,948h-9.69l-16.2,40.2a.74.74,0,0,1-.05.22,1.07,1.07,0,0,0,0,.21,45.88,45.88,0,0,1-2.53,5.66,6.6,6.6,0,0,1-2.31,2.49,13.12,13.12,0,0,1-3.64,1.28v5.49h22.46v-5.4a14,14,0,0,1-4.81-1.2,2.8,2.8,0,0,1-1.71-2.32,9.81,9.81,0,0,1,.77-3.78L1059,987h18.43l2.62,7.28a3.84,3.84,0,0,1,.39,2.23c-.14.46-.69.8-1.63,1a32.5,32.5,0,0,1-4.58.6v5.4h25.37V998a.91.91,0,0,1-.3,0A.68.68,0,0,0,1099,998Zm-37.73-17.4,3.78-10.34,3.16-9.07,3.1,9.12,3.71,10.29Z"/><path class="cls-4" d="M1188.28,948.23H1178l-14.29,34.61-14.43-34.61h-21v5.48a54.53,54.53,0,0,1,6.94,1.48v36.24a10.43,10.43,0,0,1-.43,3.47,3.49,3.49,0,0,1-2,1.89,18.83,18.83,0,0,1-4.88,1.24v5.49h22.46V998a19.75,19.75,0,0,1-5-1.24,3.86,3.86,0,0,1-2.1-1.93,9.07,9.07,0,0,1-.51-3.43V962.12l17.83,41.66h1.88l17.92-42.52V995a3.8,3.8,0,0,1-.3,1.84,2.35,2.35,0,0,1-1.54.73,46.62,46.62,0,0,1-5,.51v5.49h26.24V998a47.35,47.35,0,0,1-5.11-.51,2.6,2.6,0,0,1-1.58-.73,3.38,3.38,0,0,1-.34-1.84V956.8a3.38,3.38,0,0,1,.34-1.84,2.6,2.6,0,0,1,1.58-.73,44,44,0,0,1,5.11-.52v-5.48h-11.49Z"/></svg>