<svg id="Layer_1" data-name="Layer 1" xmlns="http://www.w3.org/2000/svg" viewBox="0 0 1200 900"><defs><style>.cls-1{fill:#f2f2f2;}.cls-2{fill:#f4817e;}.cls-3{fill:#7fae65;}.cls-4{fill:#3e3b39;}</style></defs><rect class="cls-1" width="1200" height="900"/><path class="cls-2" d="M199.31,380.32a9.37,9.37,0,0,0-7.61-1.92,8.68,8.68,0,0,0-3.42,1.55,9.09,9.09,0,0,0-2.37,2.75,9.8,9.8,0,0,0-1.24,6.78A9.19,9.19,0,0,0,187.9,395a11.72,11.72,0,0,0,5.89,2.53,10.38,10.38,0,0,0,3.1-.06,11.8,11.8,0,0,0,1.48-.34,11.21,11.21,0,0,0,1.39-.56,9.6,9.6,0,0,0,2.41-1.59,11.78,11.78,0,0,0,1.93-2.23,13.13,13.13,0,0,0,2.14-5.54c0-.24.07-.48.12-.72l.07-.73c.09-.47.06-1,.11-1.44a4.45,4.45,0,0,0,0-.73v-.73c-.06-.48-.08-1-.16-1.45a12.53,12.53,0,0,0-2.38-5.28l-.22-.29-.25-.27-.49-.55c-.33-.37-.78-.71-1.16-1.08a13.15,13.15,0,0,0-1.25-1,9,9,0,0,0-1.34-.86,17.69,17.69,0,0,0-5.94-2.17A17.88,17.88,0,0,0,187,370a17.56,17.56,0,0,0-5.89,2.32,20.69,20.69,0,0,0-4.86,4.32,26.52,26.52,0,0,0-3.47,5.81,23.6,23.6,0,0,0,.74,19.73c.23.52.57,1,.84,1.48l.43.73c.14.24.33.46.49.69l1,1.36,1.15,1.26a10.33,10.33,0,0,0,1.25,1.22l1.32,1.2c.45.4,1,.71,1.42,1.07s.95.73,1.45,1a31.57,31.57,0,0,0,6.36,3.13l1.68.59,1.73.41a27.75,27.75,0,0,0,3.51.63,13.05,13.05,0,0,0,1.77.13l1.78.09,1.78-.09a11.76,11.76,0,0,0,1.78-.14,31.57,31.57,0,0,0,13.28-4.77c.49-.32.95-.7,1.44-1s1-.68,1.42-1.08l1.32-1.2a11.75,11.75,0,0,0,1.29-1.26c.81-.93,1.68-1.81,2.46-2.77l2.19-3a40.16,40.16,0,0,0,1.17-42.06l-.94-1.59-.23-.4-.27-.37-.55-.74-1.1-1.49c-.18-.25-.35-.51-.55-.74l-.62-.68-1.25-1.38a17.88,17.88,0,0,0-1.28-1.35l-1.38-1.31-1.44-1.24a51.52,51.52,0,0,0-57-6.21,57.24,57.24,0,0,0-6.44,4,56.45,56.45,0,0,0-5.78,4.92,65.61,65.61,0,0,0-9.67,12.11,63.84,63.84,0,0,0-6.56,14,64.55,64.55,0,0,0-3.09,15.19,65.9,65.9,0,0,0,.54,15.5c.22,1.28.4,2.56.71,3.82l.42,1.9.54,1.86c.74,2.48,1.72,4.87,2.46,7.36a68,68,0,0,0,6.48,14.3c.68,1.13,1.43,2.23,2.16,3.35s1.52,2.16,2.39,3.23c1.76,2.1,3.44,4.43,5.13,6.71l10.12,13.67c3.33,4.6,6.69,9.15,10,13.76-4.17-3.83-8.25-7.73-12.37-11.58L146,454.8c-2-1.94-4-3.89-6.2-5.82-1.07-1-2.11-2.08-3.16-3.12s-2-2.21-3-3.35a77.85,77.85,0,0,1-9.91-15.15,37.9,37.9,0,0,1-1.73-4.23c-.45-1.45-.9-2.91-1.25-4.39l-.56-2.21-.49-2.23c-.35-1.48-.57-3-.83-4.48a77.37,77.37,0,0,1-.63-18.18,76.49,76.49,0,0,1,3.62-17.84,75.12,75.12,0,0,1,7.72-16.49A76.71,76.71,0,0,1,141,343.09a66.56,66.56,0,0,1,7.06-6,69.58,69.58,0,0,1,7.88-4.91,63,63,0,0,1,69.68,7.59,53.8,53.8,0,0,1,12.14,14.31,51.65,51.65,0,0,1-1.52,54.13L233.42,412c-1,1.22-2.1,2.37-3.15,3.55a19.55,19.55,0,0,1-1.72,1.68l-1.82,1.63c-.6.55-1.29,1-1.93,1.49s-1.31,1-2,1.42a43,43,0,0,1-18.22,6.56,42.36,42.36,0,0,1-35.47-12.79l-1.69-1.88c-.52-.66-1-1.34-1.51-2-.24-.34-.5-.67-.73-1l-.64-1.08c-.42-.74-.89-1.44-1.25-2.2A35.12,35.12,0,0,1,162.2,378a37.69,37.69,0,0,1,5.17-8.65l1.69-1.87a12.49,12.49,0,0,1,.87-.92l1-.88,1-.88c.34-.28.7-.53,1-.79a19.78,19.78,0,0,1,2.17-1.48,29.13,29.13,0,0,1,30-.34,18.84,18.84,0,0,1,2.2,1.43,21.72,21.72,0,0,1,2.07,1.62c.65.6,1.31,1.13,1.93,1.8l.92,1,.46.51.41.55a25.7,25.7,0,0,1,4.61,9.94,21.25,21.25,0,0,1-.23,10.94,23.58,23.58,0,0,1-5.45,9.38l-1,.94a11.58,11.58,0,0,1-1,.92l-1.09.87-1.17.77a18.64,18.64,0,0,1-5.07,2.24,20.93,20.93,0,0,1-2.68.56,19.07,19.07,0,0,1-2.72.14,18.55,18.55,0,0,1-13.91-6.44,14.73,14.73,0,0,1-3.54-9.57,13.82,13.82,0,0,1,3.36-9.1,12.05,12.05,0,0,1,3.77-3,10.75,10.75,0,0,1,4.55-1.06,10.16,10.16,0,0,1,4.38,1A9.65,9.65,0,0,1,199.31,380.32Z"/><path class="cls-2" d="M279.37,380.32a9.84,9.84,0,0,1,3.39-2.65,10.2,10.2,0,0,1,4.39-1,10.71,10.71,0,0,1,4.54,1.06,12,12,0,0,1,3.78,3,13.93,13.93,0,0,1,3.36,9.1,14.79,14.79,0,0,1-3.54,9.57,18.59,18.59,0,0,1-13.92,6.44,19,19,0,0,1-2.71-.14,20.58,20.58,0,0,1-2.68-.56,18.51,18.51,0,0,1-5.07-2.24l-1.17-.77-1.1-.87a11.41,11.41,0,0,1-1-.92l-1-.94a23.46,23.46,0,0,1-5.45-9.38,21.14,21.14,0,0,1-.23-10.94,25.7,25.7,0,0,1,4.61-9.94l.41-.55.46-.51.92-1c.62-.67,1.28-1.2,1.93-1.8a21.59,21.59,0,0,1,2.06-1.62,19,19,0,0,1,2.21-1.43,29,29,0,0,1,9.82-3.58,28.87,28.87,0,0,1,20.19,3.92,18.75,18.75,0,0,1,2.16,1.48c.35.26.72.51,1.05.79l1,.88,1,.88c.32.29.58.61.87.92l1.68,1.87a37.34,37.34,0,0,1,5.17,8.65,35,35,0,0,1-1.1,29.34c-.35.76-.83,1.46-1.24,2.2l-.65,1.08c-.22.36-.49.69-.73,1-.5.68-1,1.36-1.51,2l-1.68,1.88a42.36,42.36,0,0,1-35.47,12.79,43.14,43.14,0,0,1-18.23-6.56c-.68-.45-1.32-1-2-1.42s-1.33-.94-1.94-1.49l-1.81-1.63a17.13,17.13,0,0,1-1.72-1.68c-1-1.18-2.15-2.33-3.15-3.55l-2.81-3.83a51.61,51.61,0,0,1-1.53-54.13,54,54,0,0,1,12.15-14.31,63,63,0,0,1,69.67-7.59,68.83,68.83,0,0,1,7.89,4.91,67.57,67.57,0,0,1,7.06,6,77.12,77.12,0,0,1,11.36,14.22,75.09,75.09,0,0,1,7.71,16.49,76.5,76.5,0,0,1,3.63,17.84,77.92,77.92,0,0,1-.63,18.18c-.26,1.5-.48,3-.84,4.48l-.49,2.23-.56,2.21c-.35,1.48-.8,2.94-1.24,4.39a39.91,39.91,0,0,1-1.73,4.23A77.89,77.89,0,0,1,345,442.51c-1,1.14-2,2.24-3,3.35s-2.09,2.15-3.16,3.12c-2.18,1.93-4.16,3.88-6.2,5.82l-12.22,11.66c-4.12,3.85-8.21,7.75-12.37,11.58,3.28-4.61,6.64-9.16,10-13.76l10.11-13.67c1.69-2.28,3.37-4.61,5.13-6.71.87-1.07,1.6-2.16,2.4-3.23s1.47-2.22,2.16-3.35A67.44,67.44,0,0,0,344.3,423c.74-2.49,1.73-4.88,2.47-7.36l.54-1.86.42-1.9c.3-1.26.48-2.54.71-3.82a65.89,65.89,0,0,0,.53-15.5,65,65,0,0,0-3.08-15.19,63.42,63.42,0,0,0-6.57-14,65.56,65.56,0,0,0-9.66-12.11,52,52,0,0,0-12.23-8.94,51.5,51.5,0,0,0-57,6.21L259,349.76l-1.38,1.31a18,18,0,0,0-1.29,1.35l-1.24,1.38-.62.68c-.21.23-.37.49-.56.74l-1.09,1.49-.55.74-.28.37-.23.4-.93,1.59a39.79,39.79,0,0,0-4.9,13.83A40.26,40.26,0,0,0,252,401.87l2.19,3c.78,1,1.65,1.84,2.46,2.77a10.22,10.22,0,0,0,1.29,1.26l1.32,1.2c.44.4,1,.71,1.42,1.08s.94.72,1.44,1A31.57,31.57,0,0,0,275.42,417a11.63,11.63,0,0,0,1.77.14l1.78.09,1.78-.09a13.32,13.32,0,0,0,1.78-.13,27.59,27.59,0,0,0,3.5-.63l1.73-.41,1.68-.59a31.65,31.65,0,0,0,6.37-3.13c.5-.32,1-.7,1.44-1s1-.67,1.42-1.07l1.32-1.2a10.42,10.42,0,0,0,1.26-1.22l1.14-1.26,1-1.36c.16-.23.35-.45.5-.69l.43-.73c.27-.5.61-1,.83-1.48a24.93,24.93,0,0,0,2.17-6.4,23.63,23.63,0,0,0-1.43-13.33,26.48,26.48,0,0,0-3.46-5.81,20.89,20.89,0,0,0-4.86-4.32,17.61,17.61,0,0,0-5.9-2.32,17.83,17.83,0,0,0-12.3,2.12,8.88,8.88,0,0,0-1.33.86,12.12,12.12,0,0,0-1.26,1c-.37.37-.83.71-1.15,1.08l-.5.55-.25.27-.21.29a12.41,12.41,0,0,0-2.38,5.28c-.08.48-.11,1-.16,1.45v.73a3.56,3.56,0,0,0,0,.73,13.74,13.74,0,0,0,.11,1.44l.06.73c.05.24.09.48.13.72a13.13,13.13,0,0,0,2.14,5.54,11.75,11.75,0,0,0,1.92,2.23,9.66,9.66,0,0,0,2.42,1.59,10.48,10.48,0,0,0,1.38.56,12.67,12.67,0,0,0,1.48.34,10.38,10.38,0,0,0,3.1.06,11.72,11.72,0,0,0,5.89-2.53,9.2,9.2,0,0,0,3.24-5.51,9.81,9.81,0,0,0-1.25-6.78A9.09,9.09,0,0,0,290.4,380,8.7,8.7,0,0,0,287,378.4,9.38,9.38,0,0,0,279.37,380.32Z"/><path class="cls-2" d="M247.74,462.52a10.33,10.33,0,0,0-6.92,3.64,9.29,9.29,0,0,0-2.15,6.9,13.2,13.2,0,0,0,.88,3.51,11.33,11.33,0,0,0,1.87,3,10.24,10.24,0,0,0,2.61,2.18,10,10,0,0,0,3.05,1.22,10.36,10.36,0,0,0,3.18.21c.54-.07,1.11-.15,1.64-.26a13.13,13.13,0,0,0,1.58-.46l.76-.27.73-.35a13.49,13.49,0,0,0,1.39-.79,12.72,12.72,0,0,0,2.37-2.07,12.06,12.06,0,0,0,2.79-5.32,12.42,12.42,0,0,0-.1-5.9,17.64,17.64,0,0,0-2.43-5.49,17.14,17.14,0,0,0-3.9-4.47,14.42,14.42,0,0,0-5.38-2.51,13.43,13.43,0,0,0-3-.39,10.56,10.56,0,0,0-1.58,0,9.63,9.63,0,0,0-1.61.14,18.67,18.67,0,0,0-6.14,1.86,20,20,0,0,0-11.06,15,22.93,22.93,0,0,0-.27,3.22l.09,1.71,0,.85c0,.29.09.57.13.85l.25,1.68c.1.56.28,1.1.41,1.66a24.39,24.39,0,0,0,1.06,3.23,26.38,26.38,0,0,0,3.38,5.9,26,26,0,0,0,2.2,2.61c.37.43.84.77,1.24,1.17a12.49,12.49,0,0,0,1.3,1.11l1.36,1c.45.36,1,.6,1.44.91a24.84,24.84,0,0,0,3,1.59c.5.27,1.06.4,1.58.62a14.69,14.69,0,0,0,1.62.55,26.53,26.53,0,0,0,3.32.73c.56.07,1.12.2,1.69.24l1.71.08c.28,0,.56,0,.85,0l.89-.05,1.78-.09.89,0,.88-.14L259,501c.29-.05.59-.07.88-.14l.86-.23,1.72-.44a34.4,34.4,0,0,0,12.48-6.62,34.78,34.78,0,0,0,12.44-24.71l.09-1.78c0-.6,0-1.23,0-1.84s-.05-1.22-.1-1.83-.08-1.23-.18-1.83a41,41,0,0,0-1.45-7.2,44.92,44.92,0,0,0-29.59-30.31,45.59,45.59,0,0,0-14.52-2.05,52.16,52.16,0,0,0-14.67,2.37,48.92,48.92,0,0,0-13.22,6.62,50.87,50.87,0,0,0-10.74,10.24,53.32,53.32,0,0,0-7.35,12.95,50.9,50.9,0,0,0-2.57,29.3,50.94,50.94,0,0,0,5.13,13.94c.57,1.11,1.25,2.1,1.86,3.16a19.2,19.2,0,0,0,1.11,1.66l1.19,1.7,4.75,6.79c6.34,9,12.63,18.11,19,27.12,1.62,2.23,3.32,4.42,4.75,6.78l4.27,7.12,8.52,14.27-6.39-.2c2.73-3,5.47-5.94,8.24-8.87l8.28-8.84q4.13-4.42,8.32-8.8l8.38-8.76-6.68,10.12q-3.33,5.06-6.72,10.07l-6.77,10c-2.25,3.36-4.53,6.68-6.81,10L240.62,575l-3.54-4.35-10.5-12.92-5.24-6.47c-1.74-2.16-3.21-4.51-4.75-6.8-6.29-9.11-12.68-18.15-19-27.23l-4.76-6.81-1.19-1.7c-.4-.58-.79-1.08-1.2-1.78-.78-1.33-1.65-2.63-2.35-4A62.37,62.37,0,0,1,184.93,450a64.74,64.74,0,0,1,9-15.79,62.63,62.63,0,0,1,13.18-12.57,60.64,60.64,0,0,1,16.33-8.16,63.65,63.65,0,0,1,18-2.92,56.11,56.11,0,0,1,34.57,10.91,56.35,56.35,0,0,1,20.76,29.73,53.65,53.65,0,0,1,1.83,9c.11.76.16,1.53.22,2.3s.12,1.53.13,2.3.06,1.53,0,2.31l-.11,2.36a46,46,0,0,1-4.86,18.16,46.54,46.54,0,0,1-11.69,14.71,45.75,45.75,0,0,1-16.61,8.81l-2.29.6-1.15.29c-.39.09-.78.13-1.17.2l-2.34.35-1.17.18-1.18.07L254,513l-1.18.05c-.4,0-.81,0-1.21-.05l-2.44-.12c-.81-.06-1.61-.22-2.41-.33a35.66,35.66,0,0,1-4.77-1.06,21.63,21.63,0,0,1-2.31-.78c-.76-.3-1.55-.52-2.27-.89a36.23,36.23,0,0,1-4.32-2.27c-.69-.43-1.41-.81-2.06-1.31l-1.95-1.46a21.42,21.42,0,0,1-1.85-1.58c-.59-.56-1.23-1.07-1.77-1.68a37.18,37.18,0,0,1-3.15-3.71,36.49,36.49,0,0,1-6.36-13.09c-.19-.79-.43-1.57-.57-2.37L215,480c-.05-.41-.13-.81-.16-1.21l-.07-1.22-.12-2.43a32.71,32.71,0,0,1,.41-5,31.5,31.5,0,0,1,17.35-23.5,30,30,0,0,1,9.66-2.92,19.19,19.19,0,0,1,2.51-.23,21.73,21.73,0,0,1,2.56,0,25.78,25.78,0,0,1,5.24.69,26.94,26.94,0,0,1,9.55,4.41,25.11,25.11,0,0,1,7.18,7.72,24.11,24.11,0,0,1,3,10,22.66,22.66,0,0,1-1.48,10.46,20.71,20.71,0,0,1-6.21,8.4,21.25,21.25,0,0,1-4.36,2.73,21.62,21.62,0,0,1-2.39.9l-1.22.36-1.24.25a19.14,19.14,0,0,1-2.5.29c-.84,0-1.66,0-2.5,0a16.66,16.66,0,0,1-5-1.18,15.68,15.68,0,0,1-4.26-2.61,15.42,15.42,0,0,1-3.18-3.71,15.75,15.75,0,0,1-1.84-4.41,15.36,15.36,0,0,1-.35-4.67,11.71,11.71,0,0,1,4.11-8A10.85,10.85,0,0,1,247.74,462.52Z"/><path class="cls-3" d="M560,380.32a9.38,9.38,0,0,0-7.62-1.92,8.7,8.7,0,0,0-3.41,1.55,9.09,9.09,0,0,0-2.37,2.75,9.75,9.75,0,0,0-1.24,6.78,9.19,9.19,0,0,0,3.23,5.51,11.72,11.72,0,0,0,5.89,2.53,10.38,10.38,0,0,0,3.1-.06,12.22,12.22,0,0,0,1.48-.34,10.48,10.48,0,0,0,1.38-.56,9.48,9.48,0,0,0,2.42-1.59,11.75,11.75,0,0,0,1.92-2.23,13,13,0,0,0,2.15-5.54q0-.36.12-.72l.06-.73a13.74,13.74,0,0,0,.11-1.44,3.56,3.56,0,0,0,0-.73v-.73c-.05-.48-.08-1-.16-1.45a12.41,12.41,0,0,0-2.38-5.28l-.21-.29-.25-.27-.49-.55c-.33-.37-.78-.71-1.16-1.08a12.12,12.12,0,0,0-1.26-1,8.88,8.88,0,0,0-1.33-.86,17.83,17.83,0,0,0-12.3-2.12,17.56,17.56,0,0,0-5.89,2.32,20.49,20.49,0,0,0-4.86,4.32,26.14,26.14,0,0,0-3.47,5.81,25.52,25.52,0,0,0-1.68,6.56,25.18,25.18,0,0,0,.26,6.77,24.53,24.53,0,0,0,2.16,6.4c.23.52.57,1,.84,1.48l.42.73c.15.24.34.46.5.69l1,1.36,1.14,1.26a10.42,10.42,0,0,0,1.26,1.22l1.32,1.2c.44.4,1,.71,1.42,1.07s.94.73,1.44,1a31.91,31.91,0,0,0,6.37,3.13l1.68.59,1.73.41a27.43,27.43,0,0,0,3.51.63,13.05,13.05,0,0,0,1.77.13l1.78.09,1.78-.09a11.86,11.86,0,0,0,1.78-.14,31.53,31.53,0,0,0,13.27-4.77c.5-.32,1-.7,1.44-1s1-.68,1.42-1.08l1.32-1.2a11,11,0,0,0,1.3-1.26c.81-.93,1.68-1.81,2.45-2.77l2.19-3a40.14,40.14,0,0,0,1.18-42.06l-.94-1.59-.23-.4-.28-.37-.55-.74-1.09-1.49c-.19-.25-.35-.51-.55-.74l-.63-.68L583,352.42a17.88,17.88,0,0,0-1.28-1.35l-1.38-1.31-1.44-1.24a51.52,51.52,0,0,0-57-6.21,51.63,51.63,0,0,0-12.22,8.94A65.61,65.61,0,0,0,500,363.36a63.38,63.38,0,0,0-6.56,14,64.55,64.55,0,0,0-3.09,15.19,66.43,66.43,0,0,0,.53,15.5c.23,1.28.41,2.56.71,3.82l.42,1.9.54,1.86c.74,2.48,1.73,4.87,2.47,7.36a67.48,67.48,0,0,0,6.48,14.3c.68,1.13,1.43,2.23,2.15,3.35s1.53,2.16,2.4,3.23c1.76,2.1,3.44,4.43,5.13,6.71l10.12,13.67c3.32,4.6,6.68,9.15,10,13.76-4.16-3.83-8.24-7.73-12.36-11.58L506.7,454.8c-2.05-1.94-4-3.89-6.21-5.82-1.07-1-2.1-2.08-3.16-3.12s-2-2.21-3-3.35a77.89,77.89,0,0,1-9.92-15.15,42.14,42.14,0,0,1-1.73-4.23c-.44-1.45-.89-2.91-1.24-4.39l-.56-2.21-.49-2.23c-.36-1.48-.58-3-.83-4.48a77.37,77.37,0,0,1-.63-18.18,76,76,0,0,1,3.62-17.84,74.67,74.67,0,0,1,7.72-16.49,76.65,76.65,0,0,1,11.35-14.22,67.68,67.68,0,0,1,7.07-6,69.58,69.58,0,0,1,7.88-4.91,63,63,0,0,1,69.68,7.59,54,54,0,0,1,12.14,14.31,51.27,51.27,0,0,1,6.3,17.81,51.68,51.68,0,0,1-7.82,36.32L594.07,412c-1,1.22-2.09,2.37-3.15,3.55a17.13,17.13,0,0,1-1.72,1.68l-1.81,1.63c-.6.55-1.29,1-1.94,1.49s-1.3,1-2,1.42a43.14,43.14,0,0,1-18.23,6.56,42.33,42.33,0,0,1-35.46-12.79l-1.69-1.88c-.52-.66-1-1.34-1.51-2-.24-.34-.5-.67-.73-1l-.65-1.08c-.41-.74-.89-1.44-1.24-2.2a35.12,35.12,0,0,1-1.1-29.34,37.34,37.34,0,0,1,5.17-8.65l1.68-1.87c.3-.31.55-.63.88-.92l1-.88,1-.88c.34-.28.7-.53,1.05-.79a19.78,19.78,0,0,1,2.17-1.48,29.11,29.11,0,0,1,30-.34,19,19,0,0,1,2.21,1.43,21.72,21.72,0,0,1,2.07,1.62c.64.6,1.3,1.13,1.92,1.8l.93,1,.45.51.42.55a25.69,25.69,0,0,1,4.6,9.94,21.14,21.14,0,0,1-.23,10.94,23.46,23.46,0,0,1-5.45,9.38l-.95.94a13.21,13.21,0,0,1-1,.92l-1.1.87-1.17.77a18.45,18.45,0,0,1-5.06,2.24,20.73,20.73,0,0,1-2.69.56,18.93,18.93,0,0,1-2.71.14,18.55,18.55,0,0,1-13.91-6.44,14.73,14.73,0,0,1-3.54-9.57,13.82,13.82,0,0,1,3.36-9.1,12.05,12.05,0,0,1,3.77-3,10.74,10.74,0,0,1,4.54-1.06,10.2,10.2,0,0,1,4.39,1A9.65,9.65,0,0,1,560,380.32Z"/><path class="cls-3" d="M640,380.32a9.65,9.65,0,0,1,3.39-2.65,10.2,10.2,0,0,1,4.39-1,10.74,10.74,0,0,1,4.54,1.06,12.05,12.05,0,0,1,3.77,3,13.82,13.82,0,0,1,3.36,9.1,14.73,14.73,0,0,1-3.54,9.57A18.55,18.55,0,0,1,642,405.83a18.93,18.93,0,0,1-2.71-.14,20.73,20.73,0,0,1-2.69-.56,18.45,18.45,0,0,1-5.06-2.24l-1.17-.77-1.1-.87a13.21,13.21,0,0,1-1-.92l-.95-.94a23.46,23.46,0,0,1-5.45-9.38,21.14,21.14,0,0,1-.23-10.94,25.69,25.69,0,0,1,4.6-9.94l.42-.55.45-.51.93-1c.62-.67,1.28-1.2,1.92-1.8a21.72,21.72,0,0,1,2.07-1.62,19,19,0,0,1,2.21-1.43,29,29,0,0,1,30,.34,19.78,19.78,0,0,1,2.17,1.48c.35.26.71.51,1.05.79l1,.88,1,.88c.33.29.58.61.88.92l1.68,1.87a37.34,37.34,0,0,1,5.17,8.65,35,35,0,0,1-1.1,29.34c-.35.76-.83,1.46-1.24,2.2l-.65,1.08c-.23.36-.49.69-.73,1-.5.68-1,1.36-1.51,2l-1.69,1.88a42.33,42.33,0,0,1-35.46,12.79,43.14,43.14,0,0,1-18.23-6.56c-.68-.45-1.32-1-2-1.42s-1.34-.94-1.94-1.49l-1.81-1.63a17.13,17.13,0,0,1-1.72-1.68c-1.06-1.18-2.16-2.33-3.15-3.55l-2.82-3.83a51.63,51.63,0,0,1-1.52-54.13,54,54,0,0,1,12.14-14.31,63,63,0,0,1,69.68-7.59,69.58,69.58,0,0,1,7.88,4.91,67.68,67.68,0,0,1,7.07,6,76.65,76.65,0,0,1,11.35,14.22,74.67,74.67,0,0,1,7.72,16.49,76,76,0,0,1,3.62,17.84,77.37,77.37,0,0,1-.63,18.18c-.25,1.5-.47,3-.83,4.48l-.49,2.23-.56,2.21c-.35,1.48-.8,2.94-1.24,4.39a42.14,42.14,0,0,1-1.73,4.23,77.89,77.89,0,0,1-9.92,15.15c-1,1.14-2,2.24-3,3.35s-2.09,2.15-3.16,3.12c-2.19,1.93-4.16,3.88-6.21,5.82l-12.22,11.66c-4.12,3.85-8.2,7.75-12.36,11.58,3.28-4.61,6.64-9.16,10-13.76l10.12-13.67c1.69-2.28,3.37-4.61,5.13-6.71.87-1.07,1.6-2.16,2.4-3.23s1.47-2.22,2.15-3.35A67.48,67.48,0,0,0,705,423c.74-2.49,1.73-4.88,2.47-7.36l.54-1.86.42-1.9c.3-1.26.48-2.54.71-3.82a66.43,66.43,0,0,0,.53-15.5,64.55,64.55,0,0,0-3.09-15.19,63.38,63.38,0,0,0-6.56-14,65.61,65.61,0,0,0-9.67-12.11,51.63,51.63,0,0,0-12.22-8.94,51.52,51.52,0,0,0-57,6.21l-1.44,1.24-1.38,1.31a17.88,17.88,0,0,0-1.28,1.35l-1.24,1.38-.63.68c-.2.23-.36.49-.55.74l-1.09,1.49-.55.74-.28.37-.23.4-.94,1.59a40.14,40.14,0,0,0,1.18,42.06l2.19,3c.77,1,1.64,1.84,2.45,2.77a11,11,0,0,0,1.3,1.26l1.32,1.2c.44.4.95.71,1.42,1.08s.94.72,1.44,1A31.53,31.53,0,0,0,636.07,417a11.86,11.86,0,0,0,1.78.14l1.78.09,1.78-.09a13.05,13.05,0,0,0,1.77-.13,27.43,27.43,0,0,0,3.51-.63l1.73-.41,1.68-.59a31.91,31.91,0,0,0,6.37-3.13c.5-.32.95-.7,1.44-1s1-.67,1.42-1.07l1.32-1.2a10.42,10.42,0,0,0,1.26-1.22l1.14-1.26,1-1.36c.16-.23.35-.45.5-.69l.42-.73c.27-.5.61-1,.84-1.48a24.53,24.53,0,0,0,2.16-6.4,25.18,25.18,0,0,0,.26-6.77,25.52,25.52,0,0,0-1.68-6.56,26.14,26.14,0,0,0-3.47-5.81,20.49,20.49,0,0,0-4.86-4.32,17.56,17.56,0,0,0-5.89-2.32,17.83,17.83,0,0,0-12.3,2.12,8.88,8.88,0,0,0-1.33.86,12.12,12.12,0,0,0-1.26,1c-.38.37-.83.71-1.16,1.08l-.49.55-.25.27-.21.29A12.41,12.41,0,0,0,633,381.4c-.08.48-.11,1-.16,1.45v.73a3.56,3.56,0,0,0,0,.73,13.74,13.74,0,0,0,.11,1.44l.06.73q.07.36.12.72a13,13,0,0,0,2.15,5.54,11.75,11.75,0,0,0,1.92,2.23,9.48,9.48,0,0,0,2.42,1.59,10.48,10.48,0,0,0,1.38.56,12.22,12.22,0,0,0,1.48.34,10.38,10.38,0,0,0,3.1.06,11.72,11.72,0,0,0,5.89-2.53,9.19,9.19,0,0,0,3.23-5.51,9.75,9.75,0,0,0-1.24-6.78,9.09,9.09,0,0,0-2.37-2.75,8.7,8.7,0,0,0-3.41-1.55A9.38,9.38,0,0,0,640,380.32Z"/><path class="cls-3" d="M608.39,462.52a10.37,10.37,0,0,0-6.92,3.64,9.38,9.38,0,0,0-2.15,6.9,13.6,13.6,0,0,0,.89,3.51,11.57,11.57,0,0,0,1.86,3,10.29,10.29,0,0,0,2.62,2.18,9.9,9.9,0,0,0,3,1.22,10.36,10.36,0,0,0,3.18.21c.54-.07,1.11-.15,1.64-.26a14.29,14.29,0,0,0,1.58-.46l.76-.27.73-.35A13.49,13.49,0,0,0,617,481a13,13,0,0,0,2.37-2.07,12.06,12.06,0,0,0,2.79-5.32,12.55,12.55,0,0,0-.1-5.9,17.43,17.43,0,0,0-2.44-5.49,17.1,17.1,0,0,0-3.89-4.47,14.42,14.42,0,0,0-5.38-2.51,13.51,13.51,0,0,0-3-.39,10.52,10.52,0,0,0-1.58,0,9.63,9.63,0,0,0-1.61.14,18.67,18.67,0,0,0-6.14,1.86,20,20,0,0,0-11.06,15,21.52,21.52,0,0,0-.27,3.22l.09,1.71,0,.85c0,.29.08.57.12.85l.26,1.68c.1.56.28,1.1.41,1.66a24.39,24.39,0,0,0,1.06,3.23,26.34,26.34,0,0,0,3.37,5.9,27.46,27.46,0,0,0,2.21,2.61c.37.43.83.77,1.24,1.17a13.5,13.5,0,0,0,1.29,1.11l1.37,1c.45.36,1,.6,1.44.91a24.84,24.84,0,0,0,3,1.59c.5.27,1.06.4,1.58.62a15.27,15.27,0,0,0,1.61.55,27.08,27.08,0,0,0,3.33.73c.56.07,1.12.2,1.69.24l1.7.08c.29,0,.57,0,.86,0l.89-.05,1.78-.09.89,0,.88-.14,1.76-.27c.29-.05.59-.07.88-.14l.86-.23,1.72-.44a34.48,34.48,0,0,0,12.48-6.62,35,35,0,0,0,8.79-11.08A34.6,34.6,0,0,0,648,468.9l.09-1.78c0-.6,0-1.23,0-1.84s-.06-1.22-.1-1.83-.09-1.23-.18-1.83a41,41,0,0,0-1.45-7.2,45,45,0,0,0-29.59-30.31,45.61,45.61,0,0,0-14.53-2.05,52.22,52.22,0,0,0-14.67,2.37,48.86,48.86,0,0,0-13.21,6.62,50.87,50.87,0,0,0-10.74,10.24,53.32,53.32,0,0,0-7.35,12.95,50.9,50.9,0,0,0-2.57,29.3,50.62,50.62,0,0,0,5.13,13.94c.56,1.11,1.24,2.1,1.85,3.16.28.51.74,1.11,1.12,1.66L563,504l4.75,6.79c6.35,9,12.64,18.11,19,27.12,1.62,2.23,3.32,4.42,4.75,6.78l4.27,7.12,8.51,14.27-6.38-.2c2.73-3,5.46-5.94,8.23-8.87l8.29-8.84q4.13-4.42,8.32-8.8l8.37-8.76-6.67,10.12q-3.33,5.06-6.73,10.07l-6.76,10c-2.25,3.36-4.53,6.68-6.81,10L601.27,575l-3.53-4.35-10.5-12.92L582,551.26c-1.74-2.16-3.21-4.51-4.76-6.8-6.29-9.11-12.67-18.15-19-27.23l-4.76-6.81-1.19-1.7c-.39-.58-.79-1.08-1.19-1.78-.79-1.33-1.65-2.63-2.35-4a62.23,62.23,0,0,1-7.35-35.25A63.19,63.19,0,0,1,545.58,450a64.77,64.77,0,0,1,9-15.79,62.63,62.63,0,0,1,13.18-12.57,60.35,60.35,0,0,1,16.33-8.16,63.59,63.59,0,0,1,18-2.92,56.06,56.06,0,0,1,34.56,10.91,56.32,56.32,0,0,1,20.77,29.73,53.65,53.65,0,0,1,1.83,9c.11.76.16,1.53.21,2.3s.13,1.53.13,2.3.06,1.53,0,2.31l-.11,2.36a46,46,0,0,1-4.86,18.16,46.54,46.54,0,0,1-11.69,14.71,45.75,45.75,0,0,1-16.61,8.81l-2.3.6-1.15.29c-.38.09-.77.13-1.16.2l-2.34.35-1.17.18-1.18.07-2.36.12-1.18.05c-.4,0-.81,0-1.22-.05l-2.43-.12c-.81-.06-1.61-.22-2.42-.33a35.52,35.52,0,0,1-4.76-1.06,20.9,20.9,0,0,1-2.31-.78c-.76-.3-1.55-.52-2.27-.89a36.23,36.23,0,0,1-4.32-2.27,23.14,23.14,0,0,1-2.06-1.31l-1.95-1.46a21.42,21.42,0,0,1-1.85-1.58c-.59-.56-1.23-1.07-1.77-1.68a36,36,0,0,1-3.16-3.71,36.64,36.64,0,0,1-6.35-13.09c-.19-.79-.43-1.57-.58-2.37l-.37-2.41c-.06-.41-.13-.81-.17-1.21l-.06-1.22-.12-2.43a34,34,0,0,1,.4-5A31.47,31.47,0,0,1,593,446.59a30,30,0,0,1,9.65-2.92,19.5,19.5,0,0,1,2.52-.23,21.73,21.73,0,0,1,2.56,0,25.78,25.78,0,0,1,5.24.69,26.94,26.94,0,0,1,9.55,4.41,25,25,0,0,1,7.17,7.72,24.12,24.12,0,0,1,3,10,22.66,22.66,0,0,1-1.48,10.46,20.71,20.71,0,0,1-6.21,8.4,21.32,21.32,0,0,1-4.37,2.73,20.74,20.74,0,0,1-2.38.9l-1.22.36-1.25.25a19,19,0,0,1-2.49.29c-.84,0-1.66,0-2.5,0a16.8,16.8,0,0,1-5-1.18,15.63,15.63,0,0,1-4.25-2.61,15,15,0,0,1-3.18-3.71,15.46,15.46,0,0,1-1.84-4.41,15.69,15.69,0,0,1-.36-4.67,11.68,11.68,0,0,1,4.12-8A10.82,10.82,0,0,1,608.39,462.52Z"/><path class="cls-4" d="M920.63,380.32A9.38,9.38,0,0,0,913,378.4,8.7,8.7,0,0,0,909.6,380a9.09,9.09,0,0,0-2.37,2.75,9.81,9.81,0,0,0-1.25,6.78,9.2,9.2,0,0,0,3.24,5.51,11.72,11.72,0,0,0,5.89,2.53,10.38,10.38,0,0,0,3.1-.06,12.67,12.67,0,0,0,1.48-.34,10.48,10.48,0,0,0,1.38-.56,9.66,9.66,0,0,0,2.42-1.59,11.75,11.75,0,0,0,1.92-2.23,13.13,13.13,0,0,0,2.14-5.54c0-.24.08-.48.13-.72l.06-.73a13.74,13.74,0,0,0,.11-1.44,3.56,3.56,0,0,0,0-.73v-.73c-.05-.48-.08-1-.16-1.45a12.41,12.41,0,0,0-2.38-5.28l-.21-.29-.25-.27-.5-.55c-.32-.37-.78-.71-1.15-1.08a12.12,12.12,0,0,0-1.26-1,8.88,8.88,0,0,0-1.33-.86,17.54,17.54,0,0,0-18.2.2,20.89,20.89,0,0,0-4.86,4.32,26.48,26.48,0,0,0-3.46,5.81,23.63,23.63,0,0,0-1.43,13.33,24.93,24.93,0,0,0,2.17,6.4c.22.52.56,1,.83,1.48l.43.73c.15.24.34.46.5.69l1,1.36,1.14,1.26a10.42,10.42,0,0,0,1.26,1.22l1.32,1.2c.44.4.95.71,1.42,1.07s.94.73,1.44,1a31.65,31.65,0,0,0,6.37,3.13l1.68.59,1.73.41a27.59,27.59,0,0,0,3.5.63,13.32,13.32,0,0,0,1.78.13l1.78.09,1.78-.09a11.63,11.63,0,0,0,1.77-.14,31.57,31.57,0,0,0,13.28-4.77c.5-.32,1-.7,1.44-1s1-.68,1.42-1.08l1.32-1.2a10.22,10.22,0,0,0,1.29-1.26c.81-.93,1.68-1.81,2.46-2.77l2.19-3a40.26,40.26,0,0,0,6.07-28.23,39.79,39.79,0,0,0-4.9-13.83l-.93-1.59-.23-.4-.28-.37-.55-.74-1.09-1.49c-.19-.25-.35-.51-.56-.74l-.62-.68-1.24-1.38a18,18,0,0,0-1.29-1.35L941,349.76l-1.44-1.24a51.5,51.5,0,0,0-57-6.21,52,52,0,0,0-12.23,8.94,65.56,65.56,0,0,0-9.66,12.11,63.42,63.42,0,0,0-6.57,14A65,65,0,0,0,851,392.58a65.89,65.89,0,0,0,.53,15.5c.23,1.28.41,2.56.71,3.82l.42,1.9.54,1.86c.74,2.48,1.73,4.87,2.47,7.36a67.44,67.44,0,0,0,6.47,14.3c.69,1.13,1.44,2.23,2.16,3.35s1.53,2.16,2.4,3.23c1.76,2.1,3.44,4.43,5.13,6.71L882,464.28c3.33,4.6,6.69,9.15,10,13.76-4.16-3.83-8.25-7.73-12.37-11.58L867.35,454.8c-2-1.94-4-3.89-6.2-5.82-1.07-1-2.1-2.08-3.16-3.12s-2-2.21-3-3.35a77.89,77.89,0,0,1-9.92-15.15,39.91,39.91,0,0,1-1.73-4.23c-.44-1.45-.89-2.91-1.24-4.39l-.56-2.21-.49-2.23c-.36-1.48-.58-3-.84-4.48a77.92,77.92,0,0,1-.63-18.18,76.5,76.5,0,0,1,3.63-17.84,75.09,75.09,0,0,1,7.71-16.49,77.12,77.12,0,0,1,11.36-14.22,67.57,67.57,0,0,1,7.06-6,68.83,68.83,0,0,1,7.89-4.91,63,63,0,0,1,69.67,7.59,54,54,0,0,1,12.15,14.31,51.61,51.61,0,0,1-1.53,54.13L954.73,412c-1,1.22-2.1,2.37-3.15,3.55a17.13,17.13,0,0,1-1.72,1.68l-1.81,1.63c-.61.55-1.29,1-1.94,1.49s-1.3,1-2,1.42a43.14,43.14,0,0,1-18.23,6.56,42.36,42.36,0,0,1-35.47-12.79l-1.68-1.88c-.52-.66-1-1.34-1.51-2-.24-.34-.51-.67-.73-1l-.65-1.08c-.41-.74-.89-1.44-1.24-2.2a36.28,36.28,0,0,1-3.22-9.54,35.19,35.19,0,0,1,2.12-19.8,37.34,37.34,0,0,1,5.17-8.65l1.68-1.87c.29-.31.55-.63.87-.92l1-.88,1-.88c.33-.28.7-.53,1-.79a18.75,18.75,0,0,1,2.16-1.48,29.12,29.12,0,0,1,30-.34,19,19,0,0,1,2.21,1.43,21.59,21.59,0,0,1,2.06,1.62c.65.6,1.31,1.13,1.93,1.8l.92,1,.46.51.41.55a25.7,25.7,0,0,1,4.61,9.94,21.14,21.14,0,0,1-.23,10.94,23.46,23.46,0,0,1-5.45,9.38l-1,.94a11.41,11.41,0,0,1-1,.92l-1.1.87-1.17.77a18.51,18.51,0,0,1-5.07,2.24,20.58,20.58,0,0,1-2.68.56,19,19,0,0,1-2.71.14,18.59,18.59,0,0,1-13.92-6.44,14.79,14.79,0,0,1-3.54-9.57,13.93,13.93,0,0,1,3.36-9.1,12,12,0,0,1,3.78-3,10.71,10.71,0,0,1,4.54-1.06,10.2,10.2,0,0,1,4.39,1A9.84,9.84,0,0,1,920.63,380.32Z"/><path class="cls-4" d="M1000.69,380.32a9.65,9.65,0,0,1,3.39-2.65,10.16,10.16,0,0,1,4.38-1,10.75,10.75,0,0,1,4.55,1.06,12.05,12.05,0,0,1,3.77,3,13.82,13.82,0,0,1,3.36,9.1,14.73,14.73,0,0,1-3.54,9.57,18.55,18.55,0,0,1-13.91,6.44,19.07,19.07,0,0,1-2.72-.14,20.93,20.93,0,0,1-2.68-.56,18.64,18.64,0,0,1-5.07-2.24l-1.17-.77-1.09-.87a11.58,11.58,0,0,1-1-.92l-1-.94a23.58,23.58,0,0,1-5.45-9.38,21.25,21.25,0,0,1-.23-10.94,25.7,25.7,0,0,1,4.61-9.94l.41-.55.46-.51.92-1c.62-.67,1.28-1.2,1.93-1.8a21.72,21.72,0,0,1,2.07-1.62,18.84,18.84,0,0,1,2.2-1.43,29,29,0,0,1,30,.34,19.78,19.78,0,0,1,2.17,1.48c.35.26.71.51,1.05.79l1,.88,1,.88a12.49,12.49,0,0,1,.87.92l1.69,1.87a37.69,37.69,0,0,1,5.17,8.65,35,35,0,0,1-1.1,29.34c-.36.76-.83,1.46-1.25,2.2l-.64,1.08c-.23.36-.49.69-.73,1-.5.68-1,1.36-1.51,2l-1.69,1.88a42.36,42.36,0,0,1-35.47,12.79,43,43,0,0,1-18.22-6.56c-.68-.45-1.32-1-2-1.42s-1.33-.94-1.93-1.49l-1.82-1.63a19.55,19.55,0,0,1-1.72-1.68c-1.05-1.18-2.15-2.33-3.15-3.55l-2.81-3.83a51.63,51.63,0,0,1-1.52-54.13,53.8,53.8,0,0,1,12.14-14.31,63,63,0,0,1,69.68-7.59,69.58,69.58,0,0,1,7.88,4.91,66.56,66.56,0,0,1,7.06,6,76.71,76.71,0,0,1,11.36,14.22,75.12,75.12,0,0,1,7.72,16.49,76.49,76.49,0,0,1,3.62,17.84,77.37,77.37,0,0,1-.63,18.18c-.26,1.5-.48,3-.83,4.48l-.49,2.23-.56,2.21c-.35,1.48-.8,2.94-1.25,4.39a37.9,37.9,0,0,1-1.73,4.23,77.85,77.85,0,0,1-9.91,15.15c-1,1.14-2,2.24-3,3.35s-2.09,2.15-3.16,3.12c-2.18,1.93-4.16,3.88-6.2,5.82l-12.22,11.66c-4.12,3.85-8.2,7.75-12.37,11.58,3.28-4.61,6.64-9.16,10-13.76l10.12-13.67c1.69-2.28,3.37-4.61,5.13-6.71.87-1.07,1.59-2.16,2.39-3.23s1.48-2.22,2.16-3.35a68,68,0,0,0,6.48-14.3c.74-2.49,1.72-4.88,2.46-7.36l.54-1.86.42-1.9c.31-1.26.49-2.54.71-3.82a65.9,65.9,0,0,0,.54-15.5,64.55,64.55,0,0,0-3.09-15.19,63.84,63.84,0,0,0-6.56-14,65.61,65.61,0,0,0-9.67-12.11,56.45,56.45,0,0,0-5.78-4.92,57.24,57.24,0,0,0-6.44-4,51.52,51.52,0,0,0-57,6.21l-1.44,1.24L979,351.07a17.88,17.88,0,0,0-1.28,1.35l-1.25,1.38-.62.68c-.2.23-.37.49-.55.74l-1.1,1.49-.55.74-.27.37-.23.4-.94,1.59a40.16,40.16,0,0,0,1.17,42.06l2.19,3c.78,1,1.65,1.84,2.46,2.77a11.75,11.75,0,0,0,1.29,1.26l1.32,1.2c.44.4.95.71,1.42,1.08s1,.72,1.44,1A31.57,31.57,0,0,0,996.73,417a11.76,11.76,0,0,0,1.78.14l1.78.09,1.78-.09a13.05,13.05,0,0,0,1.77-.13,27.75,27.75,0,0,0,3.51-.63l1.73-.41,1.68-.59a31.57,31.57,0,0,0,6.36-3.13c.5-.32,1-.7,1.45-1s1-.67,1.42-1.07l1.32-1.2a10.33,10.33,0,0,0,1.25-1.22l1.15-1.26,1-1.36c.16-.23.35-.45.49-.69l.43-.73c.27-.5.61-1,.84-1.48a24.9,24.9,0,0,0,2.16-6.4,23.74,23.74,0,0,0-1.42-13.33,26.52,26.52,0,0,0-3.47-5.81,20.69,20.69,0,0,0-4.86-4.32A17.56,17.56,0,0,0,1013,370a17.88,17.88,0,0,0-6.36-.05,17.69,17.69,0,0,0-5.94,2.17,9,9,0,0,0-1.34.86,13.15,13.15,0,0,0-1.25,1c-.38.37-.83.71-1.16,1.08l-.49.55-.25.27-.22.29a12.53,12.53,0,0,0-2.38,5.28c-.08.48-.1,1-.16,1.45v.73a4.45,4.45,0,0,0,0,.73c0,.48,0,1,.11,1.44l.07.73c.05.24.08.48.12.72a13.13,13.13,0,0,0,2.14,5.54,11.78,11.78,0,0,0,1.93,2.23,9.6,9.6,0,0,0,2.41,1.59,11.21,11.21,0,0,0,1.39.56,11.8,11.8,0,0,0,1.48.34,10.38,10.38,0,0,0,3.1.06,11.72,11.72,0,0,0,5.89-2.53,9.19,9.19,0,0,0,3.23-5.51,9.8,9.8,0,0,0-1.24-6.78,9.09,9.09,0,0,0-2.37-2.75,8.68,8.68,0,0,0-3.42-1.55A9.37,9.37,0,0,0,1000.69,380.32Z"/><path class="cls-4" d="M969.05,462.52a10.37,10.37,0,0,0-6.92,3.64,9.38,9.38,0,0,0-2.15,6.9,13.59,13.59,0,0,0,.88,3.51,11.6,11.6,0,0,0,1.87,3,10.42,10.42,0,0,0,2.61,2.18,10.06,10.06,0,0,0,3.06,1.22,10.34,10.34,0,0,0,3.18.21c.54-.07,1.1-.15,1.64-.26a14.29,14.29,0,0,0,1.58-.46l.76-.27.73-.35a14.63,14.63,0,0,0,1.39-.79,12.65,12.65,0,0,0,2.36-2.07,12.06,12.06,0,0,0,2.79-5.32,12.42,12.42,0,0,0-.1-5.9,17.41,17.41,0,0,0-2.43-5.49,17.1,17.1,0,0,0-3.89-4.47,14.47,14.47,0,0,0-5.39-2.51,13.35,13.35,0,0,0-3-.39,10.52,10.52,0,0,0-1.58,0,9.54,9.54,0,0,0-1.61.14,18.6,18.6,0,0,0-6.14,1.86,20,20,0,0,0-11.06,15,21.52,21.52,0,0,0-.27,3.22l.09,1.71,0,.85c0,.29.08.57.12.85l.26,1.68c.1.56.27,1.1.4,1.66a26,26,0,0,0,1.07,3.23,26.34,26.34,0,0,0,3.37,5.9,26.06,26.06,0,0,0,2.21,2.61c.37.43.83.77,1.24,1.17a12.38,12.38,0,0,0,1.29,1.11l1.37,1a15.21,15.21,0,0,0,1.44.91,24.71,24.71,0,0,0,3,1.59,16.9,16.9,0,0,0,1.59.62,15.27,15.27,0,0,0,1.61.55,26.69,26.69,0,0,0,3.33.73c.56.07,1.12.2,1.68.24l1.71.08c.29,0,.57,0,.86,0l.89-.05,1.78-.09.89,0,.88-.14,1.76-.27c.29-.05.59-.07.87-.14l.86-.23,1.72-.44a34.52,34.52,0,0,0,12.49-6.62,35,35,0,0,0,8.79-11.08,34.59,34.59,0,0,0,3.64-13.63l.1-1.78c0-.6,0-1.23,0-1.84s-.06-1.22-.11-1.83-.08-1.23-.17-1.83a42.92,42.92,0,0,0-1.45-7.2,45,45,0,0,0-29.59-30.31,45.61,45.61,0,0,0-14.53-2.05,52.22,52.22,0,0,0-14.67,2.37A49.06,49.06,0,0,0,935,431.05a51.35,51.35,0,0,0-10.74,10.24,53.29,53.29,0,0,0-7.34,12.95,51.42,51.42,0,0,0-3.45,14.49,50.9,50.9,0,0,0,6,28.75c.57,1.11,1.25,2.1,1.86,3.16.27.51.74,1.11,1.11,1.66l1.19,1.7,4.75,6.79c6.34,9,12.64,18.11,19,27.12,1.63,2.23,3.33,4.42,4.76,6.78l4.27,7.12,8.51,14.27-6.39-.2c2.74-3,5.47-5.94,8.24-8.87l8.28-8.84q4.14-4.42,8.32-8.8l8.38-8.76-6.67,10.12q-3.35,5.06-6.73,10.07l-6.77,10c-2.24,3.36-4.52,6.68-6.81,10L961.93,575l-3.53-4.35-10.51-12.92-5.24-6.47c-1.74-2.16-3.21-4.51-4.75-6.8-6.29-9.11-12.68-18.15-19-27.23l-4.76-6.81-1.19-1.7c-.4-.58-.79-1.08-1.19-1.78-.79-1.33-1.66-2.63-2.36-4A62.45,62.45,0,0,1,902,467.71a63.21,63.21,0,0,1,4.2-17.67,64.77,64.77,0,0,1,9-15.79,62.63,62.63,0,0,1,13.18-12.57,60.35,60.35,0,0,1,16.33-8.16,63.59,63.59,0,0,1,18-2.92,56.06,56.06,0,0,1,34.56,10.91A56.37,56.37,0,0,1,1018,451.24a53.63,53.63,0,0,1,1.82,9c.11.76.16,1.53.22,2.3s.13,1.53.13,2.3.06,1.53,0,2.31l-.11,2.36a46,46,0,0,1-33.17,41.68l-2.29.6-1.15.29c-.38.09-.78.13-1.16.2l-2.34.35-1.18.18-1.17.07-2.36.12-1.18.05c-.41,0-.81,0-1.22-.05l-2.43-.12c-.81-.06-1.61-.22-2.42-.33a35.18,35.18,0,0,1-4.76-1.06,21.8,21.8,0,0,1-2.32-.78c-.75-.3-1.54-.52-2.27-.89a37.83,37.83,0,0,1-4.32-2.27c-.68-.43-1.41-.81-2-1.31l-2-1.46a21.42,21.42,0,0,1-1.85-1.58c-.58-.56-1.23-1.07-1.76-1.68a36,36,0,0,1-3.16-3.71,38.23,38.23,0,0,1-4.82-8.45,35,35,0,0,1-1.53-4.64c-.2-.79-.43-1.57-.58-2.37l-.37-2.41c-.06-.41-.13-.81-.17-1.21l-.07-1.22-.11-2.43a34,34,0,0,1,.4-5,31.5,31.5,0,0,1,17.35-23.5,30.1,30.1,0,0,1,9.66-2.92,19.34,19.34,0,0,1,2.52-.23,21.66,21.66,0,0,1,2.56,0,25.59,25.59,0,0,1,5.23.69,27,27,0,0,1,9.56,4.41,25.08,25.08,0,0,1,7.17,7.72,24.27,24.27,0,0,1,3,10,22.66,22.66,0,0,1-1.48,10.46,20.8,20.8,0,0,1-6.21,8.4,21.59,21.59,0,0,1-4.37,2.73,20.89,20.89,0,0,1-2.39.9l-1.22.36-1.24.25a19.14,19.14,0,0,1-2.5.29c-.83,0-1.65,0-2.49,0a16.72,16.72,0,0,1-5-1.18,15.63,15.63,0,0,1-4.25-2.61,15,15,0,0,1-3.18-3.71,14.74,14.74,0,0,1-2.2-9.08,11.71,11.71,0,0,1,4.11-8A10.86,10.86,0,0,1,969.05,462.52Z"/></svg>