<svg id="Layer_1" data-name="Layer 1" xmlns="http://www.w3.org/2000/svg" viewBox="0 0 1200 900"><defs><style>.cls-1{fill:#f2f2f2;}.cls-2{fill:#3e3b39;}.cls-3{fill:#71bed3;}.cls-4{fill:#87725e;}.cls-5{fill:#7fae65;}</style></defs><rect class="cls-1" width="1200" height="900"/><path class="cls-2" d="M940.25,331.67a108.19,108.19,0,0,0-139.63-11.33,36.86,36.86,0,0,1,9.36-1.21,38.23,38.23,0,0,1,3.86.2,33.43,33.43,0,0,1,3.84.64A99.44,99.44,0,0,1,963.14,412.4l-34.45-26.16-25.23,18.92-39.68-49.23L824.1,405.16l-25.22-18.92L764.43,412.4a99.26,99.26,0,0,1,26.24-71.73c.87-.94,1.76-1.87,2.68-2.79l.18-.19.09-.08h0l.22-.22.36-.35a24,24,0,0,1,3.08-2.43q.56-.37,1.14-.72a24.46,24.46,0,0,1,3.64-1.77c.4-.15.8-.3,1.2-.43l.39-.12.83-.25.47-.12.78-.18.49-.11.78-.14.49-.08.84-.11.43-.05c.37,0,.75-.06,1.12-.08H810c.42,0,.85,0,1.27,0s1,0,1.46,0a25.11,25.11,0,0,1,10.49,3.11l1.21.68,1.14.79c.18.14.38.27.57.4a4.44,4.44,0,0,1,.55.42l1.06.91a20.83,20.83,0,0,1,2,1.92,6.33,6.33,0,0,1,.57.69c.09.12.18.25.28.36l.27.36a6.17,6.17,0,0,1,.52.74l.72,1.15c.22.4.4.81.61,1.21l.3.61.24.64c.16.43.33.85.48,1.28a23.92,23.92,0,0,1,.63,2.66,20.72,20.72,0,0,1,.3,2.73c0,.69,0,1.38,0,2.07a20.41,20.41,0,0,1-1.35,6.05c-.17.43-.36.85-.56,1.27s-.42.83-.65,1.23a13.54,13.54,0,0,1-1.12,1.77l-.4.57c-.28.38-.6.71-.9,1.07a8.43,8.43,0,0,1-1,1c-.33.3-.64.65-1,.92l-1.08.84-1.16.72a5.7,5.7,0,0,1-.6.32c-.2.1-.41.19-.61.3h0c-.36.17-.74.32-1.12.46l-.26.1c-.38.13-.76.26-1.15.36l-.15,0-1.08.24-.25.05c-.4.07-.8.13-1.2.17l-.23,0c-.36,0-.71.05-1.07.05h-.22c-.41,0-.82,0-1.24,0l-.28,0c-.33,0-.65-.06-1-.11l-.34-.06c-.41-.07-.82-.15-1.22-.26a16.59,16.59,0,0,1-5.08-2.28c-.12-.1-.26-.18-.38-.27a5.85,5.85,0,0,1-.75-.56l-1.07-.93c-.31-.33-.64-.65-.94-1l-.42-.54c-.14-.18-.28-.36-.41-.56a12.72,12.72,0,0,1-1.72-3.74,14.24,14.24,0,0,1-.35-1.7c-.06-.43-.1-.87-.12-1.3a12.65,12.65,0,0,1,1.45-6.53,13.5,13.5,0,0,1,1.56-2.35,11.7,11.7,0,0,1,1-1l.51-.47a9.72,9.72,0,0,1,1.12-.82,9.06,9.06,0,0,1,1.87-.93q.39-.15.81-.27l.24-.07.63-.14.23,0,.84-.11h.11l.75,0h.27l.59,0h.25l.82.1h0a11.28,11.28,0,0,1,2,.58,10.07,10.07,0,0,1,1.29.6,10.28,10.28,0,0,1,1.76,1.23,8.44,8.44,0,0,1,2.87,4.75c.05.23.09.46.12.7a8.85,8.85,0,0,1-.13,2.84c0,.24-.11.47-.17.7a9.06,9.06,0,0,1-.52,1.34q-.16.32-.36.63a6.25,6.25,0,0,1-.4.6,9,9,0,0,1-.94,1.09,6.82,6.82,0,0,1-2.41,1.51c-.21.08-.42.14-.64.2l-.21,0-.45.09-.24,0-.43,0H816v1.23l.31,0h0a6.12,6.12,0,0,0,.74,0l.2,0a5.4,5.4,0,0,0,.58-.09l.22,0c.25-.06.5-.12.74-.2a5.6,5.6,0,0,0,.81-.3,8.52,8.52,0,0,0,1.5-.85c.23-.17.46-.35.67-.54a10.22,10.22,0,0,0,3.26-9.35,10.64,10.64,0,0,0-1.59-4,10.06,10.06,0,0,0-1.7-2,12.64,12.64,0,0,0-1.33-1.09,10.62,10.62,0,0,0-1.48-.9,13.36,13.36,0,0,0-3.25-1.2c-.41-.08-.83-.14-1.25-.19l-.26,0q-.61-.06-1.23-.06h-.31l-.64,0-.36,0-.62.07-.35.06c-.22,0-.44.08-.65.13l-.31.07a8.14,8.14,0,0,0-.93.27h0a12.84,12.84,0,0,0-4.56,2.62,14.4,14.4,0,0,0-1.24,1.23,16,16,0,0,0-1.59,2.07q-.3.45-.57.93a16.09,16.09,0,0,0-1.3,3,16.7,16.7,0,0,0,1.7,13.61c.3.51.67,1,1,1.47s.77.9,1.16,1.35l1.27,1.2a15.83,15.83,0,0,0,1.36,1.09,20.83,20.83,0,0,0,6.26,3.15c.52.16,1.06.29,1.59.41l.52.09c.37.07.74.14,1.11.19l.62.06c.34,0,.69.07,1,.08l.63,0h.39c.36,0,.71,0,1.07,0h.09c.52,0,1-.08,1.55-.15l.22,0q.76-.1,1.53-.27l.29-.07c.5-.11,1-.24,1.49-.4l.24-.07c.52-.17,1-.35,1.53-.56s1.1-.46,1.63-.74l1.56-.89,1.46-1c.49-.35.92-.77,1.38-1.15a13.53,13.53,0,0,0,1.26-1.25c.39-.43.82-.84,1.18-1.29.53-.7,1.09-1.39,1.59-2.12.16-.24.32-.49.46-.75a23.8,23.8,0,0,0,1.67-3.11,25.94,25.94,0,0,0,1.21-3.33,26.77,26.77,0,0,0,1-7,26.48,26.48,0,0,0-.22-3.56,30.19,30.19,0,0,0-.68-3.51c-.16-.57-.36-1.14-.55-1.71l-.28-.85-.36-.82c-.25-.55-.48-1.11-.75-1.64l-.44-.79-.44-.78a14.51,14.51,0,0,0-1-1.51c-.18-.24-.34-.49-.52-.74s-.35-.48-.55-.71c-.39-.45-.78-.92-1.18-1.36a13.53,13.53,0,0,0-1.25-1.26l-.65-.6-.64-.61c-.14-.13-.3-.25-.45-.37l-.39-.31-.54-.42-1.41-1.07-1.5-.94c-.5-.3-1-.6-1.54-.88a31.3,31.3,0,0,0-3.21-1.51,32.32,32.32,0,0,0-5.09-1.6,31.91,31.91,0,0,0-3.52-.59l-.89-.07-.86-.06-.59,0c-.38,0-.75,0-1.13,0h-.29c-.46,0-.92,0-1.38,0l-.51,0-1.18.1-.47,0c-.53.06-1.06.13-1.59.22l-.15,0-1.45.28-.48.11-1.15.29-.47.13c-.52.15-1,.31-1.55.48h0a33,33,0,0,0-5,2.15c-.54.29-1.06.59-1.58.9a34.11,34.11,0,0,0-4.39,3.19c-.44.37-.86.76-1.28,1.16L787,332h0c-.85.86-1.68,1.72-2.49,2.6a108.14,108.14,0,1,0,155.7-2.88ZM934.14,478.5a99.47,99.47,0,0,1-166-42.89c23.26-3,43.9-.45,61.37,7.56,10.63,4.88,17.64,10.5,24.42,15.92,8,6.41,15.57,12.47,27.89,16.69a79.32,79.32,0,0,0,25.85,4.16,108.83,108.83,0,0,0,29.12-4.25C936,476.64,935.06,477.58,934.14,478.5Zm12.39-15.1c-23.38,8.84-44.2,10.25-61.88,4.19a65.53,65.53,0,0,1-18.83-10.21,112.1,112.1,0,0,1,93.06-20.06A98.81,98.81,0,0,1,946.53,463.4Zm14.52-34.46a120.88,120.88,0,0,0-102.26,22.93c-6.72-5.37-14.37-11.39-25.65-16.56-19.19-8.8-41.73-11.55-67-8.17-.3-1.53-.56-3.07-.78-4.6l33.53-25.46,26.69,20,38.18-47.38L902,417.09l26.68-20,33.54,25.46C961.88,424.68,961.5,426.82,961.05,428.94Z"/><path class="cls-2" d="M702.14,554.09a5.82,5.82,0,0,0,1.66-4.18,6.87,6.87,0,0,0-1.14-3.9,7.61,7.61,0,0,0-3.51-2.73,14.89,14.89,0,0,0-5.85-1H681.77v26.65h7.31V559h1.57a3.67,3.67,0,0,1,2.22.58,2.9,2.9,0,0,1,1,1.51,16.66,16.66,0,0,1,.47,2.62,28.17,28.17,0,0,0,.5,2.92,7.55,7.55,0,0,0,1,2.33h7.9a7.47,7.47,0,0,1-1.2-2.25,23,23,0,0,1-.71-2.91,21.19,21.19,0,0,0-.7-2.83,6.12,6.12,0,0,0-1.26-2.09,7,7,0,0,0-2.58-1.7v-.37A10.81,10.81,0,0,0,702.14,554.09Zm-6.9-1a4.38,4.38,0,0,1-2.68.69h-3.48v-5.58h3.19a6.36,6.36,0,0,1,2.23.33,2.49,2.49,0,0,1,1.26.93,2.63,2.63,0,0,1,.39,1.46A2.51,2.51,0,0,1,695.24,553.11Z"/><path class="cls-2" d="M738.53,562.87a15.56,15.56,0,0,0,1.6-7.21,17.41,17.41,0,0,0-1.43-7.3,10.76,10.76,0,0,0-4.3-4.86,13.44,13.44,0,0,0-7-1.73,13.74,13.74,0,0,0-7,1.73,11.48,11.48,0,0,0-4.55,4.86,15.7,15.7,0,0,0-1.57,7.17,17.54,17.54,0,0,0,1.43,7.34,10.6,10.6,0,0,0,4.28,4.83,13.33,13.33,0,0,0,7,1.72,13.8,13.8,0,0,0,7-1.72A11.44,11.44,0,0,0,738.53,562.87ZM732,559.44a5.39,5.39,0,0,1-1.75,2.58,4.82,4.82,0,0,1-3.1,1,4.63,4.63,0,0,1-4.9-3.53,14,14,0,0,1-.47-3.91,11.89,11.89,0,0,1,.53-3.76,5.34,5.34,0,0,1,1.74-2.56,4.86,4.86,0,0,1,3.1-1,5.12,5.12,0,0,1,3.26,1,5,5,0,0,1,1.68,2.58,14.23,14.23,0,0,1,.47,3.87A11.48,11.48,0,0,1,732,559.44Z"/><polygon class="cls-2" points="758.85 542.26 751.57 542.26 751.57 568.92 756.29 568.92 758.85 568.92 767.53 568.92 767.53 562.39 758.85 562.39 758.85 542.26"/><polygon class="cls-2" points="785.79 542.26 778.52 542.26 778.52 568.92 783.23 568.92 785.79 568.92 794.47 568.92 794.47 562.39 785.79 562.39 785.79 542.26"/><rect class="cls-2" x="805.47" y="542.27" width="7.27" height="26.66"/><polygon class="cls-2" points="847.5 542.26 840.76 542.26 840.76 558.76 840.35 558.76 838.9 555.16 833.16 542.26 824.98 542.26 824.98 568.92 831.71 568.92 831.71 553.05 832.13 553.05 833.57 556.69 838.99 568.92 847.5 568.92 847.5 542.26"/><path class="cls-2" d="M882.92,554.13H872v5.25h4a3.26,3.26,0,0,1-1.35,2.39,4.42,4.42,0,0,1-2.7.87,5.22,5.22,0,0,1-3-.81,5,5,0,0,1-1.86-2.37,10.28,10.28,0,0,1-.64-3.89,11.37,11.37,0,0,1,.62-4,5,5,0,0,1,1.84-2.45,5.22,5.22,0,0,1,3-.83,4.44,4.44,0,0,1,2.87.91,5.43,5.43,0,0,1,1.71,2.64l6.7-1.28a11.94,11.94,0,0,0-2.07-4.75,9.48,9.48,0,0,0-3.82-3,13.19,13.19,0,0,0-5.39-1,13.33,13.33,0,0,0-6.76,1.69,11.78,11.78,0,0,0-4.61,4.82,15.37,15.37,0,0,0-1.65,7.29,18.31,18.31,0,0,0,1.36,7.38,10.59,10.59,0,0,0,3.93,4.79,11,11,0,0,0,6.16,1.68,7.21,7.21,0,0,0,3.76-1,9.12,9.12,0,0,0,3-3.14h.33l1.49,3.63h4Z"/><polygon class="cls-2" points="925.32 557.68 925.32 568.92 932.6 568.92 932.6 542.26 925.32 542.26 925.32 551.94 917.59 551.94 917.59 542.26 910.32 542.26 910.32 568.92 917.59 568.92 917.59 557.68 925.32 557.68"/><rect class="cls-2" x="944.83" y="542.27" width="7.27" height="26.66"/><polygon class="cls-2" points="971.61 568.92 980.29 568.92 980.29 562.39 971.61 562.39 971.61 542.26 964.34 542.26 964.34 568.92 969.05 568.92 971.61 568.92"/><polygon class="cls-2" points="998.56 568.92 1007.24 568.92 1007.24 562.39 998.56 562.39 998.56 542.26 991.28 542.26 991.28 568.92 996 568.92 998.56 568.92"/><path class="cls-2" d="M1030,562.91a6.46,6.46,0,0,1-1.88.23,4.72,4.72,0,0,1-2.89-.83,4.25,4.25,0,0,1-1.53-2.6l-6.82,1.48a9,9,0,0,0,3.2,6q2.7,2.26,8,2.27a14.32,14.32,0,0,0,5.6-1,8,8,0,0,0,3.68-3.06,9.25,9.25,0,0,0,1.3-5,7.4,7.4,0,0,0-1.34-4.78,6.54,6.54,0,0,0-3.19-2.19,27.42,27.42,0,0,0-4.6-.89,21.68,21.68,0,0,1-2.63-.39,3.86,3.86,0,0,1-1.57-.7,1.62,1.62,0,0,1-.6-1.34,2.12,2.12,0,0,1,.39-1.31,2.29,2.29,0,0,1,1.12-.76,5.33,5.33,0,0,1,1.76-.25,5.23,5.23,0,0,1,2.12.37,3.16,3.16,0,0,1,1.35,1.08,4.52,4.52,0,0,1,.7,1.73l6.36-1.07a9.26,9.26,0,0,0-1.3-4.11,7.63,7.63,0,0,0-3.34-2.88,13.67,13.67,0,0,0-5.81-1.07,12.36,12.36,0,0,0-5.83,1.24,8.23,8.23,0,0,0-4.63,7.44,8.25,8.25,0,0,0,1.37,5.14,6.44,6.44,0,0,0,3.22,2.34,26.09,26.09,0,0,0,4.67.91c1.1.14,1.94.26,2.52.37a3.36,3.36,0,0,1,1.45.62,1.55,1.55,0,0,1,.58,1.28,1.69,1.69,0,0,1-.38,1.14A2.25,2.25,0,0,1,1030,562.91Z"/><path class="cls-2" d="M696.35,597.29a1.24,1.24,0,0,1-.5.1,1.1,1.1,0,0,1-.63-.17,1.75,1.75,0,0,1-.54-.61,14,14,0,0,1-.62-1.27,7,7,0,0,0-1.14-2.09,4.63,4.63,0,0,0-1.64-1.27,4,4,0,0,0-.9-.29,9,9,0,0,0,2.9-.46,4.2,4.2,0,0,0,2-1.44,4,4,0,0,0,.69-2.4,3.89,3.89,0,0,0-.7-2.37,4.21,4.21,0,0,0-2.12-1.43,11.45,11.45,0,0,0-3.52-.47h-9v1.64a14.3,14.3,0,0,1,1.5.15.77.77,0,0,1,.49.22,1,1,0,0,1,.1.55v11.38a1,1,0,0,1-.1.55.89.89,0,0,1-.49.22,14.3,14.3,0,0,1-1.5.15v1.64h7.92V598a15.45,15.45,0,0,1-1.56-.15,1.11,1.11,0,0,1-.51-.22.9.9,0,0,1-.13-.55V592h1.21a2.28,2.28,0,0,1,1.38.38,2.16,2.16,0,0,1,.73,1c.14.41.31,1,.5,1.76,0,.23.09.44.14.66a6.45,6.45,0,0,0,.16.67,12,12,0,0,0,.86,2.15,2.52,2.52,0,0,0,1,1.09A3.42,3.42,0,0,0,694,600a2.86,2.86,0,0,0,1.59-.4,2.55,2.55,0,0,0,1-1.07,4,4,0,0,0,.41-1.45l-.13-.1A1.31,1.31,0,0,1,696.35,597.29Zm-10-12.18h3a4.08,4.08,0,0,1,1.57.26,1.88,1.88,0,0,1,.91.8,3,3,0,0,1,.3,1.42,2.61,2.61,0,0,1-.34,1.45,2.1,2.1,0,0,1-1,.79,4.31,4.31,0,0,1-1.65.27h-2.74Z"/><path class="cls-2" d="M718.1,583.8a8,8,0,0,0-4.19-1.07,8.25,8.25,0,0,0-4.2,1.07,7.42,7.42,0,0,0-2.89,3,9.48,9.48,0,0,0-1.05,4.54,9.89,9.89,0,0,0,1,4.54,7,7,0,0,0,2.79,3,8,8,0,0,0,4.18,1.06,8.36,8.36,0,0,0,4.23-1.06,7.16,7.16,0,0,0,2.87-3,9.77,9.77,0,0,0,1-4.54,10,10,0,0,0-1-4.55A7,7,0,0,0,718.1,583.8Zm-.62,11.11a4.15,4.15,0,0,1-1.36,2.1,4.18,4.18,0,0,1-4.6,0,4.08,4.08,0,0,1-1.36-2.1,11.87,11.87,0,0,1-.45-3.56,11.7,11.7,0,0,1,.46-3.54,4.2,4.2,0,0,1,1.37-2.08,3.69,3.69,0,0,1,2.29-.69,3.64,3.64,0,0,1,2.3.69,4.13,4.13,0,0,1,1.35,2.07,12.07,12.07,0,0,1,.44,3.55A12.24,12.24,0,0,1,717.48,594.91Z"/><path class="cls-2" d="M742.53,593.12c-.31,1.41-.56,2.43-.74,3a2.62,2.62,0,0,1-.59,1.16,1.37,1.37,0,0,1-.92.26h-3.15V585.68a.74.74,0,0,1,.15-.55,1.19,1.19,0,0,1,.59-.22q.43-.07,1.77-.15v-1.64H731.4v1.64a14.6,14.6,0,0,1,1.51.15.77.77,0,0,1,.49.22,1,1,0,0,1,.1.55v11.38a1,1,0,0,1-.1.55.89.89,0,0,1-.49.22,14.6,14.6,0,0,1-1.51.15v1.64h13.12l0-6.5Z"/><path class="cls-2" d="M765.19,593.12c-.31,1.41-.55,2.43-.74,3a2.52,2.52,0,0,1-.59,1.16,1.35,1.35,0,0,1-.92.26h-3.15V585.68a.69.69,0,0,1,.16-.55,1.15,1.15,0,0,1,.59-.22c.29,0,.87-.1,1.76-.15v-1.64h-8.24v1.64a14.6,14.6,0,0,1,1.51.15.77.77,0,0,1,.49.22,1,1,0,0,1,.1.55v11.38a1,1,0,0,1-.1.55.89.89,0,0,1-.49.22,14.6,14.6,0,0,1-1.51.15v1.64h13.13l0-6.5Z"/><path class="cls-2" d="M789.11,593.5a26,26,0,0,1-.75,2.79,2.31,2.31,0,0,1-.58,1,1.41,1.41,0,0,1-.87.24h-4.45V592l4.34.13v-2.38l-4.34.12v-4.82h4.19a1.26,1.26,0,0,1,.83.23,2.19,2.19,0,0,1,.57,1c.17.49.43,1.4.75,2.71h1.92l0-5.91h-14v1.64a14.94,14.94,0,0,1,1.51.15.82.82,0,0,1,.48.22,1,1,0,0,1,.1.55V597a1,1,0,0,1-.1.55.76.76,0,0,1-.48.22,14.94,14.94,0,0,1-1.51.15v1.64h14.35L791,593.5Z"/><path class="cls-2" d="M812.82,584.08a11.73,11.73,0,0,0-5-1H801v1.64a14.94,14.94,0,0,1,1.51.15.76.76,0,0,1,.48.22,1,1,0,0,1,.1.55v11.38a1,1,0,0,1-.1.55.89.89,0,0,1-.48.22A14.94,14.94,0,0,1,801,598v1.64h6.7a11.56,11.56,0,0,0,4.93-1,7,7,0,0,0,3.21-2.86,9.67,9.67,0,0,0,.07-8.9A6.72,6.72,0,0,0,812.82,584.08Zm-.31,10.78a4,4,0,0,1-1.67,2.06,5.56,5.56,0,0,1-2.81.65h-1.27V585.11h1.12a5.8,5.8,0,0,1,2.93.66,3.94,3.94,0,0,1,1.7,2,8.81,8.81,0,0,1,.56,3.46A9.91,9.91,0,0,1,812.51,594.86Z"/><path class="cls-2" d="M842.64,583.12h-2.79v1.64a14.6,14.6,0,0,1,1.51.15.77.77,0,0,1,.49.22,1,1,0,0,1,.1.55v11.38a1,1,0,0,1-.1.55.89.89,0,0,1-.49.22,14.6,14.6,0,0,1-1.51.15v1.64h7.86V598a13.38,13.38,0,0,1-1.51-.15,1.07,1.07,0,0,1-.49-.22.9.9,0,0,1-.13-.55V585.68a.86.86,0,0,1,.13-.55.9.9,0,0,1,.49-.22,13.38,13.38,0,0,1,1.51-.15v-1.64h-5.07Z"/><path class="cls-2" d="M869.79,596a5.41,5.41,0,0,1-1.69,1,6,6,0,0,1-2.06.34,5,5,0,0,1-2.63-.64,4,4,0,0,1-1.65-2,8.46,8.46,0,0,1-.57-3.34,11,11,0,0,1,.48-3.52,4.42,4.42,0,0,1,1.38-2.08,3.35,3.35,0,0,1,2.1-.69,3,3,0,0,1,1.73.51,4.65,4.65,0,0,1,1.28,1.44,15.85,15.85,0,0,1,1.08,2.42h2v-6.62h-2l-.88,1.78a3.1,3.1,0,0,0-.69-.81,4,4,0,0,0-1.37-.76,5.38,5.38,0,0,0-1.74-.27,6.59,6.59,0,0,0-3.66,1.08,7.76,7.76,0,0,0-2.66,3,9.87,9.87,0,0,0-1,4.48,10.16,10.16,0,0,0,1,4.67,7,7,0,0,0,2.82,3,8.5,8.5,0,0,0,4.24,1,7.43,7.43,0,0,0,3-.58,4.8,4.8,0,0,0,2.12-1.81,5.51,5.51,0,0,0,.82-3l-.2-.13A6.17,6.17,0,0,1,869.79,596Z"/><path class="cls-2" d="M893.52,593.5a26,26,0,0,1-.75,2.79,2.31,2.31,0,0,1-.58,1,1.41,1.41,0,0,1-.87.24h-4.45V592l4.34.13v-2.38l-4.34.12v-4.82h4.19a1.28,1.28,0,0,1,.83.23,2.1,2.1,0,0,1,.56,1c.18.49.43,1.4.76,2.71h1.92l0-5.91h-14v1.64a14.3,14.3,0,0,1,1.5.15.82.82,0,0,1,.49.22,1,1,0,0,1,.1.55V597a1,1,0,0,1-.1.55.77.77,0,0,1-.49.22,14.3,14.3,0,0,1-1.5.15v1.64h14.35l-.08-6.09Z"/><path class="cls-2" d="M931.61,596a5.48,5.48,0,0,1-1.68,1,6.06,6.06,0,0,1-2.06.34,5.06,5.06,0,0,1-2.64-.64,4.11,4.11,0,0,1-1.65-2,8.46,8.46,0,0,1-.57-3.34,11,11,0,0,1,.48-3.52,4.42,4.42,0,0,1,1.38-2.08A3.35,3.35,0,0,1,927,585a2.94,2.94,0,0,1,1.73.51A4.65,4.65,0,0,1,930,587a14.92,14.92,0,0,1,1.08,2.42h2v-6.62h-2l-.88,1.78a2.92,2.92,0,0,0-.69-.81,4,4,0,0,0-1.37-.76,5.38,5.38,0,0,0-1.74-.27,6.53,6.53,0,0,0-3.65,1.08,7.61,7.61,0,0,0-2.66,3,9.75,9.75,0,0,0-1,4.48,10,10,0,0,0,1,4.67,7,7,0,0,0,2.81,3,8.5,8.5,0,0,0,4.24,1,7.4,7.4,0,0,0,3-.58,4.88,4.88,0,0,0,2.13-1.81,5.59,5.59,0,0,0,.81-3l-.2-.13A6.17,6.17,0,0,1,931.61,596Z"/><path class="cls-2" d="M958.65,597.29a1.24,1.24,0,0,1-.5.1,1.1,1.1,0,0,1-.63-.17,1.85,1.85,0,0,1-.53-.61,11.49,11.49,0,0,1-.63-1.27,7,7,0,0,0-1.14-2.09,4.63,4.63,0,0,0-1.64-1.27,4,4,0,0,0-.89-.29,9,9,0,0,0,2.89-.46,4.15,4.15,0,0,0,2-1.44,4,4,0,0,0,.69-2.4,3.89,3.89,0,0,0-.7-2.37,4.21,4.21,0,0,0-2.12-1.43,11.45,11.45,0,0,0-3.52-.47h-9v1.64a14.94,14.94,0,0,1,1.51.15.76.76,0,0,1,.48.22,1,1,0,0,1,.1.55v11.38a1,1,0,0,1-.1.55.89.89,0,0,1-.48.22A14.94,14.94,0,0,1,943,598v1.64h7.93V598a14.8,14.8,0,0,1-1.56-.15,1.11,1.11,0,0,1-.52-.22.91.91,0,0,1-.12-.55V592h1.2a2.28,2.28,0,0,1,1.38.38,2.16,2.16,0,0,1,.73,1c.14.41.31,1,.5,1.76,0,.23.1.44.14.66s.1.44.16.67a12,12,0,0,0,.86,2.15,2.52,2.52,0,0,0,1.05,1.09,3.42,3.42,0,0,0,1.55.32,2.9,2.9,0,0,0,1.6-.4,2.69,2.69,0,0,0,1-1.07,4.41,4.41,0,0,0,.41-1.45l-.13-.1A1.45,1.45,0,0,1,958.65,597.29Zm-10-12.18h2.94a4,4,0,0,1,1.57.26,1.83,1.83,0,0,1,.91.8,3,3,0,0,1,.31,1.42,2.61,2.61,0,0,1-.35,1.45,2.1,2.1,0,0,1-1,.79,4.31,4.31,0,0,1-1.65.27h-2.73Z"/><path class="cls-2" d="M980.25,593.5a26.63,26.63,0,0,1-.74,2.79,2.41,2.41,0,0,1-.59,1,1.37,1.37,0,0,1-.87.24H973.6V592l4.35.13v-2.38l-4.35.12v-4.82h4.19a1.31,1.31,0,0,1,.84.23,2.29,2.29,0,0,1,.56,1c.18.49.43,1.4.75,2.71h1.92l0-5.91h-14v1.64a14.94,14.94,0,0,1,1.51.15.82.82,0,0,1,.49.22,1.1,1.1,0,0,1,.1.55V597a1.08,1.08,0,0,1-.1.55.77.77,0,0,1-.49.22,14.94,14.94,0,0,1-1.51.15v1.64h14.35l-.08-6.09Z"/><path class="cls-2" d="M1008.57,598a3.24,3.24,0,0,1-.87-.21,1.26,1.26,0,0,1-.53-.52,7.87,7.87,0,0,1-.52-1.21l-5.17-13h-2.89l-4.83,12a.14.14,0,0,1,0,.06.2.2,0,0,0,0,.07,15.64,15.64,0,0,1-.75,1.68,2,2,0,0,1-.7.75,3.82,3.82,0,0,1-1.08.38v1.64h6.7V598a4,4,0,0,1-1.43-.35.82.82,0,0,1-.51-.7,2.68,2.68,0,0,1,.23-1.12l.42-1.15h5.49l.79,2.17a1.15,1.15,0,0,1,.11.67c0,.14-.2.24-.48.31a11.87,11.87,0,0,1-1.37.17v1.62h7.57V598h-.09Zm-11.26-5.19,1.13-3.08.94-2.71.92,2.72,1.11,3.07Z"/><path class="cls-2" d="M1035.19,583.12h-3.07l-4.26,10.33-4.31-10.33h-6.26v1.64a16.83,16.83,0,0,1,2.07.43V596a3.06,3.06,0,0,1-.13,1,1.05,1.05,0,0,1-.59.56,5.7,5.7,0,0,1-1.45.37v1.64h6.7V598a6.09,6.09,0,0,1-1.5-.37,1.2,1.2,0,0,1-.63-.58,2.74,2.74,0,0,1-.15-1v-8.75l5.32,12.43h.56l5.35-12.68v10a1.16,1.16,0,0,1-.09.55.77.77,0,0,1-.46.22,14.3,14.3,0,0,1-1.5.15v1.64h7.83V598a14,14,0,0,1-1.52-.15.89.89,0,0,1-.48-.22,1.13,1.13,0,0,1-.1-.55V585.68a1.08,1.08,0,0,1,.1-.55.76.76,0,0,1,.48-.22,14,14,0,0,1,1.52-.15v-1.64h-3.43Z"/><path class="cls-3" d="M376.12,304.69l2.13.68Z"/><path class="cls-3" d="M452.58,408.05a108.16,108.16,0,0,0-3.23-26.31,108.63,108.63,0,0,1,3.23,26.37Z"/><path class="cls-3" d="M373.5,303.93c.77.21,1.54.43,2.3.66C375,304.36,374.27,304.14,373.5,303.93Z"/><path class="cls-3" d="M452.53,411.39c0,.45,0,.91,0,1.37C452.5,412.3,452.52,411.85,452.53,411.39Z"/><path class="cls-3" d="M448,376.79q.35,1.14.66,2.28Q448.34,377.93,448,376.79Z"/><path class="cls-3" d="M442.36,362.11c.3.64.59,1.29.88,1.93C443,363.39,442.66,362.75,442.36,362.11Z"/><path class="cls-3" d="M452.58,408.25c0,.74,0,1.48,0,2.23C452.57,409.74,452.58,409,452.58,408.25Z"/><path class="cls-3" d="M448.7,379.26c.23.81.44,1.63.65,2.45C449.14,380.89,448.93,380.07,448.7,379.26Z"/><path class="cls-3" d="M445.48,369.44c.24.63.48,1.27.71,1.9C446,370.7,445.72,370.07,445.48,369.44Z"/><path class="cls-3" d="M383.72,307.33c.63.24,1.25.49,1.87.75C385,307.82,384.35,307.57,383.72,307.33Z"/><path class="cls-3" d="M381.23,306.4c.65.23,1.28.46,1.92.71C382.51,306.86,381.88,306.63,381.23,306.4Z"/><path class="cls-3" d="M446.38,371.89c.24.66.46,1.32.69,2C446.84,373.21,446.62,372.55,446.38,371.89Z"/><path class="cls-3" d="M447.22,374.34c.23.7.45,1.41.67,2.12C447.67,375.75,447.45,375,447.22,374.34Z"/><path class="cls-3" d="M443.47,364.55c.27.62.54,1.24.8,1.87C444,365.79,443.74,365.17,443.47,364.55Z"/><path class="cls-3" d="M378.7,305.51l2,.69Z"/><path class="cls-3" d="M390.84,310.4l2.1,1C392.25,311.08,391.55,310.74,390.84,310.4Z"/><path class="cls-3" d="M452.36,415.07c0-.08,0-.16,0-.24C452.37,414.91,452.36,415,452.36,415.07Z"/><path class="cls-3" d="M441.07,359.47a108.48,108.48,0,0,0-48-48,109.1,109.1,0,0,1,48,48Z"/><path class="cls-3" d="M344.53,300h-.06a108.72,108.72,0,0,1,26.38,3.23A108.18,108.18,0,0,0,344.53,300Z"/><path class="cls-3" d="M444.51,367c.25.61.5,1.23.74,1.85C445,368.23,444.76,367.61,444.51,367Z"/><path class="cls-3" d="M342.73,300l1.53,0Z"/><path class="cls-3" d="M370.87,303.23l2.46.65Z"/><path class="cls-3" d="M341.2,300.05l.68,0Z"/><path class="cls-3" d="M275,326.64a33.48,33.48,0,0,1,5-2.15h0c.51-.17,1-.33,1.54-.48l.47-.13,1.16-.29.48-.11,1.45-.28.14,0c.53-.09,1.07-.16,1.6-.22l.47,0,1.18-.1.5,0c.46,0,.92,0,1.38,0h.3l1.12,0,.59,0,.87.06.89.07a32.31,32.31,0,0,1,3.52.59,32.65,32.65,0,0,1,5.09,1.6,32.32,32.32,0,0,1,3.21,1.51c.52.28,1,.58,1.53.88l1.51.94,1.41,1.07.54.42.38.31.46.37.64.61.64.6a13.53,13.53,0,0,1,1.25,1.26c.41.44.79.91,1.19,1.36.2.23.37.47.55.71s.34.5.52.74a16.22,16.22,0,0,1,1,1.51l.45.78.44.79c.27.53.5,1.09.74,1.64l.36.82.29.85c.18.57.38,1.14.55,1.71a30.16,30.16,0,0,1,.67,3.51,24.94,24.94,0,0,1,.23,3.56,27.19,27.19,0,0,1-1,7,25.94,25.94,0,0,1-1.21,3.33,23.8,23.8,0,0,1-1.67,3.11c-.15.26-.3.51-.47.75-.49.73-1.05,1.42-1.58,2.12-.37.45-.79.86-1.19,1.29a12.41,12.41,0,0,1-1.26,1.25c-.45.38-.88.8-1.37,1.15l-1.47,1-1.56.89c-.52.28-1.08.49-1.63.74s-1,.39-1.52.56l-.24.07c-.5.16-1,.29-1.5.4l-.29.07q-.75.17-1.53.27l-.21,0c-.52.07-1,.12-1.55.15h-.1c-.35,0-.71,0-1.06,0h-.39l-.63,0c-.35,0-.7,0-1.05-.08l-.61-.06c-.37-.05-.74-.12-1.11-.19-.17,0-.35-.05-.52-.09-.54-.12-1.07-.25-1.59-.41a20.71,20.71,0,0,1-6.26-3.15,16,16,0,0,1-1.37-1.09L284,369c-.39-.45-.79-.89-1.16-1.35s-.7-1-1-1.47a16.65,16.65,0,0,1-2.4-7.53,16.41,16.41,0,0,1,.71-6.08,16.09,16.09,0,0,1,1.3-3c.18-.32.36-.63.56-.93a17,17,0,0,1,1.59-2.07,16,16,0,0,1,1.24-1.23,13,13,0,0,1,4.57-2.62h0a8.14,8.14,0,0,1,.93-.27l.3-.07c.22-.05.43-.1.65-.13l.36-.06.61-.07.37,0,.63,0h.32q.62,0,1.23.06l.26,0c.41.05.83.11,1.24.19a13.59,13.59,0,0,1,3.26,1.2,11.24,11.24,0,0,1,1.48.9,13.75,13.75,0,0,1,1.33,1.09,10.06,10.06,0,0,1,1.7,2,10.8,10.8,0,0,1,1.59,4,10.22,10.22,0,0,1-3.26,9.35c-.22.19-.44.37-.68.54a8.43,8.43,0,0,1-1.49.85,6.64,6.64,0,0,1-.81.3c-.25.08-.5.14-.75.2l-.21,0-.58.09-.21,0a6,6,0,0,1-.73,0h0l-.32,0V361.7H297l.43,0,.25,0,.45-.09.21,0c.21-.06.43-.12.64-.2a6.69,6.69,0,0,0,2.4-1.51,8.18,8.18,0,0,0,.94-1.09,6.34,6.34,0,0,0,.41-.6c.12-.21.24-.42.35-.63a8.08,8.08,0,0,0,.52-1.34c.07-.23.13-.46.18-.7a8.48,8.48,0,0,0,.12-2.84c0-.24-.06-.47-.11-.7a8.51,8.51,0,0,0-2.88-4.75,10.61,10.61,0,0,0-1.75-1.23,10.75,10.75,0,0,0-1.29-.6,11.38,11.38,0,0,0-2-.58h0l-.82-.1h-.25l-.59,0h-.26l-.75,0h-.12l-.84.11-.23,0-.63.14-.24.07q-.4.12-.81.27a10.31,10.31,0,0,0-3,1.75c-.18.15-.35.31-.52.47a13.32,13.32,0,0,0-.95,1,13.56,13.56,0,0,0-1.57,2.35,13.29,13.29,0,0,0-1,2.62,12.93,12.93,0,0,0-.42,3.91,11.4,11.4,0,0,0,.11,1.3,13.2,13.2,0,0,0,2.08,5.44,5.66,5.66,0,0,0,.4.56c.14.18.29.36.42.54.31.35.63.67.94,1l1.07.93a5.85,5.85,0,0,0,.75.56l.39.27a16.43,16.43,0,0,0,5.07,2.28c.4.11.81.19,1.22.26l.35.06c.32.05.65.08,1,.11l.29,0c.41,0,.82,0,1.23,0h.22c.36,0,.72,0,1.08-.05l.23,0c.4,0,.8-.1,1.19-.17l.26-.05c.36-.07.72-.15,1.07-.24l.15,0c.39-.1.77-.23,1.15-.36l.26-.1c.39-.14.76-.29,1.13-.46h0c.2-.11.41-.2.62-.3s.41-.2.6-.32l1.16-.72,1.08-.84c.36-.27.66-.62,1-.92a8.36,8.36,0,0,0,.94-1c.3-.36.63-.69.9-1.07l.4-.57a12.57,12.57,0,0,0,1.12-1.77c.24-.4.45-.81.65-1.23s.39-.84.56-1.27a20.74,20.74,0,0,0,1.36-6.05c0-.69.06-1.38,0-2.07a20.71,20.71,0,0,0-.29-2.73,26.38,26.38,0,0,0-.63-2.66c-.15-.43-.33-.85-.48-1.28l-.24-.64-.31-.61c-.2-.4-.39-.81-.61-1.21l-.72-1.15a6.09,6.09,0,0,0-.51-.74l-.28-.36c-.09-.11-.18-.24-.27-.36a6.33,6.33,0,0,0-.57-.69,21,21,0,0,0-2-1.92l-1.05-.91a4.54,4.54,0,0,0-.56-.42l-.57-.4-1.14-.79-1.21-.68a25.11,25.11,0,0,0-10.49-3.11c-.48,0-1,0-1.45,0s-.85,0-1.27,0h-.16c-.38,0-.75,0-1.12.08l-.43.05-.84.11-.49.08-.78.14-.5.11c-.26.05-.52.12-.77.18l-.47.12-.83.25-.39.12c-.41.13-.81.28-1.2.43a24.57,24.57,0,0,0-3.65,1.77l-1.14.72a23.92,23.92,0,0,0-3.07,2.43l-.36.35-.23.22h0l-.08.08-.19.19q-1.37,1.38-2.67,2.79a99.32,99.32,0,0,0-26.25,71.73l34.45-26.16,25.23,18.92,39.68-49.23,39.68,49.23,25.22-18.92,34.45,26.16A99.53,99.53,0,0,0,298.34,320a33.8,33.8,0,0,0-3.84-.64,38.38,38.38,0,0,0-3.86-.2,36.41,36.41,0,0,0-9.14,1.16,108.41,108.41,0,0,0-12.31,10.31,32.59,32.59,0,0,1,4.24-3.06C274,327.23,274.47,326.93,275,326.64Z"/><path class="cls-3" d="M386.16,308.31c.63.26,1.25.53,1.88.81C387.41,308.84,386.79,308.57,386.16,308.31Z"/><path class="cls-3" d="M441.16,359.65c.35.69.69,1.38,1,2.08C441.85,361,441.51,360.34,441.16,359.65Z"/><path class="cls-3" d="M388.53,309.34l2,.89Z"/><path class="cls-4" d="M382.62,417.09l-38.18-47.38-38.19,47.38-26.68-20L246,422.54c.22,1.53.48,3.07.77,4.6,25.26-3.38,47.8-.63,67,8.17,11.28,5.17,18.93,11.19,25.64,16.56A120.9,120.9,0,0,1,441.7,428.94c.45-2.12.84-4.26,1.15-6.4l-33.54-25.46Z"/><path class="cls-5" d="M346.47,457.38a65.59,65.59,0,0,0,18.84,10.21c17.68,6.06,38.49,4.65,61.88-4.19a98.81,98.81,0,0,0,12.35-26.08,112.11,112.11,0,0,0-93.07,20.06Z"/><path class="cls-5" d="M362.5,475.78c-12.31-4.22-19.88-10.28-27.88-16.69-6.78-5.42-13.79-11-24.43-15.92-17.46-8-38.11-10.54-61.36-7.56a99.46,99.46,0,0,0,166,42.89c.92-.92,1.81-1.86,2.69-2.81a108.9,108.9,0,0,1-29.13,4.25A79.4,79.4,0,0,1,362.5,475.78Z"/><path class="cls-2" d="M388,309.12l.49.22Z"/><path class="cls-2" d="M385.59,308.08l.57.23Z"/><path class="cls-2" d="M341.88,300h0Z"/><path class="cls-2" d="M344.44,300h0Z"/><path class="cls-2" d="M390.49,310.23l.35.17Z"/><path class="cls-2" d="M281.28,320.34l.22,0a107.54,107.54,0,0,1,59.7-20.24A107.21,107.21,0,0,0,281.28,320.34Z"/><path class="cls-2" d="M370.85,303.23h0Z"/><path class="cls-2" d="M383.15,307.11l.57.22Z"/><path class="cls-2" d="M380.7,306.2l.53.2Z"/><path class="cls-2" d="M373.33,303.88l.17.05Z"/><path class="cls-2" d="M378.25,305.37l.45.14Z"/><path class="cls-2" d="M375.8,304.59l.32.1Z"/><path class="cls-2" d="M452.58,408.15v0Z"/><path class="cls-2" d="M448.65,379.07l.05.19A1.33,1.33,0,0,0,448.65,379.07Z"/><path class="cls-2" d="M449.35,381.71v0Z"/><path class="cls-2" d="M447.07,373.88l.15.46Z"/><path class="cls-2" d="M447.89,376.46c0,.11.07.22.1.33C448,376.68,447.92,376.57,447.89,376.46Z"/><path class="cls-2" d="M452.56,410.48l0,.91Z"/><path class="cls-2" d="M452.48,412.76c0,.69-.06,1.38-.11,2.07C452.42,414.14,452.45,413.45,452.48,412.76Z"/><path class="cls-2" d="M443.24,364c.08.17.16.34.23.51C443.4,364.38,443.32,364.21,443.24,364Z"/><path class="cls-2" d="M442.18,361.73l.18.38Z"/><path class="cls-2" d="M446.19,371.34c.06.18.13.36.19.55C446.32,371.7,446.25,371.52,446.19,371.34Z"/><path class="cls-2" d="M441.07,359.47l.09.18Z"/><path class="cls-2" d="M392.94,311.43l.16.08Z"/><path class="cls-2" d="M445.25,368.85l.23.59C445.41,369.24,445.33,369.05,445.25,368.85Z"/><path class="cls-2" d="M444.27,366.42l.24.58Z"/><path class="cls-2" d="M449.35,381.74v0c-.21-.82-.42-1.64-.65-2.45l-.05-.19q-.31-1.14-.66-2.28c0-.11-.07-.22-.1-.33-.22-.71-.44-1.42-.67-2.12l-.15-.46c-.23-.67-.45-1.33-.69-2-.06-.19-.13-.37-.19-.55-.23-.63-.47-1.27-.71-1.9l-.23-.59c-.24-.62-.49-1.24-.74-1.85l-.24-.58c-.26-.63-.53-1.25-.8-1.87-.07-.17-.15-.34-.23-.51-.29-.64-.58-1.29-.88-1.93l-.18-.38c-.33-.7-.67-1.39-1-2.08l-.09-.18a109.1,109.1,0,0,0-48-48l-.16-.08-2.1-1-.35-.17-2-.89-.49-.22c-.63-.28-1.25-.55-1.88-.81l-.57-.23c-.62-.26-1.24-.51-1.87-.75l-.57-.22c-.64-.25-1.27-.48-1.92-.71l-.53-.2-2-.69-.45-.14-2.13-.68-.32-.1c-.76-.23-1.53-.45-2.3-.66l-.17-.05-2.46-.65h0A108.72,108.72,0,0,0,344.47,300h-.21l-1.53,0h-.85l-.68,0a107.54,107.54,0,0,0-59.7,20.24,36.41,36.41,0,0,1,9.14-1.16,38.38,38.38,0,0,1,3.86.2,33.8,33.8,0,0,1,3.84.64A99.44,99.44,0,0,1,443.79,412.4l-34.45-26.16-25.22,18.92-39.68-49.23-39.68,49.23-25.23-18.92L245.08,412.4a99.32,99.32,0,0,1,26.25-71.73q1.31-1.41,2.67-2.79l.19-.19.08-.08h0l.23-.22.36-.35a23.92,23.92,0,0,1,3.07-2.43l1.14-.72a24.57,24.57,0,0,1,3.65-1.77c.39-.15.79-.3,1.2-.43l.39-.12.83-.25.47-.12c.25-.06.51-.13.77-.18l.5-.11.78-.14.49-.08.84-.11.43-.05c.37,0,.74-.06,1.12-.08h.16c.42,0,.84,0,1.27,0s1,0,1.45,0a25.11,25.11,0,0,1,10.49,3.11l1.21.68,1.14.79.57.4a4.54,4.54,0,0,1,.56.42l1.05.91a21,21,0,0,1,2,1.92,6.33,6.33,0,0,1,.57.69c.09.12.18.25.27.36l.28.36a6.09,6.09,0,0,1,.51.74l.72,1.15c.22.4.41.81.61,1.21l.31.61.24.64c.15.43.33.85.48,1.28a26.38,26.38,0,0,1,.63,2.66,20.71,20.71,0,0,1,.29,2.73c0,.69,0,1.38,0,2.07a20.74,20.74,0,0,1-1.36,6.05c-.17.43-.35.85-.56,1.27s-.41.83-.65,1.23a12.57,12.57,0,0,1-1.12,1.77l-.4.57c-.27.38-.6.71-.9,1.07a8.36,8.36,0,0,1-.94,1c-.34.3-.64.65-1,.92l-1.08.84-1.16.72c-.19.12-.4.22-.6.32s-.42.19-.62.3h0c-.37.17-.74.32-1.13.46l-.26.1c-.38.13-.76.26-1.15.36l-.15,0c-.35.09-.71.17-1.07.24l-.26.05c-.39.07-.79.13-1.19.17l-.23,0c-.36,0-.72.05-1.08.05h-.22c-.41,0-.82,0-1.23,0l-.29,0c-.32,0-.65-.06-1-.11l-.35-.06c-.41-.07-.82-.15-1.22-.26A16.43,16.43,0,0,1,289,368l-.39-.27a5.85,5.85,0,0,1-.75-.56l-1.07-.93c-.31-.33-.63-.65-.94-1-.13-.18-.28-.36-.42-.54a5.66,5.66,0,0,1-.4-.56,13.2,13.2,0,0,1-2.08-5.44,11.4,11.4,0,0,1-.11-1.3,12.93,12.93,0,0,1,.42-3.91,13.29,13.29,0,0,1,1-2.62,13.56,13.56,0,0,1,1.57-2.35,13.32,13.32,0,0,1,.95-1c.17-.16.34-.32.52-.47a10.31,10.31,0,0,1,3-1.75q.4-.15.81-.27l.24-.07.63-.14.23,0,.84-.11h.12l.75,0h.26l.59,0H295l.82.1h0a11.38,11.38,0,0,1,2,.58,10.75,10.75,0,0,1,1.29.6,10.61,10.61,0,0,1,1.75,1.23,8.51,8.51,0,0,1,2.88,4.75c.05.23.08.46.11.7a8.48,8.48,0,0,1-.12,2.84c-.05.24-.11.47-.18.7a8.08,8.08,0,0,1-.52,1.34c-.11.21-.23.42-.35.63a6.34,6.34,0,0,1-.41.6,8.18,8.18,0,0,1-.94,1.09,6.69,6.69,0,0,1-2.4,1.51c-.21.08-.43.14-.64.2l-.21,0-.45.09-.25,0-.43,0h-.41v1.23l.32,0h0a6,6,0,0,0,.73,0l.21,0,.58-.09.21,0c.25-.06.5-.12.75-.2a6.64,6.64,0,0,0,.81-.3,8.43,8.43,0,0,0,1.49-.85c.24-.17.46-.35.68-.54a10.22,10.22,0,0,0,3.26-9.35,10.8,10.8,0,0,0-1.59-4,10.06,10.06,0,0,0-1.7-2,13.75,13.75,0,0,0-1.33-1.09,11.24,11.24,0,0,0-1.48-.9,13.59,13.59,0,0,0-3.26-1.2c-.41-.08-.83-.14-1.24-.19l-.26,0q-.61-.06-1.23-.06h-.32l-.63,0-.37,0-.61.07-.36.06c-.22,0-.43.08-.65.13l-.3.07a8.14,8.14,0,0,0-.93.27h0a13,13,0,0,0-4.57,2.62,16,16,0,0,0-1.24,1.23,17,17,0,0,0-1.59,2.07c-.2.3-.38.61-.56.93a16.09,16.09,0,0,0-1.3,3,16.41,16.41,0,0,0-.71,6.08,16.65,16.65,0,0,0,2.4,7.53c.31.51.67,1,1,1.47s.77.9,1.16,1.35l1.27,1.2a16,16,0,0,0,1.37,1.09,20.71,20.71,0,0,0,6.26,3.15c.52.16,1.05.29,1.59.41.17,0,.35.06.52.09.37.07.74.14,1.11.19l.61.06c.35,0,.7.07,1.05.08l.63,0h.39c.35,0,.71,0,1.06,0h.1c.52,0,1-.08,1.55-.15l.21,0q.78-.1,1.53-.27l.29-.07c.5-.11,1-.24,1.5-.4l.24-.07c.51-.17,1-.35,1.52-.56s1.11-.46,1.63-.74l1.56-.89,1.47-1c.49-.35.92-.77,1.37-1.15a12.41,12.41,0,0,0,1.26-1.25c.4-.43.82-.84,1.19-1.29.53-.7,1.09-1.39,1.58-2.12.17-.24.32-.49.47-.75a23.8,23.8,0,0,0,1.67-3.11,25.94,25.94,0,0,0,1.21-3.33,27.19,27.19,0,0,0,1-7,24.94,24.94,0,0,0-.23-3.56,30.16,30.16,0,0,0-.67-3.51c-.17-.57-.37-1.14-.55-1.71l-.29-.85-.36-.82c-.24-.55-.47-1.11-.74-1.64l-.44-.79-.45-.78a16.22,16.22,0,0,0-1-1.51c-.18-.24-.35-.49-.52-.74s-.35-.48-.55-.71c-.4-.45-.78-.92-1.19-1.36a13.53,13.53,0,0,0-1.25-1.26l-.64-.6-.64-.61-.46-.37-.38-.31-.54-.42L309,328.43l-1.51-.94c-.5-.3-1-.6-1.53-.88a32.32,32.32,0,0,0-3.21-1.51,32.65,32.65,0,0,0-5.09-1.6,32.31,32.31,0,0,0-3.52-.59l-.89-.07-.87-.06-.59,0-1.12,0h-.3c-.46,0-.92,0-1.38,0l-.5,0-1.18.1-.47,0c-.53.06-1.07.13-1.6.22l-.14,0-1.45.28-.48.11-1.16.29-.47.13c-.51.15-1,.31-1.54.48h0a33.48,33.48,0,0,0-5,2.15c-.53.29-1.05.59-1.57.9a32.59,32.59,0,0,0-4.24,3.06l-.15.13c-.44.37-.87.76-1.28,1.16l-.06.06h0c-.85.86-1.68,1.72-2.5,2.6a108.15,108.15,0,1,0,187.16,80.52c0-.08,0-.16,0-.24.05-.69.08-1.38.11-2.07,0-.46,0-.92,0-1.37l0-.91c0-.75,0-1.49,0-2.23v-.14A108.63,108.63,0,0,0,449.35,381.74ZM279.57,397.08l26.68,20,38.19-47.38,38.18,47.38,26.69-20,33.54,25.46c-.31,2.14-.7,4.28-1.15,6.4a120.9,120.9,0,0,0-102.26,22.93c-6.71-5.37-14.36-11.39-25.64-16.56-19.19-8.8-41.73-11.55-67-8.17-.29-1.53-.55-3.07-.77-4.6ZM427.19,463.4c-23.39,8.84-44.2,10.25-61.88,4.19a65.59,65.59,0,0,1-18.84-10.21,112.11,112.11,0,0,1,93.07-20.06A98.81,98.81,0,0,1,427.19,463.4Zm-12.4,15.1a99.46,99.46,0,0,1-166-42.89c23.25-3,43.9-.45,61.36,7.56,10.64,4.88,17.65,10.5,24.43,15.92,8,6.41,15.57,12.47,27.88,16.69a79.4,79.4,0,0,0,25.85,4.16,108.9,108.9,0,0,0,29.13-4.25C416.6,476.64,415.71,477.58,414.79,478.5Z"/><path class="cls-2" d="M182.8,554.09a5.85,5.85,0,0,0,1.65-4.18,6.94,6.94,0,0,0-1.13-3.9,7.59,7.59,0,0,0-3.52-2.73,14.82,14.82,0,0,0-5.85-1H162.42v26.65h7.32V559h1.57a3.66,3.66,0,0,1,2.21.58,2.84,2.84,0,0,1,1,1.51,17.69,17.69,0,0,1,.48,2.62,25.72,25.72,0,0,0,.5,2.92,7.55,7.55,0,0,0,1,2.33h7.89a8,8,0,0,1-1.2-2.25,23.23,23.23,0,0,1-.7-2.91,21.19,21.19,0,0,0-.7-2.83,6.12,6.12,0,0,0-1.26-2.09,7.15,7.15,0,0,0-2.59-1.7v-.37A10.79,10.79,0,0,0,182.8,554.09Zm-6.9-1a4.41,4.41,0,0,1-2.69.69h-3.47v-5.58h3.18a6.36,6.36,0,0,1,2.23.33,2.49,2.49,0,0,1,1.26.93,3,3,0,0,1-.51,3.63Z"/><path class="cls-2" d="M219.19,562.87a15.69,15.69,0,0,0,1.59-7.21,17.41,17.41,0,0,0-1.42-7.3,10.87,10.87,0,0,0-4.3-4.86,13.49,13.49,0,0,0-7.05-1.73,13.8,13.8,0,0,0-7,1.73,11.46,11.46,0,0,0-4.54,4.86,15.7,15.7,0,0,0-1.57,7.17,17.54,17.54,0,0,0,1.42,7.34,10.65,10.65,0,0,0,4.28,4.83,13.34,13.34,0,0,0,7,1.72,13.73,13.73,0,0,0,7-1.72A11.4,11.4,0,0,0,219.19,562.87Zm-6.53-3.43A5.4,5.4,0,0,1,210.9,562a4.8,4.8,0,0,1-3.1,1,5,5,0,0,1-3.22-1,4.88,4.88,0,0,1-1.67-2.58,14,14,0,0,1-.48-3.91,11.88,11.88,0,0,1,.54-3.76,5.32,5.32,0,0,1,1.73-2.56,4.88,4.88,0,0,1,3.1-1,5.15,5.15,0,0,1,3.27,1,4.88,4.88,0,0,1,1.67,2.58,13.82,13.82,0,0,1,.48,3.87A11.75,11.75,0,0,1,212.66,559.44Z"/><polygon class="cls-2" points="239.5 542.26 232.23 542.26 232.23 568.92 236.94 568.92 239.5 568.92 248.18 568.92 248.18 562.39 239.5 562.39 239.5 542.26"/><polygon class="cls-2" points="266.45 542.26 259.18 542.26 259.18 568.92 263.89 568.92 266.45 568.92 275.13 568.92 275.13 562.39 266.45 562.39 266.45 542.26"/><rect class="cls-2" x="286.12" y="542.27" width="7.27" height="26.66"/><polygon class="cls-2" points="328.15 542.26 321.42 542.26 321.42 558.76 321 558.76 319.56 555.16 313.81 542.26 305.63 542.26 305.63 568.92 312.37 568.92 312.37 553.05 312.78 553.05 314.23 556.69 319.64 568.92 328.15 568.92 328.15 542.26"/><path class="cls-2" d="M363.57,554.13H352.62v5.25h4.05a3.28,3.28,0,0,1-1.34,2.39,4.45,4.45,0,0,1-2.71.87,5.19,5.19,0,0,1-2.95-.81,4.87,4.87,0,0,1-1.86-2.37,10.28,10.28,0,0,1-.64-3.89,11.15,11.15,0,0,1,.62-4,5,5,0,0,1,1.84-2.45,5.21,5.21,0,0,1,3-.83,4.41,4.41,0,0,1,2.87.91,5.52,5.52,0,0,1,1.72,2.64l6.69-1.28a11.79,11.79,0,0,0-2.06-4.75,9.55,9.55,0,0,0-3.82-3,14.5,14.5,0,0,0-12.16.66,11.75,11.75,0,0,0-4.6,4.82,15.26,15.26,0,0,0-1.66,7.29A18.31,18.31,0,0,0,341,563a10.58,10.58,0,0,0,3.92,4.79,11,11,0,0,0,6.16,1.68,7.16,7.16,0,0,0,3.76-1,9.14,9.14,0,0,0,3-3.14h.33l1.49,3.63h4Z"/><polygon class="cls-2" points="405.98 557.68 405.98 568.92 413.25 568.92 413.25 542.26 405.98 542.26 405.98 551.94 398.25 551.94 398.25 542.26 390.98 542.26 390.98 568.92 398.25 568.92 398.25 557.68 405.98 557.68"/><rect class="cls-2" x="425.49" y="542.27" width="7.27" height="26.66"/><polygon class="cls-2" points="452.27 568.92 460.95 568.92 460.95 562.39 452.27 562.39 452.27 542.26 444.99 542.26 444.99 568.92 449.7 568.92 452.27 568.92"/><polygon class="cls-2" points="479.21 568.92 487.89 568.92 487.89 562.39 479.21 562.39 479.21 542.26 471.94 542.26 471.94 568.92 476.65 568.92 479.21 568.92"/><path class="cls-2" d="M510.64,562.91a6.46,6.46,0,0,1-1.88.23,4.74,4.74,0,0,1-2.89-.83,4.35,4.35,0,0,1-1.53-2.6l-6.82,1.48a9.06,9.06,0,0,0,3.21,6q2.7,2.26,8,2.27a14.29,14.29,0,0,0,5.6-1,8,8,0,0,0,3.68-3.06,9.17,9.17,0,0,0,1.3-5,7.34,7.34,0,0,0-1.34-4.78,6.51,6.51,0,0,0-3.18-2.19,27.56,27.56,0,0,0-4.61-.89,21.47,21.47,0,0,1-2.62-.39,3.8,3.8,0,0,1-1.57-.7,1.62,1.62,0,0,1-.6-1.34,2.12,2.12,0,0,1,.39-1.31,2.26,2.26,0,0,1,1.11-.76,5.37,5.37,0,0,1,1.76-.25,5.32,5.32,0,0,1,2.13.37,3.19,3.19,0,0,1,1.34,1.08,4.53,4.53,0,0,1,.71,1.73l6.36-1.07a9.39,9.39,0,0,0-1.3-4.11,7.66,7.66,0,0,0-3.35-2.88,13.64,13.64,0,0,0-5.81-1.07,12.34,12.34,0,0,0-5.82,1.24,8.18,8.18,0,0,0-4.63,7.44,8.25,8.25,0,0,0,1.36,5.14,6.51,6.51,0,0,0,3.23,2.34,25.91,25.91,0,0,0,4.67.91c1.1.14,1.94.26,2.52.37a3.32,3.32,0,0,1,1.44.62,1.52,1.52,0,0,1,.58,1.28,1.68,1.68,0,0,1-.37,1.14A2.28,2.28,0,0,1,510.64,562.91Z"/><path class="cls-2" d="M177,597.29a1.24,1.24,0,0,1-.5.1,1.09,1.09,0,0,1-.62-.17,1.75,1.75,0,0,1-.54-.61,11.49,11.49,0,0,1-.63-1.27,6.76,6.76,0,0,0-1.13-2.09,4.72,4.72,0,0,0-1.64-1.27,4.31,4.31,0,0,0-.92-.3,8.85,8.85,0,0,0,2.91-.45,4.18,4.18,0,0,0,2-1.44,4,4,0,0,0,.69-2.4A3.9,3.9,0,0,0,176,585a4.13,4.13,0,0,0-2.12-1.43,11.4,11.4,0,0,0-3.52-.47h-9v1.64a14.94,14.94,0,0,1,1.51.15.77.77,0,0,1,.49.22,1.08,1.08,0,0,1,.1.55v11.38a1.13,1.13,0,0,1-.1.55.89.89,0,0,1-.49.22,14.94,14.94,0,0,1-1.51.15v1.64h7.93V598a15.45,15.45,0,0,1-1.56-.15,1,1,0,0,1-.51-.22.83.83,0,0,1-.13-.55V592h1.2a2.28,2.28,0,0,1,1.38.38,2.09,2.09,0,0,1,.73,1c.15.41.31,1,.5,1.76.05.23.1.44.14.66a6.59,6.59,0,0,0,.17.67,12.1,12.1,0,0,0,.85,2.15,2.64,2.64,0,0,0,1.05,1.09,3.45,3.45,0,0,0,1.55.32,2.9,2.9,0,0,0,1.6-.4,2.55,2.55,0,0,0,1-1.07,4.18,4.18,0,0,0,.41-1.45l-.13-.1A1.45,1.45,0,0,1,177,597.29Zm-10-12.18H170a4.13,4.13,0,0,1,1.58.26,1.81,1.81,0,0,1,.9.8,2.85,2.85,0,0,1,.31,1.42,2.61,2.61,0,0,1-.35,1.45,2.12,2.12,0,0,1-1,.79,4.38,4.38,0,0,1-1.65.27H167Z"/><path class="cls-2" d="M198.76,583.8a8.07,8.07,0,0,0-4.2-1.07,8.21,8.21,0,0,0-4.19,1.07,7.42,7.42,0,0,0-2.89,3,9.48,9.48,0,0,0-1,4.54,10,10,0,0,0,1,4.54,7.1,7.1,0,0,0,2.79,3,8.07,8.07,0,0,0,4.18,1.06,8.37,8.37,0,0,0,4.24-1.06,7.14,7.14,0,0,0,2.86-3,9.77,9.77,0,0,0,1-4.54,10,10,0,0,0-1-4.55A7.1,7.1,0,0,0,198.76,583.8Zm-.63,11.11a4.13,4.13,0,0,1-1.35,2.1,3.69,3.69,0,0,1-2.29.69,3.74,3.74,0,0,1-2.32-.69,4.07,4.07,0,0,1-1.35-2.1,11.87,11.87,0,0,1-.45-3.56,11.39,11.39,0,0,1,.46-3.54,4.14,4.14,0,0,1,1.37-2.08,4.16,4.16,0,0,1,4.59,0,4.18,4.18,0,0,1,1.34,2.07,11.71,11.71,0,0,1,.45,3.55A11.87,11.87,0,0,1,198.13,594.91Z"/><path class="cls-2" d="M223.18,593.12c-.3,1.41-.55,2.43-.74,3a2.52,2.52,0,0,1-.59,1.16,1.35,1.35,0,0,1-.92.26h-3.14V585.68a.74.74,0,0,1,.15-.55,1.15,1.15,0,0,1,.59-.22c.29,0,.88-.1,1.76-.15v-1.64h-8.23v1.64a14.94,14.94,0,0,1,1.51.15.76.76,0,0,1,.48.22,1,1,0,0,1,.11.55v11.38a1,1,0,0,1-.11.55.89.89,0,0,1-.48.22,14.94,14.94,0,0,1-1.51.15v1.64h13.12l0-6.5Z"/><path class="cls-2" d="M245.85,593.12c-.31,1.41-.56,2.43-.75,3a2.53,2.53,0,0,1-.58,1.16,1.38,1.38,0,0,1-.92.26h-3.15V585.68a.74.74,0,0,1,.15-.55,1.19,1.19,0,0,1,.59-.22q.44-.07,1.77-.15v-1.64h-8.24v1.64a14.94,14.94,0,0,1,1.51.15.77.77,0,0,1,.49.22,1.08,1.08,0,0,1,.1.55v11.38a1.13,1.13,0,0,1-.1.55.89.89,0,0,1-.49.22,14.94,14.94,0,0,1-1.51.15v1.64h13.12l0-6.5Z"/><path class="cls-2" d="M269.76,593.5a24.28,24.28,0,0,1-.74,2.79,2.31,2.31,0,0,1-.59,1,1.37,1.37,0,0,1-.87.24h-4.45V592l4.35.13v-2.38l-4.35.12v-4.82h4.2a1.28,1.28,0,0,1,.83.23,2.29,2.29,0,0,1,.56,1c.18.49.43,1.4.76,2.71h1.91l0-5.91h-14v1.64a14.6,14.6,0,0,1,1.51.15.82.82,0,0,1,.49.22,1,1,0,0,1,.1.55V597a1,1,0,0,1-.1.55.77.77,0,0,1-.49.22,14.6,14.6,0,0,1-1.51.15v1.64h14.35l-.07-6.09Z"/><path class="cls-2" d="M293.47,584.08a11.7,11.7,0,0,0-5-1h-6.83v1.64a14.94,14.94,0,0,1,1.51.15.77.77,0,0,1,.49.22,1.08,1.08,0,0,1,.1.55v11.38a1.13,1.13,0,0,1-.1.55.89.89,0,0,1-.49.22,14.94,14.94,0,0,1-1.51.15v1.64h6.7a11.61,11.61,0,0,0,4.94-1,7,7,0,0,0,3.21-2.86,8.79,8.79,0,0,0,1.11-4.53,8.67,8.67,0,0,0-1.05-4.37A6.72,6.72,0,0,0,293.47,584.08Zm-.3,10.78a4.06,4.06,0,0,1-1.68,2.06,5.5,5.5,0,0,1-2.8.65h-1.28V585.11h1.13a5.8,5.8,0,0,1,2.93.66,4,4,0,0,1,1.7,2,9,9,0,0,1,.56,3.46A10.13,10.13,0,0,1,293.17,594.86Z"/><path class="cls-2" d="M323.3,583.12h-2.79v1.64a14.94,14.94,0,0,1,1.51.15.74.74,0,0,1,.48.22,1,1,0,0,1,.11.55v11.38a1,1,0,0,1-.11.55.85.85,0,0,1-.48.22,14.94,14.94,0,0,1-1.51.15v1.64h7.85V598a13.67,13.67,0,0,1-1.51-.15,1,1,0,0,1-.48-.22.83.83,0,0,1-.13-.55V585.68a.8.8,0,0,1,.13-.55.83.83,0,0,1,.48-.22,13.67,13.67,0,0,1,1.51-.15v-1.64H323.3Z"/><path class="cls-2" d="M350.45,596a5.53,5.53,0,0,1-1.69,1,6.06,6.06,0,0,1-2.06.34,5,5,0,0,1-2.63-.64,4,4,0,0,1-1.65-2,8.27,8.27,0,0,1-.58-3.34,10.66,10.66,0,0,1,.49-3.52,4.28,4.28,0,0,1,1.38-2.08,3.31,3.31,0,0,1,2.1-.69,2.91,2.91,0,0,1,1.72.51,4.53,4.53,0,0,1,1.28,1.44,14.86,14.86,0,0,1,1.09,2.42h2v-6.62h-2l-.89,1.8a3.18,3.18,0,0,0-.69-.83A4.1,4.1,0,0,0,347,583a5.38,5.38,0,0,0-1.74-.27,6.59,6.59,0,0,0-3.66,1.08,7.61,7.61,0,0,0-2.66,3,9.75,9.75,0,0,0-1,4.48,10,10,0,0,0,1,4.67,7,7,0,0,0,2.81,3,8.54,8.54,0,0,0,4.25,1,7.46,7.46,0,0,0,3-.58,4.91,4.91,0,0,0,2.12-1.81,5.6,5.6,0,0,0,.82-3l-.21-.13A6.13,6.13,0,0,1,350.45,596Z"/><path class="cls-2" d="M374.17,593.5a26.63,26.63,0,0,1-.74,2.79,2.31,2.31,0,0,1-.59,1,1.37,1.37,0,0,1-.87.24h-4.45V592l4.35.13v-2.38l-4.35.12v-4.82h4.2a1.3,1.3,0,0,1,.83.23,2.29,2.29,0,0,1,.56,1c.18.49.43,1.4.75,2.71h1.92l0-5.91h-14v1.64a14.94,14.94,0,0,1,1.51.15.82.82,0,0,1,.49.22,1.1,1.1,0,0,1,.1.55V597a1.08,1.08,0,0,1-.1.55.77.77,0,0,1-.49.22,14.94,14.94,0,0,1-1.51.15v1.64h14.35l-.08-6.09Z"/><path class="cls-2" d="M412.27,596a5.53,5.53,0,0,1-1.69,1,6.06,6.06,0,0,1-2.06.34,5,5,0,0,1-2.63-.64,4,4,0,0,1-1.65-2,8.27,8.27,0,0,1-.58-3.34,10.66,10.66,0,0,1,.49-3.52,4.28,4.28,0,0,1,1.38-2.08,3.33,3.33,0,0,1,2.1-.69,2.91,2.91,0,0,1,1.72.51,4.53,4.53,0,0,1,1.28,1.44,14.86,14.86,0,0,1,1.09,2.42h2v-6.62h-2l-.89,1.8a3.14,3.14,0,0,0-.68-.83,4.14,4.14,0,0,0-1.37-.76,5.38,5.38,0,0,0-1.74-.27,6.59,6.59,0,0,0-3.66,1.08,7.69,7.69,0,0,0-2.66,3,9.87,9.87,0,0,0-1,4.48,10.16,10.16,0,0,0,1,4.67,7,7,0,0,0,2.81,3,8.54,8.54,0,0,0,4.25,1,7.43,7.43,0,0,0,3-.58,4.91,4.91,0,0,0,2.12-1.81,5.6,5.6,0,0,0,.82-3l-.2-.13A6.17,6.17,0,0,1,412.27,596Z"/><path class="cls-2" d="M439.31,597.29a1.27,1.27,0,0,1-.5.1,1.1,1.1,0,0,1-.63-.17,1.75,1.75,0,0,1-.54-.61,10.12,10.12,0,0,1-.62-1.27,7,7,0,0,0-1.14-2.09,4.63,4.63,0,0,0-1.64-1.27,4.31,4.31,0,0,0-.92-.3,9,9,0,0,0,2.92-.45,4.2,4.2,0,0,0,2-1.44,4,4,0,0,0,.69-2.4,3.89,3.89,0,0,0-.7-2.37,4.2,4.2,0,0,0-2.13-1.43,11.38,11.38,0,0,0-3.51-.47h-9v1.64a14.6,14.6,0,0,1,1.51.15.77.77,0,0,1,.49.22,1,1,0,0,1,.1.55v11.38a1,1,0,0,1-.1.55.89.89,0,0,1-.49.22,14.6,14.6,0,0,1-1.51.15v1.64h7.93V598a15.45,15.45,0,0,1-1.56-.15,1.11,1.11,0,0,1-.51-.22.83.83,0,0,1-.13-.55V592h1.2a2.34,2.34,0,0,1,1.39.38,2.07,2.07,0,0,1,.72,1,16.39,16.39,0,0,1,.5,1.76c.05.23.1.44.14.66s.1.44.17.67a12,12,0,0,0,.86,2.15,2.52,2.52,0,0,0,1.05,1.09,3.38,3.38,0,0,0,1.54.32,2.9,2.9,0,0,0,1.6-.4,2.55,2.55,0,0,0,1-1.07,4.18,4.18,0,0,0,.41-1.45l-.13-.1A1.31,1.31,0,0,1,439.31,597.29Zm-10-12.18h2.94a4.1,4.1,0,0,1,1.58.26,1.81,1.81,0,0,1,.9.8,2.85,2.85,0,0,1,.31,1.42,2.61,2.61,0,0,1-.34,1.45,2.15,2.15,0,0,1-1,.79,4.38,4.38,0,0,1-1.65.27h-2.74Z"/><path class="cls-2" d="M460.91,593.5a26,26,0,0,1-.75,2.79,2.31,2.31,0,0,1-.58,1,1.41,1.41,0,0,1-.87.24h-4.46V592l4.35.13v-2.38l-4.35.12v-4.82h4.2a1.28,1.28,0,0,1,.83.23,2.1,2.1,0,0,1,.56,1c.18.49.43,1.4.76,2.71h1.92l0-5.91h-14v1.64a14.3,14.3,0,0,1,1.5.15.82.82,0,0,1,.49.22,1,1,0,0,1,.1.55V597a1,1,0,0,1-.1.55.77.77,0,0,1-.49.22,14.3,14.3,0,0,1-1.5.15v1.64h14.34l-.07-6.09Z"/><path class="cls-2" d="M489.22,598a3.46,3.46,0,0,1-.87-.21,1.24,1.24,0,0,1-.52-.52,7.68,7.68,0,0,1-.53-1.21l-5.16-13h-2.89l-4.84,12a.13.13,0,0,1,0,.06.2.2,0,0,0,0,.07,13.53,13.53,0,0,1-.76,1.68,2.11,2.11,0,0,1-.69.75,3.9,3.9,0,0,1-1.09.38v1.64h6.7V598a4,4,0,0,1-1.43-.35.85.85,0,0,1-.51-.7,2.85,2.85,0,0,1,.23-1.12l.42-1.15h5.5l.78,2.17a1.18,1.18,0,0,1,.12.67c-.05.14-.21.24-.49.31a11.57,11.57,0,0,1-1.37.17v1.62h7.57V598h-.09ZM478,592.76l1.13-3.08,1-2.71.92,2.72,1.11,3.07Z"/><path class="cls-2" d="M515.85,583.12h-3.07l-4.27,10.33-4.3-10.33h-6.27v1.64a15.77,15.77,0,0,1,2.07.44V596a3.39,3.39,0,0,1-.12,1,1.08,1.08,0,0,1-.59.56,5.8,5.8,0,0,1-1.46.37v1.64h6.7V598a6,6,0,0,1-1.49-.37,1.17,1.17,0,0,1-.63-.58,2.74,2.74,0,0,1-.15-1v-8.75l5.32,12.43h.56L513.49,587v10a1.16,1.16,0,0,1-.09.55.77.77,0,0,1-.46.22,13.7,13.7,0,0,1-1.49.15v1.64h7.82V598a14.57,14.57,0,0,1-1.52-.15.89.89,0,0,1-.47-.22,1,1,0,0,1-.1-.55V585.68a1,1,0,0,1,.1-.55.76.76,0,0,1,.47-.22,14.57,14.57,0,0,1,1.52-.15v-1.64h-3.42Z"/></svg>