<svg id="Layer_1" data-name="Layer 1" xmlns="http://www.w3.org/2000/svg" viewBox="0 0 1200 900"><defs><style>.cls-1{fill:#f2f2f2;}.cls-2{fill:#71bed3;}.cls-3{fill:#87725e;}.cls-4{fill:#7fae65;}.cls-5{fill:#3e3b39;}</style></defs><rect class="cls-1" width="1200" height="900"/><path class="cls-2" d="M295.46,204.76c.49.14,1,.3,1.46.46C296.44,205.06,296,204.9,295.46,204.76Z"/><path class="cls-2" d="M347.67,275.32a73.87,73.87,0,0,0-2.2-18,74.39,74.39,0,0,1,2.2,18Z"/><path class="cls-2" d="M293.68,204.24c.52.14,1.05.29,1.57.45C294.73,204.53,294.21,204.38,293.68,204.24Z"/><path class="cls-2" d="M347.64,277.6c0,.31,0,.63,0,.94C347.62,278.23,347.63,277.91,347.64,277.6Z"/><path class="cls-2" d="M344.54,254l.45,1.56Z"/><path class="cls-2" d="M340.69,244c.21.44.41.88.6,1.33C341.1,244.83,340.89,244.39,340.69,244Z"/><path class="cls-2" d="M347.67,275.46c0,.51,0,1,0,1.52C347.66,276.47,347.67,276,347.67,275.46Z"/><path class="cls-2" d="M345,255.67c.16.55.3,1.11.44,1.67C345.32,256.78,345.18,256.22,345,255.67Z"/><path class="cls-2" d="M342.82,249c.17.43.33.87.48,1.3C343.15,249.83,343,249.39,342.82,249Z"/><path class="cls-2" d="M300.66,206.56c.42.16.85.33,1.27.51C301.51,206.89,301.08,206.72,300.66,206.56Z"/><path class="cls-2" d="M299,205.92l1.31.48Z"/><path class="cls-2" d="M343.44,250.63c.16.45.31.91.46,1.36C343.75,251.54,343.6,251.08,343.44,250.63Z"/><path class="cls-2" d="M344,252.31c.16.48.31,1,.46,1.44C344.32,253.27,344.17,252.79,344,252.31Z"/><path class="cls-2" d="M341.45,245.63c.19.42.37.84.54,1.27C341.82,246.47,341.64,246.05,341.45,245.63Z"/><path class="cls-2" d="M297.23,205.32l1.37.47Z"/><path class="cls-2" d="M305.52,208.65l1.43.7Z"/><path class="cls-2" d="M347.52,280.11c0-.05,0-.11,0-.16Z"/><path class="cls-2" d="M339.81,242.16a74,74,0,0,0-32.75-32.75,74.49,74.49,0,0,1,32.75,32.75Z"/><path class="cls-2" d="M273.9,201.55h0a74,74,0,0,1,18,2.21A73.89,73.89,0,0,0,273.9,201.55Z"/><path class="cls-2" d="M342.16,247.29l.51,1.27Z"/><path class="cls-2" d="M272.67,201.56h0Z"/><path class="cls-2" d="M291.88,203.76l1.68.44Z"/><path class="cls-2" d="M271.62,201.59l.47,0Z"/><path class="cls-2" d="M226.43,219.74a23.14,23.14,0,0,1,3.39-1.47h0c.35-.12.7-.22,1.06-.32a3,3,0,0,1,.32-.09l.78-.2.33-.07,1-.2h.1c.36-.06.73-.11,1.09-.15l.32,0c.27,0,.54-.05.81-.06l.34,0,.94,0h.2l.77,0h.4l.59.05.61,0a19.38,19.38,0,0,1,2.4.4,21,21,0,0,1,3.48,1.09,21.85,21.85,0,0,1,2.19,1q.54.28,1.05.6l1,.64,1,.74.37.28a2.65,2.65,0,0,1,.26.21,1.94,1.94,0,0,1,.31.26l.44.41.44.41a10,10,0,0,1,.86.86c.27.3.53.62.8.93a4.57,4.57,0,0,1,.38.49c.12.16.23.34.35.5a9.64,9.64,0,0,1,.68,1l.3.54.3.53c.19.37.34.75.51,1.12l.24.56.2.58c.13.39.26.78.37,1.17a18.54,18.54,0,0,1,.62,4.83,18,18,0,0,1-.71,4.78,16.14,16.14,0,0,1-.82,2.27,16.72,16.72,0,0,1-1.14,2.13c-.1.18-.21.35-.32.51-.33.5-.72,1-1.08,1.45-.25.31-.54.59-.81.88a8.64,8.64,0,0,1-.86.85c-.31.26-.6.55-.94.79l-1,.7-1.06.61c-.36.19-.74.34-1.11.51s-.7.26-1,.37l-.16.06-1,.27-.2,0c-.35.08-.69.14-1,.19l-.15,0c-.35,0-.71.08-1.06.1h-.06c-.25,0-.49,0-.73,0H242c-.24,0-.47,0-.71-.06l-.42,0-.76-.13-.35-.06c-.37-.08-.73-.17-1.09-.28a14.06,14.06,0,0,1-4.27-2.15,11.29,11.29,0,0,1-.93-.75l-.87-.82c-.27-.3-.54-.6-.8-.92s-.48-.65-.69-1a11.42,11.42,0,0,1-1.15-9.29,10.18,10.18,0,0,1,.89-2.06c.12-.21.25-.43.38-.63a11.62,11.62,0,0,1,1.09-1.42,11.09,11.09,0,0,1,.84-.84,8.68,8.68,0,0,1,3.12-1.78h0c.21-.07.42-.13.64-.18l.21-.05.44-.09.24,0,.42,0,.25,0h.65c.28,0,.56,0,.84.05l.17,0a8.1,8.1,0,0,1,.86.13,9.68,9.68,0,0,1,2.22.81,8,8,0,0,1,1,.62,6.39,6.39,0,0,1,.9.75,6.57,6.57,0,0,1,1.17,1.35,7.26,7.26,0,0,1,1.08,2.75,7.13,7.13,0,0,1-.77,4.56,7.27,7.27,0,0,1-1.45,1.82l-.46.37a5.79,5.79,0,0,1-1,.58,5.2,5.2,0,0,1-.55.21l-.51.13-.14,0-.4.06-.14,0-.5,0h-.23v-.84h.28l.29,0,.17,0,.31-.06.14,0a3.22,3.22,0,0,0,.44-.14,4.69,4.69,0,0,0,1.64-1,6.41,6.41,0,0,0,.64-.74l.28-.41a4.63,4.63,0,0,0,.24-.43,8,8,0,0,0,.36-.92l.12-.47a8,8,0,0,0,.12-1,6.43,6.43,0,0,0,0-1c0-.16-.05-.32-.08-.48a5.71,5.71,0,0,0-2-3.23,6.17,6.17,0,0,0-1.2-.84,5.85,5.85,0,0,0-.88-.41,7.47,7.47,0,0,0-1.4-.4h0l-.55-.07h-.18l-.4,0h-.18l-.51,0h-.08a5.58,5.58,0,0,0-.57.08l-.16,0-.43.1-.17,0-.55.19a6,6,0,0,0-1.27.63,7.09,7.09,0,0,0-.76.56c-.13.1-.24.21-.36.32a8.83,8.83,0,0,0-.65.71,9.11,9.11,0,0,0-1.07,1.6,9.5,9.5,0,0,0-.7,1.79,9.24,9.24,0,0,0-.29,2.67c0,.29,0,.59.08.88a8.85,8.85,0,0,0,.25,1.16,8.39,8.39,0,0,0,1.17,2.56c.09.13.18.26.28.38l.28.37c.21.24.43.46.65.69l.73.63a4,4,0,0,0,.51.38l.26.18a11.18,11.18,0,0,0,3.47,1.56c.27.07.55.13.83.18l.23,0,.67.08.2,0c.28,0,.56,0,.84,0h.15l.73,0h.16q.4,0,.81-.12l.18,0c.25,0,.49-.1.73-.17l.11,0c.26-.07.52-.16.78-.25l.18-.06c.26-.1.52-.2.77-.32h0l.42-.21a2.32,2.32,0,0,0,.41-.22l.79-.49.74-.57c.25-.19.45-.42.68-.63a6.09,6.09,0,0,0,.65-.69c.2-.25.42-.48.61-.73l.27-.4a8.43,8.43,0,0,0,.77-1.2c.16-.28.31-.56.44-.84s.27-.58.38-.87a14,14,0,0,0,.93-4.13q0-.71,0-1.41a13,13,0,0,0-.2-1.87,18.32,18.32,0,0,0-.43-1.81c-.1-.3-.22-.59-.33-.88l-.16-.43-.21-.42c-.14-.27-.27-.56-.42-.83l-.49-.78a3.54,3.54,0,0,0-.35-.51l-.19-.24c-.06-.08-.13-.16-.19-.25a4.22,4.22,0,0,0-.39-.47,13.74,13.74,0,0,0-1.33-1.31l-.72-.62a3.47,3.47,0,0,0-.38-.29l-.39-.27-.78-.54-.82-.47a17.46,17.46,0,0,0-7.16-2.12l-1,0-.87,0H237l-.76.06-.29,0-.58.07-.33.06-.53.1-.34.07-.53.12-.32.09-.57.17-.27.08-.81.29a16.85,16.85,0,0,0-2.49,1.21l-.78.49a17.6,17.6,0,0,0-2.1,1.66l-.24.24-.16.15h0l-.06.06-.12.12c-.63.63-1.24,1.27-1.83,1.91a67.77,67.77,0,0,0-17.92,49l23.52-17.86,17.23,12.92,27.09-33.61,27.09,33.61,17.22-12.92,23.52,17.86a68,68,0,0,0-99.31-63.1,23.48,23.48,0,0,0-2.62-.44,25.94,25.94,0,0,0-2.64-.14,25.23,25.23,0,0,0-6.24.79,75.45,75.45,0,0,0-8.4,7,22.93,22.93,0,0,1,2.9-2.09C225.71,220.14,226.07,219.94,226.43,219.74Z"/><path class="cls-2" d="M302.32,207.23l1.28.55Z"/><path class="cls-2" d="M339.87,242.28c.24.47.47.94.7,1.42C340.34,243.22,340.11,242.75,339.87,242.28Z"/><path class="cls-2" d="M303.94,207.93l1.34.61Z"/><path class="cls-3" d="M299.91,281.5l-26.07-32.35L247.76,281.5l-18.21-13.67-22.9,17.38c.16,1.05.33,2.1.53,3.14,17.25-2.3,32.63-.43,45.74,5.58a80.32,80.32,0,0,1,17.5,11.31,82.47,82.47,0,0,1,69.82-15.65c.31-1.45.57-2.91.78-4.37l-22.89-17.39Z"/><path class="cls-4" d="M275.22,309a45.07,45.07,0,0,0,12.86,7c12.08,4.13,26.29,3.17,42.25-2.87a67.28,67.28,0,0,0,8.43-17.8A76.6,76.6,0,0,0,275.22,309Z"/><path class="cls-4" d="M286.17,321.56c-8.41-2.88-13.57-7-19-11.39-4.63-3.7-9.41-7.53-16.68-10.87-11.92-5.47-26-7.2-41.89-5.16a67.91,67.91,0,0,0,113.31,29.28c.63-.63,1.24-1.27,1.83-1.91a74.8,74.8,0,0,1-19.88,2.9A54,54,0,0,1,286.17,321.56Z"/><path class="cls-5" d="M303.6,207.78l.34.15Z"/><path class="cls-5" d="M301.93,207.07l.39.16Z"/><path class="cls-5" d="M272.09,201.57h0Z"/><path class="cls-5" d="M273.84,201.55h0Z"/><path class="cls-5" d="M305.28,208.54l.24.11Z"/><path class="cls-5" d="M230.71,215.44l.15,0a73.41,73.41,0,0,1,40.76-13.81A73.23,73.23,0,0,0,230.71,215.44Z"/><path class="cls-5" d="M291.87,203.76h0Z"/><path class="cls-5" d="M300.27,206.4l.39.16Z"/><path class="cls-5" d="M298.6,205.79l.36.13Z"/><path class="cls-5" d="M293.56,204.2l.12,0Z"/><path class="cls-5" d="M296.92,205.22l.31.1Z"/><path class="cls-5" d="M295.25,204.69l.21.07Z"/><path class="cls-5" d="M347.67,275.39v0Z"/><path class="cls-5" d="M345,255.54l0,.13Z"/><path class="cls-5" d="M345.46,257.34v0Z"/><path class="cls-5" d="M343.9,252l.11.32Z"/><path class="cls-5" d="M344.47,253.75a1.55,1.55,0,0,0,.07.23A1.55,1.55,0,0,1,344.47,253.75Z"/><path class="cls-5" d="M347.65,277c0,.21,0,.41,0,.62C347.64,277.39,347.65,277.19,347.65,277Z"/><path class="cls-5" d="M347.6,278.54c0,.47,0,.94-.07,1.41C347.56,279.48,347.58,279,347.6,278.54Z"/><path class="cls-5" d="M341.29,245.28a3.73,3.73,0,0,1,.16.35A3.73,3.73,0,0,0,341.29,245.28Z"/><path class="cls-5" d="M340.57,243.7l.12.25Z"/><path class="cls-5" d="M343.3,250.26c.05.12.09.25.14.37C343.39,250.51,343.35,250.38,343.3,250.26Z"/><path class="cls-5" d="M339.81,242.16l.06.12Z"/><path class="cls-5" d="M307,209.35l.11.06Z"/><path class="cls-5" d="M342.67,248.56l.15.4Z"/><path class="cls-5" d="M342,246.9c.06.13.12.26.17.39C342.11,247.16,342.05,247,342,246.9Z"/><path class="cls-5" d="M345.47,257.36v0c-.14-.56-.28-1.12-.44-1.67l0-.13-.45-1.56a1.55,1.55,0,0,1-.07-.23c-.15-.48-.3-1-.46-1.44l-.11-.32c-.15-.45-.3-.91-.46-1.36-.05-.12-.09-.25-.14-.37-.15-.43-.31-.87-.48-1.3l-.15-.4-.51-1.27c-.05-.13-.11-.26-.17-.39-.17-.43-.35-.85-.54-1.27a3.73,3.73,0,0,0-.16-.35c-.19-.45-.39-.89-.6-1.33l-.12-.25c-.23-.48-.46-.95-.7-1.42l-.06-.12a74.49,74.49,0,0,0-32.75-32.75l-.11-.06-1.43-.7-.24-.11-1.34-.61-.34-.15-1.28-.55-.39-.16c-.42-.18-.85-.35-1.27-.51l-.39-.16-1.31-.48-.36-.13-1.37-.47-.31-.1c-.48-.16-1-.32-1.46-.46l-.21-.07c-.52-.16-1.05-.31-1.57-.45l-.12,0-1.68-.44h0a74,74,0,0,0-18-2.21h-1.77l-.47,0a73.41,73.41,0,0,0-40.76,13.81,25.23,25.23,0,0,1,6.24-.79,25.94,25.94,0,0,1,2.64.14,23.48,23.48,0,0,1,2.62.44,67.89,67.89,0,0,1,99.31,63.1l-23.52-17.86-17.22,12.92-27.09-33.61-27.09,33.61-17.23-12.92L206,278.29a67.77,67.77,0,0,1,17.92-49c.59-.64,1.2-1.28,1.83-1.91l.12-.12.06-.06h0l.16-.15.24-.24a17.6,17.6,0,0,1,2.1-1.66l.78-.49a16.85,16.85,0,0,1,2.49-1.21l.81-.29.27-.08.57-.17.32-.09.53-.12.34-.07.53-.1.33-.06.58-.07.29,0,.76-.06h.11l.87,0,1,0a17.46,17.46,0,0,1,7.16,2.12l.82.47.78.54.39.27a3.47,3.47,0,0,1,.38.29l.72.62a13.74,13.74,0,0,1,1.33,1.31,4.22,4.22,0,0,1,.39.47c.06.09.13.17.19.25l.19.24a3.54,3.54,0,0,1,.35.51l.49.78c.15.27.28.56.42.83l.21.42.16.43c.11.29.23.58.33.88a18.32,18.32,0,0,1,.43,1.81,13,13,0,0,1,.2,1.87q0,.7,0,1.41A14,14,0,0,1,253,242c-.11.29-.24.58-.38.87s-.28.56-.44.84a8.43,8.43,0,0,1-.77,1.2l-.27.4c-.19.25-.41.48-.61.73a6.09,6.09,0,0,1-.65.69c-.23.21-.43.44-.68.63l-.74.57-.79.49a2.32,2.32,0,0,1-.41.22l-.42.21h0c-.25.12-.51.22-.77.32l-.18.06c-.26.09-.52.18-.78.25l-.11,0c-.24.07-.48.12-.73.17l-.18,0q-.41.08-.81.12h-.16l-.73,0h-.15c-.28,0-.56,0-.84,0l-.2,0-.67-.08-.23,0c-.28,0-.56-.11-.83-.18A11.18,11.18,0,0,1,236,248l-.26-.18a4,4,0,0,1-.51-.38l-.73-.63c-.22-.23-.44-.45-.65-.69l-.28-.37c-.1-.12-.19-.25-.28-.38a8.39,8.39,0,0,1-1.17-2.56,8.85,8.85,0,0,1-.25-1.16c0-.29-.06-.59-.08-.88a9.24,9.24,0,0,1,.29-2.67,9.5,9.5,0,0,1,.7-1.79,9.11,9.11,0,0,1,1.07-1.6,8.83,8.83,0,0,1,.65-.71c.12-.11.23-.22.36-.32a7.09,7.09,0,0,1,.76-.56,6,6,0,0,1,1.27-.63l.55-.19.17,0,.43-.1.16,0a5.58,5.58,0,0,1,.57-.08h.08l.51,0h.18l.4,0h.18l.55.07h0a7.47,7.47,0,0,1,1.4.4,5.85,5.85,0,0,1,.88.41,6.17,6.17,0,0,1,1.2.84,5.71,5.71,0,0,1,2,3.23c0,.16.06.32.08.48a6.43,6.43,0,0,1,0,1,8,8,0,0,1-.12,1l-.12.47a8,8,0,0,1-.36.92,4.63,4.63,0,0,1-.24.43l-.28.41a6.41,6.41,0,0,1-.64.74,4.69,4.69,0,0,1-1.64,1,3.22,3.22,0,0,1-.44.14l-.14,0-.31.06-.17,0-.29,0h-.28v.84h.23l.5,0,.14,0,.4-.06.14,0,.51-.13a5.2,5.2,0,0,0,.55-.21,5.79,5.79,0,0,0,1-.58l.46-.37a7.27,7.27,0,0,0,1.45-1.82,7.13,7.13,0,0,0,.77-4.56,7.26,7.26,0,0,0-1.08-2.75,6.57,6.57,0,0,0-1.17-1.35,6.39,6.39,0,0,0-.9-.75,8,8,0,0,0-1-.62,9.68,9.68,0,0,0-2.22-.81,8.1,8.1,0,0,0-.86-.13l-.17,0c-.28,0-.56,0-.84-.05h-.65l-.25,0-.42,0-.24,0-.44.09-.21.05c-.22,0-.43.11-.64.18h0a8.68,8.68,0,0,0-3.12,1.78,11.09,11.09,0,0,0-.84.84,11.62,11.62,0,0,0-1.09,1.42c-.13.2-.26.42-.38.63a10.18,10.18,0,0,0-.89,2.06,11.42,11.42,0,0,0,1.15,9.29c.21.35.46.67.69,1s.53.62.8.92l.87.82a11.29,11.29,0,0,0,.93.75,14.06,14.06,0,0,0,4.27,2.15c.36.11.72.2,1.09.28l.35.06.76.13.42,0c.24,0,.47.05.71.06h.7c.24,0,.48,0,.73,0h.06c.35,0,.71-.05,1.06-.1l.15,0c.35,0,.69-.11,1-.19l.2,0,1-.27.16-.06c.35-.11.7-.23,1-.37s.75-.32,1.11-.51l1.06-.61,1-.7c.34-.24.63-.53.94-.79a8.64,8.64,0,0,0,.86-.85c.27-.29.56-.57.81-.88.36-.48.75-1,1.08-1.45.11-.16.22-.33.32-.51a16.72,16.72,0,0,0,1.14-2.13,16.14,16.14,0,0,0,.82-2.27,18,18,0,0,0,.71-4.78,18.54,18.54,0,0,0-.62-4.83c-.11-.39-.24-.78-.37-1.17l-.2-.58-.24-.56c-.17-.37-.32-.75-.51-1.12l-.3-.53-.3-.54a9.64,9.64,0,0,0-.68-1c-.12-.16-.23-.34-.35-.5a4.57,4.57,0,0,0-.38-.49c-.27-.31-.53-.63-.8-.93a10,10,0,0,0-.86-.86l-.44-.41-.44-.41a1.94,1.94,0,0,0-.31-.26A2.65,2.65,0,0,0,251,222l-.37-.28-1-.74-1-.64q-.51-.31-1.05-.6a21.85,21.85,0,0,0-2.19-1,21,21,0,0,0-3.48-1.09,19.38,19.38,0,0,0-2.4-.4l-.61,0-.59-.05h-.4l-.77,0h-.2l-.94,0-.34,0c-.27,0-.54,0-.81.06l-.32,0c-.36,0-.73.09-1.09.15h-.1l-1,.2-.33.07-.78.2a3,3,0,0,0-.32.09c-.36.1-.71.2-1.06.32h0a23.14,23.14,0,0,0-3.39,1.47c-.36.2-.72.4-1.07.61a22.93,22.93,0,0,0-2.9,2.09l-.1.09c-.3.26-.59.52-.88.8l0,0h0c-.58.58-1.14,1.17-1.7,1.77a73.84,73.84,0,1,0,127.78,55V280c0-.47.05-.94.07-1.41,0-.31,0-.63,0-.94s0-.41,0-.62c0-.51,0-1,0-1.52v-.09A74.39,74.39,0,0,0,345.47,257.36ZM229.55,267.83l18.21,13.67,26.08-32.35,26.07,32.35,18.22-13.67L341,285.22c-.21,1.46-.47,2.92-.78,4.37a82.47,82.47,0,0,0-69.82,15.65,80.32,80.32,0,0,0-17.5-11.31c-13.11-6-28.49-7.88-45.74-5.58-.2-1-.37-2.09-.53-3.14Zm100.78,45.28c-16,6-30.17,7-42.25,2.87a45.07,45.07,0,0,1-12.86-7,76.6,76.6,0,0,1,63.54-13.69A67.28,67.28,0,0,1,330.33,313.11Zm-8.46,10.31a67.91,67.91,0,0,1-113.31-29.28c15.88-2,30-.31,41.89,5.16,7.27,3.34,12.05,7.17,16.68,10.87,5.47,4.38,10.63,8.51,19,11.39a54,54,0,0,0,17.65,2.85,74.8,74.8,0,0,0,19.88-2.9C323.11,322.15,322.5,322.79,321.87,323.42Z"/><path class="cls-5" d="M418.81,246.38a10.1,10.1,0,0,0,2.86-7.21,12,12,0,0,0-2-6.75,13.3,13.3,0,0,0-6.06-4.71,25.93,25.93,0,0,0-10.1-1.75H383.62v46h12.64V254.8H399a6.23,6.23,0,0,1,3.82,1,4.85,4.85,0,0,1,1.78,2.6,30.93,30.93,0,0,1,.82,4.54,48.05,48.05,0,0,0,.86,5,13.26,13.26,0,0,0,1.71,4h13.63a13.88,13.88,0,0,1-2.07-3.89,42.16,42.16,0,0,1-1.21-5,37,37,0,0,0-1.21-4.89,10.64,10.64,0,0,0-2.18-3.61,12.12,12.12,0,0,0-4.46-2.92V251A18.7,18.7,0,0,0,418.81,246.38Zm-11.92-1.68a7.63,7.63,0,0,1-4.64,1.18h-6v-9.64h5.49a11,11,0,0,1,3.86.57,4.31,4.31,0,0,1,2.17,1.61,4.53,4.53,0,0,1,.68,2.53A4.37,4.37,0,0,1,406.89,244.7Z"/><path class="cls-5" d="M481.66,261.54a27,27,0,0,0,2.74-12.45,30.1,30.1,0,0,0-2.46-12.6,18.56,18.56,0,0,0-7.42-8.38,23.14,23.14,0,0,0-12.17-3,23.66,23.66,0,0,0-12.14,3,19.8,19.8,0,0,0-7.85,8.38,27.19,27.19,0,0,0-2.71,12.39,30.23,30.23,0,0,0,2.46,12.66,18.44,18.44,0,0,0,7.39,8.35,23.1,23.1,0,0,0,12.13,3,23.85,23.85,0,0,0,12.14-3A19.82,19.82,0,0,0,481.66,261.54Zm-11.28-5.92a9.38,9.38,0,0,1-3,4.46,8.31,8.31,0,0,1-5.35,1.64,8.69,8.69,0,0,1-5.57-1.64,8.56,8.56,0,0,1-2.89-4.46,24.61,24.61,0,0,1-.82-6.74,20.54,20.54,0,0,1,.93-6.5,9.15,9.15,0,0,1,3-4.42,8.31,8.31,0,0,1,5.35-1.65,8.81,8.81,0,0,1,5.64,1.65,8.56,8.56,0,0,1,2.89,4.46,23.9,23.9,0,0,1,.82,6.67A20.27,20.27,0,0,1,470.38,255.62Z"/><polygon class="cls-5" points="516.74 225.96 504.17 225.96 504.17 272 512.31 272 516.74 272 531.72 272 531.72 260.72 516.74 260.72 516.74 225.96"/><polygon class="cls-5" points="563.27 225.96 550.71 225.96 550.71 272 558.84 272 563.27 272 578.26 272 578.26 260.72 563.27 260.72 563.27 225.96"/><rect class="cls-5" x="597.24" y="225.96" width="12.56" height="46.04"/><polygon class="cls-5" points="669.83 225.96 658.2 225.96 658.2 254.44 657.48 254.44 654.98 248.23 645.06 225.96 630.93 225.96 630.93 272 642.56 272 642.56 244.59 643.28 244.59 645.78 250.87 655.13 272 669.83 272 669.83 225.96"/><path class="cls-5" d="M731,246.45H712.08v9.06h7a5.68,5.68,0,0,1-2.32,4.14,7.69,7.69,0,0,1-4.68,1.5,9,9,0,0,1-5.1-1.39,8.62,8.62,0,0,1-3.21-4.1,17.8,17.8,0,0,1-1.11-6.71,19.55,19.55,0,0,1,1.07-6.89,8.6,8.6,0,0,1,3.18-4.25,9,9,0,0,1,5.17-1.43,7.68,7.68,0,0,1,5,1.58,9.39,9.39,0,0,1,3,4.56l11.57-2.21A20.58,20.58,0,0,0,728,232.1a16.45,16.45,0,0,0-6.6-5.21,25,25,0,0,0-21,1.14,20.47,20.47,0,0,0-8,8.32A26.56,26.56,0,0,0,689.6,249,31.66,31.66,0,0,0,692,261.69a18.4,18.4,0,0,0,6.78,8.28,19.09,19.09,0,0,0,10.64,2.89,12.27,12.27,0,0,0,6.49-1.72,15.67,15.67,0,0,0,5.14-5.42h.57l2.57,6.28H731Z"/><polygon class="cls-5" points="804.22 252.59 804.22 272 816.78 272 816.78 225.96 804.22 225.96 804.22 242.67 790.88 242.67 790.88 225.96 778.32 225.96 778.32 272 790.88 272 790.88 252.59 804.22 252.59"/><rect class="cls-5" x="837.91" y="225.96" width="12.56" height="46.04"/><polygon class="cls-5" points="884.16 272 899.15 272 899.15 260.72 884.16 260.72 884.16 225.96 871.6 225.96 871.6 272 879.74 272 884.16 272"/><polygon class="cls-5" points="930.7 272 945.68 272 945.68 260.72 930.7 260.72 930.7 225.96 918.14 225.96 918.14 272 926.27 272 930.7 272"/><path class="cls-5" d="M985,261.62a11.22,11.22,0,0,1-3.25.39,8.21,8.21,0,0,1-5-1.43,7.47,7.47,0,0,1-2.64-4.5l-11.78,2.57a15.69,15.69,0,0,0,5.54,10.28q4.67,3.93,13.88,3.93a24.66,24.66,0,0,0,9.67-1.75,13.74,13.74,0,0,0,6.35-5.28,15.85,15.85,0,0,0,2.25-8.68q0-5.41-2.32-8.24a11.28,11.28,0,0,0-5.5-3.78,48.36,48.36,0,0,0-7.95-1.54,35.29,35.29,0,0,1-4.54-.68A6.72,6.72,0,0,1,977,241.7a2.78,2.78,0,0,1-1-2.32,3.64,3.64,0,0,1,.67-2.25,4.07,4.07,0,0,1,1.93-1.32,9.59,9.59,0,0,1,3-.43,9.14,9.14,0,0,1,3.67.65,5.47,5.47,0,0,1,2.32,1.85,7.85,7.85,0,0,1,1.21,3l11-1.85a16.14,16.14,0,0,0-2.24-7.11,13.18,13.18,0,0,0-5.78-5,23.52,23.52,0,0,0-10-1.85,21.43,21.43,0,0,0-10.07,2.14,14.2,14.2,0,0,0-8,12.85q0,5.85,2.36,8.88a11.22,11.22,0,0,0,5.56,4,46.24,46.24,0,0,0,8.07,1.56c1.9.24,3.35.46,4.35.65a5.76,5.76,0,0,1,2.5,1.07,2.63,2.63,0,0,1,1,2.21,2.89,2.89,0,0,1-.64,2A4.09,4.09,0,0,1,985,261.62Z"/><path class="cls-5" d="M408.8,321a2.35,2.35,0,0,1-.86.17,2,2,0,0,1-1.08-.28,3.18,3.18,0,0,1-.93-1.07,19.16,19.16,0,0,1-1.08-2.18,12,12,0,0,0-2-3.62,8,8,0,0,0-2.83-2.19,7.6,7.6,0,0,0-1.59-.52,15.74,15.74,0,0,0,5-.78A7.21,7.21,0,0,0,407,308a6.82,6.82,0,0,0,1.19-4.15A6.74,6.74,0,0,0,407,299.8a7.24,7.24,0,0,0-3.67-2.47,19.53,19.53,0,0,0-6.07-.82H381.7v2.83a24.4,24.4,0,0,1,2.61.27,1.43,1.43,0,0,1,.84.37,1.85,1.85,0,0,1,.17.95v19.66a1.85,1.85,0,0,1-.17,1,1.43,1.43,0,0,1-.84.37,24.4,24.4,0,0,1-2.61.27V325h13.7v-2.83a25.11,25.11,0,0,1-2.7-.27,1.65,1.65,0,0,1-.88-.37,1.45,1.45,0,0,1-.22-1V311.8h2.07a3.92,3.92,0,0,1,2.39.66,3.62,3.62,0,0,1,1.26,1.72c.25.71.53,1.73.86,3.05.09.38.17.76.24,1.13s.17.76.29,1.17a21,21,0,0,0,1.48,3.71,4.4,4.4,0,0,0,1.81,1.88,5.93,5.93,0,0,0,2.67.55,5,5,0,0,0,2.76-.69,4.44,4.44,0,0,0,1.66-1.85,7.11,7.11,0,0,0,.7-2.5l-.22-.17A2.47,2.47,0,0,1,408.8,321Zm-17.2-21h5.08a7.1,7.1,0,0,1,2.71.44,3.19,3.19,0,0,1,1.57,1.39,5.07,5.07,0,0,1,.53,2.46,4.47,4.47,0,0,1-.6,2.49,3.65,3.65,0,0,1-1.72,1.37,7.52,7.52,0,0,1-2.85.46H391.6Z"/><path class="cls-5" d="M446.37,297.69a13.87,13.87,0,0,0-7.24-1.84,14.19,14.19,0,0,0-7.25,1.84,12.92,12.92,0,0,0-5,5.21,16.29,16.29,0,0,0-1.81,7.84,17.27,17.27,0,0,0,1.7,7.84,12.32,12.32,0,0,0,4.81,5.21,14,14,0,0,0,7.23,1.83,14.48,14.48,0,0,0,7.31-1.83,12.43,12.43,0,0,0,4.94-5.21,16.78,16.78,0,0,0,1.75-7.84,17.31,17.31,0,0,0-1.68-7.86A12.24,12.24,0,0,0,446.37,297.69Zm-1.08,19.19A7.11,7.11,0,0,1,443,320.5a7.23,7.23,0,0,1-7.95,0,7.06,7.06,0,0,1-2.35-3.62,20.79,20.79,0,0,1-.77-6.14,19.83,19.83,0,0,1,.8-6.12A7.16,7.16,0,0,1,435,301a7.2,7.2,0,0,1,7.93,0,7.16,7.16,0,0,1,2.32,3.58,20.52,20.52,0,0,1,.77,6.14A20.79,20.79,0,0,1,445.29,316.88Z"/><path class="cls-5" d="M488.55,313.79c-.53,2.44-.95,4.19-1.28,5.23a4.43,4.43,0,0,1-1,2,2.49,2.49,0,0,1-1.59.44h-5.44V300.93a1.27,1.27,0,0,1,.27-.95,2.1,2.1,0,0,1,1-.37c.5-.09,1.52-.18,3.05-.27v-2.83H469.34v2.83a24.43,24.43,0,0,1,2.6.27,1.39,1.39,0,0,1,.84.37,1.73,1.73,0,0,1,.18.95v19.66a1.73,1.73,0,0,1-.18,1,1.39,1.39,0,0,1-.84.37,24.43,24.43,0,0,1-2.6.27V325H492L492,313.79Z"/><path class="cls-5" d="M527.69,313.79c-.53,2.44-1,4.19-1.28,5.23a4.52,4.52,0,0,1-1,2,2.45,2.45,0,0,1-1.59.44h-5.43V300.93a1.32,1.32,0,0,1,.26-.95,2.2,2.2,0,0,1,1-.37c.5-.09,1.52-.18,3.05-.27v-2.83H508.47v2.83a24.4,24.4,0,0,1,2.61.27,1.43,1.43,0,0,1,.84.37,1.73,1.73,0,0,1,.18.95v19.66a1.73,1.73,0,0,1-.18,1,1.43,1.43,0,0,1-.84.37,24.4,24.4,0,0,1-2.61.27V325h22.66l0-11.22Z"/><path class="cls-5" d="M569,314.45a46.29,46.29,0,0,1-1.28,4.81,4,4,0,0,1-1,1.75,2.35,2.35,0,0,1-1.5.42H557.5v-9.52l7.51.24V308l-7.51.21v-8.33h7.25a2.28,2.28,0,0,1,1.43.39,3.89,3.89,0,0,1,1,1.68c.31.86.74,2.42,1.3,4.68h3.31l.05-10.2H557.5v0h-5.07l-4.82,0v2.83a25.31,25.31,0,0,1,2.61.26,1.42,1.42,0,0,1,.84.38,1.85,1.85,0,0,1,.17.95v19.65a1.85,1.85,0,0,1-.17.95,1.36,1.36,0,0,1-.84.38,22.67,22.67,0,0,1-2.61.26V325h24.78l-.13-10.51Z"/><path class="cls-5" d="M609.94,298.17a20.37,20.37,0,0,0-8.57-1.66h-11.8v2.83a24.4,24.4,0,0,1,2.61.27,1.43,1.43,0,0,1,.84.37,1.73,1.73,0,0,1,.18.95v19.66a1.73,1.73,0,0,1-.18,1,1.43,1.43,0,0,1-.84.37,24.4,24.4,0,0,1-2.61.27V325h11.58a20.08,20.08,0,0,0,8.52-1.68,12.23,12.23,0,0,0,5.55-4.95,15.19,15.19,0,0,0,1.92-7.82,15,15,0,0,0-1.82-7.55A11.62,11.62,0,0,0,609.94,298.17Zm-.53,18.62a6.93,6.93,0,0,1-2.9,3.55,9.33,9.33,0,0,1-4.83,1.13h-2.21V300h1.94a10.11,10.11,0,0,1,5.06,1.13,6.9,6.9,0,0,1,2.94,3.4,15.56,15.56,0,0,1,1,6A17.45,17.45,0,0,1,609.41,316.79Z"/><path class="cls-5" d="M661.44,296.51h-4.82v2.83a24.4,24.4,0,0,1,2.61.27,1.43,1.43,0,0,1,.84.37,1.73,1.73,0,0,1,.18.95v19.66a1.73,1.73,0,0,1-.18,1,1.43,1.43,0,0,1-.84.37,24.4,24.4,0,0,1-2.61.27V325h13.57v-2.83a22.6,22.6,0,0,1-2.61-.27,1.65,1.65,0,0,1-.84-.37,1.45,1.45,0,0,1-.22-1V300.93a1.45,1.45,0,0,1,.22-.95,1.65,1.65,0,0,1,.84-.37,22.6,22.6,0,0,1,2.61-.27v-2.83h-8.75Z"/><path class="cls-5" d="M708.33,318.67a9,9,0,0,1-2.92,1.67,10.34,10.34,0,0,1-3.55.6,8.79,8.79,0,0,1-4.55-1.1,7.05,7.05,0,0,1-2.85-3.38,14.36,14.36,0,0,1-1-5.77,18.7,18.7,0,0,1,.84-6.07,7.53,7.53,0,0,1,2.39-3.6,5.79,5.79,0,0,1,3.62-1.19,5,5,0,0,1,3,.88,7.77,7.77,0,0,1,2.21,2.5,25.45,25.45,0,0,1,1.88,4.17h3.4V295.94h-3.4l-1.54,3.11a5.49,5.49,0,0,0-1.18-1.43,7.18,7.18,0,0,0-2.36-1.3,9.31,9.31,0,0,0-3-.47,11.37,11.37,0,0,0-6.31,1.86,13.14,13.14,0,0,0-4.6,5.25,16.87,16.87,0,0,0-1.72,7.73,17.35,17.35,0,0,0,1.72,8.06,12.06,12.06,0,0,0,4.86,5.11,14.79,14.79,0,0,0,7.34,1.76,12.71,12.71,0,0,0,5.21-1,8.29,8.29,0,0,0,3.66-3.12,9.55,9.55,0,0,0,1.42-5.23l-.36-.22A10.44,10.44,0,0,1,708.33,318.67Z"/><path class="cls-5" d="M749.3,314.45a43.18,43.18,0,0,1-1.29,4.81,4,4,0,0,1-1,1.75,2.37,2.37,0,0,1-1.5.42h-7.69v-9.52l7.51.24V308l-7.51.21v-8.33h7.25a2.32,2.32,0,0,1,1.43.39,3.89,3.89,0,0,1,1,1.68c.31.86.75,2.42,1.31,4.68h3.31l0-10.2H737.81v0h-5.08l-4.81,0v2.83a25.34,25.34,0,0,1,2.6.26,1.39,1.39,0,0,1,.84.38,1.73,1.73,0,0,1,.18.95v19.65a1.73,1.73,0,0,1-.18.95,1.33,1.33,0,0,1-.84.38,22.68,22.68,0,0,1-2.6.26V325H752.7l-.14-10.51Z"/><path class="cls-5" d="M815.09,318.67a9,9,0,0,1-2.92,1.67,10.34,10.34,0,0,1-3.55.6,8.79,8.79,0,0,1-4.55-1.1,7.05,7.05,0,0,1-2.85-3.38,14.53,14.53,0,0,1-1-5.77,18.7,18.7,0,0,1,.84-6.07,7.53,7.53,0,0,1,2.39-3.6,5.79,5.79,0,0,1,3.62-1.19,5,5,0,0,1,3,.88,7.77,7.77,0,0,1,2.21,2.5,25.45,25.45,0,0,1,1.88,4.17h3.4V295.94h-3.4l-1.54,3.11a5.49,5.49,0,0,0-1.18-1.43,7.18,7.18,0,0,0-2.36-1.3,9.3,9.3,0,0,0-3-.47,11.38,11.38,0,0,0-6.32,1.86,13.14,13.14,0,0,0-4.6,5.25,17,17,0,0,0-1.72,7.73,17.48,17.48,0,0,0,1.72,8.06,12.06,12.06,0,0,0,4.86,5.11,14.79,14.79,0,0,0,7.34,1.76,12.71,12.71,0,0,0,5.21-1,8.29,8.29,0,0,0,3.66-3.12,9.55,9.55,0,0,0,1.42-5.23l-.35-.22A10.69,10.69,0,0,1,815.09,318.67Z"/><path class="cls-5" d="M861.78,321a2.35,2.35,0,0,1-.86.17,2,2,0,0,1-1.09-.28,3.06,3.06,0,0,1-.92-1.07,20.73,20.73,0,0,1-1.09-2.18,12,12,0,0,0-2-3.62,8,8,0,0,0-2.83-2.19,7.6,7.6,0,0,0-1.59-.52,15.83,15.83,0,0,0,5-.78A7.3,7.3,0,0,0,860,308a6.89,6.89,0,0,0,1.19-4.15A6.74,6.74,0,0,0,860,299.8a7.28,7.28,0,0,0-3.67-2.47,19.53,19.53,0,0,0-6.07-.82H834.68v2.83a24.43,24.43,0,0,1,2.6.27,1.39,1.39,0,0,1,.84.37,1.73,1.73,0,0,1,.18.95v19.66a1.73,1.73,0,0,1-.18,1,1.39,1.39,0,0,1-.84.37,24.43,24.43,0,0,1-2.6.27V325h13.69v-2.83a25.14,25.14,0,0,1-2.69-.27,1.69,1.69,0,0,1-.89-.37,1.51,1.51,0,0,1-.22-1V311.8h2.08a3.89,3.89,0,0,1,2.38.66,3.62,3.62,0,0,1,1.26,1.72c.25.71.54,1.73.86,3.05.09.38.17.76.25,1.13s.17.76.28,1.17a21.8,21.8,0,0,0,1.48,3.71,4.41,4.41,0,0,0,1.82,1.88,5.93,5.93,0,0,0,2.67.55,5,5,0,0,0,2.76-.69,4.42,4.42,0,0,0,1.65-1.85,7.12,7.12,0,0,0,.71-2.5l-.22-.17A2.59,2.59,0,0,1,861.78,321Zm-17.21-21h5.08a7.12,7.12,0,0,1,2.72.44,3.23,3.23,0,0,1,1.57,1.39,5.07,5.07,0,0,1,.53,2.46,4.47,4.47,0,0,1-.6,2.49,3.7,3.7,0,0,1-1.72,1.37,7.52,7.52,0,0,1-2.85.46h-4.73Z"/><path class="cls-5" d="M899.08,314.45a46.29,46.29,0,0,1-1.28,4.81,3.93,3.93,0,0,1-1,1.75,2.35,2.35,0,0,1-1.5.42h-7.69v-9.52l7.51.24V308l-7.51.21v-8.33h7.25a2.33,2.33,0,0,1,1.44.39,4,4,0,0,1,1,1.68c.31.86.74,2.42,1.3,4.68h3.31l0-10.2H887.59v0h-5.07l-4.82,0v2.83a25.31,25.31,0,0,1,2.61.26,1.42,1.42,0,0,1,.84.38,1.85,1.85,0,0,1,.17.95v19.65a1.85,1.85,0,0,1-.17.95,1.36,1.36,0,0,1-.84.38,22.67,22.67,0,0,1-2.61.26V325h24.78l-.13-10.51Z"/><path class="cls-5" d="M948,322.13a5.26,5.26,0,0,1-1.5-.37,2.07,2.07,0,0,1-.91-.88,14.89,14.89,0,0,1-.91-2.1l-8.92-22.4h-5L922.4,317.1a.52.52,0,0,1,0,.11.52.52,0,0,0,0,.11,24.9,24.9,0,0,1-1.3,2.91,3.43,3.43,0,0,1-1.2,1.29,6.9,6.9,0,0,1-1.87.66V325h11.57v-2.79a6.89,6.89,0,0,1-2.48-.62,1.44,1.44,0,0,1-.88-1.19,5,5,0,0,1,.4-2l.72-2h9.5l1.35,3.75a2,2,0,0,1,.2,1.15c-.07.24-.35.42-.84.53a16.7,16.7,0,0,1-2.36.31V325h13.07v-2.83l-.15,0Zm-19.44-9,2-5.33,1.63-4.67,1.59,4.7,1.91,5.3Z"/><path class="cls-5" d="M994,296.51h-5.3l-7.36,17.84-7.44-17.84H963v2.83a29.05,29.05,0,0,1,3.58.76v18.68a5.71,5.71,0,0,1-.22,1.79,1.87,1.87,0,0,1-1,1,10,10,0,0,1-2.52.64V325h11.58v-2.83a10.57,10.57,0,0,1-2.59-.64,2,2,0,0,1-1.08-1,4.56,4.56,0,0,1-.26-1.76V303.67l9.18,21.47h1l9.24-21.91v17.36a2,2,0,0,1-.16,1,1.25,1.25,0,0,1-.79.37,23.52,23.52,0,0,1-2.59.27V325h13.52v-2.83a23.73,23.73,0,0,1-2.63-.27,1.39,1.39,0,0,1-.82-.37,1.85,1.85,0,0,1-.17-1V300.93a1.85,1.85,0,0,1,.17-.95,1.39,1.39,0,0,1,.82-.37,23.73,23.73,0,0,1,2.63-.27v-2.83H994Z"/><path class="cls-5" d="M200,624.61a73.79,73.79,0,1,0,30.71-60,25.45,25.45,0,0,1,6.39-.82,22.63,22.63,0,0,1,5.26.57,67.9,67.9,0,0,1,99.31,63.1l-23.52-17.85-17.22,12.91L273.84,589l-27.09,33.61-17.23-12.91L206,627.51a67.74,67.74,0,0,1,17.92-49c.59-.65,1.2-1.29,1.83-1.91l.12-.13.06,0h0l.16-.15.24-.24a18.68,18.68,0,0,1,2.1-1.66l.78-.49a16.85,16.85,0,0,1,2.49-1.21l.81-.29.27-.08.57-.17.32-.08.53-.13.34-.07.53-.1.33,0,.58-.08.29,0,.76-.06h.11c.29,0,.58,0,.87,0l1,0a17.17,17.17,0,0,1,7.16,2.12l.82.46.78.55.39.26.38.29.72.63a12.59,12.59,0,0,1,1.33,1.3,3.56,3.56,0,0,1,.39.48l.19.24.19.25a3.45,3.45,0,0,1,.35.5l.49.79c.15.27.28.55.42.83l.21.41.16.44c.11.29.23.58.33.87a18.52,18.52,0,0,1,.43,1.82,12.75,12.75,0,0,1,.2,1.86q0,.71,0,1.41a14,14,0,0,1-.93,4.13,8.47,8.47,0,0,1-.38.87,8.37,8.37,0,0,1-.44.84,8.53,8.53,0,0,1-.77,1.21l-.27.39c-.19.26-.41.49-.61.73a6.19,6.19,0,0,1-.65.7c-.23.2-.43.44-.68.62l-.74.58-.79.49c-.13.08-.27.15-.41.22l-.42.2h0c-.25.12-.51.22-.77.32l-.18.07-.78.24-.11,0c-.24.06-.48.12-.73.16l-.18,0-.81.11h-.16c-.24,0-.49,0-.73,0h-.15q-.42,0-.84,0l-.2,0-.67-.08-.23,0c-.28,0-.56-.1-.83-.17a11.42,11.42,0,0,1-3.47-1.56,2.48,2.48,0,0,0-.26-.19,2.71,2.71,0,0,1-.51-.38l-.73-.63c-.22-.23-.44-.45-.65-.68s-.19-.25-.28-.37l-.28-.38a8.61,8.61,0,0,1-1.17-2.56,9.22,9.22,0,0,1-.25-1.16c0-.3-.06-.59-.08-.89a9.31,9.31,0,0,1,.29-2.67,9.68,9.68,0,0,1,.7-1.78,9.58,9.58,0,0,1,1.07-1.61,8.83,8.83,0,0,1,.65-.71l.36-.32a6.78,6.78,0,0,1,2-1.19l.55-.19.17,0,.43-.1.16,0,.57-.08h.08l.51,0h.58l.18,0a5.14,5.14,0,0,1,.55.06h0a7.47,7.47,0,0,1,1.4.4,7,7,0,0,1,.88.41,6.17,6.17,0,0,1,1.2.84,5.73,5.73,0,0,1,2,3.24c0,.16.06.32.08.48a6.3,6.3,0,0,1,0,1,7.79,7.79,0,0,1-.12,1l-.12.47a7.31,7.31,0,0,1-.36.92,3.62,3.62,0,0,1-.24.43c-.09.14-.18.28-.28.41a5.76,5.76,0,0,1-.64.75,4.84,4.84,0,0,1-1.64,1l-.44.13-.14,0a1.55,1.55,0,0,1-.31.06l-.17,0-.29,0h-.28v.84h.23a4.18,4.18,0,0,0,.5,0l.14,0,.4-.06.14,0a3.8,3.8,0,0,0,.51-.13,6,6,0,0,0,1.58-.79,5.32,5.32,0,0,0,.46-.37,6.93,6.93,0,0,0,1.45-1.82,7.13,7.13,0,0,0,.77-4.56,7.26,7.26,0,0,0-1.08-2.75,6.57,6.57,0,0,0-1.17-1.35,8.13,8.13,0,0,0-.9-.75,8,8,0,0,0-1-.61,9.26,9.26,0,0,0-2.22-.82c-.28,0-.57-.1-.86-.13l-.17,0a7.87,7.87,0,0,0-.84,0h-.22l-.43,0-.25,0-.42.05-.24,0a3.12,3.12,0,0,0-.44.09l-.21,0-.64.19h0a8.7,8.7,0,0,0-3.12,1.79,8.33,8.33,0,0,0-.84.84,11.52,11.52,0,0,0-1.09,1.41c-.13.21-.26.42-.38.64a10.34,10.34,0,0,0-.89,2A11.42,11.42,0,0,0,231.1,596c.21.35.46.67.69,1s.53.62.8.93l.87.82c.28.28.62.49.93.75a14.27,14.27,0,0,0,4.27,2.14c.36.11.72.2,1.09.28l.35.07.76.12.42.05.71,0,.43,0h.27l.73,0h.06c.35,0,.71,0,1.06-.1h.15c.35,0,.69-.12,1-.19l.2-.05q.51-.12,1-.27l.16,0c.35-.12.7-.24,1-.38s.75-.31,1.11-.51l1.06-.6,1-.71a10.08,10.08,0,0,0,.94-.79,8.55,8.55,0,0,0,.86-.84c.27-.3.56-.58.81-.89.36-.48.75-.94,1.08-1.44.11-.17.22-.34.32-.52a16.6,16.6,0,0,0,1.14-2.12,17.11,17.11,0,0,0,.82-2.27,18,18,0,0,0,.71-4.79,18.54,18.54,0,0,0-.62-4.83c-.11-.39-.24-.77-.37-1.16l-.2-.58-.24-.57c-.17-.37-.32-.75-.51-1.11l-.3-.54-.3-.54a9.64,9.64,0,0,0-.68-1c-.12-.16-.23-.33-.35-.5a5.85,5.85,0,0,0-.38-.49l-.8-.93a11.63,11.63,0,0,0-.86-.86l-.44-.41-.44-.41c-.09-.09-.2-.17-.31-.26l-.26-.21-.37-.28-1-.73-1-.64c-.34-.21-.69-.41-1.05-.61-.71-.38-1.44-.72-2.19-1a22,22,0,0,0-3.48-1.09,21.45,21.45,0,0,0-2.4-.4l-.61,0-.59,0h-.4l-.77,0h-.2c-.31,0-.63,0-.94,0l-.34,0-.81.07-.32,0c-.36,0-.73.09-1.09.15l-.1,0c-.33,0-.66.12-1,.19l-.33.08-.78.19-.32.09c-.36.1-.71.21-1.06.33h0a21.18,21.18,0,0,0-3.39,1.47c-.36.19-.72.39-1.07.61a21.47,21.47,0,0,0-3,2.18c-.3.25-.59.52-.88.79l0,0h0c-.58.58-1.14,1.18-1.7,1.78A73.29,73.29,0,0,0,200,624.61Zm121.87,48a67.9,67.9,0,0,1-113.31-29.29c15.88-2,30-.3,41.89,5.17,7.27,3.33,12.05,7.16,16.68,10.87,5.47,4.37,10.63,8.51,19,11.39a54.24,54.24,0,0,0,17.65,2.84,74.4,74.4,0,0,0,19.88-2.9Q322.82,671.71,321.87,672.65Zm8.46-10.31c-16,6-30.17,7-42.25,2.86a44.81,44.81,0,0,1-12.86-7,76.55,76.55,0,0,1,63.54-13.7A67.34,67.34,0,0,1,330.33,662.34ZM229.55,617.06l18.21,13.66,26.08-32.35,26.07,32.35,18.22-13.66L341,634.44c-.21,1.46-.47,2.92-.78,4.37a82.52,82.52,0,0,0-69.82,15.66,79.58,79.58,0,0,0-17.5-11.31c-13.11-6-28.49-7.89-45.74-5.58-.2-1.05-.37-2.09-.53-3.14Z"/><path class="cls-5" d="M418.81,595.6a10.1,10.1,0,0,0,2.86-7.21,11.9,11.9,0,0,0-2-6.74,13.17,13.17,0,0,0-6.06-4.71,25.75,25.75,0,0,0-10.1-1.75H383.62v46h12.64V604H399a6.3,6.3,0,0,1,3.82,1,4.91,4.91,0,0,1,1.78,2.61,30.75,30.75,0,0,1,.82,4.53,47.6,47.6,0,0,0,.86,5,13.06,13.06,0,0,0,1.71,4h13.63a13.75,13.75,0,0,1-2.07-3.89,41.22,41.22,0,0,1-1.21-5,37,37,0,0,0-1.21-4.89,10.51,10.51,0,0,0-2.18-3.6,12.13,12.13,0,0,0-4.46-2.93v-.64A18.61,18.61,0,0,0,418.81,595.6Zm-11.92-1.68a7.63,7.63,0,0,1-4.64,1.18h-6v-9.63h5.49a11,11,0,0,1,3.86.57,4.29,4.29,0,0,1,2.17,1.6,4.56,4.56,0,0,1,.68,2.54A4.35,4.35,0,0,1,406.89,593.92Z"/><path class="cls-5" d="M481.66,610.77a27.09,27.09,0,0,0,2.74-12.46,30.06,30.06,0,0,0-2.46-12.59,18.58,18.58,0,0,0-7.42-8.39,23.14,23.14,0,0,0-12.17-3,23.66,23.66,0,0,0-12.14,3,19.82,19.82,0,0,0-7.85,8.39,27.14,27.14,0,0,0-2.71,12.38,30.28,30.28,0,0,0,2.46,12.67,18.54,18.54,0,0,0,7.39,8.35,23.2,23.2,0,0,0,12.13,3,23.94,23.94,0,0,0,12.14-3A19.94,19.94,0,0,0,481.66,610.77Zm-11.28-5.93a9.38,9.38,0,0,1-3,4.46A8.31,8.31,0,0,1,462,611a8.69,8.69,0,0,1-5.57-1.65,8.56,8.56,0,0,1-2.89-4.46,24.55,24.55,0,0,1-.82-6.74,20.59,20.59,0,0,1,.93-6.5,9.2,9.2,0,0,1,3-4.42,8.31,8.31,0,0,1,5.35-1.64,8.8,8.8,0,0,1,5.64,1.64,8.56,8.56,0,0,1,2.89,4.46,23.9,23.9,0,0,1,.82,6.67A20.23,20.23,0,0,1,470.38,604.84Z"/><polygon class="cls-5" points="516.74 575.19 504.17 575.19 504.17 621.22 512.31 621.22 516.74 621.22 531.72 621.22 531.72 609.95 516.74 609.95 516.74 575.19"/><polygon class="cls-5" points="563.27 575.19 550.71 575.19 550.71 621.22 558.84 621.22 563.27 621.22 578.26 621.22 578.26 609.95 563.27 609.95 563.27 575.19"/><rect class="cls-5" x="597.24" y="575.19" width="12.56" height="46.04"/><polygon class="cls-5" points="669.83 575.19 658.2 575.19 658.2 603.67 657.48 603.67 654.98 597.46 645.06 575.19 630.93 575.19 630.93 621.22 642.56 621.22 642.56 593.82 643.28 593.82 645.78 600.1 655.13 621.22 669.83 621.22 669.83 575.19"/><path class="cls-5" d="M731,595.67H712.08v9.07h7a5.68,5.68,0,0,1-2.32,4.14,7.69,7.69,0,0,1-4.68,1.49A9,9,0,0,1,707,609a8.53,8.53,0,0,1-3.21-4.1,17.77,17.77,0,0,1-1.11-6.71,19.59,19.59,0,0,1,1.07-6.89,8.57,8.57,0,0,1,3.18-4.24,8.94,8.94,0,0,1,5.17-1.43,7.67,7.67,0,0,1,5,1.57,9.47,9.47,0,0,1,3,4.57l11.57-2.22a20.53,20.53,0,0,0-3.57-8.2,16.37,16.37,0,0,0-6.6-5.21,24.9,24.9,0,0,0-21,1.14,20.38,20.38,0,0,0-8,8.31,26.59,26.59,0,0,0-2.85,12.6A31.63,31.63,0,0,0,692,610.91a18.4,18.4,0,0,0,6.78,8.28,19,19,0,0,0,10.64,2.89,12.36,12.36,0,0,0,6.49-1.71,15.71,15.71,0,0,0,5.14-5.43h.57l2.57,6.28H731Z"/><polygon class="cls-5" points="804.22 601.81 804.22 621.22 816.78 621.22 816.78 575.19 804.22 575.19 804.22 591.89 790.88 591.89 790.88 575.19 778.32 575.19 778.32 621.22 790.88 621.22 790.88 601.81 804.22 601.81"/><rect class="cls-5" x="837.91" y="575.19" width="12.56" height="46.04"/><polygon class="cls-5" points="884.16 621.22 899.15 621.22 899.15 609.95 884.16 609.95 884.16 575.19 871.6 575.19 871.6 621.22 879.74 621.22 884.16 621.22"/><polygon class="cls-5" points="930.7 621.22 945.68 621.22 945.68 609.95 930.7 609.95 930.7 575.19 918.14 575.19 918.14 621.22 926.27 621.22 930.7 621.22"/><path class="cls-5" d="M985,610.84a11.22,11.22,0,0,1-3.25.39,8.14,8.14,0,0,1-5-1.43,7.47,7.47,0,0,1-2.64-4.49l-11.78,2.57a15.67,15.67,0,0,0,5.54,10.27q4.67,3.93,13.88,3.93a24.48,24.48,0,0,0,9.67-1.75,13.62,13.62,0,0,0,6.35-5.28,15.84,15.84,0,0,0,2.25-8.67c0-3.62-.77-6.36-2.32-8.25a11.35,11.35,0,0,0-5.5-3.78,47.43,47.43,0,0,0-7.95-1.53,37.15,37.15,0,0,1-4.54-.68,6.86,6.86,0,0,1-2.71-1.21,2.79,2.79,0,0,1-1-2.32,3.6,3.6,0,0,1,.67-2.25,3.94,3.94,0,0,1,1.93-1.32,9.32,9.32,0,0,1,3-.43,9.15,9.15,0,0,1,3.67.64,5.49,5.49,0,0,1,2.32,1.86,7.86,7.86,0,0,1,1.21,3l11-1.85a16.1,16.1,0,0,0-2.24-7.1,13.18,13.18,0,0,0-5.78-5,23.36,23.36,0,0,0-10-1.86,21.56,21.56,0,0,0-10.07,2.14,14.54,14.54,0,0,0-6,5.57,14.39,14.39,0,0,0-2,7.28q0,5.85,2.36,8.89a11.26,11.26,0,0,0,5.56,4,45.24,45.24,0,0,0,8.07,1.57c1.9.24,3.35.45,4.35.64a5.76,5.76,0,0,1,2.5,1.07,2.65,2.65,0,0,1,1,2.21,2.92,2.92,0,0,1-.64,2A4,4,0,0,1,985,610.84Z"/><path class="cls-5" d="M408.8,670.21a2.18,2.18,0,0,1-.86.18,2,2,0,0,1-1.08-.29,3.13,3.13,0,0,1-.93-1.06,20.36,20.36,0,0,1-1.08-2.19,12,12,0,0,0-2-3.62,8.09,8.09,0,0,0-2.83-2.19,8.23,8.23,0,0,0-1.59-.52,15.2,15.2,0,0,0,5-.78,7.19,7.19,0,0,0,3.51-2.47,6.84,6.84,0,0,0,1.19-4.15A6.72,6.72,0,0,0,407,649a7.12,7.12,0,0,0-3.67-2.47,19.24,19.24,0,0,0-6.07-.82H381.7v2.83a22.67,22.67,0,0,1,2.61.26,1.36,1.36,0,0,1,.84.38,1.85,1.85,0,0,1,.17.95v19.65a1.85,1.85,0,0,1-.17,1,1.42,1.42,0,0,1-.84.38,25.31,25.31,0,0,1-2.61.26v2.83h13.7V671.4a26,26,0,0,1-2.7-.26,1.65,1.65,0,0,1-.88-.38,1.45,1.45,0,0,1-.22-1V661h2.07a3.92,3.92,0,0,1,2.39.66,3.65,3.65,0,0,1,1.26,1.73c.25.7.53,1.72.86,3,.09.39.17.76.24,1.13s.17.76.29,1.17a20.68,20.68,0,0,0,1.48,3.71,4.34,4.34,0,0,0,1.81,1.88,5.8,5.8,0,0,0,2.67.55,5.13,5.13,0,0,0,2.76-.68,4.53,4.53,0,0,0,1.66-1.86,7.12,7.12,0,0,0,.7-2.49l-.22-.18A2.31,2.31,0,0,1,408.8,670.21Zm-17.2-21h5.08a6.9,6.9,0,0,1,2.71.45A3.1,3.1,0,0,1,401,651a5,5,0,0,1,.53,2.45,4.45,4.45,0,0,1-.6,2.49,3.59,3.59,0,0,1-1.72,1.37,7.51,7.51,0,0,1-2.85.47H391.6Z"/><path class="cls-5" d="M446.37,646.91a14,14,0,0,0-7.24-1.83,14.28,14.28,0,0,0-7.25,1.83,12.92,12.92,0,0,0-5,5.21,16.32,16.32,0,0,0-1.81,7.84,17.24,17.24,0,0,0,1.7,7.84,12.26,12.26,0,0,0,4.81,5.21,13.93,13.93,0,0,0,7.23,1.84,14.38,14.38,0,0,0,7.31-1.84,12.37,12.37,0,0,0,4.94-5.21,16.75,16.75,0,0,0,1.75-7.84,17.37,17.37,0,0,0-1.68-7.86A12.24,12.24,0,0,0,446.37,646.91Zm-1.08,19.19a7.11,7.11,0,0,1-2.34,3.62,7.18,7.18,0,0,1-7.95,0,7.06,7.06,0,0,1-2.35-3.62,20.75,20.75,0,0,1-.77-6.14,19.87,19.87,0,0,1,.8-6.12,7.2,7.2,0,0,1,2.36-3.6,7.2,7.2,0,0,1,7.93,0,7.2,7.2,0,0,1,2.32,3.58,20.52,20.52,0,0,1,.77,6.14A20.75,20.75,0,0,1,445.29,666.1Z"/><path class="cls-5" d="M488.55,663c-.53,2.44-.95,4.19-1.28,5.23a4.43,4.43,0,0,1-1,2,2.43,2.43,0,0,1-1.59.45h-5.44V650.16a1.27,1.27,0,0,1,.27-.95,2,2,0,0,1,1-.38,30,30,0,0,1,3.05-.26v-2.83H469.34v2.83a22.68,22.68,0,0,1,2.6.26,1.33,1.33,0,0,1,.84.38,1.73,1.73,0,0,1,.18.95v19.65a1.73,1.73,0,0,1-.18,1,1.39,1.39,0,0,1-.84.38,25.34,25.34,0,0,1-2.6.26v2.83H492L492,663Z"/><path class="cls-5" d="M527.69,663c-.53,2.44-1,4.19-1.28,5.23a4.52,4.52,0,0,1-1,2,2.39,2.39,0,0,1-1.59.45h-5.43V650.16a1.32,1.32,0,0,1,.26-.95,2.08,2.08,0,0,1,1-.38,30,30,0,0,1,3.05-.26v-2.83H508.47v2.83a22.67,22.67,0,0,1,2.61.26,1.36,1.36,0,0,1,.84.38,1.73,1.73,0,0,1,.18.95v19.65a1.73,1.73,0,0,1-.18,1,1.42,1.42,0,0,1-.84.38,25.31,25.31,0,0,1-2.61.26v2.83h22.66l0-11.22Z"/><path class="cls-5" d="M569,663.67a47.43,47.43,0,0,1-1.28,4.82,4,4,0,0,1-1,1.74,2.35,2.35,0,0,1-1.5.42H557.5v-9.51l7.51.23v-4.1l-7.51.2v-8.33h7.25a2.21,2.21,0,0,1,1.43.4,3.76,3.76,0,0,1,1,1.68c.31.85.74,2.41,1.3,4.68h3.31l.05-10.21H557.5v0h-5.07l-4.82,0v2.83a24.4,24.4,0,0,1,2.61.27,1.37,1.37,0,0,1,.84.37,1.85,1.85,0,0,1,.17,1v19.66a1.85,1.85,0,0,1-.17,1,1.43,1.43,0,0,1-.84.37,24.4,24.4,0,0,1-2.61.27v2.83h24.78l-.13-10.52Z"/><path class="cls-5" d="M609.94,647.39a20.38,20.38,0,0,0-8.57-1.65h-11.8v2.83a22.67,22.67,0,0,1,2.61.26,1.36,1.36,0,0,1,.84.38,1.73,1.73,0,0,1,.18.95v19.65a1.73,1.73,0,0,1-.18,1,1.42,1.42,0,0,1-.84.38,25.31,25.31,0,0,1-2.61.26v2.83h11.58a20.08,20.08,0,0,0,8.52-1.68,12.23,12.23,0,0,0,5.55-4.95,16.73,16.73,0,0,0,.1-15.37A11.62,11.62,0,0,0,609.94,647.39ZM609.41,666a7,7,0,0,1-2.9,3.56,9.43,9.43,0,0,1-4.83,1.13h-2.21V649.18h1.94a10.11,10.11,0,0,1,5.06,1.13,6.9,6.9,0,0,1,2.94,3.4,15.61,15.61,0,0,1,1,6A17.39,17.39,0,0,1,609.41,666Z"/><path class="cls-5" d="M661.44,645.74h-4.82v2.83a22.67,22.67,0,0,1,2.61.26,1.36,1.36,0,0,1,.84.38,1.73,1.73,0,0,1,.18.95v19.65a1.73,1.73,0,0,1-.18,1,1.42,1.42,0,0,1-.84.38,25.31,25.31,0,0,1-2.61.26v2.83h13.57V671.4a23.44,23.44,0,0,1-2.61-.26,1.64,1.64,0,0,1-.84-.38,1.45,1.45,0,0,1-.22-1V650.16a1.45,1.45,0,0,1,.22-.95,1.57,1.57,0,0,1,.84-.38,21.14,21.14,0,0,1,2.61-.26v-2.83h-8.75Z"/><path class="cls-5" d="M708.33,667.89a9.26,9.26,0,0,1-2.92,1.68,10.34,10.34,0,0,1-3.55.6,8.69,8.69,0,0,1-4.55-1.11,7.05,7.05,0,0,1-2.85-3.38,14.31,14.31,0,0,1-1-5.76,18.72,18.72,0,0,1,.84-6.08,7.58,7.58,0,0,1,2.39-3.6,5.79,5.79,0,0,1,3.62-1.19,5.11,5.11,0,0,1,3,.88,7.88,7.88,0,0,1,2.21,2.5,26.25,26.25,0,0,1,1.88,4.17h3.4V645.16h-3.4l-1.54,3.12a5.53,5.53,0,0,0-1.18-1.44,7.18,7.18,0,0,0-2.36-1.3,9.32,9.32,0,0,0-3-.46,11.36,11.36,0,0,0-6.31,1.85,13.17,13.17,0,0,0-4.6,5.26,16.84,16.84,0,0,0-1.72,7.73,17.35,17.35,0,0,0,1.72,8.06,12.09,12.09,0,0,0,4.86,5.1,14.69,14.69,0,0,0,7.34,1.77,12.71,12.71,0,0,0,5.21-1,8.27,8.27,0,0,0,3.66-3.11,9.61,9.61,0,0,0,1.42-5.24l-.36-.22A10.44,10.44,0,0,1,708.33,667.89Z"/><path class="cls-5" d="M749.3,663.67a44.2,44.2,0,0,1-1.29,4.82,4,4,0,0,1-1,1.74,2.37,2.37,0,0,1-1.5.42h-7.69v-9.51l7.51.23v-4.1l-7.51.2v-8.33h7.25a2.25,2.25,0,0,1,1.43.4,3.77,3.77,0,0,1,1,1.68c.31.85.75,2.41,1.31,4.68h3.31l0-10.21H737.81v0h-5.08l-4.81,0v2.83a24.43,24.43,0,0,1,2.6.27,1.34,1.34,0,0,1,.84.37,1.73,1.73,0,0,1,.18,1v19.66a1.73,1.73,0,0,1-.18,1,1.39,1.39,0,0,1-.84.37,24.43,24.43,0,0,1-2.6.27v2.83H752.7l-.14-10.52Z"/><path class="cls-5" d="M815.09,667.89a9.26,9.26,0,0,1-2.92,1.68,10.34,10.34,0,0,1-3.55.6,8.69,8.69,0,0,1-4.55-1.11,7.05,7.05,0,0,1-2.85-3.38,14.48,14.48,0,0,1-1-5.76,18.72,18.72,0,0,1,.84-6.08,7.58,7.58,0,0,1,2.39-3.6,5.79,5.79,0,0,1,3.62-1.19,5.11,5.11,0,0,1,3,.88,7.88,7.88,0,0,1,2.21,2.5,26.25,26.25,0,0,1,1.88,4.17h3.4V645.16h-3.4l-1.54,3.12a5.53,5.53,0,0,0-1.18-1.44,7.18,7.18,0,0,0-2.36-1.3,9.3,9.3,0,0,0-3-.46,11.37,11.37,0,0,0-6.32,1.85,13.17,13.17,0,0,0-4.6,5.26,17,17,0,0,0-1.72,7.73,17.48,17.48,0,0,0,1.72,8.06,12.09,12.09,0,0,0,4.86,5.1,14.69,14.69,0,0,0,7.34,1.77,12.71,12.71,0,0,0,5.21-1,8.27,8.27,0,0,0,3.66-3.11,9.61,9.61,0,0,0,1.42-5.24l-.35-.22A10.69,10.69,0,0,1,815.09,667.89Z"/><path class="cls-5" d="M861.78,670.21a2.18,2.18,0,0,1-.86.18,2,2,0,0,1-1.09-.29,3,3,0,0,1-.92-1.06,22.13,22.13,0,0,1-1.09-2.19,12,12,0,0,0-2-3.62A8.09,8.09,0,0,0,853,661a8.23,8.23,0,0,0-1.59-.52,15.29,15.29,0,0,0,5-.78,7.29,7.29,0,0,0,3.51-2.47,6.91,6.91,0,0,0,1.19-4.15A6.72,6.72,0,0,0,860,649a7.16,7.16,0,0,0-3.67-2.47,19.24,19.24,0,0,0-6.07-.82H834.68v2.83a22.68,22.68,0,0,1,2.6.26,1.33,1.33,0,0,1,.84.38,1.73,1.73,0,0,1,.18.95v19.65a1.73,1.73,0,0,1-.18,1,1.39,1.39,0,0,1-.84.38,25.34,25.34,0,0,1-2.6.26v2.83h13.69V671.4a26.07,26.07,0,0,1-2.69-.26,1.69,1.69,0,0,1-.89-.38,1.51,1.51,0,0,1-.22-1V661h2.08a3.89,3.89,0,0,1,2.38.66,3.65,3.65,0,0,1,1.26,1.73c.25.7.54,1.72.86,3,.09.39.17.76.25,1.13s.17.76.28,1.17a21.46,21.46,0,0,0,1.48,3.71,4.36,4.36,0,0,0,1.82,1.88,5.8,5.8,0,0,0,2.67.55,5.13,5.13,0,0,0,2.76-.68,4.5,4.5,0,0,0,1.65-1.86,7.13,7.13,0,0,0,.71-2.49l-.22-.18A2.42,2.42,0,0,1,861.78,670.21Zm-17.21-21h5.08a6.92,6.92,0,0,1,2.72.45,3.14,3.14,0,0,1,1.57,1.39,5,5,0,0,1,.53,2.45,4.45,4.45,0,0,1-.6,2.49,3.64,3.64,0,0,1-1.72,1.37,7.51,7.51,0,0,1-2.85.47h-4.73Z"/><path class="cls-5" d="M899.08,663.67a47.43,47.43,0,0,1-1.28,4.82,3.94,3.94,0,0,1-1,1.74,2.35,2.35,0,0,1-1.5.42h-7.69v-9.51l7.51.23v-4.1l-7.51.2v-8.33h7.25a2.26,2.26,0,0,1,1.44.4,3.86,3.86,0,0,1,1,1.68c.31.85.74,2.41,1.3,4.68h3.31l0-10.21H887.59v0h-5.07l-4.82,0v2.83a24.4,24.4,0,0,1,2.61.27,1.37,1.37,0,0,1,.84.37,1.85,1.85,0,0,1,.17,1v19.66a1.85,1.85,0,0,1-.17,1,1.43,1.43,0,0,1-.84.37,24.4,24.4,0,0,1-2.61.27v2.83h24.78l-.13-10.52Z"/><path class="cls-5" d="M948,671.36a5.57,5.57,0,0,1-1.5-.38,2,2,0,0,1-.91-.88,14.89,14.89,0,0,1-.91-2.1l-8.92-22.39h-5l-8.35,20.71a.52.52,0,0,1,0,.11.65.65,0,0,0,0,.11,25.24,25.24,0,0,1-1.3,2.92,3.39,3.39,0,0,1-1.2,1.28,6.58,6.58,0,0,1-1.87.66v2.83h11.57v-2.78a7.34,7.34,0,0,1-2.48-.62,1.47,1.47,0,0,1-.88-1.2,4.91,4.91,0,0,1,.4-1.94l.72-2h9.5l1.35,3.76a2,2,0,0,1,.2,1.15c-.07.23-.35.41-.84.53a16.7,16.7,0,0,1-2.36.31v2.78h13.07V671.4a.34.34,0,0,1-.15,0Zm-19.44-9,2-5.32,1.63-4.68,1.59,4.7,1.91,5.3Z"/><path class="cls-5" d="M994,645.74h-5.3l-7.36,17.84-7.44-17.84H963v2.83a27.29,27.29,0,0,1,3.58.76V668a5.67,5.67,0,0,1-.22,1.79,1.84,1.84,0,0,1-1,1,9.56,9.56,0,0,1-2.52.64v2.83h11.58V671.4a10.13,10.13,0,0,1-2.59-.64,2,2,0,0,1-1.08-1,4.59,4.59,0,0,1-.26-1.77V652.9l9.18,21.46h1l9.24-21.91v17.36a2,2,0,0,1-.16,1,1.25,1.25,0,0,1-.79.38,24.39,24.39,0,0,1-2.59.26v2.83h13.52V671.4a24.61,24.61,0,0,1-2.63-.26,1.38,1.38,0,0,1-.82-.38,1.85,1.85,0,0,1-.17-1V650.16a1.85,1.85,0,0,1,.17-.95,1.33,1.33,0,0,1,.82-.38,22.14,22.14,0,0,1,2.63-.26v-2.83H994Z"/></svg>