<svg id="Layer_1" data-name="Layer 1" xmlns="http://www.w3.org/2000/svg" viewBox="0 0 1200 900"><defs><style>.cls-1{fill:#f2f2f2;}.cls-2{fill:#3e3b39;}.cls-3{fill:#71bed3;}.cls-4{fill:none;}.cls-5{fill:#7fae65;}.cls-6{fill:#7a6755;}</style></defs><rect class="cls-1" width="1200" height="900"/><path class="cls-2" d="M744.37,450a105.58,105.58,0,1,0,43.94-85.77,36,36,0,0,1,9.14-1.18,36.62,36.62,0,0,1,3.77.2,31.87,31.87,0,0,1,3.75.62A97.13,97.13,0,0,1,947,454.15L913.4,428.6l-24.64,18.48L850,399l-38.76,48.09L786.6,428.6,753,454.15a97,97,0,0,1,25.64-70c.85-.93,1.72-1.84,2.61-2.74l.18-.17.08-.09h0l.22-.21c.11-.12.23-.23.35-.35a24.61,24.61,0,0,1,3-2.37c.36-.24.74-.48,1.11-.7a24.88,24.88,0,0,1,3.56-1.73q.59-.23,1.17-.42l.39-.12.81-.24.46-.12.75-.18.49-.1.76-.14.47-.08.83-.1.42-.05c.36,0,.73-.06,1.09-.08h.16c.41,0,.82,0,1.24,0s1,0,1.42,0a24.65,24.65,0,0,1,10.25,3l1.18.66,1.11.78.56.38a5.47,5.47,0,0,1,.54.41l1,.89a19.9,19.9,0,0,1,1.91,1.87c.2.22.38.45.56.69l.26.35.27.34a6,6,0,0,1,.51.73l.7,1.12c.22.39.39.79.6,1.19l.29.59.24.62c.15.42.32.83.46,1.25a21.35,21.35,0,0,1,.62,2.6,21.58,21.58,0,0,1,.29,2.67,19.53,19.53,0,0,1,0,2,19.78,19.78,0,0,1-1.32,5.91c-.16.42-.34.83-.54,1.24s-.41.81-.64,1.2a12.91,12.91,0,0,1-1.09,1.73l-.39.56c-.27.37-.59.69-.88,1.05a10.88,10.88,0,0,1-.92,1c-.33.29-.63.63-1,.9l-1.06.81-1.13.71a4.75,4.75,0,0,1-.59.31l-.6.3h0c-.36.17-.73.31-1.1.45l-.25.09c-.37.13-.75.25-1.13.36l-.14,0c-.35.1-.7.17-1,.24l-.25.05c-.39.07-.78.12-1.17.16l-.22,0c-.35,0-.71.05-1.06.06h-.21c-.4,0-.8,0-1.2,0l-.28,0-1-.12-.34-.05c-.4-.07-.79-.15-1.19-.25a16.27,16.27,0,0,1-4.95-2.24l-.38-.26a5.58,5.58,0,0,1-.73-.55l-1-.9c-.3-.33-.62-.64-.91-1-.14-.18-.28-.35-.41-.53a5.39,5.39,0,0,1-.4-.54,12.18,12.18,0,0,1-1.68-3.66,13.22,13.22,0,0,1-.35-1.66c-.06-.42-.09-.84-.11-1.27a12.88,12.88,0,0,1,.41-3.81,12.86,12.86,0,0,1,2.53-4.86,11.13,11.13,0,0,1,.93-1l.51-.46a9.54,9.54,0,0,1,1.09-.8,9.34,9.34,0,0,1,1.82-.9,8.19,8.19,0,0,1,.79-.27l.24-.06c.2-.06.4-.1.61-.15l.23,0c.27-.05.54-.08.82-.11h.11l.73,0h.26l.58,0h.24l.8.1h0a11.68,11.68,0,0,1,2,.57,10.21,10.21,0,0,1,1.26.58,9.28,9.28,0,0,1,1.71,1.21,8.15,8.15,0,0,1,2.81,4.63c0,.23.09.45.12.69a9.18,9.18,0,0,1,0,1.39,8,8,0,0,1-.18,1.38c0,.23-.1.46-.17.68a7.73,7.73,0,0,1-.51,1.31c-.1.21-.22.42-.34.62s-.26.39-.4.58a9.43,9.43,0,0,1-.92,1.07,6.7,6.7,0,0,1-2.35,1.48l-.62.19-.2,0-.44.09-.25,0-.41,0h-.4v1.19l.3,0h0l.72,0,.2,0c.19,0,.38-.05.56-.09l.22,0,.73-.19c.26-.09.53-.19.78-.3a8.17,8.17,0,0,0,1.47-.83c.23-.17.45-.34.66-.53a10.49,10.49,0,0,0,2.08-2.6,10.32,10.32,0,0,0,1.1-6.53,10.49,10.49,0,0,0-1.55-3.94,9.9,9.9,0,0,0-1.67-1.93,11.2,11.2,0,0,0-1.3-1.07,12.3,12.3,0,0,0-1.44-.88,13.16,13.16,0,0,0-3.18-1.16c-.4-.09-.81-.14-1.22-.19l-.25,0q-.6-.06-1.2-.06H800l-.62,0-.35,0-.6.07-.35.05-.63.13-.3.07a9.46,9.46,0,0,0-.91.26h0a13,13,0,0,0-5.67,3.77,16.11,16.11,0,0,0-1.56,2c-.19.3-.37.61-.55.92a15.54,15.54,0,0,0-1.27,2.93,16.26,16.26,0,0,0,1.66,13.3c.29.49.65.95,1,1.43s.76.88,1.14,1.32l1.24,1.18a15.07,15.07,0,0,0,1.33,1.06,20.17,20.17,0,0,0,6.11,3.07c.52.16,1,.29,1.56.41l.51.09,1.08.18.6.06c.34,0,.68.06,1,.08l.62,0,.38,0c.35,0,.69,0,1,0h.09c.51,0,1-.07,1.52-.14l.21,0c.5-.08,1-.17,1.49-.27l.28-.07c.49-.11,1-.24,1.46-.39l.24-.07c.5-.17,1-.34,1.49-.54s1.08-.45,1.59-.73l1.52-.87,1.44-1c.48-.33.89-.75,1.34-1.12a14.09,14.09,0,0,0,1.23-1.21c.39-.43.8-.83,1.16-1.27.51-.69,1.06-1.35,1.54-2.07.16-.24.32-.48.46-.73a23.36,23.36,0,0,0,1.63-3,24.71,24.71,0,0,0,1.18-3.25,26.39,26.39,0,0,0,1-6.85,25.17,25.17,0,0,0-.22-3.47,30.53,30.53,0,0,0-.66-3.43c-.16-.57-.36-1.12-.54-1.67l-.28-.83-.35-.81c-.24-.53-.46-1.08-.73-1.6l-.43-.77-.43-.76a14.26,14.26,0,0,0-1-1.47c-.18-.24-.34-.49-.51-.73a7.12,7.12,0,0,0-.54-.69c-.38-.44-.76-.9-1.15-1.33a13,13,0,0,0-1.23-1.23l-.62-.59-.63-.59c-.14-.13-.29-.25-.44-.37s-.25-.21-.38-.3l-.53-.41-1.38-1-1.46-.92c-.5-.3-1-.59-1.51-.86a31.45,31.45,0,0,0-8.11-3,30.67,30.67,0,0,0-3.43-.57l-.87-.07-.85-.07h-.57c-.37,0-.73,0-1.1,0h-.29c-.45,0-.9,0-1.35,0l-.49,0c-.38,0-.77.05-1.15.09l-.46.05c-.52.06-1,.13-1.56.22l-.14,0c-.47.08-1,.17-1.42.28l-.47.1-1.12.28-.46.13c-.51.14-1,.3-1.51.47h0a32.44,32.44,0,0,0-4.85,2.1c-.51.28-1,.57-1.53.88a31.88,31.88,0,0,0-4.29,3.11c-.43.37-.84.75-1.25,1.14l-.06.05h0q-1.24,1.26-2.43,2.55A104.86,104.86,0,0,0,744.37,450Zm174.35,68.72a97.15,97.15,0,0,1-162.11-41.9c22.72-2.91,42.88-.43,59.94,7.4,10.39,4.76,17.23,10.24,23.86,15.54,7.82,6.27,15.21,12.18,27.23,16.3a77.43,77.43,0,0,0,25.25,4.07A106.47,106.47,0,0,0,921.34,516C920.49,516.9,919.62,517.82,918.72,518.72ZM930.83,504c-22.84,8.63-43.18,10-60.45,4.1a64,64,0,0,1-18.39-10,109.53,109.53,0,0,1,90.9-19.59A96.7,96.7,0,0,1,930.83,504ZM786.64,439.19l26.06,19.55L850,412.46l37.3,46.28,26.06-19.55,32.76,24.87c-.3,2.09-.68,4.18-1.12,6.25a118.08,118.08,0,0,0-99.88,22.4c-6.56-5.24-14-11.12-25-16.18-18.75-8.59-40.76-11.28-65.43-8-.29-1.49-.54-3-.76-4.49Z"/><path class="cls-2" d="M739.73,427.4l1.79-6.16-8.38-2.44.39-1.32a3.16,3.16,0,0,1,1-1.72,2.43,2.43,0,0,1,1.52-.49,15.36,15.36,0,0,1,2.32.24,24.77,24.77,0,0,0,2.58.3,6.68,6.68,0,0,0,2.2-.27l1.94-6.64a6.66,6.66,0,0,1-2.19.46,21.87,21.87,0,0,1-2.62-.12,18.87,18.87,0,0,0-2.56-.11,5.42,5.42,0,0,0-2.06.55,6.16,6.16,0,0,0-2.06,1.76l-.31-.09a9.48,9.48,0,0,0-1.08-4.73,5.12,5.12,0,0,0-3.1-2.41,6,6,0,0,0-3.57,0,6.71,6.71,0,0,0-3.15,2.29,13,13,0,0,0-2.29,4.67l-1.34,4.62h0l-1.48,5.07Zm-14-15.7a2.23,2.23,0,0,1,1.09-.84,2.33,2.33,0,0,1,1.33,0,2.22,2.22,0,0,1,1.6,1.3,3.85,3.85,0,0,1-.08,2.43l-.85,2.92-4.69-1.37.78-2.68A5.44,5.44,0,0,1,725.71,411.7Z"/><path class="cls-2" d="M738.45,394.86a15.21,15.21,0,0,0,6.13,2.3,9.36,9.36,0,0,0,5.57-1,11.76,11.76,0,0,0,4.5-4.46,12,12,0,0,0,1.94-6,10,10,0,0,0-1.51-5.62,13.67,13.67,0,0,0-4.65-4.5,15.13,15.13,0,0,0-6.1-2.28,9.47,9.47,0,0,0-5.6,1,11.7,11.7,0,0,0-4.52,4.47,11.92,11.92,0,0,0-1.93,6,10,10,0,0,0,1.54,5.62A13.78,13.78,0,0,0,738.45,394.86Zm.5-13a4.48,4.48,0,0,1,2.21-2,4.35,4.35,0,0,1,2.7-.07,12.66,12.66,0,0,1,3.1,1.42,10.36,10.36,0,0,1,2.56,2.15,4.76,4.76,0,0,1,1.13,2.5,4.24,4.24,0,0,1-.72,2.75,4.43,4.43,0,0,1-2.19,2,4.25,4.25,0,0,1-2.69.06,12.31,12.31,0,0,1-3.13-1.43,10.35,10.35,0,0,1-2.56-2.13,4.67,4.67,0,0,1-1.12-2.47A4.21,4.21,0,0,1,739,381.87Z"/><polygon class="cls-2" points="771.31 370.07 771.31 370.07 776.73 364.74 772.72 360.66 767.3 366 754.93 353.42 750.39 357.89 766.77 374.54 771.31 370.07"/><polygon class="cls-2" points="787.58 356.77 787.58 356.77 788.51 356.17 789.47 355.56 789.47 355.56 795.87 351.45 792.78 346.64 786.38 350.74 776.86 335.9 771.5 339.34 784.1 359 787.58 356.77"/><rect class="cls-2" x="799.78" y="323.73" width="6.37" height="23.35" transform="matrix(0.92, -0.38, 0.38, 0.92, -67.22, 330.28)"/><polygon class="cls-2" points="825.94 340.35 823.46 326.67 823.82 326.61 825.63 329.52 832.21 339.21 839.55 337.88 835.38 314.9 829.58 315.96 832.15 330.17 831.8 330.24 829.99 327.37 823.02 317.15 815.97 318.43 820.14 341.41 825.94 340.35"/><path class="cls-2" d="M853.7,336.7a9.68,9.68,0,0,0,5.25,1.92,6.2,6.2,0,0,0,3.36-.58,7.93,7.93,0,0,0,2.83-2.52l.29,0,1,3.29,3.47.29L871,326.22l-9.56-.82-.39,4.58,3.53.3a2.85,2.85,0,0,1-1.35,2,3.92,3.92,0,0,1-2.43.56,4.62,4.62,0,0,1-2.52-.93,4.37,4.37,0,0,1-1.44-2.21,8.87,8.87,0,0,1-.27-3.44,10,10,0,0,1,.84-3.44,4.38,4.38,0,0,1,1.79-2,4.64,4.64,0,0,1,2.68-.49,3.91,3.91,0,0,1,2.44,1,4.85,4.85,0,0,1,1.3,2.44l5.94-.62a10.34,10.34,0,0,0-1.45-4.3,8.32,8.32,0,0,0-3.11-2.92,11.51,11.51,0,0,0-4.63-1.31,11.65,11.65,0,0,0-6,1,10.28,10.28,0,0,0-4.39,3.86,13.42,13.42,0,0,0-2,6.24,16.06,16.06,0,0,0,.63,6.54A9.33,9.33,0,0,0,853.7,336.7Z"/><polygon class="cls-2" points="902.77 339.91 908.79 343.01 904.28 351.77 909.95 354.68 920.63 333.92 914.97 331 911.09 338.54 905.07 335.44 908.95 327.9 903.28 324.99 892.59 345.75 898.26 348.67 902.77 339.91"/><rect class="cls-2" x="916.45" y="350.73" width="23.35" height="6.37" transform="translate(67.72 850.28) rotate(-50.85)"/><polygon class="cls-2" points="933.69 375.29 933.69 375.29 940.1 382.76 944.44 379.04 939.49 373.27 952.88 361.79 948.73 356.95 931 372.15 933.69 375.29"/><polygon class="cls-2" points="948.27 395.88 952.04 402.77 957.06 400.02 953.4 393.35 968.87 384.88 965.8 379.29 945.32 390.51 948.27 395.88"/><path class="cls-2" d="M967.06,408.77a5.7,5.7,0,0,0-1.2,3.27,23.35,23.35,0,0,0,.35,4.16c.15,1,.24,1.7.29,2.21a3,3,0,0,1-.18,1.37,1.33,1.33,0,0,1-.94.79,1.49,1.49,0,0,1-1,0,2.11,2.11,0,0,1-.82-.77,5.91,5.91,0,0,1-.64-1.53,4.13,4.13,0,0,1,0-2.63,3.77,3.77,0,0,1,1.83-1.91l-2.88-5.4a7.94,7.94,0,0,0-4.25,4.12q-1.27,2.82,0,7.32a12.42,12.42,0,0,0,2.19,4.48,6.92,6.92,0,0,0,3.45,2.37,8,8,0,0,0,4.54-.1,6.44,6.44,0,0,0,3.71-2.27,5.73,5.73,0,0,0,1.09-3.2,24.57,24.57,0,0,0-.35-4.1,19.55,19.55,0,0,1-.3-2.31,3.58,3.58,0,0,1,.22-1.49,1.41,1.41,0,0,1,1-.82,1.79,1.79,0,0,1,1.19,0,2,2,0,0,1,.91.76,4.69,4.69,0,0,1,.63,1.42,4.6,4.6,0,0,1,.19,1.88,2.76,2.76,0,0,1-.58,1.39,4.13,4.13,0,0,1-1.3,1l2.42,5.1a8.21,8.21,0,0,0,3.16-2.07,6.59,6.59,0,0,0,1.62-3.51,11.84,11.84,0,0,0-.47-5.15,11,11,0,0,0-2.44-4.62,7.23,7.23,0,0,0-7.37-2.13A7.24,7.24,0,0,0,967.06,408.77Z"/><path class="cls-2" d="M723.62,480a5.93,5.93,0,0,1,.86-.73,7.64,7.64,0,0,0,1.56-1.49A5.47,5.47,0,0,0,727,476a4.89,4.89,0,0,0,.14-.78,9.18,9.18,0,0,0,1,2.66,4.21,4.21,0,0,0,1.9,1.82,4.73,4.73,0,0,0,2.85.24,4.54,4.54,0,0,0,2.51-1.22,4.39,4.39,0,0,0,1.16-2.5,11.71,11.71,0,0,0-.17-3.75l-.65-3.63h0l-.62-3.43-.58-3.19-2.54.46c.1.88.15,1.46.16,1.73a.77.77,0,0,1-.15.56,1.35,1.35,0,0,1-.62.22L721,467.06a1.45,1.45,0,0,1-.66,0,.79.79,0,0,1-.34-.47q-.13-.41-.45-1.68l-2.54.46.58,3.19.47,2.59.57,3.16,2.54-.45c-.1-.88-.16-1.46-.16-1.73a.69.69,0,0,1,.15-.56,1.3,1.3,0,0,1,.61-.22l4-.73.21,1.13a2.23,2.23,0,0,1-.15,1.49,2.28,2.28,0,0,1-.91.91,16.42,16.42,0,0,1-1.66.77,4.38,4.38,0,0,0-.71.26l-.7.3a9.79,9.79,0,0,0-1.84,1.19,2.9,2.9,0,0,0-.88,1.29,3.46,3.46,0,0,0-.05,1.65,3.25,3.25,0,0,0,.91,1.84,3.19,3.19,0,0,0,1.64.84,5.38,5.38,0,0,0,2,0l.06-.13a1.1,1.1,0,0,1-.31-.37,1.87,1.87,0,0,1-.16-.52,1.52,1.52,0,0,1,0-.64A1.46,1.46,0,0,1,723.62,480Zm9-10.63.57,3.13a4.13,4.13,0,0,1,0,1.43,1.9,1.9,0,0,1-.48,1,1.92,1.92,0,0,1-1.07.5,1.84,1.84,0,0,1-1.18-.13,2,2,0,0,1-.82-.81,4.21,4.21,0,0,1-.46-1.38l-.54-3Z"/><path class="cls-2" d="M742,502.28a6.94,6.94,0,0,0,1.88-3.85,9,9,0,0,0-.72-4.67,9.34,9.34,0,0,0-2.78-3.87,7.32,7.32,0,0,0-4.12-1.58,10.81,10.81,0,0,0-5,.9,11.89,11.89,0,0,0-4.26,2.78,7.06,7.06,0,0,0-1.89,3.84,9,9,0,0,0,.72,4.7,9.18,9.18,0,0,0,2.79,3.85A7.61,7.61,0,0,0,732.8,506a10.78,10.78,0,0,0,5-.9A11.79,11.79,0,0,0,742,502.28Zm-9.08-.77a3.9,3.9,0,0,1-2.26-.44,3.45,3.45,0,0,1-1.43-1.76A3.59,3.59,0,0,1,729,497a3.73,3.73,0,0,1,1.31-1.87,10.91,10.91,0,0,1,2.78-1.55,10.47,10.47,0,0,1,3.06-.82,3.28,3.28,0,0,1,3.66,2.23,3.3,3.3,0,0,1-1.05,4.15,10.86,10.86,0,0,1-2.79,1.57A10.09,10.09,0,0,1,733,501.51Z"/><path class="cls-2" d="M744.13,524.21a3,3,0,0,1-1,.32.64.64,0,0,1-.41-.33l-1.86-2.81,9.11-6a1.15,1.15,0,0,1,.6-.25c.15,0,.33.13.55.38s.65.8,1.28,1.65l2.15-1.43-2.14-3.22-1.35-2-1.79-2.7-2.15,1.42c.44.77.72,1.28.83,1.53a.74.74,0,0,1,.08.57,1.35,1.35,0,0,1-.47.45l-8.73,5.78a1.45,1.45,0,0,1-.6.27.76.76,0,0,1-.49-.3c-.19-.21-.55-.66-1.08-1.36l-2.15,1.43,1.79,2.7,1,1.48h0l5.19,7.83,5.87-4L746.69,523C745.49,523.58,744.64,524,744.13,524.21Z"/><path class="cls-2" d="M765.5,529.24l-1.7-1.76-2.25-2.33-1.86,1.79c.57.67.94,1.12,1.09,1.35a.75.75,0,0,1,.19.55,1.32,1.32,0,0,1-.39.52l-7.52,7.27a1.33,1.33,0,0,1-.55.37.69.69,0,0,1-.53-.2q-.35-.25-1.32-1.14l-1.85,1.79,2.25,2.33,1.24,1.29h0l6.52,6.75,5-5-2.09-2.17-2.31,1.65a2.5,2.5,0,0,1-.9.49.63.63,0,0,1-.46-.24l-2.35-2.43,7.87-7.59a1.1,1.1,0,0,1,.55-.36q.21,0,.6.27c.26.2.78.67,1.56,1.39l1.86-1.79Z"/><path class="cls-2" d="M783.06,552.9l2.5,1.75,4.05-5.54-7.39-5.19h0l-2.86-2-2.66-1.85-1.48,2.11c.69.55,1.13.93,1.33,1.12s.29.36.28.5a1.31,1.31,0,0,1-.28.59l-6,8.57a1.3,1.3,0,0,1-.46.46.7.7,0,0,1-.57-.09c-.25-.13-.75-.42-1.5-.88l-1.49,2.12,2.66,1.86,2.85,2h0l7.51,5.27,3.92-5.87-2.43-1.7-2,2.08a2.36,2.36,0,0,1-.72.57.67.67,0,0,1-.5-.15l-4-2.78,2.54-3.61,3.28,2.49,2.07-2.94-3.47-2.23,2.17-3.08,3.88,2.73a.51.51,0,0,1,.27.4,2.86,2.86,0,0,1-.29.87C784.11,550.9,783.69,551.71,783.06,552.9Z"/><path class="cls-2" d="M807.4,558.91a12.84,12.84,0,0,0-4.6-3.09l-1.65-.71-2.21-1-3-1.29-1,2.37c.79.4,1.29.68,1.53.83s.36.3.38.43a1.29,1.29,0,0,1-.16.64l-4.15,9.6a1.23,1.23,0,0,1-.36.55.7.7,0,0,1-.57,0c-.27-.07-.82-.25-1.65-.55l-1,2.37,3,1.29,1.91.83h0l.6.25.69.3h0l.45.2a13.33,13.33,0,0,0,5.37,1.23,7.21,7.21,0,0,0,4.32-1.41,10.12,10.12,0,0,0,3.06-4.18,9.55,9.55,0,0,0,.88-4.72A7,7,0,0,0,807.4,558.91ZM804,565.75a10.06,10.06,0,0,1-1.81,2.93,3.46,3.46,0,0,1-2.2,1.14,5.72,5.72,0,0,1-2.81-.55l-.86-.38,4.55-10.51.65.29a6.28,6.28,0,0,1,2.49,1.72,3.48,3.48,0,0,1,.78,2.29A8.42,8.42,0,0,1,804,565.75Z"/><path class="cls-2" d="M833.07,564.61l-3.21-.43-.35,2.56c.87.17,1.43.29,1.7.38s.43.18.48.31a1.28,1.28,0,0,1,0,.65l-1.4,10.37a1.31,1.31,0,0,1-.2.63.68.68,0,0,1-.55.17c-.27,0-.85,0-1.73-.08l-.34,2.56,3.21.43,2.61.36,3.18.43.35-2.56c-.87-.17-1.43-.3-1.7-.38a.77.77,0,0,1-.48-.32,1.3,1.3,0,0,1,0-.65L836,568.67a1.44,1.44,0,0,1,.2-.63.77.77,0,0,1,.55-.17c.28,0,.86,0,1.73.08l.35-2.56-3.19-.43Z"/><path class="cls-2" d="M861,577.37a7,7,0,0,1-1.27,1.13,7.86,7.86,0,0,1-1.71.89,6.27,6.27,0,0,1-2.14.41,5.66,5.66,0,0,1-2.65-.48,3.74,3.74,0,0,1-1.69-1.67,7,7,0,0,1-.65-3,9,9,0,0,1,.37-3.09,4.23,4.23,0,0,1,1.26-2,3.09,3.09,0,0,1,1.93-.72,2.6,2.6,0,0,1,1.44.33,3,3,0,0,1,1.08,1.13,12.9,12.9,0,0,1,.94,2.09l3.24-.1-.22-7.16-3.18.09-.78,2.33a3.47,3.47,0,0,0-.74-1.24,2.92,2.92,0,0,0-1.23-.78,4.73,4.73,0,0,0-1.7-.23,6.75,6.75,0,0,0-3.71,1.21,7.45,7.45,0,0,0-2.58,3.3,11.34,11.34,0,0,0-.84,4.94,11.64,11.64,0,0,0,1.17,5.14,6.89,6.89,0,0,0,3.06,3,9.78,9.78,0,0,0,4.75.9,8.19,8.19,0,0,0,3.41-.8,4.94,4.94,0,0,0,2.22-2.16,5.27,5.27,0,0,0,.36-3.4Z"/><path class="cls-2" d="M885.79,571.55l-2.89.67c.1,1.44.17,2.4.2,2.88a2.34,2.34,0,0,1-.06.92.64.64,0,0,1-.44.27l-4.71,1.09-1-4.3,4.05-.78-.81-3.5-4,1.09-.85-3.67,4.63-1.07a.51.51,0,0,1,.48.07,2.7,2.7,0,0,1,.45.8c.2.43.52,1.28,1,2.55l3-.69-1.42-6.72-8.8,2h0l-3.4.79-3.16.74.59,2.51c.86-.14,1.44-.22,1.72-.24a.76.76,0,0,1,.56.13,1.31,1.31,0,0,1,.25.6l2.36,10.19a1.43,1.43,0,0,1,0,.66.78.78,0,0,1-.46.36c-.25.1-.8.28-1.65.53L872,582l3.16-.73,3.4-.79h0l8.94-2.06Z"/><path class="cls-2" d="M920.19,556.86a7.11,7.11,0,0,1-.58,1.61,8.37,8.37,0,0,1-1.07,1.59,6.69,6.69,0,0,1-1.69,1.38,5.79,5.79,0,0,1-2.57.84,3.78,3.78,0,0,1-2.27-.66,7.1,7.1,0,0,1-2-2.33,8.78,8.78,0,0,1-1.14-2.9,4.21,4.21,0,0,1,.17-2.32,3.07,3.07,0,0,1,1.36-1.55,2.65,2.65,0,0,1,1.42-.4,3,3,0,0,1,1.49.49,13.22,13.22,0,0,1,1.82,1.38l2.8-1.63-3.6-6.19-2.75,1.6.42,2.42a3.5,3.5,0,0,0-1.24-.74,3,3,0,0,0-1.46-.1,4.55,4.55,0,0,0-1.6.61,6.73,6.73,0,0,0-2.69,2.83,7.52,7.52,0,0,0-.7,4.12,11.49,11.49,0,0,0,1.62,4.75,11.79,11.79,0,0,0,3.48,4,6.89,6.89,0,0,0,4.13,1.2,9.88,9.88,0,0,0,4.61-1.47,8,8,0,0,0,2.61-2.33,4.87,4.87,0,0,0,.93-2.95,5.29,5.29,0,0,0-1.31-3.17Z"/><path class="cls-2" d="M943.14,541.22l-.14,0a1.15,1.15,0,0,1-.16.45,1.93,1.93,0,0,1-.36.41,1.52,1.52,0,0,1-.55.33,1.41,1.41,0,0,1-.71,0,5.43,5.43,0,0,1-1.07-.35,7.7,7.7,0,0,0-2.09-.55,5.26,5.26,0,0,0-2,.14,4.3,4.3,0,0,0-.75.29,9.69,9.69,0,0,0,1.78-2.21,4.27,4.27,0,0,0,.56-2.58,4.68,4.68,0,0,0-1.28-2.55,4.55,4.55,0,0,0-2.35-1.51,4.35,4.35,0,0,0-2.73.31,11.87,11.87,0,0,0-3.12,2.09L925.4,538h0l-.7.62-.33.3h0l-1.58,1.4-2.43,2.15,1.72,1.93c.69-.54,1.16-.88,1.39-1a.73.73,0,0,1,.56-.16,1.31,1.31,0,0,1,.51.41l7,7.82a1.35,1.35,0,0,1,.34.55.74.74,0,0,1-.22.54q-.27.32-1.2,1.26l1.72,1.93,2.42-2.15,2-1.75,2.4-2.14-1.71-1.93c-.69.54-1.16.89-1.39,1a.74.74,0,0,1-.56.16,1.41,1.41,0,0,1-.51-.41L932,545.43l.87-.77a2.23,2.23,0,0,1,1.35-.65,2.29,2.29,0,0,1,1.24.31,16,16,0,0,1,1.53,1,5.64,5.64,0,0,0,.58.47l.63.43a9.44,9.44,0,0,0,2,1,2.9,2.9,0,0,0,1.56.08,3.43,3.43,0,0,0,1.44-.82,3.26,3.26,0,0,0,1.09-1.72,3.16,3.16,0,0,0-.13-1.85A5.48,5.48,0,0,0,943.14,541.22Zm-15.68-.94,2.38-2.12a3.6,3.6,0,0,1,1.2-.77,1.94,1.94,0,0,1,1.08-.1,2,2,0,0,1,1,.65,1.9,1.9,0,0,1,.5,1.08,2,2,0,0,1-.26,1.12,4.55,4.55,0,0,1-.94,1.11l-2.28,2Z"/><path class="cls-2" d="M955.67,519.88l-1.78,2.37c1,1,1.68,1.73,2,2.08a2.4,2.4,0,0,1,.55.73.64.64,0,0,1-.16.5l-2.9,3.87-3.53-2.65,2.59-3.2-2.88-2.16-2.33,3.4-3-2.27,2.85-3.8a.52.52,0,0,1,.42-.25,2.72,2.72,0,0,1,.86.32c.43.2,1.22.64,2.39,1.31l1.83-2.44-5.41-4.23-5.42,7.23h0l-2.09,2.8-1.94,2.6,2.07,1.54c.57-.67,1-1.1,1.16-1.29a.75.75,0,0,1,.51-.27,1.27,1.27,0,0,1,.58.3l8.37,6.28a1.33,1.33,0,0,1,.45.47.73.73,0,0,1-.11.57c-.13.25-.44.74-.92,1.47l2.07,1.55,1.94-2.59,2.09-2.79h0l5.51-7.34Z"/><path class="cls-2" d="M972.42,497.54s0,0,0,0a3.16,3.16,0,0,1-.63.69,1.81,1.81,0,0,1-.92.2c-.43,0-1.12,0-2.07-.11l-13-1-2,4.19,9,9.51a.07.07,0,0,0,0,.05l.05,0a20,20,0,0,1,1.37,1.47,1.51,1.51,0,0,1,.37.79,3.38,3.38,0,0,1-.17,1l2.33,1.11,3.27-6.9-2.28-1.09a7,7,0,0,1-.73,1.12c-.2.23-.38.33-.55.29a1.72,1.72,0,0,1-.65-.43l-.93-.9,2.32-4.91,1.32.16a2.16,2.16,0,0,1,.75.21q.19.12.12.57A8.3,8.3,0,0,1,969,505l2.28,1.08,3.56-7.52-2.33-1.1Zm-9.71,8L961.09,504l-2.43-2.32,3.33.44,2.22.27Z"/><path class="cls-2" d="M980.54,465.81c-.23.83-.4,1.38-.5,1.65s-.22.42-.35.46a1.54,1.54,0,0,1-.65,0l-10.24-2.17a1.4,1.4,0,0,1-.61-.23c-.1-.08-.15-.27-.13-.56s.08-.86.2-1.71l-2.52-.53-.67,3.14v.08h0l-.38,1.78-.33,1.58h0l-.26,1.21,8.58,5.92-10.21,1.79-1.57,7.41,2.52.54c.3-.82.57-1.49.8-2l11.17,2.36a.88.88,0,0,1,.44.18.93.93,0,0,1,.07.53,15,15,0,0,1-.2,1.55l2.53.53,1.63-7.71-2.53-.53a15.31,15.31,0,0,1-.44,1.5,1.16,1.16,0,0,1-.3.53c-.08.06-.24.06-.48,0l-8.42-1.78,12.75-2.5.14-.61-10.67-7.74,8.23,1.75a1.27,1.27,0,0,1,.61.24.73.73,0,0,1,.13.56c0,.28-.08.85-.21,1.72l2.53.54.67-3.17.54-2.58.67-3.14Z"/><path class="cls-2" d="M850,300c-82.71,0-150,67.29-150,150s67.29,150,150,150,150-67.29,150-150S932.71,300,850,300Zm0,291.55c-78,0-141.55-63.5-141.55-141.55S772,308.45,850,308.45,991.55,372,991.55,450,928.05,591.55,850,591.55Z"/><circle class="cls-3" cx="350.06" cy="449.61" r="105.24"/><path class="cls-4" d="M320.07,476.53c11,5.06,18.49,10.94,25.05,16.18A118.08,118.08,0,0,1,445,470.31c.44-2.07.82-4.16,1.12-6.25l-32.76-24.87L387.3,458.74,350,412.46l-37.3,46.28-26.06-19.55-32.76,24.87c.22,1.5.47,3,.76,4.49C279.31,465.25,301.33,467.94,320.07,476.53Z"/><path class="cls-4" d="M367.64,516.06c-12-4.12-19.41-10-27.23-16.3-6.62-5.3-13.47-10.78-23.86-15.54-17.06-7.83-37.22-10.31-59.94-7.4a97.15,97.15,0,0,0,162.11,41.9c.9-.9,1.77-1.82,2.62-2.74a106.47,106.47,0,0,1-28.45,4.15A77.43,77.43,0,0,1,367.64,516.06Z"/><path class="cls-5" d="M395.26,478.17A110.15,110.15,0,0,0,352,498.09a64,64,0,0,0,18.39,10C387.66,514,408,512.6,430.83,504a96.7,96.7,0,0,0,12.06-25.47A110.59,110.59,0,0,0,395.26,478.17Z"/><path class="cls-4" d="M395.26,478.17A110.15,110.15,0,0,0,352,498.09a64,64,0,0,0,18.39,10C387.66,514,408,512.6,430.83,504a96.7,96.7,0,0,0,12.06-25.47A110.59,110.59,0,0,0,395.26,478.17Z"/><path class="cls-4" d="M387.3,458.74,350,412.46l-37.3,46.28-26.06-19.55-32.76,24.87c.22,1.5.47,3,.76,4.49,24.67-3.3,46.69-.61,65.43,8,11,5.06,18.49,10.94,25.05,16.18A118.08,118.08,0,0,1,445,470.31c.44-2.07.82-4.16,1.12-6.25l-32.76-24.87Z"/><path class="cls-5" d="M367.64,516.06c-12-4.12-19.41-10-27.23-16.3-6.62-5.3-13.47-10.78-23.86-15.54-17.06-7.83-37.22-10.31-59.94-7.4a97.15,97.15,0,0,0,162.11,41.9c.9-.9,1.77-1.82,2.62-2.74a106.47,106.47,0,0,1-28.45,4.15A77.43,77.43,0,0,1,367.64,516.06Z"/><path class="cls-4" d="M395.26,478.17A110.15,110.15,0,0,0,352,498.09a64,64,0,0,0,18.39,10C387.66,514,408,512.6,430.83,504a96.7,96.7,0,0,0,12.06-25.47A110.59,110.59,0,0,0,395.26,478.17Z"/><path class="cls-4" d="M367.64,516.06c-12-4.12-19.41-10-27.23-16.3-6.62-5.3-13.47-10.78-23.86-15.54-17.06-7.83-37.22-10.31-59.94-7.4a97.15,97.15,0,0,0,162.11,41.9c.9-.9,1.77-1.82,2.62-2.74a106.47,106.47,0,0,1-28.45,4.15A77.43,77.43,0,0,1,367.64,516.06Z"/><path class="cls-6" d="M387.3,458.74,350,412.46l-37.3,46.28-26.06-19.55-32.76,24.87c.22,1.5.47,3,.76,4.49,24.67-3.3,46.69-.61,65.43,8,11,5.06,18.49,10.94,25.05,16.18A118.08,118.08,0,0,1,445,470.31c.44-2.07.82-4.16,1.12-6.25l-32.76-24.87Z"/><path class="cls-4" d="M367.64,516.06c-12-4.12-19.41-10-27.23-16.3-6.62-5.3-13.47-10.78-23.86-15.54-17.06-7.83-37.22-10.31-59.94-7.4a97.15,97.15,0,0,0,162.11,41.9c.9-.9,1.77-1.82,2.62-2.74a106.47,106.47,0,0,1-28.45,4.15A77.43,77.43,0,0,1,367.64,516.06Z"/><path class="cls-4" d="M395.26,478.17A110.15,110.15,0,0,0,352,498.09a64,64,0,0,0,18.39,10C387.66,514,408,512.6,430.83,504a96.7,96.7,0,0,0,12.06-25.47A110.59,110.59,0,0,0,395.26,478.17Z"/><path class="cls-4" d="M387.3,458.74,350,412.46l-37.3,46.28-26.06-19.55-32.76,24.87c.22,1.5.47,3,.76,4.49,24.67-3.3,46.69-.61,65.43,8,11,5.06,18.49,10.94,25.05,16.18A118.08,118.08,0,0,1,445,470.31c.44-2.07.82-4.16,1.12-6.25l-32.76-24.87Z"/><path class="cls-3" d="M290.12,367.41l.47-.1c.47-.11,1-.2,1.42-.28l.14,0c.52-.09,1-.16,1.56-.22l.46-.05c.38,0,.77-.07,1.15-.09l.49,0c.45,0,.9,0,1.35,0h.29c.37,0,.73,0,1.1,0h.57l.85.07.87.07a30.67,30.67,0,0,1,3.43.57,31.45,31.45,0,0,1,8.11,3c.51.27,1,.56,1.51.86l1.46.92,1.38,1,.53.41c.13.09.25.2.38.3s.3.24.44.37l.63.59.62.59a13,13,0,0,1,1.23,1.23c.39.43.77.89,1.15,1.33a7.12,7.12,0,0,1,.54.69c.17.24.33.49.51.73a14.26,14.26,0,0,1,1,1.47l.43.76.44.77c.26.52.48,1.07.72,1.6l.35.81.28.83c.18.55.38,1.1.54,1.67a28.44,28.44,0,0,1,.66,3.43,25.17,25.17,0,0,1,.22,3.47,26.39,26.39,0,0,1-1,6.85,24.71,24.71,0,0,1-1.18,3.25,23.36,23.36,0,0,1-1.63,3c-.14.25-.3.49-.46.73-.48.72-1,1.38-1.54,2.07-.36.44-.77.84-1.16,1.27a14.09,14.09,0,0,1-1.23,1.21c-.45.37-.86.79-1.34,1.12l-1.44,1-1.52.87c-.51.28-1.06.48-1.59.73s-1,.37-1.49.54l-.24.07c-.48.15-1,.28-1.46.39l-.28.07c-.49.1-1,.19-1.49.27l-.21,0c-.51.07-1,.12-1.52.14h-.09c-.35,0-.69,0-1,0l-.38,0-.62,0c-.34,0-.68,0-1-.08l-.6-.06-1.08-.18-.51-.09c-.52-.12-1-.25-1.56-.41a20.29,20.29,0,0,1-6.11-3.07,16.69,16.69,0,0,1-1.33-1.06L291,411.75c-.38-.44-.77-.87-1.14-1.32s-.69-.94-1-1.43a16.26,16.26,0,0,1-1.66-13.3,15.54,15.54,0,0,1,1.27-2.93c.18-.31.36-.62.55-.92a16.11,16.11,0,0,1,1.56-2,13,13,0,0,1,5.67-3.77h0a9.46,9.46,0,0,1,.91-.26l.3-.07.63-.13.35-.05.6-.07.35,0,.62,0h.31q.6,0,1.2.06l.25,0c.41.05.82.1,1.22.19a13.16,13.16,0,0,1,3.18,1.16,12.3,12.3,0,0,1,1.44.88,11.2,11.2,0,0,1,1.3,1.07,9.9,9.9,0,0,1,1.67,1.93,10.49,10.49,0,0,1,1.55,3.94,9.94,9.94,0,0,1-3.18,9.13c-.21.19-.43.36-.66.53a8.17,8.17,0,0,1-1.47.83c-.25.11-.52.21-.78.3l-.73.19-.21,0-.57.09-.2,0-.72,0h0l-.3,0v-1.19h.4l.41,0,.25,0,.44-.09.2,0,.62-.19a6.7,6.7,0,0,0,2.35-1.48,9.43,9.43,0,0,0,.92-1.07c.14-.19.28-.38.4-.58s.24-.41.34-.62a7.73,7.73,0,0,0,.51-1.31,5.2,5.2,0,0,0,.17-.68,8,8,0,0,0,.18-1.38,9.18,9.18,0,0,0-.05-1.39c0-.24-.07-.46-.12-.69a8.15,8.15,0,0,0-2.81-4.63,9.28,9.28,0,0,0-1.71-1.21,10.21,10.21,0,0,0-1.26-.58,11.68,11.68,0,0,0-2-.57h0l-.8-.1h-.24l-.58,0h-.26l-.73,0h-.11c-.28,0-.55.06-.82.11l-.23,0c-.2.05-.41.09-.61.15l-.24.06c-.26.08-.53.16-.79.26a10,10,0,0,0-1.82.91,9.54,9.54,0,0,0-1.09.8l-.51.46a11.13,11.13,0,0,0-.93,1,12.86,12.86,0,0,0-2.53,4.86,12.88,12.88,0,0,0-.41,3.81c0,.43.05.85.11,1.27a13.22,13.22,0,0,0,.35,1.66A12.18,12.18,0,0,0,292,407a5.39,5.39,0,0,0,.4.54c.13.18.27.35.41.53.29.34.61.65.91,1l1.05.9a5.58,5.58,0,0,0,.73.55l.38.26a16.27,16.27,0,0,0,4.95,2.24c.4.1.79.18,1.19.25l.34.05,1,.12.28,0c.4,0,.8,0,1.2,0H305c.36,0,.71,0,1.06-.06l.22,0c.39,0,.78-.09,1.17-.16l.25-.05c.35-.07.7-.14,1.05-.24l.14,0c.38-.11.76-.23,1.13-.36l.25-.09c.37-.14.74-.28,1.1-.45h0l.6-.3a4.75,4.75,0,0,0,.59-.31l1.13-.71,1.06-.81c.35-.27.65-.61,1-.9a10.88,10.88,0,0,0,.92-1c.29-.36.61-.68.88-1.05l.39-.56a12.91,12.91,0,0,0,1.09-1.73c.23-.39.44-.79.64-1.2s.38-.82.54-1.24a20.11,20.11,0,0,0,1.33-5.91c0-.68.06-1.35,0-2a21.58,21.58,0,0,0-.29-2.67,23.34,23.34,0,0,0-.61-2.6c-.15-.42-.32-.83-.47-1.25l-.23-.62-.3-.59c-.21-.4-.38-.8-.6-1.19l-.7-1.12a7.25,7.25,0,0,0-.5-.73c-.1-.11-.19-.23-.28-.34l-.26-.35c-.18-.24-.36-.47-.56-.69a19.9,19.9,0,0,0-1.91-1.87l-1-.89a5.47,5.47,0,0,0-.54-.41l-.56-.38-1.11-.78-1.18-.66a24.65,24.65,0,0,0-10.25-3c-.47,0-.95,0-1.42,0s-.83,0-1.24,0h-.16c-.36,0-.73,0-1.09.08l-.42.05-.82.1-.48.08-.76.14-.49.1-.75.18-.46.12-.81.24-.39.12-1.17.42a24.88,24.88,0,0,0-3.56,1.73c-.37.22-.75.46-1.11.7a24.61,24.61,0,0,0-3,2.37l-.35.35-.22.21h0l-.08.09-.18.17c-.89.9-1.76,1.81-2.61,2.74a97,97,0,0,0-25.64,70L286.6,428.6l24.64,18.48L350,399l38.76,48.09L413.4,428.6l33.65,25.55A97.22,97.22,0,0,0,305,363.87a31.87,31.87,0,0,0-3.75-.62,36.62,36.62,0,0,0-3.77-.2c-.61,0-1.21,0-1.82.06q-3.47,2.17-6.74,4.61l.11,0Z"/><path class="cls-2" d="M424.69,375.31a105.67,105.67,0,0,0-136.38-11.08,35.4,35.4,0,0,1,7.32-1.12c.61,0,1.21-.06,1.82-.06a36.62,36.62,0,0,1,3.77.2,31.87,31.87,0,0,1,3.75.62,97.14,97.14,0,0,1,142.08,90.28L413.4,428.6l-24.64,18.48L350,399l-38.76,48.09L286.6,428.6,253,454.15a97,97,0,0,1,25.64-70c.85-.93,1.72-1.84,2.61-2.74l.18-.17.08-.09h0l.22-.21.35-.35a24.61,24.61,0,0,1,3-2.37c.36-.24.74-.48,1.11-.7a24.88,24.88,0,0,1,3.56-1.73l1.17-.42.39-.12.81-.24.46-.12.75-.18.49-.1.76-.14.48-.08.82-.1.42-.05c.36,0,.73-.06,1.09-.08h.16c.41,0,.82,0,1.24,0s.95,0,1.42,0a24.65,24.65,0,0,1,10.25,3l1.18.66,1.11.78.56.38a5.47,5.47,0,0,1,.54.41l1,.89a19.9,19.9,0,0,1,1.91,1.87c.2.22.38.45.56.69l.26.35c.09.11.18.23.28.34a7.25,7.25,0,0,1,.5.73l.7,1.12c.22.39.39.79.6,1.19l.3.59.23.62c.15.42.32.83.47,1.25a23.34,23.34,0,0,1,.61,2.6,21.58,21.58,0,0,1,.29,2.67c0,.67,0,1.34,0,2a20.11,20.11,0,0,1-1.33,5.91c-.16.42-.34.83-.54,1.24s-.41.81-.64,1.2a12.91,12.91,0,0,1-1.09,1.73l-.39.56c-.27.37-.59.69-.88,1.05a10.88,10.88,0,0,1-.92,1c-.33.29-.63.63-1,.9l-1.06.81-1.13.71a4.75,4.75,0,0,1-.59.31l-.6.3h0c-.36.17-.73.31-1.1.45l-.25.09c-.37.13-.75.25-1.13.36l-.14,0c-.35.1-.7.17-1.05.24l-.25.05c-.39.07-.78.12-1.17.16l-.22,0c-.35,0-.7.05-1.06.06h-.21c-.4,0-.8,0-1.2,0l-.28,0-1-.12-.34-.05c-.4-.07-.79-.15-1.19-.25a16.27,16.27,0,0,1-4.95-2.24l-.38-.26a5.58,5.58,0,0,1-.73-.55l-1.05-.9c-.3-.33-.62-.64-.91-1-.14-.18-.28-.35-.41-.53a5.39,5.39,0,0,1-.4-.54,12.18,12.18,0,0,1-1.68-3.66,13.22,13.22,0,0,1-.35-1.66c-.06-.42-.09-.84-.11-1.27a12.88,12.88,0,0,1,.41-3.81,12.86,12.86,0,0,1,2.53-4.86,11.13,11.13,0,0,1,.93-1l.51-.46a9.54,9.54,0,0,1,1.09-.8,10,10,0,0,1,1.82-.91c.26-.1.53-.18.79-.26l.24-.06c.2-.06.41-.1.61-.15l.23,0c.27-.05.54-.08.82-.11h.11l.73,0h.26l.58,0h.24l.8.1h0a11.68,11.68,0,0,1,2,.57,10.21,10.21,0,0,1,1.26.58,9.28,9.28,0,0,1,1.71,1.21,8.15,8.15,0,0,1,2.81,4.63c.05.23.09.45.12.69a9.18,9.18,0,0,1,.05,1.39,8,8,0,0,1-.18,1.38,5.2,5.2,0,0,1-.17.68,7.73,7.73,0,0,1-.51,1.31c-.1.21-.22.42-.34.62s-.26.39-.4.58a9.43,9.43,0,0,1-.92,1.07,6.7,6.7,0,0,1-2.35,1.48l-.62.19-.2,0-.44.09-.25,0-.41,0h-.4v1.19l.3,0h0l.72,0,.2,0,.57-.09.21,0,.73-.19c.26-.09.53-.19.78-.3a8.17,8.17,0,0,0,1.47-.83c.23-.17.45-.34.66-.53a9.94,9.94,0,0,0,3.18-9.13,10.49,10.49,0,0,0-1.55-3.94,9.9,9.9,0,0,0-1.67-1.93,11.2,11.2,0,0,0-1.3-1.07,12.3,12.3,0,0,0-1.44-.88,13.16,13.16,0,0,0-3.18-1.16c-.4-.09-.81-.14-1.22-.19l-.25,0q-.6-.06-1.2-.06H300l-.62,0-.35,0-.6.07-.35.05-.63.13-.3.07a9.46,9.46,0,0,0-.91.26h0a13,13,0,0,0-5.67,3.77,16.11,16.11,0,0,0-1.56,2c-.19.3-.37.61-.55.92a15.54,15.54,0,0,0-1.27,2.93,16.26,16.26,0,0,0,1.66,13.3c.29.49.65.95,1,1.43s.76.88,1.14,1.32l1.24,1.18a16.69,16.69,0,0,0,1.33,1.06,20.29,20.29,0,0,0,6.11,3.07c.52.16,1,.29,1.56.41l.51.09,1.08.18.6.06c.34,0,.68.06,1,.08l.62,0,.38,0c.35,0,.69,0,1,0h.09c.51,0,1-.07,1.52-.14l.21,0c.5-.08,1-.17,1.49-.27l.28-.07c.49-.11,1-.24,1.46-.39l.24-.07c.5-.17,1-.34,1.49-.54s1.08-.45,1.59-.73l1.52-.87,1.44-1c.48-.33.89-.75,1.34-1.12a14.09,14.09,0,0,0,1.23-1.21c.39-.43.8-.83,1.16-1.27.52-.69,1.06-1.35,1.54-2.07.16-.24.32-.48.46-.73a23.36,23.36,0,0,0,1.63-3,24.71,24.71,0,0,0,1.18-3.25,26.39,26.39,0,0,0,1-6.85,25.17,25.17,0,0,0-.22-3.47,28.44,28.44,0,0,0-.66-3.43c-.16-.57-.36-1.12-.54-1.67l-.28-.83-.35-.81c-.24-.53-.46-1.08-.72-1.6l-.44-.77-.43-.76a14.26,14.26,0,0,0-1-1.47c-.18-.24-.34-.49-.51-.73a7.12,7.12,0,0,0-.54-.69c-.38-.44-.76-.9-1.15-1.33a13,13,0,0,0-1.23-1.23l-.62-.59-.63-.59c-.14-.13-.29-.25-.44-.37s-.25-.21-.38-.3l-.53-.41-1.38-1-1.46-.92c-.5-.3-1-.59-1.51-.86a31.45,31.45,0,0,0-8.11-3,30.67,30.67,0,0,0-3.43-.57l-.87-.07-.85-.07h-.57c-.37,0-.73,0-1.1,0h-.29c-.45,0-.9,0-1.35,0l-.49,0c-.38,0-.77.05-1.15.09l-.46.05c-.52.06-1,.13-1.56.22l-.14,0c-.47.08-.95.17-1.42.28l-.47.1-1.12.28-.11,0-.35.1c-.51.14-1,.3-1.51.47h0a31.89,31.89,0,0,0-4.84,2.1c-.52.28-1,.57-1.54.88a31.88,31.88,0,0,0-4.29,3.11c-.43.37-.84.75-1.25,1.14l-.06.05h0q-1.25,1.26-2.43,2.55a105.63,105.63,0,1,0,152.08-2.81Zm-6,143.41a97.15,97.15,0,0,1-162.11-41.9c22.72-2.91,42.88-.43,59.94,7.4,10.39,4.76,17.24,10.24,23.86,15.54,7.82,6.27,15.21,12.18,27.23,16.3a77.43,77.43,0,0,0,25.25,4.07A106.47,106.47,0,0,0,421.34,516C420.49,516.9,419.62,517.82,418.72,518.72ZM430.83,504c-22.84,8.63-43.17,10-60.45,4.1a64,64,0,0,1-18.39-10,109.53,109.53,0,0,1,90.9-19.59A96.7,96.7,0,0,1,430.83,504ZM445,470.31a118.08,118.08,0,0,0-99.88,22.4c-6.56-5.24-14-11.12-25.05-16.18-18.74-8.59-40.76-11.28-65.43-8-.29-1.49-.54-3-.76-4.49l32.76-24.87,26.06,19.55L350,412.46l37.3,46.28,26.06-19.55,32.76,24.87C445.82,466.15,445.44,468.24,445,470.31Z"/><path class="cls-2" d="M239.73,427.4l1.79-6.16-8.38-2.44.39-1.32a3.16,3.16,0,0,1,1-1.72,2.43,2.43,0,0,1,1.52-.49,15.36,15.36,0,0,1,2.32.24,24.77,24.77,0,0,0,2.58.3,6.68,6.68,0,0,0,2.2-.27l1.94-6.64a6.66,6.66,0,0,1-2.19.46,21.87,21.87,0,0,1-2.62-.12,18.87,18.87,0,0,0-2.56-.11,5.42,5.42,0,0,0-2.06.55,6.16,6.16,0,0,0-2.06,1.76l-.31-.09a9.48,9.48,0,0,0-1.08-4.73,5.12,5.12,0,0,0-3.1-2.41,6,6,0,0,0-3.57,0,6.71,6.71,0,0,0-3.15,2.29,13,13,0,0,0-2.29,4.67l-1.34,4.62h0l-1.48,5.07Zm-14-15.7a2.23,2.23,0,0,1,1.09-.84,2.33,2.33,0,0,1,1.33,0,2.22,2.22,0,0,1,1.6,1.3,3.85,3.85,0,0,1-.08,2.43l-.85,2.92-4.69-1.37.78-2.68A5.44,5.44,0,0,1,225.71,411.7Z"/><path class="cls-2" d="M238.45,394.86a15.21,15.21,0,0,0,6.13,2.3,9.36,9.36,0,0,0,5.57-1,11.76,11.76,0,0,0,4.5-4.46,12,12,0,0,0,1.94-6,10,10,0,0,0-1.51-5.62,13.67,13.67,0,0,0-4.65-4.5,15.13,15.13,0,0,0-6.1-2.28,9.47,9.47,0,0,0-5.6,1,11.7,11.7,0,0,0-4.52,4.47,11.92,11.92,0,0,0-1.93,6,10,10,0,0,0,1.54,5.62A13.78,13.78,0,0,0,238.45,394.86Zm.5-13a4.48,4.48,0,0,1,2.21-2,4.35,4.35,0,0,1,2.7-.07,12.66,12.66,0,0,1,3.1,1.42,10.36,10.36,0,0,1,2.56,2.15,4.76,4.76,0,0,1,1.13,2.5,4.24,4.24,0,0,1-.72,2.75,4.43,4.43,0,0,1-2.19,2,4.25,4.25,0,0,1-2.69.06,12.31,12.31,0,0,1-3.13-1.43,10.35,10.35,0,0,1-2.56-2.13,4.67,4.67,0,0,1-1.12-2.47A4.21,4.21,0,0,1,239,381.87Z"/><polygon class="cls-2" points="271.31 370.07 271.31 370.07 276.73 364.74 272.72 360.66 267.3 366 254.94 353.42 250.39 357.89 266.77 374.54 271.31 370.07"/><polygon class="cls-2" points="287.58 356.77 287.58 356.77 288.51 356.17 289.47 355.56 289.47 355.56 295.87 351.45 292.78 346.64 286.38 350.74 276.86 335.9 271.5 339.34 284.1 359 287.58 356.77"/><rect class="cls-2" x="299.78" y="323.73" width="6.37" height="23.35" transform="translate(-104.73 140.29) rotate(-22.33)"/><polygon class="cls-2" points="325.94 340.35 323.46 326.67 323.82 326.61 325.63 329.52 332.21 339.21 339.55 337.88 335.38 314.9 329.57 315.96 332.15 330.17 331.8 330.24 329.99 327.37 323.02 317.15 315.96 318.43 320.14 341.41 325.94 340.35"/><path class="cls-2" d="M353.7,336.7a9.68,9.68,0,0,0,5.25,1.92,6.2,6.2,0,0,0,3.36-.58,7.93,7.93,0,0,0,2.83-2.52l.29,0,1,3.29,3.47.29L371,326.22l-9.56-.82-.39,4.58,3.53.3a2.85,2.85,0,0,1-1.35,2,3.92,3.92,0,0,1-2.43.56,4.62,4.62,0,0,1-2.52-.93,4.37,4.37,0,0,1-1.44-2.21,8.87,8.87,0,0,1-.27-3.44,10,10,0,0,1,.84-3.44,4.38,4.38,0,0,1,1.79-2,4.64,4.64,0,0,1,2.68-.49,3.91,3.91,0,0,1,2.44,1,4.85,4.85,0,0,1,1.3,2.44l5.94-.62a10.34,10.34,0,0,0-1.45-4.3,8.32,8.32,0,0,0-3.11-2.92,11.51,11.51,0,0,0-4.63-1.31,11.65,11.65,0,0,0-6,1,10.28,10.28,0,0,0-4.39,3.86,13.42,13.42,0,0,0-2,6.24,16.06,16.06,0,0,0,.63,6.54A9.33,9.33,0,0,0,353.7,336.7Z"/><polygon class="cls-2" points="402.77 339.91 408.79 343.01 404.28 351.77 409.94 354.68 420.63 333.92 414.97 331 411.09 338.54 405.07 335.44 408.95 327.9 403.28 324.99 392.59 345.75 398.26 348.67 402.77 339.91"/><rect class="cls-2" x="416.45" y="350.73" width="23.35" height="6.37" transform="translate(-116.62 462.51) rotate(-50.85)"/><polygon class="cls-2" points="433.69 375.29 433.69 375.29 440.1 382.76 444.44 379.04 439.49 373.27 452.88 361.79 448.73 356.95 431 372.15 433.69 375.29"/><polygon class="cls-2" points="448.27 395.88 452.04 402.77 457.06 400.02 453.4 393.35 468.87 384.88 465.8 379.29 445.32 390.51 448.27 395.88"/><path class="cls-2" d="M467.06,408.77a5.7,5.7,0,0,0-1.2,3.27,23.35,23.35,0,0,0,.35,4.16c.15,1,.24,1.7.29,2.21a3,3,0,0,1-.18,1.37,1.33,1.33,0,0,1-.94.79,1.49,1.49,0,0,1-1.05,0,2.11,2.11,0,0,1-.82-.77,5.91,5.91,0,0,1-.64-1.53,4.13,4.13,0,0,1,0-2.63,3.77,3.77,0,0,1,1.83-1.91l-2.88-5.4a7.94,7.94,0,0,0-4.25,4.12q-1.27,2.82,0,7.32a12.42,12.42,0,0,0,2.19,4.48,6.92,6.92,0,0,0,3.45,2.37,8,8,0,0,0,4.54-.1,6.44,6.44,0,0,0,3.71-2.27,5.73,5.73,0,0,0,1.09-3.2,24.57,24.57,0,0,0-.35-4.1,19.55,19.55,0,0,1-.3-2.31,3.58,3.58,0,0,1,.22-1.49,1.41,1.41,0,0,1,1-.82,1.79,1.79,0,0,1,1.19,0,2,2,0,0,1,.91.76,4.69,4.69,0,0,1,.63,1.42,4.6,4.6,0,0,1,.19,1.88,2.76,2.76,0,0,1-.58,1.39,4.13,4.13,0,0,1-1.3,1l2.42,5.1a8.21,8.21,0,0,0,3.16-2.07,6.59,6.59,0,0,0,1.62-3.51,11.84,11.84,0,0,0-.47-5.15,11,11,0,0,0-2.44-4.62,7.23,7.23,0,0,0-7.37-2.13A7.24,7.24,0,0,0,467.06,408.77Z"/><path class="cls-2" d="M223.62,480a5.93,5.93,0,0,1,.86-.73,7.64,7.64,0,0,0,1.56-1.49A5.47,5.47,0,0,0,227,476a4.89,4.89,0,0,0,.14-.78,9.18,9.18,0,0,0,1,2.66,4.21,4.21,0,0,0,1.9,1.82,4.73,4.73,0,0,0,2.85.24,4.54,4.54,0,0,0,2.51-1.22,4.39,4.39,0,0,0,1.16-2.5,11.71,11.71,0,0,0-.17-3.75l-.65-3.63h0l-.62-3.43-.58-3.19-2.54.46c.1.88.15,1.46.16,1.73a.77.77,0,0,1-.15.56,1.35,1.35,0,0,1-.62.22L221,467.06a1.45,1.45,0,0,1-.66,0,.79.79,0,0,1-.34-.47q-.14-.41-.45-1.68l-2.54.46.58,3.19.47,2.59.57,3.16,2.54-.45c-.1-.88-.16-1.46-.16-1.73a.69.69,0,0,1,.15-.56,1.3,1.3,0,0,1,.61-.22l4-.73.21,1.13a2.23,2.23,0,0,1-.15,1.49,2.28,2.28,0,0,1-.91.91,16.42,16.42,0,0,1-1.66.77,4.38,4.38,0,0,0-.71.26l-.7.3a9.79,9.79,0,0,0-1.84,1.19,2.9,2.9,0,0,0-.88,1.29,3.46,3.46,0,0,0,0,1.65,3.25,3.25,0,0,0,.91,1.84,3.19,3.19,0,0,0,1.64.84,5.38,5.38,0,0,0,2,0l.06-.13a1.1,1.1,0,0,1-.31-.37,1.87,1.87,0,0,1-.16-.52,1.52,1.52,0,0,1,0-.64A1.46,1.46,0,0,1,223.62,480Zm9-10.63.57,3.13a4.13,4.13,0,0,1,0,1.43,1.9,1.9,0,0,1-.48,1,1.92,1.92,0,0,1-1.07.5,1.84,1.84,0,0,1-1.18-.13,2,2,0,0,1-.82-.81,4.21,4.21,0,0,1-.46-1.38l-.54-3Z"/><path class="cls-2" d="M242,502.28a6.94,6.94,0,0,0,1.88-3.85,9,9,0,0,0-.72-4.67,9.34,9.34,0,0,0-2.78-3.87,7.32,7.32,0,0,0-4.12-1.58,10.81,10.81,0,0,0-5,.9,11.89,11.89,0,0,0-4.26,2.78,7.06,7.06,0,0,0-1.89,3.84,9,9,0,0,0,.72,4.7,9.18,9.18,0,0,0,2.79,3.85A7.61,7.61,0,0,0,232.8,506a10.78,10.78,0,0,0,5-.9A11.79,11.79,0,0,0,242,502.28Zm-9.08-.77a3.9,3.9,0,0,1-2.26-.44,3.45,3.45,0,0,1-1.43-1.76A3.59,3.59,0,0,1,229,497a3.73,3.73,0,0,1,1.31-1.87,10.91,10.91,0,0,1,2.78-1.55,10.47,10.47,0,0,1,3.06-.82,3.28,3.28,0,0,1,3.66,2.23,3.3,3.3,0,0,1-1.05,4.15,10.86,10.86,0,0,1-2.79,1.57A10.09,10.09,0,0,1,233,501.51Z"/><path class="cls-2" d="M244.13,524.21a3,3,0,0,1-1,.32.64.64,0,0,1-.41-.33l-1.86-2.81,9.11-6a1.15,1.15,0,0,1,.6-.25c.15,0,.33.13.55.38s.65.8,1.28,1.65l2.15-1.43-2.14-3.22-1.35-2-1.79-2.7-2.15,1.42c.44.77.72,1.28.83,1.53a.74.74,0,0,1,.08.57,1.35,1.35,0,0,1-.47.45l-8.73,5.78a1.45,1.45,0,0,1-.6.27.76.76,0,0,1-.49-.3c-.19-.21-.55-.66-1.08-1.36l-2.15,1.43,1.79,2.7,1,1.48h0l5.19,7.83,5.87-4L246.69,523C245.49,523.58,244.64,524,244.13,524.21Z"/><path class="cls-2" d="M265.5,529.24l-1.7-1.76-2.25-2.33-1.86,1.79c.57.67.94,1.12,1.09,1.35a.75.75,0,0,1,.19.55,1.32,1.32,0,0,1-.39.52l-7.52,7.27a1.33,1.33,0,0,1-.55.37.69.69,0,0,1-.53-.2q-.34-.25-1.32-1.14l-1.85,1.79,2.25,2.33,1.24,1.29h0l6.52,6.75,5-5-2.09-2.17-2.31,1.65a2.5,2.5,0,0,1-.9.49.63.63,0,0,1-.46-.24l-2.35-2.43,7.87-7.59a1.1,1.1,0,0,1,.55-.36q.21,0,.6.27c.26.2.78.67,1.56,1.39l1.86-1.79Z"/><path class="cls-2" d="M283.06,552.9l2.5,1.75,4.05-5.54-7.39-5.19h0l-2.86-2-2.66-1.85-1.48,2.11c.69.55,1.13.93,1.33,1.12s.29.36.28.5a1.31,1.31,0,0,1-.28.59l-6,8.57a1.3,1.3,0,0,1-.46.46.7.7,0,0,1-.57-.09c-.25-.13-.75-.42-1.5-.88l-1.49,2.12,2.66,1.86,2.85,2h0l7.51,5.27,3.92-5.87-2.43-1.7-2,2.08a2.36,2.36,0,0,1-.72.57.67.67,0,0,1-.5-.15l-4-2.78,2.54-3.61,3.28,2.49,2.07-2.94-3.47-2.23,2.17-3.08,3.88,2.73a.51.51,0,0,1,.27.4,2.86,2.86,0,0,1-.29.87C284.11,550.9,283.69,551.71,283.06,552.9Z"/><path class="cls-2" d="M307.4,558.91a12.84,12.84,0,0,0-4.6-3.09l-1.65-.71-2.21-1-3-1.29-1,2.37c.79.4,1.29.68,1.53.83s.36.3.38.43a1.29,1.29,0,0,1-.16.64l-4.15,9.6a1.23,1.23,0,0,1-.36.55.7.7,0,0,1-.57,0c-.27-.07-.82-.25-1.65-.55l-1,2.37,3,1.29,1.91.83h0l.6.25.69.3h0l.45.2a13.33,13.33,0,0,0,5.37,1.23,7.21,7.21,0,0,0,4.32-1.41,10.12,10.12,0,0,0,3.06-4.18,9.55,9.55,0,0,0,.88-4.72A7,7,0,0,0,307.4,558.91ZM304,565.75a10.06,10.06,0,0,1-1.81,2.93,3.46,3.46,0,0,1-2.2,1.14,5.72,5.72,0,0,1-2.81-.55l-.86-.38,4.55-10.51.65.29a6.28,6.28,0,0,1,2.49,1.72,3.48,3.48,0,0,1,.78,2.29A8.42,8.42,0,0,1,304,565.75Z"/><path class="cls-2" d="M333.07,564.61l-3.21-.43-.35,2.56c.87.17,1.43.29,1.7.38s.43.18.48.31a1.28,1.28,0,0,1,0,.65l-1.4,10.37a1.31,1.31,0,0,1-.2.63.68.68,0,0,1-.55.17c-.27,0-.85,0-1.73-.08l-.34,2.56,3.21.43,2.61.36,3.18.43.35-2.56c-.87-.17-1.43-.3-1.7-.38a.77.77,0,0,1-.48-.32,1.3,1.3,0,0,1,0-.65L336,568.67a1.44,1.44,0,0,1,.2-.63.77.77,0,0,1,.55-.17c.28,0,.86,0,1.73.08l.35-2.56-3.19-.43Z"/><path class="cls-2" d="M361,577.37a7,7,0,0,1-1.27,1.13,7.86,7.86,0,0,1-1.71.89,6.27,6.27,0,0,1-2.14.41,5.66,5.66,0,0,1-2.65-.48,3.74,3.74,0,0,1-1.69-1.67,7,7,0,0,1-.65-3,9,9,0,0,1,.37-3.09,4.23,4.23,0,0,1,1.26-2,3.09,3.09,0,0,1,1.93-.72,2.6,2.6,0,0,1,1.44.33,3,3,0,0,1,1.08,1.13,12.9,12.9,0,0,1,.94,2.09l3.24-.1-.22-7.16-3.18.09-.78,2.33a3.47,3.47,0,0,0-.74-1.24,2.92,2.92,0,0,0-1.23-.78,4.73,4.73,0,0,0-1.7-.23,6.75,6.75,0,0,0-3.71,1.21,7.45,7.45,0,0,0-2.58,3.3,11.34,11.34,0,0,0-.84,4.94,11.64,11.64,0,0,0,1.17,5.14,6.89,6.89,0,0,0,3.06,3,9.78,9.78,0,0,0,4.75.9,8.19,8.19,0,0,0,3.41-.8,4.94,4.94,0,0,0,2.22-2.16,5.27,5.27,0,0,0,.36-3.4Z"/><path class="cls-2" d="M385.79,571.55l-2.89.67c.1,1.44.17,2.4.2,2.88a2.34,2.34,0,0,1-.06.92.64.64,0,0,1-.44.27l-4.71,1.09-1-4.3,4.05-.78-.81-3.5-4,1.09-.85-3.67,4.63-1.07a.51.51,0,0,1,.48.07,2.7,2.7,0,0,1,.45.8c.2.43.52,1.28,1,2.55l3-.69-1.42-6.72-8.8,2h0l-3.4.79-3.16.74.59,2.51c.86-.14,1.44-.22,1.72-.24a.76.76,0,0,1,.56.13,1.31,1.31,0,0,1,.25.6l2.36,10.19a1.43,1.43,0,0,1,0,.66.78.78,0,0,1-.46.36c-.25.1-.8.28-1.65.53L372,582l3.16-.73,3.4-.79h0l8.94-2.06Z"/><path class="cls-2" d="M420.19,556.86a7.11,7.11,0,0,1-.58,1.61,8.37,8.37,0,0,1-1.07,1.59,6.69,6.69,0,0,1-1.69,1.38,5.79,5.79,0,0,1-2.57.84,3.78,3.78,0,0,1-2.27-.66,7.1,7.1,0,0,1-2-2.33,8.78,8.78,0,0,1-1.14-2.9,4.21,4.21,0,0,1,.17-2.32,3.07,3.07,0,0,1,1.36-1.55,2.65,2.65,0,0,1,1.42-.4,3,3,0,0,1,1.49.49,13.22,13.22,0,0,1,1.82,1.38l2.8-1.63-3.6-6.19-2.75,1.6.42,2.42a3.5,3.5,0,0,0-1.24-.74,3,3,0,0,0-1.46-.1,4.55,4.55,0,0,0-1.6.61,6.73,6.73,0,0,0-2.69,2.83,7.52,7.52,0,0,0-.7,4.12,11.49,11.49,0,0,0,1.62,4.75,11.79,11.79,0,0,0,3.48,4,6.89,6.89,0,0,0,4.13,1.2,9.88,9.88,0,0,0,4.61-1.47,8,8,0,0,0,2.61-2.33,4.87,4.87,0,0,0,.93-2.95,5.29,5.29,0,0,0-1.31-3.17Z"/><path class="cls-2" d="M443.14,541.22l-.14,0a1.15,1.15,0,0,1-.16.45,1.93,1.93,0,0,1-.36.41,1.52,1.52,0,0,1-.55.33,1.41,1.41,0,0,1-.71,0,5.43,5.43,0,0,1-1.07-.35,7.7,7.7,0,0,0-2.09-.55,5.26,5.26,0,0,0-2,.14,4.3,4.3,0,0,0-.75.29,9.69,9.69,0,0,0,1.78-2.21,4.27,4.27,0,0,0,.56-2.58,4.68,4.68,0,0,0-1.28-2.55,4.55,4.55,0,0,0-2.35-1.51,4.35,4.35,0,0,0-2.73.31,11.87,11.87,0,0,0-3.12,2.09L425.4,538h0l-.7.62-.33.3h0l-1.58,1.4-2.43,2.15,1.72,1.93c.69-.54,1.16-.88,1.39-1a.73.73,0,0,1,.56-.16,1.31,1.31,0,0,1,.51.41l6.95,7.82a1.35,1.35,0,0,1,.34.55.74.74,0,0,1-.22.54q-.27.32-1.2,1.26l1.72,1.93,2.42-2.15,2-1.75,2.4-2.14-1.71-1.93c-.69.54-1.16.89-1.39,1a.74.74,0,0,1-.56.16,1.41,1.41,0,0,1-.51-.41L432,545.43l.87-.77a2.23,2.23,0,0,1,1.35-.65,2.29,2.29,0,0,1,1.24.31,16,16,0,0,1,1.53,1,5.64,5.64,0,0,0,.58.47l.63.43a9.44,9.44,0,0,0,2,1,2.9,2.9,0,0,0,1.56.08,3.43,3.43,0,0,0,1.44-.82,3.26,3.26,0,0,0,1.09-1.72,3.16,3.16,0,0,0-.13-1.85A5.48,5.48,0,0,0,443.14,541.22Zm-15.68-.94,2.38-2.12a3.6,3.6,0,0,1,1.2-.77,1.94,1.94,0,0,1,1.08-.1,2,2,0,0,1,1,.65,1.9,1.9,0,0,1,.5,1.08,2,2,0,0,1-.26,1.12,4.55,4.55,0,0,1-.94,1.11l-2.28,2Z"/><path class="cls-2" d="M455.67,519.88l-1.78,2.37c1,1,1.68,1.73,2,2.08a2.4,2.4,0,0,1,.55.73.64.64,0,0,1-.16.5l-2.9,3.87-3.53-2.65,2.59-3.2-2.88-2.16-2.33,3.4-3-2.27,2.85-3.8a.52.52,0,0,1,.42-.25,2.72,2.72,0,0,1,.86.32c.43.2,1.22.64,2.39,1.31l1.83-2.44-5.41-4.23-5.42,7.23h0l-2.09,2.8-1.94,2.6,2.07,1.54c.57-.67,1-1.1,1.16-1.29a.75.75,0,0,1,.51-.27,1.27,1.27,0,0,1,.58.3l8.37,6.28a1.33,1.33,0,0,1,.45.47.73.73,0,0,1-.11.57c-.13.25-.44.74-.92,1.47l2.07,1.55,1.94-2.59,2.09-2.79h0l5.51-7.34Z"/><path class="cls-2" d="M472.42,497.54s0,0,0,0a3.16,3.16,0,0,1-.63.69,1.81,1.81,0,0,1-.92.2c-.43,0-1.12,0-2.07-.11l-13-1-2,4.19,9,9.51a.07.07,0,0,0,0,.05l.05,0a20,20,0,0,1,1.37,1.47,1.51,1.51,0,0,1,.37.79,3.38,3.38,0,0,1-.17,1l2.33,1.11,3.27-6.9-2.28-1.09a7,7,0,0,1-.73,1.12c-.2.23-.38.33-.55.29a1.72,1.72,0,0,1-.65-.43l-.93-.9,2.32-4.91,1.32.16a2.16,2.16,0,0,1,.75.21q.19.12.12.57A8.3,8.3,0,0,1,469,505l2.28,1.08,3.56-7.52-2.33-1.1Zm-9.71,8L461.09,504l-2.43-2.32,3.33.44,2.22.27Z"/><path class="cls-2" d="M480.54,465.81c-.23.83-.4,1.38-.5,1.65s-.22.42-.35.46a1.54,1.54,0,0,1-.65,0l-10.24-2.17a1.4,1.4,0,0,1-.61-.23c-.1-.08-.15-.27-.13-.56s.08-.86.2-1.71l-2.52-.53-.67,3.14v.08h0l-.38,1.78-.33,1.58h0l-.26,1.21,8.58,5.92-10.21,1.79-1.57,7.41,2.52.54c.3-.82.57-1.49.8-2l11.17,2.36a.88.88,0,0,1,.44.18.93.93,0,0,1,.07.53,15,15,0,0,1-.2,1.55l2.53.53,1.63-7.71-2.53-.53a15.31,15.31,0,0,1-.44,1.5,1.16,1.16,0,0,1-.3.53c-.08.06-.24.06-.48,0l-8.42-1.78,12.75-2.5.14-.61-10.67-7.74,8.23,1.75a1.27,1.27,0,0,1,.61.24.73.73,0,0,1,.13.56c0,.28-.08.85-.21,1.72l2.53.54.67-3.17.54-2.58.67-3.14Z"/><path class="cls-2" d="M350,600c-82.71,0-150-67.29-150-150s67.29-150,150-150,150,67.29,150,150S432.71,600,350,600Zm0-291.55C272,308.45,208.45,372,208.45,450S272,591.55,350,591.55,491.55,528.05,491.55,450,428.05,308.45,350,308.45Z"/></svg>