<svg id="Layer_1" data-name="Layer 1" xmlns="http://www.w3.org/2000/svg" viewBox="0 0 1200 1200"><defs><style>.cls-1{fill:#71bed3;}.cls-2{fill:none;}.cls-3{fill:#7fae65;}.cls-4{fill:#7a6755;}.cls-5{fill:#3e3b39;}</style></defs><circle class="cls-1" cx="600.23" cy="598.42" r="420.96"/><path class="cls-2" d="M480.29,706.14c44.06,20.21,74,43.72,100.18,64.71A472.13,472.13,0,0,1,980,681.25c1.76-8.29,3.27-16.63,4.48-25l-131-99.48L749.2,635,600,449.84,450.8,635,346.54,556.76l-131,99.46q1.31,9,3,18C317.24,661,405.3,671.74,480.29,706.14Z"/><path class="cls-2" d="M670.58,864.25c-48.11-16.49-77.67-40.14-109-65.19-26.49-21.21-53.88-43.13-95.44-62.2-68.23-31.3-148.88-41.2-239.74-29.57a386.36,386.36,0,0,0,98.67,167.59c151.57,151.56,398.19,151.56,549.76,0,3.59-3.6,7.07-7.26,10.5-11q-59.67,16.58-113.81,16.59Q718.11,880.51,670.58,864.25Z"/><path class="cls-3" d="M781,712.67A440.67,440.67,0,0,0,608,792.37c21.12,15.79,43.13,29.46,73.59,39.9,69.08,23.68,150.4,18.15,241.76-16.39A385.81,385.81,0,0,0,971.56,714,442.71,442.71,0,0,0,781,712.67Z"/><path class="cls-2" d="M781,712.67A440.67,440.67,0,0,0,608,792.37c21.12,15.79,43.13,29.46,73.59,39.9,69.08,23.68,150.4,18.15,241.76-16.39A385.81,385.81,0,0,0,971.56,714,442.71,442.71,0,0,0,781,712.67Z"/><path class="cls-2" d="M749.2,635,600,449.84,450.8,635,346.54,556.76l-131,99.46q1.31,9,3,18c98.67-13.19,186.73-2.46,261.72,31.94,44.06,20.21,74,43.72,100.18,64.71A472.13,472.13,0,0,1,980,681.25c1.76-8.29,3.27-16.63,4.48-25l-131-99.48Z"/><path class="cls-3" d="M670.58,864.25c-48.11-16.49-77.67-40.14-109-65.19-26.49-21.21-53.88-43.13-95.44-62.2-68.23-31.3-148.88-41.2-239.74-29.57a386.36,386.36,0,0,0,98.67,167.59c151.57,151.56,398.19,151.56,549.76,0,3.59-3.6,7.07-7.26,10.5-11q-59.67,16.58-113.81,16.59Q718.11,880.51,670.58,864.25Z"/><path class="cls-2" d="M781,712.67A440.67,440.67,0,0,0,608,792.37c21.12,15.79,43.13,29.46,73.59,39.9,69.08,23.68,150.4,18.15,241.76-16.39A385.81,385.81,0,0,0,971.56,714,442.71,442.71,0,0,0,781,712.67Z"/><path class="cls-2" d="M670.58,864.25c-48.11-16.49-77.67-40.14-109-65.19-26.49-21.21-53.88-43.13-95.44-62.2-68.23-31.3-148.88-41.2-239.74-29.57a386.36,386.36,0,0,0,98.67,167.59c151.57,151.56,398.19,151.56,549.76,0,3.59-3.6,7.07-7.26,10.5-11q-59.67,16.58-113.81,16.59Q718.11,880.51,670.58,864.25Z"/><path class="cls-4" d="M749.2,635,600,449.84,450.8,635,346.54,556.76l-131,99.46q1.31,9,3,18c98.67-13.19,186.73-2.46,261.72,31.94,44.06,20.21,74,43.72,100.18,64.71A472.13,472.13,0,0,1,980,681.25c1.76-8.29,3.27-16.63,4.48-25l-131-99.48Z"/><path class="cls-2" d="M670.58,864.25c-48.11-16.49-77.67-40.14-109-65.19-26.49-21.21-53.88-43.13-95.44-62.2-68.23-31.3-148.88-41.2-239.74-29.57a386.36,386.36,0,0,0,98.67,167.59c151.57,151.56,398.19,151.56,549.76,0,3.59-3.6,7.07-7.26,10.5-11q-59.67,16.58-113.81,16.59Q718.11,880.51,670.58,864.25Z"/><path class="cls-2" d="M781,712.67A440.67,440.67,0,0,0,608,792.37c21.12,15.79,43.13,29.46,73.59,39.9,69.08,23.68,150.4,18.15,241.76-16.39A385.81,385.81,0,0,0,971.56,714,442.71,442.71,0,0,0,781,712.67Z"/><path class="cls-2" d="M749.2,635,600,449.84,450.8,635,346.54,556.76l-131,99.46q1.31,9,3,18c98.67-13.19,186.73-2.46,261.72,31.94,44.06,20.21,74,43.72,100.18,64.71A472.13,472.13,0,0,1,980,681.25c1.76-8.29,3.27-16.63,4.48-25l-131-99.48Z"/><path class="cls-1" d="M360.49,269.65l1.88-.43q2.83-.6,5.67-1.1l.56-.1c2.07-.34,4.15-.62,6.24-.86l1.83-.19c1.54-.15,3.08-.28,4.62-.38.65,0,1.31-.09,2-.12,1.8-.09,3.6-.15,5.39-.17h1.16c1.46,0,2.93.07,4.39.12.77,0,1.53,0,2.3.06,1.13.05,2.25.17,3.38.26s2.33.15,3.48.27a127,127,0,0,1,46.19,14.44q3,1.65,6,3.45l5.88,3.67,5.5,4.19c.69.55,1.4,1.07,2.11,1.61.52.39,1,.81,1.51,1.22s1.21.94,1.77,1.47l2.51,2.35,2.52,2.36a58.12,58.12,0,0,1,4.89,4.91c1.56,1.75,3.08,3.56,4.62,5.32.77.89,1.47,1.84,2.15,2.8s1.33,1.94,2,2.88a54.14,54.14,0,0,1,3.85,5.89l1.73,3.07,1.73,3.06c1.06,2.09,1.94,4.27,2.91,6.41l1.4,3.21,1.12,3.33c.72,2.22,1.5,4.43,2.14,6.67A117.34,117.34,0,0,1,508.56,363a99.53,99.53,0,0,1-3.16,41.3,98.75,98.75,0,0,1-4.73,13,92.37,92.37,0,0,1-6.52,12.17c-.56,1-1.17,2-1.81,2.93-1.93,2.86-4.12,5.52-6.19,8.26-1.44,1.79-3.09,3.38-4.63,5.07a49,49,0,0,1-4.92,4.85c-1.79,1.5-3.46,3.16-5.37,4.5l-5.74,4-6.09,3.46c-2,1.12-4.24,2-6.36,2.92-2,.8-4,1.51-6,2.16l-.94.3c-1.92.6-3.87,1.11-5.83,1.57l-1.13.25c-2,.42-4,.79-6,1.07l-.84.1c-2,.26-4,.46-6.06.57l-.37,0c-1.38.07-2.77.11-4.16.11-.5,0-1,0-1.52-.05-.82,0-1.65-.05-2.47-.09-1.37-.07-2.72-.18-4.08-.31-.8-.08-1.6-.16-2.4-.27-1.45-.19-2.9-.44-4.33-.71-.68-.13-1.36-.23-2-.38-2.1-.45-4.18-1-6.23-1.6A81.32,81.32,0,0,1,374.25,456a66.53,66.53,0,0,1-5.33-4.28L364,447c-1.53-1.75-3.1-3.47-4.55-5.28s-2.75-3.76-3.94-5.74a65.18,65.18,0,0,1-6.62-53.17,62.81,62.81,0,0,1,5.08-11.75c.7-1.25,1.43-2.46,2.21-3.65a64.18,64.18,0,0,1,6.21-8.08,56.49,56.49,0,0,1,4.85-4.81A50,50,0,0,1,385,344.3h0c1.2-.41,2.41-.75,3.63-1.06.39-.1.8-.18,1.19-.27.84-.19,1.68-.37,2.53-.51l1.4-.22c.8-.11,1.6-.21,2.4-.28l1.42-.12c.83-.05,1.66-.08,2.48-.09.31,0,.62,0,.93,0l.31,0c1.6,0,3.2.09,4.8.24l1,.12c1.63.18,3.27.42,4.88.75a53.1,53.1,0,0,1,12.71,4.66,47.13,47.13,0,0,1,11,7.8,39,39,0,0,1,6.65,7.72,42.05,42.05,0,0,1,6.21,15.75,39.86,39.86,0,0,1-12.73,36.52,31.68,31.68,0,0,1-2.64,2.11,32.56,32.56,0,0,1-5.85,3.33,31.74,31.74,0,0,1-6.07,1.95l-.85.17c-.75.14-1.5.26-2.25.34l-.82.1c-1,.08-1.91.14-2.86.14h-.09c-.4,0-.81-.06-1.21-.08v-4.78c-.24,0-.48,0-.72,0h1.32l1,0q.84,0,1.68-.15c.32,0,.64-.07,1-.13.59-.09,1.17-.21,1.75-.34.28-.06.55-.11.82-.18.84-.22,1.68-.48,2.5-.78a26.66,26.66,0,0,0,9.39-5.89,35,35,0,0,0,3.68-4.28c.56-.76,1.09-1.54,1.58-2.34s1-1.63,1.38-2.46a35.52,35.52,0,0,0,2-5.24c.26-.9.49-1.81.68-2.72a33.56,33.56,0,0,0,.7-5.55,32.29,32.29,0,0,0-.21-5.56c-.11-.92-.26-1.84-.45-2.74a32.94,32.94,0,0,0-11.24-18.54,38,38,0,0,0-6.85-4.8,40.48,40.48,0,0,0-5-2.35,44.62,44.62,0,0,0-8-2.27h0c-1.06-.17-2.13-.29-3.2-.38l-1-.07q-1.15-.07-2.31-.09h-1c-1,0-1.95.05-2.93.13l-.44,0c-1.11.09-2.2.25-3.3.43l-.89.18q-1.24.24-2.46.57l-.94.25c-1.07.31-2.12.65-3.16,1.06a37.05,37.05,0,0,0-7.3,3.62,41.17,41.17,0,0,0-4.36,3.22c-.69.58-1.36,1.19-2,1.82a47.74,47.74,0,0,0-3.72,4.05,51.56,51.56,0,0,0-6.12,9.19,51.48,51.48,0,0,0-3.82,37.2A49.27,49.27,0,0,0,367.92,428c.49.74,1,1.46,1.58,2.16s1.12,1.4,1.65,2.12c1.18,1.34,2.46,2.6,3.66,3.92l4.18,3.6a23.42,23.42,0,0,0,2.93,2.21c.5.34,1,.67,1.5,1A65,65,0,0,0,403.25,452c1.58.41,3.17.73,4.77,1l1.35.21c1.27.19,2.54.35,3.82.46.37,0,.74.08,1.11.1,1.61.12,3.22.17,4.82.16.29,0,.57,0,.86,0,1.4,0,2.8-.1,4.2-.22l.91-.08c1.56-.15,3.11-.37,4.65-.64l1-.2c1.41-.27,2.81-.58,4.2-.94l.58-.15c1.52-.41,3-.89,4.49-1.41l1-.38c1.49-.55,3-1.14,4.4-1.8h0c.79-.41,1.6-.79,2.4-1.17a25.37,25.37,0,0,0,2.36-1.26l4.52-2.82,4.22-3.27c1.42-1.06,2.6-2.42,3.92-3.6a35,35,0,0,0,3.68-4c1.17-1.41,2.45-2.71,3.53-4.19.5-.75,1-1.5,1.55-2.24a51.19,51.19,0,0,0,4.38-6.9q1.37-2.36,2.55-4.8c.78-1.63,1.51-3.29,2.17-5A79.94,79.94,0,0,0,486,385.23q.28-4,.18-8.07A79.3,79.3,0,0,0,485,366.49a92.42,92.42,0,0,0-2.46-10.4c-.57-1.68-1.26-3.33-1.86-5l-.94-2.49-1.19-2.38c-.81-1.58-1.52-3.2-2.39-4.74L473.39,337a20.8,20.8,0,0,0-2-2.9c-.36-.47-.73-.93-1.08-1.4s-.72-.93-1.08-1.4a25.19,25.19,0,0,0-2.23-2.72,77.19,77.19,0,0,0-7.63-7.48l-4.12-3.57a21.53,21.53,0,0,0-2.16-1.64c-.75-.51-1.52-1-2.24-1.54l-4.44-3.12-4.74-2.65a98.3,98.3,0,0,0-41-12.13c-1.89-.11-3.79-.17-5.68-.17-1.66,0-3.32,0-5,.1l-.63.05c-1.46.07-2.91.18-4.36.32-.57.05-1.13.13-1.69.2-1.1.12-2.2.26-3.29.42-.64.09-1.27.2-1.9.31-1,.17-2,.35-3.06.56l-1.93.4c-1,.23-2,.47-3,.73-.61.16-1.23.31-1.84.48-1.08.29-2.16.62-3.23,1l-1.54.47q-2.36.78-4.67,1.68a96.44,96.44,0,0,0-14.24,6.91c-1.51.9-3,1.83-4.46,2.81a96.49,96.49,0,0,0-12,9.5c-.47.44-.93.91-1.4,1.37l-.87.85,0,0-.33.32-.72.72c-3.58,3.58-7.05,7.24-10.46,10.92C241.76,415,207.58,516.46,211.82,616.61l134.6-102.2L445,588.33,600,396,755,588.33l98.56-73.92,134.59,102.2c4.45-105-33.31-211.49-113.3-291.49C799.09,249.34,699.55,211.45,600,211.45a389.26,389.26,0,0,0-180.12,44,139.62,139.62,0,0,0-15-2.49,143.71,143.71,0,0,0-15.08-.79c-2.43,0-4.86.11-7.28.23q-13.84,8.71-27,18.46l.43-.11C357.48,270.38,359,270,360.49,269.65Z"/><path class="cls-5" d="M898.78,301.22C819,221.42,712.86,177.47,600,177.47c-89.83,0-175.35,27.86-246.77,79.46a144.58,144.58,0,0,1,29.29-4.5c2.42-.12,4.85-.23,7.28-.23a143.71,143.71,0,0,1,15.08.79,139.62,139.62,0,0,1,15,2.49,389.26,389.26,0,0,1,180.12-44c99.55,0,199.09,37.89,274.88,113.67,80,80,117.75,186.48,113.3,291.49L853.59,514.41,755,588.33,600,396,445,588.33l-98.55-73.92-134.6,102.2C207.58,516.46,241.76,415,314.34,336.38c3.41-3.68,6.88-7.34,10.46-10.92l.72-.72.33-.32,0,0,.87-.85c.47-.46.93-.93,1.4-1.37a96.49,96.49,0,0,1,12-9.5c1.46-1,2.95-1.91,4.46-2.81A96.44,96.44,0,0,1,358.86,303q2.31-.9,4.67-1.68l1.54-.47c1.07-.34,2.15-.67,3.23-1,.61-.17,1.23-.32,1.84-.48,1-.26,2-.5,3-.73l1.93-.4c1-.21,2-.39,3.06-.56.63-.11,1.26-.22,1.9-.31,1.09-.16,2.19-.3,3.29-.42.56-.07,1.12-.15,1.69-.2,1.45-.14,2.9-.25,4.36-.32l.63-.05c1.65-.08,3.31-.11,5-.1,1.89,0,3.79.06,5.68.17a98.3,98.3,0,0,1,41,12.13l4.74,2.65,4.44,3.12c.72.53,1.49,1,2.24,1.54a21.53,21.53,0,0,1,2.16,1.64l4.12,3.57a77.19,77.19,0,0,1,7.63,7.48,25.19,25.19,0,0,1,2.23,2.72c.36.47.7.95,1.08,1.4s.72.93,1.08,1.4a20.8,20.8,0,0,1,2,2.9l2.81,4.49c.87,1.54,1.58,3.16,2.39,4.74l1.19,2.38.94,2.49c.6,1.66,1.29,3.31,1.86,5a92.42,92.42,0,0,1,2.46,10.4,79.3,79.3,0,0,1,1.16,10.67q.1,4-.18,8.07a79.94,79.94,0,0,1-5.29,23.65c-.66,1.68-1.39,3.34-2.17,5s-1.64,3.23-2.55,4.8a51.19,51.19,0,0,1-4.38,6.9c-.52.74-1.05,1.49-1.55,2.24-1.08,1.48-2.36,2.78-3.53,4.19a35,35,0,0,1-3.68,4c-1.32,1.18-2.5,2.54-3.92,3.6l-4.22,3.27-4.52,2.82a25.37,25.37,0,0,1-2.36,1.26c-.8.38-1.61.76-2.4,1.17h0c-1.44.66-2.91,1.25-4.4,1.8l-1,.38c-1.47.52-3,1-4.49,1.41l-.58.15c-1.39.36-2.79.67-4.2.94l-1,.2c-1.54.27-3.09.49-4.65.64l-.91.08c-1.4.12-2.8.2-4.2.22-.29,0-.57,0-.86,0-1.6,0-3.21,0-4.82-.16-.37,0-.74-.07-1.11-.1-1.28-.11-2.55-.27-3.82-.46L408,453c-1.6-.29-3.19-.61-4.77-1a65,65,0,0,1-19.83-8.92c-.48-.37-1-.7-1.5-1a23.42,23.42,0,0,1-2.93-2.21l-4.18-3.6c-1.2-1.32-2.48-2.58-3.66-3.92-.53-.72-1.09-1.41-1.65-2.12s-1.09-1.42-1.58-2.16a49.27,49.27,0,0,1-6.73-14.65A50.87,50.87,0,0,1,371.13,367a47.74,47.74,0,0,1,3.72-4.05c.66-.63,1.33-1.24,2-1.82a41.17,41.17,0,0,1,4.36-3.22,37.05,37.05,0,0,1,7.3-3.62c1-.41,2.09-.75,3.16-1.06l.94-.25q1.22-.33,2.46-.57l.89-.18c1.1-.18,2.19-.34,3.3-.43l.44,0c1-.08,1.95-.12,2.93-.13h1q1.15,0,2.31.09l1,.07c1.07.09,2.14.21,3.2.38h0a44.62,44.62,0,0,1,8,2.27,40.48,40.48,0,0,1,5,2.35,38,38,0,0,1,6.85,4.8,32.94,32.94,0,0,1,11.24,18.54c.19.9.34,1.82.45,2.74a32.29,32.29,0,0,1,.21,5.56,33.56,33.56,0,0,1-.7,5.55c-.19.91-.42,1.82-.68,2.72a35.52,35.52,0,0,1-2,5.24c-.42.83-.88,1.66-1.38,2.46s-1,1.58-1.58,2.34a35,35,0,0,1-3.68,4.28,26.66,26.66,0,0,1-9.39,5.89c-.82.3-1.66.56-2.5.78-.27.07-.54.12-.82.18-.58.13-1.16.25-1.75.34-.33.06-.65.09-1,.13q-.84.1-1.68.15l-1,0h-1.32c.24,0,.48,0,.72,0v4.78c.4,0,.81.08,1.21.08h.09c.95,0,1.91-.06,2.86-.14l.82-.1c.75-.08,1.5-.2,2.25-.34l.85-.17a31.74,31.74,0,0,0,6.07-1.95,32.56,32.56,0,0,0,5.85-3.33,31.68,31.68,0,0,0,2.64-2.11,39.86,39.86,0,0,0,12.73-36.52A42.05,42.05,0,0,0,442.35,363a39,39,0,0,0-6.65-7.72,47.13,47.13,0,0,0-11-7.8A53.1,53.1,0,0,0,412,342.83c-1.61-.33-3.25-.57-4.88-.75l-1-.12c-1.6-.15-3.2-.24-4.8-.24l-.31,0c-.31,0-.62,0-.93,0-.82,0-1.65,0-2.48.09l-1.42.12c-.8.07-1.6.17-2.4.28l-1.4.22c-.85.14-1.69.32-2.53.51-.39.09-.8.17-1.19.27-1.22.31-2.43.65-3.63,1.06h0a50,50,0,0,0-17.82,10.23,56.49,56.49,0,0,0-4.85,4.81,64.18,64.18,0,0,0-6.21,8.08c-.78,1.19-1.51,2.4-2.21,3.65a62.81,62.81,0,0,0-5.08,11.75A65.18,65.18,0,0,0,355.47,436c1.19,2,2.62,3.82,3.94,5.74s3,3.53,4.55,5.28l5,4.69a66.53,66.53,0,0,0,5.33,4.28,81.32,81.32,0,0,0,24.45,12.28c2.05.63,4.13,1.15,6.23,1.6.67.15,1.35.25,2,.38,1.43.27,2.88.52,4.33.71.8.11,1.6.19,2.4.27,1.36.13,2.71.24,4.08.31.82,0,1.65.07,2.47.09.51,0,1,.05,1.52.05,1.39,0,2.78,0,4.16-.11l.37,0c2-.11,4-.31,6.06-.57l.84-.1c2-.28,4-.65,6-1.07l1.13-.25c2-.46,3.91-1,5.83-1.57l.94-.3c2-.65,4-1.36,6-2.16,2.12-1,4.31-1.8,6.36-2.92l6.09-3.46,5.74-4c1.91-1.34,3.58-3,5.37-4.5a49,49,0,0,0,4.92-4.85c1.54-1.69,3.19-3.28,4.63-5.07,2.07-2.74,4.26-5.4,6.19-8.26.64-1,1.25-1.92,1.81-2.93a92.37,92.37,0,0,0,6.52-12.17,98.75,98.75,0,0,0,4.73-13,99.53,99.53,0,0,0,3.16-41.3,117.34,117.34,0,0,0-2.65-13.72c-.64-2.24-1.42-4.45-2.14-6.67l-1.12-3.33-1.4-3.21c-1-2.14-1.85-4.32-2.91-6.41l-1.73-3.06-1.73-3.07a54.14,54.14,0,0,0-3.85-5.89c-.7-.94-1.35-1.92-2-2.88s-1.38-1.91-2.15-2.8c-1.54-1.76-3.06-3.57-4.62-5.32a58.12,58.12,0,0,0-4.89-4.91l-2.52-2.36L472.31,297c-.56-.53-1.17-1-1.77-1.47s-1-.83-1.51-1.22c-.71-.54-1.42-1.06-2.11-1.61l-5.5-4.19-5.88-3.67q-3-1.8-6-3.45A125.94,125.94,0,0,0,403.35,267c-1.15-.12-2.32-.18-3.48-.27s-2.25-.21-3.38-.26c-.77,0-1.53,0-2.3-.06-1.46,0-2.93-.12-4.39-.12h-1.16c-1.79,0-3.59.08-5.39.17-.65,0-1.31.07-2,.12-1.54.1-3.08.23-4.62.38l-1.83.19c-2.09.24-4.17.52-6.24.86l-.56.1q-2.84.5-5.67,1.1l-1.88.43c-1.51.35-3,.73-4.5,1.13l-.43.11-1.41.39c-2,.57-4,1.19-6,1.87h0a126.94,126.94,0,0,0-19.39,8.41q-3.1,1.67-6.14,3.5a129.18,129.18,0,0,0-17.16,12.46c-1.71,1.47-3.37,3-5,4.55l-.24.21,0,0c-3.32,3.34-6.56,6.73-9.76,10.16-72.94,78.4-113,179.89-113,287.54,0,112.86,43.95,219,123.75,298.78S487.14,1022.53,600,1022.53s219-43.95,298.78-123.75S1022.54,712.86,1022.54,600,978.59,381,898.78,301.22Zm-23.9,573.66c-151.57,151.56-398.19,151.56-549.76,0a386.36,386.36,0,0,1-98.67-167.59c90.86-11.63,171.51-1.73,239.74,29.57,41.56,19.07,68.95,41,95.44,62.2,31.28,25.05,60.84,48.7,109,65.19q47.45,16.26,101,16.26,54,0,113.81-16.59C882,867.62,878.47,871.28,874.88,874.88Zm48.42-59C831.94,850.42,750.62,856,681.54,832.27c-30.46-10.44-52.47-24.11-73.59-39.9A438.07,438.07,0,0,1,971.56,714,385.81,385.81,0,0,1,923.3,815.88ZM980,681.25a472.13,472.13,0,0,0-399.54,89.6c-26.22-21-56.12-44.5-100.18-64.71-75-34.4-163-45.13-261.72-31.94q-1.73-9-3-18l131-99.46L450.8,635,600,449.84,749.2,635l104.26-78.19,131,99.48C983.28,664.62,981.77,673,980,681.25Z"/><path class="cls-5" d="M158.92,509.59,166.09,485l-33.51-9.77,1.53-5.28q1.42-4.86,4.12-6.87a9.93,9.93,0,0,1,6.09-2,63,63,0,0,1,9.29,1,93.75,93.75,0,0,0,10.29,1.19,26.85,26.85,0,0,0,8.83-1.05l7.74-26.55a28,28,0,0,1-8.75,1.82,82.22,82.22,0,0,1-10.5-.49,76.07,76.07,0,0,0-10.21-.41,21.33,21.33,0,0,0-8.26,2.19,24.68,24.68,0,0,0-8.23,7l-1.25-.36q-.08-11.64-4.3-18.91a20.46,20.46,0,0,0-12.42-9.65,24.23,24.23,0,0,0-14.26,0Q95.41,419,89.67,426t-9.14,18.68l-5.39,18.5h0l-5.91,20.3Zm-56.08-62.8a8.84,8.84,0,0,1,4.37-3.33,9.15,9.15,0,0,1,5.32.12q5,1.46,6.41,5.18t-.34,9.71l-3.4,11.68-18.78-5.47L99.54,454A22.18,22.18,0,0,1,102.84,446.79Z"/><path class="cls-5" d="M153.79,379.44q12.57,7.74,24.51,9.21a37.47,37.47,0,0,0,22.29-3.89q10.35-5.37,18-17.83,7.44-12.09,7.78-24.12a40.2,40.2,0,0,0-6-22.51q-6.41-10.47-18.61-18-12.47-7.65-24.4-9.13a37.72,37.72,0,0,0-22.38,3.92q-10.45,5.38-18.12,17.85-7.42,12.09-7.71,24.16a40.13,40.13,0,0,0,6.15,22.48Q141.7,372,153.79,379.44Zm2-52q3.8-6.17,8.84-8a17.41,17.41,0,0,1,10.78-.25,48.85,48.85,0,0,1,12.41,5.67,40.91,40.91,0,0,1,10.26,8.61,19.14,19.14,0,0,1,4.49,10q.63,5.32-2.85,11-3.72,6-8.76,7.88a17.34,17.34,0,0,1-10.78.25,49,49,0,0,1-12.53-5.75,41.52,41.52,0,0,1-10.25-8.5,18.7,18.7,0,0,1-4.46-9.89Q152.33,333.16,155.81,327.47Z"/><polygon class="cls-5" points="285.24 280.3 285.24 280.3 306.92 258.97 290.88 242.66 269.19 263.98 219.74 213.69 201.56 231.56 267.06 298.17 285.24 280.3"/><polygon class="cls-5" points="350.31 227.09 350.31 227.09 354.06 224.68 357.87 222.24 357.87 222.24 383.47 205.82 371.11 186.56 345.51 202.98 307.44 143.61 285.98 157.37 336.41 236 350.31 227.09"/><rect class="cls-5" x="399.13" y="94.92" width="25.49" height="93.42" transform="translate(-22.92 167.13) rotate(-22.33)"/><polygon class="cls-5" points="503.77 161.41 493.84 106.69 495.27 106.43 502.53 118.07 528.85 156.86 558.21 151.53 541.53 59.62 518.3 63.84 528.62 120.69 527.19 120.95 519.96 109.46 492.08 68.59 463.86 73.71 480.54 165.63 503.77 161.41"/><path class="cls-5" d="M614.8,146.8q8.44,6.62,21,7.7a25.08,25.08,0,0,0,13.42-2.34q6.07-3,11.34-10.06l1.15.09,4.1,13.15,13.86,1.19,4.45-51.65-38.24-3.3-1.58,18.33,14.14,1.22a11.47,11.47,0,0,1-5.41,8,15.63,15.63,0,0,1-9.71,2.22,18.41,18.41,0,0,1-10.08-3.71,17.56,17.56,0,0,1-5.77-8.86A36.13,36.13,0,0,1,626.4,105a39.71,39.71,0,0,1,3.36-13.74,17.61,17.61,0,0,1,7.17-8,18.31,18.31,0,0,1,10.71-2,15.62,15.62,0,0,1,9.75,4A19.37,19.37,0,0,1,662.58,95l23.76-2.46a41.44,41.44,0,0,0-5.78-17.22,33.21,33.21,0,0,0-12.44-11.68,50.61,50.61,0,0,0-42.62-1.35A41.2,41.2,0,0,0,608,77.74q-6.71,10.4-8,25-1.28,14.87,2.55,26.17A37.18,37.18,0,0,0,614.8,146.8Z"/><polygon class="cls-5" points="811.07 159.64 835.15 172.04 817.12 207.06 839.78 218.73 882.54 135.68 859.88 124.01 844.36 154.14 820.28 141.74 835.8 111.61 813.13 99.94 770.38 183 793.04 194.67 811.07 159.64"/><rect class="cls-5" x="865.81" y="202.92" width="93.41" height="25.49" transform="translate(169.19 787.2) rotate(-50.85)"/><polygon class="cls-5" points="934.75 301.14 934.75 301.14 960.38 331.05 977.76 316.16 957.96 293.07 1011.51 247.17 994.93 227.81 924 288.61 934.75 301.14"/><polygon class="cls-5" points="993.06 383.52 1008.16 411.08 1028.23 400.08 1013.61 373.41 1075.46 339.5 1063.21 317.15 981.29 362.05 993.06 383.52"/><path class="cls-5" d="M1068.26,435.08a22.81,22.81,0,0,0-4.8,13.09,92.82,92.82,0,0,0,1.38,16.62c.59,3.84,1,6.8,1.15,8.85a11.49,11.49,0,0,1-.71,5.47,5.39,5.39,0,0,1-3.77,3.18,6,6,0,0,1-4.18-.17,8.23,8.23,0,0,1-3.28-3.07,22.63,22.63,0,0,1-2.56-6.12,16.61,16.61,0,0,1,0-10.55q1.73-4.54,7.32-7.63l-11.51-21.58a31.74,31.74,0,0,0-17,16.47q-5.08,11.3,0,29.28a50,50,0,0,0,8.75,17.92,27.75,27.75,0,0,0,13.82,9.48q8.14,2.44,18.18-.39,10.59-3,14.81-9.08a23,23,0,0,0,4.36-12.82,97.28,97.28,0,0,0-1.4-16.39,75.54,75.54,0,0,1-1.18-9.23,13.72,13.72,0,0,1,.87-6,5.67,5.67,0,0,1,4-3.3,7.33,7.33,0,0,1,4.76.08,8,8,0,0,1,3.65,3,19.26,19.26,0,0,1,2.51,5.68,18.62,18.62,0,0,1,.77,7.53,11,11,0,0,1-2.34,5.56,15.85,15.85,0,0,1-5.18,4l9.69,20.44a33,33,0,0,0,12.62-8.31,26.72,26.72,0,0,0,6.5-14q1.47-8.62-1.92-20.6-3.3-11.71-9.73-18.47a28.84,28.84,0,0,0-29.5-8.52Q1072.88,428.8,1068.26,435.08Z"/><path class="cls-5" d="M94.49,720.11a23.74,23.74,0,0,1,3.43-2.91,31.14,31.14,0,0,0,6.23-6,21.5,21.5,0,0,0,3.72-7.2,16.79,16.79,0,0,0,.57-3.15,38.4,38.4,0,0,0,3.86,10.66,17.06,17.06,0,0,0,7.62,7.27q4.69,2.18,11.4,1a18.22,18.22,0,0,0,10.05-4.89,17.46,17.46,0,0,0,4.61-10,46.44,46.44,0,0,0-.65-15l-2.62-14.49h0l-2.49-13.73-2.31-12.75-10.16,1.84c.41,3.49.62,5.8.64,6.91a2.92,2.92,0,0,1-.6,2.23,5.25,5.25,0,0,1-2.46.9l-41.19,7.45a5.25,5.25,0,0,1-2.61,0c-.53-.2-1-.83-1.35-1.88s-1-3.28-1.83-6.7l-10.16,1.84,2.31,12.76,1.88,10.37,2.29,12.65,10.16-1.84c-.41-3.5-.62-5.8-.64-6.92a3,3,0,0,1,.6-2.23,5.38,5.38,0,0,1,2.47-.89l16.1-2.92.82,4.54a8.91,8.91,0,0,1-.59,6,9.12,9.12,0,0,1-3.64,3.62,69.72,69.72,0,0,1-6.64,3.1,17,17,0,0,0-2.83,1L87.68,702a36.07,36.07,0,0,0-7.34,4.73,11.29,11.29,0,0,0-3.53,5.16,13.83,13.83,0,0,0-.2,6.62,13.14,13.14,0,0,0,3.61,7.33,12.57,12.57,0,0,0,6.59,3.39,21.58,21.58,0,0,0,7.81,0l.25-.49a4.4,4.4,0,0,1-1.22-1.51,7.56,7.56,0,0,1-.66-2.06,6.18,6.18,0,0,1,0-2.58A5.83,5.83,0,0,1,94.49,720.11Zm36-42.52,2.27,12.54a15.77,15.77,0,0,1,.15,5.72,7.38,7.38,0,0,1-1.93,3.87,7.77,7.77,0,0,1-4.27,2,7.28,7.28,0,0,1-4.73-.54,7.72,7.72,0,0,1-3.26-3.2,17.92,17.92,0,0,1-1.84-5.53l-2.17-12Z"/><path class="cls-5" d="M168.12,809.12a27.62,27.62,0,0,0,7.53-15.42q1.2-8.67-2.87-18.64a37.18,37.18,0,0,0-11.14-15.5,29.36,29.36,0,0,0-16.47-6.33,43.8,43.8,0,0,0-19.83,3.59q-10.78,4.41-17.06,11.13a28.08,28.08,0,0,0-7.55,15.36q-1.26,8.66,2.89,18.82a36.32,36.32,0,0,0,11.15,15.38,30.15,30.15,0,0,0,16.44,6.27q9.33.76,19.91-3.56T168.12,809.12ZM131.8,806a15.38,15.38,0,0,1-9-1.77,13.77,13.77,0,0,1-5.73-7,14.16,14.16,0,0,1-.92-9.24,14.86,14.86,0,0,1,5.25-7.48,43.75,43.75,0,0,1,11.11-6.2A42.72,42.72,0,0,1,144.73,771,13.12,13.12,0,0,1,159.35,780a14.35,14.35,0,0,1,1,9.09,14.51,14.51,0,0,1-5.17,7.52A43.37,43.37,0,0,1,144,802.83,40.45,40.45,0,0,1,131.8,806Z"/><path class="cls-5" d="M176.52,896.83c-2,.91-3.34,1.33-3.91,1.27a2.47,2.47,0,0,1-1.64-1.28l-7.46-11.27L200,861.4a4.83,4.83,0,0,1,2.42-1c.58,0,1.31.52,2.19,1.52s2.59,3.21,5.12,6.62l8.61-5.7-8.56-12.91-5.4-8.15L197.17,831l-8.61,5.7q2.64,4.58,3.32,6.1a3,3,0,0,1,.33,2.29,5.44,5.44,0,0,1-1.91,1.79L155.41,870A5.31,5.31,0,0,1,153,871a2.9,2.9,0,0,1-2-1.19c-.76-.81-2.2-2.63-4.32-5.43l-8.61,5.7,7.16,10.8,3.94,6h0L170,918.17l23.47-16.08L186.77,892Q179.57,895.48,176.52,896.83Z"/><path class="cls-5" d="M262,916.94l-6.79-7-9-9.32-7.42,7.17q3.42,4,4.37,5.4a2.94,2.94,0,0,1,.74,2.19,5.44,5.44,0,0,1-1.55,2.11l-30.11,29.07a5.29,5.29,0,0,1-2.16,1.48,2.93,2.93,0,0,1-2.16-.81c-.9-.66-2.64-2.18-5.24-4.56l-7.43,7.17,9,9.33,5,5.13h0l26.1,27,20.16-20.09-8.4-8.69q-6.45,4.71-9.2,6.6c-1.84,1.26-3,1.92-3.61,2a2.47,2.47,0,0,1-1.85-1L223,960.39,254.46,930a5,5,0,0,1,2.2-1.44,3.67,3.67,0,0,1,2.43,1.09c1.05.82,3.13,2.69,6.24,5.59l7.42-7.18Z"/><path class="cls-5" d="M332.24,1011.59l10,7,16.23-22.16-29.57-20.76,0,0-11.42-8-10.64-7.4-5.94,8.45c2.75,2.2,4.53,3.69,5.32,4.47a3,3,0,0,1,1.14,2,5.34,5.34,0,0,1-1.12,2.37l-24.05,34.25a5.38,5.38,0,0,1-1.85,1.86,2.92,2.92,0,0,1-2.27-.39c-1-.48-3-1.64-6-3.48l-5.93,8.45,10.61,7.45,11.42,8h0l30,21.09,15.68-23.49-9.71-6.81q-6,6.25-8.05,8.3a9.21,9.21,0,0,1-2.87,2.28,2.46,2.46,0,0,1-2-.6l-15.82-11.11,10.13-14.43,13.14,10,8.27-11.78-13.88-8.91,8.66-12.34,15.55,10.93a2.06,2.06,0,0,1,1.08,1.62,11.93,11.93,0,0,1-1.17,3.48Q336,1004.46,332.24,1011.59Z"/><path class="cls-5" d="M429.59,1035.66q-6.31-7.15-18.4-12.38l-6.57-2.85-8.86-3.83-11.9-5.14-4.1,9.47q4.71,2.4,6.11,3.31c.94.6,1.45,1.18,1.53,1.73a5.32,5.32,0,0,1-.63,2.55l-16.61,38.41a5.24,5.24,0,0,1-1.43,2.2,3,3,0,0,1-2.3.08c-1.09-.27-3.28-1-6.6-2.2l-4.09,9.48,11.89,5.15,7.66,3.31h0l2.38,1,2.77,1.2h0l1.81.78q11.6,5,21.46,4.91a28.66,28.66,0,0,0,17.27-5.63q7.42-5.54,12.26-16.73,4.36-10.08,3.5-18.89A27.79,27.79,0,0,0,429.59,1035.66ZM416.14,1063a39.07,39.07,0,0,1-7.22,11.72,14.1,14.1,0,0,1-8.8,4.57q-4.89.53-11.24-2.23l-3.43-1.48,18.19-42,2.62,1.14c4.5,1.94,7.82,4.24,9.95,6.87a13.73,13.73,0,0,1,3.09,9.18A33.4,33.4,0,0,1,416.14,1063Z"/><path class="cls-5" d="M532.29,1058.44l-12.85-1.73-1.38,10.23q5.18,1,6.78,1.52c1.06.33,1.71.75,1.93,1.26a5.37,5.37,0,0,1,.1,2.62l-5.59,41.48a5.43,5.43,0,0,1-.78,2.5,2.93,2.93,0,0,1-2.2.7q-1.68.06-6.94-.32L510,1126.93l12.85,1.73,10.45,1.41,12.73,1.71,1.38-10.23c-3.45-.69-5.71-1.19-6.78-1.52s-1.71-.75-1.93-1.26a5.25,5.25,0,0,1-.09-2.62l5.59-41.48a5.24,5.24,0,0,1,.78-2.5,2.94,2.94,0,0,1,2.2-.7c1.11,0,3.42.07,6.94.33l1.37-10.24-12.73-1.71Z"/><path class="cls-5" d="M644,1109.46A27.45,27.45,0,0,1,639,1114a31.63,31.63,0,0,1-6.81,3.55,25.87,25.87,0,0,1-8.58,1.64,22.47,22.47,0,0,1-10.61-1.94,14.82,14.82,0,0,1-6.74-6.66c-1.59-3-2.47-7-2.61-12a35.68,35.68,0,0,1,1.49-12.36,16.7,16.7,0,0,1,5-7.84,12.39,12.39,0,0,1,7.72-2.87,10.66,10.66,0,0,1,5.75,1.31,12.15,12.15,0,0,1,4.31,4.54,50.91,50.91,0,0,1,3.77,8.35l13-.39-.86-28.66-12.74.38-3.13,9.33a13.74,13.74,0,0,0-2.95-5,12,12,0,0,0-4.93-3.15,19.07,19.07,0,0,0-6.78-.89,26.88,26.88,0,0,0-14.86,4.84,30.05,30.05,0,0,0-10.32,13.17,45.86,45.86,0,0,0-3.36,19.78q.38,12.4,4.68,20.57a27.4,27.4,0,0,0,12.24,12.11q7.92,3.93,19,3.6a32.2,32.2,0,0,0,13.64-3.21,19.48,19.48,0,0,0,8.86-8.62q2.91-5.64,1.46-13.62Z"/><path class="cls-5" d="M743.14,1086.2l-11.55,2.67q.63,8.64.8,11.53a9.42,9.42,0,0,1-.22,3.67,2.5,2.5,0,0,1-1.78,1.08l-18.84,4.36-4-17.19,16.19-3.11-3.24-14-15.9,4.38-3.39-14.69,18.51-4.28a2.08,2.08,0,0,1,1.93.29,11.53,11.53,0,0,1,1.81,3.19q1.17,2.61,3.93,10.2l11.88-2.75-5.64-26.88-35.22,8.14v-.06l-13.59,3.14-12.62,3,2.32,10.06q5.22-.87,6.88-1a2.92,2.92,0,0,1,2.26.49,5.35,5.35,0,0,1,1,2.42l9.42,40.78a5.28,5.28,0,0,1,.15,2.61c-.17.53-.78,1-1.81,1.44s-3.23,1.14-6.61,2.14l2.33,10.06L700.8,1125l13.59-3.15h0l35.75-8.26Z"/><path class="cls-5" d="M880.75,1027.44a27,27,0,0,1-2.31,6.42,31.79,31.79,0,0,1-4.3,6.38,25.62,25.62,0,0,1-6.76,5.52,22.36,22.36,0,0,1-10.25,3.35,14.82,14.82,0,0,1-9.1-2.65q-4.28-2.85-8-9.31a35.73,35.73,0,0,1-4.57-11.58,16.74,16.74,0,0,1,.69-9.3,12.45,12.45,0,0,1,5.42-6.2,10.71,10.71,0,0,1,5.69-1.58,12.2,12.2,0,0,1,6,1.93,52.24,52.24,0,0,1,7.29,5.55l11.21-6.52-14.41-24.78-11,6.4,1.7,9.69a13.73,13.73,0,0,0-5-3,11.9,11.9,0,0,0-5.83-.42,19.13,19.13,0,0,0-6.39,2.45A26.94,26.94,0,0,0,820,1011.16a30.05,30.05,0,0,0-2.8,16.49,46.08,46.08,0,0,0,6.46,19q6.24,10.74,13.92,15.86a27.4,27.4,0,0,0,16.53,4.82q8.83-.32,18.43-5.89a32.16,32.16,0,0,0,10.46-9.32,19.4,19.4,0,0,0,3.69-11.8q-.13-6.35-5.2-12.67Z"/><path class="cls-5" d="M972.55,964.9,972,965a4.62,4.62,0,0,1-.65,1.82,7.24,7.24,0,0,1-1.42,1.63,6.1,6.1,0,0,1-2.22,1.31,5.73,5.73,0,0,1-2.84,0,23,23,0,0,1-4.27-1.41,31.13,31.13,0,0,0-8.35-2.21,21.49,21.49,0,0,0-8.09.57,16.84,16.84,0,0,0-3,1.15,38,38,0,0,0,7.09-8.85,17,17,0,0,0,2.25-10.29q-.6-5.13-5.11-10.22a18.28,18.28,0,0,0-9.41-6.05,17.5,17.5,0,0,0-10.93,1.26A47.06,47.06,0,0,0,912.59,942l-11,9.78h0l-2.77,2.46-1.34,1.19h0l-6.32,5.61-9.69,8.61,6.85,7.72q4.17-3.25,5.58-4.14a3,3,0,0,1,2.22-.65,5.39,5.39,0,0,1,2,1.64l27.79,31.29a5.42,5.42,0,0,1,1.39,2.23,3,3,0,0,1-.91,2.12q-1,1.3-4.77,5.05l6.85,7.72,9.7-8.61,7.88-7,9.61-8.53-6.85-7.72c-2.78,2.16-4.64,3.55-5.58,4.14a3,3,0,0,1-2.22.65,5.5,5.5,0,0,1-2-1.64l-10.87-12.24,3.45-3.07A8.24,8.24,0,0,1,942,977.29a69.81,69.81,0,0,1,6.1,4.05,16.73,16.73,0,0,0,2.35,1.89c.87.6,1.7,1.18,2.5,1.75a36.38,36.38,0,0,0,7.86,3.81,11.44,11.44,0,0,0,6.25.33,13.84,13.84,0,0,0,5.76-3.28,13.05,13.05,0,0,0,4.37-6.9,12.51,12.51,0,0,0-.53-7.38A21.6,21.6,0,0,0,972.55,964.9Zm-62.73-3.8,9.53-8.46a15.62,15.62,0,0,1,4.82-3.1,7.42,7.42,0,0,1,4.3-.37,7.74,7.74,0,0,1,3.93,2.61,7.33,7.33,0,0,1,2,4.32,7.76,7.76,0,0,1-1,4.45,17.75,17.75,0,0,1-3.77,4.45l-9.12,8.09Z"/><path class="cls-5" d="M1022.68,879.52l-7.12,9.49q6.06,6.19,8.05,8.3a9.15,9.15,0,0,1,2.19,3,2.47,2.47,0,0,1-.66,2l-11.6,15.47-14.11-10.58,10.37-12.82-11.51-8.63L989,899.26l-12.06-9L988.3,875a2.05,2.05,0,0,1,1.65-1,11.76,11.76,0,0,1,3.44,1.28q2.58,1.23,9.58,5.26l7.32-9.76-21.65-16.91L967,882.77l0,0-8.37,11.16-7.74,10.4,8.27,6.2c2.28-2.68,3.83-4.41,4.63-5.17a3,3,0,0,1,2-1.08,5.31,5.31,0,0,1,2.33,1.19l33.49,25.11a5.44,5.44,0,0,1,1.8,1.9,2.93,2.93,0,0,1-.46,2.27c-.51,1-1.74,2.95-3.67,5.9l8.26,6.19,7.78-10.37,8.37-11.16h0l22-29.35Z"/><path class="cls-5" d="M1089.7,790.16a1.24,1.24,0,0,0-.1.2,11.44,11.44,0,0,1-2.52,2.75,6.89,6.89,0,0,1-3.67.82c-1.71,0-4.48-.12-8.29-.47l-52.07-4-7.94,16.78,35.94,38a.29.29,0,0,0,.15.2l.2.09a80.12,80.12,0,0,1,5.48,5.88,6.07,6.07,0,0,1,1.47,3.19,12.7,12.7,0,0,1-.68,4.12l9.34,4.42,13.07-27.6-9.13-4.33a27.3,27.3,0,0,1-2.91,4.46c-.8.92-1.53,1.3-2.19,1.15a6.54,6.54,0,0,1-2.59-1.72l-3.75-3.6,9.29-19.61,5.28.63a8.8,8.8,0,0,1,3,.82c.5.32.65,1.08.44,2.27a27.7,27.7,0,0,1-1.75,5.37l9.13,4.33,14.25-30.08-9.33-4.42A3.27,3.27,0,0,0,1089.7,790.16Zm-38.88,32-6.47-6.23-9.7-9.27,13.33,1.75,8.85,1.06Z"/><path class="cls-5" d="M1122.17,663.24c-.92,3.32-1.6,5.52-2,6.59s-.88,1.69-1.4,1.84a6,6,0,0,1-2.61-.16l-40.94-8.67a6.08,6.08,0,0,1-2.45-.91c-.41-.35-.59-1.1-.53-2.25s.33-3.43.83-6.84L1063,650.7l-2.67,12.58-.06.32h0l-1.51,7.11-1.34,6.32h0l-1,4.84,34.32,23.67-40.86,7.17-6.28,29.66,10.1,2.14c1.2-3.28,2.26-5.94,3.21-8.08l44.67,9.46a3.39,3.39,0,0,1,1.76.71,3.49,3.49,0,0,1,.28,2.14c-.06,1.15-.32,3.2-.8,6.17l10.1,2.14,6.53-30.84-10.1-2.14q-1.12,4.24-1.78,6a4.61,4.61,0,0,1-1.18,2.11,2.7,2.7,0,0,1-1.91,0l-33.68-7.13,51-10,.52-2.47-42.65-30.93,32.9,7a5.45,5.45,0,0,1,2.44,1,3,3,0,0,1,.53,2.25c0,1.11-.33,3.41-.84,6.89l10.1,2.14,2.69-12.68,2.18-10.32,2.66-12.57Z"/><path class="cls-5" d="M600,1200C269.16,1200,0,930.84,0,600S269.16,0,600,0s600,269.16,600,600S930.84,1200,600,1200ZM600,33.8C287.8,33.8,33.8,287.8,33.8,600s254,566.2,566.2,566.2,566.2-254,566.2-566.2S912.2,33.8,600,33.8Z"/></svg>