<svg id="Layer_1" data-name="Layer 1" xmlns="http://www.w3.org/2000/svg" viewBox="0 0 1200 1200"><defs><style>.cls-1{fill:#3e3b39;}</style></defs><path class="cls-1" d="M175.82,597.91c0,112.86,44,219,123.76,298.78s185.91,123.75,298.78,123.75,219-44,298.77-123.75,123.76-185.92,123.76-298.78-43.95-219-123.76-298.78S711.22,175.38,598.36,175.38c-89.83,0-175.36,27.86-246.77,79.46a143.9,143.9,0,0,1,51.65-3.94,140,140,0,0,1,15,2.49,389.26,389.26,0,0,1,180.12-44c99.54,0,199.09,37.89,274.87,113.67,80,80,117.76,186.48,113.31,291.49l-134.6-102.2-98.55,73.92-155-192.35-155,192.35-98.56-73.92-134.6,102.2c-4.23-100.15,29.94-201.65,102.53-280.23,3.41-3.68,6.88-7.34,10.46-10.92.23-.24.48-.48.72-.72l.33-.32v0l.88-.85c.46-.46.92-.93,1.4-1.37a95.77,95.77,0,0,1,12-9.5c1.46-1,2.94-1.91,4.46-2.81a96,96,0,0,1,14.24-6.91q2.31-.9,4.67-1.68l1.54-.47c1.07-.34,2.15-.66,3.23-1,.61-.17,1.23-.32,1.84-.48,1-.26,2-.5,3-.73l1.93-.4c1-.21,2-.39,3.06-.56.63-.11,1.26-.22,1.9-.31,1.09-.16,2.19-.3,3.29-.42l1.68-.2c1.45-.14,2.91-.25,4.37-.32l.63,0c1.65-.08,3.31-.11,5-.1,1.9,0,3.79.06,5.69.17a98.17,98.17,0,0,1,41,12.14l4.74,2.64,4.43,3.12c.73.53,1.49,1,2.24,1.54a21.65,21.65,0,0,1,2.17,1.64l4.12,3.57c2.93,2.28,5.14,4.95,7.63,7.48a26.43,26.43,0,0,1,2.23,2.72c.35.47.7,1,1.07,1.4l1.09,1.4a21.62,21.62,0,0,1,2,2.9l2.82,4.49c.86,1.54,1.57,3.16,2.39,4.74l1.19,2.38.94,2.49c.6,1.66,1.29,3.31,1.86,5a94.65,94.65,0,0,1,2.46,10.4,79.3,79.3,0,0,1,1.16,10.67q.1,4-.18,8.07a79.94,79.94,0,0,1-5.29,23.65c-.67,1.68-1.39,3.34-2.18,5s-1.63,3.23-2.54,4.8a51.19,51.19,0,0,1-4.38,6.9c-.52.74-1.05,1.49-1.56,2.25-1.07,1.47-2.36,2.77-3.52,4.18a36,36,0,0,1-3.68,4c-1.32,1.17-2.51,2.53-3.93,3.59l-4.21,3.27-4.52,2.82a26.7,26.7,0,0,1-2.36,1.26c-.8.38-1.61.76-2.4,1.18h0c-1.43.66-2.91,1.25-4.4,1.8l-1,.38c-1.48.52-3,1-4.49,1.41-.19.06-.39.1-.59.15-1.38.36-2.78.67-4.2.94l-1,.2c-1.54.27-3.09.49-4.66.64l-.9.08c-1.4.12-2.8.2-4.21.22-.28,0-.56,0-.85,0-1.6,0-3.21,0-4.82-.16-.37,0-.74-.07-1.12-.1-1.27-.11-2.54-.27-3.81-.46l-1.36-.21c-1.59-.29-3.18-.61-4.76-1A64.9,64.9,0,0,1,381.78,441c-.49-.37-1-.7-1.51-1a24.17,24.17,0,0,1-2.93-2.21l-4.17-3.6c-1.2-1.32-2.48-2.58-3.67-3.92-.52-.72-1.09-1.41-1.64-2.12s-1.1-1.42-1.59-2.16a49.49,49.49,0,0,1-6.72-14.65,52.84,52.84,0,0,1-1.38-6.64c-.23-1.68-.39-3.38-.46-5.08a51.09,51.09,0,0,1,1.66-15.25,50.39,50.39,0,0,1,4-10.23,52,52,0,0,1,6.11-9.19,47.85,47.85,0,0,1,3.73-4.05c.66-.63,1.33-1.24,2-1.82a40.17,40.17,0,0,1,4.36-3.22,37.33,37.33,0,0,1,7.3-3.62c1-.41,2.09-.75,3.16-1.06l.93-.25c.82-.22,1.64-.41,2.47-.57l.89-.18c1.09-.18,2.19-.34,3.3-.43.14,0,.29,0,.44,0,1-.08,1.95-.12,2.93-.13h1c.77,0,1.54,0,2.3.09l1,.07c1.07.09,2.14.21,3.2.38h0a44.62,44.62,0,0,1,8,2.27,41.16,41.16,0,0,1,5,2.35,38,38,0,0,1,6.85,4.8A32.87,32.87,0,0,1,439.64,378c.2.9.35,1.82.46,2.74a32.29,32.29,0,0,1,.21,5.56,34.66,34.66,0,0,1-.7,5.55c-.19.91-.42,1.82-.69,2.72a34.4,34.4,0,0,1-2,5.24c-.42.83-.88,1.66-1.38,2.46s-1,1.58-1.58,2.34a35.92,35.92,0,0,1-3.68,4.28,26.7,26.7,0,0,1-9.4,5.89c-.81.3-1.65.56-2.49.78-.27.07-.55.12-.82.18-.58.13-1.17.25-1.76.35-.32.05-.64.08-1,.12-.55.07-1.11.12-1.67.15l-1,.05h-1.32c.24,0,.47,0,.71,0v4.78c.41,0,.81.08,1.22.08h.09c.95,0,1.91-.06,2.86-.14l.81-.1c.76-.08,1.51-.2,2.26-.34l.85-.17a31.37,31.37,0,0,0,6.06-1.95,32.3,32.3,0,0,0,5.86-3.33,33.42,33.42,0,0,0,2.64-2.11,41.61,41.61,0,0,0,8.31-10.4,41.09,41.09,0,0,0,4.41-26.12,41.72,41.72,0,0,0-6.21-15.75,38.33,38.33,0,0,0-6.65-7.72,47.47,47.47,0,0,0-5.19-4.29,49.86,49.86,0,0,0-5.77-3.51,53,53,0,0,0-12.72-4.66c-1.61-.33-3.24-.57-4.88-.75l-1-.11c-1.6-.16-3.2-.25-4.81-.25l-.3,0c-.31,0-.62,0-.93,0-.83,0-1.65,0-2.48.09-.48,0-1,.08-1.43.12-.8.08-1.6.17-2.39.28l-1.4.22c-.85.14-1.69.32-2.53.51-.4.09-.8.17-1.19.27-1.22.31-2.44.65-3.63,1.06h0a50.1,50.1,0,0,0-17.83,10.23,56.46,56.46,0,0,0-4.84,4.82,63.44,63.44,0,0,0-6.22,8.07c-.77,1.19-1.5,2.41-2.2,3.65a62.81,62.81,0,0,0-5.08,11.75,65.23,65.23,0,0,0,6.61,53.17c1.2,2,2.63,3.82,3.95,5.74s3,3.53,4.55,5.28l5,4.69a64.8,64.8,0,0,0,5.33,4.28,81.39,81.39,0,0,0,24.44,12.28c2.06.63,4.14,1.15,6.23,1.6.68.15,1.36.25,2,.38,1.44.27,2.88.52,4.33.71.8.11,1.61.19,2.41.27,1.35.13,2.71.24,4.07.31.83,0,1.65.07,2.48.09.51,0,1,.05,1.52.05,1.39,0,2.77,0,4.16-.11l.37,0q3-.18,6.06-.58l.84-.1c2-.28,4-.65,6-1.07l1.13-.25c2-.46,3.91-1,5.84-1.57l.94-.3c2-.65,4-1.36,6-2.16,2.11-1,4.31-1.8,6.35-2.92l6.1-3.46,5.73-4c1.92-1.34,3.58-3,5.38-4.5a50.13,50.13,0,0,0,4.92-4.85c1.54-1.69,3.19-3.28,4.63-5.07,2.07-2.74,4.26-5.4,6.18-8.26.64-.95,1.25-1.92,1.82-2.93A93.57,93.57,0,0,0,499,415.22a98.75,98.75,0,0,0,4.73-13,105.62,105.62,0,0,0,4-27.4,102.75,102.75,0,0,0-.88-13.9,117.3,117.3,0,0,0-2.64-13.72c-.65-2.24-1.42-4.45-2.14-6.67L501,337.21,499.6,334c-1-2.14-1.84-4.32-2.9-6.41L495,324.53l-1.73-3.07a55.66,55.66,0,0,0-3.85-5.89c-.7-.94-1.36-1.92-2-2.88s-1.38-1.91-2.15-2.8c-1.54-1.76-3.06-3.57-4.63-5.32a55.29,55.29,0,0,0-4.89-4.91l-2.51-2.35L470.67,295c-.56-.53-1.17-1-1.77-1.47s-1-.83-1.52-1.22c-.7-.54-1.42-1.06-2.1-1.61l-5.51-4.19-5.87-3.67q-3-1.8-6-3.45a126,126,0,0,0-12.55-5.91,125.1,125.1,0,0,0-33.63-8.53c-1.16-.12-2.32-.18-3.48-.27s-2.25-.2-3.38-.26c-.77,0-1.54,0-2.31-.06-1.46-.05-2.92-.12-4.38-.12h-.22l-.94,0c-1.8,0-3.59.07-5.39.16-.66,0-1.31.07-2,.12-1.55.1-3.09.23-4.63.38l-1.82.19c-2.09.24-4.17.52-6.25.86l-.55.1q-2.85.5-5.67,1.1l-1.89.43c-1.5.35-3,.73-4.5,1.13-.61.16-1.22.32-1.83.5q-3,.85-6.05,1.87h0a126.94,126.94,0,0,0-19.39,8.41c-2.08,1.11-4.12,2.28-6.14,3.5a129.18,129.18,0,0,0-17.16,12.46c-1.71,1.47-3.37,3-5,4.55l-.24.21v0q-5,5-9.75,10.16C215.83,388.77,175.82,490.26,175.82,597.91ZM873.23,872.79c-151.56,151.56-398.18,151.56-549.75,0A386.26,386.26,0,0,1,224.81,705.2c90.85-11.63,171.51-1.73,239.74,29.57,41.56,19.07,68.95,41,95.44,62.2,31.28,25,60.83,48.7,108.94,65.19q47.46,16.26,101,16.26,54,0,113.81-16.59C880.31,865.53,876.83,869.19,873.23,872.79Zm48.43-59C830.3,848.33,749,853.86,679.89,830.18c-30.46-10.44-52.46-24.11-73.59-39.9A438.08,438.08,0,0,1,969.92,711.9,385.81,385.81,0,0,1,921.66,813.79ZM344.9,554.67l104.26,78.19,149.2-185.11L747.55,632.86l104.27-78.19,131,99.48q-1.83,12.57-4.48,25a472.13,472.13,0,0,0-399.54,89.6c-26.23-21-56.12-44.5-100.19-64.71-75-34.4-163-45.13-261.71-31.94q-1.73-9-3-18Z"/><path class="cls-1" d="M157.27,507.5l7.18-24.61-33.52-9.77,1.54-5.28q1.42-4.86,4.12-6.87a9.91,9.91,0,0,1,6.09-2,63,63,0,0,1,9.29,1,91.36,91.36,0,0,0,10.29,1.19,26.85,26.85,0,0,0,8.83-1.05l7.74-26.55a28,28,0,0,1-8.76,1.82,82.15,82.15,0,0,1-10.49-.49,76.07,76.07,0,0,0-10.21-.41,21.33,21.33,0,0,0-8.26,2.19,24.58,24.58,0,0,0-8.23,7l-1.25-.36q-.07-11.64-4.3-18.91a20.49,20.49,0,0,0-12.42-9.65,24.23,24.23,0,0,0-14.26,0Q93.77,416.9,88,423.89t-9.14,18.68l-5.39,18.5h0l-5.91,20.3ZM101.2,444.7a8.84,8.84,0,0,1,4.37-3.33,9.15,9.15,0,0,1,5.32.12q5,1.45,6.41,5.18t-.34,9.71l-3.41,11.68-18.77-5.47,3.12-10.71A22.18,22.18,0,0,1,101.2,444.7Z"/><path class="cls-1" d="M152.14,377.35q12.59,7.74,24.52,9.21a37.43,37.43,0,0,0,22.28-3.89q10.37-5.37,18-17.83,7.44-12.09,7.78-24.12a40.2,40.2,0,0,0-6.05-22.51q-6.41-10.47-18.61-18-12.47-7.65-24.4-9.13A37.72,37.72,0,0,0,153.3,295q-10.45,5.39-18.12,17.85Q127.75,325,127.47,337a40.13,40.13,0,0,0,6.15,22.48A55.05,55.05,0,0,0,152.14,377.35Zm2-52q3.79-6.17,8.83-8a17.44,17.44,0,0,1,10.79-.25,48.64,48.64,0,0,1,12.4,5.67,41,41,0,0,1,10.27,8.61,19,19,0,0,1,4.48,10q.65,5.33-2.85,11-3.71,6-8.75,7.88a17.34,17.34,0,0,1-10.78.25A49,49,0,0,1,166,354.77a41.52,41.52,0,0,1-10.25-8.5,18.7,18.7,0,0,1-4.46-9.89Q150.69,331.07,154.17,325.38Z"/><polygon class="cls-1" points="283.6 278.21 283.6 278.21 305.28 256.88 289.24 240.57 267.55 261.89 218.1 211.6 199.92 229.47 265.42 296.08 283.6 278.21"/><polygon class="cls-1" points="348.67 225 348.67 225 352.42 222.59 356.23 220.15 356.23 220.15 381.83 203.73 369.47 184.47 343.87 200.89 305.8 141.52 284.34 155.28 334.77 233.91 348.67 225"/><rect class="cls-1" x="397.49" y="92.83" width="25.49" height="93.42" transform="matrix(0.92, -0.38, 0.38, 0.92, -22.25, 166.35)"/><polygon class="cls-1" points="502.13 159.32 492.2 104.6 493.63 104.34 500.89 115.98 527.21 154.77 556.57 149.44 539.89 57.53 516.66 61.75 526.98 118.6 525.55 118.86 518.31 107.37 490.44 66.5 462.22 71.62 478.9 163.54 502.13 159.32"/><path class="cls-1" d="M613.16,144.71q8.45,6.61,21,7.7a25.17,25.17,0,0,0,13.42-2.33q6.07-3,11.34-10.07l1.15.09,4.1,13.15L678,154.44l4.46-51.65-38.24-3.3-1.58,18.33L656.8,119a11.47,11.47,0,0,1-5.41,8,15.64,15.64,0,0,1-9.71,2.22,18.41,18.41,0,0,1-10.08-3.71,17.56,17.56,0,0,1-5.77-8.86,35.93,35.93,0,0,1-1.07-13.75,39.49,39.49,0,0,1,3.36-13.74,17.61,17.61,0,0,1,7.17-8,18.24,18.24,0,0,1,10.71-2,15.56,15.56,0,0,1,9.75,4,19.37,19.37,0,0,1,5.19,9.76l23.76-2.46a41.44,41.44,0,0,0-5.78-17.22,33.28,33.28,0,0,0-12.44-11.68,50.61,50.61,0,0,0-42.62-1.35,41.2,41.2,0,0,0-17.54,15.42q-6.71,10.39-8,25-1.27,14.86,2.55,26.17A37.18,37.18,0,0,0,613.16,144.71Z"/><polygon class="cls-1" points="809.43 157.55 833.51 169.95 815.48 204.97 838.14 216.64 880.9 133.59 858.24 121.92 842.72 152.05 818.64 139.65 834.16 109.52 811.49 97.86 768.74 180.91 791.4 192.58 809.43 157.55"/><rect class="cls-1" x="864.17" y="200.83" width="93.41" height="25.49" transform="translate(170.2 785.16) rotate(-50.85)"/><polygon class="cls-1" points="933.11 299.05 933.11 299.06 958.74 328.96 976.12 314.07 956.32 290.98 1009.87 245.08 993.29 225.72 922.36 286.52 933.11 299.05"/><polygon class="cls-1" points="991.42 381.43 1006.52 408.99 1026.59 397.99 1011.97 371.32 1073.82 337.42 1061.57 315.06 979.65 359.96 991.42 381.43"/><path class="cls-1" d="M1066.62,433a22.74,22.74,0,0,0-4.8,13.09,92.82,92.82,0,0,0,1.38,16.62c.59,3.84,1,6.8,1.15,8.85a11.62,11.62,0,0,1-.71,5.47,5.39,5.39,0,0,1-3.77,3.18,6,6,0,0,1-4.19-.17,8.21,8.21,0,0,1-3.27-3.07,22.63,22.63,0,0,1-2.56-6.12,16.61,16.61,0,0,1,0-10.55q1.72-4.55,7.32-7.63l-11.51-21.58a31.74,31.74,0,0,0-17,16.47q-5.09,11.29,0,29.28a50,50,0,0,0,8.75,17.92,27.7,27.7,0,0,0,13.82,9.48q8.15,2.44,18.18-.39,10.59-3,14.81-9.08a23,23,0,0,0,4.36-12.82,97.28,97.28,0,0,0-1.4-16.39,73.71,73.71,0,0,1-1.18-9.22,13.74,13.74,0,0,1,.87-6,5.67,5.67,0,0,1,4-3.3,7.34,7.34,0,0,1,4.76.08,8,8,0,0,1,3.64,3,19,19,0,0,1,2.52,5.68,18.62,18.62,0,0,1,.77,7.53,11.13,11.13,0,0,1-2.34,5.56,15.85,15.85,0,0,1-5.18,4l9.69,20.44a33,33,0,0,0,12.62-8.31,26.72,26.72,0,0,0,6.5-14q1.47-8.62-1.92-20.6-3.3-11.72-9.73-18.47a28.84,28.84,0,0,0-29.5-8.52Q1071.24,426.71,1066.62,433Z"/><path class="cls-1" d="M92.85,718a23.74,23.74,0,0,1,3.43-2.91,31.14,31.14,0,0,0,6.23-6,21.5,21.5,0,0,0,3.72-7.2,16.79,16.79,0,0,0,.57-3.15,38.4,38.4,0,0,0,3.86,10.66,17.06,17.06,0,0,0,7.62,7.27q4.69,2.17,11.39.95a18.22,18.22,0,0,0,10.06-4.89,17.46,17.46,0,0,0,4.61-10,46.73,46.73,0,0,0-.65-15l-2.62-14.49h0l-2.49-13.73-2.31-12.75-10.16,1.84c.41,3.49.62,5.8.64,6.91a3,3,0,0,1-.6,2.23,5.25,5.25,0,0,1-2.46.9L82.5,666.14a5.29,5.29,0,0,1-2.62,0c-.52-.2-1-.83-1.34-1.88s-1-3.28-1.83-6.7l-10.16,1.84,2.31,12.76,1.88,10.37L73,695.21l10.16-1.84c-.41-3.5-.62-5.8-.64-6.92a3,3,0,0,1,.6-2.23,5.38,5.38,0,0,1,2.46-.89l16.11-2.92.82,4.54a8.91,8.91,0,0,1-.59,6,9.12,9.12,0,0,1-3.64,3.62,69.72,69.72,0,0,1-6.64,3.1,17,17,0,0,0-2.83,1L86,699.89a36.07,36.07,0,0,0-7.34,4.73,11.29,11.29,0,0,0-3.53,5.16,13.83,13.83,0,0,0-.2,6.62,13.14,13.14,0,0,0,3.61,7.33,12.57,12.57,0,0,0,6.59,3.39,21.58,21.58,0,0,0,7.81,0l.25-.49A4.55,4.55,0,0,1,92,725.1a7.92,7.92,0,0,1-.65-2.06,6.18,6.18,0,0,1,0-2.58A5.83,5.83,0,0,1,92.85,718Zm36-42.52L131.12,688a15.77,15.77,0,0,1,.15,5.72,7.45,7.45,0,0,1-1.93,3.87,7.77,7.77,0,0,1-4.27,2,7.28,7.28,0,0,1-4.73-.54,7.72,7.72,0,0,1-3.26-3.2,17.92,17.92,0,0,1-1.84-5.53l-2.17-12Z"/><path class="cls-1" d="M166.48,807A27.68,27.68,0,0,0,174,791.61q1.2-8.67-2.87-18.64A37.27,37.27,0,0,0,160,757.47a29.38,29.38,0,0,0-16.47-6.33,43.75,43.75,0,0,0-19.84,3.6q-10.77,4.39-17,11.12a28.08,28.08,0,0,0-7.55,15.36Q97.83,789.88,102,800a36.24,36.24,0,0,0,11.15,15.38,30.15,30.15,0,0,0,16.44,6.27q9.33.76,19.91-3.56T166.48,807ZM130.16,804a15.38,15.38,0,0,1-9-1.77,13.73,13.73,0,0,1-5.73-7,14.16,14.16,0,0,1-.92-9.24,14.86,14.86,0,0,1,5.25-7.48,43.75,43.75,0,0,1,11.11-6.2,42.72,42.72,0,0,1,12.25-3.29,14.62,14.62,0,0,1,9,1.74,14.26,14.26,0,0,1,1.47,23.79,43.37,43.37,0,0,1-11.15,6.27A40.45,40.45,0,0,1,130.16,804Z"/><path class="cls-1" d="M174.87,894.74c-2,.91-3.33,1.33-3.9,1.27a2.45,2.45,0,0,1-1.64-1.28l-7.46-11.26,36.44-24.16a4.83,4.83,0,0,1,2.42-1c.58,0,1.31.52,2.19,1.52s2.59,3.21,5.12,6.62l8.61-5.7-8.56-12.91-5.4-8.15-7.16-10.8-8.61,5.7c1.76,3,2.86,5.08,3.32,6.1a3,3,0,0,1,.33,2.29,5.44,5.44,0,0,1-1.91,1.79l-34.89,23.12a5.31,5.31,0,0,1-2.39,1.06,2.9,2.9,0,0,1-2-1.19c-.76-.81-2.2-2.63-4.33-5.43l-8.6,5.7,7.16,10.8,3.94,6h0l20.76,31.31L191.8,900l-6.68-10.08Q177.92,893.39,174.87,894.74Z"/><path class="cls-1" d="M260.35,914.85l-6.79-7-9-9.32-7.43,7.17q3.44,4,4.38,5.4a2.94,2.94,0,0,1,.74,2.19,5.44,5.44,0,0,1-1.55,2.11l-30.11,29.07a5.29,5.29,0,0,1-2.16,1.48,2.92,2.92,0,0,1-2.16-.81c-.9-.66-2.64-2.18-5.24-4.56l-7.43,7.17,9,9.33,5,5.13h0l26.1,27,20.16-20.09-8.4-8.69q-6.45,4.71-9.2,6.6c-1.84,1.26-3,1.92-3.61,2a2.47,2.47,0,0,1-1.85-1l-9.39-9.72,31.45-30.37a4.91,4.91,0,0,1,2.2-1.44,3.67,3.67,0,0,1,2.43,1.09c1.05.82,3.13,2.69,6.23,5.59l7.43-7.18Z"/><path class="cls-1" d="M330.6,1009.5l10,7,16.23-22.15-29.58-20.77,0-.05-11.42-8-10.64-7.4-5.94,8.45q4.13,3.3,5.32,4.47a3,3,0,0,1,1.14,2,5.34,5.34,0,0,1-1.12,2.37l-24.05,34.25a5.38,5.38,0,0,1-1.85,1.86,2.92,2.92,0,0,1-2.27-.39c-1-.48-3-1.64-6-3.48l-5.93,8.45,10.61,7.45,11.42,8h0l30,21.09,15.68-23.49-9.71-6.81q-6,6.25-8,8.3a9.21,9.21,0,0,1-2.87,2.28,2.46,2.46,0,0,1-2-.6l-15.82-11.11,10.13-14.43,13.14,10,8.27-11.78-13.88-8.91,8.66-12.33,15.55,10.92a2.06,2.06,0,0,1,1.08,1.62,11.93,11.93,0,0,1-1.17,3.48Q334.41,1002.37,330.6,1009.5Z"/><path class="cls-1" d="M427.94,1033.57q-6.3-7.15-18.4-12.38l-6.57-2.85-8.85-3.83-11.9-5.14-4.1,9.47q4.71,2.4,6.11,3.31c.94.6,1.44,1.18,1.52,1.73a5.28,5.28,0,0,1-.62,2.55l-16.61,38.41a5.24,5.24,0,0,1-1.43,2.2,3,3,0,0,1-2.31.08c-1.08-.27-3.27-1-6.59-2.2l-4.1,9.48,11.9,5.15,7.66,3.31h0l2.38,1,2.77,1.2h0l1.81.78q11.59,5,21.45,4.91a28.67,28.67,0,0,0,17.28-5.63q7.43-5.54,12.26-16.73,4.36-10.08,3.5-18.89A27.74,27.74,0,0,0,427.94,1033.57Zm-13.44,27.34q-3.31,7.66-7.22,11.72a14.1,14.1,0,0,1-8.8,4.57q-4.89.52-11.24-2.23l-3.43-1.48,18.19-42,2.61,1.14c4.51,1.94,7.83,4.24,10,6.87a13.73,13.73,0,0,1,3.09,9.18A33.4,33.4,0,0,1,414.5,1060.91Z"/><path class="cls-1" d="M530.65,1056.35l-12.85-1.73-1.38,10.23q5.18,1,6.78,1.52c1.06.33,1.71.75,1.93,1.26a5.27,5.27,0,0,1,.09,2.62l-5.58,41.48a5.43,5.43,0,0,1-.78,2.5,2.93,2.93,0,0,1-2.2.7q-1.68.06-6.94-.32l-1.38,10.23,12.85,1.73,10.45,1.41,12.73,1.71,1.38-10.23c-3.45-.69-5.71-1.19-6.78-1.52s-1.71-.75-1.93-1.26a5.25,5.25,0,0,1-.09-2.62l5.59-41.48a5.24,5.24,0,0,1,.78-2.5,2.93,2.93,0,0,1,2.19-.7c1.12,0,3.43.08,7,.33l1.37-10.24-12.73-1.71Z"/><path class="cls-1" d="M642.4,1107.37a27.45,27.45,0,0,1-5.09,4.55,31.71,31.71,0,0,1-6.82,3.55,25.77,25.77,0,0,1-8.58,1.64,22.43,22.43,0,0,1-10.6-1.94,14.82,14.82,0,0,1-6.74-6.66q-2.4-4.54-2.62-12a35.91,35.91,0,0,1,1.5-12.36,16.7,16.7,0,0,1,5-7.84,12.37,12.37,0,0,1,7.72-2.87,10.66,10.66,0,0,1,5.75,1.31,12.15,12.15,0,0,1,4.31,4.54,51.77,51.77,0,0,1,3.77,8.35l13-.39-.86-28.66-12.74.38-3.13,9.33a13.74,13.74,0,0,0-2.95-5,12,12,0,0,0-4.93-3.15,19.09,19.09,0,0,0-6.79-.89,26.88,26.88,0,0,0-14.85,4.84,30,30,0,0,0-10.32,13.17,45.86,45.86,0,0,0-3.36,19.78q.38,12.4,4.68,20.57A27.43,27.43,0,0,0,600,1129.75q7.93,3.93,19,3.6a32.2,32.2,0,0,0,13.64-3.21,19.48,19.48,0,0,0,8.86-8.62q2.91-5.64,1.46-13.62Z"/><path class="cls-1" d="M741.5,1084.11l-11.56,2.67q.64,8.64.81,11.53a9.42,9.42,0,0,1-.22,3.67,2.5,2.5,0,0,1-1.78,1.08l-18.84,4.36-4-17.19,16.19-3.11-3.24-14-15.9,4.38-3.39-14.69,18.51-4.28a2.08,2.08,0,0,1,1.93.29,11.7,11.7,0,0,1,1.81,3.19c.77,1.74,2.09,5.14,3.93,10.2l11.88-2.75L732,1042.55l-35.22,8.14v-.06l-13.59,3.15-12.62,3,2.32,10.06q5.22-.87,6.88-1a2.94,2.94,0,0,1,2.26.49,5.35,5.35,0,0,1,1,2.42l9.42,40.78a5.28,5.28,0,0,1,.15,2.61c-.18.53-.78,1-1.81,1.44s-3.23,1.14-6.61,2.14l2.33,10.06,12.63-2.91,13.59-3.15h0l35.75-8.26Z"/><path class="cls-1" d="M879.11,1025.35a27,27,0,0,1-2.31,6.42,31.79,31.79,0,0,1-4.3,6.38,25.62,25.62,0,0,1-6.76,5.52,22.36,22.36,0,0,1-10.25,3.35,14.82,14.82,0,0,1-9.1-2.65q-4.27-2.85-8-9.31a35.5,35.5,0,0,1-4.57-11.58,16.74,16.74,0,0,1,.69-9.3,12.45,12.45,0,0,1,5.42-6.2,10.67,10.67,0,0,1,5.68-1.58,12.23,12.23,0,0,1,6,1.93,52.24,52.24,0,0,1,7.29,5.55l11.21-6.52-14.41-24.78-11,6.4,1.7,9.69a13.73,13.73,0,0,0-5-3,11.9,11.9,0,0,0-5.83-.42,19.26,19.26,0,0,0-6.4,2.45,27,27,0,0,0-10.75,11.33,30.05,30.05,0,0,0-2.8,16.49,45.88,45.88,0,0,0,6.46,19q6.24,10.74,13.92,15.86a27.38,27.38,0,0,0,16.53,4.82q8.84-.32,18.43-5.89a32.16,32.16,0,0,0,10.46-9.32,19.4,19.4,0,0,0,3.69-11.8q-.13-6.35-5.2-12.67Z"/><path class="cls-1" d="M970.91,962.81l-.55.05a4.62,4.62,0,0,1-.65,1.82,7.5,7.5,0,0,1-1.42,1.63,6.1,6.1,0,0,1-2.22,1.31,5.73,5.73,0,0,1-2.84,0,23,23,0,0,1-4.27-1.41,31.23,31.23,0,0,0-8.35-2.21,21.49,21.49,0,0,0-8.09.57,16.84,16.84,0,0,0-3,1.15,38.29,38.29,0,0,0,7.09-8.85,17,17,0,0,0,2.25-10.29q-.6-5.13-5.11-10.22a18.28,18.28,0,0,0-9.41-6,17.5,17.5,0,0,0-10.93,1.26A46.91,46.91,0,0,0,911,940l-11,9.78h0l-2.77,2.46-1.34,1.19h0L889.51,959l-9.69,8.61,6.85,7.72q4.17-3.26,5.58-4.14a3,3,0,0,1,2.22-.65,5.39,5.39,0,0,1,2,1.64l27.79,31.29a5.42,5.42,0,0,1,1.39,2.23,3,3,0,0,1-.91,2.12q-1,1.31-4.77,5.05l6.85,7.72,9.7-8.61,7.88-7,9.61-8.53-6.85-7.72c-2.78,2.16-4.64,3.55-5.58,4.14a3,3,0,0,1-2.22.65,5.5,5.5,0,0,1-2-1.64l-10.87-12.24,3.45-3.07a8.24,8.24,0,0,1,10.39-1.36,69.81,69.81,0,0,1,6.1,4,17.22,17.22,0,0,0,2.34,1.89c.88.6,1.71,1.18,2.51,1.75a36.38,36.38,0,0,0,7.86,3.81,11.44,11.44,0,0,0,6.25.33,13.75,13.75,0,0,0,5.75-3.28,13,13,0,0,0,4.38-6.9,12.51,12.51,0,0,0-.53-7.38A21.6,21.6,0,0,0,970.91,962.81ZM908.18,959l9.53-8.46a15.62,15.62,0,0,1,4.82-3.1,7.42,7.42,0,0,1,4.3-.37,7.85,7.85,0,0,1,3.93,2.61,7.39,7.39,0,0,1,2,4.32,7.84,7.84,0,0,1-1,4.45,17.75,17.75,0,0,1-3.77,4.45L918.83,971Z"/><path class="cls-1" d="M1021,877.43l-7.12,9.49q6.06,6.2,8.05,8.3a9.15,9.15,0,0,1,2.19,2.95,2.47,2.47,0,0,1-.66,2l-11.6,15.47L997.79,905l10.37-12.82-11.51-8.63-9.34,13.59-12.06-9,11.4-15.21a2.08,2.08,0,0,1,1.66-1,11.76,11.76,0,0,1,3.44,1.28q2.58,1.25,9.58,5.26l7.32-9.76L987,851.77l-21.68,28.91,0,0-8.37,11.16-7.74,10.4,8.26,6.2c2.29-2.68,3.84-4.41,4.64-5.17a3,3,0,0,1,2-1.08,5.31,5.31,0,0,1,2.33,1.19l33.49,25.11a5.36,5.36,0,0,1,1.8,1.91,2.91,2.91,0,0,1-.46,2.26c-.52,1-1.74,3-3.67,5.9l8.26,6.19,7.78-10.37,8.37-11.16h0l22-29.35Z"/><path class="cls-1" d="M1088.06,788.07a1.24,1.24,0,0,0-.1.2,11.44,11.44,0,0,1-2.52,2.75,6.91,6.91,0,0,1-3.67.82c-1.72,0-4.48-.12-8.29-.47l-52.07-4-7.95,16.78,36,38.05a.29.29,0,0,0,.15.2l.2.09q4.11,4.14,5.48,5.88a6.11,6.11,0,0,1,1.47,3.19,12.7,12.7,0,0,1-.68,4.12l9.33,4.42,13.08-27.6-9.14-4.33a26.73,26.73,0,0,1-2.9,4.46c-.8.92-1.53,1.3-2.19,1.15a6.6,6.6,0,0,1-2.59-1.71l-3.75-3.61,9.28-19.61,5.29.63a8.8,8.8,0,0,1,3,.82c.5.32.64,1.08.44,2.28a28.62,28.62,0,0,1-1.75,5.36l9.13,4.33,14.25-30.08-9.33-4.42A3.27,3.27,0,0,0,1088.06,788.07Zm-38.88,32-6.47-6.23-9.7-9.27,13.32,1.75,8.86,1.06Z"/><path class="cls-1" d="M1120.53,661.15q-1.4,5-2,6.59c-.42,1.08-.88,1.69-1.4,1.84a6,6,0,0,1-2.61-.16l-40.94-8.67a6.08,6.08,0,0,1-2.45-.91c-.41-.35-.59-1.1-.53-2.25s.33-3.43.83-6.84l-10.1-2.14-2.67,12.58-.07.32h0l-1.5,7.11-1.34,6.32h0l-1,4.84L1089,703.45l-40.86,7.17-6.28,29.66,10.1,2.14c1.2-3.28,2.26-5.94,3.21-8.08l44.67,9.46a3.43,3.43,0,0,1,1.76.71,3.49,3.49,0,0,1,.28,2.14c-.06,1.15-.32,3.21-.8,6.17l10.1,2.14,6.53-30.84-10.1-2.14q-1.12,4.24-1.78,6a4.71,4.71,0,0,1-1.18,2.11,2.72,2.72,0,0,1-1.92,0L1069.1,723l51-10,.52-2.47L1078,679.65l32.9,7a5.35,5.35,0,0,1,2.44,1,3,3,0,0,1,.53,2.25q-.08,1.67-.84,6.89l10.1,2.14,2.69-12.68,2.18-10.32,2.66-12.57Z"/><path class="cls-1" d="M598.36-2.09c-330.84,0-600,269.16-600,600s269.16,600,600,600,600-269.16,600-600S929.2-2.09,598.36-2.09Zm0,1166.2c-312.2,0-566.2-254-566.2-566.2s254-566.2,566.2-566.2,566.2,254,566.2,566.2S910.56,1164.11,598.36,1164.11Z"/></svg>