<svg id="Layer_1" data-name="Layer 1" xmlns="http://www.w3.org/2000/svg" viewBox="0 0 500 500"><defs><style>.cls-1,.cls-3,.cls-4{fill:#29783b;}.cls-2{fill:none;}.cls-3{stroke:#55a3a5;}.cls-3,.cls-4{stroke-miterlimit:10;stroke-width:1.51px;}.cls-4{stroke:#29783b;}.cls-5{fill:#fff;}</style></defs><path class="cls-1" d="M76.61,397.17a11.14,11.14,0,0,1,5.11-3,12.36,12.36,0,0,1,4.7-.19,11.23,11.23,0,0,1,6.3,3.78l8.71,9.22L84.35,423.09,77.64,416a25.35,25.35,0,0,1-2.42-2.91,15.82,15.82,0,0,1-1.47-2.49,10.68,10.68,0,0,1-.79-2.19,10.37,10.37,0,0,1-.28-1.91,11.06,11.06,0,0,1,.24-3.13,11.68,11.68,0,0,1,1.27-3.18A13,13,0,0,1,76.61,397.17Zm4.72,5.45a7.78,7.78,0,0,0-2.49,3.86,5.32,5.32,0,0,0,.24,3.38,9.39,9.39,0,0,0,1.75,2.65l2.08,2.2L93,405.15,91,403a8.66,8.66,0,0,0-4.26-2.59C85.11,400,83.33,400.73,81.33,402.62Z"/><path class="cls-1" d="M68.32,366.53l10.15,14.52L59.22,394.52l-10-14.28,3.86-2.7L59,386l3.53-2.47-5.66-8.08,3.88-2.71,5.65,8.08L70.54,378l-6.1-8.72Z"/><path class="cls-1" d="M51.57,339.25a16,16,0,0,1,2.44,2.1,19.13,19.13,0,0,1,2,2.45,25.71,25.71,0,0,1,1.63,2.78,16.76,16.76,0,0,1,1.74,5.28,12,12,0,0,1-.32,4.9,10.68,10.68,0,0,1-2.23,4.14,13,13,0,0,1-3.93,3,12.62,12.62,0,0,1-5.21,1.48,10.32,10.32,0,0,1-4.72-.91A12.58,12.58,0,0,1,39,361.63a17.46,17.46,0,0,1-3-4.21,28,28,0,0,1-2.53-8.9l5.56-2.82a25.41,25.41,0,0,0,0,3.89,10.41,10.41,0,0,0,1.17,3.9,9.1,9.1,0,0,0,2.46,3.05,7.17,7.17,0,0,0,3.37,1.5,6.18,6.18,0,0,0,6.12-3,6.75,6.75,0,0,0,.9-3.41,8.14,8.14,0,0,0-.94-3.79,12.23,12.23,0,0,0-1.84-2.7,14.43,14.43,0,0,0-2-1.87,24.1,24.1,0,0,0-2-1.37Z"/><path class="cls-1" d="M41.27,304.93l2.7,8.22-7.65,12,10.45-3.44L49,328.42l-22.33,7.33L24.45,329l10-3.28-12.64-4.81-2.4-7.31,13.18,4.88Z"/><path class="cls-1" d="M36.4,278.42l3,17.46-23.15,4-3-17.18,4.64-.8L19.7,292.1l4.25-.73-1.69-9.73,4.66-.8,1.69,9.72,4.94-.85-1.81-10.48Z"/><path class="cls-1" d="M34.61,244.85l.22,7.61-4.11,2a17.84,17.84,0,0,0-3.3,1.93A4,4,0,0,0,26.11,258a5.79,5.79,0,0,0-.24,2l0,.8,9.16-.26.21,7.08-23.49.68-.35-12a8.85,8.85,0,0,1,1.05-4.81,7.08,7.08,0,0,1,2.8-2.77,7.45,7.45,0,0,1,3.2-.92,6.2,6.2,0,0,1,3,.6,5.49,5.49,0,0,1,1.83,1.4,14.82,14.82,0,0,1,1.11,1.68A6.83,6.83,0,0,1,26,249.48a19.54,19.54,0,0,1,3.61-2.11ZM18.82,254.94a2.44,2.44,0,0,0-2.24,1.13,7,7,0,0,0-.54,3.49l0,1.5,5.66-.17,0-1.53a7.63,7.63,0,0,0-.67-3.53A2.3,2.3,0,0,0,18.82,254.94Z"/><path class="cls-1" d="M30.36,218.4A6.53,6.53,0,0,1,34,219.94a7.14,7.14,0,0,1,2.1,3.4,11.75,11.75,0,0,1,.35,4.69c-.06.48-.15,1.07-.29,1.77a20.55,20.55,0,0,1-.83,2.74A21.77,21.77,0,0,1,33.72,236L28,235.4a25.75,25.75,0,0,0,2.2-3.28,9.28,9.28,0,0,0,1.13-3.58,3.22,3.22,0,0,0-.34-2.4,1.76,1.76,0,0,0-1.06-.66,1.92,1.92,0,0,0-1.69.73,13.16,13.16,0,0,0-1.64,2.5,21.42,21.42,0,0,1-2.13,3.18,7.81,7.81,0,0,1-2.65,2.1,6.17,6.17,0,0,1-3.49.55,6.28,6.28,0,0,1-5.43-4.41,10.77,10.77,0,0,1-.39-4.75,16.42,16.42,0,0,1,.77-3.57,15.87,15.87,0,0,1,1.16-2.65,10.91,10.91,0,0,1,.9-1.4l5.48.61a19.22,19.22,0,0,0-2.19,3A8.81,8.81,0,0,0,17.4,225a2.93,2.93,0,0,0,.29,2,1.58,1.58,0,0,0,2.44.27,11.06,11.06,0,0,0,1.47-2,41.2,41.2,0,0,1,2.75-4.07A8.47,8.47,0,0,1,27,219,5.61,5.61,0,0,1,30.36,218.4Z"/><path class="cls-1" d="M48.05,171.44a16.69,16.69,0,0,1,.2,3.22,18,18,0,0,1-.36,3.12,23.2,23.2,0,0,1-.84,3.11,16.54,16.54,0,0,1-2.55,4.94A11.83,11.83,0,0,1,40.78,189a10.53,10.53,0,0,1-4.51,1.31,12.8,12.8,0,0,1-4.89-.71A12.53,12.53,0,0,1,26.67,187,10.28,10.28,0,0,1,24,183a12.63,12.63,0,0,1-.74-4.79,17.76,17.76,0,0,1,.94-5.06,27.49,27.49,0,0,1,4.58-8l5.91,2a25,25,0,0,0-2.81,2.69,10.14,10.14,0,0,0-2,3.57,9,9,0,0,0-.45,3.89,7,7,0,0,0,1.29,3.46A6.17,6.17,0,0,0,37.17,183a6.7,6.7,0,0,0,3.08-1.75,8.24,8.24,0,0,0,2-3.33,12,12,0,0,0,.64-3.2,14.07,14.07,0,0,0-.06-2.73c-.1-.76-.25-1.57-.45-2.42Z"/><path class="cls-1" d="M64.41,141.74l-3.47,6.78-4.56-.26a17.49,17.49,0,0,0-3.81.1,4,4,0,0,0-1.94.79,5.59,5.59,0,0,0-1.17,1.64l-.36.71,8.16,4.18L54,162,33.12,151.26l5.5-10.72a8.76,8.76,0,0,1,3.24-3.71,7.05,7.05,0,0,1,3.79-1.08,7.37,7.37,0,0,1,3.24.74,6.11,6.11,0,0,1,2.36,2,5.61,5.61,0,0,1,.93,2.11,13.83,13.83,0,0,1,.17,2,6.83,6.83,0,0,1,2.25-1,19.61,19.61,0,0,1,4.18-.11ZM45.71,143a2.42,2.42,0,0,0-2.51-.09,7.17,7.17,0,0,0-2.16,2.8L40.36,147l5,2.58.7-1.36a7.71,7.71,0,0,0,1.12-3.42A2.32,2.32,0,0,0,45.71,143Z"/><path class="cls-1" d="M79.78,119.44,69.53,133.9,50.36,120.32,60.43,106.1l3.85,2.72-6,8.44,3.52,2.49,5.7-8,3.86,2.73-5.7,8,4.09,2.9,6.15-8.67Z"/><path class="cls-1" d="M98.8,98.07,86.72,111,69.53,95,81.41,82.26l3.45,3.21-7,7.57L81,96l6.72-7.22L91.14,92,84.42,99.2l3.67,3.42,7.25-7.77Z"/><path class="cls-1" d="M126,75.11l-6.75,5.4-13.89-3,6.88,8.58-5.54,4.44L92,72.23l5.53-4.44L104.14,76l.07-13.53,6-4.81.06,14.06Z"/><path class="cls-1" d="M161,35.9l-7.78,3.69,7.63,16.07-6.39,3-7.62-16.07-7.78,3.7-2.45-5.16,21.94-10.42Z"/><path class="cls-1" d="M200,41.87l-7.29,2.2-3-3.46A17.33,17.33,0,0,0,187,37.93a4,4,0,0,0-1.91-.84,5.57,5.57,0,0,0-2,.29l-.76.23L185,46.39l-6.79,2-6.78-22.49L183,22.46a8.67,8.67,0,0,1,4.92-.24,7,7,0,0,1,3.41,2A7.32,7.32,0,0,1,193,27a6,6,0,0,1,.22,3.08,5.58,5.58,0,0,1-.88,2.13A12.91,12.91,0,0,1,191,33.77a7.15,7.15,0,0,1,2.25,1,20.06,20.06,0,0,1,3,2.94ZM186.15,29.26a2.45,2.45,0,0,0-1.68-1.87,7,7,0,0,0-3.51.39l-1.43.43,1.63,5.42,1.46-.44a7.6,7.6,0,0,0,3.24-1.57A2.32,2.32,0,0,0,186.15,29.26Z"/><path class="cls-1" d="M234.67,36.48l-7.19,1L224.94,33l-10.11,1.39-1.29,5-7.19,1,7.11-24.69,7.76-1.07Zm-11.9-7.3-4.57-8-2.28,9Z"/><path class="cls-1" d="M251.18,36.43l-7.09.06L243.9,13l7.09-.05Z"/><path class="cls-1" d="M281.17,38.6l-17.76-1.84,2.41-23.37,7.05.73L271,31.89,281.75,33Z"/><path class="cls-1" d="M240.53,488.06l-7.34-.69.91-9.53L223,476.78l-.91,9.53-7.36-.7,2.32-24.41,7.37.7-.86,9,11.08,1.05.85-9,7.35.69Z"/><path class="cls-1" d="M279.65,486.51l-7.56.48-2.3-4.84-10.63.66-1.72,5.09-7.56.47,9.29-25.15,8.16-.51ZM267.83,478l-4.15-8.71-3.06,9.16Z"/><path class="cls-1" d="M306.77,481.22,288.5,484.9l-4.84-24,7.25-1.46,3.68,18.28,11-2.22Z"/><path class="cls-1" d="M329.74,463.72l-9.67,3.17,3.09,9.43-7,2.3-7.63-23.3,16.7-5.47,1.53,4.68-9.67,3.16,1.48,4.51L328.2,459Z"/><path class="cls-1" d="M381.67,448.68l-6.4,3.7-7.11-12.3-1.66,10.46-.5.29-9.91-3.78,7.11,12.3L357,463l-12.27-21.23,5.81-3.36,11.13,4.2,2-11.76,5.8-3.35Z"/><path class="cls-1" d="M412.52,424.43l-5.85,4.8-4.7-2.57-8.23,6.75,1.58,5.14-5.86,4.8-7.17-25.83,6.32-5.19Zm-14.57,0-8.45-4.64,2.87,9.22Z"/><path class="cls-1" d="M434.92,400.31l-5.35,5.88-4.51-1.51a18.19,18.19,0,0,0-3.87-.93A4.06,4.06,0,0,0,419,404a5.78,5.78,0,0,0-1.63,1.33l-.56.62,7.08,6.43-5,5.48-18.15-16.5,8.46-9.31a9.21,9.21,0,0,1,4.28-2.86,7.47,7.47,0,0,1,4.11,0,7.76,7.76,0,0,1,3.06,1.63,6.46,6.46,0,0,1,1.85,2.64,5.94,5.94,0,0,1,.36,2.38,15.75,15.75,0,0,1-.38,2.07,7.09,7.09,0,0,1,2.53-.35,21,21,0,0,1,4.24,1Zm-19.17-3.85a2.55,2.55,0,0,0-2.51-.77,7.29,7.29,0,0,0-2.93,2.23l-1.05,1.16,4.37,4,1.07-1.18a8,8,0,0,0,2.06-3.14A2.44,2.44,0,0,0,415.75,396.46Z"/><path class="cls-1" d="M455.59,370.65l-4.23,6.28-5.24-1.12-5.95,8.83,3,4.47-4.23,6.28-14.27-22.7,4.56-6.77Zm-14,4.19-9.43-2,5.4,8Z"/><path class="cls-1" d="M451.92,336.64l-4,8.05L464.5,353l-3.29,6.6-16.6-8.3-4,8.05-5.34-2.67L446.59,334Z"/><path class="cls-1" d="M480.42,310.79l-2.27,7L469,314.86l-3.43,10.58,9.11,2.95-2.28,7-23.33-7.56,2.28-7,8.57,2.78L463.39,313l-8.57-2.77,2.28-7Z"/><path class="cls-1" d="M475.18,271.1a12.93,12.93,0,0,1,6,2.55A11.43,11.43,0,0,1,485,279a15.77,15.77,0,0,1,.49,7.79,15.49,15.49,0,0,1-2.95,7.33,11.49,11.49,0,0,1-5.32,3.9,13,13,0,0,1-6.34.55,13.12,13.12,0,0,1-5.87-2.47,11.35,11.35,0,0,1-3.85-5.34,15.67,15.67,0,0,1-.54-7.89,17,17,0,0,1,1.94-5.83,12.21,12.21,0,0,1,3.38-3.89,11.5,11.5,0,0,1,4.37-1.95A13.48,13.48,0,0,1,475.18,271.1ZM474,278.54a7.51,7.51,0,0,0-2.55,0,5.29,5.29,0,0,0-2.15.91,5.65,5.65,0,0,0-1.61,1.78,7.42,7.42,0,0,0-.89,2.63,6.3,6.3,0,1,0,12.43,2,7,7,0,0,0-.26-3.55,5.35,5.35,0,0,0-1.86-2.5A7.15,7.15,0,0,0,474,278.54Z"/><path class="cls-1" d="M488,236.25v6.58l-13.64,12.74,13.66,0v7.32l-24.52,0v-6.57l13.57-12.7-13.59,0v-7.38Z"/><circle class="cls-2" cx="250" cy="250" r="244.57"/><path class="cls-1" d="M451.15,189.36a210.07,210.07,0,0,1,8.9,60.64c0,1.26,0,2.51,0,3.76"/><path class="cls-1" d="M345.9,63.07A209.14,209.14,0,0,0,250,40c-110.59,0-201.23,85.47-209.45,194l14.93-60.42a29.78,29.78,0,0,0,5.72-2.44,204.77,204.77,0,0,1,279-104.77"/><path class="cls-1" d="M460,253.76l-11.25,64.33A209.7,209.7,0,0,0,460,253.76Z"/><path class="cls-1" d="M44.5,293.65,40,255.78A210.66,210.66,0,0,0,44.5,293.65Z"/><path class="cls-1" d="M74.07,364.79c.76,1.16,1.53,2.31,2.31,3.46l1.83-4.68Z"/><path class="cls-1" d="M75,356.09q-3.84-6.33-7.24-12.95Q71.17,349.76,75,356.09Z"/><path class="cls-1" d="M65.58,338.7q-2.16-4.47-4.1-9.06Q63.42,334.23,65.58,338.7Z"/><path class="cls-1" d="M95.29,383.89q-4.82-5.56-9.24-11.48Q90.46,378.32,95.29,383.89Z"/><path class="cls-1" d="M203.79,449.36q-4.95-1.14-9.8-2.52Q198.85,448.22,203.79,449.36Z"/><path class="cls-1" d="M95.29,383.89a204.61,204.61,0,0,0,20.82,20.82A204.61,204.61,0,0,1,95.29,383.89Z"/><path class="cls-1" d="M156.86,432.22a205.16,205.16,0,0,1-21.25-12.56A205.16,205.16,0,0,0,156.86,432.22Z"/><path class="cls-1" d="M194,446.84q-4.86-1.38-9.61-3Q189.14,445.46,194,446.84Z"/><path class="cls-1" d="M135.61,419.66q-6.12-4.14-11.93-8.7Q129.48,415.52,135.61,419.66Z"/><path class="cls-1" d="M165.8,436.52q-4.53-2-8.94-4.3Q161.27,434.47,165.8,436.52Z"/><path class="cls-1" d="M179.65,442.18c-3.13-1.14-6.23-2.37-9.29-3.66C173.42,439.81,176.52,441,179.65,442.18Z"/><path class="cls-2" d="M468.15,250.75c0,120.07-97.33,217.4-217.4,217.4S33.36,370.82,33.36,250.75,130.69,33.36,250.75,33.36"/><path class="cls-1" d="M217.56,457.36a221.51,221.51,0,0,1-48.34-17.9s-.59-.75-1.63-2.15l-1.79-.79q-4.53-2-8.94-4.3a205.16,205.16,0,0,1-21.25-12.56q-6.12-4.14-11.93-8.7-3.86-3-7.57-6.25a204.61,204.61,0,0,1-20.82-20.82q-4.82-5.56-9.24-11.48-5.89-7.87-11-16.32-3.84-6.33-7.24-12.95-1.12-2.2-2.2-4.44-2.16-4.47-4.1-9.06a205.2,205.2,0,0,1-.28-158.59,29.78,29.78,0,0,1-5.72,2.44L40.55,233.91q-.6,8-.6,16.09c0,1.93,0,3.86.08,5.78l4.47,37.87a209,209,0,0,0,29.57,71.14l4.14-1.22-1.83,4.68A209.82,209.82,0,0,0,250,460.05q9.51,0,18.8-.84-8.93.77-18,.78A210.09,210.09,0,0,1,217.56,457.36Z"/><path class="cls-1" d="M272.6,458.84l-1.77.19Z"/><path class="cls-1" d="M451.15,189.36l-11-15a204.79,204.79,0,0,1-62.49,235.51l1.41.38s-11,12.79-31.3,25.69a210.7,210.7,0,0,0,101-117.85L460,253.76c0-1.25,0-2.5,0-3.76A210.07,210.07,0,0,0,451.15,189.36Z"/><path class="cls-1" d="M345.73,437.24c.71-.43,1.37-.86,2-1.3a208.3,208.3,0,0,1-75.18,22.9A207.8,207.8,0,0,0,345.73,437.24Z"/><path class="cls-1" d="M317.68,443.12l-2.74.95Z"/><path class="cls-1" d="M313.44,444.56c-1.79.58-3.58,1.13-5.38,1.67Q310.76,445.43,313.44,444.56Z"/><path class="cls-1" d="M326.32,439.88l-2.8,1.1Z"/><path class="cls-1" d="M306.47,446.7l-2.42.67Z"/><path class="cls-1" d="M292.6,450.14l-2.19.46Z"/><path class="cls-1" d="M297.3,449.09l-2.28.53Z"/><path class="cls-1" d="M301.91,448l-2.33.59Z"/><path class="cls-1" d="M353.26,426.65c-1.06.62-2.13,1.23-3.2,1.84C351.13,427.88,352.2,427.27,353.26,426.65Z"/><path class="cls-1" d="M374.25,412.54c-1.07.82-2.15,1.63-3.23,2.43C372.1,414.17,373.18,413.36,374.25,412.54Z"/><path class="cls-1" d="M371,415a203.65,203.65,0,0,1-17.28,11.39A203.65,203.65,0,0,0,371,415Z"/><path class="cls-1" d="M330.58,438.11c-1,.42-2,.83-3,1.23C328.61,438.94,329.6,438.53,330.58,438.11Z"/><path class="cls-1" d="M377.67,409.87c-1.06.85-2.13,1.68-3.2,2.51C375.54,411.55,376.61,410.72,377.67,409.87Z"/><path class="cls-1" d="M345.63,430.91q-7,3.69-14.26,6.85Q338.65,434.61,345.63,430.91Z"/><path class="cls-1" d="M349.4,428.85c-1,.59-2.12,1.17-3.19,1.75C347.28,430,348.35,429.44,349.4,428.85Z"/><path class="cls-1" d="M287.76,451.11l-2,.37Z"/><path class="cls-1" d="M322,441.55l-2.73,1Z"/><path class="cls-1" d="M237,243.21l38.86-7.53c-7.89-7.18-12.49-10.21-23-17.84a7.92,7.92,0,0,1,5.38-3.16c-.69-.81.35-2,1.35-2.3s2.27-.51,2.67-1.49a2.73,2.73,0,0,0,.11-1.14l-.22-5.86,2.15-.16c-.24-3.06-.49-6.12-.73-9.17a3.35,3.35,0,0,1,.27-2.06c.36-.6,1.32-.88,1.77-.35a59.77,59.77,0,0,1,2.31-14.55,77.13,77.13,0,0,1-12.3,11.66,5,5,0,0,0-1.65,1.73,1.62,1.62,0,0,0,.53,2.11c-1.43,2.81-5.72,3.34-6.85,6.29-.21.55-.29,1.14-.54,1.68-.89,2-3.46,2.32-5.61,2.42l4.26,5.82a7.1,7.1,0,0,1,1.38,2.58,2.68,2.68,0,0,1-.28,1.84,176.44,176.44,0,0,0-23.92-13c.42-1.14.84-2.28,1.25-3.42a9.67,9.67,0,0,0,4.49-.59,6.7,6.7,0,0,1-.25-3.54,2.34,2.34,0,0,1,2.69-1.76c.71.23,1.32.94,2.06.81.94-.18,1.09-1.45,1-2.41l-1.23-14.12a1.64,1.64,0,0,0,1.94,0,70.38,70.38,0,0,0-.38-16.85,9.44,9.44,0,0,1-2.76,3.87,101,101,0,0,0-8.46,9.67,2.6,2.6,0,0,0-.59,1.14c-.13.93.74,1.77.64,2.7a2.66,2.66,0,0,1-.89,1.43,37.56,37.56,0,0,1-5,4.12,3.43,3.43,0,0,0-1.53,1.67,6.82,6.82,0,0,0,0,1.63c0,2.69-3.07,4.16-5.63,5a14.57,14.57,0,0,0,7.85,3.77,9.6,9.6,0,0,0-1.49,4.18c-5.43-2.26-11.36-4.51-17.9-6.72l-.17-2.36,5.35-.46a37.68,37.68,0,0,1-1.59-16.22,62.08,62.08,0,0,1,3.18-14.57C204,162,197.33,164,198,168.48a9.66,9.66,0,0,0-5.94,5.11q-1.53-3.72-3.08-7.42c.83.24,1.62-.68,1.62-1.54a4.92,4.92,0,0,0-.93-2.39,20.37,20.37,0,0,1-2.51-13,16.56,16.56,0,0,1-8.65,10.52c-1.49.72-3.14,1.25-4.3,2.43s-1.55,3.35-.29,4.42a10.16,10.16,0,0,0-6.82,9.62,13.43,13.43,0,0,1-9.57-12.84l-9,9.49-4.35-7.69c-.54-1-.5-2.79.57-2.52-.1-1.68-1.72-2.77-2.81-4s-1.39-3.75.22-4.2A12.08,12.08,0,0,1,138.5,145q-3.18,3.87-6.35,7.75a4.17,4.17,0,0,0-1.24,2.53c0,.93.68,1.78.63,2.72-.14,2.87-6.13,3.39-5.14,6.09.44,1.2,2.17,1.56,2.55,2.78l-9.48,4.44c-2.76,1.29-6,3.71-5,6.57a78.55,78.55,0,0,1-8.22-12l-4.43.43a12.1,12.1,0,0,1-4.12-6.12,14.77,14.77,0,0,1-.53-3.8c-.06-3.85.89-8.25-1.66-11.12a29.24,29.24,0,0,1-7,10.1,12.75,12.75,0,0,0-3.2,3.68c-.68,1.49-.44,3.56,1,4.35-1.75,1.16-3.57,2.4-4.56,4.26s-.8,4.51,1,5.66a48.93,48.93,0,0,0-5.82,8.25c2,.76,2.55,3.49,1.69,5.44s-2.67,3.27-4.41,4.49l-3.44-5.13c-.76-1.12-1-3.31.39-3.19-3.13-.5-3.68-4.72-3.45-7.88l.75-10.24c-.64-.71-1.74.17-2.24,1a12.78,12.78,0,0,1-5,5,205.2,205.2,0,0,0,.28,158.59q1.94,4.59,4.1,9.06,1.08,2.24,2.2,4.44,3.39,6.62,7.24,12.95,5.13,8.45,11,16.32,4.41,5.91,9.24,11.48a204.61,204.61,0,0,0,20.82,20.82q3.7,3.21,7.57,6.25,5.8,4.56,11.93,8.7a205.16,205.16,0,0,0,21.25,12.56q4.41,2.25,8.94,4.3c1.51.69,3,1.35,4.56,2-.93-.39-1.85-.81-2.77-1.21C153.67,418.46,59.44,276.93,237,243.21Z"/><path class="cls-1" d="M256.55,454.48l-1.62.06Z"/><path class="cls-1" d="M276.41,452.91l-1.72.2Z"/><path class="cls-1" d="M266.71,453.92l-2,.14Z"/><path class="cls-1" d="M271.59,453.47l-1.92.18Z"/><path class="cls-1" d="M282.21,452.07l-1.35.21Z"/><path class="cls-1" d="M261.73,454.26l-1.89.1Z"/><path class="cls-1" d="M279.84,239.58c-43.35,13.89-224.72,83.9,97.83,170.29a204.79,204.79,0,0,0,62.49-235.51l-6-8.15L390.4,204,284.81,238.38"/><path class="cls-1" d="M259.84,454.36c-1.09.05-2.19.09-3.29.12C257.65,454.45,258.75,454.41,259.84,454.36Z"/><path class="cls-1" d="M346.21,430.6l-.58.31Z"/><path class="cls-1" d="M331.37,437.76l-.79.35Z"/><path class="cls-1" d="M254.93,454.54c-1.64,0-3.28.06-4.93.06C251.65,454.6,253.29,454.57,254.93,454.54Z"/><path class="cls-1" d="M374.47,412.38l-.22.16Z"/><polygon class="cls-1" points="377.67 409.87 377.67 409.87 377.67 409.87 377.67 409.87"/><path class="cls-1" d="M371,415l-.06,0Z"/><path class="cls-1" d="M353.68,426.4l-.42.25Z"/><path class="cls-1" d="M350.06,428.49l-.66.36Z"/><path class="cls-1" d="M269.67,453.65c-1,.1-2,.19-3,.27C267.7,453.84,268.68,453.75,269.67,453.65Z"/><path class="cls-1" d="M299.58,448.54l-2.28.55Z"/><path class="cls-1" d="M327.62,439.34l-1.3.54Z"/><path class="cls-1" d="M295,449.62l-2.42.52Z"/><path class="cls-1" d="M290.41,450.6c-.88.18-1.76.34-2.65.51C288.65,450.94,289.53,450.78,290.41,450.6Z"/><path class="cls-1" d="M304.05,447.37l-2.14.58Z"/><path class="cls-1" d="M280.86,452.28c-1.48.23-3,.43-4.45.63C277.9,452.71,279.38,452.51,280.86,452.28Z"/><path class="cls-1" d="M274.69,453.11c-1,.12-2.06.25-3.1.36C272.63,453.36,273.66,453.23,274.69,453.11Z"/><path class="cls-1" d="M308.06,446.23l-1.59.47Z"/><path class="cls-1" d="M323.52,441l-1.51.57Z"/><path class="cls-1" d="M319.28,442.56l-1.6.56Z"/><path class="cls-1" d="M264.75,454.06c-1,.08-2,.14-3,.2C262.74,454.2,263.75,454.14,264.75,454.06Z"/><path class="cls-1" d="M314.94,444.07l-1.5.49Z"/><path class="cls-1" d="M285.75,451.48c-1.17.21-2.35.4-3.54.59C283.4,451.88,284.58,451.69,285.75,451.48Z"/><path class="cls-1" d="M270.83,459l-2,.18C269.48,459.16,270.15,459.09,270.83,459Z"/><path class="cls-1" d="M379.08,410.25l-1.41-.38a205,205,0,0,1-173.88,39.49q-4.95-1.14-9.8-2.52t-9.61-3c-1.59-.54-3.16-1.09-4.73-1.67-3.13-1.14-6.23-2.37-9.29-3.66-.93-.39-1.85-.81-2.77-1.21,1,1.4,1.63,2.15,1.63,2.15a221.51,221.51,0,0,0,48.34,17.9,210.09,210.09,0,0,0,33.2,2.63q9.12,0,18-.78l2-.18,1.77-.19a208.3,208.3,0,0,0,75.18-22.9C368.09,423,379.08,410.25,379.08,410.25Z"/><path class="cls-2" d="M47,250c0,112.56,91.25,203.8,203.8,203.8S454.56,362.56,454.56,250a202.9,202.9,0,0,0-24.31-96.62L350,72A202.85,202.85,0,0,0,250.75,46.2C138.2,46.2,47,137.44,47,250Z"/><path class="cls-1" d="M466.28,124.52a251.24,251.24,0,0,0-71.34-78.24m0,0A248.85,248.85,0,0,0,250,0C111.93,0,0,111.93,0,250S111.93,500,250,500,500,388.07,500,250a248.89,248.89,0,0,0-33.72-125.48m-73.81-72a243.18,243.18,0,0,1,101,197.5c0,134.48-109,243.51-243.51,243.51S6.49,384.48,6.49,250,115.51,6.49,250,6.49a242.39,242.39,0,0,1,142.47,46"/><path class="cls-3" d="M396.4,90.69l-.11.71a.94.94,0,0,1,.06-.15Z"/><path class="cls-4" d="M440.42,160.41c1.16-2.22,6.82-10.64,7.75-13,.2-.5.37-1,.56-1.51a11.49,11.49,0,0,1,3,2.38,67.23,67.23,0,0,0,6,5.43c1.77,1.4,3.71,2.76,5.95,3,2.75.33,5.37-1.05,8-2,5.8-2.1,4.66-.57,10.45,1.53-1.16-3.58-7.17-9-10.44-10.88-3.91-2.23-1.18-2.21-5.64-2.89-3.71-.56-2.4-1.14-6-2.15a29.89,29.89,0,0,0-9.25-.77,59.68,59.68,0,0,0,1.49-7.53,54.4,54.4,0,0,0,.43-8.1c0-.69,0-1.36-.1-2.06l-.16-1.94-.31-3.5-.34-3.68-.13-1.23,2.09,4c3.3-.57,6.61.63,9.78,1.68a56,56,0,0,0,15.1,3.1c-2-3.57-5.69-5.72-9.19-7.81A55,55,0,0,1,458,104.1a31,31,0,0,0-3.25-3.13,12.58,12.58,0,0,0-5.56-2.24l-.42-1.38c-.41-1.24-.7-2.53-1.23-3.74L446.05,90l-.76-1.82-.91-1.74c-.18-.34-.37-.68-.56-1,8.58-1.21,17.2-2,25.85-2.45,2.51-.11,5.36-.06,7.08,1.77-2.22-4.39-4.66-9-8.92-11.48a18.21,18.21,0,0,0-5.66-2,14.34,14.34,0,0,0-6.15-.09,25.24,25.24,0,0,0-4.08,1.65,33.82,33.82,0,0,1-14.23,2.89,71.54,71.54,0,0,0-9-9.94,57.58,57.58,0,0,0,10.94-4.84q10.58-5.69,20.59-12.38c-4.5-1.76-9.52-3.31-14.08-1.7-2.95,1-5.33,3.29-8.22,4.51-4,1.69-8.63,1.22-12.88,2.26a18.39,18.39,0,0,0-7.54,3.9c-2-1.19-4.05-2.29-6.15-3.28,1.65-2.08,3.05-4.36,3.16-7,.07-1.63-.38-3.29,0-4.87a10,10,0,0,1,2.16-3.54A44.34,44.34,0,0,0,425,21.81c-3.13,3.62-6.51,7.41-11.1,8.78-1.8.54-3.8.71-5.28,1.88-1.88,1.5-2.36,4.23-4.12,5.87-1.38,1.29-3.33,1.71-5.14,2.23a1.85,1.85,0,0,0-.88.45,1.82,1.82,0,0,0-.3,1.26c0,1.83,0,3.66.05,5.49l4.12,3c-2-.62-3.95-1.18-6-1.62l-1.91-.45-1.94-.28-2.32-.33a4.94,4.94,0,0,0-.15-.55,10.78,10.78,0,0,0-2-2.75,21.85,21.85,0,0,1-2-3.18L381.24,33a9,9,0,0,1-1.1-2.64c-.16-.94,0-1.91-.14-2.85a2.49,2.49,0,0,0-1.57-2.18q-2,3.6-4,7.18C373,35,371.54,38,372.75,40.65c.9,2,3.17,3.42,3,5.55l3,1.33-1.87.1-2,.12-2,.3-3.92.64-3.85,1a29.16,29.16,0,0,0-3.77,1.24c-.57.22-1.15.42-1.72.63-.2-2.05-2.25-4-3.74-5.72-3.18-3.69-4.25-8.71-6.43-13.07-.88-1.76-2.07-3.54-3.9-4.27a9.7,9.7,0,0,0-3.26-.49c-5.24-.16-10.59-.32-15.61,1.17a25.55,25.55,0,0,1,12.93,17.87c.27,1.55.5,3.31,1.76,4.25a5.54,5.54,0,0,0,2.46.83l7.61,1.31,4.34-.15-1.71.84a37.69,37.69,0,0,0-3.42,2,62.38,62.38,0,0,0-6.46,4.59c-1.45,1.35-3,2.63-4.34,4-5.07-1.73-10.92,2.55-16.4,1.61-2.24-.38-4.23-1.62-6.42-2.21a15.43,15.43,0,0,0-10.58,1.42,45.9,45.9,0,0,0-8.92,6.22c3.86-1.86,8.41-.24,12.7-.35,3.18-.08,6.95-.94,9.08,1.42,1.31,1.43,1.71,3.86,3.56,4.45a6.33,6.33,0,0,0,2.49,0,9.9,9.9,0,0,1,4.92.77,58.39,58.39,0,0,0-4,9.83c-3-.41-6-.37-8.46,1.19-1,.64-2.31,1.52-3.26.78a4.87,4.87,0,0,1-.87-1.29c-.95-1.44-3.11-1.56-4.68-.83a21.28,21.28,0,0,0-4.11,3.13c-3.15,2.52-7.21,3.69-10.32,6.24a14.84,14.84,0,0,0-5.35,11.74,22.16,22.16,0,0,1,12.65-7.45,42.31,42.31,0,0,1,14.89-.19,19.33,19.33,0,0,0,7.11,0c0,.25,0,.49,0,.73,0,1.32-.18,2.61-.07,3.94l.23,3.67a9.1,9.1,0,0,0-4,2.62c-1.56,1.7-2.73,3.74-4.39,5.36-1.11,1.08-2.41,1.94-3.54,3-3.56,3.29-5.22,8.09-6.75,12.68,3.75-3,9-2.88,13.82-3.2,3.61-.23,7.62-1.12,10.2-3.43a46.55,46.55,0,0,0,5.06,7.53,22.17,22.17,0,0,1-3.37,2.68c-3.74,2.74-6,6.95-8.61,10.8s-5.82,7.68-10.3,8.84a28.45,28.45,0,0,0,20.64-6.13c3.33-2.72,6-6.18,9.52-8.69a47,47,0,0,0,7.59,4.53c-1.08,2.95-3.47,5.49-5,8.31-3.53,6.33-2.84,14.16-5.22,21l6-6c1-1,2-2,2.92-3a34,34,0,0,0,8.16-17.7,46.55,46.55,0,0,0,6.17,1.37c.67,5.68-2.41,11.71-.53,17.17.64,1.85,1.82,3.48,2.45,5.33s.59,4.19-.89,5.47a15,15,0,0,0,6.17-9.63c.28-1.63.28-3.3.62-4.93.54-2.58,1.93-5,2.21-7.59a6.05,6.05,0,0,0-2-5.32,38,38,0,0,0,7.65-1.08q2.73,3.7,5.47,7.42c1.32,1.8,2.7,3.72,2.89,6a4.43,4.43,0,0,0,.25,1.58c.58,1.21,2.5,1.17,3.45.21a5.55,5.55,0,0,0,1.2-3.76A34.49,34.49,0,0,0,390,149.23a11.7,11.7,0,0,0-1.84-3.6,37,37,0,0,0,4.8-3.33c5.22.82,10.1,3.24,14.84,5.64l5,2.51a3.26,3.26,0,0,0,2.76.45c1.45-.72,1-2.9.18-4.31a32.31,32.31,0,0,0-14.73-13.39,33.44,33.44,0,0,0,2.41-4.64c5.07.57,10.41-1.76,15.31-.23,1.38.44,2.65,1.16,4,1.57a18.77,18.77,0,0,0,4.49.54l10.82.43-32.2-10.8a37.94,37.94,0,0,0,.44-4.39l18.39-3.11a10.35,10.35,0,0,0,4-1.27,3.53,3.53,0,0,0,1.7-3.61,38.37,38.37,0,0,1-17.62-1.88c-2.63-.92-5.42-2.15-8.09-1.4a31,31,0,0,0-3.7-7.23c-.39-.53-.78-1-1.19-1.54l-.2-.2c.38-1.18,1.68-2,2.6-2.88,2.74-2.77,2.16-7.47,4.26-10.76a1.75,1.75,0,0,0-1.71.74c-.41.52-.65,1.15-1,1.69-1.08,1.52-3.07,2.07-4.91,2.35a3,3,0,0,0-1.84.7c-.93,1-.06,2.73-.59,4l-.08.78c-.22-.18-.43-.38-.65-.57A28.58,28.58,0,0,0,389,87.4,29.49,29.49,0,0,0,385.35,86l-.13,0a5.1,5.1,0,0,0,.89-3.63,30.72,30.72,0,0,1-.42-4.15C385.8,76,387,74,388.25,72.12a49.21,49.21,0,0,0-6.87,6.19,5.59,5.59,0,0,0-.91,1.2c-.77,1.5-.16,3.33-.37,5l1,.91a9.87,9.87,0,0,0-1.09-.16c-.64-.08.25-.18-.39-.23L377.7,85a12.61,12.61,0,0,0-1.94,0,14,14,0,0,0-1.94.21,21.41,21.41,0,0,0-4.45,1.15l-.08-.12-.26.25-.34.16c-3.37-1.73-5.58-6.84-9.26-5.88l2.67,9.91.08,0c-.62.54-1.21,1.1-1.77,1.69a21.88,21.88,0,0,0-2.27,2.91l-4.09-1.74a1.57,1.57,0,0,0-.79-.17,1,1,0,0,0-.69,1.35,2.94,2.94,0,0,0,1,1.34l2.52,2.23.66-.62A23,23,0,0,0,354.6,105a5.25,5.25,0,0,0-1.12.54c-.85.56-3.67,1.32-3.48,2.32s2.58,1,4.41,1l.07,1.33c.1,1.65.38,1.76.94,3.31a17.67,17.67,0,0,0,3.36,5.77c0,.5-1.53,2-1.52,2.53.44.16,2.47-.92,2.9-1.09a17.54,17.54,0,0,0,12.36,4.71,17.14,17.14,0,0,1-12.19-5.61c.26-.59,2-1.69,1.9-2.32-.48,0-2.62.4-3.1.39h0c-3-3.61-3.7-5.58-3.05-10.17,0-.27.09,1,.14.73l.37-.1,2.8.2-3.07-3.81a21.75,21.75,0,0,1,1.95-5.67l2.18,1.47a13.47,13.47,0,0,0-.06-4.78A19.85,19.85,0,0,1,362.06,94a22.9,22.9,0,0,1,2.69-2.23,7.35,7.35,0,0,1,3.52,1.81c1.35,1.12,2.66,2.44,4.37,2.82A14.42,14.42,0,0,0,371,88.76a18.68,18.68,0,0,1,3.24-.6,12,12,0,0,1,1.69-.1,10.87,10.87,0,0,1,1.71,0l1.1.08A27.66,27.66,0,0,0,378,104c3.25-4.33,6.58-9,7.46-14.25a12.73,12.73,0,0,1,2,.87,22.29,22.29,0,0,1,4.58,2.9,20.07,20.07,0,0,1-4.29,4.8,13.26,13.26,0,0,0-2.76,2.34c-1.4,1.89-1.15,4.68-2.67,6.48,2.4-2,5.52-2.82,8.45-3.89a14.75,14.75,0,0,0,6.5-4.12l.25.35a26.28,26.28,0,0,1,2.94,6.37c-4.79.51-9.16,4.22-14,3.8a2.21,2.21,0,0,0-1.61.21c-.64.5-.43,1.48-.48,2.29a3.13,3.13,0,0,1-1.76,2.61,66.31,66.31,0,0,1,18.81.9,32.07,32.07,0,0,1-.73,4.56l-7.05,1.08c-3.63.56-7.4,1.12-10.94.14A65.18,65.18,0,0,0,398.27,127a30.88,30.88,0,0,1-3.76,5.81c-4-.69-8.32-1.59-11.07-4.6-1.37-1.5-2.37-3.53-4.26-4.26a11.22,11.22,0,0,0,1.74,5.09l3.12,5.83c.87,1.62,2,3.41,3.59,4.18a31.26,31.26,0,0,1-4.15,2.33c-2.26-1.13-3.91-3.38-5.17-5.64-1.46-2.63-2.67-5.5-4.88-7.56.2,3.08.39,6.17.59,9.25a14.58,14.58,0,0,0,.43,3.16,10,10,0,0,0,1.68,3.14,30.91,30.91,0,0,1-7.76.45,25.35,25.35,0,0,1-1.78-5.55,20.35,20.35,0,0,0-3.17-6.54A32.16,32.16,0,0,0,362,143.16a41.06,41.06,0,0,1-4.2-1.21,65.05,65.05,0,0,0-2.12-10.71,2.34,2.34,0,0,1-1.24,2.51c-.85.54-1.86.77-2.73,1.28a5,5,0,0,0-2.21,2.84c-1.06-.69-2.09-1.43-3.08-2.22a10.5,10.5,0,0,0,3.14-5.2,30,30,0,0,0,.76-7.08c-1.71.59-2.55,2.5-4,3.61-1.86,1.46-4.46,1.38-6.83,1.23l2.69,3.51a38.67,38.67,0,0,1-6.72-9.92c-.34-.74-.64-1.49-.93-2.24a33.55,33.55,0,0,0,12.32-15.3c-1.5,1.34-3.85.64-5.82,1a15.92,15.92,0,0,0-4.29,2c-1.39.76-3.1,1.3-4.55.64l.61,6a36.24,36.24,0,0,1-.82-4.84l-.14-3.31c-.07-1.09.11-2.24.15-3.35a43.61,43.61,0,0,1,.78-6.24l.08,3.53,16.68.3c-1.89-4.36-6.38-6.9-10.58-9.13l-4-2.15a48.88,48.88,0,0,1,4.21-8.67,43,43,0,0,1,16.58,1.5c-.71-4.79-4.64-8.36-8.35-11.5,0,0,.08-.08.13-.11L350,67.75A53.47,53.47,0,0,1,355.45,64a30.86,30.86,0,0,1,2.9-1.65L361.23,61l-.7.79C362,63.36,361,66,361.71,68c.64,1.8,2.47,2.84,4,4A17.22,17.22,0,0,1,370,76.79c1,1.68,1.78,3.6,3.39,4.72a14.86,14.86,0,0,1,1-5.68,7.31,7.31,0,0,0,.8-3.19,5.81,5.81,0,0,0-1-2.41l-1.71-2.8a3.11,3.11,0,0,0-1.13-1.25,5.56,5.56,0,0,0-1.69-.31c-2.85-.46-3.93-4-6.15-5.8.33-.11.67-.22,1-.35a20.78,20.78,0,0,1,3.17-1l3.22-.81,3.29-.48,1.65-.24,1.66-.07,3.32-.14.67,0,.34,0-2,.16A13.18,13.18,0,0,1,381,65.16,19.45,19.45,0,0,0,380.6,68a11.28,11.28,0,0,0,1.3,4.59,7.19,7.19,0,0,1,1.76-4c.76-.84,1.7-1.49,2.42-2.35,2-2.35,1.91-5.68,1.59-8.79l3.21.5,1.68.26,1.63.41a59.65,59.65,0,0,1,6.29,1.85,3.35,3.35,0,0,0-2.11,1.86,10.89,10.89,0,0,0-.52,4.19,25.26,25.26,0,0,1-5.67,15.39,26.32,26.32,0,0,1,7.08-4.08,20.31,20.31,0,0,0,2-.84,9.82,9.82,0,0,0,4.52-5.82,29.2,29.2,0,0,0,1-7.46l-3.29-2.06a62.63,62.63,0,0,1,12.63,7c-2.36,2.8-2.6,6.87-2.56,10.58,0,3.91.09,8.17-2.31,11.25-1.14,1.48-2.85,2.74-3,4.59l5.41-3.39A14.45,14.45,0,0,0,418.19,88c.69-1,1.12-2.15,1.76-3.17,1.52-2.44,4.27-4.25,4.71-7.09l-6.43-7.51.09.07a63.49,63.49,0,0,1,16.81,20.78l.78,1.49.63,1.56,1.28,3.11a14.63,14.63,0,0,1,.64,1.9l-4.55-7.74a4.72,4.72,0,0,0-3.25,2.39,12.29,12.29,0,0,1-2.53,3.3,8,8,0,0,1-2.42,1.1,45.56,45.56,0,0,1-8.49,1.83,27.11,27.11,0,0,0,9.09.77,17.11,17.11,0,0,1,3.7-.29c1.65.16,3.17,1,4.82,1.23s3.54-.62,3.74-2.18l.27.89c.32,1.08.68,2.14,1,3.22l.65,3.3a24.84,24.84,0,0,1,.55,3.31l.33,3.35.17,1.69.09,1.09-1.47-4.46a22.65,22.65,0,0,1-16.67,6.32,7.53,7.53,0,0,0-2.37.09,2.15,2.15,0,0,0-1.62,1.56,16,16,0,0,1,5.76.41l6.08,1.19a35.18,35.18,0,0,1,6.17,1.6,13,13,0,0,0,3.26,1.08,3.66,3.66,0,0,0,1.43-.12v.2a44.19,44.19,0,0,1-.37,6.47,52.89,52.89,0,0,1-3.45,12.77c-.54,1.33.39,1.11-.24,2.4-.13-.24-1.78,1.05-1.9.81-.08.17-.15.34-.23.5l-2.22-7a111.1,111.1,0,0,0-12.65-3.59,22.06,22.06,0,0,0,7.28,6.09c.82.43,1.67.8,2.46,1.28,1.85,1.13.19,4.29,1.38,6.11-1.48,2.89-.06,4.17-1.91,6.87a9.13,9.13,0,0,0-4.15-.34c-1.55.24-3,.87-4.53,1.16-3.57.67-7.27-.58-10.85,0,1.86,2.18,5.27,1.84,8,2.83,2.18.8,4,2.52,6,3.56-.62.72-1.23,1.42-1.83,2.14-1.44,1.6-3,3.13-4.48,4.65a24.24,24.24,0,0,0-6.31-5.89,24.93,24.93,0,0,1-3.24-2.2,21.41,21.41,0,0,1-2.32-2.71,28.5,28.5,0,0,0-6.53-5.91,27.81,27.81,0,0,1,3.29,5.59,12.77,12.77,0,0,1,1.29,6.43,41.48,41.48,0,0,1-1,4.21,14,14,0,0,0,2.24,10.84q-2.22,1.59-4.5,3.11a8.26,8.26,0,0,0-3-2.49,43.45,43.45,0,0,0-5.07-1.49c-5.66-1.84-9.31-7.19-13.93-10.95-.4-.33-1-.65-1.39-.34s-.31.8-.22,1.23a28.65,28.65,0,0,0,5,11.14,12.28,12.28,0,0,1,2.37,3.92,9.7,9.7,0,0,1,.23,2.69c0,1.91,0,3.82,0,5.72q-4,2.11-8.08,4.06l-3.77,1.73"/><path class="cls-1" d="M373.49,199.64a21.6,21.6,0,0,0-5.67-5.69l-10.23-7.7a24.82,24.82,0,0,0-7.49-4.37c-2.79-.85-6.1-.58-8.21,1.41a11.78,11.78,0,0,1,4.63,4.91c.65,1.32,1.06,2.74,1.65,4.09a15.45,15.45,0,0,0,6.72,7.25A6.85,6.85,0,0,1,357,201c1.18,1.4.68,3.38.61,5.28l-.13.05-6.74,2.51-5.95,2a11,11,0,0,0-2.68-5c-1.9-2.11-4.25-3.87-5.66-6.34a5.69,5.69,0,0,0-1.7-2.26,5.86,5.86,0,0,0-1.81-.55c-5.93-1.35-8.59-8.38-13.74-11.63a2.35,2.35,0,0,0-2.49-.34c1.73,4,6.67,6.51,6.9,10.86.05,1.08-.18,2.25.38,3.17.72,1.19,2.37,1.35,3.49,2.18,1.62,1.22,1.78,3.61,1.47,5.62s-.95,4.08-.37,6a13.83,13.83,0,0,0,1.43,2.85c-2.24.71-4.5,1.34-6.77,1.94s-4.69,1.29-7,1.91l-.92.21a20.9,20.9,0,0,0,.1-2.49q0-3.94-.05-7.89a6.87,6.87,0,0,0-.42-2.89,9.52,9.52,0,0,0-2.44-2.75,26.23,26.23,0,0,1-3.64-4.73l-4.09-6.27a69.37,69.37,0,0,1,.79,12.37A23.17,23.17,0,0,1,302,216.59a16.12,16.12,0,0,0-2.34,3.86,8,8,0,0,0-.32,2.58c-3.28.65-9.64,1.26-12.94,1.87l1.1-1.8a28.41,28.41,0,0,0,3.24-6.56c.3-1,.48-2.11.82-3.13s.72-1.75,1.08-2.63c2.34-5.53-1.92-13.41-3.64-19.17.59,2-.26,4.22-1.43,6s.38,3.3-.6,5.17c-.62,1.2-4.09,2.51-4.78,3.67-2.68,4.49-4.43,7.25-7.09,11.74-1.71,2.87,1.55,6.45,1.79,9.79l.22,0c-3.46.66-14.6,1.31-18.09,1.94a325.8,325.8,0,0,0-57.12,15.23,188.7,188.7,0,0,0-27,12.56,116.31,116.31,0,0,0-24.11,18,79.08,79.08,0,0,0-17.26,24.88,75.12,75.12,0,0,0-6,29.55,107.52,107.52,0,0,0,4.38,29.45,170.72,170.72,0,0,0,10.6,27.51c4.24,8.83,9,17.37,14.07,25.72s9.18,14.51,14.54,22.64c-9.81-16.81-18.31-31.77-25.9-49.59a177.9,177.9,0,0,1-9.29-27.34,103.2,103.2,0,0,1-3.13-28.28,70.32,70.32,0,0,1,6.33-27.15,72.66,72.66,0,0,1,16.52-22.33c13.77-12.78,31.19-21.36,49.15-27.72A277.06,277.06,0,0,1,232.35,245q14-3.4,28.28-5.77c12.19-2,32.09-4.28,44.26-6.94,3.26,1.59,6.65.36,9.75,1.39a8.34,8.34,0,0,0,3,.84c1.05-.05,2.1-1.18,1.58-2.08-.33-.57-1.06-.72-1.67-1-.41-.17-.81-.56-.94-1.89q3.52-.85,7-1.77c4.26-1,8.52-2.11,12.75-3.3,1.59,1.65,3.1,2.73,4.77,3a28.39,28.39,0,0,0,3.06,0c3.51.13,6.67,2.72,10.17,2.47a.91.91,0,0,0,.67-.25c.29-.36,0-.87-.32-1.2a23.85,23.85,0,0,1-5-8q7.38-2.4,14.66-5.15c1.46,1.93,4,2.72,6.41,3.14s5.1.66,7.23,2c1.31.82,2.73,2.11,4.16,1.52q-2.58-5.91-4.64-12l-1.52.6c5.23-2.29,10.39-4.75,15.45-7.44a8.88,8.88,0,0,0,5.65,3.78c1.54.29,3.14.16,4.68.41a19.59,19.59,0,0,1,4.73,1.67l9.4,4.27c-.63-3-1.34-6.11-3.41-8.35a16.53,16.53,0,0,1-1.65-1.8,7.8,7.8,0,0,1-.9-2.26,65.6,65.6,0,0,1-1.53-7.08h0c5.44-3.28,1.87-2.09,6.93-6a23.26,23.26,0,0,1,4.07,3.82c9.12,9.58,24.18,11.09,34,19.92-1.54-4.17-3.13-8.41-5.87-11.91s-6.82-6.31-9.31-10.2c-1.86-2.9-3.09-6.64-6.28-8-2.19-.9-5-.51-6.62-2.26,2-1.85,4-3.77,5.83-5.77s3.73-4.16,5.46-6.37a9.1,9.1,0,0,0,3.95,5.18c2.18,1.48,4.71,2.36,7,3.68,3.43,2,6.26,4.89,9.74,6.78,4.2,2.28,9.08,2.94,13.83,3.55l8.5,1.1a45.32,45.32,0,0,0-15.09-9.89c-4.67-1.86-9.93-3.13-13.16-7-1.74-2.08-2.7-4.71-4.38-6.83-1.41-1.79-3.71-3.18-5.87-2.9q2.06-3.12,3.81-6.45"/><path class="cls-5" d="M449.44,155c-.8,1.52-4.72,3-5.63,4.49a9.57,9.57,0,0,1,4.48,3.19,25.07,25.07,0,0,1,2.21,3.48,21.39,21.39,0,0,0,2.14,3.31c2.33,2.78,5.92,4.09,9.72,5.47.95.35,1.9.7,2.83,1.07a47,47,0,0,1,15.6,10.22l3.21,3.19-13-1.68c-4.62-.6-9.85-1.27-14.37-3.73a39.78,39.78,0,0,1-5.28-3.64,40.19,40.19,0,0,0-4.49-3.15c-.9-.52-1.85-1-2.85-1.45a31.69,31.69,0,0,1-4.23-2.29A12,12,0,0,1,436.3,170c-1.3,1.59-2.62,3.09-3.94,4.48s-2.87,3-4.43,4.46a16.67,16.67,0,0,0,1.72.36,14,14,0,0,1,3,.74c2.89,1.2,4.4,3.94,5.72,6.37.41.74.82,1.48,1.26,2.17a32.23,32.23,0,0,0,4.93,5.54,44.36,44.36,0,0,1,4.3,4.55c2.91,3.71,4.54,8.09,6.1,12.31l2.16,5.82-4.62-4.14c-4.48-4-10.29-6.55-15.9-9-6.49-2.83-13.2-5.75-18.21-11l-.71-.75a22.91,22.91,0,0,0-2.21-2.2,8.79,8.79,0,0,0-2,2.05c-.55.82-1,1.38-3.29,2.82.35,2,.8,4,1.33,5.91a6.16,6.16,0,0,0,.7,1.81,7.82,7.82,0,0,0,.89,1c.21.2.41.4.61.61,2.41,2.61,3.17,6.19,3.78,9.07l.63,3-12.16-5.52a17.71,17.71,0,0,0-4.35-1.55,16.5,16.5,0,0,0-2.05-.17,17.73,17.73,0,0,1-2.66-.26,10.32,10.32,0,0,1-5.8-3.32c-3.67,1.92-7.5,3.78-11.62,5.64,1.25,3.6,2.65,7.18,4.17,10.65l.63,1.44-1.46.6c-2,.8-3.68-.38-4.94-1.24l-.62-.41a14.2,14.2,0,0,0-5.42-1.58c-.42-.07-.84-.13-1.25-.21a12.56,12.56,0,0,1-6.59-2.85c-3.92,1.48-8,2.91-12.16,4.28a22.05,22.05,0,0,0,4.07,6.06,2.36,2.36,0,0,1,.36,3.18,2.41,2.41,0,0,1-1.74.82,14,14,0,0,1-6.09-1.32,14.28,14.28,0,0,0-4.26-1.15c-.36,0-.73,0-1.1,0a11.68,11.68,0,0,1-2.12,0,9.09,9.09,0,0,1-5-2.77c-3.54,1-7.36,2-11.94,3.07l-4.74,1.21a3,3,0,0,1,1.29,1.16,2.62,2.62,0,0,1,0,2.6,3.51,3.51,0,0,1-2.82,1.78,6.42,6.42,0,0,1-2.83-.64l-.72-.27a12.32,12.32,0,0,0-3.81-.41,14.35,14.35,0,0,1-5.63-.84c-7.75,1.66-18.61,3.19-28.2,4.54-5.77.81-11.21,1.57-15.64,2.31-9.33,1.54-18.81,3.48-28.17,5.75a275.7,275.7,0,0,0-27.44,8c-20.79,7.37-36.7,16.34-48.62,27.41a70.79,70.79,0,0,0-16.16,21.84,68.17,68.17,0,0,0-6.2,26.56,101.89,101.89,0,0,0,3.09,27.87,175.47,175.47,0,0,0,9.22,27.11c7.52,17.67,15.78,32.22,25.81,49.41l-2.61,1.62-.76-1.16c-5-7.58-8.95-13.58-13.81-21.53-5.59-9.23-10.22-17.69-14.14-25.86A170.46,170.46,0,0,1,130.39,360,108.32,108.32,0,0,1,126,330.13a77.07,77.07,0,0,1,6.1-30.15,80.35,80.35,0,0,1,17.58-25.36,117.53,117.53,0,0,1,24.43-18.21,189.88,189.88,0,0,1,27.27-12.66c17.06-6.42,35.83-11.43,57.39-15.31,1.76-.32,5.21-.62,8.87-.95,2.72-.24,5.52-.49,7.48-.73a22.37,22.37,0,0,0-.79-2.12c-.93-2.26-2-4.83-.53-7.26s2.59-4.31,3.77-6.25c1-1.69,2.08-3.4,3.32-5.48a8.33,8.33,0,0,1,2.87-2.31,10,10,0,0,0,1.89-1.31,2.51,2.51,0,0,0,.06-1.6,4.85,4.85,0,0,1,.61-3.69c.67-1,1.73-3,1.23-4.7l2.94-.87c.39,1.3.92,2.73,1.48,4.24,1.94,5.24,4.13,11.17,2.11,16l-.34.78a18.4,18.4,0,0,0-.7,1.73c-.18.54-.31,1.1-.44,1.65s-.23,1-.37,1.43a25.26,25.26,0,0,1-2.79,5.91l3-.39c1.93-.24,3.91-.5,5.47-.76a7.94,7.94,0,0,1,.35-1.76,12.54,12.54,0,0,1,1.92-3.38c.21-.28.41-.57.61-.85a21.5,21.5,0,0,0,3.29-11,68.11,68.11,0,0,0-.78-12.09l-.82-6.57,7.72,11.81a24.71,24.71,0,0,0,3.41,4.46l.54.5a6.78,6.78,0,0,1,2.8,6.25l0,7.88a4.34,4.34,0,0,1,0,.51c2-.52,3.94-1.05,5.91-1.6,1.79-.48,3.41-.93,4.91-1.37a8.39,8.39,0,0,1-.62-1.51,11.48,11.48,0,0,1,.11-5.51c.07-.4.15-.8.21-1.2.15-.94.36-3.23-.87-4.15a5.84,5.84,0,0,0-1.15-.59,5.36,5.36,0,0,1-2.73-2,5.51,5.51,0,0,1-.6-3.12c0-.26,0-.52,0-.77-.11-2-1.56-3.59-3.24-5.44a18.35,18.35,0,0,1-3.53-4.89l-.5-1.15,1-.72c1.14-.79,2.62-.68,4.19.31a27.05,27.05,0,0,1,5.86,5.59c2.27,2.65,4.42,5.16,7.4,5.84l.35.07a6.09,6.09,0,0,1,1.91.65,5.79,5.79,0,0,1,2,2.43l.22.39a19.62,19.62,0,0,0,3.44,4c.69.68,1.39,1.35,2,2.07a13.45,13.45,0,0,1,2.55,4l4.45-1.51,5.89-2.2,0-.22c.12-1.47.16-2.4-.34-3a4.31,4.31,0,0,0-1.31-.87l-.34-.19a16.86,16.86,0,0,1-7.4-8c-.27-.61-.5-1.24-.74-1.87a20.28,20.28,0,0,0-.89-2.16,10.13,10.13,0,0,0-4-4.26l-1.79-1,1.5-1.42c2.34-2.19,6.06-2.87,9.71-1.76,3.07.93,5.68,2.89,8,4.62l10.22,7.7a22.85,22.85,0,0,1,6.07,6.13l-2.63,1.56a20.32,20.32,0,0,0-5.29-5.25l-10.22-7.69a23.92,23.92,0,0,0-7-4.14,8.06,8.06,0,0,0-5,0,13.18,13.18,0,0,1,3.25,4.14,25.17,25.17,0,0,1,1,2.46c.21.57.42,1.14.67,1.69a13.73,13.73,0,0,0,6,6.53l.32.17a6.92,6.92,0,0,1,2.24,1.62c1.33,1.6,1.18,3.51,1,5.2,0,.38-.06.75-.08,1.12l0,1-7.83,2.93-7.65,2.59-.34-1.71A9.37,9.37,0,0,0,341,206.9c-.6-.67-1.25-1.3-1.89-1.93a21.44,21.44,0,0,1-4-4.68l-.25-.45a3.5,3.5,0,0,0-.91-1.26,3.23,3.23,0,0,0-.94-.27l-.42-.09c-3.69-.84-6.18-3.5-8.52-6.21a7.93,7.93,0,0,1,1.06,3.52c0,.32,0,.66,0,1a1.71,1.71,0,0,0,1.49,2.27,8.47,8.47,0,0,1,1.77.94c1.83,1.38,2.56,3.89,2.06,7.08-.07.43-.15.86-.23,1.3a8.91,8.91,0,0,0-.18,4.07,9.5,9.5,0,0,0,1,2l1.25,2.17-1.82.57c-2,.64-4.27,1.29-6.84,2q-3.5,1-7,1.9l-3,.72.22-2.14a19.93,19.93,0,0,0,.09-2.33l-.05-7.89a6,6,0,0,0-.28-2.27,6,6,0,0,0-1.5-1.71l-.61-.56a27.43,27.43,0,0,1-3.86-5l-.6-.92a46.67,46.67,0,0,1,.11,6.26,24.39,24.39,0,0,1-3.81,12.5q-.33.48-.66.93a10.06,10.06,0,0,0-1.49,2.54,5.94,5.94,0,0,0-.24,2.08l0,1.28-1.26.25c-1.76.35-4.36.68-6.87,1-2.24.28-4.55.58-6.09.87l-3.37.63,2.88-4.74a27.3,27.3,0,0,0,3.08-6.19c.12-.43.22-.86.32-1.28.16-.64.31-1.28.52-1.9a21.57,21.57,0,0,1,.8-2l.32-.73c1.45-3.42-.16-8.28-1.79-12.72-.18.32-.38.64-.59,1s-.24.71-.12,1.56a5.33,5.33,0,0,1-.4,3.47,7.77,7.77,0,0,1-3,2.5,10,10,0,0,0-1.82,1.26c-1.25,2.08-2.3,3.8-3.33,5.5-1.18,1.93-2.33,3.83-3.75,6.22-.62,1-.14,2.41.73,4.53a19.89,19.89,0,0,1,1.09,3.21l6.41,1.43-7.25,1.39c-1.86.36-5.58.69-9.51,1-3.43.3-7,.61-8.6.91-21.37,3.84-40,8.8-56.85,15.16a186.79,186.79,0,0,0-26.82,12.45,113.59,113.59,0,0,0-23.79,17.73,77.13,77.13,0,0,0-16.93,24.39A74,74,0,0,0,129,330.14a105.27,105.27,0,0,0,4.31,29,165.81,165.81,0,0,0,9.72,25.59,174.78,174.78,0,0,1-8.66-25.87,104.83,104.83,0,0,1-3.17-28.7,71.3,71.3,0,0,1,6.47-27.74,74,74,0,0,1,16.86-22.79c12.24-11.37,28.49-20.54,49.69-28.06A279,279,0,0,1,232,243.49c9.43-2.29,19-4.24,28.39-5.79,4.46-.75,9.93-1.51,15.71-2.33,9.75-1.37,20.8-2.92,28.47-4.6l.52-.11.48.23a10.93,10.93,0,0,0,4.81.76,14.87,14.87,0,0,1,4.76.56c.3.1.6.22.89.34a7.71,7.71,0,0,0,1.08.37l-.15-.06c-1.63-.68-1.81-2.54-1.87-3.15l-.13-1.33,1.29-.31q3.51-.85,7-1.76c4.94-1.2,9-2.25,12.72-3.29l.88-.25.63.66c1.5,1.55,2.73,2.35,3.89,2.51a7.81,7.81,0,0,0,1.54,0c.45,0,.9,0,1.36,0a16.19,16.19,0,0,1,5.23,1.35,22,22,0,0,0,3,1,24.76,24.76,0,0,1-4.2-7.23l-.59-1.52,1.55-.5c5-1.63,9.92-3.35,14.58-5.12l1.08-.41.69.91c1,1.27,2.69,2.08,5.46,2.56l1.21.2a16.9,16.9,0,0,1,6.57,2l.67.44c-1-2.51-2-5.07-2.9-7.64h0l-1.17-2.83c5.57-2.44,10.59-4.86,15.34-7.39l1.23-.65.77,1.17a7.34,7.34,0,0,0,4.66,3.11,15.53,15.53,0,0,0,2.23.2,20.3,20.3,0,0,1,2.41.21,20.59,20.59,0,0,1,5.11,1.78l6.56,3a11.23,11.23,0,0,0-2.33-4.62l-.5-.51a10,10,0,0,1-1.29-1.47,9.46,9.46,0,0,1-1.11-2.71A67.36,67.36,0,0,1,407,194l-.17-1,.89-.53c2.63-1.59,2.88-2,3.22-2.46a14.46,14.46,0,0,1,3.55-3.47l.85-.66.91.57a19.23,19.23,0,0,1,3.69,3.34l.68.73c4.59,4.81,10.72,7.48,17.21,10.3a85.68,85.68,0,0,1,12.3,6.17,28.93,28.93,0,0,0-3.67-6.46,41.67,41.67,0,0,0-4-4.23A34.61,34.61,0,0,1,437,190.2c-.48-.75-.92-1.55-1.36-2.36-1.19-2.17-2.32-4.22-4.21-5a11.17,11.17,0,0,0-2.31-.56c-1.65-.28-3.52-.6-4.86-2.09l-1-1.12,1.11-1c2.05-1.9,4-3.82,5.75-5.7s3.61-4,5.37-6.27l2-2.53.72,3.13a7.65,7.65,0,0,0,3.32,4.26,28.94,28.94,0,0,0,3.83,2.06c1,.48,2.05,1,3.06,1.56a43.69,43.69,0,0,1,4.83,3.38,37.12,37.12,0,0,0,4.88,3.38c4,2.18,8.73,2.79,13.29,3.38l3.56.46a44,44,0,0,0-10.9-6.31c-.9-.35-1.83-.69-2.75-1-4-1.46-8.16-3-11-6.38a24.33,24.33,0,0,1-2.46-3.77,24.66,24.66,0,0,0-1.95-3.09c-1.23-1.55-3.08-2.51-4.47-2.33l-3.34.43,1.86-2.8"/><path class="cls-5" d="M266.49,286.62v17.83a6.9,6.9,0,0,1-1.59,4.76,5.38,5.38,0,0,1-4.22,1.78h-.35l-.35,0-.25-3.09q3.18,0,3.18-3.73V286.62Z"/><path class="cls-5" d="M273.39,292.76v7.67a2.54,2.54,0,0,0,.61,1.84,2.1,2.1,0,0,0,1.6.63,2.82,2.82,0,0,0,1.58-.51A3.63,3.63,0,0,0,278.4,301v-8.21h3.26v12.39H278.4v-1.68a5.17,5.17,0,0,1-3.82,1.92,4.21,4.21,0,0,1-3.22-1.3,4.79,4.79,0,0,1-1.22-3.4v-7.93Z"/><path class="cls-5" d="M292.1,292.52a4.09,4.09,0,0,1,3.18,1.31,4.93,4.93,0,0,1,1.19,3.44v7.88h-3.25V297.6a2.9,2.9,0,0,0-.58-1.91,1.91,1.91,0,0,0-1.57-.7,2.53,2.53,0,0,0-1.42.44,6.8,6.8,0,0,0-1.46,1.48v8.24h-3.26V292.76h3.26v1.74A5.72,5.72,0,0,1,290,293,4.61,4.61,0,0,1,292.1,292.52Z"/><path class="cls-5" d="M305.17,292.52a5.58,5.58,0,0,1,4.33,1.75,7,7,0,0,1,1.59,4.85v.49h-8.77a3.79,3.79,0,0,0,1.24,2.55,4.23,4.23,0,0,0,2.86.9,6.36,6.36,0,0,0,2.25-.41,9.85,9.85,0,0,0,2.24-1.23v2.43a8.93,8.93,0,0,1-5.29,1.54,6.71,6.71,0,0,1-4.79-1.76,6.18,6.18,0,0,1-1.85-4.7,6.44,6.44,0,0,1,1.71-4.62A6,6,0,0,1,305.17,292.52Zm2.85,5.11a3.55,3.55,0,0,0-.82-2.12,2.45,2.45,0,0,0-1.89-.76,2.71,2.71,0,0,0-2,.73,3.59,3.59,0,0,0-.95,2.15Z"/><path class="cls-5" d="M325.82,286.38a5.81,5.81,0,0,1,4.2,1.5,5.35,5.35,0,0,1,1.56,4,9.11,9.11,0,0,1-1.16,4.14,41.11,41.11,0,0,1-4.09,5.9h6.36v3.21h-12v-.38q2.1-2.59,3.61-4.65c1-1.38,1.78-2.52,2.32-3.43a13.18,13.18,0,0,0,1.17-2.31,5.82,5.82,0,0,0,.35-2,3,3,0,0,0-.82-2.14,2.62,2.62,0,0,0-2-.87q-2.1,0-4.36,2.39v-3.64A8.11,8.11,0,0,1,325.82,286.38Z"/><path class="cls-5" d="M337.18,301.52a2.12,2.12,0,0,1,1.7.77,3.26,3.26,0,0,1,.63,2.11,4.59,4.59,0,0,1-1.15,3.08,4.72,4.72,0,0,1-2.9,1.64v-.7a3.5,3.5,0,0,0,1.28-2.8v-.2l0-.21a1.67,1.67,0,0,1-1.5-1.82,1.77,1.77,0,0,1,.57-1.33A1.93,1.93,0,0,1,337.18,301.52Z"/><path class="cls-5" d="M354.4,286.38a5.81,5.81,0,0,1,4.2,1.5,5.35,5.35,0,0,1,1.56,4A9.11,9.11,0,0,1,359,296a41.72,41.72,0,0,1-4.08,5.9h6.35v3.21h-12v-.38q2.1-2.59,3.61-4.65c1-1.38,1.78-2.52,2.33-3.43a13.76,13.76,0,0,0,1.16-2.31,5.82,5.82,0,0,0,.35-2,3,3,0,0,0-.82-2.14,2.6,2.6,0,0,0-2-.87q-2.1,0-4.36,2.39v-3.64A8.11,8.11,0,0,1,354.4,286.38Z"/><path class="cls-5" d="M369.7,286.38a5.08,5.08,0,0,1,4.46,2.53,12.6,12.6,0,0,1,1.65,6.93,12.91,12.91,0,0,1-1.63,7,5,5,0,0,1-4.46,2.56,5.15,5.15,0,0,1-4.53-2.54,15.42,15.42,0,0,1,0-13.92A5.11,5.11,0,0,1,369.7,286.38ZM367,296c0,4.23.9,6.35,2.72,6.35s2.65-2.23,2.65-6.68q0-6.26-2.68-6.25C367.87,289.42,367,291.61,367,296Z"/><path class="cls-5" d="M385.7,286.62v18.53h-3.4V286.62Z"/><path class="cls-5" d="M398.38,286.38a5.78,5.78,0,0,1,4.06,1.44,4.87,4.87,0,0,1,1.57,3.75,4.44,4.44,0,0,1-2.28,3.94,4.94,4.94,0,0,1,2.07,1.87,5.2,5.2,0,0,1,.63,2.61,5.11,5.11,0,0,1-.78,2.78,5.28,5.28,0,0,1-2.17,1.93,6.89,6.89,0,0,1-3.1.69,6.37,6.37,0,0,1-4.37-1.51,5.38,5.38,0,0,1-1-6.56,5,5,0,0,1,2-1.81,4.49,4.49,0,0,1-2.28-4,4.79,4.79,0,0,1,1.59-3.72A5.79,5.79,0,0,1,398.38,286.38Zm-2.64,13.45a3.05,3.05,0,0,0,.72,2.15,2.49,2.49,0,0,0,1.92.78,2.41,2.41,0,0,0,1.91-.79,3,3,0,0,0,.69-2.08,3.21,3.21,0,0,0-.71-2.14,2.34,2.34,0,0,0-1.86-.84,2.53,2.53,0,0,0-1.93.79A3,3,0,0,0,395.74,299.83Zm.39-8.21a3,3,0,0,0,.63,2,2,2,0,0,0,1.62.76,2,2,0,0,0,1.6-.79,3,3,0,0,0,.63-1.93,2.84,2.84,0,0,0-.6-1.91,2,2,0,0,0-1.63-.7,2.07,2.07,0,0,0-1.64.69A2.77,2.77,0,0,0,396.13,291.62Z"/></svg>