<svg id="Layer_1" data-name="Layer 1" xmlns="http://www.w3.org/2000/svg" viewBox="0 0 500 500"><defs><style>.cls-1{fill:#988575;}.cls-2{fill:#fff;}.cls-3{fill:#924a3b;}.cls-4{fill:#4d4e4e;}</style></defs><circle class="cls-1" cx="250" cy="242.7" r="78.73"/><path class="cls-2" d="M282.72,210c-.24-.35-5.86-8.42-13.72-8.42-10.72,0-19.41,12.88-19.41,28.77,0-15.89-8.68-28.77-19.4-28.77-7.86,0-13.48,8.07-13.72,8.42-5.55,8.34-2.66,18.65,1,24.36s8.39,7.23,12.71,10c7.47,4.85,15.78,10.12,19.4,32.74,3.63-22.62,11.94-27.89,19.41-32.74,4.32-2.81,9-4.33,12.71-10S288.26,218.37,282.72,210Z"/><path class="cls-2" d="M317,228.85a11.56,11.56,0,0,0-.38-1.67,12.68,12.68,0,0,0-12.1-8.88,13.3,13.3,0,0,0-1.55.1,12.66,12.66,0,0,0-3.51,24.17h0s8.07,3.32,7.72,14.16a58.69,58.69,0,0,1-55,45.51,20.51,20.51,0,0,1,6.16-6.76c2.48-1.69,4-1.88,9.63-4,8.45-3.16,12.68-4.74,15.67-7.08.6-.48,11.31-9.12,9-20.54-1-4.75-4.47-10.6-10-12.61-10.07-3.67-22.64,5.46-28.07,20.39l-5,13.69-5-13.69c-5.44-14.93-18-24.06-28.08-20.39-5.54,2-9,7.87-10,12.61-2.28,11.08,7.63,19.51,8.32,20.08,1.83,1.5,6.66,3.52,16.34,7.54,6.15,2.56,8.14,3.19,10.73,5.31a22.53,22.53,0,0,1,4.76,5.39,58.68,58.68,0,0,1-53.9-45.64c-.24-9.38,5.86-13.07,7.38-13.83A12.66,12.66,0,0,0,197,218.4a12.82,12.82,0,0,0-1.53-.1,12.66,12.66,0,0,0-12.35,9.89c0,.1,0,.2-.07.3a68.63,68.63,0,1,0,133.94.36Z"/><path class="cls-3" d="M147.29,192.84H18.41V308.31H156.58a114.21,114.21,0,0,1-9.29-115.47Z"/><path class="cls-4" d="M165.8,319.77H18.41v18.45a9.45,9.45,0,0,0,9.45,9.45H205.08A114.3,114.3,0,0,1,165.8,319.77Z"/><path class="cls-4" d="M214.67,349.64H27.86a11.43,11.43,0,0,1-11.42-11.42V317.8H166.66l.59.65a113.19,113.19,0,0,0,38.6,27.41ZM20.38,321.74v16.48a7.48,7.48,0,0,0,7.48,7.48H196.35a117.68,117.68,0,0,1-31.42-24Z"/><path class="cls-4" d="M294.92,347.67H472.14a9.45,9.45,0,0,0,9.45-9.45V319.77H334.2A114.3,114.3,0,0,1,294.92,347.67Z"/><path class="cls-4" d="M472.14,349.64H285.33l8.82-3.78a113.19,113.19,0,0,0,38.6-27.41l.59-.65H483.56v20.42A11.43,11.43,0,0,1,472.14,349.64ZM303.65,345.7H472.14a7.48,7.48,0,0,0,7.48-7.48V321.74H335.07A117.68,117.68,0,0,1,303.65,345.7Z"/><path class="cls-4" d="M352.36,242.7A102.36,102.36,0,1,0,231,343.25v45.1a15.79,15.79,0,0,0,15.75,15.74H252a15.78,15.78,0,0,0,15.74-15.74V343.49A102.36,102.36,0,0,0,352.36,242.7ZM250,333.24a90.54,90.54,0,1,1,90.55-90.54A90.55,90.55,0,0,1,250,333.24Z"/><path class="cls-4" d="M252,406.06h-5.25A17.74,17.74,0,0,1,229,388.35V344.87a104.34,104.34,0,1,1,40.68.26v43.22A17.74,17.74,0,0,1,252,406.06Zm-2-263.74a100.37,100.37,0,0,0-18.66,199l1.6.3v46.73a13.79,13.79,0,0,0,13.78,13.77H252a13.79,13.79,0,0,0,13.77-13.77V341.83l1.63-.28A100.37,100.37,0,0,0,250,142.32Zm0,192.89a92.51,92.51,0,1,1,92.52-92.51A92.62,92.62,0,0,1,250,335.21Zm0-181.08a88.57,88.57,0,1,0,88.58,88.57A88.68,88.68,0,0,0,250,154.13Z"/><polygon class="cls-4" points="291.99 91.81 208.01 91.81 188.33 125.92 311.67 125.92 291.99 91.81"/><path class="cls-4" d="M315.08,127.89H184.92l22-38h86.26ZM191.74,124H308.26L290.85,93.77h-81.7Z"/><circle class="cls-4" cx="423.44" cy="187.03" r="18.13"/><path class="cls-4" d="M423.44,207.12A20.1,20.1,0,1,1,443.54,187,20.12,20.12,0,0,1,423.44,207.12Zm0-36.25A16.16,16.16,0,1,0,439.6,187,16.18,16.18,0,0,0,423.44,170.87Z"/><path class="cls-3" d="M423.34,217a30,30,0,0,1-29.45-24.12H352.71a114.21,114.21,0,0,1-9.29,115.47H481.59V192.84H452.78A30,30,0,0,1,423.34,217Z"/><path class="cls-4" d="M472.14,137.73H294.92A114.62,114.62,0,0,1,346.08,181h47.81a30,30,0,0,1,58.89,0h28.81V147.18A9.45,9.45,0,0,0,472.14,137.73Z"/><path class="cls-4" d="M483.56,183H451.17l-.32-1.59a28.07,28.07,0,0,0-55,0l-.31,1.59H345l-.58-.9a112.06,112.06,0,0,0-50.27-42.56l-8.82-3.78H472.14a11.43,11.43,0,0,1,11.42,11.42Zm-29.21-3.94h25.27V147.18a7.48,7.48,0,0,0-7.48-7.48H303.67a115.92,115.92,0,0,1,43.48,39.36h45.17a32,32,0,0,1,62,0Z"/><path class="cls-4" d="M18.41,147.18V181H153.92a114.62,114.62,0,0,1,51.16-43.3H27.86A9.45,9.45,0,0,0,18.41,147.18Zm83.24,22H56.22V149.54h45.43Z"/><path class="cls-4" d="M155,183H16.44V147.18a11.43,11.43,0,0,1,11.42-11.42H214.67l-8.82,3.78a112.06,112.06,0,0,0-50.27,42.56ZM20.38,179.06H152.85a115.92,115.92,0,0,1,43.48-39.36H27.86a7.48,7.48,0,0,0-7.48,7.48Zm83.24-7.87H54.25V147.57h49.37Zm-45.43-3.94H99.68V151.51H58.19Z"/><path class="cls-4" d="M91.72,82.15l-7-6.34c-1.34-1.22-2-1.15-3,0L81,76.6c-.52.57-.72.58-1.17.16l-1.49-1.34c-.57-.51-.51-.79-.07-1.28L86,65.57c.44-.5.67-.54,1.24,0l1.49,1.34c.46.42.47.62,0,1.16l-.77.84c-1,1.14-1.1,1.65.35,3L105.08,87c1.45,1.31,2,1.12,3,0l.7-.77c.51-.57.71-.58,1.14-.2l1.56,1.41c.45.42.5.72,0,1.25l-7.74,8.57c-.46.49-.72.51-1.22.06L101,95.91c-.39-.35-.44-.59,0-1.12l.7-.78c1-1.13,1.06-1.81-.29-3l-7-6.38L84.11,96.05l7,6.37c1.45,1.31,2,1.12,3,0l.71-.77c.54-.61.71-.58,1.13-.2l1.57,1.41c.45.42.5.72,0,1.25l-7.75,8.57c-.45.49-.71.51-1.21.06l-1.56-1.41c-.39-.35-.44-.59.05-1.12l.7-.78c1-1.13,1.06-1.81-.29-3L70.78,91.21c-1.34-1.22-2-1.16-3,0L67,92c-.52.57-.72.58-1.18.16l-1.49-1.34c-.56-.52-.51-.79-.06-1.28L72.06,81c.45-.5.68-.54,1.25,0l1.49,1.34c.46.42.47.62,0,1.15l-.77.85c-1,1.14-1.1,1.65.35,3l7,6.34Z"/><path class="cls-4" d="M107.75,47c10.18-7.68,19-3.38,24.39,3.78,4.89,6.48,7.78,16.57-2.89,24.62-10.21,7.71-19,3.38-24.39-3.78C99.91,65.07,97.12,55,107.75,47Zm1.51,21.18c3.57,4.72,10.2,9.71,17.67,4.07s4.5-13.15.84-18c-3.51-4.65-10.15-9.8-17.7-4.11C102.91,55.57,105.43,63.12,109.26,68.19Z"/><path class="cls-4" d="M163.34,49.38,160.26,18.3c0-.73.11-1,1-1.43l6.91-3.24c.61-.28.84-.23,1.14.42l.76,1.59a.82.82,0,0,1-.38,1.23l-1.4.72c-.61.28-1.37.79-.62,2.39l9.84,21c.73,1.56,1.09,1.76,2.34,1.17l1.47-.69c.69-.32,1-.21,1.28.36l.83,1.77c.3.65.1.9-.55,1.2l-10.32,4.84c-.61.29-.89.26-1.19-.39l-.83-1.77c-.27-.56-.24-.84.46-1.17l1.25-.58c1.25-.59,1.57-1.16.86-2.67l-8.29-17.67,2.59,26.09c0,.66,0,.81-.82,1.17l-4.07,1.9c-.65.31-.86.3-1.32-.12L142,35.19l8.7,18.58c.72,1.52,1.14,1.53,2.56.86l1.26-.59c.65-.3.82-.28,1.08.29l.89,1.9c.31.64.15.87-.41,1.14L146.26,62c-.56.26-.84.23-1.12-.37l-.91-2c-.27-.56-.18-.71.47-1l1.21-.57c1.47-.69,1.71-1.07,1-2.54L137,34.4c-.88-1.64-1.57-1.42-2.71-.94l-.64.3c-.72.29-1,.09-1.17-.34l-.81-1.73c-.3-.65-.19-.86.45-1.17l7.7-3.6c.69-.33,1.15,0,1.59.47Z"/><path class="cls-4" d="M183.42,13.12l-1.67.41c-.6.15-.84,0-1-.64L180.27,11c-.17-.7,0-.88.73-1.06l21.34-5.32c1.71-.43,2-.41,2.67,1.64l1.66,5.25c.26.87.23,1.12-.56,1.32l-2,.49c-.69.18-1,.09-1.28-.76l-.65-1.85c-.76-2.08-1.79-1.87-5.59-.92L190,11.37,192.93,23l4.4-1.09a1.31,1.31,0,0,0,1.11-1.66l-.24-1.56c-.09-.76,0-.89.72-1.06l1.8-.45c.7-.18.8,0,1,.69L204,27c.15.6.17.89-.48,1.05l-1.85.46c-.65.16-.88,0-1.13-.6l-.53-1.5a1.35,1.35,0,0,0-1.76-1l-4.4,1.1,2.79,11.2,8.47-2.11c3.06-.76,3.42-1.1,3.38-3.6l-.37-2.9c0-.64.16-.93.85-1.1l2-.5c.69-.17.9.07,1,.74L213,35.79c.21,1.47-.13,1.66-1.24,1.94l-22.51,5.6c-.6.15-.92.08-1.09-.61l-.45-1.81c-.17-.69,0-1,.55-1.12,2.55-.63,3-1.1,2.57-2.95L185.34,14.7C185,13.36,184.52,13,183.42,13.12Z"/><path class="cls-4" d="M233.15,4l-1.72,0c-.62,0-.82-.22-.83-.84l0-2c0-.72.18-.87.94-.88L243.85,0c8.21-.19,12.89,1.81,13,8,.12,5.11-3.13,7.33-6.36,7.88v0c5,.27,8.57,3.24,8.69,8.35.2,8.54-6.16,10-13.76,10.15l-13.21.31c-.63,0-.91-.13-.93-.84l0-1.86c0-.72.26-1,.79-1,2.62-.06,3.19-.41,3.14-2.31L234.68,6C234.64,4.57,234.25,4.1,233.15,4Zm7.06,10.3,4.68-.11c4.54-.1,6.46-1.82,6.37-5.69-.1-4.1-2.93-4.85-6.7-4.76L240,3.83Zm.39,16.56,5.39-.13c3.53-.08,7.62-.93,7.5-6.23-.12-5-3.35-6.47-8.65-6.35l-4.53.11Z"/><path class="cls-4" d="M275.5,21.89l-1.14,7.94c-.27,1.94.25,2.3,1.81,2.53l1.33.18c.8.12.87.27.79.84l-.3,2.08c-.08.61-.26.83-1,.72l-12.09-1.73c-.71-.1-.87-.31-.78-1l.3-2.08c.07-.52.24-.69,1-.58l1.28.18c1.55.22,2.18-.12,2.44-1.92l3.22-22.59c.2-1.37-.1-1.94-1.22-2.2L269.32,4c-.62-.08-1-.19-.92-1l.28-2c.11-.71.32-.82,1.12-.71L281.71,2c9.21,1.32,13.88,4.74,12.84,12-.79,5.53-4.05,8.1-8.62,8.7,2.19,1.57,3.14,4.36,4.92,10.16.5,1.56.92,2,2.2,2.15a6.83,6.83,0,0,0,1.69,0c.39-.05.67,0,.6.51l-.3,2.08c-.08.52-.22.84-1,1.06a9.08,9.08,0,0,1-3.13,0c-3-.43-4.32-1.87-5.29-4.85-1.15-3.74-2.12-10.82-7.41-11.57ZM280,19.11c5.39.77,8.36-1.12,9-5.7s-1.86-6.92-7.44-7.72l-3.68-.53L276,18.54Z"/><path class="cls-4" d="M310.09,11.26l-1.65-.52c-.59-.19-.7-.48-.51-1.07l.61-1.91c.21-.69.44-.76,1.17-.53l21,6.66c1.68.53,1.92.71,1.41,2.8L330.77,22c-.23.88-.39,1.07-1.17.83l-2-.62c-.68-.22-.86-.43-.68-1.32l.41-1.93c.44-2.16-.55-2.53-4.28-3.71l-6.47-2L313,24.7l4.33,1.37a1.29,1.29,0,0,0,1.81-.82l.62-1.46c.32-.7.48-.75,1.17-.53l1.77.56c.69.22.66.46.46,1.1l-2.85,9c-.19.59-.32.85-1,.64L317.52,34c-.64-.21-.77-.45-.66-1.11l.34-1.55a1.36,1.36,0,0,0-1-1.77l-4.33-1.37-3.49,11,8.33,2.64c3,1,3.49.86,4.77-1.29l1.2-2.68a.93.93,0,0,1,1.31-.48l2,.62c.68.21.73.53.44,1.14l-3,7c-.58,1.36-1,1.34-2.07,1l-22.13-7c-.59-.18-.82-.41-.6-1.09l.56-1.78c.22-.68.56-.82,1.06-.66,2.51.79,3.15.65,3.73-1.17l6.91-21.77C311.31,12.29,311.09,11.72,310.09,11.26Z"/><path class="cls-4" d="M342.26,50.65l19.3-21.4c.69-.76.8-.86,1.39-.54l3.59,2c.58.33.47.53.26,1.51L360,59l15.39-16.53a5.76,5.76,0,0,0,.86-1.05c.42-.75-.08-1.14-1.8-2.09a.74.74,0,0,1-.33-1.17l1-1.75c.35-.63.44-.69,1.32-.2l8.31,4.61c.54.3.6.49.25,1.12l-.93,1.67c-.23.42-.48.77-1.11.42-2.13-1.18-2.38-1.21-4.15.7L359.23,65.14c-.76.78-1,.84-1.79.38l-3.17-1.76c-.75-.42-.64-.91-.46-1.63l6.69-25.77L342.91,56.09c-.72.8-1,.81-1.63.46l-4.21-2.34c-.54-.3-.75-.62-.49-1.58L343.29,25c.6-2.45.42-2.72-1.33-3.69-1-.53-1-.81-.51-1.64l.81-1.47c.32-.58.52-.64,1.1-.31l10,5.56c.58.32.61.56.31,1.1l-1,1.8c-.26.45-.52.64-1,.36-1.84-1-2.45-1.3-2.89-.51a7.13,7.13,0,0,0-.48,1.37Z"/><path class="cls-4" d="M392.18,52l-1.31-1.11c-.47-.4-.46-.71-.06-1.18l1.3-1.53c.47-.55.7-.53,1.28,0L410.17,62.4c1.34,1.15,1.5,1.4.22,3.13l-3.31,4.4c-.54.73-.77.85-1.39.32l-1.57-1.33c-.54-.46-.63-.73-.12-1.48l1.12-1.62c1.25-1.82.48-2.54-2.51-5.08l-5.16-4.39-7.8,9.17,3.46,2.94a1.3,1.3,0,0,0,2-.06l1.13-1.11c.57-.52.74-.5,1.29,0l1.42,1.21c.54.46.42.68,0,1.19l-6.09,7.16c-.41.48-.63.66-1.13.23l-1.46-1.24c-.51-.43-.53-.7-.17-1.27l.91-1.29a1.37,1.37,0,0,0-.23-2l-3.45-2.94-7.49,8.81,6.66,5.66c2.4,2,2.88,2.14,4.89.65l2.14-2a.93.93,0,0,1,1.4.06l1.56,1.33c.55.46.47.77,0,1.22L391,89.29c-1.06,1-1.41.86-2.29.12L371,74.38c-.47-.4-.6-.7-.14-1.24l1.21-1.42c.47-.55.84-.54,1.24-.2,2,1.7,2.65,1.82,3.89.36L392,54.49C392.91,53.43,392.93,52.82,392.18,52Z"/><path class="cls-4" d="M418.55,78.71c1.21-1,1.26-1.61-.52-3.74-.4-.47-.34-.77.14-1.17l1.53-1.29c.55-.46.79-.41,1.27.18l7.62,9.07c8.38,10,7.85,18.35-1,25.74s-17.49,5.89-25.47-3.62l-7.62-9.07c-.39-.47-.47-.78.08-1.25L396,92.37c.54-.46.91-.4,1.25,0,1.69,2,2.31,2.23,3.78,1Zm-13.4,22.59c6.05,7.21,11.75,8,18.91,2,7.5-6.29,7.37-12.17,1.39-19.3l-2-2.38L403,98.74Z"/><path class="cls-4" d="M78.23,409.06,73,413.84c-1.44,1.32-1.27,1.94-.23,3.07l.71.77c.51.56.47.73,0,1.12L72,420.22c-.46.42-.73.47-1.22-.06L63,411.64c-.46-.49-.48-.8,0-1.25L64.55,409c.39-.36.62-.38,1.14.18l.71.78c1,1.09,1.7,1.22,3,0l16.83-15.42c1-.93,1.11-1.54.48-2.45l-1.17-1.26c-.41-.46-.37-.76.09-1.18l1.48-1.36c.53-.48.76-.44,1.28.13L96,396.7c6.78,7.39,8.42,13,2.51,18.42-5.42,5-11.44,3.63-16.54-1.94Zm5.26.37c4,4.4,7.77,4.8,11.29,1.57,3.77-3.45,3.1-6.93-1-11.43L91.4,397l-10.49,9.61Z"/><path class="cls-4" d="M118.8,437.9l5.82-7.45c1.11-1.43,1-2.06-.2-3l-.87-.68c-.59-.47-.62-.67-.24-1.16l1.23-1.58c.48-.6.75-.56,1.28-.15l9.1,7.11c.52.41.58.65.12,1.25l-1.24,1.58c-.38.48-.58.51-1.14.07l-.91-.71c-1.2-.94-1.72-1-2.92.57l-13.94,17.82c-1.2,1.54-1,2.09.24,3l.83.64c.6.47.62.67.27,1.13L114.94,458c-.38.49-.68.56-1.25.12l-9.1-7.12c-.52-.41-.55-.67-.14-1.2l1.29-1.65c.32-.42.55-.48,1.12,0l.82.65c1.21.94,1.89.92,3-.51l5.86-7.48-12.15-9.49-5.85,7.48c-1.21,1.54-1,2.09.23,3l.83.65c.64.5.63.67.28,1.12l-1.3,1.65c-.38.49-.68.56-1.24.12l-9.1-7.11c-.53-.41-.56-.68-.15-1.21l1.29-1.65c.33-.42.56-.48,1.12,0l.83.65c1.2.94,1.88.93,3-.5l13.93-17.83c1.12-1.43,1-2.06-.19-3l-.87-.67c-.6-.48-.63-.68-.24-1.16l1.23-1.58c.47-.6.74-.57,1.27-.16l9.1,7.11c.53.42.59.65.12,1.25L117.44,421c-.38.49-.58.51-1.14.07l-.91-.71c-1.2-.94-1.71-1-2.92.57l-5.82,7.44Z"/><path class="cls-4" d="M153.64,440.78c11.27,5.94,11.13,15.74,6.94,23.68-3.78,7.18-11.68,14.08-23.5,7.84-11.32-6-11.13-15.73-7-23.67C134,441.36,141.85,434.57,153.64,440.78Zm-18.52,10.36c-2.76,5.24-4.45,13.36,3.83,17.72s13.8-1.52,16.63-6.88c2.71-5.15,4.55-13.35-3.81-17.76C143.83,440,138.08,445.53,135.12,451.14Z"/><path class="cls-4" d="M168,484.43l.66-2c.17-.5.36-.64,1-.41l1,.33c1.31.43,2,.25,2.53-1.13l7.84-23.75-3.31-1.09c-2.59-.86-3.24-1-3.89.37l-1.05,2.42c-.32.65-.53.68-1.21.46l-2-.68c-.77-.25-.71-.43-.44-1.1l2.32-6c.57-1.42.82-1.43,2-1.06l22.8,7.52c1.13.38,1.37.56,1,2l-1.69,6.18c-.16.64-.24.87-1,.62l-2-.67c-.68-.23-.86-.44-.74-1.11l.64-2.55c.3-1.51-.37-1.78-3.13-2.69l-3.09-1-7.71,23.39c-.62,1.86-.21,2.3,1.24,2.78l1.05.34c.72.24.77.41.59.95l-.66,2c-.19.59-.45.76-1.09.55l-11-3.63C167.9,485.31,167.78,485.07,168,484.43Z"/><path class="cls-4" d="M218,462.05c12.59,1.95,15.65,11.26,14.28,20.13-1.24,8-6.47,17.11-19.68,15.07C200,495.29,197,486,198.32,477.12,199.57,469,204.83,460,218,462.05Zm-14.14,15.83c-.91,5.85.14,14.08,9.39,15.51,9.1,1.41,12.56-5.93,13.49-11.92.89-5.76,0-14.12-9.38-15.56C208.47,464.54,204.82,471.6,203.85,477.88Z"/><path class="cls-4" d="M257.26,483.7c0-.62.18-1,.75-1l10.07-.18a.68.68,0,0,1,.78.75l.26,14.84c0,.67-.21,1.05-.84,1.06l-1.86,0c-.76,0-1.05-.17-1.25-.79l-.25-.71a18.4,18.4,0,0,1-8.75,2.26c-9.69.17-17.14-5.28-17.36-17.35-.18-10.41,5.84-17.92,16.91-18.12,9.36-.17,12.68,4.17,12.76,8.41a3.36,3.36,0,0,1-3.52,3.5,3.19,3.19,0,0,1-3.35-3.32,3.38,3.38,0,0,1,1.61-3,12.16,12.16,0,0,0-7-1.64c-8.31.15-11.92,6.57-11.78,14.25.15,8.16,4.44,13.24,12,13.1a14.57,14.57,0,0,0,7.6-2.14l-.11-6a1,1,0,0,0-1.16-1.07l-4.64.08c-.57,0-.81-.27-.82-.89Z"/><path class="cls-4" d="M286.23,482.76l1.45,7.88c.36,1.93,1,2.1,2.52,1.82l1.32-.24c.8-.15.91,0,1,.54l.38,2.06c.11.61,0,.87-.74,1l-12,2.21c-.7.13-.92,0-1-.68l-.38-2.06c-.1-.52,0-.73.76-.87l1.27-.23c1.54-.29,2-.82,1.7-2.6l-4.12-22.44c-.26-1.36-.72-1.81-1.87-1.69l-1.78.33c-.61.11-1,.14-1.19-.66l-.36-2c-.13-.7,0-.88.82-1L285.81,462c9.15-1.69,14.66.06,16,7.29,1,5.5-1.27,9-5.41,11,2.57.78,4.36,3.12,7.89,8.06,1,1.32,1.5,1.56,2.77,1.33a6.16,6.16,0,0,0,1.6-.54c.36-.16.65-.16.73.31l.38,2.06c.1.52.06.86-.62,1.33a9.36,9.36,0,0,1-3,1c-3,.55-4.69-.4-6.55-2.92-2.28-3.17-5.45-9.57-10.71-8.61Zm3.38-4.07c5.35-1,7.56-3.72,6.73-8.27s-4-6-9.5-4.95l-3.66.67,2.44,13.28Z"/><path class="cls-4" d="M334,472.71,322.12,477l.16,5.93c0,1.46.59,1.62,1.9,1.3l.81-.3c.83-.2,1.05,0,1.26.56l.62,1.71c.24.67.06.88-.65,1.15l-9.12,3.29c-.58.22-.85.16-1.1-.51l-.63-1.75c-.21-.59-.18-.91.48-1.19l1.29-.52c.79-.34,1.08-.65,1.07-2.37l-.51-29.77c0-.62.07-.79.92-1.1l4-1.46a1,1,0,0,1,1.26.26l18.44,22.62c1.55,1.88,1.84,2,3.33,1.49l.83-.25c.81-.29,1.07-.14,1.28.45l.67,1.84c.24.67.15.86-.66,1.15l-10.27,3.72c-.77.28-1,.21-1.24-.47l-.62-1.7c-.21-.59-.14-.81.63-1.2l.59-.21c1.07-.54,1.52-.85,1.27-1.52a5,5,0,0,0-.86-1.27Zm-12,.51,9.57-3.46-9.92-12.4Z"/><path class="cls-4" d="M357.13,460l3.42,6.18c.95,1.71,1.59,1.68,2.93.94l.92-.5c.67-.37.82-.3,1.1.21l1,1.83c.3.55.29.82-.33,1.17l-10.11,5.59c-.59.33-.89.28-1.21-.31l-1-1.84c-.25-.46-.22-.69.45-1.06l.92-.51c1.29-.72,1.59-1.37.71-3l-11.05-20c-.67-1.21-1.24-1.44-2.27-1l-1.5.83c-.54.3-.83.18-1.12-.36l-1-1.75c-.34-.63-.24-.85.42-1.22l9.86-5.45c8.77-4.86,14.61-5.15,18.49,1.87,3.56,6.43.85,12-5.75,15.62Zm1.59-5c5.21-2.9,6.48-6.43,4.16-10.61-2.47-4.46-6-4.64-11.34-1.68l-3.05,1.69,6.88,12.44Z"/><path class="cls-4" d="M394.62,427.31l-5.88-7.41c-1.13-1.42-1.77-1.46-3-.51l-.86.69c-.59.47-.79.45-1.18,0l-1.25-1.57c-.47-.6-.38-.86.14-1.28l9.06-7.18c.52-.42.76-.43,1.23.17l1.25,1.57c.39.49.36.69-.2,1.13l-.89.72c-1.2.95-1.36,1.44-.14,3L407,434.3c1.22,1.54,1.81,1.43,3,.48l.82-.65c.6-.48.8-.45,1.16,0l1.3,1.64c.39.49.39.79-.17,1.24l-9.06,7.19c-.52.42-.78.38-1.2-.14l-1.31-1.64c-.32-.42-.33-.65.23-1.1l.82-.65c1.2-.95,1.34-1.62.21-3l-5.91-7.44-12.08,9.59,5.91,7.45c1.22,1.53,1.81,1.43,3,.48l.82-.66c.64-.5.8-.45,1.16,0l1.3,1.65c.39.48.39.79-.17,1.23l-9.05,7.19c-.53.42-.8.39-1.21-.13l-1.31-1.65c-.33-.41-.33-.65.23-1.1l.82-.65c1.2-.95,1.34-1.61.21-3l-14.08-17.72c-1.13-1.43-1.77-1.47-3-.51l-.86.68c-.6.47-.8.45-1.18,0l-1.25-1.57c-.48-.59-.38-.85.15-1.27l9-7.19c.53-.42.77-.42,1.24.17l1.25,1.57c.39.49.36.69-.2,1.14l-.89.71c-1.2,1-1.36,1.45-.14,3l5.88,7.4Z"/><path class="cls-4" d="M423.51,417.65l-6.06-5.47-16.07-3.57c-2.19-.43-2.86-.33-3.63.52l-.63.71c-.49.53-.9.42-1.35,0l-1.39-1.25c-.53-.48-.51-.71-.06-1.21l7.16-7.94c.45-.5.72-.58,1.25-.1l1.31,1.19c.46.41.62.81.14,1.34l-.58.64c-.77.85-.65,1.15.65,1.49l12.4,3.15-4.09-12.43c-.4-1.27-.92-1-1.44-.47l-.6.67c-.52.57-.93.39-1.39,0l-1.31-1.18c-.54-.48-.52-.72,0-1.25l6.2-6.88c.45-.49.68-.47,1.18,0l1.38,1.25c.47.42.62.75.14,1.28l-.74.82c-.51.56-.6.87,0,2.67l5,16.51,6.52,5.88c1.2,1,1.76.76,2.72-.3l.74-.82c.51-.57.68-.54,1.11-.16l1.55,1.41c.47.42.52.72.07,1.22l-7.77,8.61c-.45.49-.72.51-1.22.06l-1.56-1.41c-.39-.35-.43-.59,0-1.12l.71-.78C424.82,419.54,424.86,418.86,423.51,417.65Z"/></svg>