<svg id="Layer_1" data-name="Layer 1" xmlns="http://www.w3.org/2000/svg" viewBox="0 0 500 500"><defs><style>.cls-1{fill:#514c4b;}</style></defs><path class="cls-1" d="M250,0C112.15,0,0,112.15,0,250S112.15,500,250,500,500,387.85,500,250,387.85,0,250,0Zm0,485.14C120.35,485.14,14.86,379.65,14.86,250S120.35,14.86,250,14.86,485.14,120.35,485.14,250,379.65,485.14,250,485.14Z"/><path class="cls-1" d="M150.65,104.61a69.29,69.29,0,0,1,20.55-2.93,63.39,63.39,0,0,1,9.3.74l.12,0A163.13,163.13,0,0,1,413,247.14l-48-40.44L316.4,237.34l-60.65-70.66-59.81,76.63-36.26-22.72L87.41,261.53c-.26-3.82-.4-7.67-.4-11.53a162.71,162.71,0,0,1,43.8-111.31l3.84-4h0a52.6,52.6,0,0,1,43.59-15.43,53.53,53.53,0,0,1,22.62,8c1.61,1.22,3.36,2.27,4.9,3.6l2.29,2,1.15,1,1,1.1a1.89,1.89,0,0,1,.2.2,41.23,41.23,0,0,1,6.76,9.43,43,43,0,0,1,4,11.26,44.68,44.68,0,0,1,.62,12A45.36,45.36,0,0,1,219,179.51a46.53,46.53,0,0,1-6,10.51,38.64,38.64,0,0,1-8.78,8.18,32.39,32.39,0,0,1-11,4.64,34.2,34.2,0,0,1-23.5-3.27,33.59,33.59,0,0,1-7.89-5.83c-.55-.55-1.08-1.12-1.58-1.7a27.23,27.23,0,0,1-.87-33.71,26.1,26.1,0,0,1,4.16-4.42,23.48,23.48,0,0,1,5.14-3.13,24.14,24.14,0,0,1,5.84-1.57,22.11,22.11,0,0,1,6.08.1,21.83,21.83,0,0,1,12,6.05,17,17,0,0,1,4.94,9.36,17.42,17.42,0,0,1-2.08,11.85,17.19,17.19,0,0,1-3.95,4.69,13.92,13.92,0,0,1-5.44,2.67,14.15,14.15,0,0,1-11.75-2.36,11.1,11.1,0,0,1-1.58-1.31,11.44,11.44,0,0,1-3.26-9.44c.46-4.09,3.32-8.14,7.44-9.12a9.29,9.29,0,0,1,8.82,2.39,7.07,7.07,0,0,1,1.67,2.54,7.54,7.54,0,0,1-.32,6.18,6.43,6.43,0,0,1-5,3.59,6.12,6.12,0,0,1-4.9-1.73,5.19,5.19,0,0,1-.72-.89,5,5,0,0,1,.66-6.09,5.08,5.08,0,0,0-.83,6.2,6.32,6.32,0,0,0,.85,1.08,6.43,6.43,0,0,0,5,1.83,6.92,6.92,0,0,0,5.51-3.7,8.25,8.25,0,0,0,.54-6.75,8.61,8.61,0,0,0-2-3.15,10.35,10.35,0,0,0-9.51-2.69,10.7,10.7,0,0,0-5.92,3.69,13.11,13.11,0,0,0-2.85,6.4,13.31,13.31,0,0,0,3.74,11.32,11.87,11.87,0,0,0,1.48,1.26,16.34,16.34,0,0,0,13.51,3.13,16.55,16.55,0,0,0,6.53-3,19.81,19.81,0,0,0,4.77-5.32,20.48,20.48,0,0,0,2.85-13.83,20.83,20.83,0,0,0-5.78-11.63q-.46-.47-1-.9a25.59,25.59,0,0,0-12.73-6.37A26.52,26.52,0,0,0,174,145a27.82,27.82,0,0,0-7.06,1.67,27.5,27.5,0,0,0-6.35,3.6,30.62,30.62,0,0,0-5.13,5.11,32.51,32.51,0,0,0-6.23,27.39,33,33,0,0,0,6.23,13.14,37.59,37.59,0,0,0,2.72,3,40.34,40.34,0,0,0,8.3,6.33A41.16,41.16,0,0,0,194.63,210a40.09,40.09,0,0,0,13.63-5.27,46.66,46.66,0,0,0,11-9.6,54.93,54.93,0,0,0,7.58-12.36,51.26,51.26,0,0,0,3.49-28.65,52,52,0,0,0-4.43-14,55.37,55.37,0,0,0-10.55-14.64,63.52,63.52,0,0,0-35.64-17.58,59.73,59.73,0,0,0-8.55-.68,65.27,65.27,0,0,0-45.6,18.3h0l-3.94,3.94h0l0,0A176.07,176.07,0,1,0,403.24,336.72h0v0A175.06,175.06,0,0,0,426,250c0-97-79-176-176-176a176.13,176.13,0,0,0-99.35,30.61Zm8.69,131.12L199,260.56l57.26-73.36,57.62,67.13,50-31.55,42.83,36a231.31,231.31,0,0,0-79.28,7.89A227.68,227.68,0,0,0,249,306.27a383,383,0,0,0-38-14.44c-37.86-11.95-78.83-17.11-121.89-15.37l-.15-.89Zm252.13,36.58a161.17,161.17,0,0,1-17.11,53.5,179,179,0,0,1-60.91,7C305,331,285.18,322.4,262.62,312.3a215,215,0,0,1,68.27-33.06A217.93,217.93,0,0,1,411.47,272.31ZM152.25,380.45a438.37,438.37,0,0,1,195.49,0,163.1,163.1,0,0,1-195.49,0Zm213-15.2c-1.65,1.66-3.35,3.27-5.06,4.84a451.26,451.26,0,0,0-220.39,0c-1.71-1.57-3.4-3.17-5.05-4.83a162,162,0,0,1-43-75.85c40.78-1.44,79.54,3.53,115.34,14.83,19.2,6.07,34.21,12.79,48.73,19.29,24.33,10.89,45.33,20.3,76.79,22.27,3.76.24,7.53.35,11.32.35a191.3,191.3,0,0,0,40.89-4.53A164.85,164.85,0,0,1,365.25,365.25Z"/><path class="cls-1" d="M68.71,208,53.4,203.94l.69-2.61a7.69,7.69,0,0,1,2-3.87,5.43,5.43,0,0,1,3-1.41,30.79,30.79,0,0,1,4.56-.12c1.93,0,3.49,0,4.67,0a16.64,16.64,0,0,0,3.73-.72l2.23-8.42a13.9,13.9,0,0,1-4.08,1,45.34,45.34,0,0,1-4.83.09,33.15,33.15,0,0,0-4.4.08,9.1,9.1,0,0,0-3.35,1,8.83,8.83,0,0,0-3,2.85l-.47-.12a14.82,14.82,0,0,0-1.57-7.78,8.21,8.21,0,0,0-5.28-4.1,9.85,9.85,0,0,0-5.82.17,10.68,10.68,0,0,0-5,3.89A21.86,21.86,0,0,0,33,191.47l-1.75,6.61h0l-2.08,7.84,37.43,9.91ZM39.13,194.26a12.78,12.78,0,0,1,1.7-4,5.2,5.2,0,0,1,2.43-2,4.92,4.92,0,0,1,3-.07,4.4,4.4,0,0,1,3.3,2.89,10.6,10.6,0,0,1-.23,5.93l-1.45,5.46-10.21-2.71Z"/><path class="cls-1" d="M63,163.14a24.59,24.59,0,0,0,10.23,3.42,16,16,0,0,0,9.23-1.87,18.31,18.31,0,0,0,7-7.17,18.71,18.71,0,0,0,2.7-9.63,17,17,0,0,0-2.81-9.23,22.78,22.78,0,0,0-7.92-7.29,24.15,24.15,0,0,0-10.2-3.4A16.35,16.35,0,0,0,62,129.83,18.12,18.12,0,0,0,55,137a18.37,18.37,0,0,0-2.69,9.67,17.28,17.28,0,0,0,2.82,9.2A22.47,22.47,0,0,0,63,163.14ZM61.07,140.8a9.19,9.19,0,0,1,4.2-4,9.75,9.75,0,0,1,5.59-.61,18.86,18.86,0,0,1,6.4,2.42A18,18,0,0,1,82.47,143a9.91,9.91,0,0,1,2.19,5.26,9.12,9.12,0,0,1-1.3,5.49,8.88,8.88,0,0,1-9.77,4.64,19.17,19.17,0,0,1-6.43-2.43,17.93,17.93,0,0,1-5.2-4.37,9.91,9.91,0,0,1-2.19-5.26A9.05,9.05,0,0,1,61.07,140.8Z"/><polygon class="cls-1" points="114.82 122.27 126.04 110.77 120.89 105.74 110.03 116.87 87.47 94.87 81.85 100.63 109.58 127.66 114.82 122.27"/><polygon class="cls-1" points="145.86 95.91 145.86 95.91 158.84 87.36 154.88 81.34 141.89 89.89 124.56 63.58 117.84 68 139.14 100.33 145.86 95.91"/><rect class="cls-1" x="166.39" y="41.33" width="8.04" height="38.72" transform="translate(-10.2 70.83) rotate(-22.82)"/><polygon class="cls-1" points="207.31 68.76 202.43 42.44 202.84 42.36 206.75 47.32 222.54 65.94 231.74 64.23 224.68 26.16 217.31 27.53 222.32 54.56 221.91 54.64 218.13 49.72 201.78 30.41 192.93 32.05 199.99 70.12 207.31 68.76"/><path class="cls-1" d="M257.17,62.18a16,16,0,0,0,8.7,3.26,10.66,10.66,0,0,0,5.78-1,12.71,12.71,0,0,0,4.53-3.91l.48,0,1.17,5.22,5,.44,1.76-20.15L269.9,44.76,269.35,51l6.7.59a7.83,7.83,0,0,1-2.49,5q-2.1,1.91-5.92,1.56a8.74,8.74,0,0,1-5-2,9.7,9.7,0,0,1-2.93-4.72,18.32,18.32,0,0,1-.54-6.86,17.18,17.18,0,0,1,1.77-6.56A10.08,10.08,0,0,1,264.73,34a9.05,9.05,0,0,1,5.49-1.12,8.39,8.39,0,0,1,4.87,1.87,8.11,8.11,0,0,1,2.55,4.2L285.28,37a13.52,13.52,0,0,0-2.61-5.65,14.1,14.1,0,0,0-5-4,19.89,19.89,0,0,0-7-1.84,17.81,17.81,0,0,0-9.58,1.66,17.26,17.26,0,0,0-7,6.47,22.72,22.72,0,0,0-3.25,10.26A25.3,25.3,0,0,0,252,54.64,16.26,16.26,0,0,0,257.17,62.18Z"/><polygon class="cls-1" points="337.24 66.38 350.12 73.09 342.19 88.32 349.33 92.03 367.21 57.69 360.08 53.98 353.31 66.97 340.43 60.26 347.19 47.27 340.06 43.55 322.18 77.89 329.31 81.61 337.24 66.38"/><rect class="cls-1" x="361.1" y="87.44" width="38.72" height="8.04" transform="translate(67.93 326.92) rotate(-50.51)"/><polygon class="cls-1" points="390.91 128.64 390.91 128.64 400.92 140.55 406.43 135.91 396.43 124.01 420.56 103.74 415.38 97.58 385.74 122.49 390.91 128.64"/><polygon class="cls-1" points="412.4 159.22 412.4 159.22 420.93 175.49 427.31 172.14 420.1 158.37 448.01 143.75 444.28 136.62 409.98 154.59 412.4 159.22"/><path class="cls-1" d="M468.16,193.21a16.93,16.93,0,0,0-3.58-7.23,11.54,11.54,0,0,0-5.36-3.57,10.8,10.8,0,0,0-5.91-.11q-4.37,1.13-6.24,3.47a9.58,9.58,0,0,0-2.14,5,36.17,36.17,0,0,0,.09,6.68,44.06,44.06,0,0,1,.13,4.58,6.19,6.19,0,0,1-.84,3,4,4,0,0,1-2.63,1.8,3.58,3.58,0,0,1-2.43-.15,4.7,4.7,0,0,1-1.92-1.79,11.61,11.61,0,0,1-1.34-3.28,7.39,7.39,0,0,1,4.07-9.18l-3.41-6.93a12.42,12.42,0,0,0-7.07,6.45q-2.07,4.47-.28,11.39a19.93,19.93,0,0,0,3.24,7.1,10.85,10.85,0,0,0,5.21,3.85,11.91,11.91,0,0,0,7,.05,10.61,10.61,0,0,0,6-3.48,9.89,9.89,0,0,0,2.08-5.12,37.84,37.84,0,0,0-.12-6.8,40.71,40.71,0,0,1-.17-4.48,6.69,6.69,0,0,1,.73-3,3.58,3.58,0,0,1,2.41-1.71,4.07,4.07,0,0,1,2.54.12,5,5,0,0,1,2.13,1.65,9.34,9.34,0,0,1,1.61,6.71,5.66,5.66,0,0,1-1.33,2.77,8.42,8.42,0,0,1-2.48,1.88l3.1,6.95a13,13,0,0,0,4.83-3.36,11.53,11.53,0,0,0,2.58-5.51A17.7,17.7,0,0,0,468.16,193.21Z"/><path class="cls-1" d="M44.19,300.56a21.88,21.88,0,0,1,2-1.49,12.13,12.13,0,0,0,3.22-2.63A8.13,8.13,0,0,0,51,293.22a7.49,7.49,0,0,0,.22-1.68A15.46,15.46,0,0,0,53,296.39a7.3,7.3,0,0,0,3.12,3,6.92,6.92,0,0,0,4.34.4,6.8,6.8,0,0,0,3.82-2A7.27,7.27,0,0,0,66,293.71a19.5,19.5,0,0,0-.34-6.17l-1.07-5.61h0l-1-5-.91-4.77-2.8.53a25.73,25.73,0,0,1,.23,2.64,1.51,1.51,0,0,1-.21.9,1.79,1.79,0,0,1-.91.36l-19.49,3.72a1.86,1.86,0,0,1-1,0,1.43,1.43,0,0,1-.53-.76c-.17-.42-.42-1.27-.76-2.54l-2.8.54.91,4.77.75,3.9L37,291.1l2.81-.54a27.08,27.08,0,0,1-.25-2.72,1.67,1.67,0,0,1,.2-.95,1.57,1.57,0,0,1,.91-.4l8.71-1.66.4,2.06a3.9,3.9,0,0,1-.21,2.49A3.71,3.71,0,0,1,48.14,291c-.65.38-1.61.86-2.86,1.43-.36.16-.72.32-1.07.46a11.71,11.71,0,0,0-1.1.51,20.27,20.27,0,0,0-3.4,2.17,4.38,4.38,0,0,0-1.52,2.15,5.86,5.86,0,0,0,0,2.75,5.12,5.12,0,0,0,1.2,2.61,4.53,4.53,0,0,0,2.15,1.29,7.39,7.39,0,0,0,2.61.23l.14-.25a2.55,2.55,0,0,1-.68-.67,2.34,2.34,0,0,1-.34-.82,2.13,2.13,0,0,1,.08-1.13A3.14,3.14,0,0,1,44.19,300.56Zm17-18,1,5a7,7,0,0,1,.08,2.78,3.19,3.19,0,0,1-1.08,1.82,5.06,5.06,0,0,1-2.33,1,4.56,4.56,0,0,1-2.59-.12,3.65,3.65,0,0,1-1.68-1.45,7.48,7.48,0,0,1-1-2.74l-.9-4.68Z"/><path class="cls-1" d="M75.23,336.35a12.3,12.3,0,0,0,3-6.46,14,14,0,0,0-1.11-7.46,14.35,14.35,0,0,0-4.53-6,13,13,0,0,0-6.8-2.62,16.46,16.46,0,0,0-8,1.37,17.36,17.36,0,0,0-6.64,4.64,12.39,12.39,0,0,0-3,6.51,14.07,14.07,0,0,0,1.11,7.44,14.69,14.69,0,0,0,4.56,6.1,12.52,12.52,0,0,0,6.78,2.57,16.94,16.94,0,0,0,8-1.43A17.48,17.48,0,0,0,75.23,336.35Zm-15.32,0a7.2,7.2,0,0,1-4.29-.77A6.39,6.39,0,0,1,53,332.37a6.48,6.48,0,0,1-.45-4.18A7.2,7.2,0,0,1,55,324.6a20.83,20.83,0,0,1,5.42-3.12,20.06,20.06,0,0,1,6-1.64,7.22,7.22,0,0,1,4.27.8A7.24,7.24,0,0,1,73.77,328a7.28,7.28,0,0,1-2.43,3.56,20.88,20.88,0,0,1-5.41,3.11A20.91,20.91,0,0,1,59.91,336.36Z"/><path class="cls-1" d="M78.74,373.11a4.47,4.47,0,0,1-2.25.28,2.46,2.46,0,0,1-1.27-1.08l-3.07-4.54,17.19-11.61a1.28,1.28,0,0,1,.94-.31,2.07,2.07,0,0,1,.89.64c.35.36,1,1.16,1.94,2.4l2.37-1.6-3.25-4.81-2.07-3.06-2.72-4L85.08,347c.65,1.13,1.07,1.91,1.25,2.33a1.42,1.42,0,0,1,.16.91,1.79,1.79,0,0,1-.7.69L69.35,362a1.75,1.75,0,0,1-.9.39,1.45,1.45,0,0,1-.79-.49,25.66,25.66,0,0,1-1.69-2l-2.37,1.6,2.72,4L68,368h0l8.41,12.45,9.36-6.37-1.92-2.85Q80.33,372.63,78.74,373.11Z"/><path class="cls-1" d="M113.5,379.43l-2.59-2.64-3.41-3.47-2,2q1.27,1.5,1.65,2.07a1.4,1.4,0,0,1,.32.87,1.72,1.72,0,0,1-.56.8L92.71,392.94a1.75,1.75,0,0,1-.81.55,1.37,1.37,0,0,1-.86-.34,25.8,25.8,0,0,1-2-1.69l-2,2,3.4,3.47,2.1,2.13h0L103,409.79l8.05-8-2.4-2.46q-3.21,2-4.68,2.78a4.42,4.42,0,0,1-2.17.69,2.47,2.47,0,0,1-1.44-.83l-3.84-3.92,14.81-14.52a1.3,1.3,0,0,1,.87-.48,2.12,2.12,0,0,1,1,.47q.61.44,2.34,2l2-2Z"/><path class="cls-1" d="M140.36,402.82v0l-4.21-2.93-4-2.75-1.63,2.35a22.9,22.9,0,0,1,2,1.72,1.33,1.33,0,0,1,.48.79,1.74,1.74,0,0,1-.4.89l-11.31,16.3a1.74,1.74,0,0,1-.69.69,1.37,1.37,0,0,1-.91-.17,25.61,25.61,0,0,1-2.32-1.28l-1.62,2.34,4,2.78,4.21,2.92h0L136.31,435l5.94-8.79-2.71-1.88a47.13,47.13,0,0,1-3.83,3.25,4.13,4.13,0,0,1-1.85.87,2.47,2.47,0,0,1-1.49-.52L126,423.52l5.47-7.9,6.09,4.52,2.37-3.4-6.35-4.16,4.8-6.91,6,4.17a2.3,2.3,0,0,1,1,1.16,4,4,0,0,1-.16,1.95q-.36,1.33-1.62,4.63l2.75,1.91,5.91-8.44Z"/><path class="cls-1" d="M181.37,427.08a20.41,20.41,0,0,0-7.3-4.93l-1.76-.75h0l-4.72-2-4.46-1.91L162,420.1a23.8,23.8,0,0,1,2.32,1.28,1.41,1.41,0,0,1,.63.68,1.88,1.88,0,0,1-.21.95l-7.8,18.25a1.7,1.7,0,0,1-.54.81,1.37,1.37,0,0,1-.93,0c-.44-.1-1.28-.36-2.52-.79l-1.12,2.62,4.47,1.91,3,1.3h0l.06,0,1.63.69h0l1.55.66a20.14,20.14,0,0,0,8.58,1.82,12.25,12.25,0,0,0,7.11-2.39,16.9,16.9,0,0,0,6.2-14.23A11.73,11.73,0,0,0,181.37,427.08Zm-4.46,11.6a17.52,17.52,0,0,1-3.41,5.48,6.9,6.9,0,0,1-4.1,2.15,9.51,9.51,0,0,1-4.93-.87l-2.05-.87,8.53-20,1.8.78a10.13,10.13,0,0,1,4.25,3.05,6.93,6.93,0,0,1,1.38,4.32A15.63,15.63,0,0,1,176.91,438.68Z"/><path class="cls-1" d="M223.16,436.19l-4.82-.63-.37,2.83a24.54,24.54,0,0,1,2.57.61,1.42,1.42,0,0,1,.79.48,1.79,1.79,0,0,1,0,1l-2.59,19.67a1.76,1.76,0,0,1-.31.93,1.43,1.43,0,0,1-.89.26,23.3,23.3,0,0,1-2.64-.08l-.37,2.83,4.82.64,3.93.52,4.82.63.37-2.82a25.94,25.94,0,0,1-2.57-.61,1.7,1.7,0,0,1-.79-.49,1.46,1.46,0,0,1-.1-1l2.6-19.68a1.48,1.48,0,0,1,.35-.92,1.59,1.59,0,0,1,.89-.26,21.24,21.24,0,0,1,2.64.08l.37-2.83-4.82-.64Z"/><path class="cls-1" d="M266,460.05a9.26,9.26,0,0,1-2.89,1.79,10.65,10.65,0,0,1-3.57.71,8.88,8.88,0,0,1-4.63-1,7.2,7.2,0,0,1-3-3.32,14.68,14.68,0,0,1-1.18-5.79,18.92,18.92,0,0,1,.66-6.16,7.58,7.58,0,0,1,2.29-3.7,5.86,5.86,0,0,1,3.62-1.32,5.15,5.15,0,0,1,3,.8,7.9,7.9,0,0,1,2.3,2.45,25.13,25.13,0,0,1,2,4.15l3.43-.1L267.74,437l-3.43.11-1.45,3.19a5.5,5.5,0,0,0-1.24-1.41,7,7,0,0,0-2.42-1.24,9.36,9.36,0,0,0-3.05-.38,11.47,11.47,0,0,0-6.31,2.07,13.16,13.16,0,0,0-4.47,5.45,17,17,0,0,0-1.5,7.85,17.52,17.52,0,0,0,2,8.08,12.13,12.13,0,0,0,5.06,5,14.83,14.83,0,0,0,7.45,1.55,12.89,12.89,0,0,0,5.23-1.18,8.35,8.35,0,0,0,3.6-3.26,9.76,9.76,0,0,0,1.27-5.33l-.37-.21A10.72,10.72,0,0,1,266,460.05Z"/><path class="cls-1" d="M308.08,448.24l-3.22.75a48.39,48.39,0,0,1-.16,5,4,4,0,0,1-.61,1.94,2.36,2.36,0,0,1-1.38.76l-7.56,1.75L293,449.11l7.44-1.48-.94-4-7.34,1.91-1.89-8.19,7.12-1.65a2.36,2.36,0,0,1,1.51.06,4,4,0,0,1,1.34,1.43q.74,1.16,2.34,4.31l3.26-.75-2.28-10-14.07,3.26v0l-5,1.15-4.73,1.12.65,2.78a23.41,23.41,0,0,1,2.62-.33,1.39,1.39,0,0,1,.91.17,1.9,1.9,0,0,1,.39.9L288.78,459a1.75,1.75,0,0,1,0,1,1.42,1.42,0,0,1-.74.56c-.41.18-1.25.47-2.5.85l.64,2.78L291,463.1l5-1.16h0l14.64-3.39Z"/><path class="cls-1" d="M364.18,424a10.79,10.79,0,0,1-.58,3.41,9.31,9.31,0,0,1-1.7,2.94,10.3,10.3,0,0,1-2.8,2.32,8.92,8.92,0,0,1-4.53,1.35,7.18,7.18,0,0,1-4.2-1.51,14.62,14.62,0,0,1-3.79-4.53,18.61,18.61,0,0,1-2.34-5.73,7.61,7.61,0,0,1,.25-4.35,5.81,5.81,0,0,1,2.56-2.88,5.11,5.11,0,0,1,3.05-.74,7.85,7.85,0,0,1,3.19,1.06,26.51,26.51,0,0,1,3.76,2.69l3-1.72-5.8-10-3,1.73.24,3.49a5.46,5.46,0,0,0-1.76-.65A7.36,7.36,0,0,0,347,411a9.09,9.09,0,0,0-2.86,1.12,11.5,11.5,0,0,0-4.58,4.82,13.3,13.3,0,0,0-1.34,6.92,17,17,0,0,0,2.41,7.62,17.57,17.57,0,0,0,5.59,6.16,12.1,12.1,0,0,0,6.83,2,14.83,14.83,0,0,0,7.3-2.17,12.8,12.8,0,0,0,4-3.53,8.32,8.32,0,0,0,1.63-4.58A9.83,9.83,0,0,0,364.6,424Z"/><path class="cls-1" d="M401.74,399.38l-.29,0a2.26,2.26,0,0,1-.23.91,2.1,2.1,0,0,1-.53.71,2,2,0,0,1-1,.51,3.19,3.19,0,0,1-1.41-.18,19,19,0,0,1-2.28-.93,12.12,12.12,0,0,0-3.91-1.42,8.12,8.12,0,0,0-3.6.24,7.2,7.2,0,0,0-1.55.67,15.63,15.63,0,0,0,3.28-4,7.27,7.27,0,0,0,1-4.22,6.9,6.9,0,0,0-1.88-3.94,6.77,6.77,0,0,0-3.65-2.27,7.2,7.2,0,0,0-4.42.58,19.4,19.4,0,0,0-5.14,3.45l-4.28,3.78h0l-3.84,3.4L364.36,400l1.9,2.14a25.43,25.43,0,0,1,2.14-1.55,1.35,1.35,0,0,1,.89-.27,1.73,1.73,0,0,1,.77.6l13.15,14.85a1.68,1.68,0,0,1,.5.84,1.34,1.34,0,0,1-.38.84,22,22,0,0,1-1.79,2l1.89,2.14,3.64-3.23,3-2.63,3.74-3.31-1.89-2.13a26,26,0,0,1-2.21,1.6,1.72,1.72,0,0,1-.92.31,1.58,1.58,0,0,1-.81-.57l-5.88-6.65,1.57-1.39a3.93,3.93,0,0,1,2.25-1.09,3.61,3.61,0,0,1,2.1.46c.66.36,1.56.94,2.69,1.72l.94.69c.3.23.63.46,1,.7a21.46,21.46,0,0,0,3.6,1.81,4.5,4.5,0,0,0,2.63.21,6,6,0,0,0,2.39-1.37,5.26,5.26,0,0,0,1.63-2.37,4.56,4.56,0,0,0,0-2.51A7.69,7.69,0,0,0,401.74,399.38Zm-27.59-3.45,3.84-3.4a7.26,7.26,0,0,1,2.35-1.48,3.18,3.18,0,0,1,2.11,0,5.06,5.06,0,0,1,2.05,1.5,4.57,4.57,0,0,1,1.22,2.29,3.71,3.71,0,0,1-.39,2.18,7.69,7.69,0,0,1-1.84,2.26l-3.58,3.16Z"/><path class="cls-1" d="M419.62,367.56a45.73,45.73,0,0,1,3.09,4,4.17,4.17,0,0,1,.79,1.88,2.4,2.4,0,0,1-.58,1.46l-4.68,6.19-7.66-5.79,4.76-5.9-3.3-2.51L407.63,373,400.92,368l4.41-5.83a2.32,2.32,0,0,1,1.2-.92,3.88,3.88,0,0,1,1.94.24c.88.27,2.4.88,4.56,1.81l2-2.67-8.19-6.25-8.71,11.52h0l-3.1,4.09-2.91,3.89,2.27,1.72c.87-1,1.47-1.64,1.81-1.94a1.44,1.44,0,0,1,.81-.45,1.82,1.82,0,0,1,.87.44l15.83,12a1.78,1.78,0,0,1,.65.72,1.39,1.39,0,0,1-.21.91,22.92,22.92,0,0,1-1.37,2.26l2.28,1.72L418,387.3l2.07-2.73h0l10.09-13.34-8.54-6.3Z"/><path class="cls-1" d="M449.46,329.07a.28.28,0,0,0-.07.09,5.51,5.51,0,0,1-1,1.2,2.09,2.09,0,0,1-1.2.44,13.56,13.56,0,0,1-2.3-.1L420.61,329l-2.19,4.54,15.19,16.67a.18.18,0,0,1,.09.07l.09.06a23.08,23.08,0,0,1,2.08,2.47,3.35,3.35,0,0,1,.65,1.64,6.7,6.7,0,0,1-.22,2l2.57,1.24,5.07-10.53L441.4,346a7.18,7.18,0,0,1-1.64,2,1.43,1.43,0,0,1-1.47.28,5.07,5.07,0,0,1-1.6-1.21l-1.49-1.53,4.16-8.64,4,.42a1.94,1.94,0,0,1,1.13.32q.27.26.12,1a17.33,17.33,0,0,1-.76,2.29l2.53,1.22,5.73-11.89-2.57-1.24Zm-16.74,13.85-4-4.11-3.54-3.53,5,.61,5.66.58Z"/><path class="cls-1" d="M462.13,280.72a1.38,1.38,0,0,1-.54.72,1.82,1.82,0,0,1-1,0l-19.37-4.28a1.82,1.82,0,0,1-.9-.38,1.33,1.33,0,0,1-.19-.89,20.92,20.92,0,0,1,.31-2.65l-2.79-.62-1.05,4.75-.24,1.09h0l-1.15,5.22,16,11.15L432,298.24l-2.36,10.67,2.79.61a29.71,29.71,0,0,1,1.53-3.36l18.41,4.07a5.64,5.64,0,0,1,1.72.61,1.86,1.86,0,0,1,.73,1.21,9.81,9.81,0,0,1,.08,2.62l2.79.62,2.52-11.41-2.78-.61a10.47,10.47,0,0,1-1.2,2.4,2,2,0,0,1-1.21.85,4.5,4.5,0,0,1-1.8-.12l-14.89-3.29,23.16-4.38.21-1L442.12,283.9l17.11,3.78a1.94,1.94,0,0,1,.9.36,1.23,1.23,0,0,1,.2.86,24.76,24.76,0,0,1-.31,2.61l2.79.61,1.05-4.74.85-3.83,1.05-4.75-2.79-.62A24.93,24.93,0,0,1,462.13,280.72Z"/></svg>