<svg id="Layer_1" data-name="Layer 1" xmlns="http://www.w3.org/2000/svg" xmlns:xlink="http://www.w3.org/1999/xlink" viewBox="0 0 500 500"><defs><style>.cls-1{fill:none;}.cls-2{clip-path:url(#clip-path);}.cls-3{fill:#9cc065;}.cls-4{fill:#669ab9;}.cls-5{fill:#545456;}</style><clipPath id="clip-path"><circle class="cls-1" cx="250.78" cy="250" r="250"/></clipPath></defs><g class="cls-2"><path class="cls-3" d="M250.52,408.09l8.16,4.24H499.23V358.5a430.14,430.14,0,0,1-47.32,2.85A403.54,403.54,0,0,1,383,355.49c-59.94-10.38-99.83-31.3-142.07-53.43-37.75-19.78-76.8-40.24-133.12-53.71A482.34,482.34,0,0,0,.78,235.61v103.7A503.65,503.65,0,0,1,112.63,352.6C171.44,366.67,211.64,387.73,250.52,408.09Z"/><path class="cls-4" d="M.78,349.59v62.74H234.39c-32.9-18-69-35.18-116.2-47.49A485.8,485.8,0,0,0,.78,349.59Z"/><path class="cls-5" d="M250.53,294.11c40.77,21.36,79.25,41.51,136,51.38,36.47,6.34,74.37,7.08,112.66,2.6v-88.2L447.33,205l-51.89,54.85v-57.4H349.13V142.77H245.36v59.72h-30V129.4L177.35,74.55l-38,54.85v42.45H104.54V142.77H.77v82.56C39,225.74,76.6,230,112.62,238.62,171.44,252.69,211.65,273.75,250.53,294.11Z"/></g></svg>