<svg id="Layer_1" data-name="Layer 1" xmlns="http://www.w3.org/2000/svg" viewBox="0 0 862.41 900"><defs><style>.cls-1{fill:#91c356;}.cls-2{fill:#579bbc;}.cls-3{fill:#545457;}</style></defs><path class="cls-1" d="M432.1,577c4.71,2.47,9.39,4.9,14.08,7.34H862.41V491.24a739.61,739.61,0,0,1-81.87,4.93A696.61,696.61,0,0,1,661.36,486c-103.71-18-172.73-54.15-245.79-92.43C350.24,359.36,282.69,324,185.24,300.66,125.6,286.39,63.33,279.28,0,278.62V458c66.06.69,131.13,8.07,193.52,23C295.29,505.37,364.82,541.81,432.1,577Z"/><path class="cls-2" d="M0,475.82V584.37H404.18c-56.9-31.11-119.38-60.86-201-82.17C137.7,485.12,69.36,476.59,0,475.82Z"/><path class="cls-3" d="M432.11,379.84c70.51,36.94,137.13,71.83,235.34,88.89,63.12,11,128.69,12.26,195,4.5V320.59l-89.76-94.86-89.76,94.86V221.31H602.71V118H423.19V221.31H371.33V94.86L305.5,0,239.67,94.86V168.3H179.52V118H0V260.83c66.21.7,131.19,8.07,193.52,23C295.29,308.16,364.84,344.6,432.11,379.84Z"/><path class="cls-2" d="M29,624,49.7,682.59,70.34,624H92.19v80.77H75.49V682.7l1.67-38.11-21.8,60.19H43.93L22.19,644.65l1.66,38.05v22.08H7.21V624Z"/><path class="cls-2" d="M178.76,666.23a48.75,48.75,0,0,1-4.22,20.91A31.8,31.8,0,0,1,162.48,701a35.65,35.65,0,0,1-35.92,0,32,32,0,0,1-12.2-13.78A47.17,47.17,0,0,1,110,666.67v-4a48.62,48.62,0,0,1,4.29-21,32,32,0,0,1,12.15-13.92,35.56,35.56,0,0,1,35.89,0,32,32,0,0,1,12.15,13.92,48.47,48.47,0,0,1,4.3,20.94Zm-16.87-3.66q0-12.71-4.54-19.31a14.83,14.83,0,0,0-13-6.6q-8.38,0-12.93,6.52t-4.6,19.11v3.94q0,12.36,4.55,19.19t13.09,6.82q8.37,0,12.87-6.57t4.54-19.17Z"/><path class="cls-2" d="M226.44,675.21H213.18v29.57H196.54V624h30q14.31,0,22.08,6.38t7.76,18q0,8.26-3.58,13.78A24.38,24.38,0,0,1,242,671l17.47,33v.78H241.58Zm-13.26-13.48h13.43q6.25,0,9.7-3.19t3.44-8.79q0-5.71-3.24-9t-10-3.28H213.18Z"/><path class="cls-2" d="M338.63,694.57q-4.49,5.38-12.7,8.35a53.15,53.15,0,0,1-18.19,3,36.06,36.06,0,0,1-18.39-4.58A30.57,30.57,0,0,1,277.14,688a47,47,0,0,1-4.41-20.47v-5.49q0-12.11,4.08-20.94a30.21,30.21,0,0,1,11.76-13.54,33.91,33.91,0,0,1,18-4.69q14.37,0,22.46,6.85t9.6,20h-16.2q-1.11-6.94-4.9-10.15t-10.46-3.22q-8.49,0-12.92,6.38t-4.5,19v5.16q0,12.7,4.83,19.19t14.14,6.49q9.38,0,13.37-4V674.6H306.85V662.34h31.78Z"/><path class="cls-2" d="M403.4,688.14H374.22l-5.55,16.64H351L381,624h15.42l30.23,80.77H409Zm-24.69-13.48H398.9l-10.15-30.23Z"/><path class="cls-2" d="M505.61,704.78H489l-32.4-53.14v53.14H439.93V624h16.64L489,677.26V624h16.59Z"/><path class="cls-2" d="M586.63,637.49H561.89v67.29H545.25V637.49H520.84V624h65.79Z"/><path class="cls-2" d="M666.59,666.23a48.75,48.75,0,0,1-4.21,20.91A31.82,31.82,0,0,1,650.31,701a35.65,35.65,0,0,1-35.92,0,32.11,32.11,0,0,1-12.2-13.78,47.46,47.46,0,0,1-4.38-20.61v-4a48.48,48.48,0,0,1,4.3-21,31.87,31.87,0,0,1,12.15-13.92,35.56,35.56,0,0,1,35.89,0,31.91,31.91,0,0,1,12.14,13.92,48.33,48.33,0,0,1,4.3,20.94Zm-16.86-3.66q0-12.71-4.55-19.31t-13-6.6q-8.37,0-12.92,6.52t-4.61,19.11v3.94q0,12.36,4.55,19.19a14.78,14.78,0,0,0,13.09,6.82q8.37,0,12.87-6.57t4.55-19.17Z"/><path class="cls-2" d="M747.28,681.48,758.15,624h16.58l-17.91,80.77H740.07l-13.15-54-13.15,54H697L679.11,624h16.58l10.93,57.36L719.93,624H734Z"/><path class="cls-2" d="M855.09,704.78H838.45l-32.4-53.14v53.14H789.41V624h16.64l32.45,53.25V624h16.59Z"/><path class="cls-3" d="M21.76,796.2H54v12.19H6.58V734.73H21.76Z"/><path class="cls-3" d="M106.27,793.21H79.66L74.6,808.39H58.46l27.42-73.66H100l27.57,73.66H111.38ZM83.76,780.92h18.41l-9.26-27.57Z"/><path class="cls-3" d="M195.34,808.39H180.16l-29.54-48.47v48.47H135.44V734.73h15.18l29.59,48.57V734.73h15.13Z"/><path class="cls-3" d="M209.63,808.39V734.73H232.3a34.42,34.42,0,0,1,17.38,4.38,30.46,30.46,0,0,1,12,12.44,38.34,38.34,0,0,1,4.3,18.34v3.39a38.52,38.52,0,0,1-4.22,18.26,30.25,30.25,0,0,1-11.92,12.4,34.66,34.66,0,0,1-17.35,4.45ZM224.81,747V796.2h7.33q8.91,0,13.61-5.82t4.81-16.64v-3.9q0-11.24-4.65-17T232.3,747Z"/><path class="cls-3" d="M334.74,781.43H322.65v27H307.47V734.73h27.37q13.05,0,20.13,5.82T362.06,757q0,7.54-3.27,12.57a22.19,22.19,0,0,1-9.89,8l15.94,30.1v.71H348.55Zm-12.09-12.3h12.24q5.72,0,8.85-2.91a10.4,10.4,0,0,0,3.14-8,11.13,11.13,0,0,0-3-8.19q-3-3-9.08-3H322.65Z"/><path class="cls-3" d="M419,776.47H389.81V796.2H424v12.19H374.63V734.73h49.28V747h-34.1v17.56H419Z"/><path class="cls-3" d="M489.7,734.73v48.52q0,12.09-7.56,19.12t-20.67,7q-12.9,0-20.49-6.83t-7.74-18.77V734.73h15.18v48.62q0,7.23,3.47,10.55t9.58,3.31q12.81,0,13-13.46v-49Z"/><path class="cls-3" d="M541.39,789.07a7.82,7.82,0,0,0-3-6.61q-3-2.3-10.93-4.85a77.5,77.5,0,0,1-12.5-5q-12.54-6.78-12.54-18.26a17.81,17.81,0,0,1,3.36-10.65,21.92,21.92,0,0,1,9.67-7.31,36.22,36.22,0,0,1,14.14-2.63,33.16,33.16,0,0,1,14.06,2.85,22.45,22.45,0,0,1,9.59,8.07,21.12,21.12,0,0,1,3.41,11.84H541.44a9.94,9.94,0,0,0-3.19-7.86c-2.13-1.88-5.11-2.81-9-2.81s-6.59.78-8.65,2.35a7.42,7.42,0,0,0-3.08,6.2q0,3.58,3.61,6a40.57,40.57,0,0,0,10.65,4.55q13,3.9,18.87,9.67A19.21,19.21,0,0,1,556.61,789q0,9.57-7.23,15T529.9,809.4a37.49,37.49,0,0,1-15.48-3.11,24.39,24.39,0,0,1-10.65-8.52,21.8,21.8,0,0,1-3.67-12.55h15.23q0,12.19,14.57,12.19,5.42,0,8.45-2.2A7.15,7.15,0,0,0,541.39,789.07Z"/><path class="cls-3" d="M612.24,776.47H583.1V796.2h34.2v12.19H567.92V734.73H617.2V747H583.1v17.56h29.14Z"/><path class="cls-3" d="M698.29,793.21H671.68l-5.06,15.18H650.48l27.42-73.66H692l27.58,73.66H703.4Zm-22.52-12.29h18.42l-9.26-27.57Z"/><path class="cls-3" d="M787.36,808.39H772.18l-29.55-48.47v48.47H727.46V734.73h15.17l29.6,48.57V734.73h15.13Z"/><path class="cls-3" d="M801.65,808.39V734.73h22.66a34.39,34.39,0,0,1,17.38,4.38,30.48,30.48,0,0,1,12,12.44,38.46,38.46,0,0,1,4.3,18.34v3.39a38.4,38.4,0,0,1-4.23,18.26,30.16,30.16,0,0,1-11.91,12.4,34.69,34.69,0,0,1-17.35,4.45ZM816.83,747V796.2h7.33q8.91,0,13.61-5.82t4.81-16.64v-3.9q0-11.24-4.66-17T824.31,747Z"/><path class="cls-3" d="M15.63,880.62v18.65H4.73V846.34H25.37a23.81,23.81,0,0,1,10.49,2.19,16,16,0,0,1,7,6.19,17.25,17.25,0,0,1,2.44,9.15q0,7.77-5.33,12.27t-14.74,4.48Zm0-8.83h9.74q4.34,0,6.6-2a7.4,7.4,0,0,0,2.27-5.82A8.73,8.73,0,0,0,32,857.65a8.53,8.53,0,0,0-6.32-2.47h-10Z"/><path class="cls-3" d="M73.09,879.9H64.4v19.37H53.49V846.34H73.16q9.38,0,14.47,4.18t5.09,11.82a16.3,16.3,0,0,1-2.35,9,16,16,0,0,1-7.11,5.76l11.46,21.63v.51H83Zm-8.69-8.84h8.8A9,9,0,0,0,79.56,869a7.47,7.47,0,0,0,2.25-5.76,8,8,0,0,0-2.13-5.89c-1.41-1.43-3.59-2.14-6.52-2.14H64.4Z"/><path class="cls-3" d="M133.59,876.33H112.66v14.18h24.57v8.76H101.75V846.34h35.41v8.84h-24.5v12.61h20.93Z"/><path class="cls-3" d="M171.82,885.39a5.61,5.61,0,0,0-2.19-4.75q-2.17-1.65-7.85-3.49a56.29,56.29,0,0,1-9-3.61q-9-4.87-9-13.13a12.72,12.72,0,0,1,2.42-7.65,15.74,15.74,0,0,1,6.94-5.25,26.13,26.13,0,0,1,10.16-1.89,23.81,23.81,0,0,1,10.11,2,16.05,16.05,0,0,1,6.88,5.8,15.15,15.15,0,0,1,2.46,8.51H171.85a7.14,7.14,0,0,0-2.29-5.66,9.42,9.42,0,0,0-6.43-2,10,10,0,0,0-6.22,1.69,5.31,5.31,0,0,0-2.21,4.45,5.12,5.12,0,0,0,2.59,4.33,29.72,29.72,0,0,0,7.66,3.27q9.3,2.79,13.56,6.94a13.83,13.83,0,0,1,4.25,10.32,12.72,12.72,0,0,1-5.2,10.78q-5.2,3.92-14,3.91a26.89,26.89,0,0,1-11.13-2.24,17.65,17.65,0,0,1-7.65-6.12,15.67,15.67,0,0,1-2.64-9H153.1q0,8.76,10.47,8.76a10.11,10.11,0,0,0,6.06-1.58A5.12,5.12,0,0,0,171.82,885.39Z"/><path class="cls-3" d="M222.73,876.33H201.79v14.18h24.57v8.76H190.88V846.34h35.41v8.84h-24.5v12.61h20.94Z"/><path class="cls-3" d="M253.1,879.9h-8.69v19.37H233.5V846.34h19.67q9.38,0,14.47,4.18t5.09,11.82a16.22,16.22,0,0,1-2.35,9,16,16,0,0,1-7.1,5.76l11.45,21.63v.51H263Zm-8.69-8.84h8.8a9,9,0,0,0,6.36-2.09,7.47,7.47,0,0,0,2.25-5.76,8,8,0,0,0-2.12-5.89q-2.13-2.15-6.53-2.14h-8.76Z"/><path class="cls-3" d="M300.63,886.15l12-39.81h12.14l-18.43,52.93H295L276.6,846.34h12.11Z"/><path class="cls-3" d="M357.64,888.37H338.52l-3.63,10.9h-11.6L343,846.34H353.1l19.81,52.93H361.32Zm-16.17-8.84H354.7l-6.65-19.81Z"/><path class="cls-3" d="M414.08,855.18H397.87v44.09H387V855.18H371v-8.84h43.11Z"/><path class="cls-3" d="M432.64,899.27H421.73V846.34h10.91Z"/><path class="cls-3" d="M487,874a31.94,31.94,0,0,1-2.77,13.7,20.75,20.75,0,0,1-7.9,9.09,23.37,23.37,0,0,1-23.54,0,21,21,0,0,1-8-9,31,31,0,0,1-2.87-13.5v-2.62a31.76,31.76,0,0,1,2.82-13.76,20.92,20.92,0,0,1,8-9.12,23.33,23.33,0,0,1,23.52,0,21,21,0,0,1,8,9.12A31.68,31.68,0,0,1,487,871.65Zm-11.06-2.4q0-8.33-3-12.65a10.52,10.52,0,0,0-17-.06q-3,4.27-3,12.53V874q0,8.1,3,12.58a9.7,9.7,0,0,0,8.58,4.47,9.6,9.6,0,0,0,8.43-4.31q3-4.31,3-12.56Z"/><path class="cls-3" d="M538.68,899.27H527.77l-21.23-34.82v34.82h-10.9V846.34h10.9l21.27,34.9v-34.9h10.87Z"/><path class="cls-3" d="M603.31,888.37H584.19l-3.63,10.9H569l19.7-52.93h10.11l19.81,52.93H607Zm-16.17-8.84h13.23l-6.65-19.81Z"/><path class="cls-3" d="M666.15,892.58a19,19,0,0,1-8.33,5.48A35,35,0,0,1,645.9,900a23.6,23.6,0,0,1-12-3,20,20,0,0,1-8-8.7A30.67,30.67,0,0,1,623,874.88v-3.6a32.54,32.54,0,0,1,2.67-13.72,19.73,19.73,0,0,1,7.71-8.87,22.19,22.19,0,0,1,11.8-3.07q9.4,0,14.72,4.49t6.29,13.07H655.53c-.48-3-1.56-5.25-3.21-6.66a10.34,10.34,0,0,0-6.86-2.11A9.68,9.68,0,0,0,637,858.6q-2.91,4.17-2.94,12.43v3.38q0,8.33,3.16,12.58t9.27,4.25q6.15,0,8.76-2.62V879.5h-9.92v-8h20.83Z"/><path class="cls-3" d="M707.57,876.33H686.63v14.18H711.2v8.76H675.72V846.34h35.41v8.84h-24.5v12.61h20.94Z"/><path class="cls-3" d="M761.39,899.27H750.48l-21.23-34.82v34.82h-10.9V846.34h10.9l21.27,34.9v-34.9h10.87Z"/><path class="cls-3" d="M813.21,881.64q-.63,8.55-6.31,13.45t-15,4.91q-10.17,0-16-6.85t-5.83-18.81V871.1a31.63,31.63,0,0,1,2.69-13.45,20.1,20.1,0,0,1,7.68-8.92,21.51,21.51,0,0,1,11.62-3.11q9.16,0,14.76,4.9t6.47,13.78H802.37q-.39-5.12-2.85-7.43t-7.47-2.31q-5.46,0-8.16,3.91t-2.78,12.12v4q0,8.58,2.6,12.54t8.19,4q5.05,0,7.55-2.3t2.85-7.15Z"/><path class="cls-3" d="M839.36,870.19l11-23.85H862.3l-17.38,33.74v19.19H833.84V880.08l-17.38-33.74h12Z"/></svg>