{
    "asset" : {
        "generator" : "Khronos glTF Blender I/O v1.4.40",
        "version" : "2.0"
    },
    "scene" : 0,
    "scenes" : [
        {
            "name" : "Scene",
            "nodes" : [
                0,
                1,
                2,
                3,
                4,
                5,
                6,
                7,
                8
            ]
        }
    ],
    "nodes" : [
        {
            "mesh" : 0,
            "name" : "Cube.003",
            "scale" : [
                1,
                0.14000004529953003,
                1.159999966621399
            ],
            "translation" : [
                4.154967784881592,
                2.1270248889923096,
                -2.172161102294922
            ]
        },
        {
            "mesh" : 1,
            "name" : "Cube.004",
            "scale" : [
                0.75,
                0.02500000037252903,
                6.599963665008545
            ],
            "translation" : [
                1.783427357673645,
                0,
                -0.059123679995536804
            ]
        },
        {
            "mesh" : 2,
            "name" : "Cube",
            "scale" : [
                2,
                1,
                1
            ],
            "translation" : [
                10.036901473999023,
                1,
                0.9810190796852112
            ]
        },
        {
            "name" : "Light",
            "rotation" : [
                0.16907551884651184,
                0.7558804154396057,
                -0.2721710503101349,
                0.5709475874900818
            ],
            "translation" : [
                -6.985804557800293,
                6.76198673248291,
                -0.20928668975830078
            ]
        },
        {
            "name" : "Camera",
            "rotation" : [
                0.4647054970264435,
                -0.5180670619010925,
                0.4076889455318451,
                0.5911387801170349
            ],
            "scale" : [
                1,
                9.979999542236328,
                1
            ],
            "translation" : [
                -14.044677734375,
                3.7079572677612305,
                -0.5216878056526184
            ]
        },
        {
            "mesh" : 3,
            "name" : "Cube.001",
            "translation" : [
                9.35866928100586,
                1,
                -1.9335863590240479
            ]
        },
        {
            "mesh" : 4,
            "name" : "Plane",
            "scale" : [
                6.632071495056152,
                2.1120715141296387,
                6.632071495056152
            ]
        },
        {
            "mesh" : 5,
            "name" : "Cube.002",
            "translation" : [
                4.227544784545898,
                1,
                0
            ]
        },
        {
            "mesh" : 6,
            "name" : "Sphere",
            "translation" : [
                0,
                2.909792423248291,
                1.4347411394119263
            ]
        }
    ],
    "materials" : [
        {
            "doubleSided" : true,
            "name" : "Material",
            "pbrMetallicRoughness" : {
                "baseColorFactor" : [
                    0.800000011920929,
                    0.800000011920929,
                    0.800000011920929,
                    1
                ],
                "metallicFactor" : 0,
                "roughnessFactor" : 0.4000000059604645
            }
        },
        {
            "doubleSided" : true,
            "name" : "Material.004",
            "pbrMetallicRoughness" : {
                "metallicFactor" : 0,
                "roughnessFactor" : 0.5
            }
        },
        {
            "doubleSided" : true,
            "name" : "Material.003",
            "pbrMetallicRoughness" : {
                "metallicFactor" : 0,
                "roughnessFactor" : 0.5
            }
        },
        {
            "doubleSided" : true,
            "name" : "Material.005",
            "pbrMetallicRoughness" : {
                "metallicFactor" : 0,
                "roughnessFactor" : 0.5
            }
        }
    ],
    "meshes" : [
        {
            "name" : "Cube.004",
            "primitives" : [
                {
                    "attributes" : {
                        "POSITION" : 0,
                        "NORMAL" : 1,
                        "TEXCOORD_0" : 2
                    },
                    "indices" : 3
                }
            ]
        },
        {
            "name" : "Cube.005",
            "primitives" : [
                {
                    "attributes" : {
                        "POSITION" : 4,
                        "NORMAL" : 5,
                        "TEXCOORD_0" : 6
                    },
                    "indices" : 7
                }
            ]
        },
        {
            "name" : "Cube",
            "primitives" : [
                {
                    "attributes" : {
                        "POSITION" : 8,
                        "NORMAL" : 9,
                        "TEXCOORD_0" : 10
                    },
                    "indices" : 11,
                    "material" : 0
                }
            ]
        },
        {
            "name" : "Cube.001",
            "primitives" : [
                {
                    "attributes" : {
                        "POSITION" : 12,
                        "NORMAL" : 13,
                        "TEXCOORD_0" : 14
                    },
                    "indices" : 15
                }
            ]
        },
        {
            "name" : "Plane",
            "primitives" : [
                {
                    "attributes" : {
                        "POSITION" : 16,
                        "NORMAL" : 17,
                        "TEXCOORD_0" : 18
                    },
                    "indices" : 19,
                    "material" : 1
                }
            ]
        },
        {
            "name" : "Cube.002",
            "primitives" : [
                {
                    "attributes" : {
                        "POSITION" : 20,
                        "NORMAL" : 21,
                        "TEXCOORD_0" : 22
                    },
                    "indices" : 23,
                    "material" : 2
                }
            ]
        },
        {
            "name" : "Sphere",
            "primitives" : [
                {
                    "attributes" : {
                        "POSITION" : 24,
                        "NORMAL" : 25,
                        "TEXCOORD_0" : 26
                    },
                    "indices" : 27,
                    "material" : 3
                }
            ]
        }
    ],
    "accessors" : [
        {
            "bufferView" : 0,
            "componentType" : 5126,
            "count" : 48,
            "max" : [
                1,
                1,
                1
            ],
            "min" : [
                -1,
                -2.2051455974578857,
                -1
            ],
            "type" : "VEC3"
        },
        {
            "bufferView" : 1,
            "componentType" : 5126,
            "count" : 48,
            "type" : "VEC3"
        },
        {
            "bufferView" : 2,
            "componentType" : 5126,
            "count" : 48,
            "type" : "VEC2"
        },
        {
            "bufferView" : 3,
            "componentType" : 5123,
            "count" : 84,
            "type" : "SCALAR"
        },
        {
            "bufferView" : 4,
            "componentType" : 5126,
            "count" : 24,
            "max" : [
                1,
                1,
                1
            ],
            "min" : [
                -1,
                -1,
                -1
            ],
            "type" : "VEC3"
        },
        {
            "bufferView" : 5,
            "componentType" : 5126,
            "count" : 24,
            "type" : "VEC3"
        },
        {
            "bufferView" : 6,
            "componentType" : 5126,
            "count" : 24,
            "type" : "VEC2"
        },
        {
            "bufferView" : 7,
            "componentType" : 5123,
            "count" : 36,
            "type" : "SCALAR"
        },
        {
            "bufferView" : 8,
            "componentType" : 5126,
            "count" : 182,
            "max" : [
                1,
                1,
                1
            ],
            "min" : [
                -1,
                -1,
                -1
            ],
            "type" : "VEC3"
        },
        {
            "bufferView" : 9,
            "componentType" : 5126,
            "count" : 182,
            "type" : "VEC3"
        },
        {
            "bufferView" : 10,
            "componentType" : 5126,
            "count" : 182,
            "type" : "VEC2"
        },
        {
            "bufferView" : 11,
            "componentType" : 5123,
            "count" : 468,
            "type" : "SCALAR"
        },
        {
            "bufferView" : 12,
            "componentType" : 5126,
            "count" : 112,
            "max" : [
                1.0551091432571411,
                1,
                1.0551091432571411
            ],
            "min" : [
                -1.0551091432571411,
                -1,
                -1.0551091432571411
            ],
            "type" : "VEC3"
        },
        {
            "bufferView" : 13,
            "componentType" : 5126,
            "count" : 112,
            "type" : "VEC3"
        },
        {
            "bufferView" : 14,
            "componentType" : 5126,
            "count" : 112,
            "type" : "VEC2"
        },
        {
            "bufferView" : 15,
            "componentType" : 5123,
            "count" : 180,
            "type" : "SCALAR"
        },
        {
            "bufferView" : 16,
            "componentType" : 5126,
            "count" : 301,
            "max" : [
                1.0046637058258057,
                0.3502914309501648,
                1.0046639442443848
            ],
            "min" : [
                -1.004669427871704,
                -0.006096675526350737,
                -1.0048425197601318
            ],
            "type" : "VEC3"
        },
        {
            "bufferView" : 17,
            "componentType" : 5126,
            "count" : 301,
            "type" : "VEC3"
        },
        {
            "bufferView" : 18,
            "componentType" : 5126,
            "count" : 301,
            "type" : "VEC2"
        },
        {
            "bufferView" : 19,
            "componentType" : 5123,
            "count" : 492,
            "type" : "SCALAR"
        },
        {
            "bufferView" : 20,
            "componentType" : 5126,
            "count" : 94,
            "max" : [
                1,
                2.688189744949341,
                1
            ],
            "min" : [
                -1.0912182331085205,
                -1,
                -4.500949859619141
            ],
            "type" : "VEC3"
        },
        {
            "bufferView" : 21,
            "componentType" : 5126,
            "count" : 94,
            "type" : "VEC3"
        },
        {
            "bufferView" : 22,
            "componentType" : 5126,
            "count" : 94,
            "type" : "VEC2"
        },
        {
            "bufferView" : 23,
            "componentType" : 5123,
            "count" : 174,
            "type" : "SCALAR"
        },
        {
            "bufferView" : 24,
            "componentType" : 5126,
            "count" : 1984,
            "max" : [
                1.000000238418579,
                1,
                1.0000003576278687
            ],
            "min" : [
                -0.9999998211860657,
                -1,
                -1
            ],
            "type" : "VEC3"
        },
        {
            "bufferView" : 25,
            "componentType" : 5126,
            "count" : 1984,
            "type" : "VEC3"
        },
        {
            "bufferView" : 26,
            "componentType" : 5126,
            "count" : 1984,
            "type" : "VEC2"
        },
        {
            "bufferView" : 27,
            "componentType" : 5123,
            "count" : 2880,
            "type" : "SCALAR"
        }
    ],
    "bufferViews" : [
        {
            "buffer" : 0,
            "byteLength" : 576,
            "byteOffset" : 0
        },
        {
            "buffer" : 0,
            "byteLength" : 576,
            "byteOffset" : 576
        },
        {
            "buffer" : 0,
            "byteLength" : 384,
            "byteOffset" : 1152
        },
        {
            "buffer" : 0,
            "byteLength" : 168,
            "byteOffset" : 1536
        },
        {
            "buffer" : 0,
            "byteLength" : 288,
            "byteOffset" : 1704
        },
        {
            "buffer" : 0,
            "byteLength" : 288,
            "byteOffset" : 1992
        },
        {
            "buffer" : 0,
            "byteLength" : 192,
            "byteOffset" : 2280
        },
        {
            "buffer" : 0,
            "byteLength" : 72,
            "byteOffset" : 2472
        },
        {
            "buffer" : 0,
            "byteLength" : 2184,
            "byteOffset" : 2544
        },
        {
            "buffer" : 0,
            "byteLength" : 2184,
            "byteOffset" : 4728
        },
        {
            "buffer" : 0,
            "byteLength" : 1456,
            "byteOffset" : 6912
        },
        {
            "buffer" : 0,
            "byteLength" : 936,
            "byteOffset" : 8368
        },
        {
            "buffer" : 0,
            "byteLength" : 1344,
            "byteOffset" : 9304
        },
        {
            "buffer" : 0,
            "byteLength" : 1344,
            "byteOffset" : 10648
        },
        {
            "buffer" : 0,
            "byteLength" : 896,
            "byteOffset" : 11992
        },
        {
            "buffer" : 0,
            "byteLength" : 360,
            "byteOffset" : 12888
        },
        {
            "buffer" : 0,
            "byteLength" : 3612,
            "byteOffset" : 13248
        },
        {
            "buffer" : 0,
            "byteLength" : 3612,
            "byteOffset" : 16860
        },
        {
            "buffer" : 0,
            "byteLength" : 2408,
            "byteOffset" : 20472
        },
        {
            "buffer" : 0,
            "byteLength" : 984,
            "byteOffset" : 22880
        },
        {
            "buffer" : 0,
            "byteLength" : 1128,
            "byteOffset" : 23864
        },
        {
            "buffer" : 0,
            "byteLength" : 1128,
            "byteOffset" : 24992
        },
        {
            "buffer" : 0,
            "byteLength" : 752,
            "byteOffset" : 26120
        },
        {
            "buffer" : 0,
            "byteLength" : 348,
            "byteOffset" : 26872
        },
        {
            "buffer" : 0,
            "byteLength" : 23808,
            "byteOffset" : 27220
        },
        {
            "buffer" : 0,
            "byteLength" : 23808,
            "byteOffset" : 51028
        },
        {
            "buffer" : 0,
            "byteLength" : 15872,
            "byteOffset" : 74836
        },
        {
            "buffer" : 0,
            "byteLength" : 5760,
            "byteOffset" : 90708
        }
    ],
    "buffers" : [
        {
            "byteLength" : 96468,
            "uri" : "data:application/octet-stream;base64,"
        }
    ]
}
